G04 (created by PCBNEW-RS274X (2012-01-19 BZR 3256)-stable) date 5/19/2013 8:27:51 PM*
G01*
G70*
G90*
%MOIN*%
G04 Gerber Fmt 3.4, Leading zero omitted, Abs format*
%FSLAX34Y34*%
G04 APERTURE LIST*
%ADD10C,0.006000*%
%ADD11C,0.015000*%
%ADD12C,0.169600*%
%ADD13R,0.079100X0.079100*%
%ADD14C,0.079100*%
%ADD15R,0.106500X0.079000*%
%ADD16O,0.106500X0.079000*%
%ADD17C,0.126300*%
%ADD18C,0.138100*%
%ADD19R,0.138100X0.138100*%
%ADD20R,0.080000X0.106600*%
%ADD21O,0.080000X0.106600*%
%ADD22R,0.106600X0.080000*%
%ADD23O,0.106600X0.080000*%
%ADD24C,0.098700*%
%ADD25R,0.098700X0.098700*%
G04 APERTURE END LIST*
G54D10*
G54D11*
X84000Y-14000D02*
X84000Y-53000D01*
X23000Y-14000D02*
X84000Y-14000D01*
X23000Y-53000D02*
X23000Y-14000D01*
X84000Y-53000D02*
X23000Y-53000D01*
G54D12*
X26000Y-41338D03*
X26000Y-36665D03*
G54D13*
X28500Y-37250D03*
G54D14*
X29500Y-37750D03*
X28500Y-38250D03*
X29500Y-38750D03*
X28500Y-39250D03*
X29500Y-39750D03*
X28500Y-40250D03*
X29500Y-40750D03*
G54D12*
X26000Y-33338D03*
X26000Y-28665D03*
G54D13*
X28500Y-29250D03*
G54D14*
X29500Y-29750D03*
X28500Y-30250D03*
X29500Y-30750D03*
X28500Y-31250D03*
X29500Y-31750D03*
X28500Y-32250D03*
X29500Y-32750D03*
G54D15*
X35500Y-39100D03*
G54D16*
X32500Y-39100D03*
X35500Y-38100D03*
X32500Y-38100D03*
G54D17*
X29500Y-25000D03*
X29500Y-23000D03*
G54D18*
X30413Y-18000D03*
X35587Y-18000D03*
X35587Y-20236D03*
X30413Y-20236D03*
G54D14*
X32606Y-19067D03*
X33394Y-19067D03*
X34378Y-19067D03*
X31622Y-19067D03*
X34378Y-20099D03*
X33394Y-20099D03*
X32606Y-20099D03*
X31622Y-20099D03*
G54D18*
X38413Y-18000D03*
X43587Y-18000D03*
X43587Y-20236D03*
X38413Y-20236D03*
G54D14*
X40606Y-19067D03*
X41394Y-19067D03*
X42378Y-19067D03*
X39622Y-19067D03*
X42378Y-20099D03*
X41394Y-20099D03*
X40606Y-20099D03*
X39622Y-20099D03*
G54D18*
X46413Y-18000D03*
X51587Y-18000D03*
X51587Y-20236D03*
X46413Y-20236D03*
G54D14*
X48606Y-19067D03*
X49394Y-19067D03*
X50378Y-19067D03*
X47622Y-19067D03*
X50378Y-20099D03*
X49394Y-20099D03*
X48606Y-20099D03*
X47622Y-20099D03*
G54D18*
X54413Y-18000D03*
X59587Y-18000D03*
X59587Y-20236D03*
X54413Y-20236D03*
G54D14*
X56606Y-19067D03*
X57394Y-19067D03*
X58378Y-19067D03*
X55622Y-19067D03*
X58378Y-20099D03*
X57394Y-20099D03*
X56606Y-20099D03*
X55622Y-20099D03*
G54D18*
X62413Y-18000D03*
X67587Y-18000D03*
X67587Y-20236D03*
X62413Y-20236D03*
G54D14*
X64606Y-19067D03*
X65394Y-19067D03*
X66378Y-19067D03*
X63622Y-19067D03*
X66378Y-20099D03*
X65394Y-20099D03*
X64606Y-20099D03*
X63622Y-20099D03*
G54D18*
X70413Y-18000D03*
X75587Y-18000D03*
X75587Y-20236D03*
X70413Y-20236D03*
G54D14*
X72606Y-19067D03*
X73394Y-19067D03*
X74378Y-19067D03*
X71622Y-19067D03*
X74378Y-20099D03*
X73394Y-20099D03*
X72606Y-20099D03*
X71622Y-20099D03*
G54D18*
X35587Y-49000D03*
X30413Y-49000D03*
X30413Y-46764D03*
X35587Y-46764D03*
G54D14*
X33394Y-47933D03*
X32606Y-47933D03*
X31622Y-47933D03*
X34378Y-47933D03*
X31622Y-46901D03*
X32606Y-46901D03*
X33394Y-46901D03*
X34378Y-46901D03*
G54D18*
X43587Y-49000D03*
X38413Y-49000D03*
X38413Y-46764D03*
X43587Y-46764D03*
G54D14*
X41394Y-47933D03*
X40606Y-47933D03*
X39622Y-47933D03*
X42378Y-47933D03*
X39622Y-46901D03*
X40606Y-46901D03*
X41394Y-46901D03*
X42378Y-46901D03*
G54D18*
X51587Y-49000D03*
X46413Y-49000D03*
X46413Y-46764D03*
X51587Y-46764D03*
G54D14*
X49394Y-47933D03*
X48606Y-47933D03*
X47622Y-47933D03*
X50378Y-47933D03*
X47622Y-46901D03*
X48606Y-46901D03*
X49394Y-46901D03*
X50378Y-46901D03*
G54D18*
X59587Y-49000D03*
X54413Y-49000D03*
X54413Y-46764D03*
X59587Y-46764D03*
G54D14*
X57394Y-47933D03*
X56606Y-47933D03*
X55622Y-47933D03*
X58378Y-47933D03*
X55622Y-46901D03*
X56606Y-46901D03*
X57394Y-46901D03*
X58378Y-46901D03*
G54D18*
X67587Y-49000D03*
X62413Y-49000D03*
X62413Y-46764D03*
X67587Y-46764D03*
G54D14*
X65394Y-47933D03*
X64606Y-47933D03*
X63622Y-47933D03*
X66378Y-47933D03*
X63622Y-46901D03*
X64606Y-46901D03*
X65394Y-46901D03*
X66378Y-46901D03*
G54D18*
X75587Y-49000D03*
X70413Y-49000D03*
X70413Y-46764D03*
X75587Y-46764D03*
G54D14*
X73394Y-47933D03*
X72606Y-47933D03*
X71622Y-47933D03*
X74378Y-47933D03*
X71622Y-46901D03*
X72606Y-46901D03*
X73394Y-46901D03*
X74378Y-46901D03*
G54D19*
X25500Y-25000D03*
G54D18*
X25500Y-23000D03*
G54D19*
X25500Y-19000D03*
G54D18*
X25500Y-17000D03*
G54D20*
X81919Y-42581D03*
G54D21*
X82919Y-42581D03*
G54D20*
X69500Y-40000D03*
G54D21*
X68500Y-40000D03*
X67500Y-40000D03*
X66500Y-40000D03*
X65500Y-40000D03*
X64500Y-40000D03*
G54D22*
X45500Y-30000D03*
G54D23*
X45500Y-31000D03*
X45500Y-32000D03*
X45500Y-33000D03*
X45500Y-34000D03*
G54D22*
X83000Y-44500D03*
G54D23*
X83000Y-45500D03*
X83000Y-46500D03*
X83000Y-47500D03*
G54D22*
X79000Y-41000D03*
G54D23*
X79000Y-40000D03*
X79000Y-39000D03*
X79000Y-38000D03*
G54D22*
X32800Y-32500D03*
G54D23*
X32800Y-33500D03*
X32800Y-34500D03*
X32800Y-35500D03*
G54D24*
X80114Y-30720D03*
X81886Y-33280D03*
X81886Y-30720D03*
X80114Y-33280D03*
X80114Y-26720D03*
X81886Y-29280D03*
X81886Y-26720D03*
X80114Y-29280D03*
G54D22*
X52500Y-38500D03*
G54D23*
X52500Y-39500D03*
X52500Y-40500D03*
X52500Y-41500D03*
G54D25*
X79500Y-20510D03*
G54D24*
X81500Y-20500D03*
G54D25*
X25000Y-46010D03*
G54D24*
X27000Y-46000D03*
G54D25*
X37390Y-23200D03*
G54D24*
X37400Y-25200D03*
G54D22*
X45500Y-40000D03*
G54D23*
X45500Y-39000D03*
X45500Y-38000D03*
X45500Y-37000D03*
X45500Y-36000D03*
M02*
