M48
;DRILL file {Pcbnew (2012-01-19 BZR 3256)-stable} date 5/19/2013 8:27:59 PM
;FORMAT={-:-/ absolute / inch / decimal}
FMAT,2
INCH,TZ
T1C0.016
T2C0.032
T3C0.035
T4C0.037
T5C0.039
T6C0.055
T7C0.091
T8C0.128
T9C0.177
%
G90
G05
M72
T1
X2.580Y-3.500
X2.760Y-3.140
X2.840Y-3.520
X3.790Y-4.010
X3.940Y-3.380
X3.960Y-3.040
X4.970Y-3.420
X5.250Y-3.450
X5.375Y-3.250
X5.380Y-3.060
X5.385Y-3.380
X5.405Y-3.505
X5.410Y-3.210
X5.420Y-3.080
X5.455Y-3.505
X5.460Y-3.190
X5.470Y-3.140
X5.470Y-3.460
X5.480Y-2.940
X5.540Y-3.150
X5.550Y-3.080
X5.610Y-3.540
X5.615Y-3.410
X5.650Y-3.380
X5.700Y-4.245
X5.720Y-3.390
X5.740Y-3.280
X5.750Y-2.940
X5.820Y-3.080
X5.820Y-3.740
X5.920Y-3.110
X5.940Y-3.720
X6.010Y-3.190
X6.060Y-3.240
X6.075Y-3.135
X6.100Y-3.340
X6.100Y-3.610
X6.150Y-3.610
X6.170Y-3.650
X6.230Y-3.650
X6.260Y-3.420
X6.280Y-3.170
X6.280Y-3.720
X6.360Y-3.760
X6.495Y-3.120
X7.150Y-3.930
X7.610Y-3.180
X7.650Y-2.500
X7.850Y-3.500
X7.910Y-3.570
X8.030Y-4.430
X8.050Y-4.500
T2
X2.500Y-4.601
X2.700Y-4.600
X3.739Y-2.320
X3.740Y-2.520
X7.950Y-2.051
X8.150Y-2.050
T3
X2.850Y-2.925
X2.850Y-3.025
X2.850Y-3.125
X2.850Y-3.225
X2.850Y-3.725
X2.850Y-3.825
X2.850Y-3.925
X2.850Y-4.025
X2.950Y-2.975
X2.950Y-3.075
X2.950Y-3.175
X2.950Y-3.275
X2.950Y-3.775
X2.950Y-3.875
X2.950Y-3.975
X2.950Y-4.075
T4
X3.162Y-1.907
X3.162Y-2.010
X3.162Y-4.690
X3.162Y-4.793
X3.261Y-1.907
X3.261Y-2.010
X3.261Y-4.690
X3.261Y-4.793
X3.339Y-1.907
X3.339Y-2.010
X3.339Y-4.690
X3.339Y-4.793
X3.438Y-1.907
X3.438Y-2.010
X3.438Y-4.690
X3.438Y-4.793
X3.962Y-1.907
X3.962Y-2.010
X3.962Y-4.690
X3.962Y-4.793
X4.061Y-1.907
X4.061Y-2.010
X4.061Y-4.690
X4.061Y-4.793
X4.139Y-1.907
X4.139Y-2.010
X4.139Y-4.690
X4.139Y-4.793
X4.238Y-1.907
X4.238Y-2.010
X4.238Y-4.690
X4.238Y-4.793
X4.762Y-1.907
X4.762Y-2.010
X4.762Y-4.690
X4.762Y-4.793
X4.861Y-1.907
X4.861Y-2.010
X4.861Y-4.690
X4.861Y-4.793
X4.939Y-1.907
X4.939Y-2.010
X4.939Y-4.690
X4.939Y-4.793
X5.038Y-1.907
X5.038Y-2.010
X5.038Y-4.690
X5.038Y-4.793
X5.562Y-1.907
X5.562Y-2.010
X5.562Y-4.690
X5.562Y-4.793
X5.661Y-1.907
X5.661Y-2.010
X5.661Y-4.690
X5.661Y-4.793
X5.739Y-1.907
X5.739Y-2.010
X5.739Y-4.690
X5.739Y-4.793
X5.838Y-1.907
X5.838Y-2.010
X5.838Y-4.690
X5.838Y-4.793
X6.362Y-1.907
X6.362Y-2.010
X6.362Y-4.690
X6.362Y-4.793
X6.461Y-1.907
X6.461Y-2.010
X6.461Y-4.690
X6.461Y-4.793
X6.539Y-1.907
X6.539Y-2.010
X6.539Y-4.690
X6.539Y-4.793
X6.638Y-1.907
X6.638Y-2.010
X6.638Y-4.690
X6.638Y-4.793
X7.162Y-1.907
X7.162Y-2.010
X7.162Y-4.690
X7.162Y-4.793
X7.261Y-1.907
X7.261Y-2.010
X7.261Y-4.690
X7.261Y-4.793
X7.339Y-1.907
X7.339Y-2.010
X7.339Y-4.690
X7.339Y-4.793
X7.438Y-1.907
X7.438Y-2.010
X7.438Y-4.690
X7.438Y-4.793
T5
X3.250Y-3.810
X3.250Y-3.910
X3.280Y-3.250
X3.280Y-3.350
X3.280Y-3.450
X3.280Y-3.550
X3.550Y-3.810
X3.550Y-3.910
X4.550Y-3.000
X4.550Y-3.100
X4.550Y-3.200
X4.550Y-3.300
X4.550Y-3.400
X4.550Y-3.600
X4.550Y-3.700
X4.550Y-3.800
X4.550Y-3.900
X4.550Y-4.000
X5.250Y-3.850
X5.250Y-3.950
X5.250Y-4.050
X5.250Y-4.150
X6.450Y-4.000
X6.550Y-4.000
X6.650Y-4.000
X6.750Y-4.000
X6.850Y-4.000
X6.950Y-4.000
X7.900Y-3.800
X7.900Y-3.900
X7.900Y-4.000
X7.900Y-4.100
X8.011Y-2.672
X8.011Y-2.928
X8.011Y-3.072
X8.011Y-3.328
X8.189Y-2.672
X8.189Y-2.928
X8.189Y-3.072
X8.189Y-3.328
X8.192Y-4.258
X8.292Y-4.258
X8.300Y-4.450
X8.300Y-4.550
X8.300Y-4.650
X8.300Y-4.750
T6
X2.550Y-1.700
X2.550Y-1.900
X2.550Y-2.300
X2.550Y-2.500
X2.950Y-2.300
X2.950Y-2.500
T7
X3.041Y-1.800
X3.041Y-2.024
X3.041Y-4.676
X3.041Y-4.900
X3.559Y-1.800
X3.559Y-2.024
X3.559Y-4.676
X3.559Y-4.900
X3.841Y-1.800
X3.841Y-2.024
X3.841Y-4.676
X3.841Y-4.900
X4.359Y-1.800
X4.359Y-2.024
X4.359Y-4.676
X4.359Y-4.900
X4.641Y-1.800
X4.641Y-2.024
X4.641Y-4.676
X4.641Y-4.900
X5.159Y-1.800
X5.159Y-2.024
X5.159Y-4.676
X5.159Y-4.900
X5.441Y-1.800
X5.441Y-2.024
X5.441Y-4.676
X5.441Y-4.900
X5.959Y-1.800
X5.959Y-2.024
X5.959Y-4.676
X5.959Y-4.900
X6.241Y-1.800
X6.241Y-2.024
X6.241Y-4.676
X6.241Y-4.900
X6.759Y-1.800
X6.759Y-2.024
X6.759Y-4.676
X6.759Y-4.900
X7.041Y-1.800
X7.041Y-2.024
X7.041Y-4.676
X7.041Y-4.900
X7.559Y-1.800
X7.559Y-2.024
X7.559Y-4.676
X7.559Y-4.900
T8
X2.600Y-2.867
X2.600Y-3.334
X2.600Y-3.667
X2.600Y-4.134
T9
X2.550Y-5.050
X8.150Y-1.650
X8.150Y-5.050
T0
M30
