G04 (created by PCBNEW-RS274X (2012-01-19 BZR 3256)-stable) date 5/31/2013 9:18:15 AM*
G01*
G70*
G90*
%MOIN*%
G04 Gerber Fmt 3.4, Leading zero omitted, Abs format*
%FSLAX34Y34*%
G04 APERTURE LIST*
%ADD10C,0.006000*%
%ADD11C,0.015000*%
%ADD12R,0.094700X0.066200*%
%ADD13R,0.094700X0.113500*%
%ADD14R,0.102700X0.078000*%
%ADD15R,0.074300X0.037700*%
%ADD16C,0.169600*%
%ADD17R,0.079100X0.079100*%
%ADD18C,0.079100*%
%ADD19R,0.106500X0.079000*%
%ADD20O,0.106500X0.079000*%
%ADD21R,0.047600X0.059400*%
%ADD22C,0.138100*%
%ADD23R,0.100000X0.164000*%
%ADD24R,0.100000X0.060000*%
%ADD25R,0.164000X0.100000*%
%ADD26R,0.060000X0.100000*%
%ADD27R,0.160000X0.090000*%
%ADD28R,0.090000X0.160000*%
%ADD29R,0.138100X0.138100*%
%ADD30R,0.075000X0.170000*%
%ADD31R,0.100000X0.080000*%
%ADD32R,0.080000X0.106600*%
%ADD33O,0.080000X0.106600*%
%ADD34R,0.075000X0.055000*%
%ADD35R,0.055000X0.075000*%
%ADD36R,0.106600X0.080000*%
%ADD37O,0.106600X0.080000*%
%ADD38R,0.031800X0.071200*%
%ADD39R,0.071200X0.031800*%
%ADD40R,0.236500X0.098700*%
%ADD41C,0.098700*%
%ADD42R,0.098700X0.098700*%
%ADD43R,0.076300X0.041700*%
%ADD44R,0.079000X0.079000*%
%ADD45C,0.118400*%
G04 APERTURE END LIST*
G54D10*
G54D11*
X84000Y-14000D02*
X84000Y-53000D01*
X23000Y-14000D02*
X84000Y-14000D01*
X23000Y-53000D02*
X23000Y-14000D01*
X84000Y-53000D02*
X23000Y-53000D01*
G54D12*
X83500Y-40030D03*
X83500Y-39370D03*
G54D13*
X83500Y-38553D03*
X83500Y-40847D03*
G54D14*
X82595Y-38731D03*
X82595Y-40669D03*
G54D15*
X82453Y-40212D03*
X82453Y-39956D03*
X82453Y-39700D03*
X82453Y-39444D03*
X82453Y-39188D03*
G54D16*
X26000Y-41338D03*
X26000Y-36665D03*
G54D17*
X28500Y-37250D03*
G54D18*
X29500Y-37750D03*
X28500Y-38250D03*
X29500Y-38750D03*
X28500Y-39250D03*
X29500Y-39750D03*
X28500Y-40250D03*
X29500Y-40750D03*
G54D16*
X26000Y-33338D03*
X26000Y-28665D03*
G54D17*
X28500Y-29250D03*
G54D18*
X29500Y-29750D03*
X28500Y-30250D03*
X29500Y-30750D03*
X28500Y-31250D03*
X29500Y-31750D03*
X28500Y-32250D03*
X29500Y-32750D03*
G54D19*
X35500Y-39100D03*
G54D20*
X32500Y-39100D03*
X35500Y-38100D03*
X32500Y-38100D03*
G54D21*
X64000Y-31000D03*
X63625Y-30000D03*
X64375Y-30000D03*
G54D22*
X30413Y-18000D03*
X35587Y-18000D03*
X35587Y-20236D03*
X30413Y-20236D03*
G54D18*
X32606Y-19067D03*
X33394Y-19067D03*
X34378Y-19067D03*
X31622Y-19067D03*
X34378Y-20099D03*
X33394Y-20099D03*
X32606Y-20099D03*
X31622Y-20099D03*
G54D22*
X38413Y-18000D03*
X43587Y-18000D03*
X43587Y-20236D03*
X38413Y-20236D03*
G54D18*
X40606Y-19067D03*
X41394Y-19067D03*
X42378Y-19067D03*
X39622Y-19067D03*
X42378Y-20099D03*
X41394Y-20099D03*
X40606Y-20099D03*
X39622Y-20099D03*
G54D22*
X46413Y-18000D03*
X51587Y-18000D03*
X51587Y-20236D03*
X46413Y-20236D03*
G54D18*
X48606Y-19067D03*
X49394Y-19067D03*
X50378Y-19067D03*
X47622Y-19067D03*
X50378Y-20099D03*
X49394Y-20099D03*
X48606Y-20099D03*
X47622Y-20099D03*
G54D22*
X54413Y-18000D03*
X59587Y-18000D03*
X59587Y-20236D03*
X54413Y-20236D03*
G54D18*
X56606Y-19067D03*
X57394Y-19067D03*
X58378Y-19067D03*
X55622Y-19067D03*
X58378Y-20099D03*
X57394Y-20099D03*
X56606Y-20099D03*
X55622Y-20099D03*
G54D22*
X62413Y-18000D03*
X67587Y-18000D03*
X67587Y-20236D03*
X62413Y-20236D03*
G54D18*
X64606Y-19067D03*
X65394Y-19067D03*
X66378Y-19067D03*
X63622Y-19067D03*
X66378Y-20099D03*
X65394Y-20099D03*
X64606Y-20099D03*
X63622Y-20099D03*
G54D22*
X70413Y-18000D03*
X75587Y-18000D03*
X75587Y-20236D03*
X70413Y-20236D03*
G54D18*
X72606Y-19067D03*
X73394Y-19067D03*
X74378Y-19067D03*
X71622Y-19067D03*
X74378Y-20099D03*
X73394Y-20099D03*
X72606Y-20099D03*
X71622Y-20099D03*
G54D22*
X35587Y-49000D03*
X30413Y-49000D03*
X30413Y-46764D03*
X35587Y-46764D03*
G54D18*
X33394Y-47933D03*
X32606Y-47933D03*
X31622Y-47933D03*
X34378Y-47933D03*
X31622Y-46901D03*
X32606Y-46901D03*
X33394Y-46901D03*
X34378Y-46901D03*
G54D22*
X43587Y-49000D03*
X38413Y-49000D03*
X38413Y-46764D03*
X43587Y-46764D03*
G54D18*
X41394Y-47933D03*
X40606Y-47933D03*
X39622Y-47933D03*
X42378Y-47933D03*
X39622Y-46901D03*
X40606Y-46901D03*
X41394Y-46901D03*
X42378Y-46901D03*
G54D22*
X51587Y-49000D03*
X46413Y-49000D03*
X46413Y-46764D03*
X51587Y-46764D03*
G54D18*
X49394Y-47933D03*
X48606Y-47933D03*
X47622Y-47933D03*
X50378Y-47933D03*
X47622Y-46901D03*
X48606Y-46901D03*
X49394Y-46901D03*
X50378Y-46901D03*
G54D22*
X59587Y-49000D03*
X54413Y-49000D03*
X54413Y-46764D03*
X59587Y-46764D03*
G54D18*
X57394Y-47933D03*
X56606Y-47933D03*
X55622Y-47933D03*
X58378Y-47933D03*
X55622Y-46901D03*
X56606Y-46901D03*
X57394Y-46901D03*
X58378Y-46901D03*
G54D22*
X67587Y-49000D03*
X62413Y-49000D03*
X62413Y-46764D03*
X67587Y-46764D03*
G54D18*
X65394Y-47933D03*
X64606Y-47933D03*
X63622Y-47933D03*
X66378Y-47933D03*
X63622Y-46901D03*
X64606Y-46901D03*
X65394Y-46901D03*
X66378Y-46901D03*
G54D22*
X75587Y-49000D03*
X70413Y-49000D03*
X70413Y-46764D03*
X75587Y-46764D03*
G54D18*
X73394Y-47933D03*
X72606Y-47933D03*
X71622Y-47933D03*
X74378Y-47933D03*
X71622Y-46901D03*
X72606Y-46901D03*
X73394Y-46901D03*
X74378Y-46901D03*
G54D23*
X71700Y-25500D03*
G54D24*
X74300Y-25500D03*
X74300Y-24600D03*
X74300Y-26400D03*
G54D25*
X38500Y-31550D03*
G54D26*
X38500Y-28950D03*
X37600Y-28950D03*
X39400Y-28950D03*
G54D27*
X28500Y-48750D03*
X28500Y-50250D03*
G54D28*
X70250Y-44500D03*
X68750Y-44500D03*
X54250Y-44500D03*
X52750Y-44500D03*
X68250Y-22500D03*
X69750Y-22500D03*
X43750Y-22500D03*
X45250Y-22500D03*
G54D29*
X25500Y-25000D03*
G54D22*
X25500Y-23000D03*
G54D29*
X25500Y-19000D03*
G54D22*
X25500Y-17000D03*
G54D30*
X35900Y-29000D03*
X34100Y-29000D03*
G54D31*
X32500Y-24350D03*
X32500Y-25650D03*
G54D32*
X81919Y-42581D03*
G54D33*
X82919Y-42581D03*
G54D28*
X51750Y-22500D03*
X53250Y-22500D03*
G54D30*
X31100Y-29000D03*
X32900Y-29000D03*
X77900Y-23500D03*
X76100Y-23500D03*
G54D34*
X34000Y-24625D03*
X34000Y-25375D03*
G54D35*
X34125Y-30750D03*
X33375Y-30750D03*
X38825Y-41200D03*
X39575Y-41200D03*
X38625Y-32750D03*
X39375Y-32750D03*
G54D34*
X52000Y-34125D03*
X52000Y-34875D03*
X58800Y-35900D03*
X58800Y-36650D03*
X57750Y-35875D03*
X57750Y-36625D03*
X53000Y-34125D03*
X53000Y-34875D03*
X62000Y-33425D03*
X62000Y-34175D03*
X62000Y-32475D03*
X62000Y-31725D03*
G54D35*
X75375Y-41000D03*
X74625Y-41000D03*
X76875Y-31000D03*
X76125Y-31000D03*
X58325Y-41600D03*
X57575Y-41600D03*
X55675Y-41600D03*
X56425Y-41600D03*
X79125Y-24000D03*
X79875Y-24000D03*
X37175Y-35000D03*
X36425Y-35000D03*
X79125Y-25500D03*
X79875Y-25500D03*
G54D34*
X46950Y-37975D03*
X46950Y-37225D03*
X36400Y-31875D03*
X36400Y-31125D03*
X32500Y-21625D03*
X32500Y-22375D03*
X42000Y-21750D03*
X42000Y-22500D03*
G54D35*
X34825Y-35000D03*
X35575Y-35000D03*
X38775Y-35000D03*
X38025Y-35000D03*
G54D34*
X48500Y-21750D03*
X48500Y-22500D03*
X34000Y-21625D03*
X34000Y-22375D03*
G54D35*
X76125Y-29500D03*
X76875Y-29500D03*
X76125Y-28000D03*
X76875Y-28000D03*
X76125Y-32500D03*
X76875Y-32500D03*
G54D34*
X64800Y-31725D03*
X64800Y-32475D03*
G54D35*
X63025Y-33500D03*
X63775Y-33500D03*
X63775Y-32400D03*
X63025Y-32400D03*
X77375Y-41000D03*
X76625Y-41000D03*
G54D34*
X50000Y-21750D03*
X50000Y-22500D03*
X40500Y-21750D03*
X40500Y-22500D03*
X56500Y-21625D03*
X56500Y-22375D03*
X58000Y-21625D03*
X58000Y-22375D03*
X64500Y-21625D03*
X64500Y-22375D03*
X66000Y-21625D03*
X66000Y-22375D03*
X72500Y-21625D03*
X72500Y-22375D03*
X74000Y-21625D03*
X74000Y-22375D03*
X32500Y-45375D03*
X32500Y-44625D03*
X34000Y-45375D03*
X34000Y-44625D03*
X40500Y-45375D03*
X40500Y-44625D03*
X42000Y-45375D03*
X42000Y-44625D03*
X48500Y-45375D03*
X48500Y-44625D03*
X50000Y-45375D03*
X50000Y-44625D03*
X56500Y-45375D03*
X56500Y-44625D03*
X58000Y-45375D03*
X58000Y-44625D03*
X64500Y-45375D03*
X64500Y-44625D03*
X66000Y-45375D03*
X66000Y-44625D03*
X72500Y-45375D03*
X72500Y-44625D03*
X74000Y-45375D03*
X74000Y-44625D03*
G54D35*
X79125Y-36500D03*
X79875Y-36500D03*
X79125Y-35000D03*
X79875Y-35000D03*
X81125Y-45500D03*
X81875Y-45500D03*
X81125Y-46500D03*
X81875Y-46500D03*
G54D32*
X69500Y-40000D03*
G54D33*
X68500Y-40000D03*
X67500Y-40000D03*
X66500Y-40000D03*
X65500Y-40000D03*
X64500Y-40000D03*
G54D36*
X45500Y-30000D03*
G54D37*
X45500Y-31000D03*
X45500Y-32000D03*
X45500Y-33000D03*
X45500Y-34000D03*
G54D36*
X83000Y-44500D03*
G54D37*
X83000Y-45500D03*
X83000Y-46500D03*
X83000Y-47500D03*
G54D38*
X56508Y-34764D03*
X56705Y-34764D03*
X56902Y-34764D03*
X57098Y-34764D03*
X57295Y-34764D03*
X55917Y-34764D03*
X56114Y-34764D03*
X56311Y-34764D03*
G54D39*
X58614Y-34233D03*
X58614Y-34036D03*
X58614Y-33839D03*
X58614Y-33642D03*
X58614Y-33445D03*
X58614Y-33248D03*
X58614Y-33052D03*
X58614Y-32855D03*
G54D38*
X58083Y-31536D03*
X57886Y-31536D03*
X57689Y-31536D03*
X57492Y-31536D03*
X57295Y-31536D03*
X57098Y-31536D03*
X56902Y-31536D03*
X56705Y-31536D03*
G54D39*
X55386Y-32067D03*
X55386Y-32264D03*
X55386Y-32461D03*
X55386Y-32658D03*
X55386Y-32855D03*
X55386Y-33052D03*
X55386Y-33248D03*
X55386Y-33445D03*
G54D38*
X57492Y-34764D03*
X57689Y-34764D03*
X57886Y-34764D03*
X58083Y-34764D03*
G54D39*
X58614Y-32658D03*
X58614Y-32461D03*
X58614Y-32264D03*
X58614Y-32067D03*
G54D38*
X56508Y-31536D03*
X56311Y-31536D03*
X56114Y-31536D03*
X55917Y-31536D03*
G54D39*
X55386Y-33642D03*
X55386Y-33839D03*
X55386Y-34036D03*
X55386Y-34233D03*
G54D35*
X69625Y-41500D03*
X70375Y-41500D03*
G54D36*
X79000Y-41000D03*
G54D37*
X79000Y-40000D03*
X79000Y-39000D03*
X79000Y-38000D03*
G54D40*
X55130Y-40100D03*
X58870Y-40100D03*
G54D34*
X75500Y-25125D03*
X75500Y-25875D03*
G54D35*
X41925Y-41200D03*
X42675Y-41200D03*
G54D36*
X32800Y-32500D03*
G54D37*
X32800Y-33500D03*
X32800Y-34500D03*
X32800Y-35500D03*
G54D41*
X80114Y-30720D03*
X81886Y-33280D03*
X81886Y-30720D03*
X80114Y-33280D03*
X80114Y-26720D03*
X81886Y-29280D03*
X81886Y-26720D03*
X80114Y-29280D03*
G54D34*
X70000Y-25625D03*
X70000Y-26375D03*
G54D35*
X74625Y-42500D03*
X75375Y-42500D03*
G54D36*
X52500Y-38500D03*
G54D37*
X52500Y-39500D03*
X52500Y-40500D03*
X52500Y-41500D03*
G54D42*
X79500Y-20510D03*
G54D41*
X81500Y-20500D03*
G54D42*
X25000Y-46010D03*
G54D41*
X27000Y-46000D03*
G54D42*
X37390Y-23200D03*
G54D41*
X37400Y-25200D03*
G54D36*
X45500Y-40000D03*
G54D37*
X45500Y-39000D03*
X45500Y-38000D03*
X45500Y-37000D03*
X45500Y-36000D03*
G54D43*
X42644Y-40250D03*
X42644Y-39750D03*
X42644Y-39250D03*
X42644Y-38750D03*
X42644Y-38250D03*
X42644Y-37750D03*
X42644Y-37250D03*
X42644Y-36750D03*
X38856Y-36750D03*
X38856Y-37250D03*
X38856Y-37750D03*
X38856Y-38250D03*
X38856Y-38750D03*
X38856Y-39250D03*
X38856Y-39750D03*
X38856Y-40250D03*
G54D44*
X80812Y-24000D03*
X82188Y-24000D03*
X80812Y-25500D03*
X82188Y-25500D03*
X35288Y-31900D03*
X33912Y-31900D03*
X80812Y-36500D03*
X82188Y-36500D03*
X80812Y-35000D03*
X82188Y-35000D03*
G54D45*
X29500Y-25500D03*
X29500Y-24000D03*
X29500Y-22500D03*
M02*
