%FSTAX44Y44*%
%MOIN*%
%SFA1B1*%

%IPPOS*%
%ADD62C,0.005000*%
%LNrpcb6996130008r01-1*%
%LPD*%
G54D62*
X00033826Y00044142D02*
X00034105D01*
X00033965Y00044002D02*
Y00044282D01*
X0003481Y00044142D02*
X00035089D01*
X0003495Y00044002D02*
Y00044282D01*
X0003181Y00044142D02*
X00032089D01*
X0003195Y00044002D02*
Y00044282D01*
X0003668Y000367D02*
X0003712D01*
X000369Y0003648D02*
Y0003692D01*
X0003668Y000377D02*
X0003712D01*
X000369Y0003748D02*
Y0003792D01*
X0003668Y000337D02*
X0003712D01*
X000369Y0003348D02*
Y0003392D01*
X0003668Y000347D02*
X0003712D01*
X000369Y0003448D02*
Y0003492D01*
X0003668Y000357D02*
X0003712D01*
X000369Y0003548D02*
Y0003592D01*
X0003666Y0003089D02*
X0003714D01*
X000369Y0003065D02*
Y0003113D01*
X0003666Y0003189D02*
X0003714D01*
X000369Y0003165D02*
Y0003213D01*
X0003666Y0002989D02*
X0003714D01*
X000369Y0002965D02*
Y0003013D01*
X0003761Y0002806D02*
X0003809D01*
X0003785Y0002782D02*
Y000283D01*
X0003861Y0002806D02*
X0003909D01*
X0003885Y0002782D02*
Y000283D01*
X0003661Y0002806D02*
X0003709D01*
X0003685Y0002782D02*
Y000283D01*
X00034307Y0004105D02*
X00034747D01*
X00034527Y0004083D02*
Y0004127D01*
X00035307Y0004105D02*
X00035747D01*
X00035527Y0004083D02*
Y0004127D01*
X00031307Y0004105D02*
X00031747D01*
X00031527Y0004083D02*
Y0004127D01*
X00032307Y0004105D02*
X00032747D01*
X00032527Y0004083D02*
Y0004127D01*
X00033307Y0004105D02*
X00033747D01*
X00033527Y0004083D02*
Y0004127D01*
X00026307Y0004105D02*
X00026747D01*
X00026527Y0004083D02*
Y0004127D01*
X00027307Y0004105D02*
X00027747D01*
X00027527Y0004083D02*
Y0004127D01*
X00023307Y0004105D02*
X00023747D01*
X00023527Y0004083D02*
Y0004127D01*
X00024307Y0004105D02*
X00024747D01*
X00024527Y0004083D02*
Y0004127D01*
X00025307Y0004105D02*
X00025747D01*
X00025527Y0004083D02*
Y0004127D01*
X00034307Y0004205D02*
X00034747D01*
X00034527Y0004183D02*
Y0004227D01*
X00035307Y0004205D02*
X00035747D01*
X00035527Y0004183D02*
Y0004227D01*
X00031307Y0004205D02*
X00031747D01*
X00031527Y0004183D02*
Y0004227D01*
X00032307Y0004205D02*
X00032747D01*
X00032527Y0004183D02*
Y0004227D01*
X00033307Y0004205D02*
X00033747D01*
X00033527Y0004183D02*
Y0004227D01*
X00026307Y0004205D02*
X00026747D01*
X00026527Y0004183D02*
Y0004227D01*
X00027307Y0004205D02*
X00027747D01*
X00027527Y0004183D02*
Y0004227D01*
X00023307Y0004205D02*
X00023747D01*
X00023527Y0004183D02*
Y0004227D01*
X00024307Y0004205D02*
X00024747D01*
X00024527Y0004183D02*
Y0004227D01*
X00025307Y0004205D02*
X00025747D01*
X00025527Y0004183D02*
Y0004227D01*
X00034307Y0004005D02*
X00034747D01*
X00034527Y0003983D02*
Y0004027D01*
X00035307Y0004005D02*
X00035747D01*
X00035527Y0003983D02*
Y0004027D01*
X00031307Y0004005D02*
X00031747D01*
X00031527Y0003983D02*
Y0004027D01*
X00032307Y0004005D02*
X00032747D01*
X00032527Y0003983D02*
Y0004027D01*
X00033307Y0004005D02*
X00033747D01*
X00033527Y0003983D02*
Y0004027D01*
X00026307Y0004005D02*
X00026747D01*
X00026527Y0003983D02*
Y0004027D01*
X00027307Y0004005D02*
X00027747D01*
X00027527Y0003983D02*
Y0004027D01*
X00023307Y0004005D02*
X00023747D01*
X00023527Y0003983D02*
Y0004027D01*
X00024307Y0004005D02*
X00024747D01*
X00024527Y0003983D02*
Y0004027D01*
X00025307Y0004005D02*
X00025747D01*
X00025527Y0003983D02*
Y0004027D01*
X0002513Y0004405D02*
X0002557D01*
X0002535Y0004383D02*
Y0004427D01*
X0002613Y0004405D02*
X0002657D01*
X0002635Y0004383D02*
Y0004427D01*
X00028818Y00043933D02*
X00030236D01*
X00029527Y00043224D02*
Y00044641D01*
X0002197Y0002784D02*
X0002207D01*
X0002202Y0002779D02*
Y0002789D01*
X00037142Y000418D02*
X00037242D01*
X00037192Y0004175D02*
Y0004185D01*
X0002094Y000418D02*
X0002104D01*
X0002099Y0004175D02*
Y0004185D01*
X0002316Y0004359D02*
X0002326D01*
X0002321Y0004354D02*
Y0004364D01*
X0002749Y0004357D02*
X0002759D01*
X0002754Y0004352D02*
Y0004362D01*
X0002947Y0003389D02*
X0002957D01*
X0002952Y0003384D02*
Y0003394D01*
X0002994Y0003264D02*
X0003004D01*
X0002999Y0003259D02*
Y0003269D01*
X000303Y0003383D02*
X000304D01*
X0003035Y0003378D02*
Y0003388D01*
X0003249Y0003583D02*
X0003259D01*
X0003254Y0003578D02*
Y0003588D01*
X0003297Y0003382D02*
X0003307D01*
X0003302Y0003377D02*
Y0003387D01*
X00033Y0003159D02*
X000331D01*
X0003305Y0003154D02*
Y0003164D01*
X0003061Y0003009D02*
X0003071D01*
X0003066Y0003004D02*
Y0003014D01*
X0003305Y0003009D02*
X0003315D01*
X000331Y0003004D02*
Y0003014D01*
X0003303Y0003082D02*
X0003313D01*
X0003308Y0003077D02*
Y0003087D01*
X0002856Y0002922D02*
X0002866D01*
X0002861Y0002917D02*
Y0002927D01*
X0003184Y0003148D02*
X0003194D01*
X0003189Y0003143D02*
Y0003153D01*
X0003186Y0003107D02*
X0003196D01*
X0003191Y0003102D02*
Y0003112D01*
X0002943Y0003467D02*
X0002953D01*
X0002948Y0003462D02*
Y0003472D01*
X0003016Y0003521D02*
X0003026D01*
X0003021Y0003516D02*
Y0003526D01*
X0002827Y0002971D02*
X0002837D01*
X0002832Y0002966D02*
Y0002976D01*
X000268Y0003008D02*
X000269D01*
X0002685Y0003003D02*
Y0003013D01*
X0002738Y0002857D02*
X0002748D01*
X0002743Y0002852D02*
Y0002862D01*
X0002869Y0003051D02*
X0002879D01*
X0002874Y0003046D02*
Y0003056D01*
X0002704Y0003845D02*
X0002714D01*
X0002709Y000384D02*
Y000385D01*
X0002734Y0003927D02*
X0002744D01*
X0002739Y0003922D02*
Y0003932D01*
X0003563Y0003433D02*
X0003573D01*
X0003568Y0003428D02*
Y0003438D01*
X000351Y0003007D02*
X000352D01*
X0003515Y0003002D02*
Y0003012D01*
Y0002919D02*
X0003525D01*
X000352Y0002914D02*
Y0002924D01*
X0002915Y0002928D02*
X0002925D01*
X000292Y0002923D02*
Y0002933D01*
X000318Y0002949D02*
X000319D01*
X0003185Y0002944D02*
Y0002954D01*
X0002962Y0002944D02*
X0002972D01*
X0002967Y0002939D02*
Y0002949D01*
X0002931Y0002995D02*
X0002941D01*
X0002936Y000299D02*
Y0003D01*
X0002875Y0003003D02*
X0002885D01*
X000288Y0002998D02*
Y0003008D01*
X0002885Y0003267D02*
X0002895D01*
X000289Y0003262D02*
Y0003272D01*
X0002697Y0003167D02*
X0002707D01*
X0002702Y0003162D02*
Y0003172D01*
X0002738Y0003171D02*
X0002748D01*
X0002743Y0003166D02*
Y0003176D01*
X00026804Y00032324D02*
X00026904D01*
X00026854Y00032274D02*
Y00032374D01*
X0002507Y0003728D02*
X0002517D01*
X0002512Y0003723D02*
Y0003733D01*
X0002476Y0003901D02*
X0002486D01*
X0002481Y0003896D02*
Y0003906D01*
X0003299Y0003455D02*
X0003309D01*
X0003304Y000345D02*
Y000346D01*
X0003006Y0003097D02*
X0003016D01*
X0003011Y0003092D02*
Y0003102D01*
X0002975Y0003123D02*
X0002985D01*
X000298Y0003118D02*
Y0003128D01*
X0002975Y0003162D02*
X0002985D01*
X000298Y0003157D02*
Y0003167D01*
X0002895Y0003105D02*
X0002905D01*
X00029Y00031D02*
Y000311D01*
X0002987Y000306D02*
X0002997D01*
X0002992Y0003055D02*
Y0003065D01*
X0002048Y0003351D02*
X0002058D01*
X0002053Y0003346D02*
Y0003356D01*
X0002589Y0003572D02*
X0002599D01*
X0002594Y0003567D02*
Y0003577D01*
X0002588Y0003715D02*
X0002598D01*
X0002593Y000371D02*
Y000372D01*
X0003513Y0003527D02*
X0003523D01*
X0003518Y0003522D02*
Y0003532D01*
X0003513Y0003682D02*
X0003523D01*
X0003518Y0003677D02*
Y0003687D01*
X0002512Y0002679D02*
X0002522D01*
X0002517Y0002674D02*
Y0002684D01*
X0002763Y0002678D02*
X0002773D01*
X0002768Y0002673D02*
Y0002683D01*
X0003116Y0002753D02*
X0003126D01*
X0003121Y0002748D02*
Y0002758D01*
X0003374Y0002753D02*
X0003384D01*
X0003379Y0002748D02*
Y0002758D01*
X000361Y0002677D02*
X000362D01*
X0003615Y0002672D02*
Y0002682D01*
X0002957Y0004046D02*
X0002967D01*
X0002962Y0004041D02*
Y0004051D01*
X0002958Y0003895D02*
X0002968D01*
X0002963Y000389D02*
Y00039D01*
X0003116Y0002903D02*
X0003126D01*
X0003121Y0002898D02*
Y0002908D01*
X0003155Y0003728D02*
X0003165D01*
X000316Y0003723D02*
Y0003733D01*
X0003179Y0003676D02*
X0003189D01*
X0003184Y0003671D02*
Y0003681D01*
X0003244Y0003739D02*
X0003254D01*
X0003249Y0003734D02*
Y0003744D01*
X0003019Y0003824D02*
X0003029D01*
X0003024Y0003819D02*
Y0003829D01*
X0002853Y0004137D02*
X0002863D01*
X0002858Y0004132D02*
Y0004142D01*
X0002854Y0003825D02*
X0002864D01*
X0002859Y000382D02*
Y000383D01*
X000318Y000382D02*
X000319D01*
X0003185Y0003815D02*
Y0003825D01*
X0003514Y0003815D02*
X0003524D01*
X0003519Y000381D02*
Y000382D01*
X0003029Y0003748D02*
X0003039D01*
X0003034Y0003743D02*
Y0003753D01*
X0002203Y0003822D02*
X0002213D01*
X0002208Y0003817D02*
Y0003827D01*
X0002367Y0003803D02*
X0002377D01*
X0002372Y0003798D02*
Y0003808D01*
X0002555Y0003904D02*
X0002565D01*
X000256Y0003899D02*
Y0003909D01*
X000259Y000386D02*
X00026D01*
X0002595Y0003855D02*
Y0003865D01*
X0002621Y000376D02*
X0002631D01*
X0002626Y0003755D02*
Y0003765D01*
X0003178Y0003636D02*
X0003188D01*
X0003183Y0003631D02*
Y0003641D01*
X0003016Y000316D02*
X0003026D01*
X0003021Y0003155D02*
Y0003165D01*
X00033Y0003632D02*
X000331D01*
X0003305Y0003627D02*
Y0003637D01*
X0002706Y0003468D02*
X0002716D01*
X0002711Y0003463D02*
Y0003473D01*
X0002856Y0003109D02*
X0002866D01*
X0002861Y0003104D02*
Y0003114D01*
X0002729Y0003426D02*
X0002739D01*
X0002734Y0003421D02*
Y0003431D01*
X0002844Y000327D02*
X0002854D01*
X0002849Y0003265D02*
Y0003275D01*
X0003Y0002964D02*
X000301D01*
X0003005Y0002959D02*
Y0002969D01*
X0003087Y0003259D02*
X0003097D01*
X0003092Y0003254D02*
Y0003264D01*
X0002449Y0003847D02*
X0002459D01*
X0002454Y0003842D02*
Y0003852D01*
X0003187Y0003206D02*
X0003197D01*
X0003192Y0003201D02*
Y0003211D01*
X0002306Y0003542D02*
X0002316D01*
X0002311Y0003537D02*
Y0003547D01*
X0002321Y0003692D02*
X0002331D01*
X0002326Y0003687D02*
Y0003697D01*
X0003609Y0003268D02*
X0003619D01*
X0003614Y0003263D02*
Y0003273D01*
M02*