%FSTAX44Y44*%
%MOIN*%
%SFA1B1*%

%IPPOS*%
%ADD28C,0.016000*%
%ADD29C,0.012000*%
%ADD31C,0.008000*%
%ADD32C,0.010000*%
%ADD34C,0.055120*%
%ADD35R,0.055120X0.055120*%
%ADD36C,0.070000*%
%ADD37R,0.070000X0.070000*%
%ADD38R,0.070000X0.070000*%
%ADD39C,0.141730*%
%ADD40C,0.028000*%
%LNrpcb6996130008r01-1*%
%LPD*%
G36*
X0003844Y00040807D02*
X0003845D01*
Y0004066*
X0003844*
Y00033875*
X0003845*
Y0003376*
X0003844*
Y00028841*
X0003845*
Y000288*
X0003885*
Y0002849*
X0003842*
Y0002763*
X0003885*
Y000261*
X000201*
Y0004485*
X0003844*
Y00040807*
G37*
%LNrpcb6996130008r01-2*%
%LPC*%
G36*
X0002947Y0003384D02*
X00029285D01*
X00029293Y00033796*
X00029347Y00033717*
X00029426Y00033663*
X0002947Y00033655*
Y0003384*
G37*
G36*
X00029754D02*
X0002957D01*
Y00033655*
X00029613Y00033663*
X00029693Y00033717*
X00029746Y00033796*
X00029754Y0003384*
G37*
G36*
X0003297Y0003377D02*
X00032785D01*
X00032793Y00033726*
X00032847Y00033647*
X00032926Y00033593*
X0003297Y00033585*
Y0003377*
G37*
G36*
X0002048Y00033744D02*
X00020436Y00033736D01*
X00020357Y00033683*
X00020303Y00033603*
X00020295Y0003356*
X0002048*
Y00033744*
G37*
G36*
X0002058D02*
Y0003356D01*
X00020764*
X00020756Y00033603*
X00020703Y00033683*
X00020623Y00033736*
X0002058Y00033744*
G37*
G36*
X00035914Y0003428D02*
X0003573D01*
Y00034095*
X00035773Y00034103*
X00035853Y00034157*
X00035906Y00034236*
X00035914Y0003428*
G37*
G36*
X0002943Y0003462D02*
X00029245D01*
X00029253Y00034576*
X00029307Y00034497*
X00029386Y00034443*
X0002943Y00034435*
Y0003462*
G37*
G36*
X0002957Y00034124D02*
Y0003394D01*
X00029754*
X00029746Y00033983*
X00029693Y00034063*
X00029613Y00034116*
X0002957Y00034124*
G37*
G36*
X0003297Y00034054D02*
X00032926Y00034046D01*
X00032847Y00033993*
X00032793Y00033913*
X00032785Y0003387*
X0003297*
Y00034054*
G37*
G36*
X0002947Y00034124D02*
X00029426Y00034116D01*
X00029347Y00034063*
X00029293Y00033983*
X00029285Y0003394*
X0002947*
Y00034124*
G37*
G36*
X00020764Y0003346D02*
X0002058D01*
Y00033275*
X00020623Y00033283*
X00020703Y00033337*
X00020756Y00033416*
X00020764Y0003346*
G37*
G36*
X00026804Y00032558D02*
X0002676Y0003255D01*
X00026681Y00032497*
X00026627Y00032417*
X00026619Y00032374*
X00026804*
Y00032558*
G37*
G36*
X0003609Y0003263D02*
X00035905D01*
X00035913Y00032586*
X00035967Y00032507*
X00036046Y00032453*
X0003609Y00032445*
Y0003263*
G37*
G36*
X00026804Y00032274D02*
X00026619D01*
X00026627Y0003223*
X00026681Y00032151*
X0002676Y00032097*
X00026804Y00032089*
Y00032274*
G37*
G36*
X0003685Y0003234D02*
X0003645D01*
Y0003194*
X0003685*
Y0003234*
G37*
G36*
X0003735D02*
X0003695D01*
Y0003194*
X0003735*
Y0003234*
G37*
G36*
X0003733Y0003413D02*
X0003647D01*
Y0003327*
X0003733*
Y0003413*
G37*
G36*
X0002048Y0003346D02*
X00020295D01*
X00020303Y00033416*
X00020357Y00033337*
X00020436Y00033283*
X0002048Y00033275*
Y0003346*
G37*
G36*
X0003619Y00032914D02*
Y0003273D01*
X00036374*
X00036366Y00032773*
X00036313Y00032853*
X00036233Y00032906*
X0003619Y00032914*
G37*
G36*
X00036374Y0003263D02*
X0003619D01*
Y00032445*
X00036233Y00032453*
X00036313Y00032507*
X00036366Y00032586*
X00036374Y0003263*
G37*
G36*
X0003609Y00032914D02*
X00036046Y00032906D01*
X00035967Y00032853*
X00035913Y00032773*
X00035905Y0003273*
X0003609*
Y00032914*
G37*
G36*
X00029714Y0003462D02*
X0002953D01*
Y00034435*
X00029573Y00034443*
X00029653Y00034497*
X00029706Y00034576*
X00029714Y0003462*
G37*
G36*
X0003685Y0003765D02*
X00036452D01*
X00036461Y00037582*
X00036506Y00037473*
X00036579Y00037379*
X00036673Y00037306*
X00036782Y00037261*
X0003685Y00037252*
Y0003765*
G37*
G36*
X00037347D02*
X0003695D01*
Y00037252*
X00037017Y00037261*
X00037126Y00037306*
X0003722Y00037379*
X00037293Y00037473*
X00037338Y00037582*
X00037347Y0003765*
G37*
G36*
X0002331Y00037154D02*
Y0003697D01*
X00023494*
X00023486Y00037013*
X00023433Y00037093*
X00023353Y00037146*
X0002331Y00037154*
G37*
G36*
X00023494Y0003687D02*
X0002331D01*
Y00036685*
X00023353Y00036693*
X00023433Y00036747*
X00023486Y00036826*
X00023494Y0003687*
G37*
G36*
X0002321Y00037154D02*
X00023166Y00037146D01*
X00023087Y00037093*
X00023033Y00037013*
X00023025Y0003697*
X0002321*
Y00037154*
G37*
G36*
X0002208Y00038444D02*
X00021994Y00038427D01*
X00021921Y00038378*
X00021872Y00038305*
X00021855Y0003822*
X00021872Y00038134*
X00021921Y00038061*
X00021994Y00038012*
X0002208Y00037995*
X00022165Y00038012*
X00022238Y00038061*
X00022262Y00038097*
X00023446*
X00023496Y00038035*
X00023495Y0003803*
X00023512Y00037944*
X00023561Y00037871*
X00023634Y00037822*
X0002372Y00037805*
X00023805Y00037822*
X00023878Y00037871*
X00023927Y00037944*
X00023944Y0003803*
X00023927Y00038115*
X00023878Y00038188*
X00023805Y00038237*
X0002372Y00038254*
X0002371Y00038252*
X00023656Y00038306*
X00023616Y00038333*
X0002357Y00038342*
X00022262*
X00022238Y00038378*
X00022165Y00038427*
X0002208Y00038444*
G37*
G36*
X0003484Y00038663D02*
X0003215D01*
X00032087Y0003865*
X00032034Y00038615*
X00031842Y00038422*
X00031764Y00038407*
X00031691Y00038358*
X00031642Y00038285*
X00031625Y000382*
X00031642Y00038114*
X00031691Y00038041*
X00031764Y00037992*
X0003185Y00037975*
X00031935Y00037992*
X00032008Y00038041*
X00032057Y00038114*
X00032072Y00038192*
X00032217Y00038336*
X00034772*
X00034967Y00038142*
X00034982Y00038064*
X00035031Y00037991*
X00035104Y00037942*
X0003519Y00037925*
X00035275Y00037942*
X00035348Y00037991*
X00035397Y00038064*
X00035414Y0003815*
X00035397Y00038235*
X00035348Y00038308*
X00035275Y00038357*
X00035198Y00038372*
X00034955Y00038615*
X00034902Y0003865*
X0003484Y00038663*
G37*
G36*
X0003695Y00038147D02*
Y0003775D01*
X00037347*
X00037338Y00037817*
X00037293Y00037926*
X0003722Y0003802*
X00037126Y00038093*
X00037017Y00038138*
X0003695Y00038147*
G37*
G36*
X0002595Y00038824D02*
X00025864Y00038807D01*
X00025791Y00038758*
X00025742Y00038685*
X00025725Y000386*
X00025742Y00038514*
X00025791Y00038441*
X00025827Y00038417*
Y0003791*
X00025837Y00037863*
X00025863Y00037823*
X00026044Y00037642*
X00026035Y000376*
X00026052Y00037514*
X00026101Y00037441*
X00026174Y00037392*
X0002626Y00037375*
X00026345Y00037392*
X00026418Y00037441*
X00026467Y00037514*
X00026484Y000376*
X00026467Y00037685*
X00026418Y00037758*
X00026345Y00037807*
X0002626Y00037824*
X00026217Y00037815*
X00026072Y0003796*
Y00038417*
X00026108Y00038441*
X00026157Y00038514*
X00026174Y000386*
X00026157Y00038685*
X00026108Y00038758*
X00026035Y00038807*
X0002595Y00038824*
G37*
G36*
X0003685Y00038147D02*
X00036782Y00038138D01*
X00036673Y00038093*
X00036579Y0003802*
X00036506Y00037926*
X00036461Y00037817*
X00036452Y0003775*
X0003685*
Y00038147*
G37*
G36*
X0002321Y0003687D02*
X00023025D01*
X00023033Y00036826*
X00023087Y00036747*
X00023166Y00036693*
X0002321Y00036685*
Y0003687*
G37*
G36*
X0002306Y0003537D02*
X00022875D01*
X00022883Y00035326*
X00022937Y00035247*
X00023016Y00035193*
X0002306Y00035185*
Y0003537*
G37*
G36*
X00023344D02*
X0002316D01*
Y00035185*
X00023203Y00035193*
X00023283Y00035247*
X00023336Y00035326*
X00023344Y0003537*
G37*
G36*
X0003518Y00037044D02*
X00035094Y00037027D01*
X00035021Y00036978*
X00034972Y00036905*
X00034955Y0003682*
X00034972Y00036734*
X00035016Y00036668*
Y00035421*
X00034972Y00035355*
X00034955Y0003527*
X00034972Y00035184*
X00035021Y00035111*
X00035094Y00035062*
X0003518Y00035045*
X00035265Y00035062*
X00035338Y00035111*
X00035387Y00035184*
X00035404Y0003527*
X00035387Y00035355*
X00035343Y00035421*
Y00036668*
X00035387Y00036734*
X00035404Y0003682*
X00035387Y00036905*
X00035338Y00036978*
X00035265Y00037027*
X0003518Y00037044*
G37*
G36*
X0002943Y00034904D02*
X00029386Y00034896D01*
X00029307Y00034843*
X00029253Y00034763*
X00029245Y0003472*
X0002943*
Y00034904*
G37*
G36*
X0002953D02*
Y0003472D01*
X00029714*
X00029706Y00034763*
X00029653Y00034843*
X00029573Y00034896*
X0002953Y00034904*
G37*
G36*
X00032774Y0003578D02*
X0003259D01*
Y00035595*
X00032633Y00035603*
X00032713Y00035657*
X00032766Y00035736*
X00032774Y0003578*
G37*
G36*
X000369Y00037133D02*
X00036787Y00037118D01*
X00036683Y00037075*
X00036593Y00037006*
X00036524Y00036916*
X00036481Y00036812*
X00036466Y000367*
X00036481Y00036587*
X00036524Y00036483*
X00036593Y00036393*
X00036683Y00036324*
X00036787Y00036281*
X000369Y00036266*
X00037012Y00036281*
X00037116Y00036324*
X00037206Y00036393*
X00037275Y00036483*
X00037318Y00036587*
X00037333Y000367*
X00037318Y00036812*
X00037275Y00036916*
X00037206Y00037006*
X00037116Y00037075*
X00037012Y00037118*
X000369Y00037133*
G37*
G36*
X0002593Y00037374D02*
X00025844Y00037357D01*
X00025771Y00037308*
X00025722Y00037235*
X00025705Y0003715*
X00025722Y00037064*
X00025771Y00036991*
X00025776Y00036987*
Y00035871*
X00025732Y00035805*
X00025715Y0003572*
X00025732Y00035634*
X00025781Y00035561*
X00025854Y00035512*
X0002594Y00035495*
X00026025Y00035512*
X00026098Y00035561*
X00026147Y00035634*
X00026164Y0003572*
X00026147Y00035805*
X00026103Y00035871*
Y00037013*
X00026137Y00037064*
X00026154Y0003715*
X00026137Y00037235*
X00026088Y00037308*
X00026015Y00037357*
X0002593Y00037374*
G37*
G36*
X0002306Y00035654D02*
X00023016Y00035646D01*
X00022937Y00035593*
X00022883Y00035513*
X00022875Y0003547*
X0002306*
Y00035654*
G37*
G36*
X0002316D02*
Y0003547D01*
X00023344*
X00023336Y00035513*
X00023283Y00035593*
X00023203Y00035646*
X0002316Y00035654*
G37*
G36*
X0003374Y0002748D02*
X00033555D01*
X00033563Y00027436*
X00033617Y00027357*
X00033696Y00027303*
X0003374Y00027295*
Y0002748*
G37*
G36*
X00034024D02*
X0003384D01*
Y00027295*
X00033883Y00027303*
X00033963Y00027357*
X00034016Y00027436*
X00034024Y0002748*
G37*
G36*
X00031444D02*
X0003126D01*
Y00027295*
X00031303Y00027303*
X00031383Y00027357*
X00031436Y00027436*
X00031444Y0002748*
G37*
G36*
X0002522Y00027024D02*
Y0002684D01*
X00025404*
X00025396Y00026883*
X00025343Y00026963*
X00025263Y00027016*
X0002522Y00027024*
G37*
G36*
X0003116Y0002748D02*
X00030975D01*
X00030983Y00027436*
X00031037Y00027357*
X00031116Y00027303*
X0003116Y00027295*
Y0002748*
G37*
G36*
X0003384Y00027764D02*
Y0002758D01*
X00034024*
X00034016Y00027623*
X00033963Y00027703*
X00033883Y00027756*
X0003384Y00027764*
G37*
G36*
X0002197Y0002779D02*
X00021785D01*
X00021793Y00027746*
X00021847Y00027667*
X00021926Y00027613*
X0002197Y00027605*
Y0002779*
G37*
G36*
X0003374Y00027764D02*
X00033696Y00027756D01*
X00033617Y00027703*
X00033563Y00027623*
X00033555Y0002758*
X0003374*
Y00027764*
G37*
G36*
X0003116D02*
X00031116Y00027756D01*
X00031037Y00027703*
X00030983Y00027623*
X00030975Y0002758*
X0003116*
Y00027764*
G37*
G36*
X0003126D02*
Y0002758D01*
X00031444*
X00031436Y00027623*
X00031383Y00027703*
X00031303Y00027756*
X0003126Y00027764*
G37*
G36*
X0002512Y00027024D02*
X00025076Y00027016D01*
X00024997Y00026963*
X00024943Y00026883*
X00024935Y0002684*
X0002512*
Y00027024*
G37*
G36*
X00027914Y0002673D02*
X0002773D01*
Y00026545*
X00027773Y00026553*
X00027853Y00026607*
X00027906Y00026686*
X00027914Y0002673*
G37*
G36*
X0002512Y0002674D02*
X00024935D01*
X00024943Y00026696*
X00024997Y00026617*
X00025076Y00026563*
X0002512Y00026555*
Y0002674*
G37*
G36*
X0002763Y0002673D02*
X00027445D01*
X00027453Y00026686*
X00027507Y00026607*
X00027586Y00026553*
X0002763Y00026545*
Y0002673*
G37*
G36*
X000361Y0002672D02*
X00035915D01*
X00035923Y00026676*
X00035977Y00026597*
X00036056Y00026543*
X000361Y00026535*
Y0002672*
G37*
G36*
X00036384D02*
X000362D01*
Y00026535*
X00036243Y00026543*
X00036323Y00026597*
X00036376Y00026676*
X00036384Y0002672*
G37*
G36*
X0002763Y00027014D02*
X00027586Y00027006D01*
X00027507Y00026953*
X00027453Y00026873*
X00027445Y0002683*
X0002763*
Y00027014*
G37*
G36*
X0002773D02*
Y0002683D01*
X00027914*
X00027906Y00026873*
X00027853Y00026953*
X00027773Y00027006*
X0002773Y00027014*
G37*
G36*
X000362Y00027004D02*
Y0002682D01*
X00036384*
X00036376Y00026863*
X00036323Y00026943*
X00036243Y00026996*
X000362Y00027004*
G37*
G36*
X00025404Y0002674D02*
X0002522D01*
Y00026555*
X00025263Y00026563*
X00025343Y00026617*
X00025396Y00026696*
X00025404Y0002674*
G37*
G36*
X000361Y00027004D02*
X00036056Y00026996D01*
X00035977Y00026943*
X00035923Y00026863*
X00035915Y0002682*
X000361*
Y00027004*
G37*
G36*
X00022254Y0002779D02*
X0002207D01*
Y00027605*
X00022113Y00027613*
X00022193Y00027667*
X00022246Y00027746*
X00022254Y0002779*
G37*
G36*
X0003071Y00030324D02*
Y0003014D01*
X00030894*
X00030886Y00030183*
X00030833Y00030263*
X00030753Y00030316*
X0003071Y00030324*
G37*
G36*
X0003315D02*
Y0003014D01*
X00033334*
X00033326Y00030183*
X00033273Y00030263*
X00033193Y00030316*
X0003315Y00030324*
G37*
G36*
X000269Y00030314D02*
Y0003013D01*
X00027084*
X00027076Y00030173*
X00027023Y00030253*
X00026943Y00030306*
X000269Y00030314*
G37*
G36*
X00030894Y0003004D02*
X0003071D01*
Y00029855*
X00030753Y00029863*
X00030833Y00029917*
X00030886Y00029996*
X00030894Y0003004*
G37*
G36*
X000268Y00030314D02*
X00026756Y00030306D01*
X00026677Y00030253*
X00026623Y00030173*
X00026615Y0003013*
X000268*
Y00030314*
G37*
G36*
X00033Y00031824D02*
X00032956Y00031816D01*
X00032877Y00031763*
X00032823Y00031683*
X00032815Y0003164*
X00033*
Y00031824*
G37*
G36*
X0002975Y00031854D02*
X00029706Y00031846D01*
X00029627Y00031793*
X00029573Y00031713*
X00029565Y0003167*
X0002975*
Y00031854*
G37*
G36*
X0003735Y0003184D02*
X0003695D01*
Y0003144*
X0003735*
Y0003184*
G37*
G36*
X000369Y00031323D02*
X00036787Y00031308D01*
X00036683Y00031265*
X00036593Y00031196*
X00036524Y00031106*
X00036481Y00031002*
X00036466Y0003089*
X00036481Y00030777*
X00036524Y00030673*
X00036593Y00030583*
X00036683Y00030514*
X00036787Y00030471*
X000369Y00030456*
X00037012Y00030471*
X00037116Y00030514*
X00037206Y00030583*
X00037275Y00030673*
X00037318Y00030777*
X00037333Y0003089*
X00037318Y00031002*
X00037275Y00031106*
X00037206Y00031196*
X00037116Y00031265*
X00037012Y00031308*
X000369Y00031323*
G37*
G36*
X0003685Y0003184D02*
X0003645D01*
Y0003144*
X0003685*
Y0003184*
G37*
G36*
X0003061Y0003004D02*
X00030425D01*
X00030433Y00029996*
X00030487Y00029917*
X00030566Y00029863*
X0003061Y00029855*
Y0003004*
G37*
G36*
X0002197Y00028074D02*
X00021926Y00028066D01*
X00021847Y00028013*
X00021793Y00027933*
X00021785Y0002789*
X0002197*
Y00028074*
G37*
G36*
X0002207D02*
Y0002789D01*
X00022254*
X00022246Y00027933*
X00022193Y00028013*
X00022113Y00028066*
X0002207Y00028074*
G37*
G36*
X0003785Y00028493D02*
X00037737Y00028478D01*
X00037633Y00028435*
X00037543Y00028366*
X00037474Y00028276*
X00037431Y00028172*
X00037416Y0002806*
X00037431Y00027947*
X00037474Y00027843*
X00037543Y00027753*
X00037633Y00027684*
X00037737Y00027641*
X0003785Y00027626*
X00037962Y00027641*
X00038066Y00027684*
X00038156Y00027753*
X00038225Y00027843*
X00038268Y00027947*
X00038283Y0002806*
X00038268Y00028172*
X00038225Y00028276*
X00038156Y00028366*
X00038066Y00028435*
X00037962Y00028478*
X0003785Y00028493*
G37*
G36*
X000368Y0002801D02*
X00036402D01*
X00036411Y00027942*
X00036456Y00027833*
X00036529Y00027739*
X00036623Y00027666*
X00036732Y00027621*
X000368Y00027612*
Y0002801*
G37*
G36*
X00037297D02*
X000369D01*
Y00027612*
X00036967Y00027621*
X00037076Y00027666*
X0003717Y00027739*
X00037243Y00027833*
X00037288Y00027942*
X00037297Y0002801*
G37*
G36*
X000268Y0003003D02*
X00026615D01*
X00026623Y00029986*
X00026677Y00029907*
X00026756Y00029853*
X000268Y00029845*
Y0003003*
G37*
G36*
X00027084D02*
X000269D01*
Y00029845*
X00026943Y00029853*
X00027023Y00029907*
X00027076Y00029986*
X00027084Y0003003*
G37*
G36*
X000369Y00030323D02*
X00036787Y00030308D01*
X00036683Y00030265*
X00036593Y00030196*
X00036524Y00030106*
X00036481Y00030002*
X00036466Y0002989*
X00036481Y00029777*
X00036524Y00029673*
X00036593Y00029583*
X00036683Y00029514*
X00036787Y00029471*
X000369Y00029456*
X00037012Y00029471*
X00037116Y00029514*
X00037206Y00029583*
X00037275Y00029673*
X00037318Y00029777*
X00037333Y0002989*
X00037318Y00030002*
X00037275Y00030106*
X00037206Y00030196*
X00037116Y00030265*
X00037012Y00030308*
X000369Y00030323*
G37*
G36*
X000368Y00028507D02*
X00036732Y00028498D01*
X00036623Y00028453*
X00036529Y0002838*
X00036456Y00028286*
X00036411Y00028177*
X00036402Y0002811*
X000368*
Y00028507*
G37*
G36*
X000369D02*
Y0002811D01*
X00037297*
X00037288Y00028177*
X00037243Y00028286*
X0003717Y0002838*
X00037076Y00028453*
X00036967Y00028498*
X000369Y00028507*
G37*
G36*
X00027477Y00042497D02*
X0002741Y00042488D01*
X000273Y00042443*
X00027206Y0004237*
X00027134Y00042276*
X00027089Y00042167*
X0002708Y000421*
X00027477*
Y00042497*
G37*
G36*
X00027577D02*
Y000421D01*
X00027974*
X00027966Y00042167*
X0002792Y00042276*
X00027848Y0004237*
X00027754Y00042443*
X00027645Y00042488*
X00027577Y00042497*
G37*
G36*
X00026577D02*
Y000421D01*
X00026974*
X00026966Y00042167*
X0002692Y00042276*
X00026848Y0004237*
X00026754Y00042443*
X00026645Y00042488*
X00026577Y00042497*
G37*
G36*
X00025577D02*
Y000421D01*
X00025974*
X00025966Y00042167*
X0002592Y00042276*
X00025848Y0004237*
X00025754Y00042443*
X00025645Y00042488*
X00025577Y00042497*
G37*
G36*
X00026477D02*
X0002641Y00042488D01*
X000263Y00042443*
X00026206Y0004237*
X00026134Y00042276*
X00026089Y00042167*
X0002608Y000421*
X00026477*
Y00042497*
G37*
G36*
X00032577D02*
Y000421D01*
X00032974*
X00032966Y00042167*
X0003292Y00042276*
X00032848Y0004237*
X00032754Y00042443*
X00032645Y00042488*
X00032577Y00042497*
G37*
G36*
X00033477D02*
X0003341Y00042488D01*
X000333Y00042443*
X00033206Y0004237*
X00033134Y00042276*
X00033089Y00042167*
X0003308Y000421*
X00033477*
Y00042497*
G37*
G36*
X00032477D02*
X0003241Y00042488D01*
X000323Y00042443*
X00032206Y0004237*
X00032134Y00042276*
X00032089Y00042167*
X0003208Y000421*
X00032477*
Y00042497*
G37*
G36*
X00031477Y000425D02*
X00031077D01*
Y000421*
X00031477*
Y000425*
G37*
G36*
X00031977D02*
X00031577D01*
Y000421*
X00031977*
Y000425*
G37*
G36*
X00025477Y00042497D02*
X0002541Y00042488D01*
X000253Y00042443*
X00025206Y0004237*
X00025134Y00042276*
X00025089Y00042167*
X0002508Y000421*
X00025477*
Y00042497*
G37*
G36*
X0002104Y00042034D02*
Y0004185D01*
X00021224*
X00021216Y00041893*
X00021163Y00041973*
X00021083Y00042026*
X0002104Y00042034*
G37*
G36*
X00037142D02*
X00037098Y00042026D01*
X00037018Y00041973*
X00036965Y00041893*
X00036957Y0004185*
X00037142*
Y00042034*
G37*
G36*
X0002094D02*
X00020896Y00042026D01*
X00020817Y00041973*
X00020763Y00041893*
X00020755Y0004185*
X0002094*
Y00042034*
G37*
G36*
X00035477Y00042D02*
X0003508D01*
X00035089Y00041932*
X00035134Y00041823*
X00035206Y00041729*
X000353Y00041656*
X0003541Y00041611*
X00035477Y00041602*
Y00042*
G37*
G36*
X00035974D02*
X00035577D01*
Y00041602*
X00035645Y00041611*
X00035754Y00041656*
X00035848Y00041729*
X0003592Y00041823*
X00035966Y00041932*
X00035974Y00042*
G37*
G36*
X00024477Y00042497D02*
X0002441Y00042488D01*
X000243Y00042443*
X00024206Y0004237*
X00024134Y00042276*
X00024089Y00042167*
X0002408Y000421*
X00024477*
Y00042497*
G37*
G36*
X00024577D02*
Y000421D01*
X00024974*
X00024966Y00042167*
X0002492Y00042276*
X00024848Y0004237*
X00024754Y00042443*
X00024645Y00042488*
X00024577Y00042497*
G37*
G36*
X00023977Y000425D02*
X00023577D01*
Y000421*
X00023977*
Y000425*
G37*
G36*
X00037242Y00042034D02*
Y0004185D01*
X00037426*
X00037418Y00041893*
X00037365Y00041973*
X00037285Y00042026*
X00037242Y00042034*
G37*
G36*
X00023477Y000425D02*
X00023077D01*
Y000421*
X00023477*
Y000425*
G37*
G36*
X00033577Y00042497D02*
Y000421D01*
X00033974*
X00033966Y00042167*
X0003392Y00042276*
X00033848Y0004237*
X00033754Y00042443*
X00033645Y00042488*
X00033577Y00042497*
G37*
G36*
X0002326Y00043824D02*
Y0004364D01*
X00023444*
X00023436Y00043683*
X00023383Y00043763*
X00023303Y00043816*
X0002326Y00043824*
G37*
G36*
X000349Y00044092D02*
X00034574D01*
Y00043766*
X000349*
Y00044092*
G37*
G36*
X0002316Y00043824D02*
X00023116Y00043816D01*
X00023037Y00043763*
X00022983Y00043683*
X00022975Y0004364*
X0002316*
Y00043824*
G37*
G36*
X0002749Y00043804D02*
X00027446Y00043796D01*
X00027367Y00043743*
X00027313Y00043663*
X00027305Y0004362*
X0002749*
Y00043804*
G37*
G36*
X0002759D02*
Y0004362D01*
X00027774*
X00027766Y00043663*
X00027713Y00043743*
X00027633Y00043796*
X0002759Y00043804*
G37*
G36*
X000349Y00044518D02*
X00034574D01*
Y00044192*
X000349*
Y00044518*
G37*
G36*
X00035325D02*
X00035D01*
Y00044192*
X00035325*
Y00044518*
G37*
G36*
X00033965Y00044501D02*
X00033872Y00044489D01*
X00033786Y00044453*
X00033712Y00044396*
X00033655Y00044321*
X00033619Y00044235*
X00033607Y00044142*
X00033619Y00044049*
X00033655Y00043963*
X00033712Y00043888*
X00033786Y00043831*
X00033872Y00043796*
X00033965Y00043783*
X00034058Y00043796*
X00034145Y00043831*
X00034219Y00043888*
X00034276Y00043963*
X00034312Y00044049*
X00034324Y00044142*
X00034312Y00044235*
X00034276Y00044321*
X00034219Y00044396*
X00034145Y00044453*
X00034058Y00044489*
X00033965Y00044501*
G37*
G36*
X00035325Y00044092D02*
X00035D01*
Y00043766*
X00035325*
Y00044092*
G37*
G36*
X0003195Y00044501D02*
X00031857Y00044489D01*
X0003177Y00044453*
X00031696Y00044396*
X00031639Y00044321*
X00031603Y00044235*
X00031591Y00044142*
X00031603Y00044049*
X00031639Y00043963*
X00031696Y00043888*
X0003177Y00043831*
X00031857Y00043796*
X0003195Y00043783*
X00032042Y00043796*
X00032129Y00043831*
X00032203Y00043888*
X0003226Y00043963*
X00032296Y00044049*
X00032308Y00044142*
X00032296Y00044235*
X0003226Y00044321*
X00032203Y00044396*
X00032129Y00044453*
X00032042Y00044489*
X0003195Y00044501*
G37*
G36*
X0002678Y0004448D02*
X0002592D01*
Y0004362*
X0002678*
Y0004448*
G37*
G36*
X00035577Y00042497D02*
Y000421D01*
X00035974*
X00035966Y00042167*
X0003592Y00042276*
X00035848Y0004237*
X00035754Y00042443*
X00035645Y00042488*
X00035577Y00042497*
G37*
G36*
X00029527Y00044725D02*
X00029372Y0004471D01*
X00029224Y00044665*
X00029087Y00044592*
X00028967Y00044493*
X00028868Y00044373*
X00028795Y00044236*
X0002875Y00044087*
X00028735Y00043933*
X0002875Y00043778*
X00028795Y00043629*
X00028868Y00043492*
X00028967Y00043372*
X00029087Y00043274*
X00029224Y000432*
X00029372Y00043155*
X00029527Y0004314*
X00029682Y00043155*
X0002983Y000432*
X00029967Y00043274*
X00030087Y00043372*
X00030186Y00043492*
X00030259Y00043629*
X00030304Y00043778*
X0003032Y00043933*
X00030304Y00044087*
X00030259Y00044236*
X00030186Y00044373*
X00030087Y00044493*
X00029967Y00044592*
X0002983Y00044665*
X00029682Y0004471*
X00029527Y00044725*
G37*
G36*
X00035477Y00042497D02*
X0003541Y00042488D01*
X000353Y00042443*
X00035206Y0004237*
X00035134Y00042276*
X00035089Y00042167*
X0003508Y000421*
X00035477*
Y00042497*
G37*
G36*
X00034477D02*
X0003441Y00042488D01*
X000343Y00042443*
X00034206Y0004237*
X00034134Y00042276*
X00034089Y00042167*
X0003408Y000421*
X00034477*
Y00042497*
G37*
G36*
X00034577D02*
Y000421D01*
X00034974*
X00034966Y00042167*
X0003492Y00042276*
X00034848Y0004237*
X00034754Y00042443*
X00034645Y00042488*
X00034577Y00042497*
G37*
G36*
X00023444Y0004354D02*
X0002326D01*
Y00043355*
X00023303Y00043363*
X00023383Y00043417*
X00023436Y00043496*
X00023444Y0004354*
G37*
G36*
X0002535Y00044483D02*
X00025237Y00044468D01*
X00025133Y00044425*
X00025043Y00044356*
X00024974Y00044266*
X00024931Y00044162*
X00024916Y0004405*
X00024931Y00043937*
X00024974Y00043833*
X00025043Y00043743*
X00025133Y00043674*
X00025237Y00043631*
X0002535Y00043616*
X00025462Y00043631*
X00025566Y00043674*
X00025656Y00043743*
X00025725Y00043833*
X00025768Y00043937*
X00025783Y0004405*
X00025768Y00044162*
X00025725Y00044266*
X00025656Y00044356*
X00025566Y00044425*
X00025462Y00044468*
X0002535Y00044483*
G37*
G36*
X0002316Y0004354D02*
X00022975D01*
X00022983Y00043496*
X00023037Y00043417*
X00023116Y00043363*
X0002316Y00043355*
Y0004354*
G37*
G36*
X0002749Y0004352D02*
X00027305D01*
X00027313Y00043476*
X00027367Y00043397*
X00027446Y00043343*
X0002749Y00043335*
Y0004352*
G37*
G36*
X00027774D02*
X0002759D01*
Y00043335*
X00027633Y00043343*
X00027713Y00043397*
X00027766Y00043476*
X00027774Y0004352*
G37*
G36*
X00034974Y00042D02*
X00034577D01*
Y00041602*
X00034645Y00041611*
X00034754Y00041656*
X00034848Y00041729*
X0003492Y00041823*
X00034966Y00041932*
X00034974Y00042*
G37*
G36*
X00026527Y00041483D02*
X00026415Y00041468D01*
X0002631Y00041425*
X0002622Y00041356*
X00026152Y00041266*
X00026108Y00041162*
X00026093Y0004105*
X00026108Y00040937*
X00026152Y00040833*
X0002622Y00040743*
X0002631Y00040674*
X00026415Y00040631*
X00026527Y00040616*
X00026639Y00040631*
X00026744Y00040674*
X00026834Y00040743*
X00026903Y00040833*
X00026946Y00040937*
X00026961Y0004105*
X00026946Y00041162*
X00026903Y00041266*
X00026834Y00041356*
X00026744Y00041425*
X00026639Y00041468*
X00026527Y00041483*
G37*
G36*
X00027527D02*
X00027415Y00041468D01*
X0002731Y00041425*
X0002722Y00041356*
X00027152Y00041266*
X00027108Y00041162*
X00027093Y0004105*
X00027108Y00040937*
X00027152Y00040833*
X0002722Y00040743*
X0002731Y00040674*
X00027415Y00040631*
X00027527Y00040616*
X00027639Y00040631*
X00027744Y00040674*
X00027834Y00040743*
X00027903Y00040833*
X00027946Y00040937*
X00027961Y0004105*
X00027946Y00041162*
X00027903Y00041266*
X00027834Y00041356*
X00027744Y00041425*
X00027639Y00041468*
X00027527Y00041483*
G37*
G36*
X00025527D02*
X00025415Y00041468D01*
X0002531Y00041425*
X0002522Y00041356*
X00025152Y00041266*
X00025108Y00041162*
X00025093Y0004105*
X00025108Y00040937*
X00025152Y00040833*
X0002522Y00040743*
X0002531Y00040674*
X00025415Y00040631*
X00025527Y00040616*
X00025639Y00040631*
X00025744Y00040674*
X00025834Y00040743*
X00025903Y00040833*
X00025946Y00040937*
X00025961Y0004105*
X00025946Y00041162*
X00025903Y00041266*
X00025834Y00041356*
X00025744Y00041425*
X00025639Y00041468*
X00025527Y00041483*
G37*
G36*
X00031957Y0004048D02*
X00031097D01*
Y0003962*
X00031957*
Y0004048*
G37*
G36*
X00024527Y00041483D02*
X00024415Y00041468D01*
X0002431Y00041425*
X0002422Y00041356*
X00024152Y00041266*
X00024108Y00041162*
X00024093Y0004105*
X00024108Y00040937*
X00024152Y00040833*
X0002422Y00040743*
X0002431Y00040674*
X00024415Y00040631*
X00024527Y00040616*
X00024639Y00040631*
X00024744Y00040674*
X00024834Y00040743*
X00024903Y00040833*
X00024946Y00040937*
X00024961Y0004105*
X00024946Y00041162*
X00024903Y00041266*
X00024834Y00041356*
X00024744Y00041425*
X00024639Y00041468*
X00024527Y00041483*
G37*
G36*
X00035527D02*
X00035415Y00041468D01*
X0003531Y00041425*
X0003522Y00041356*
X00035152Y00041266*
X00035108Y00041162*
X00035093Y0004105*
X00035108Y00040937*
X00035152Y00040833*
X0003522Y00040743*
X0003531Y00040674*
X00035415Y00040631*
X00035527Y00040616*
X00035639Y00040631*
X00035744Y00040674*
X00035834Y00040743*
X00035903Y00040833*
X00035946Y00040937*
X00035961Y0004105*
X00035946Y00041162*
X00035903Y00041266*
X00035834Y00041356*
X00035744Y00041425*
X00035639Y00041468*
X00035527Y00041483*
G37*
G36*
X00023957Y0004148D02*
X00023097D01*
Y0004062*
X00023957*
Y0004148*
G37*
G36*
X00034527Y00041483D02*
X00034415Y00041468D01*
X0003431Y00041425*
X0003422Y00041356*
X00034152Y00041266*
X00034108Y00041162*
X00034093Y0004105*
X00034108Y00040937*
X00034152Y00040833*
X0003422Y00040743*
X0003431Y00040674*
X00034415Y00040631*
X00034527Y00040616*
X00034639Y00040631*
X00034744Y00040674*
X00034834Y00040743*
X00034903Y00040833*
X00034946Y00040937*
X00034961Y0004105*
X00034946Y00041162*
X00034903Y00041266*
X00034834Y00041356*
X00034744Y00041425*
X00034639Y00041468*
X00034527Y00041483*
G37*
G36*
X00032527D02*
X00032415Y00041468D01*
X0003231Y00041425*
X0003222Y00041356*
X00032152Y00041266*
X00032108Y00041162*
X00032093Y0004105*
X00032108Y00040937*
X00032152Y00040833*
X0003222Y00040743*
X0003231Y00040674*
X00032415Y00040631*
X00032527Y00040616*
X00032639Y00040631*
X00032744Y00040674*
X00032834Y00040743*
X00032903Y00040833*
X00032946Y00040937*
X00032961Y0004105*
X00032946Y00041162*
X00032903Y00041266*
X00032834Y00041356*
X00032744Y00041425*
X00032639Y00041468*
X00032527Y00041483*
G37*
G36*
X00033527D02*
X00033415Y00041468D01*
X0003331Y00041425*
X0003322Y00041356*
X00033152Y00041266*
X00033108Y00041162*
X00033093Y0004105*
X00033108Y00040937*
X00033152Y00040833*
X0003322Y00040743*
X0003331Y00040674*
X00033415Y00040631*
X00033527Y00040616*
X00033639Y00040631*
X00033744Y00040674*
X00033834Y00040743*
X00033903Y00040833*
X00033946Y00040937*
X00033961Y0004105*
X00033946Y00041162*
X00033903Y00041266*
X00033834Y00041356*
X00033744Y00041425*
X00033639Y00041468*
X00033527Y00041483*
G37*
G36*
X00023957Y0004048D02*
X00023097D01*
Y0003962*
X00023957*
Y0004048*
G37*
G36*
X00025527Y00040483D02*
X00025415Y00040468D01*
X0002531Y00040425*
X0002522Y00040356*
X00025152Y00040266*
X00025108Y00040162*
X00025093Y0004005*
X00025108Y00039937*
X00025152Y00039833*
X00025155Y00039828*
X00024769Y00039442*
X0002453*
X00024483Y00039433*
X00024443Y00039406*
X00024173Y00039136*
X00024147Y00039096*
X00024137Y0003905*
Y00035603*
X00024147Y00035556*
X00024173Y00035516*
X0002714Y00032549*
Y00032464*
X00027064Y00032441*
X00027027Y00032497*
X00026947Y0003255*
X00026904Y00032558*
Y00032324*
Y00032089*
X00026947Y00032097*
X00027027Y00032151*
X00027064Y00032206*
X0002714Y00032183*
Y00032147*
X0002715Y000321*
X00027176Y0003206*
X00027284Y00031952*
X00027277Y00031872*
X00027271Y00031868*
X00027222Y00031795*
X00027178Y00031828*
X00027105Y00031877*
X0002702Y00031894*
X00026934Y00031877*
X00026861Y00031828*
X00026812Y00031755*
X00026795Y0003167*
X00026812Y00031584*
X00026861Y00031511*
X00026934Y00031462*
X0002702Y00031445*
X00027062Y00031454*
X00027207Y00031309*
Y000307*
X00027217Y00030653*
X00027243Y00030613*
X00028104Y00029752*
X00028095Y0002971*
X00028112Y00029624*
X00028161Y00029551*
X00028234Y00029502*
X0002832Y00029485*
X00028405Y00029502*
X00028417Y0002951*
X00028477Y00029478*
X0002848Y00029398*
X00028451Y00029378*
X00028402Y00029305*
X00028385Y0002922*
X00028402Y00029134*
X00028451Y00029061*
X00028524Y00029012*
X0002861Y00028995*
X00028695Y00029012*
X00028706Y0002902*
X00028777Y00028982*
Y00028834*
X00028645Y00028702*
X00027606*
X00027588Y00028728*
X00027515Y00028777*
X0002743Y00028794*
X00027344Y00028777*
X00027271Y00028728*
X00027222Y00028655*
X00027205Y0002857*
X00027222Y00028484*
X00027271Y00028411*
X00027344Y00028362*
X0002743Y00028345*
X00027515Y00028362*
X00027588Y00028411*
X00027606Y00028437*
X000287*
X0002875Y00028447*
X00028793Y00028476*
X00029003Y00028686*
X00029032Y00028729*
X00029042Y0002878*
Y00029035*
X00029113Y00029073*
X00029114Y00029072*
X000292Y00029055*
X00029226Y0002906*
X00029883Y00028403*
X00029923Y00028377*
X0002997Y00028367*
X00035666*
X00035713Y00028377*
X00035752Y00028403*
X00036156Y00028807*
X00036183Y00028846*
X00036192Y00028893*
Y00030386*
X00036183Y00030433*
X00036156Y00030472*
X00035542Y00031087*
Y00034049*
X00035604Y000341*
X0003563Y00034095*
Y0003433*
X0003568*
Y0003438*
X00035914*
X00035906Y00034423*
X00035853Y00034503*
X00035902Y00034577*
X00036485*
X00036524Y00034483*
X00036593Y00034393*
X00036683Y00034324*
X00036787Y00034281*
X000369Y00034266*
X00037012Y00034281*
X00037116Y00034324*
X00037206Y00034393*
X00037275Y00034483*
X00037318Y00034587*
X00037333Y000347*
X00037318Y00034812*
X00037275Y00034916*
X00037206Y00035006*
X00037116Y00035075*
X00037012Y00035118*
X000369Y00035133*
X00036787Y00035118*
X00036683Y00035075*
X00036593Y00035006*
X00036524Y00034916*
X00036485Y00034822*
X00036267*
X00036244Y00034898*
X00036266Y00034913*
X00036679Y00035326*
X00036683Y00035324*
X00036787Y00035281*
X000369Y00035266*
X00037012Y00035281*
X00037116Y00035324*
X00037206Y00035393*
X00037275Y00035483*
X00037318Y00035587*
X00037333Y000357*
X00037318Y00035812*
X00037275Y00035916*
X00037206Y00036006*
X00037116Y00036075*
X00037012Y00036118*
X000369Y00036133*
X00036787Y00036118*
X00036683Y00036075*
X00036593Y00036006*
X00036524Y00035916*
X00036481Y00035812*
X00036466Y000357*
X00036481Y00035587*
X00036514Y00035507*
X00036129Y00035122*
X00035633*
X00035586Y00035113*
X00035547Y00035086*
X00035143Y00034682*
X00035117Y00034643*
X00035107Y00034596*
Y00031*
X00035117Y00030953*
X00035143Y00030913*
X00035777Y00030279*
Y00029*
X00035569Y00028792*
X0003215*
X00031982Y0002896*
Y00029313*
X00032008Y00029331*
X00032057Y00029404*
X00032074Y0002949*
X00032057Y00029575*
X00032008Y00029648*
X00031935Y00029697*
X0003185Y00029714*
X00031764Y00029697*
X00031691Y00029648*
X00031642Y00029575*
X00031625Y0002949*
X00031642Y00029404*
X00031691Y00029331*
X00031737Y000293*
Y0002891*
X00031747Y00028863*
X00031773Y00028823*
X0003191Y00028686*
X0003188Y00028612*
X0003002*
X00029425Y00029207*
X00029448Y00029283*
X00029502Y00029294*
X00029511Y00029281*
X00029584Y00029232*
X0002967Y00029215*
X00029755Y00029232*
X00029828Y00029281*
X00029877Y00029354*
X00029887Y00029404*
X00029961Y00029434*
X00029964Y00029432*
X0003005Y00029415*
X00030135Y00029432*
X00030208Y00029481*
X00030257Y00029554*
X00030274Y0002964*
X00030257Y00029725*
X00030208Y00029798*
X00030162Y00029829*
Y00030029*
X00030381Y00030248*
X00030443Y00030197*
X00030433Y00030183*
X00030425Y0003014*
X0003061*
Y00030324*
X00030566Y00030316*
X00030552Y00030306*
X00030501Y00030368*
X00031073Y0003094*
X00031147Y0003091*
Y00029241*
X00031124Y00029237*
X00031051Y00029188*
X00031002Y00029115*
X00030985Y0002903*
X00031002Y00028944*
X00031051Y00028871*
X00031124Y00028822*
X0003121Y00028805*
X00031295Y00028822*
X00031368Y00028871*
X00031417Y00028944*
X00031434Y0002903*
X00031417Y00029115*
X00031392Y00029153*
Y00031259*
X00031596Y00031463*
X00031673Y0003144*
X00031682Y00031394*
X00031731Y00031321*
X00031804Y00031272*
X00031751Y00031228*
X00031702Y00031155*
X00031685Y0003107*
X00031702Y00030984*
X00031751Y00030911*
X00031824Y00030862*
X0003191Y00030845*
X00031995Y00030862*
X00032068Y00030911*
X00032092Y00030947*
X00032379*
X00032397Y00030929*
Y0002957*
X00032407Y00029523*
X00032433Y00029483*
X00032643Y00029273*
X00032683Y00029247*
X0003273Y00029237*
X00034736*
X00034975Y0002919*
X00034992Y00029104*
X00035041Y00029031*
X00035114Y00028982*
X000352Y00028965*
X00035285Y00028982*
X00035358Y00029031*
X00035407Y00029104*
X00035424Y0002919*
X00035407Y00029275*
X00035358Y00029348*
X00035285Y00029397*
X000352Y00029414*
X00035157Y00029405*
X00035116Y00029446*
X00035076Y00029473*
X0003503Y00029482*
X0003278*
X00032642Y0002962*
Y0002983*
X00032716Y0002986*
X00032863Y00029713*
X00032903Y00029687*
X0003295Y00029677*
X0003488*
X00034926Y00029687*
X00034966Y00029713*
X00035107Y00029854*
X0003515Y00029845*
X00035235Y00029862*
X00035308Y00029911*
X00035357Y00029984*
X00035374Y0003007*
X00035357Y00030155*
X00035308Y00030228*
X00035235Y00030277*
X0003515Y00030294*
X00035064Y00030277*
X00034991Y00030228*
X00034942Y00030155*
X00034925Y0003007*
X00034934Y00030027*
X00034829Y00029922*
X00033361*
X00033323Y00029992*
X00033326Y00029996*
X00033334Y0003004*
X000331*
Y0003009*
X0003305*
Y00030324*
X00033006Y00030316*
X00032962Y00030287*
X00032892Y00030324*
Y00030595*
X00032962Y00030633*
X00032994Y00030612*
X0003308Y00030595*
X00033165Y00030612*
X00033238Y00030661*
X00033287Y00030734*
X00033304Y0003082*
X00033298Y0003085*
X00033453Y00031006*
X00033482Y00031049*
X00033492Y000311*
Y0003426*
X00033482Y0003431*
X00033453Y00034353*
X00033263Y00034544*
X00033264Y0003455*
X00033247Y00034635*
X00033198Y00034708*
X00033125Y00034757*
X0003304Y00034774*
X00032954Y00034757*
X00032881Y00034708*
X00032832Y00034635*
X00032815Y0003455*
X00032832Y00034464*
X00032881Y00034391*
X00032954Y00034342*
X0003304Y00034325*
X00033095Y00034336*
X00033227Y00034205*
Y00034054*
X00033156Y00034017*
X00033113Y00034046*
X0003307Y00034054*
Y0003382*
Y00033585*
X00033113Y00033593*
X00033156Y00033622*
X00033227Y00033585*
Y00031844*
X00033156Y00031807*
X00033143Y00031816*
X000331Y00031824*
Y0003159*
X0003305*
Y0003154*
X00032815*
X00032823Y00031497*
X00032753Y00031459*
X00032666Y00031546*
X00032626Y00031573*
X0003258Y00031582*
X00032136*
X00032092Y00031648*
X00032103Y00031676*
X00032106Y00031677*
X00032146Y00031703*
X00032266Y00031823*
X00032293Y00031863*
X00032302Y0003191*
Y00035613*
X00032313Y00035621*
X00032372Y00035653*
X00032446Y00035603*
X0003249Y00035595*
Y0003583*
X0003254*
Y0003588*
X00032774*
X00032769Y00035905*
X0003282Y00035967*
X00032855Y00035963*
X00032879Y00035947*
X00032895Y00035937*
X00032942Y00035927*
X00033157*
X00033172Y0003593*
X00033233*
X00033279Y0003594*
X00033319Y00035966*
X00033496Y00036143*
X00033523Y00036183*
X00033532Y0003623*
Y000378*
X00033523Y00037846*
X00033496Y00037886*
X00033386Y00037996*
X00033346Y00038023*
X000333Y00038032*
X0003224*
X00032193Y00038023*
X00032177Y00038012*
X00032153Y00037996*
X00031999Y00037842*
X0003159*
X00031106Y00038326*
X00031066Y00038353*
X0003102Y00038362*
X00030422*
X00030398Y00038398*
X00030325Y00038447*
X0003024Y00038464*
X00030154Y00038447*
X00030081Y00038398*
X00030032Y00038325*
X00030015Y0003824*
X00030032Y00038154*
X00030081Y00038081*
X00030154Y00038032*
X0003024Y00038015*
X00030325Y00038032*
X00030398Y00038081*
X00030422Y00038117*
X00030969*
X00031453Y00037633*
X00031493Y00037607*
X0003154Y00037597*
X0003205*
X00032096Y00037607*
X00032136Y00037633*
X0003229Y00037787*
X00033249*
X00033287Y00037749*
Y00036498*
X00033211Y00036474*
X00033208Y00036478*
X00033135Y00036527*
X0003305Y00036544*
X00032964Y00036527*
X00032891Y00036478*
X0003286Y00036432*
X00032426*
X00032379Y00036423*
X00032339Y00036396*
X00031865Y00035922*
X00031795Y0003596*
X0003183Y00036135*
X00031915Y00036152*
X00031988Y00036201*
X00032037Y00036274*
X00032054Y0003636*
X00032037Y00036445*
X00031988Y00036518*
Y00036594*
X00031998Y00036601*
X00032047Y00036674*
X00032064Y0003676*
X00032047Y00036845*
X00031998Y00036918*
X00031933Y00036962*
X00031925Y00037042*
X0003215Y00037267*
X00032307*
X00032331Y00037231*
X00032404Y00037182*
X0003249Y00037165*
X00032575Y00037182*
X00032648Y00037231*
X00032697Y00037304*
X00032714Y0003739*
X00032697Y00037475*
X00032648Y00037548*
X00032575Y00037597*
X0003249Y00037614*
X00032404Y00037597*
X00032331Y00037548*
X00032307Y00037512*
X000321*
X00032053Y00037503*
X00032013Y00037476*
X0003188Y00037343*
X00031807Y00037365*
X00031758Y00037438*
X00031685Y00037487*
X000316Y00037504*
X00031514Y00037487*
X00031441Y00037438*
X00031392Y00037365*
X00031375Y0003728*
X00031385Y0003723*
X00031105Y0003695*
X00031025Y00036958*
X00031006Y00036986*
X00030555Y00037437*
X00030564Y0003748*
X00030547Y00037565*
X00030498Y00037638*
X00030425Y00037687*
X0003034Y00037704*
X00030254Y00037687*
X00030181Y00037638*
X00030132Y00037565*
X00030115Y0003748*
X00030132Y00037394*
X00030181Y00037321*
X00030254Y00037272*
X0003034Y00037255*
X00030382Y00037264*
X00030797Y00036849*
Y00032772*
X00030761Y00032748*
X00030712Y00032675*
X00030695Y0003259*
X00030712Y00032504*
X00030761Y00032431*
X00030834Y00032382*
X00030856Y00032308*
X00030396Y00031848*
X00030322Y00031879*
Y00032349*
X00030436Y00032463*
X00030463Y00032503*
X00030472Y0003255*
Y00033647*
X00030508Y00033671*
X00030557Y00033744*
X00030574Y0003383*
X00030557Y00033915*
X00030508Y00033988*
X00030435Y00034037*
X0003035Y00034054*
X00030345Y00034053*
X000303Y00034119*
X00030323Y00034153*
X00030332Y000342*
Y00035027*
X00030368Y00035051*
X00030417Y00035124*
X00030434Y0003521*
X00030417Y00035295*
X00030368Y00035368*
X00030295Y00035417*
X0003021Y00035434*
X00030124Y00035417*
X00030051Y00035368*
X00030002Y00035295*
X00029985Y0003521*
X00030002Y00035124*
X00030051Y00035051*
X00030087Y00035027*
Y0003425*
X00029923Y00034086*
X00029897Y00034046*
X00029887Y00034*
Y00032836*
X00029831Y00032798*
X00029782Y00032725*
X00029765Y0003264*
X00029782Y00032554*
X00029831Y00032481*
X00029904Y00032432*
X0002999Y00032415*
X00029994Y00032416*
X00030029Y00032409*
X00030077Y0003237*
Y00031776*
X0003006Y00031764*
X00029981Y0003178*
X00029973Y00031793*
X00029893Y00031846*
X0002985Y00031854*
Y0003162*
X000298*
Y0003157*
X00029565*
X00029573Y00031526*
X00029627Y00031447*
X00029641Y00031388*
X00029592Y00031315*
X00029575Y0003123*
X00029592Y00031144*
X00029641Y00031071*
X00029714Y00031022*
X000298Y00031005*
X0002982Y00031009*
X00029886Y00030965*
X00029902Y00030884*
X00029903Y00030881*
X00029862Y00030812*
X00029834Y00030807*
X00029761Y00030758*
X00029712Y00030685*
X00029695Y000306*
X00029701Y00030569*
X00029536Y00030403*
X00029511Y00030366*
X00029431Y00030358*
X0002903Y00030759*
X00029054Y00030836*
X00029085Y00030842*
X00029158Y00030891*
X00029207Y00030964*
X00029224Y0003105*
X00029207Y00031135*
X00029158Y00031208*
X00029122Y00031232*
Y000318*
X00029113Y00031846*
X00029086Y00031886*
X00028553Y00032419*
X00028575Y00032492*
X00028648Y00032541*
X00028726Y00032533*
X00028741Y00032511*
X00028814Y00032462*
X000289Y00032445*
X00028985Y00032462*
X00029058Y00032511*
X00029107Y00032584*
X00029124Y0003267*
X00029107Y00032755*
X00029058Y00032828*
X00029049Y00032834*
X00029043Y00032866*
X00029016Y00032906*
X00027862Y0003406*
Y0003446*
X00027853Y00034506*
X00027842Y00034522*
X00027826Y00034546*
X00027636Y00034736*
X00027596Y00034763*
X0002755Y00034772*
X00027312*
X00027268Y00034838*
X00027195Y00034887*
X0002711Y00034904*
X00027034Y00034889*
X00026972Y0003494*
Y00038159*
X00027047Y00038234*
X0002709Y00038225*
X00027175Y00038242*
X00027248Y00038291*
X00027297Y00038364*
X00027314Y0003845*
X00027297Y00038535*
X00027248Y00038608*
X00027175Y00038657*
X0002709Y00038674*
X00027072Y0003867*
X00027034Y00038741*
X00027347Y00039054*
X0002739Y00039045*
X00027475Y00039062*
X00027548Y00039111*
X00027597Y00039184*
X00027614Y0003927*
X00027597Y00039355*
X00027548Y00039428*
X00027475Y00039477*
X0002739Y00039494*
X00027304Y00039477*
X00027231Y00039428*
X00027182Y00039355*
X00027165Y0003927*
X00027174Y00039227*
X00026603Y00038656*
X00026577Y00038616*
X00026567Y0003857*
Y00034478*
X00026493Y00034447*
X00025242Y00035698*
Y00037097*
X00025278Y00037121*
X00025327Y00037194*
X00025344Y0003728*
X00025327Y00037365*
X00025278Y00037438*
X00025205Y00037487*
X0002512Y00037504*
X00025122Y00037527*
Y00038719*
X0002531Y00038907*
X00025424*
X00025441Y00038881*
X00025514Y00038832*
X000256Y00038815*
X00025685Y00038832*
X00025758Y00038881*
X00025807Y00038954*
X00025824Y0003904*
X00025807Y00039125*
X00025758Y00039198*
X00025685Y00039247*
X000256Y00039264*
X00025514Y00039247*
X00025441Y00039198*
X0002541Y00039152*
X00025259*
X00025213Y00039142*
X00025173Y00039116*
X00025099Y00039042*
X00025023Y00039066*
X00025017Y00039095*
X00024968Y00039168*
X00024944Y00039184*
X00024937Y00039264*
X00025336Y00039663*
X00025415Y00039631*
X00025527Y00039616*
X00025639Y00039631*
X00025744Y00039674*
X00025834Y00039743*
X00025903Y00039833*
X00025946Y00039937*
X00025961Y0004005*
X00025946Y00040162*
X00025903Y00040266*
X00025834Y00040356*
X00025744Y00040425*
X00025639Y00040468*
X00025527Y00040483*
G37*
G36*
X00026527D02*
X00026415Y00040468D01*
X0002631Y00040425*
X0002622Y00040356*
X00026152Y00040266*
X00026108Y00040162*
X00026093Y0004005*
X00026108Y00039937*
X00026152Y00039833*
X0002622Y00039743*
X0002631Y00039674*
X00026415Y00039631*
X00026527Y00039616*
X00026639Y00039631*
X00026744Y00039674*
X00026834Y00039743*
X00026903Y00039833*
X00026946Y00039937*
X00026961Y0004005*
X00026946Y00040162*
X00026903Y00040266*
X00026834Y00040356*
X00026744Y00040425*
X00026639Y00040468*
X00026527Y00040483*
G37*
G36*
X00024527D02*
X00024415Y00040468D01*
X0002431Y00040425*
X0002422Y00040356*
X00024152Y00040266*
X00024108Y00040162*
X00024093Y0004005*
X00024108Y00039937*
X00024152Y00039833*
X0002422Y00039743*
X0002431Y00039674*
X00024415Y00039631*
X00024527Y00039616*
X00024639Y00039631*
X00024744Y00039674*
X00024834Y00039743*
X00024903Y00039833*
X00024946Y00039937*
X00024961Y0004005*
X00024946Y00040162*
X00024903Y00040266*
X00024834Y00040356*
X00024744Y00040425*
X00024639Y00040468*
X00024527Y00040483*
G37*
G36*
X0002858Y00041594D02*
X00028494Y00041577D01*
X00028421Y00041528*
X00028372Y00041455*
X00028355Y0004137*
X00028372Y00041284*
X00028421Y00041211*
X00028457Y00041187*
Y00038426*
X00028431Y00038408*
X00028382Y00038335*
X00028365Y0003825*
X00028382Y00038164*
X00028431Y00038091*
X00028504Y00038042*
X0002859Y00038025*
X00028675Y00038042*
X00028748Y00038091*
X00028797Y00038164*
X00028814Y0003825*
X00028797Y00038335*
X00028748Y00038408*
X00028702Y00038439*
Y00041187*
X00028738Y00041211*
X00028787Y00041284*
X00028804Y0004137*
X00028787Y00041455*
X00028738Y00041528*
X00028665Y00041577*
X0002858Y00041594*
G37*
G36*
X0002962Y00040684D02*
X00029534Y00040667D01*
X00029461Y00040618*
X00029412Y00040545*
X00029395Y0004046*
X00029412Y00040374*
X00029461Y00040301*
X00029477Y0004029*
Y00039112*
X00029471Y00039108*
X00029422Y00039035*
X00029405Y0003895*
X00029422Y00038864*
X00029471Y00038791*
X00029544Y00038742*
X0002963Y00038725*
X00029715Y00038742*
X00029788Y00038791*
X00029837Y00038864*
X00029854Y0003895*
X00029837Y00039035*
X00029788Y00039108*
X00029762Y00039125*
Y0004029*
X00029778Y00040301*
X00029827Y00040374*
X00029844Y0004046*
X00029827Y00040545*
X00029778Y00040618*
X00029705Y00040667*
X0002962Y00040684*
G37*
G36*
X00034527Y00040483D02*
X00034415Y00040468D01*
X0003431Y00040425*
X0003422Y00040356*
X00034152Y00040266*
X00034108Y00040162*
X00034093Y0004005*
X00034108Y00039937*
X00034152Y00039833*
X0003422Y00039743*
X0003431Y00039674*
X00034415Y00039631*
X00034527Y00039616*
X00034639Y00039631*
X00034744Y00039674*
X00034834Y00039743*
X00034903Y00039833*
X00034946Y00039937*
X00034961Y0004005*
X00034946Y00040162*
X00034903Y00040266*
X00034834Y00040356*
X00034744Y00040425*
X00034639Y00040468*
X00034527Y00040483*
G37*
G36*
X00035527D02*
X00035415Y00040468D01*
X0003531Y00040425*
X0003522Y00040356*
X00035152Y00040266*
X00035108Y00040162*
X00035093Y0004005*
X00035108Y00039937*
X00035152Y00039833*
X0003522Y00039743*
X0003531Y00039674*
X00035415Y00039631*
X00035527Y00039616*
X00035639Y00039631*
X00035744Y00039674*
X00035834Y00039743*
X00035903Y00039833*
X00035946Y00039937*
X00035961Y0004005*
X00035946Y00040162*
X00035903Y00040266*
X00035834Y00040356*
X00035744Y00040425*
X00035639Y00040468*
X00035527Y00040483*
G37*
G36*
X00033527D02*
X00033415Y00040468D01*
X0003331Y00040425*
X0003322Y00040356*
X00033152Y00040266*
X00033108Y00040162*
X00033093Y0004005*
X00033108Y00039937*
X00033152Y00039833*
X0003322Y00039743*
X0003331Y00039674*
X00033415Y00039631*
X00033527Y00039616*
X00033639Y00039631*
X00033744Y00039674*
X00033834Y00039743*
X00033903Y00039833*
X00033946Y00039937*
X00033961Y0004005*
X00033946Y00040162*
X00033903Y00040266*
X00033834Y00040356*
X00033744Y00040425*
X00033639Y00040468*
X00033527Y00040483*
G37*
G36*
X00027527D02*
X00027415Y00040468D01*
X0002731Y00040425*
X0002722Y00040356*
X00027152Y00040266*
X00027108Y00040162*
X00027093Y0004005*
X00027108Y00039937*
X00027152Y00039833*
X0002722Y00039743*
X0002731Y00039674*
X00027415Y00039631*
X00027527Y00039616*
X00027639Y00039631*
X00027744Y00039674*
X00027834Y00039743*
X00027903Y00039833*
X00027946Y00039937*
X00027961Y0004005*
X00027946Y00040162*
X00027903Y00040266*
X00027834Y00040356*
X00027744Y00040425*
X00027639Y00040468*
X00027527Y00040483*
G37*
G36*
X00032527D02*
X00032415Y00040468D01*
X0003231Y00040425*
X0003222Y00040356*
X00032152Y00040266*
X00032108Y00040162*
X00032093Y0004005*
X00032108Y00039937*
X00032152Y00039833*
X0003222Y00039743*
X0003231Y00039674*
X00032415Y00039631*
X00032527Y00039616*
X00032639Y00039631*
X00032744Y00039674*
X00032834Y00039743*
X00032903Y00039833*
X00032946Y00039937*
X00032961Y0004005*
X00032946Y00040162*
X00032903Y00040266*
X00032834Y00040356*
X00032744Y00040425*
X00032639Y00040468*
X00032527Y00040483*
G37*
G36*
X00031957Y0004148D02*
X00031097D01*
Y0004062*
X00031957*
Y0004148*
G37*
G36*
X00027477Y00042D02*
X0002708D01*
X00027089Y00041932*
X00027134Y00041823*
X00027206Y00041729*
X000273Y00041656*
X0002741Y00041611*
X00027477Y00041602*
Y00042*
G37*
G36*
X00027974D02*
X00027577D01*
Y00041602*
X00027645Y00041611*
X00027754Y00041656*
X00027848Y00041729*
X0002792Y00041823*
X00027966Y00041932*
X00027974Y00042*
G37*
G36*
X00026974D02*
X00026577D01*
Y00041602*
X00026645Y00041611*
X00026754Y00041656*
X00026848Y00041729*
X0002692Y00041823*
X00026966Y00041932*
X00026974Y00042*
G37*
G36*
X00025974D02*
X00025577D01*
Y00041602*
X00025645Y00041611*
X00025754Y00041656*
X00025848Y00041729*
X0002592Y00041823*
X00025966Y00041932*
X00025974Y00042*
G37*
G36*
X00026477D02*
X0002608D01*
X00026089Y00041932*
X00026134Y00041823*
X00026206Y00041729*
X000263Y00041656*
X0002641Y00041611*
X00026477Y00041602*
Y00042*
G37*
G36*
X00033974D02*
X00033577D01*
Y00041602*
X00033645Y00041611*
X00033754Y00041656*
X00033848Y00041729*
X0003392Y00041823*
X00033966Y00041932*
X00033974Y00042*
G37*
G36*
X00034477D02*
X0003408D01*
X00034089Y00041932*
X00034134Y00041823*
X00034206Y00041729*
X000343Y00041656*
X0003441Y00041611*
X00034477Y00041602*
Y00042*
G37*
G36*
X00033477D02*
X0003308D01*
X00033089Y00041932*
X00033134Y00041823*
X00033206Y00041729*
X000333Y00041656*
X0003341Y00041611*
X00033477Y00041602*
Y00042*
G37*
G36*
X00032477D02*
X0003208D01*
X00032089Y00041932*
X00032134Y00041823*
X00032206Y00041729*
X000323Y00041656*
X0003241Y00041611*
X00032477Y00041602*
Y00042*
G37*
G36*
X00032974D02*
X00032577D01*
Y00041602*
X00032645Y00041611*
X00032754Y00041656*
X00032848Y00041729*
X0003292Y00041823*
X00032966Y00041932*
X00032974Y00042*
G37*
G36*
X00025477D02*
X0002508D01*
X00025089Y00041932*
X00025134Y00041823*
X00025206Y00041729*
X000253Y00041656*
X0002541Y00041611*
X00025477Y00041602*
Y00042*
G37*
G36*
X00037426Y0004175D02*
X00037242D01*
Y00041565*
X00037285Y00041573*
X00037365Y00041627*
X00037418Y00041706*
X00037426Y0004175*
G37*
G36*
X00023477Y00042D02*
X00023077D01*
Y000416*
X00023477*
Y00042*
G37*
G36*
X00037142Y0004175D02*
X00036957D01*
X00036965Y00041706*
X00037018Y00041627*
X00037098Y00041573*
X00037142Y00041565*
Y0004175*
G37*
G36*
X0002094D02*
X00020755D01*
X00020763Y00041706*
X00020817Y00041627*
X00020896Y00041573*
X0002094Y00041565*
Y0004175*
G37*
G36*
X00021224D02*
X0002104D01*
Y00041565*
X00021083Y00041573*
X00021163Y00041627*
X00021216Y00041706*
X00021224Y0004175*
G37*
G36*
X00024477Y00042D02*
X0002408D01*
X00024089Y00041932*
X00024134Y00041823*
X00024206Y00041729*
X000243Y00041656*
X0002441Y00041611*
X00024477Y00041602*
Y00042*
G37*
G36*
X00024974D02*
X00024577D01*
Y00041602*
X00024645Y00041611*
X00024754Y00041656*
X00024848Y00041729*
X0002492Y00041823*
X00024966Y00041932*
X00024974Y00042*
G37*
G36*
X00031977D02*
X00031577D01*
Y000416*
X00031977*
Y00042*
G37*
G36*
X00023977D02*
X00023577D01*
Y000416*
X00023977*
Y00042*
G37*
G36*
X00031477D02*
X00031077D01*
Y000416*
X00031477*
Y00042*
G37*
%LNrpcb6996130008r01-3*%
%LPD*%
G54D28*
X0002594Y0003572D02*
Y0003714D01*
X0002593Y0003715D02*
X0002594Y0003714D01*
X0003518Y0003527D02*
Y0003682D01*
X0003185Y000382D02*
X0003215Y000385D01*
X0003484*
X0003519Y0003815*
G54D29*
X0002962Y0003896D02*
Y0004046D01*
Y0003896D02*
X0002963Y0003895D01*
G54D31*
X0003035Y0003255D02*
Y0003383D01*
X0002999Y0003264D02*
X0003001Y0003266D01*
Y00034*
X0003021Y000342*
Y0003521*
X0003618Y00035D02*
X0003669Y0003551D01*
X000292Y0002926D02*
Y0002928D01*
X000302Y0003165D02*
X0003022Y0003163D01*
X000302Y0003165D02*
Y000324D01*
X0003035Y0003255*
X0002733Y000307D02*
X0002832Y0002971D01*
X0002702Y0003167D02*
X0002733Y0003136D01*
Y000307D02*
Y0003136D01*
X0002861Y0002922D02*
Y00029798D01*
X0002743Y0003171D02*
Y0003198D01*
X0002711Y0003468D02*
X0002714Y0003465D01*
X0002755*
X00025Y0003877D02*
X00025259Y00039029D01*
X00025589*
X000256Y0003904*
X0002755Y0003465D02*
X0002774Y0003446D01*
Y0003401D02*
Y0003446D01*
X0003191Y0003107D02*
X0003243D01*
X0003252Y0003098*
X0003503Y0002936D02*
X000352Y0002919D01*
X0003273Y0002936D02*
X0003503D01*
X0003252Y0002957D02*
X0003273Y0002936D01*
X0003189Y0003146D02*
X0003258D01*
X0003277Y0003127*
X0003252Y0002957D02*
Y0003098D01*
X0002967Y0002944D02*
X00029755Y00029525D01*
X0002858Y0003826D02*
X0002859Y0003825D01*
X0002858Y0003826D02*
Y0004137D01*
X00033233Y00036053D02*
X0003341Y0003623D01*
X0003121Y0002903D02*
X0003127Y0002909D01*
Y0003131*
X0002208Y0003822D02*
X0002357D01*
X0002372Y0003807*
Y0003803D02*
Y0003807D01*
X0002595Y0003791D02*
Y000386D01*
Y0003791D02*
X0002626Y000376D01*
X0003024Y0003824D02*
X0003102D01*
X0003154Y0003772*
X000333Y0003791D02*
X0003341Y000378D01*
Y0003623D02*
Y000378D01*
X0003154Y0003772D02*
X0003205D01*
X0003224Y0003791*
X000333*
X00032942Y0003605D02*
X00033157D01*
X0003316Y00036053*
X00033233*
X0003183Y0003636D02*
X0003184Y0003635D01*
X00031568Y0003189D02*
Y00032168D01*
X00028223Y00032577D02*
X00029Y000318D01*
Y0003105D02*
Y000318D01*
X0002861Y000311D02*
Y00031963D01*
X00028063Y0003251D02*
X0002861Y00031963D01*
X00028063Y0003251D02*
Y00032931D01*
X00027903Y00032444D02*
Y00032865D01*
Y00032444D02*
X00028184Y00032163D01*
X00027743Y00032378D02*
Y00032799D01*
Y00032378D02*
X00028024Y00032097D01*
X00027583Y00032311D02*
Y00032732D01*
Y00032311D02*
X00027864Y0003203D01*
Y0003099D02*
Y0003203D01*
X00027423Y00032245D02*
Y00032666D01*
Y00032245D02*
X00027704Y00031964D01*
X00028223Y00032577D02*
Y00032997D01*
X00028383Y00032807D02*
Y00033064D01*
Y00032807D02*
X0002849Y000327D01*
X0002734Y00034107D02*
Y0003426D01*
Y00034107D02*
X00028383Y00033064D01*
X0002774Y0003401D02*
X0002893Y0003282D01*
Y0003267D02*
Y0003282D01*
X0002669Y0003857D02*
X0002739Y0003927D01*
X0002685Y0003821D02*
X0002709Y0003845D01*
X000288Y0003003D02*
Y00030054D01*
X00027864Y0003099D02*
X000288Y00030054D01*
X00025Y00037527D02*
Y0003877D01*
X0002486Y00037387D02*
X00025Y00037527D01*
X00027263Y00032147D02*
Y000326D01*
Y00032147D02*
X0002743Y0003198D01*
X00027704Y00030704D02*
Y00031964D01*
Y00030704D02*
X0002861Y00029798D01*
X0002454Y00035549D02*
X00027423Y00032666D01*
X00028184Y00031148D02*
Y00032163D01*
X00028024Y00031082D02*
Y00032097D01*
X000247Y00035615D02*
Y0003807D01*
Y00035615D02*
X00027583Y00032732D01*
X0002486Y00035682D02*
Y00037387D01*
Y00035682D02*
X00027743Y00032799D01*
X0002512Y00035648D02*
Y0003728D01*
Y00035648D02*
X00027903Y00032865D01*
X0002669Y00034304D02*
X00028063Y00032931D01*
X0002669Y00034304D02*
Y0003857D01*
X0002685Y0003437D02*
Y0003821D01*
Y0003437D02*
X00028223Y00032997D01*
X00028024Y00031082D02*
X00028456Y0003065D01*
X000286*
X0002874Y0003051*
X00028184Y00031148D02*
X00028522Y0003081D01*
X00028807*
X0002936Y00030257*
Y0002995D02*
Y00030257D01*
X0003004Y0002965D02*
Y0003008D01*
X00031053Y00031093*
Y00031375*
X00030893Y00031169D02*
Y00031441D01*
X00029755Y00029525D02*
Y00029723D01*
X000298Y00029767*
Y00030076*
X00030893Y00031169*
X0003Y0002969D02*
X0003005Y0002964D01*
X00031053Y00031375D02*
X00031568Y0003189D01*
X0003185Y0002949D02*
X0003186Y0002948D01*
Y0002891D02*
Y0002948D01*
Y0002891D02*
X000321Y0002867D01*
X000292Y0002926D02*
X0002997Y0002849D01*
X00035633Y00035D02*
X0003618D01*
X0003523Y00034596D02*
X00035633Y00035D01*
X00035682Y000347D02*
X0003675D01*
X0003542Y00031036D02*
Y00034437D01*
X00035682Y000347*
X0003523Y00031D02*
Y00034596D01*
X0003488Y000298D02*
X0003515Y0003007D01*
X0003277Y0002998D02*
Y0003127D01*
Y0002998D02*
X0003295Y000298D01*
X0003488*
X00031568Y00032168D02*
X0003166Y0003226D01*
Y0003617*
X0003184Y0003635*
X00031408Y00032234D02*
X000315Y00032326D01*
X0003092Y0003259D02*
Y000369D01*
X0003034Y0003748D02*
X0003092Y000369D01*
X0003118Y00032459D02*
Y00036852D01*
X00031609Y00037281*
X0003047Y00031492D02*
Y00031749D01*
X0003118Y00032459*
X0003011Y0003097D02*
X00030174D01*
X00031172Y00031968*
Y00032225*
X0003134Y00032393*
X00030893Y00031441D02*
X00031408Y00031956D01*
Y00032234*
X000315Y00032326D02*
Y0003642D01*
X0003184Y0003676*
X000298Y0003123D02*
X00030207D01*
X0003047Y00031492*
X0003134Y00032393D02*
Y0003663D01*
X000321Y0003739*
X0003249*
X000247Y0003807D02*
X0002481Y0003818D01*
Y0003901*
X0002454Y00035549D02*
Y0003847D01*
X0002482Y0003932D02*
X0002547Y0003997D01*
X0002453Y0003932D02*
X0002482D01*
X0002426Y0003905D02*
X0002453Y0003932D01*
X0002426Y00035603D02*
X00027263Y000326D01*
X0002426Y00035603D02*
Y0003905D01*
X0003218Y00035837D02*
X00032432Y0003609D01*
X00032902*
X00032942Y0003605*
X0003218Y0003191D02*
Y00035837D01*
X0003192Y0003206D02*
Y00035804D01*
X00032426Y0003631*
X0003304*
X0003305Y0003632*
X0003127Y0003131D02*
X0003175Y0003179D01*
X0003206*
X0003218Y0003191*
X0003542Y00031036D02*
X0003607Y00030386D01*
X0003523Y00031D02*
X000359Y0003033D01*
X000321Y0002867D02*
X0003562D01*
X000359Y0002895*
Y0003033*
X0002997Y0002849D02*
X00035666D01*
X0003607Y00028893*
Y00030386*
X000386Y000447D02*
X00039D01*
X00038866Y00044566*
X00039Y00044433*
X000386*
Y000443D02*
X00039D01*
X00038866Y00044166*
X00039Y00044033*
X000386*
Y000439D02*
X00039D01*
X00038866Y00043767*
X00039Y00043633*
X000386*
X00039Y000435D02*
X00038933D01*
Y00043433*
X00039*
Y000435*
Y00043167D02*
X00038733D01*
X000386Y00043033*
X00038733Y000429*
X00039*
X000388*
Y00043167*
X00039Y00042767D02*
X000386D01*
X00038733Y00042634*
X000386Y000425*
X00039*
X000386Y000421D02*
Y00042367D01*
X00039*
Y000421*
X000388Y00042367D02*
Y00042234D01*
X00039Y00041967D02*
X00038933D01*
Y000419*
X00039*
Y00041967*
Y00041634D02*
X000386D01*
X00039Y00041367*
X000386*
Y00041234D02*
X00038933D01*
X00039Y00041167*
Y00041034*
X00038933Y00040967*
X000386*
Y000405D02*
X00039D01*
X00038866*
X000386Y00040233*
X000388Y00040433*
X00039Y00040233*
Y000399D02*
Y00040033D01*
X00038933Y000401*
X000388*
X00038733Y00040033*
Y000399*
X000388Y00039833*
X00038866*
Y000401*
X00039Y000397D02*
X000386D01*
X00038866D02*
X00038733Y000395D01*
X00038866Y000397D02*
X00039Y000395D01*
Y000393D02*
X000386D01*
X00038866D02*
X00038733Y000391D01*
X00038866Y000393D02*
X00039Y000391D01*
Y000387D02*
Y00038833D01*
X00038933Y000389*
X000388*
X00038733Y00038833*
Y000387*
X000388Y00038633*
X00038866*
Y000389*
X00038666Y00038434D02*
X00038733D01*
Y000385*
Y00038367*
Y00038434*
X00038933*
X00039Y00038367*
Y00037967D02*
Y000381D01*
X00038933Y00038167*
X000388*
X00038733Y000381*
Y00037967*
X000388Y000379*
X00038866*
Y00038167*
X00039Y00037767D02*
X000386D01*
X00038866D02*
X00038733Y00037567D01*
X00038866Y00037767D02*
X00039Y00037567D01*
X000388Y00036967D02*
Y00036701D01*
X000386Y00035901D02*
Y00036168D01*
X000388*
Y00036034*
Y00036168*
X00039*
X00038733Y00035701D02*
Y00035568D01*
X000388Y00035501*
X00039*
Y00035701*
X00038933Y00035768*
X00038866Y00035701*
Y00035501*
X00039Y00035368D02*
X00038733D01*
Y00035168*
X000388Y00035101*
X00039*
X000386Y00034968D02*
X00039D01*
Y00034768*
X00038933Y00034701*
X00038866*
X000388Y00034768*
Y00034968*
Y00034768*
X00038733Y00034701*
X00038666*
X000386Y00034768*
Y00034968*
X00039Y00034501D02*
Y00034368D01*
X00038933Y00034302*
X000388*
X00038733Y00034368*
Y00034501*
X000388Y00034568*
X00038933*
X00039Y00034501*
X00038666Y00034102D02*
X00038733D01*
Y00034168*
Y00034035*
Y00034102*
X00038933*
X00039Y00034035*
Y000336D02*
X000386D01*
Y000334*
X00038666Y00033333*
X000388*
X00038866Y000334*
Y000336*
Y00033466D02*
X00039Y00033333D01*
Y00033133D02*
Y00033D01*
X00038933Y00032933*
X000388*
X00038733Y00033*
Y00033133*
X000388Y000332*
X00038933*
X00039Y00033133*
X000386Y000328D02*
X00039D01*
Y000326*
X00038933Y00032533*
X00038866*
X000388*
X00038733Y000326*
Y000328*
X00039Y00032333D02*
Y000322D01*
X00038933Y00032133*
X000388*
X00038733Y000322*
Y00032333*
X000388Y000324*
X00038933*
X00039Y00032333*
X00038733Y00031733D02*
Y00031933D01*
X000388Y00032*
X00038933*
X00039Y00031933*
Y00031733*
X00038733Y000316D02*
X00038933D01*
X00039Y00031534*
Y00031334*
X00038733*
X00039133Y000312D02*
X00038733D01*
Y00031*
X000388Y00030934*
X00038933*
X00039Y00031*
Y000312*
Y00030134D02*
Y00030401D01*
X00038733Y00030134*
X00038666*
X000386Y00030201*
Y00030334*
X00038666Y00030401*
Y00030001D02*
X000386Y00029934D01*
Y00029801*
X00038666Y00029734*
X00038933*
X00039Y00029801*
Y00029934*
X00038933Y00030001*
X00038666*
X00039Y00029601D02*
Y00029468D01*
Y00029534*
X000386*
X00038666Y00029601*
Y00029268D02*
X000386Y00029201D01*
Y00029068*
X00038666Y00029001*
X00038733*
X000388Y00029068*
Y00029134*
Y00029068*
X00038866Y00029001*
X00038933*
X00039Y00029068*
Y00029201*
X00038933Y00029268*
G54D32*
X0002743Y0002857D02*
X000287D01*
X0002939Y0002959D02*
X0002951Y0002971D01*
X0002908Y0002959D02*
X0002939D01*
X0002951Y0002971D02*
Y00029718D01*
X0002963Y00029838*
Y0003031D02*
X0002992Y000306D01*
X0002963Y00029838D02*
Y0003031D01*
X000287Y0002857D02*
X0002891Y0002878D01*
Y0002942*
X0002908Y0002959*
X0003308Y0003082D02*
X0003336Y000311D01*
Y0003426*
X0003306Y0003456D02*
X0003336Y0003426D01*
G54D34*
X00033965Y00044142D03*
X0003195D03*
G54D35*
X0003495Y00044142D03*
G54D36*
X000369Y000367D03*
Y000377D03*
Y000347D03*
Y000357D03*
Y0003089D03*
Y0002989D03*
X0003785Y0002806D03*
X0003685D03*
X00034527Y0004105D03*
X00035527D03*
X00032527D03*
X00033527D03*
X00026527D03*
X00027527D03*
X00024527D03*
X00025527D03*
X00034527Y0004205D03*
X00035527D03*
X00032527D03*
X00033527D03*
X00026527D03*
X00027527D03*
X00024527D03*
X00025527D03*
X00034527Y0004005D03*
X00035527D03*
X00032527D03*
X00033527D03*
X00026527D03*
X00027527D03*
X00024527D03*
X00025527D03*
X0002535Y0004405D03*
G54D37*
X000369Y000337D03*
Y0003189D03*
G54D38*
X0003885Y0002806D03*
X00031527Y0004105D03*
X00023527D03*
X00031527Y0004205D03*
X00023527D03*
X00031527Y0004005D03*
X00023527D03*
X0002635Y0004405D03*
G54D39*
X00029527Y00043933D03*
G54D40*
X0002202Y0002784D03*
X00037192Y000418D03*
X0002099D03*
X0002321Y0004359D03*
X0002754Y0004357D03*
X0002952Y0003389D03*
X0002999Y0003264D03*
X0003035Y0003383D03*
X0003254Y0003583D03*
X0003302Y0003382D03*
X0003305Y0003159D03*
X0003066Y0003009D03*
X000331D03*
X0003308Y0003082D03*
X0002861Y0002922D03*
X0003189Y0003148D03*
X0003191Y0003107D03*
X0002948Y0003467D03*
X0003021Y0003521D03*
X0002832Y0002971D03*
X0002685Y0003008D03*
X0002743Y0002857D03*
X0002874Y0003051D03*
X0002709Y0003845D03*
X0002739Y0003927D03*
X0003568Y0003433D03*
X0003515Y0003007D03*
X000352Y0002919D03*
X000292Y0002928D03*
X0003185Y0002949D03*
X0002967Y0002944D03*
X0002936Y0002995D03*
X000288Y0003003D03*
X000289Y0003267D03*
X0002702Y0003167D03*
X0002743Y0003171D03*
X00026854Y00032324D03*
X0002512Y0003728D03*
X0002481Y0003901D03*
X0003304Y0003455D03*
X0003011Y0003097D03*
X000298Y0003123D03*
Y0003162D03*
X00029Y0003105D03*
X0002992Y000306D03*
X0002053Y0003351D03*
X0002594Y0003572D03*
X0002593Y0003715D03*
X0003518Y0003527D03*
Y0003682D03*
X0002517Y0002679D03*
X0002768Y0002678D03*
X0003121Y0002753D03*
X0003379D03*
X0003615Y0002677D03*
X0002962Y0004046D03*
X0002963Y0003895D03*
X0003121Y0002903D03*
X000316Y0003728D03*
X0003184Y0003676D03*
X0003249Y0003739D03*
X0003024Y0003824D03*
X0002858Y0004137D03*
X0002859Y0003825D03*
X0003185Y000382D03*
X0003519Y0003815D03*
X0003034Y0003748D03*
X0002208Y0003822D03*
X0002372Y0003803D03*
X000256Y0003904D03*
X0002595Y000386D03*
X0002626Y000376D03*
X0003183Y0003636D03*
X0003021Y000316D03*
X0003305Y0003632D03*
X0002711Y0003468D03*
X0002861Y0003109D03*
X0002734Y0003426D03*
X0002849Y000327D03*
X0003005Y0002964D03*
X0003092Y0003259D03*
X0002454Y0003847D03*
X0003192Y0003206D03*
X0002311Y0003542D03*
X0002326Y0003692D03*
X0003614Y0003268D03*
M02*