<?xml version="1.0" standalone="no"?>
<!DOCTYPE svg PUBLIC "-//W3C//DTD SVG 20010904//EN" 
"http://www.w3.org/TR/2001/REC-SVG-20010904/DTD/svg10.dtd"> 
<svg xmlns="http://www.w3.org/2000/svg" xmlns:xlink="http://www.w3.org/1999/xlink" 
    width="29.72cm" height="21.00cm" viewBox="0 0 117000 82670 "> 
<title>SVG Picture created as fanbot-Mask_Back.svg </title>
<desc>Picture generated by wxSVG v0100 </desc>
<g style="fill:black; stroke:black; stroke-width:1">
</g>
<g style="fill:#000000; fill-opacity:0.0; stroke:#FFFF00; stroke-opacity:1.00; stroke-linecap:round; stroke-linejoin:round; stroke-width:150" 
   transform="translate(0.00 0.00) scale(1.00 1.00)">
<path d="M27700 48600 L27700 29000" /> 
<path d="M47300 48600 L27700 48600" /> 
<path d="M47300 29000 L47300 48600" /> 
<path d="M27700 29000 L47300 29000" /> 
</g>
<g style="fill:#808000; fill-opacity:0.0; stroke:#808000; stroke-opacity:1.00; stroke-linecap:round; stroke-linejoin:round; stroke-width:60" 
   transform="translate(0.00 0.00) scale(1.00 1.00)">
<path d="M43433 37300 L42567 37300" /> 
<path d="M42567 37300 L42567 36700" /> 
<path d="M42567 36700 L43433 36700" /> 
<path d="M43433 37300 L43433 36700" /> 
<path d="M42867 35700 L43133 35700" /> 
<path d="M42867 36300 L43133 36300" /> 
<path d="M42867 35700 A300.00 300.00 0.0 0 0 42867 36300 L42867 36000 z  " /> 
<path d="M43133 36300 A300.00 300.00 0.0 0 0 43133 35700 L43133 36000 z  " /> 
<path d="M42867 34700 L43133 34700" /> 
<path d="M42867 35300 L43133 35300" /> 
<path d="M42867 34700 A300.00 300.00 0.0 0 0 42867 35300 L42867 35000 z  " /> 
<path d="M43133 35300 A300.00 300.00 0.0 0 0 43133 34700 L43133 35000 z  " /> 
<path d="M31567 34700 L32433 34700" /> 
<path d="M32433 34700 L32433 35300" /> 
<path d="M32433 35300 L31567 35300" /> 
<path d="M31567 34700 L31567 35300" /> 
<path d="M32133 36300 L31867 36300" /> 
<path d="M32133 35700 L31867 35700" /> 
<path d="M32133 36300 A300.00 300.00 0.0 0 0 32133 35700 L32133 36000 z  " /> 
<path d="M31867 35700 A300.00 300.00 0.0 0 0 31867 36300 L31867 36000 z  " /> 
<path d="M32133 37300 L31867 37300" /> 
<path d="M32133 36700 L31867 36700" /> 
<path d="M32133 37300 A300.00 300.00 0.0 0 0 32133 36700 L32133 37000 z  " /> 
<path d="M31867 36700 A300.00 300.00 0.0 0 0 31867 37300 L31867 37000 z  " /> 
<path d="M42725 30275 L42725 29725" /> 
<path d="M42725 29725 L43275 29725" /> 
<path d="M43275 29725 L43275 30275" /> 
<path d="M42725 30275 L43275 30275" /> 
<ellipse cx="44000" cy="30000" rx="275" ry="275"  /> 
<ellipse cx="45000" cy="30000" rx="275" ry="275"  /> 
<path d="M30725 30275 L30725 29725" /> 
<path d="M30725 29725 L31275 29725" /> 
<path d="M31275 29725 L31275 30275" /> 
<path d="M30725 30275 L31275 30275" /> 
<ellipse cx="32000" cy="30000" rx="275" ry="275"  /> 
<ellipse cx="33000" cy="30000" rx="275" ry="275"  /> 
<ellipse cx="34000" cy="30000" rx="275" ry="275"  /> 
<ellipse cx="35000" cy="30000" rx="275" ry="275"  /> 
<ellipse cx="36000" cy="30000" rx="275" ry="275"  /> 
<path d="M38725 30275 L38725 29725" /> 
<path d="M38725 29725 L39275 29725" /> 
<path d="M39275 29725 L39275 30275" /> 
<path d="M38725 30275 L39275 30275" /> 
<ellipse cx="40000" cy="30000" rx="275" ry="275"  /> 
<ellipse cx="41000" cy="30000" rx="275" ry="275"  /> 
<ellipse cx="42000" cy="30000" rx="275" ry="275"  /> 
<path d="M38725 31275 L38725 30725" /> 
<path d="M38725 30725 L39275 30725" /> 
<path d="M39275 30725 L39275 31275" /> 
<path d="M38725 31275 L39275 31275" /> 
<ellipse cx="40000" cy="31000" rx="275" ry="275"  /> 
<ellipse cx="41000" cy="31000" rx="275" ry="275"  /> 
<ellipse cx="42000" cy="31000" rx="275" ry="275"  /> 
<path d="M38725 32275 L38725 31725" /> 
<path d="M38725 31725 L39275 31725" /> 
<path d="M39275 31725 L39275 32275" /> 
<path d="M38725 32275 L39275 32275" /> 
<ellipse cx="40000" cy="32000" rx="275" ry="275"  /> 
<ellipse cx="41000" cy="32000" rx="275" ry="275"  /> 
<ellipse cx="42000" cy="32000" rx="275" ry="275"  /> 
<path d="M30725 32275 L30725 31725" /> 
<path d="M30725 31725 L31275 31725" /> 
<path d="M31275 31725 L31275 32275" /> 
<path d="M30725 32275 L31275 32275" /> 
<ellipse cx="32000" cy="32000" rx="275" ry="275"  /> 
<ellipse cx="33000" cy="32000" rx="275" ry="275"  /> 
<ellipse cx="34000" cy="32000" rx="275" ry="275"  /> 
<ellipse cx="35000" cy="32000" rx="275" ry="275"  /> 
<ellipse cx="36000" cy="32000" rx="275" ry="275"  /> 
<path d="M30725 31275 L30725 30725" /> 
<path d="M30725 30725 L31275 30725" /> 
<path d="M31275 30725 L31275 31275" /> 
<path d="M30725 31275 L31275 31275" /> 
<ellipse cx="32000" cy="31000" rx="275" ry="275"  /> 
<ellipse cx="33000" cy="31000" rx="275" ry="275"  /> 
<ellipse cx="34000" cy="31000" rx="275" ry="275"  /> 
<ellipse cx="35000" cy="31000" rx="275" ry="275"  /> 
<ellipse cx="36000" cy="31000" rx="275" ry="275"  /> 
<path d="M27925 45875 L27925 45325" /> 
<path d="M27925 45325 L28475 45325" /> 
<path d="M28475 45325 L28475 45875" /> 
<path d="M27925 45875 L28475 45875" /> 
<ellipse cx="29200" cy="45600" rx="275" ry="275"  /> 
<ellipse cx="30200" cy="45600" rx="275" ry="275"  /> 
<ellipse cx="31200" cy="45600" rx="275" ry="275"  /> 
<path d="M46475 44575 L45925 44575" /> 
<path d="M45925 44575 L45925 44025" /> 
<path d="M45925 44025 L46475 44025" /> 
<path d="M46475 44575 L46475 44025" /> 
<ellipse cx="46200" cy="43300" rx="275" ry="275"  /> 
<ellipse cx="46200" cy="42300" rx="275" ry="275"  /> 
<ellipse cx="46200" cy="41300" rx="275" ry="275"  /> 
<ellipse cx="46200" cy="40300" rx="275" ry="275"  /> 
</g> 
</svg> 
