<?xml version="1.0" standalone="no"?>
<!DOCTYPE svg PUBLIC "-//W3C//DTD SVG 20010904//EN" 
"http://www.w3.org/TR/2001/REC-SVG-20010904/DTD/svg10.dtd"> 
<svg xmlns="http://www.w3.org/2000/svg" xmlns:xlink="http://www.w3.org/1999/xlink" 
    width="29.72cm" height="21.00cm" viewBox="0 0 117000 82670 "> 
<title>SVG Picture created as fanbot-Mask_Front.svg </title>
<desc>Picture generated by wxSVG v0100 </desc>
<g style="fill:black; stroke:black; stroke-width:1">
</g>
<g style="fill:#000000; fill-opacity:0.0; stroke:#FFFF00; stroke-opacity:1.00; stroke-linecap:round; stroke-linejoin:round; stroke-width:150" 
   transform="translate(0.00 0.00) scale(1.00 1.00)">
<path d="M27700 48600 L27700 29000" /> 
<path d="M47300 48600 L27700 48600" /> 
<path d="M47300 29000 L47300 48600" /> 
<path d="M27700 29000 L47300 29000" /> 
</g>
<g style="fill:#A00000; fill-opacity:0.0; stroke:#A00000; stroke-opacity:1.00; stroke-linecap:round; stroke-linejoin:round; stroke-width:60" 
   transform="translate(0.00 0.00) scale(1.00 1.00)">
<path d="M29439 48373 L29439 47627" /> 
<path d="M29439 47627 L29901 47627" /> 
<path d="M29901 47627 L29901 48373" /> 
<path d="M29439 48373 L29901 48373" /> 
<path d="M30099 48373 L30099 47627" /> 
<path d="M30099 47627 L30561 47627" /> 
<path d="M30561 47627 L30561 48373" /> 
<path d="M30099 48373 L30561 48373" /> 
<path d="M30680 48373 L30680 47627" /> 
<path d="M30680 47627 L31614 47627" /> 
<path d="M31614 47627 L31614 48373" /> 
<path d="M30680 48373 L31614 48373" /> 
<path d="M28386 48373 L28386 47627" /> 
<path d="M28386 47627 L29320 47627" /> 
<path d="M29320 47627 L29320 48373" /> 
<path d="M28386 48373 L29320 48373" /> 
<path d="M30679 47508 L30679 46682" /> 
<path d="M30679 46682 L31259 46682" /> 
<path d="M31259 46682 L31259 47508" /> 
<path d="M30679 47508 L31259 47508" /> 
<path d="M28741 47508 L28741 46682" /> 
<path d="M28741 46682 L29321 46682" /> 
<path d="M29321 46682 L29321 47508" /> 
<path d="M28741 47508 L29321 47508" /> 
<path d="M29400 47224 L29400 46682" /> 
<path d="M29400 46682 L29576 46682" /> 
<path d="M29576 46682 L29576 47224" /> 
<path d="M29400 47224 L29576 47224" /> 
<path d="M29656 47224 L29656 46682" /> 
<path d="M29656 46682 L29832 46682" /> 
<path d="M29832 46682 L29832 47224" /> 
<path d="M29656 47224 L29832 47224" /> 
<path d="M29912 47224 L29912 46682" /> 
<path d="M29912 46682 L30088 46682" /> 
<path d="M30088 46682 L30088 47224" /> 
<path d="M29912 47224 L30088 47224" /> 
<path d="M30168 47224 L30168 46682" /> 
<path d="M30168 46682 L30344 46682" /> 
<path d="M30344 46682 L30344 47224" /> 
<path d="M30168 47224 L30344 47224" /> 
<path d="M30424 47224 L30424 46682" /> 
<path d="M30424 46682 L30600 46682" /> 
<path d="M30600 46682 L30600 47224" /> 
<path d="M30424 47224 L30600 47224" /> 
<path d="M47228 48395 L45772 48395" /> 
<path d="M45772 48395 L45772 47727" /> 
<path d="M45772 47727 L47228 47727" /> 
<path d="M47228 48395 L47228 47727" /> 
<path d="M47228 46073 L45772 46073" /> 
<path d="M45772 46073 L45772 45405" /> 
<path d="M45772 45405 L47228 45405" /> 
<path d="M47228 46073 L47228 45405" /> 
</g>
<g style="fill:#808000; fill-opacity:0.0; stroke:#808000; stroke-opacity:1.00; stroke-linecap:round; stroke-linejoin:round; stroke-width:60" 
   transform="translate(0.00 0.00) scale(1.00 1.00)">
<path d="M43433 37300 L42567 37300" /> 
<path d="M42567 37300 L42567 36700" /> 
<path d="M42567 36700 L43433 36700" /> 
<path d="M43433 37300 L43433 36700" /> 
<path d="M42867 35700 L43133 35700" /> 
<path d="M42867 36300 L43133 36300" /> 
<path d="M42867 35700 A300.00 300.00 0.0 0 0 42867 36300 L42867 36000 z  " /> 
<path d="M43133 36300 A300.00 300.00 0.0 0 0 43133 35700 L43133 36000 z  " /> 
<path d="M42867 34700 L43133 34700" /> 
<path d="M42867 35300 L43133 35300" /> 
<path d="M42867 34700 A300.00 300.00 0.0 0 0 42867 35300 L42867 35000 z  " /> 
<path d="M43133 35300 A300.00 300.00 0.0 0 0 43133 34700 L43133 35000 z  " /> 
<path d="M31567 34700 L32433 34700" /> 
<path d="M32433 34700 L32433 35300" /> 
<path d="M32433 35300 L31567 35300" /> 
<path d="M31567 34700 L31567 35300" /> 
<path d="M32133 36300 L31867 36300" /> 
<path d="M32133 35700 L31867 35700" /> 
<path d="M32133 36300 A300.00 300.00 0.0 0 0 32133 35700 L32133 36000 z  " /> 
<path d="M31867 35700 A300.00 300.00 0.0 0 0 31867 36300 L31867 36000 z  " /> 
<path d="M32133 37300 L31867 37300" /> 
<path d="M32133 36700 L31867 36700" /> 
<path d="M32133 37300 A300.00 300.00 0.0 0 0 32133 36700 L32133 37000 z  " /> 
<path d="M31867 36700 A300.00 300.00 0.0 0 0 31867 37300 L31867 37000 z  " /> 
</g>
<g style="fill:#A00000; fill-opacity:0.0; stroke:#A00000; stroke-opacity:1.00; stroke-linecap:round; stroke-linejoin:round; stroke-width:60" 
   transform="translate(0.00 0.00) scale(1.00 1.00)">
<path d="M30900 38580 L31700 38580" /> 
<path d="M31700 38580 L31700 40020" /> 
<path d="M31700 40020 L30900 40020" /> 
<path d="M30900 38580 L30900 40020" /> 
<path d="M28300 39100 L29100 39100" /> 
<path d="M29100 39100 L29100 39500" /> 
<path d="M29100 39500 L28300 39500" /> 
<path d="M28300 39100 L28300 39500" /> 
<path d="M28300 40000 L29100 40000" /> 
<path d="M29100 40000 L29100 40400" /> 
<path d="M29100 40400 L28300 40400" /> 
<path d="M28300 40000 L28300 40400" /> 
<path d="M28300 38200 L29100 38200" /> 
<path d="M29100 38200 L29100 38600" /> 
<path d="M29100 38600 L28300 38600" /> 
<path d="M28300 38200 L28300 38600" /> 
<path d="M40551 41130 L40551 41642" /> 
<path d="M40551 41642 L40433 41642" /> 
<path d="M40433 41642 L40433 41130" /> 
<path d="M40551 41130 L40433 41130" /> 
<path d="M40354 41130 L40354 41642" /> 
<path d="M40354 41642 L40236 41642" /> 
<path d="M40236 41642 L40236 41130" /> 
<path d="M40354 41130 L40236 41130" /> 
<path d="M40157 41130 L40157 41642" /> 
<path d="M40157 41642 L40039 41642" /> 
<path d="M40039 41642 L40039 41130" /> 
<path d="M40157 41130 L40039 41130" /> 
<path d="M39961 41130 L39961 41642" /> 
<path d="M39961 41642 L39843 41642" /> 
<path d="M39843 41642 L39843 41130" /> 
<path d="M39961 41130 L39843 41130" /> 
<path d="M39764 41130 L39764 41642" /> 
<path d="M39764 41642 L39646 41642" /> 
<path d="M39646 41642 L39646 41130" /> 
<path d="M39764 41130 L39646 41130" /> 
<path d="M41142 41130 L41142 41642" /> 
<path d="M41142 41642 L41024 41642" /> 
<path d="M41024 41642 L41024 41130" /> 
<path d="M41142 41130 L41024 41130" /> 
<path d="M40945 41130 L40945 41642" /> 
<path d="M40945 41642 L40827 41642" /> 
<path d="M40827 41642 L40827 41130" /> 
<path d="M40945 41130 L40827 41130" /> 
<path d="M40748 41130 L40748 41642" /> 
<path d="M40748 41642 L40630 41642" /> 
<path d="M40630 41642 L40630 41130" /> 
<path d="M40748 41130 L40630 41130" /> 
<path d="M38642 41858 L38642 41976" /> 
<path d="M38642 41976 L38130 41976" /> 
<path d="M38130 41976 L38130 41858" /> 
<path d="M38642 41858 L38130 41858" /> 
<path d="M38642 42055 L38642 42173" /> 
<path d="M38642 42173 L38130 42173" /> 
<path d="M38130 42173 L38130 42055" /> 
<path d="M38642 42055 L38130 42055" /> 
<path d="M38642 42252 L38642 42370" /> 
<path d="M38642 42370 L38130 42370" /> 
<path d="M38130 42370 L38130 42252" /> 
<path d="M38642 42252 L38130 42252" /> 
<path d="M38642 42449 L38642 42567" /> 
<path d="M38642 42567 L38130 42567" /> 
<path d="M38130 42567 L38130 42449" /> 
<path d="M38642 42449 L38130 42449" /> 
<path d="M38642 42646 L38642 42764" /> 
<path d="M38642 42764 L38130 42764" /> 
<path d="M38130 42764 L38130 42646" /> 
<path d="M38642 42646 L38130 42646" /> 
<path d="M38642 42843 L38642 42961" /> 
<path d="M38642 42961 L38130 42961" /> 
<path d="M38130 42961 L38130 42843" /> 
<path d="M38642 42843 L38130 42843" /> 
<path d="M38642 43039 L38642 43157" /> 
<path d="M38642 43157 L38130 43157" /> 
<path d="M38130 43157 L38130 43039" /> 
<path d="M38642 43039 L38130 43039" /> 
<path d="M38642 43236 L38642 43354" /> 
<path d="M38642 43354 L38130 43354" /> 
<path d="M38130 43354 L38130 43236" /> 
<path d="M38642 43236 L38130 43236" /> 
<path d="M38976 44358 L38976 44870" /> 
<path d="M38976 44870 L38858 44870" /> 
<path d="M38858 44870 L38858 44358" /> 
<path d="M38976 44358 L38858 44358" /> 
<path d="M39173 44358 L39173 44870" /> 
<path d="M39173 44870 L39055 44870" /> 
<path d="M39055 44870 L39055 44358" /> 
<path d="M39173 44358 L39055 44358" /> 
<path d="M39370 44358 L39370 44870" /> 
<path d="M39370 44870 L39252 44870" /> 
<path d="M39252 44870 L39252 44358" /> 
<path d="M39370 44358 L39252 44358" /> 
<path d="M39567 44358 L39567 44870" /> 
<path d="M39567 44870 L39449 44870" /> 
<path d="M39449 44870 L39449 44358" /> 
<path d="M39567 44358 L39449 44358" /> 
<path d="M39764 44358 L39764 44870" /> 
<path d="M39764 44870 L39646 44870" /> 
<path d="M39646 44870 L39646 44358" /> 
<path d="M39764 44358 L39646 44358" /> 
<path d="M39961 44358 L39961 44870" /> 
<path d="M39961 44870 L39843 44870" /> 
<path d="M39843 44870 L39843 44358" /> 
<path d="M39961 44358 L39843 44358" /> 
<path d="M40157 44358 L40157 44870" /> 
<path d="M40157 44870 L40039 44870" /> 
<path d="M40039 44870 L40039 44358" /> 
<path d="M40157 44358 L40039 44358" /> 
<path d="M40354 44358 L40354 44870" /> 
<path d="M40354 44870 L40236 44870" /> 
<path d="M40236 44870 L40236 44358" /> 
<path d="M40354 44358 L40236 44358" /> 
<path d="M41870 44024 L41870 44142" /> 
<path d="M41870 44142 L41358 44142" /> 
<path d="M41358 44142 L41358 44024" /> 
<path d="M41870 44024 L41358 44024" /> 
<path d="M41870 43827 L41870 43945" /> 
<path d="M41870 43945 L41358 43945" /> 
<path d="M41358 43945 L41358 43827" /> 
<path d="M41870 43827 L41358 43827" /> 
<path d="M41870 43630 L41870 43748" /> 
<path d="M41870 43748 L41358 43748" /> 
<path d="M41358 43748 L41358 43630" /> 
<path d="M41870 43630 L41358 43630" /> 
<path d="M41870 43433 L41870 43551" /> 
<path d="M41870 43551 L41358 43551" /> 
<path d="M41358 43551 L41358 43433" /> 
<path d="M41870 43433 L41358 43433" /> 
<path d="M41870 43236 L41870 43354" /> 
<path d="M41870 43354 L41358 43354" /> 
<path d="M41358 43354 L41358 43236" /> 
<path d="M41870 43236 L41358 43236" /> 
<path d="M41870 43039 L41870 43157" /> 
<path d="M41870 43157 L41358 43157" /> 
<path d="M41358 43157 L41358 43039" /> 
<path d="M41870 43039 L41358 43039" /> 
<path d="M41870 42843 L41870 42961" /> 
<path d="M41870 42961 L41358 42961" /> 
<path d="M41358 42961 L41358 42843" /> 
<path d="M41870 42843 L41358 42843" /> 
<path d="M41870 42646 L41870 42764" /> 
<path d="M41870 42764 L41358 42764" /> 
<path d="M41358 42764 L41358 42646" /> 
<path d="M41870 42646 L41358 42646" /> 
<path d="M39567 41130 L39567 41642" /> 
<path d="M39567 41642 L39449 41642" /> 
<path d="M39449 41642 L39449 41130" /> 
<path d="M39567 41130 L39449 41130" /> 
<path d="M39370 41130 L39370 41642" /> 
<path d="M39370 41642 L39252 41642" /> 
<path d="M39252 41642 L39252 41130" /> 
<path d="M39370 41130 L39252 41130" /> 
<path d="M39173 41130 L39173 41642" /> 
<path d="M39173 41642 L39055 41642" /> 
<path d="M39055 41642 L39055 41130" /> 
<path d="M39173 41130 L39055 41130" /> 
<path d="M38976 41130 L38976 41642" /> 
<path d="M38976 41642 L38858 41642" /> 
<path d="M38858 41642 L38858 41130" /> 
<path d="M38976 41130 L38858 41130" /> 
<path d="M38642 43433 L38642 43551" /> 
<path d="M38642 43551 L38130 43551" /> 
<path d="M38130 43551 L38130 43433" /> 
<path d="M38642 43433 L38130 43433" /> 
<path d="M38642 43630 L38642 43748" /> 
<path d="M38642 43748 L38130 43748" /> 
<path d="M38130 43748 L38130 43630" /> 
<path d="M38642 43630 L38130 43630" /> 
<path d="M38642 43827 L38642 43945" /> 
<path d="M38642 43945 L38130 43945" /> 
<path d="M38130 43945 L38130 43827" /> 
<path d="M38642 43827 L38130 43827" /> 
<path d="M38642 44024 L38642 44142" /> 
<path d="M38642 44142 L38130 44142" /> 
<path d="M38130 44142 L38130 44024" /> 
<path d="M38642 44024 L38130 44024" /> 
<path d="M40551 44358 L40551 44870" /> 
<path d="M40551 44870 L40433 44870" /> 
<path d="M40433 44870 L40433 44358" /> 
<path d="M40551 44358 L40433 44358" /> 
<path d="M40748 44358 L40748 44870" /> 
<path d="M40748 44870 L40630 44870" /> 
<path d="M40630 44870 L40630 44358" /> 
<path d="M40748 44358 L40630 44358" /> 
<path d="M40945 44358 L40945 44870" /> 
<path d="M40945 44870 L40827 44870" /> 
<path d="M40827 44870 L40827 44358" /> 
<path d="M40945 44358 L40827 44358" /> 
<path d="M41142 44358 L41142 44870" /> 
<path d="M41142 44870 L41024 44870" /> 
<path d="M41024 44870 L41024 44358" /> 
<path d="M41142 44358 L41024 44358" /> 
<path d="M41870 42449 L41870 42567" /> 
<path d="M41870 42567 L41358 42567" /> 
<path d="M41358 42567 L41358 42449" /> 
<path d="M41870 42449 L41358 42449" /> 
<path d="M41870 42252 L41870 42370" /> 
<path d="M41870 42370 L41358 42370" /> 
<path d="M41358 42370 L41358 42252" /> 
<path d="M41870 42252 L41358 42252" /> 
<path d="M41870 42055 L41870 42173" /> 
<path d="M41870 42173 L41358 42173" /> 
<path d="M41358 42173 L41358 42055" /> 
<path d="M41870 42055 L41358 42055" /> 
<path d="M41870 41858 L41870 41976" /> 
<path d="M41870 41976 L41358 41976" /> 
<path d="M41358 41976 L41358 41858" /> 
<path d="M41870 41858 L41358 41858" /> 
<path d="M44983 32255 L44983 32845" /> 
<path d="M44983 32845 L44393 32845" /> 
<path d="M44393 32845 L44393 32255" /> 
<path d="M44983 32255 L44393 32255" /> 
<path d="M43607 32255 L43607 32845" /> 
<path d="M43607 32845 L43017 32845" /> 
<path d="M43017 32845 L43017 32255" /> 
<path d="M43607 32255 L43017 32255" /> 
</g>
<g style="fill:#808000; fill-opacity:0.0; stroke:#808000; stroke-opacity:1.00; stroke-linecap:round; stroke-linejoin:round; stroke-width:60" 
   transform="translate(0.00 0.00) scale(1.00 1.00)">
<path d="M42725 30275 L42725 29725" /> 
<path d="M42725 29725 L43275 29725" /> 
<path d="M43275 29725 L43275 30275" /> 
<path d="M42725 30275 L43275 30275" /> 
<ellipse cx="44000" cy="30000" rx="275" ry="275"  /> 
<ellipse cx="45000" cy="30000" rx="275" ry="275"  /> 
</g>
<g style="fill:#A00000; fill-opacity:0.0; stroke:#A00000; stroke-opacity:1.00; stroke-linecap:round; stroke-linejoin:round; stroke-width:60" 
   transform="translate(0.00 0.00) scale(1.00 1.00)">
<path d="M34548 39143 L34548 38357" /> 
<path d="M34548 38357 L36712 38357" /> 
<path d="M36712 38357 L36712 39143" /> 
<path d="M34548 39143 L36712 39143" /> 
<path d="M38288 39143 L38288 38357" /> 
<path d="M38288 38357 L40452 38357" /> 
<path d="M40452 38357 L40452 39143" /> 
<path d="M38288 39143 L40452 39143" /> 
<path d="M28169 29457 L29231 29457" /> 
<path d="M29231 29457 L29231 30163" /> 
<path d="M29231 30163 L28169 30163" /> 
<path d="M28169 29457 L28169 30163" /> 
<path d="M28169 30637 L29231 30637" /> 
<path d="M29231 30637 L29231 31343" /> 
<path d="M29231 31343 L28169 31343" /> 
<path d="M28169 30637 L28169 31343" /> 
<path d="M45769 29457 L46831 29457" /> 
<path d="M46831 29457 L46831 30163" /> 
<path d="M46831 30163 L45769 30163" /> 
<path d="M45769 29457 L45769 30163" /> 
<path d="M45769 30637 L46831 30637" /> 
<path d="M46831 30637 L46831 31343" /> 
<path d="M46831 31343 L45769 31343" /> 
<path d="M45769 30637 L45769 31343" /> 
<path d="M31969 45557 L33031 45557" /> 
<path d="M33031 45557 L33031 46263" /> 
<path d="M33031 46263 L31969 46263" /> 
<path d="M31969 45557 L31969 46263" /> 
<path d="M31969 46737 L33031 46737" /> 
<path d="M33031 46737 L33031 47443" /> 
<path d="M33031 47443 L31969 47443" /> 
<path d="M31969 46737 L31969 47443" /> 
<path d="M34469 46057 L35531 46057" /> 
<path d="M35531 46057 L35531 46763" /> 
<path d="M35531 46763 L34469 46763" /> 
<path d="M34469 46057 L34469 46763" /> 
<path d="M34469 47237 L35531 47237" /> 
<path d="M35531 47237 L35531 47943" /> 
<path d="M35531 47943 L34469 47943" /> 
<path d="M34469 47237 L34469 47943" /> 
<path d="M36969 46307 L38031 46307" /> 
<path d="M38031 46307 L38031 47013" /> 
<path d="M38031 47013 L36969 47013" /> 
<path d="M36969 46307 L36969 47013" /> 
<path d="M36969 47487 L38031 47487" /> 
<path d="M38031 47487 L38031 48193" /> 
<path d="M38031 48193 L36969 48193" /> 
<path d="M36969 47487 L36969 48193" /> 
<path d="M39469 46057 L40531 46057" /> 
<path d="M40531 46057 L40531 46763" /> 
<path d="M40531 46763 L39469 46763" /> 
<path d="M39469 46057 L39469 46763" /> 
<path d="M39469 47237 L40531 47237" /> 
<path d="M40531 47237 L40531 47943" /> 
<path d="M40531 47943 L39469 47943" /> 
<path d="M39469 47237 L39469 47943" /> 
<path d="M41969 45557 L43031 45557" /> 
<path d="M43031 45557 L43031 46263" /> 
<path d="M43031 46263 L41969 46263" /> 
<path d="M41969 45557 L41969 46263" /> 
<path d="M41969 46737 L43031 46737" /> 
<path d="M43031 46737 L43031 47443" /> 
<path d="M43031 47443 L41969 47443" /> 
<path d="M41969 46737 L41969 47443" /> 
<path d="M32225 38950 L32775 38950" /> 
<path d="M32775 38950 L32775 39300" /> 
<path d="M32775 39300 L32225 39300" /> 
<path d="M32225 38950 L32225 39300" /> 
<path d="M32225 39700 L32775 39700" /> 
<path d="M32775 39700 L32775 40050" /> 
<path d="M32775 40050 L32225 40050" /> 
<path d="M32225 39700 L32225 40050" /> 
<path d="M28781 41055 L28781 41645" /> 
<path d="M28781 41645 L28269 41645" /> 
<path d="M28269 41645 L28269 41055" /> 
<path d="M28781 41055 L28269 41055" /> 
<path d="M29531 41055 L29531 41645" /> 
<path d="M29531 41645 L29019 41645" /> 
<path d="M29019 41645 L29019 41055" /> 
<path d="M29531 41055 L29019 41055" /> 
<path d="M44705 40869 L45295 40869" /> 
<path d="M45295 40869 L45295 41381" /> 
<path d="M45295 41381 L44705 41381" /> 
<path d="M44705 40869 L44705 41381" /> 
<path d="M44705 40119 L45295 40119" /> 
<path d="M45295 40119 L45295 40631" /> 
<path d="M45295 40631 L44705 40631" /> 
<path d="M44705 40119 L44705 40631" /> 
<path d="M33205 35619 L33795 35619" /> 
<path d="M33795 35619 L33795 36131" /> 
<path d="M33795 36131 L33205 36131" /> 
<path d="M33205 35619 L33205 36131" /> 
<path d="M33205 34869 L33795 34869" /> 
<path d="M33795 34869 L33795 35381" /> 
<path d="M33795 35381 L33205 35381" /> 
<path d="M33205 34869 L33205 35381" /> 
<path d="M43181 41805 L43181 42395" /> 
<path d="M43181 42395 L42669 42395" /> 
<path d="M42669 42395 L42669 41805" /> 
<path d="M43181 41805 L42669 41805" /> 
<path d="M43931 41805 L43931 42395" /> 
<path d="M43931 42395 L43419 42395" /> 
<path d="M43419 42395 L43419 41805" /> 
<path d="M43931 41805 L43419 41805" /> 
<path d="M37519 40895 L37519 40305" /> 
<path d="M37519 40305 L38031 40305" /> 
<path d="M38031 40305 L38031 40895" /> 
<path d="M37519 40895 L38031 40895" /> 
<path d="M36769 40895 L36769 40305" /> 
<path d="M36769 40305 L37281 40305" /> 
<path d="M37281 40305 L37281 40895" /> 
<path d="M36769 40895 L37281 40895" /> 
<path d="M36381 36705 L36381 37295" /> 
<path d="M36381 37295 L35869 37295" /> 
<path d="M35869 37295 L35869 36705" /> 
<path d="M36381 36705 L35869 36705" /> 
<path d="M37131 36705 L37131 37295" /> 
<path d="M37131 37295 L36619 37295" /> 
<path d="M36619 37295 L36619 36705" /> 
<path d="M37131 36705 L36619 36705" /> 
<path d="M38619 37295 L38619 36705" /> 
<path d="M38619 36705 L39131 36705" /> 
<path d="M39131 36705 L39131 37295" /> 
<path d="M38619 37295 L39131 37295" /> 
<path d="M37869 37295 L37869 36705" /> 
<path d="M37869 36705 L38381 36705" /> 
<path d="M38381 36705 L38381 37295" /> 
<path d="M37869 37295 L38381 37295" /> 
<path d="M31795 44131 L31205 44131" /> 
<path d="M31205 44131 L31205 43619" /> 
<path d="M31205 43619 L31795 43619" /> 
<path d="M31795 44131 L31795 43619" /> 
<path d="M31795 44881 L31205 44881" /> 
<path d="M31205 44881 L31205 44369" /> 
<path d="M31205 44369 L31795 44369" /> 
<path d="M31795 44881 L31795 44369" /> 
<path d="M29805 41969 L30395 41969" /> 
<path d="M30395 41969 L30395 42481" /> 
<path d="M30395 42481 L29805 42481" /> 
<path d="M29805 41969 L29805 42481" /> 
<path d="M29805 41219 L30395 41219" /> 
<path d="M30395 41219 L30395 41731" /> 
<path d="M30395 41731 L29805 41731" /> 
<path d="M29805 41219 L29805 41731" /> 
<path d="M28475 31950 L29025 31950" /> 
<path d="M29025 31950 L29025 32300" /> 
<path d="M29025 32300 L28475 32300" /> 
<path d="M28475 31950 L28475 32300" /> 
<path d="M28475 32700 L29025 32700" /> 
<path d="M29025 32700 L29025 33050" /> 
<path d="M29025 33050 L28475 33050" /> 
<path d="M28475 32700 L28475 33050" /> 
<path d="M45275 42950 L44725 42950" /> 
<path d="M44725 42950 L44725 42600" /> 
<path d="M44725 42600 L45275 42600" /> 
<path d="M45275 42950 L45275 42600" /> 
<path d="M45275 42200 L44725 42200" /> 
<path d="M44725 42200 L44725 41850" /> 
<path d="M44725 41850 L45275 41850" /> 
<path d="M45275 42200 L45275 41850" /> 
<path d="M42050 36725 L42050 37275" /> 
<path d="M42050 37275 L41700 37275" /> 
<path d="M41700 37275 L41700 36725" /> 
<path d="M42050 36725 L41700 36725" /> 
<path d="M41300 36725 L41300 37275" /> 
<path d="M41300 37275 L40950 37275" /> 
<path d="M40950 37275 L40950 36725" /> 
<path d="M41300 36725 L40950 36725" /> 
<path d="M29225 43700 L29775 43700" /> 
<path d="M29775 43700 L29775 44050" /> 
<path d="M29775 44050 L29225 44050" /> 
<path d="M29225 43700 L29225 44050" /> 
<path d="M29225 44450 L29775 44450" /> 
<path d="M29775 44450 L29775 44800" /> 
<path d="M29775 44800 L29225 44800" /> 
<path d="M29225 44450 L29225 44800" /> 
<path d="M30775 44800 L30225 44800" /> 
<path d="M30225 44800 L30225 44450" /> 
<path d="M30225 44450 L30775 44450" /> 
<path d="M30775 44800 L30775 44450" /> 
<path d="M30775 44050 L30225 44050" /> 
<path d="M30225 44050 L30225 43700" /> 
<path d="M30225 43700 L30775 43700" /> 
<path d="M30775 44050 L30775 43700" /> 
<path d="M36950 33175 L36950 32625" /> 
<path d="M36950 32625 L37300 32625" /> 
<path d="M37300 32625 L37300 33175" /> 
<path d="M36950 33175 L37300 33175" /> 
<path d="M37700 33175 L37700 32625" /> 
<path d="M37700 32625 L38050 32625" /> 
<path d="M38050 32625 L38050 33175" /> 
<path d="M37700 33175 L38050 33175" /> 
<path d="M36950 32375 L36950 31825" /> 
<path d="M36950 31825 L37300 31825" /> 
<path d="M37300 31825 L37300 32375" /> 
<path d="M36950 32375 L37300 32375" /> 
<path d="M37700 32375 L37700 31825" /> 
<path d="M37700 31825 L38050 31825" /> 
<path d="M38050 31825 L38050 32375" /> 
<path d="M37700 32375 L38050 32375" /> 
<path d="M34050 36725 L34050 37275" /> 
<path d="M34050 37275 L33700 37275" /> 
<path d="M33700 37275 L33700 36725" /> 
<path d="M34050 36725 L33700 36725" /> 
<path d="M33300 36725 L33300 37275" /> 
<path d="M33300 37275 L32950 37275" /> 
<path d="M32950 37275 L32950 36725" /> 
<path d="M33300 36725 L32950 36725" /> 
<path d="M46025 31950 L46575 31950" /> 
<path d="M46575 31950 L46575 32300" /> 
<path d="M46575 32300 L46025 32300" /> 
<path d="M46025 31950 L46025 32300" /> 
<path d="M46025 32700 L46575 32700" /> 
<path d="M46575 32700 L46575 33050" /> 
<path d="M46575 33050 L46025 33050" /> 
<path d="M46025 32700 L46025 33050" /> 
<path d="M44675 30700 L45225 30700" /> 
<path d="M45225 30700 L45225 31050" /> 
<path d="M45225 31050 L44675 31050" /> 
<path d="M44675 30700 L44675 31050" /> 
<path d="M44675 31450 L45225 31450" /> 
<path d="M45225 31450 L45225 31800" /> 
<path d="M45225 31800 L44675 31800" /> 
<path d="M44675 31450 L44675 31800" /> 
<path d="M33425 46450 L33975 46450" /> 
<path d="M33975 46450 L33975 46800" /> 
<path d="M33975 46800 L33425 46800" /> 
<path d="M33425 46450 L33425 46800" /> 
<path d="M33425 47200 L33975 47200" /> 
<path d="M33975 47200 L33975 47550" /> 
<path d="M33975 47550 L33425 47550" /> 
<path d="M33425 47200 L33425 47550" /> 
<path d="M35825 46850 L36375 46850" /> 
<path d="M36375 46850 L36375 47200" /> 
<path d="M36375 47200 L35825 47200" /> 
<path d="M35825 46850 L35825 47200" /> 
<path d="M35825 47600 L36375 47600" /> 
<path d="M36375 47600 L36375 47950" /> 
<path d="M36375 47950 L35825 47950" /> 
<path d="M35825 47600 L35825 47950" /> 
<path d="M38425 46850 L38975 46850" /> 
<path d="M38975 46850 L38975 47200" /> 
<path d="M38975 47200 L38425 47200" /> 
<path d="M38425 46850 L38425 47200" /> 
<path d="M38425 47600 L38975 47600" /> 
<path d="M38975 47600 L38975 47950" /> 
<path d="M38975 47950 L38425 47950" /> 
<path d="M38425 47600 L38425 47950" /> 
<path d="M40975 46950 L41525 46950" /> 
<path d="M41525 46950 L41525 47300" /> 
<path d="M41525 47300 L40975 47300" /> 
<path d="M40975 46950 L40975 47300" /> 
<path d="M40975 47700 L41525 47700" /> 
<path d="M41525 47700 L41525 48050" /> 
<path d="M41525 48050 L40975 48050" /> 
<path d="M40975 47700 L40975 48050" /> 
<path d="M43425 47050 L43975 47050" /> 
<path d="M43975 47050 L43975 47400" /> 
<path d="M43975 47400 L43425 47400" /> 
<path d="M43425 47050 L43425 47400" /> 
<path d="M43425 47800 L43975 47800" /> 
<path d="M43975 47800 L43975 48150" /> 
<path d="M43975 48150 L43425 48150" /> 
<path d="M43425 47800 L43425 48150" /> 
<path d="M44425 46150 L44975 46150" /> 
<path d="M44975 46150 L44975 46500" /> 
<path d="M44975 46500 L44425 46500" /> 
<path d="M44425 46150 L44425 46500" /> 
<path d="M44425 46900 L44975 46900" /> 
<path d="M44975 46900 L44975 47250" /> 
<path d="M44975 47250 L44425 47250" /> 
<path d="M44425 46900 L44425 47250" /> 
<path d="M33225 43700 L33775 43700" /> 
<path d="M33775 43700 L33775 44050" /> 
<path d="M33775 44050 L33225 44050" /> 
<path d="M33225 43700 L33225 44050" /> 
<path d="M33225 44450 L33775 44450" /> 
<path d="M33775 44450 L33775 44800" /> 
<path d="M33775 44800 L33225 44800" /> 
<path d="M33225 44450 L33225 44800" /> 
<path d="M33300 42225 L33300 42775" /> 
<path d="M33300 42775 L32950 42775" /> 
<path d="M32950 42775 L32950 42225" /> 
<path d="M33300 42225 L32950 42225" /> 
<path d="M32550 42225 L32550 42775" /> 
<path d="M32550 42775 L32200 42775" /> 
<path d="M32200 42775 L32200 42225" /> 
<path d="M32550 42225 L32200 42225" /> 
<path d="M32775 44800 L32225 44800" /> 
<path d="M32225 44800 L32225 44450" /> 
<path d="M32225 44450 L32775 44450" /> 
<path d="M32775 44800 L32775 44450" /> 
<path d="M32775 44050 L32225 44050" /> 
<path d="M32225 44050 L32225 43700" /> 
<path d="M32225 43700 L32775 43700" /> 
<path d="M32775 44050 L32775 43700" /> 
<path d="M43450 33775 L43450 33225" /> 
<path d="M43450 33225 L43800 33225" /> 
<path d="M43800 33225 L43800 33775" /> 
<path d="M43450 33775 L43800 33775" /> 
<path d="M44200 33775 L44200 33225" /> 
<path d="M44200 33225 L44550 33225" /> 
<path d="M44550 33225 L44550 33775" /> 
<path d="M44200 33775 L44550 33775" /> 
<path d="M43275 31800 L42725 31800" /> 
<path d="M42725 31800 L42725 31450" /> 
<path d="M42725 31450 L43275 31450" /> 
<path d="M43275 31800 L43275 31450" /> 
<path d="M43275 31050 L42725 31050" /> 
<path d="M42725 31050 L42725 30700" /> 
<path d="M42725 30700 L43275 30700" /> 
<path d="M43275 31050 L43275 30700" /> 
<path d="M43705 31369 L44295 31369" /> 
<path d="M44295 31369 L44295 31881" /> 
<path d="M44295 31881 L43705 31881" /> 
<path d="M43705 31369 L43705 31881" /> 
<path d="M43705 30619 L44295 30619" /> 
<path d="M44295 30619 L44295 31131" /> 
<path d="M44295 31131 L43705 31131" /> 
<path d="M43705 30619 L43705 31131" /> 
</g>
<g style="fill:#808000; fill-opacity:0.0; stroke:#808000; stroke-opacity:1.00; stroke-linecap:round; stroke-linejoin:round; stroke-width:60" 
   transform="translate(0.00 0.00) scale(1.00 1.00)">
<path d="M30725 30275 L30725 29725" /> 
<path d="M30725 29725 L31275 29725" /> 
<path d="M31275 29725 L31275 30275" /> 
<path d="M30725 30275 L31275 30275" /> 
<ellipse cx="32000" cy="30000" rx="275" ry="275"  /> 
<ellipse cx="33000" cy="30000" rx="275" ry="275"  /> 
<ellipse cx="34000" cy="30000" rx="275" ry="275"  /> 
<ellipse cx="35000" cy="30000" rx="275" ry="275"  /> 
<ellipse cx="36000" cy="30000" rx="275" ry="275"  /> 
<path d="M38725 30275 L38725 29725" /> 
<path d="M38725 29725 L39275 29725" /> 
<path d="M39275 29725 L39275 30275" /> 
<path d="M38725 30275 L39275 30275" /> 
<ellipse cx="40000" cy="30000" rx="275" ry="275"  /> 
<ellipse cx="41000" cy="30000" rx="275" ry="275"  /> 
<ellipse cx="42000" cy="30000" rx="275" ry="275"  /> 
<path d="M38725 31275 L38725 30725" /> 
<path d="M38725 30725 L39275 30725" /> 
<path d="M39275 30725 L39275 31275" /> 
<path d="M38725 31275 L39275 31275" /> 
<ellipse cx="40000" cy="31000" rx="275" ry="275"  /> 
<ellipse cx="41000" cy="31000" rx="275" ry="275"  /> 
<ellipse cx="42000" cy="31000" rx="275" ry="275"  /> 
<path d="M38725 32275 L38725 31725" /> 
<path d="M38725 31725 L39275 31725" /> 
<path d="M39275 31725 L39275 32275" /> 
<path d="M38725 32275 L39275 32275" /> 
<ellipse cx="40000" cy="32000" rx="275" ry="275"  /> 
<ellipse cx="41000" cy="32000" rx="275" ry="275"  /> 
<ellipse cx="42000" cy="32000" rx="275" ry="275"  /> 
<path d="M30725 32275 L30725 31725" /> 
<path d="M30725 31725 L31275 31725" /> 
<path d="M31275 31725 L31275 32275" /> 
<path d="M30725 32275 L31275 32275" /> 
<ellipse cx="32000" cy="32000" rx="275" ry="275"  /> 
<ellipse cx="33000" cy="32000" rx="275" ry="275"  /> 
<ellipse cx="34000" cy="32000" rx="275" ry="275"  /> 
<ellipse cx="35000" cy="32000" rx="275" ry="275"  /> 
<ellipse cx="36000" cy="32000" rx="275" ry="275"  /> 
<path d="M30725 31275 L30725 30725" /> 
<path d="M30725 30725 L31275 30725" /> 
<path d="M31275 30725 L31275 31275" /> 
<path d="M30725 31275 L31275 31275" /> 
<ellipse cx="32000" cy="31000" rx="275" ry="275"  /> 
<ellipse cx="33000" cy="31000" rx="275" ry="275"  /> 
<ellipse cx="34000" cy="31000" rx="275" ry="275"  /> 
<ellipse cx="35000" cy="31000" rx="275" ry="275"  /> 
<ellipse cx="36000" cy="31000" rx="275" ry="275"  /> 
<path d="M27925 45875 L27925 45325" /> 
<path d="M27925 45325 L28475 45325" /> 
<path d="M28475 45325 L28475 45875" /> 
<path d="M27925 45875 L28475 45875" /> 
<ellipse cx="29200" cy="45600" rx="275" ry="275"  /> 
<ellipse cx="30200" cy="45600" rx="275" ry="275"  /> 
<ellipse cx="31200" cy="45600" rx="275" ry="275"  /> 
</g>
<g style="fill:#A00000; fill-opacity:0.0; stroke:#A00000; stroke-opacity:1.00; stroke-linecap:round; stroke-linejoin:round; stroke-width:60" 
   transform="translate(0.00 0.00) scale(1.00 1.00)">
<path d="M28781 41955 L28781 42545" /> 
<path d="M28781 42545 L28269 42545" /> 
<path d="M28269 42545 L28269 41955" /> 
<path d="M28781 41955 L28269 41955" /> 
<path d="M29531 41955 L29531 42545" /> 
<path d="M29531 42545 L29019 42545" /> 
<path d="M29019 42545 L29019 41955" /> 
<path d="M29531 41955 L29019 41955" /> 
<path d="M31619 41295 L31619 40705" /> 
<path d="M31619 40705 L32131 40705" /> 
<path d="M32131 40705 L32131 41295" /> 
<path d="M31619 41295 L32131 41295" /> 
<path d="M30869 41295 L30869 40705" /> 
<path d="M30869 40705 L31381 40705" /> 
<path d="M31381 40705 L31381 41295" /> 
<path d="M30869 41295 L31381 41295" /> 
<path d="M41205 35619 L41795 35619" /> 
<path d="M41795 35619 L41795 36131" /> 
<path d="M41795 36131 L41205 36131" /> 
<path d="M41205 35619 L41205 36131" /> 
<path d="M41205 34869 L41795 34869" /> 
<path d="M41795 34869 L41795 35381" /> 
<path d="M41795 35381 L41205 35381" /> 
<path d="M41205 34869 L41205 35381" /> 
</g>
<g style="fill:#808000; fill-opacity:0.0; stroke:#808000; stroke-opacity:1.00; stroke-linecap:round; stroke-linejoin:round; stroke-width:60" 
   transform="translate(0.00 0.00) scale(1.00 1.00)">
<path d="M46475 44575 L45925 44575" /> 
<path d="M45925 44575 L45925 44025" /> 
<path d="M45925 44025 L46475 44025" /> 
<path d="M46475 44575 L46475 44025" /> 
<ellipse cx="46200" cy="43300" rx="275" ry="275"  /> 
<ellipse cx="46200" cy="42300" rx="275" ry="275"  /> 
<ellipse cx="46200" cy="41300" rx="275" ry="275"  /> 
<ellipse cx="46200" cy="40300" rx="275" ry="275"  /> 
</g>
<g style="fill:#A00000; fill-opacity:0.0; stroke:#A00000; stroke-opacity:1.00; stroke-linecap:round; stroke-linejoin:round; stroke-width:60" 
   transform="translate(0.00 0.00) scale(1.00 1.00)">
<ellipse cx="41700" cy="44700" rx="295" ry="295"  /> 
<ellipse cx="34500" cy="44000" rx="295" ry="295"  /> 
<ellipse cx="35500" cy="45000" rx="295" ry="295"  /> 
<ellipse cx="40200" cy="45500" rx="295" ry="295"  /> 
<ellipse cx="37500" cy="45000" rx="295" ry="295"  /> 
<ellipse cx="35500" cy="44000" rx="295" ry="295"  /> 
<ellipse cx="34500" cy="45000" rx="295" ry="295"  /> 
<ellipse cx="43500" cy="44000" rx="295" ry="295"  /> 
<ellipse cx="44100" cy="41200" rx="295" ry="295"  /> 
<ellipse cx="36500" cy="45000" rx="295" ry="295"  /> 
<ellipse cx="44500" cy="43500" rx="295" ry="295"  /> 
<ellipse cx="43500" cy="43000" rx="295" ry="295"  /> 
</g> 
</svg> 
