<?xml version="1.0" standalone="no"?>
<!DOCTYPE svg PUBLIC "-//W3C//DTD SVG 20010904//EN" 
"http://www.w3.org/TR/2001/REC-SVG-20010904/DTD/svg10.dtd"> 
<svg xmlns="http://www.w3.org/2000/svg" xmlns:xlink="http://www.w3.org/1999/xlink" 
    width="29.72cm" height="21.00cm" viewBox="0 0 117000 82670 "> 
<title>SVG Picture created as fanbot-Comments.svg </title>
<desc>Picture generated by wxSVG v0100 </desc>
<g style="fill:black; stroke:black; stroke-width:1">
</g>
<g style="fill:#000000; fill-opacity:0.0; stroke:#00FF00; stroke-opacity:1.00; stroke-linecap:round; stroke-linejoin:round; stroke-width:150" 
   transform="translate(0.00 0.00) scale(1.00 1.00)">
<path d="M32500 47000 L42500 47000" /> 
<path d="M42500 45000 L42500 49000" /> 
<path d="M32500 45000 L32500 49000" /> 
<path d="M27500 45500 L47500 45500" /> 
<path d="M37500 29000 L37500 48500" /> 
<path d="M47300 38800 L27700 38800" /> 
</g>
<g style="fill:#000000; fill-opacity:0.0; stroke:#0000C0; stroke-opacity:1.00; stroke-linecap:round; stroke-linejoin:round; stroke-width:0" 
   transform="translate(0.00 0.00) scale(1.00 1.00)">
<path d="M53737 33900 L53741 33900" /> 
<path d="M53739 33898 L53739 33902" /> 
</g>
<g style="fill:#00FF00; fill-opacity:0.0; stroke:#00FF00; stroke-opacity:1.00; stroke-linecap:round; stroke-linejoin:round; stroke-width:120" 
   transform="translate(0.00 0.00) scale(1.00 1.00)">
<path d="M54139 31415 L54177 31444" /> 
<path d="M54177 31444 L54215 31501" /> 
<path d="M54215 31501 L54215 31644" /> 
<path d="M54215 31644 L54177 31701" /> 
<path d="M54177 31701 L54139 31730" /> 
<path d="M54139 31730 L54063 31758" /> 
<path d="M54063 31758 L53987 31758" /> 
<path d="M53987 31758 L53872 31730" /> 
<path d="M53872 31730 L53415 31387" /> 
<path d="M53415 31387 L53415 31758" /> 
<g style = "stroke-linecap:round;" > 
<path d="M53415 31758 L53415 31758" /> 
</g><path d="M53949 32272 L53415 32272" /> 
<g style = "stroke-linecap:round;" > 
<path d="M53415 32272 L53415 32272" /> 
</g><path d="M54253 32129 L53682 31986" /> 
<path d="M53682 31986 L53682 32358" /> 
<g style = "stroke-linecap:round;" > 
<path d="M53682 32358 L53682 32358" /> 
</g><path d="M53491 32586 L53453 32614" /> 
<path d="M53453 32614 L53415 32586" /> 
<path d="M53415 32586 L53453 32557" /> 
<path d="M53453 32557 L53491 32586" /> 
<path d="M53491 32586 L53415 32586" /> 
<g style = "stroke-linecap:round;" > 
<path d="M53415 32586 L53415 32586" /> 
</g><path d="M53872 32958 L53910 32900" /> 
<path d="M53910 32900 L53949 32872" /> 
<path d="M53949 32872 L54025 32843" /> 
<path d="M54025 32843 L54063 32843" /> 
<path d="M54063 32843 L54139 32872" /> 
<path d="M54139 32872 L54177 32900" /> 
<path d="M54177 32900 L54215 32958" /> 
<path d="M54215 32958 L54215 33072" /> 
<path d="M54215 33072 L54177 33129" /> 
<path d="M54177 33129 L54139 33158" /> 
<path d="M54139 33158 L54063 33186" /> 
<path d="M54063 33186 L54025 33186" /> 
<path d="M54025 33186 L53949 33158" /> 
<path d="M53949 33158 L53910 33129" /> 
<path d="M53910 33129 L53872 33072" /> 
<path d="M53872 33072 L53872 32958" /> 
<path d="M53872 32958 L53834 32900" /> 
<path d="M53834 32900 L53796 32872" /> 
<path d="M53796 32872 L53720 32843" /> 
<path d="M53720 32843 L53568 32843" /> 
<path d="M53568 32843 L53491 32872" /> 
<path d="M53491 32872 L53453 32900" /> 
<path d="M53453 32900 L53415 32958" /> 
<path d="M53415 32958 L53415 33072" /> 
<path d="M53415 33072 L53453 33129" /> 
<path d="M53453 33129 L53491 33158" /> 
<path d="M53491 33158 L53568 33186" /> 
<path d="M53568 33186 L53720 33186" /> 
<path d="M53720 33186 L53796 33158" /> 
<path d="M53796 33158 L53834 33129" /> 
<path d="M53834 33129 L53872 33072" /> 
<g style = "stroke-linecap:round;" > 
<path d="M53872 33072 L53872 33072" /> 
</g><path d="M53415 33471 L53415 33586" /> 
<path d="M53415 33586 L53453 33643" /> 
<path d="M53453 33643 L53491 33671" /> 
<path d="M53491 33671 L53606 33729" /> 
<path d="M53606 33729 L53758 33757" /> 
<path d="M53758 33757 L54063 33757" /> 
<path d="M54063 33757 L54139 33729" /> 
<path d="M54139 33729 L54177 33700" /> 
<path d="M54177 33700 L54215 33643" /> 
<path d="M54215 33643 L54215 33529" /> 
<path d="M54215 33529 L54177 33471" /> 
<path d="M54177 33471 L54139 33443" /> 
<path d="M54139 33443 L54063 33414" /> 
<path d="M54063 33414 L53872 33414" /> 
<path d="M53872 33414 L53796 33443" /> 
<path d="M53796 33443 L53758 33471" /> 
<path d="M53758 33471 L53720 33529" /> 
<path d="M53720 33529 L53720 33643" /> 
<path d="M53720 33643 L53758 33700" /> 
<path d="M53758 33700 L53796 33729" /> 
<path d="M53796 33729 L53872 33757" /> 
<g style = "stroke-linecap:round;" > 
<path d="M53872 33757 L53872 33757" /> 
</g><path d="M54139 33985 L54177 34014" /> 
<path d="M54177 34014 L54215 34071" /> 
<path d="M54215 34071 L54215 34214" /> 
<path d="M54215 34214 L54177 34271" /> 
<path d="M54177 34271 L54139 34300" /> 
<path d="M54139 34300 L54063 34328" /> 
<path d="M54063 34328 L53987 34328" /> 
<path d="M53987 34328 L53872 34300" /> 
<path d="M53872 34300 L53415 33957" /> 
<path d="M53415 33957 L53415 34328" /> 
<g style = "stroke-linecap:round;" > 
<path d="M53415 34328 L53415 34328" /> 
</g><path d="M53415 35042 L53949 35042" /> 
<g style = "stroke-linecap:round;" > 
<path d="M53949 35042 L53949 35042" /> 
</g><path d="M53872 35042 L53910 35070" /> 
<path d="M53910 35070 L53949 35128" /> 
<path d="M53949 35128 L53949 35213" /> 
<path d="M53949 35213 L53910 35270" /> 
<path d="M53910 35270 L53834 35299" /> 
<path d="M53834 35299 L53415 35299" /> 
<g style = "stroke-linecap:round;" > 
<path d="M53415 35299 L53415 35299" /> 
</g><path d="M53834 35299 L53910 35328" /> 
<path d="M53910 35328 L53949 35385" /> 
<path d="M53949 35385 L53949 35470" /> 
<path d="M53949 35470 L53910 35528" /> 
<path d="M53910 35528 L53834 35556" /> 
<path d="M53834 35556 L53415 35556" /> 
<g style = "stroke-linecap:round;" > 
<path d="M53415 35556 L53415 35556" /> 
</g><path d="M53415 35842 L53949 35842" /> 
<g style = "stroke-linecap:round;" > 
<path d="M53949 35842 L53949 35842" /> 
</g><path d="M53872 35842 L53910 35870" /> 
<path d="M53910 35870 L53949 35928" /> 
<path d="M53949 35928 L53949 36013" /> 
<path d="M53949 36013 L53910 36070" /> 
<path d="M53910 36070 L53834 36099" /> 
<path d="M53834 36099 L53415 36099" /> 
<g style = "stroke-linecap:round;" > 
<path d="M53415 36099 L53415 36099" /> 
</g><path d="M53834 36099 L53910 36128" /> 
<path d="M53910 36128 L53949 36185" /> 
<path d="M53949 36185 L53949 36270" /> 
<path d="M53949 36270 L53910 36328" /> 
<path d="M53910 36328 L53834 36356" /> 
<path d="M53834 36356 L53415 36356" /> 
<g style = "stroke-linecap:round;" > 
<path d="M53415 36356 L53415 36356" /> 
</g><path d="M53099 29000 L53099 38800" /> 
<path d="M51100 29000 L54379 29000" /> 
<path d="M51100 38800 L54379 38800" /> 
<path d="M53099 38800 L52869 38357" /> 
<path d="M53099 38800 L53329 38357" /> 
<path d="M53099 29000 L52869 29443" /> 
<path d="M53099 29000 L53329 29443" /> 
</g>
<g style="fill:#00FF00; fill-opacity:0.0; stroke:#FFFF00; stroke-opacity:1.00; stroke-linecap:round; stroke-linejoin:round; stroke-width:150" 
   transform="translate(0.00 0.00) scale(1.00 1.00)">
<path d="M27700 48600 L27700 29000" /> 
<path d="M47300 48600 L27700 48600" /> 
<path d="M47300 29000 L47300 48600" /> 
<path d="M27700 29000 L47300 29000" /> 
</g>
<g style="fill:#00FF00; fill-opacity:0.0; stroke:#0000C0; stroke-opacity:1.00; stroke-linecap:round; stroke-linejoin:round; stroke-width:0" 
   transform="translate(0.00 0.00) scale(1.00 1.00)">
<path d="M37498 25961 L37502 25961" /> 
<path d="M37500 25959 L37500 25963" /> 
</g>
<g style="fill:#00FF00; fill-opacity:0.0; stroke:#00FF00; stroke-opacity:1.00; stroke-linecap:round; stroke-linejoin:round; stroke-width:120" 
   transform="translate(0.00 0.00) scale(1.00 1.00)">
<path d="M35301 25751 L35301 26285" /> 
<g style = "stroke-linecap:round;" > 
<path d="M35301 26285 L35301 26285" /> 
</g><path d="M35158 25447 L35015 26018" /> 
<path d="M35015 26018 L35387 26018" /> 
<g style = "stroke-linecap:round;" > 
<path d="M35387 26018 L35387 26018" /> 
</g><path d="M35643 26285 L35758 26285" /> 
<path d="M35758 26285 L35815 26247" /> 
<path d="M35815 26247 L35843 26209" /> 
<path d="M35843 26209 L35901 26094" /> 
<path d="M35901 26094 L35929 25942" /> 
<path d="M35929 25942 L35929 25637" /> 
<path d="M35929 25637 L35901 25561" /> 
<path d="M35901 25561 L35872 25523" /> 
<path d="M35872 25523 L35815 25485" /> 
<path d="M35815 25485 L35701 25485" /> 
<path d="M35701 25485 L35643 25523" /> 
<path d="M35643 25523 L35615 25561" /> 
<path d="M35615 25561 L35586 25637" /> 
<path d="M35586 25637 L35586 25828" /> 
<path d="M35586 25828 L35615 25904" /> 
<path d="M35615 25904 L35643 25942" /> 
<path d="M35643 25942 L35701 25980" /> 
<path d="M35701 25980 L35815 25980" /> 
<path d="M35815 25980 L35872 25942" /> 
<path d="M35872 25942 L35901 25904" /> 
<path d="M35901 25904 L35929 25828" /> 
<g style = "stroke-linecap:round;" > 
<path d="M35929 25828 L35929 25828" /> 
</g><path d="M36186 26209 L36214 26247" /> 
<path d="M36214 26247 L36186 26285" /> 
<path d="M36186 26285 L36157 26247" /> 
<path d="M36157 26247 L36186 26209" /> 
<path d="M36186 26209 L36186 26285" /> 
<g style = "stroke-linecap:round;" > 
<path d="M36186 26285 L36186 26285" /> 
</g><path d="M36415 25485 L36815 25485" /> 
<path d="M36815 25485 L36558 26285" /> 
<g style = "stroke-linecap:round;" > 
<path d="M36558 26285 L36558 26285" /> 
</g><path d="M37129 25828 L37071 25790" /> 
<path d="M37071 25790 L37043 25751" /> 
<path d="M37043 25751 L37014 25675" /> 
<path d="M37014 25675 L37014 25637" /> 
<path d="M37014 25637 L37043 25561" /> 
<path d="M37043 25561 L37071 25523" /> 
<path d="M37071 25523 L37129 25485" /> 
<path d="M37129 25485 L37243 25485" /> 
<path d="M37243 25485 L37300 25523" /> 
<path d="M37300 25523 L37329 25561" /> 
<path d="M37329 25561 L37357 25637" /> 
<path d="M37357 25637 L37357 25675" /> 
<path d="M37357 25675 L37329 25751" /> 
<path d="M37329 25751 L37300 25790" /> 
<path d="M37300 25790 L37243 25828" /> 
<path d="M37243 25828 L37129 25828" /> 
<path d="M37129 25828 L37071 25866" /> 
<path d="M37071 25866 L37043 25904" /> 
<path d="M37043 25904 L37014 25980" /> 
<path d="M37014 25980 L37014 26132" /> 
<path d="M37014 26132 L37043 26209" /> 
<path d="M37043 26209 L37071 26247" /> 
<path d="M37071 26247 L37129 26285" /> 
<path d="M37129 26285 L37243 26285" /> 
<path d="M37243 26285 L37300 26247" /> 
<path d="M37300 26247 L37329 26209" /> 
<path d="M37329 26209 L37357 26132" /> 
<path d="M37357 26132 L37357 25980" /> 
<path d="M37357 25980 L37329 25904" /> 
<path d="M37329 25904 L37300 25866" /> 
<path d="M37300 25866 L37243 25828" /> 
<g style = "stroke-linecap:round;" > 
<path d="M37243 25828 L37243 25828" /> 
</g><path d="M37871 25751 L37871 26285" /> 
<g style = "stroke-linecap:round;" > 
<path d="M37871 26285 L37871 26285" /> 
</g><path d="M37728 25447 L37585 26018" /> 
<path d="M37585 26018 L37957 26018" /> 
<g style = "stroke-linecap:round;" > 
<path d="M37957 26018 L37957 26018" /> 
</g><path d="M38642 26285 L38642 25751" /> 
<g style = "stroke-linecap:round;" > 
<path d="M38642 25751 L38642 25751" /> 
</g><path d="M38642 25828 L38670 25790" /> 
<path d="M38670 25790 L38728 25751" /> 
<path d="M38728 25751 L38813 25751" /> 
<path d="M38813 25751 L38870 25790" /> 
<path d="M38870 25790 L38899 25866" /> 
<path d="M38899 25866 L38899 26285" /> 
<g style = "stroke-linecap:round;" > 
<path d="M38899 26285 L38899 26285" /> 
</g><path d="M38899 25866 L38928 25790" /> 
<path d="M38928 25790 L38985 25751" /> 
<path d="M38985 25751 L39070 25751" /> 
<path d="M39070 25751 L39128 25790" /> 
<path d="M39128 25790 L39156 25866" /> 
<path d="M39156 25866 L39156 26285" /> 
<g style = "stroke-linecap:round;" > 
<path d="M39156 26285 L39156 26285" /> 
</g><path d="M39442 26285 L39442 25751" /> 
<g style = "stroke-linecap:round;" > 
<path d="M39442 25751 L39442 25751" /> 
</g><path d="M39442 25828 L39470 25790" /> 
<path d="M39470 25790 L39528 25751" /> 
<path d="M39528 25751 L39613 25751" /> 
<path d="M39613 25751 L39670 25790" /> 
<path d="M39670 25790 L39699 25866" /> 
<path d="M39699 25866 L39699 26285" /> 
<g style = "stroke-linecap:round;" > 
<path d="M39699 26285 L39699 26285" /> 
</g><path d="M39699 25866 L39728 25790" /> 
<path d="M39728 25790 L39785 25751" /> 
<path d="M39785 25751 L39870 25751" /> 
<path d="M39870 25751 L39928 25790" /> 
<path d="M39928 25790 L39956 25866" /> 
<path d="M39956 25866 L39956 26285" /> 
<g style = "stroke-linecap:round;" > 
<path d="M39956 26285 L39956 26285" /> 
</g><path d="M27700 26601 L47300 26601" /> 
<path d="M27700 29000 L27700 25321" /> 
<path d="M47300 29000 L47300 25321" /> 
<path d="M47300 26601 L46857 26831" /> 
<path d="M47300 26601 L46857 26371" /> 
<path d="M27700 26601 L28143 26831" /> 
<path d="M27700 26601 L28143 26371" /> 
</g>
<g style="fill:#00FF00; fill-opacity:0.0; stroke:#0000C0; stroke-opacity:1.00; stroke-linecap:round; stroke-linejoin:round; stroke-width:0" 
   transform="translate(0.00 0.00) scale(1.00 1.00)">
<path d="M50337 38800 L50341 38800" /> 
<path d="M50339 38798 L50339 38802" /> 
</g>
<g style="fill:#00FF00; fill-opacity:0.0; stroke:#00FF00; stroke-opacity:1.00; stroke-linecap:round; stroke-linejoin:round; stroke-width:120" 
   transform="translate(0.00 0.00) scale(1.00 1.00)">
<path d="M50549 36601 L50015 36601" /> 
<g style = "stroke-linecap:round;" > 
<path d="M50015 36601 L50015 36601" /> 
</g><path d="M50853 36458 L50282 36315" /> 
<path d="M50282 36315 L50282 36687" /> 
<g style = "stroke-linecap:round;" > 
<path d="M50282 36687 L50282 36687" /> 
</g><path d="M50015 36943 L50015 37058" /> 
<path d="M50015 37058 L50053 37115" /> 
<path d="M50053 37115 L50091 37143" /> 
<path d="M50091 37143 L50206 37201" /> 
<path d="M50206 37201 L50358 37229" /> 
<path d="M50358 37229 L50663 37229" /> 
<path d="M50663 37229 L50739 37201" /> 
<path d="M50739 37201 L50777 37172" /> 
<path d="M50777 37172 L50815 37115" /> 
<path d="M50815 37115 L50815 37001" /> 
<path d="M50815 37001 L50777 36943" /> 
<path d="M50777 36943 L50739 36915" /> 
<path d="M50739 36915 L50663 36886" /> 
<path d="M50663 36886 L50472 36886" /> 
<path d="M50472 36886 L50396 36915" /> 
<path d="M50396 36915 L50358 36943" /> 
<path d="M50358 36943 L50320 37001" /> 
<path d="M50320 37001 L50320 37115" /> 
<path d="M50320 37115 L50358 37172" /> 
<path d="M50358 37172 L50396 37201" /> 
<path d="M50396 37201 L50472 37229" /> 
<g style = "stroke-linecap:round;" > 
<path d="M50472 37229 L50472 37229" /> 
</g><path d="M50091 37486 L50053 37514" /> 
<path d="M50053 37514 L50015 37486" /> 
<path d="M50015 37486 L50053 37457" /> 
<path d="M50053 37457 L50091 37486" /> 
<path d="M50091 37486 L50015 37486" /> 
<g style = "stroke-linecap:round;" > 
<path d="M50015 37486 L50015 37486" /> 
</g><path d="M50815 37715 L50815 38115" /> 
<path d="M50815 38115 L50015 37858" /> 
<g style = "stroke-linecap:round;" > 
<path d="M50015 37858 L50015 37858" /> 
</g><path d="M50472 38429 L50510 38371" /> 
<path d="M50510 38371 L50549 38343" /> 
<path d="M50549 38343 L50625 38314" /> 
<path d="M50625 38314 L50663 38314" /> 
<path d="M50663 38314 L50739 38343" /> 
<path d="M50739 38343 L50777 38371" /> 
<path d="M50777 38371 L50815 38429" /> 
<path d="M50815 38429 L50815 38543" /> 
<path d="M50815 38543 L50777 38600" /> 
<path d="M50777 38600 L50739 38629" /> 
<path d="M50739 38629 L50663 38657" /> 
<path d="M50663 38657 L50625 38657" /> 
<path d="M50625 38657 L50549 38629" /> 
<path d="M50549 38629 L50510 38600" /> 
<path d="M50510 38600 L50472 38543" /> 
<path d="M50472 38543 L50472 38429" /> 
<path d="M50472 38429 L50434 38371" /> 
<path d="M50434 38371 L50396 38343" /> 
<path d="M50396 38343 L50320 38314" /> 
<path d="M50320 38314 L50168 38314" /> 
<path d="M50168 38314 L50091 38343" /> 
<path d="M50091 38343 L50053 38371" /> 
<path d="M50053 38371 L50015 38429" /> 
<path d="M50015 38429 L50015 38543" /> 
<path d="M50015 38543 L50053 38600" /> 
<path d="M50053 38600 L50091 38629" /> 
<path d="M50091 38629 L50168 38657" /> 
<path d="M50168 38657 L50320 38657" /> 
<path d="M50320 38657 L50396 38629" /> 
<path d="M50396 38629 L50434 38600" /> 
<path d="M50434 38600 L50472 38543" /> 
<g style = "stroke-linecap:round;" > 
<path d="M50472 38543 L50472 38543" /> 
</g><path d="M50549 39171 L50015 39171" /> 
<g style = "stroke-linecap:round;" > 
<path d="M50015 39171 L50015 39171" /> 
</g><path d="M50853 39028 L50282 38885" /> 
<path d="M50282 38885 L50282 39257" /> 
<g style = "stroke-linecap:round;" > 
<path d="M50282 39257 L50282 39257" /> 
</g><path d="M50015 39942 L50549 39942" /> 
<g style = "stroke-linecap:round;" > 
<path d="M50549 39942 L50549 39942" /> 
</g><path d="M50472 39942 L50510 39970" /> 
<path d="M50510 39970 L50549 40028" /> 
<path d="M50549 40028 L50549 40113" /> 
<path d="M50549 40113 L50510 40170" /> 
<path d="M50510 40170 L50434 40199" /> 
<path d="M50434 40199 L50015 40199" /> 
<g style = "stroke-linecap:round;" > 
<path d="M50015 40199 L50015 40199" /> 
</g><path d="M50434 40199 L50510 40228" /> 
<path d="M50510 40228 L50549 40285" /> 
<path d="M50549 40285 L50549 40370" /> 
<path d="M50549 40370 L50510 40428" /> 
<path d="M50510 40428 L50434 40456" /> 
<path d="M50434 40456 L50015 40456" /> 
<g style = "stroke-linecap:round;" > 
<path d="M50015 40456 L50015 40456" /> 
</g><path d="M50015 40742 L50549 40742" /> 
<g style = "stroke-linecap:round;" > 
<path d="M50549 40742 L50549 40742" /> 
</g><path d="M50472 40742 L50510 40770" /> 
<path d="M50510 40770 L50549 40828" /> 
<path d="M50549 40828 L50549 40913" /> 
<path d="M50549 40913 L50510 40970" /> 
<path d="M50510 40970 L50434 40999" /> 
<path d="M50434 40999 L50015 40999" /> 
<g style = "stroke-linecap:round;" > 
<path d="M50015 40999 L50015 40999" /> 
</g><path d="M50434 40999 L50510 41028" /> 
<path d="M50510 41028 L50549 41085" /> 
<path d="M50549 41085 L50549 41170" /> 
<path d="M50549 41170 L50510 41228" /> 
<path d="M50510 41228 L50434 41256" /> 
<path d="M50434 41256 L50015 41256" /> 
<g style = "stroke-linecap:round;" > 
<path d="M50015 41256 L50015 41256" /> 
</g><path d="M49699 29000 L49699 48600" /> 
<path d="M47500 29000 L50979 29000" /> 
<path d="M47500 48600 L50979 48600" /> 
<path d="M49699 48600 L49469 48157" /> 
<path d="M49699 48600 L49929 48157" /> 
<path d="M49699 29000 L49469 29443" /> 
<path d="M49699 29000 L49929 29443" /> 
</g> 
</svg> 
