G04 (created by PCBNEW-RS274X (2012-01-19 BZR 3256)-stable) date 4/1/2013 11:25:46 AM*
G01*
G70*
G90*
%MOIN*%
G04 Gerber Fmt 3.4, Leading zero omitted, Abs format*
%FSLAX34Y34*%
G04 APERTURE LIST*
%ADD10C,0.006000*%
%ADD11C,0.015000*%
%ADD12R,0.046200X0.074700*%
%ADD13R,0.093500X0.074700*%
%ADD14R,0.058000X0.082700*%
%ADD15R,0.017700X0.054300*%
%ADD16R,0.145700X0.066900*%
%ADD17R,0.086600X0.060000*%
%ADD18O,0.086600X0.060000*%
%ADD19R,0.080000X0.144000*%
%ADD20R,0.080000X0.040000*%
%ADD21R,0.011800X0.051200*%
%ADD22R,0.051200X0.011800*%
%ADD23R,0.059000X0.059000*%
%ADD24R,0.055000X0.055000*%
%ADD25C,0.055000*%
%ADD26R,0.216500X0.078700*%
%ADD27R,0.106200X0.070700*%
%ADD28R,0.055000X0.035000*%
%ADD29R,0.051200X0.059000*%
%ADD30R,0.059000X0.051200*%
%ADD31R,0.035000X0.055000*%
%ADD32C,0.059100*%
%ADD33C,0.137800*%
%ADD34C,0.035000*%
%ADD35C,0.009800*%
%ADD36C,0.027600*%
%ADD37C,0.011800*%
%ADD38C,0.015700*%
%ADD39C,0.008000*%
%ADD40C,0.013800*%
%ADD41C,0.010000*%
G04 APERTURE END LIST*
G54D10*
G54D11*
X27700Y-48600D02*
X27700Y-29000D01*
X47300Y-48600D02*
X27700Y-48600D01*
X47300Y-29000D02*
X47300Y-48600D01*
X27700Y-29000D02*
X47300Y-29000D01*
G54D12*
X29670Y-48000D03*
X30330Y-48000D03*
G54D13*
X31147Y-48000D03*
X28853Y-48000D03*
G54D14*
X30969Y-47095D03*
X29031Y-47095D03*
G54D15*
X29488Y-46953D03*
X29744Y-46953D03*
X30000Y-46953D03*
X30256Y-46953D03*
X30512Y-46953D03*
G54D16*
X46500Y-48061D03*
X46500Y-45739D03*
G54D17*
X43000Y-37000D03*
G54D18*
X43000Y-36000D03*
X43000Y-35000D03*
G54D17*
X32000Y-35000D03*
G54D18*
X32000Y-36000D03*
X32000Y-37000D03*
G54D19*
X31300Y-39300D03*
G54D20*
X28700Y-39300D03*
X28700Y-40200D03*
X28700Y-38400D03*
G54D21*
X40492Y-41386D03*
X40295Y-41386D03*
X40098Y-41386D03*
X39902Y-41386D03*
X39705Y-41386D03*
X41083Y-41386D03*
X40886Y-41386D03*
X40689Y-41386D03*
G54D22*
X38386Y-41917D03*
X38386Y-42114D03*
X38386Y-42311D03*
X38386Y-42508D03*
X38386Y-42705D03*
X38386Y-42902D03*
X38386Y-43098D03*
X38386Y-43295D03*
G54D21*
X38917Y-44614D03*
X39114Y-44614D03*
X39311Y-44614D03*
X39508Y-44614D03*
X39705Y-44614D03*
X39902Y-44614D03*
X40098Y-44614D03*
X40295Y-44614D03*
G54D22*
X41614Y-44083D03*
X41614Y-43886D03*
X41614Y-43689D03*
X41614Y-43492D03*
X41614Y-43295D03*
X41614Y-43098D03*
X41614Y-42902D03*
X41614Y-42705D03*
G54D21*
X39508Y-41386D03*
X39311Y-41386D03*
X39114Y-41386D03*
X38917Y-41386D03*
G54D22*
X38386Y-43492D03*
X38386Y-43689D03*
X38386Y-43886D03*
X38386Y-44083D03*
G54D21*
X40492Y-44614D03*
X40689Y-44614D03*
X40886Y-44614D03*
X41083Y-44614D03*
G54D22*
X41614Y-42508D03*
X41614Y-42311D03*
X41614Y-42114D03*
X41614Y-41917D03*
G54D23*
X44688Y-32550D03*
X43312Y-32550D03*
G54D24*
X43000Y-30000D03*
G54D25*
X44000Y-30000D03*
X45000Y-30000D03*
G54D26*
X35630Y-38750D03*
X39370Y-38750D03*
G54D27*
X28700Y-29810D03*
X28700Y-30990D03*
X46300Y-29810D03*
X46300Y-30990D03*
X32500Y-45910D03*
X32500Y-47090D03*
X35000Y-46410D03*
X35000Y-47590D03*
X37500Y-46660D03*
X37500Y-47840D03*
X40000Y-46410D03*
X40000Y-47590D03*
X42500Y-45910D03*
X42500Y-47090D03*
G54D28*
X32500Y-39125D03*
X32500Y-39875D03*
G54D29*
X28525Y-41350D03*
X29275Y-41350D03*
G54D30*
X45000Y-41125D03*
X45000Y-40375D03*
X33500Y-35875D03*
X33500Y-35125D03*
G54D29*
X42925Y-42100D03*
X43675Y-42100D03*
X37775Y-40600D03*
X37025Y-40600D03*
X36125Y-37000D03*
X36875Y-37000D03*
X38875Y-37000D03*
X38125Y-37000D03*
G54D30*
X31500Y-43875D03*
X31500Y-44625D03*
X30100Y-42225D03*
X30100Y-41475D03*
G54D28*
X28750Y-32125D03*
X28750Y-32875D03*
X45000Y-42775D03*
X45000Y-42025D03*
G54D31*
X41875Y-37000D03*
X41125Y-37000D03*
G54D28*
X29500Y-43875D03*
X29500Y-44625D03*
X30500Y-44625D03*
X30500Y-43875D03*
G54D31*
X37125Y-32900D03*
X37875Y-32900D03*
X37125Y-32100D03*
X37875Y-32100D03*
X33875Y-37000D03*
X33125Y-37000D03*
G54D28*
X46300Y-32125D03*
X46300Y-32875D03*
X44950Y-30875D03*
X44950Y-31625D03*
X33700Y-46625D03*
X33700Y-47375D03*
X36100Y-47025D03*
X36100Y-47775D03*
X38700Y-47025D03*
X38700Y-47775D03*
X41250Y-47125D03*
X41250Y-47875D03*
X43700Y-47225D03*
X43700Y-47975D03*
X44700Y-46325D03*
X44700Y-47075D03*
X33500Y-43875D03*
X33500Y-44625D03*
G54D31*
X33125Y-42500D03*
X32375Y-42500D03*
G54D28*
X32500Y-44625D03*
X32500Y-43875D03*
G54D31*
X43625Y-33500D03*
X44375Y-33500D03*
G54D28*
X43000Y-31625D03*
X43000Y-30875D03*
G54D30*
X44000Y-31625D03*
X44000Y-30875D03*
G54D24*
X31000Y-30000D03*
G54D25*
X32000Y-30000D03*
X33000Y-30000D03*
X34000Y-30000D03*
X35000Y-30000D03*
X36000Y-30000D03*
G54D24*
X39000Y-30000D03*
G54D25*
X40000Y-30000D03*
X41000Y-30000D03*
X42000Y-30000D03*
G54D24*
X39000Y-31000D03*
G54D25*
X40000Y-31000D03*
X41000Y-31000D03*
X42000Y-31000D03*
G54D24*
X39000Y-32000D03*
G54D25*
X40000Y-32000D03*
X41000Y-32000D03*
X42000Y-32000D03*
G54D24*
X31000Y-32000D03*
G54D25*
X32000Y-32000D03*
X33000Y-32000D03*
X34000Y-32000D03*
X35000Y-32000D03*
X36000Y-32000D03*
G54D24*
X31000Y-31000D03*
G54D25*
X32000Y-31000D03*
X33000Y-31000D03*
X34000Y-31000D03*
X35000Y-31000D03*
X36000Y-31000D03*
G54D24*
X28200Y-45600D03*
G54D25*
X29200Y-45600D03*
X30200Y-45600D03*
X31200Y-45600D03*
G54D29*
X28525Y-42250D03*
X29275Y-42250D03*
X31875Y-41000D03*
X31125Y-41000D03*
G54D30*
X41500Y-35875D03*
X41500Y-35125D03*
G54D24*
X46200Y-44300D03*
G54D25*
X46200Y-43300D03*
X46200Y-42300D03*
X46200Y-41300D03*
X46200Y-40300D03*
G54D32*
X41700Y-44700D03*
X34500Y-44000D03*
X35500Y-45000D03*
X40200Y-45500D03*
X37500Y-45000D03*
X35500Y-44000D03*
X34500Y-45000D03*
X43500Y-44000D03*
X44100Y-41200D03*
X36500Y-45000D03*
X44500Y-43500D03*
X43500Y-43000D03*
G54D33*
X37500Y-30500D03*
G54D34*
X33100Y-41800D03*
X32900Y-45200D03*
X43200Y-39600D03*
X45400Y-39700D03*
X29800Y-40000D03*
X40000Y-43900D03*
X39900Y-43400D03*
X35500Y-41275D03*
X35225Y-40925D03*
X40400Y-42050D03*
X41650Y-32550D03*
X40900Y-43400D03*
X45000Y-33250D03*
X44900Y-45000D03*
X40600Y-40600D03*
X35000Y-45450D03*
X41400Y-45700D03*
X41800Y-40200D03*
X35700Y-42400D03*
X39100Y-42300D03*
X36800Y-42500D03*
X46600Y-38000D03*
X44700Y-38000D03*
X43900Y-38700D03*
X45700Y-38700D03*
X36400Y-42700D03*
X43900Y-45000D03*
X39400Y-43900D03*
X33650Y-42750D03*
X33500Y-45250D03*
X34650Y-42750D03*
X32500Y-40500D03*
X28750Y-33750D03*
X30500Y-40000D03*
X40500Y-40100D03*
X44300Y-42100D03*
X37550Y-34950D03*
X37500Y-37750D03*
X36400Y-40100D03*
X33750Y-48000D03*
X44000Y-32750D03*
X42800Y-43500D03*
X46300Y-33750D03*
X45300Y-47600D03*
G54D35*
X39705Y-41386D02*
X39705Y-40505D01*
G54D36*
X46200Y-44300D02*
X46800Y-43700D01*
G54D35*
X41614Y-42705D02*
X42200Y-42705D01*
G54D36*
X46800Y-39700D02*
X45400Y-39700D01*
G54D35*
X40405Y-42705D02*
X41614Y-42705D01*
X42203Y-42705D02*
X42808Y-42100D01*
G54D37*
X39705Y-42005D02*
X40405Y-42705D01*
G54D35*
X39705Y-41386D02*
X39705Y-42005D01*
G54D36*
X46800Y-43700D02*
X46800Y-39700D01*
G54D35*
X39705Y-40505D02*
X39350Y-40150D01*
X42200Y-42705D02*
X42203Y-42705D01*
X42808Y-42100D02*
X42925Y-42100D01*
G54D38*
X29488Y-46953D02*
X29488Y-46488D01*
G54D36*
X28525Y-40875D02*
X28525Y-41350D01*
X40875Y-35875D02*
X41500Y-35875D01*
X32125Y-35875D02*
X32000Y-36000D01*
X34500Y-35500D02*
X40500Y-35500D01*
X28525Y-41350D02*
X28525Y-42250D01*
X28525Y-42250D02*
X28525Y-45275D01*
X28900Y-46400D02*
X29400Y-46400D01*
X42875Y-35875D02*
X43000Y-36000D01*
X28700Y-40200D02*
X28900Y-40000D01*
X41500Y-35875D02*
X42875Y-35875D01*
X29800Y-40000D02*
X28900Y-40000D01*
X28525Y-45275D02*
X28200Y-45600D01*
X34125Y-35875D02*
X34500Y-35500D01*
X40500Y-35500D02*
X40875Y-35875D01*
X28200Y-45700D02*
X28900Y-46400D01*
X33500Y-35875D02*
X34125Y-35875D01*
G54D38*
X29488Y-46488D02*
X29400Y-46400D01*
G54D36*
X28200Y-45700D02*
X28200Y-45600D01*
X33500Y-35875D02*
X32125Y-35875D01*
X28700Y-40200D02*
X28700Y-40700D01*
X28700Y-40700D02*
X28525Y-40875D01*
G54D35*
X40295Y-44195D02*
X40295Y-44614D01*
G54D37*
X40000Y-43900D02*
X40295Y-44195D01*
G54D35*
X40400Y-43800D02*
X40400Y-44000D01*
X40492Y-44092D02*
X40492Y-44208D01*
X40492Y-44614D02*
X40492Y-44208D01*
X40100Y-43600D02*
X40200Y-43600D01*
X40200Y-43600D02*
X40400Y-43800D01*
X40400Y-44000D02*
X40492Y-44092D01*
X39900Y-43400D02*
X40100Y-43600D01*
X39311Y-41386D02*
X39311Y-40957D01*
X38471Y-41250D02*
X38471Y-40975D01*
X35800Y-41342D02*
X35792Y-41342D01*
X38725Y-40721D02*
X39075Y-40721D01*
X38471Y-40975D02*
X38725Y-40721D01*
X39075Y-40721D02*
X39311Y-40957D01*
X38379Y-41342D02*
X38471Y-41250D01*
X35800Y-41342D02*
X38379Y-41342D01*
X35567Y-41342D02*
X35500Y-41275D01*
X35792Y-41342D02*
X35567Y-41342D01*
X35875Y-41163D02*
X36213Y-41163D01*
X39508Y-40858D02*
X39192Y-40542D01*
X35662Y-40950D02*
X35875Y-41163D01*
X35250Y-40950D02*
X35662Y-40950D01*
X38200Y-41163D02*
X36213Y-41163D01*
X39508Y-40858D02*
X39508Y-41386D01*
X38292Y-41071D02*
X38200Y-41163D01*
X38292Y-40900D02*
X38292Y-41071D01*
X39192Y-40542D02*
X38650Y-40542D01*
X38650Y-40542D02*
X38292Y-40900D01*
X35225Y-40925D02*
X35250Y-40950D01*
X40400Y-42050D02*
X40533Y-41917D01*
G54D37*
X43000Y-30875D02*
X42875Y-30875D01*
X42500Y-32200D02*
X42150Y-32550D01*
X42875Y-30875D02*
X42500Y-31250D01*
G54D35*
X40533Y-41917D02*
X41614Y-41917D01*
G54D37*
X43000Y-30000D02*
X43000Y-30875D01*
X42150Y-32550D02*
X41650Y-32550D01*
X42500Y-31250D02*
X42500Y-32200D01*
G54D35*
X44688Y-32550D02*
X44800Y-32550D01*
X41083Y-43583D02*
X41083Y-44614D01*
X41083Y-43583D02*
X40900Y-43400D01*
X45000Y-33250D02*
X45000Y-32750D01*
X45000Y-32750D02*
X44800Y-32550D01*
X40492Y-40708D02*
X40600Y-40600D01*
X40492Y-41386D02*
X40492Y-40708D01*
X45639Y-45739D02*
X44900Y-45000D01*
X46500Y-45739D02*
X45639Y-45739D01*
G54D37*
X46500Y-45739D02*
X46500Y-46700D01*
X46125Y-47075D02*
X44700Y-47075D01*
X46500Y-46700D02*
X46125Y-47075D01*
G54D35*
X41154Y-40800D02*
X41200Y-40800D01*
X40886Y-41068D02*
X41154Y-40800D01*
G54D37*
X28700Y-29810D02*
X28877Y-29810D01*
G54D35*
X45400Y-38200D02*
X45400Y-30700D01*
G54D39*
X45400Y-30700D02*
X45400Y-29800D01*
G54D35*
X45100Y-29500D02*
X29187Y-29500D01*
X45400Y-29800D02*
X45100Y-29500D01*
G54D37*
X28877Y-29810D02*
X29187Y-29500D01*
G54D35*
X41200Y-40800D02*
X42800Y-40800D01*
X42800Y-40800D02*
X45400Y-38200D01*
X40886Y-41386D02*
X40886Y-41068D01*
G54D37*
X46300Y-34700D02*
X45789Y-34700D01*
G54D35*
X41083Y-41217D02*
X41083Y-41386D01*
G54D37*
X47000Y-30400D02*
X47000Y-34000D01*
X45600Y-34889D02*
X45600Y-38300D01*
G54D35*
X41083Y-41217D02*
X41300Y-41000D01*
X42900Y-41000D02*
X45600Y-38300D01*
G54D37*
X46410Y-29810D02*
X47000Y-30400D01*
X45789Y-34700D02*
X45600Y-34889D01*
X46300Y-29810D02*
X46410Y-29810D01*
X47000Y-34000D02*
X46300Y-34700D01*
G54D35*
X41300Y-41000D02*
X42900Y-41000D01*
X37868Y-45632D02*
X39146Y-45632D01*
X39146Y-45632D02*
X39311Y-45467D01*
X36700Y-45800D02*
X37700Y-45800D01*
X36700Y-45800D02*
X32610Y-45800D01*
X37700Y-45800D02*
X37868Y-45632D01*
X39311Y-45467D02*
X39311Y-45189D01*
X32610Y-45800D02*
X32500Y-45910D01*
X39311Y-44614D02*
X39311Y-45189D01*
X36900Y-46000D02*
X37800Y-46000D01*
X39221Y-45811D02*
X39508Y-45524D01*
X35410Y-46000D02*
X35000Y-46410D01*
X35410Y-46000D02*
X35000Y-46410D01*
X39508Y-44614D02*
X39508Y-45392D01*
X39508Y-45524D02*
X39508Y-45392D01*
X36900Y-46000D02*
X35410Y-46000D01*
X37989Y-45811D02*
X39221Y-45811D01*
X37800Y-46000D02*
X37989Y-45811D01*
X39902Y-44614D02*
X39902Y-45085D01*
X39300Y-46000D02*
X38160Y-46000D01*
X39902Y-45085D02*
X39700Y-45287D01*
X39700Y-45600D02*
X39300Y-46000D01*
X39700Y-45287D02*
X39700Y-45600D01*
X38160Y-46000D02*
X37500Y-46660D01*
X40689Y-45811D02*
X40090Y-46410D01*
X40689Y-44614D02*
X40689Y-45811D01*
X40090Y-46410D02*
X40000Y-46410D01*
X41250Y-46250D02*
X42160Y-46250D01*
X42160Y-46250D02*
X42500Y-45910D01*
X40886Y-44614D02*
X40886Y-45886D01*
X40886Y-45886D02*
X41250Y-46250D01*
X39114Y-44614D02*
X39114Y-45286D01*
X38947Y-45453D02*
X39114Y-45286D01*
X35150Y-45600D02*
X37600Y-45600D01*
X37747Y-45453D02*
X38947Y-45453D01*
X37600Y-45600D02*
X37747Y-45453D01*
X35000Y-45450D02*
X35150Y-45600D01*
X42061Y-43886D02*
X42200Y-44025D01*
X42200Y-44025D02*
X42200Y-44900D01*
X42061Y-43886D02*
X41614Y-43886D01*
X42200Y-44900D02*
X41400Y-45700D01*
G54D37*
X45000Y-41125D02*
X46025Y-41125D01*
G54D35*
X40689Y-41386D02*
X40689Y-41011D01*
X40689Y-41011D02*
X41500Y-40200D01*
X45000Y-41125D02*
X45000Y-42025D01*
X41500Y-40200D02*
X41800Y-40200D01*
G54D37*
X46025Y-41125D02*
X46200Y-41300D01*
G54D35*
X35125Y-42221D02*
X34425Y-42221D01*
X39114Y-41386D02*
X39114Y-41014D01*
X34246Y-42400D02*
X33225Y-42400D01*
X38650Y-41471D02*
X38600Y-41521D01*
X38650Y-41050D02*
X38650Y-41471D01*
X38600Y-41521D02*
X35825Y-41521D01*
X38800Y-40900D02*
X38650Y-41050D01*
X35825Y-41521D02*
X35125Y-42221D01*
X33225Y-42400D02*
X33125Y-42500D01*
X34425Y-42221D02*
X34246Y-42400D01*
X39114Y-41014D02*
X39000Y-40900D01*
X39000Y-40900D02*
X38800Y-40900D01*
X36183Y-41917D02*
X35700Y-42400D01*
X38386Y-41917D02*
X36183Y-41917D01*
G54D37*
X36100Y-32100D02*
X36000Y-32000D01*
G54D35*
X39089Y-42311D02*
X39100Y-42300D01*
G54D37*
X37125Y-32100D02*
X36100Y-32100D01*
G54D35*
X39089Y-42311D02*
X38386Y-42311D01*
X36808Y-42508D02*
X36800Y-42500D01*
G54D37*
X37125Y-32900D02*
X35000Y-32900D01*
X35000Y-32900D02*
X35000Y-32000D01*
G54D35*
X38386Y-42508D02*
X36808Y-42508D01*
X36808Y-42508D02*
X36800Y-42500D01*
X42300Y-42100D02*
X42089Y-42311D01*
X42300Y-41479D02*
X42300Y-42100D01*
G54D37*
X41100Y-37025D02*
X41125Y-37000D01*
G54D35*
X43100Y-41400D02*
X42379Y-41400D01*
X45400Y-39100D02*
X43100Y-41400D01*
G54D37*
X41501Y-38000D02*
X41100Y-37599D01*
X41100Y-37599D02*
X41100Y-37025D01*
X42500Y-38000D02*
X41501Y-38000D01*
G54D35*
X45800Y-39100D02*
X45400Y-39100D01*
X44700Y-38000D02*
X42500Y-38000D01*
X41614Y-42311D02*
X42089Y-42311D01*
X46100Y-38600D02*
X46100Y-38800D01*
X46600Y-38100D02*
X46100Y-38600D01*
X46600Y-38000D02*
X46600Y-38100D01*
X46100Y-38800D02*
X45800Y-39100D01*
X42379Y-41400D02*
X42300Y-41479D01*
X43850Y-38750D02*
X43900Y-38700D01*
X45700Y-38700D02*
X45500Y-38700D01*
X42100Y-42000D02*
X41986Y-42114D01*
G54D37*
X40384Y-35778D02*
X40700Y-36094D01*
G54D35*
X42221Y-41200D02*
X42100Y-41321D01*
X41986Y-42114D02*
X41614Y-42114D01*
X43000Y-41200D02*
X42221Y-41200D01*
G54D37*
X43400Y-38200D02*
X43900Y-38700D01*
X33875Y-37000D02*
X33875Y-36625D01*
X40700Y-37500D02*
X41400Y-38200D01*
X34722Y-35778D02*
X40384Y-35778D01*
G54D35*
X42100Y-41321D02*
X42100Y-42000D01*
G54D37*
X33875Y-36625D02*
X34722Y-35778D01*
X41400Y-38200D02*
X43400Y-38200D01*
X40700Y-36094D02*
X40700Y-37500D01*
G54D35*
X45500Y-38700D02*
X43000Y-41200D01*
X37502Y-42902D02*
X36602Y-42902D01*
X36602Y-42902D02*
X36400Y-42700D01*
X38386Y-42902D02*
X37502Y-42902D01*
X43900Y-45000D02*
X44500Y-44400D01*
X44500Y-44400D02*
X44600Y-44400D01*
X39705Y-44205D02*
X39705Y-44614D01*
X44600Y-44400D02*
X45700Y-43300D01*
X46200Y-43300D02*
X45700Y-43300D01*
X39705Y-44205D02*
X39400Y-43900D01*
X42239Y-43689D02*
X42239Y-43739D01*
X43800Y-44500D02*
X44100Y-44200D01*
X43000Y-44500D02*
X43800Y-44500D01*
X42239Y-43739D02*
X43000Y-44500D01*
X46200Y-42500D02*
X46200Y-42300D01*
X44100Y-44200D02*
X44500Y-44200D01*
X41614Y-43689D02*
X42239Y-43689D01*
X44500Y-44200D02*
X46200Y-42500D01*
X43000Y-43098D02*
X42998Y-43098D01*
X41614Y-43098D02*
X43000Y-43098D01*
X43000Y-43098D02*
X43000Y-43200D01*
X43300Y-43500D02*
X44500Y-43500D01*
X43000Y-43200D02*
X43300Y-43500D01*
X42392Y-43592D02*
X42800Y-44000D01*
X41614Y-43492D02*
X42392Y-43492D01*
X42800Y-44000D02*
X43500Y-44000D01*
X42392Y-43492D02*
X42392Y-43592D01*
X42146Y-42508D02*
X42479Y-42175D01*
X43554Y-41200D02*
X43154Y-41600D01*
X43154Y-41600D02*
X42600Y-41600D01*
X42600Y-41600D02*
X42479Y-41721D01*
X42479Y-41721D02*
X42500Y-41700D01*
X41614Y-42508D02*
X42146Y-42508D01*
X42479Y-42175D02*
X42479Y-41721D01*
X44100Y-41200D02*
X43554Y-41200D01*
X38600Y-44400D02*
X37800Y-44400D01*
X37400Y-44400D02*
X36800Y-45000D01*
X39000Y-44000D02*
X39000Y-42800D01*
X39000Y-42800D02*
X38905Y-42705D01*
X39000Y-44000D02*
X38600Y-44400D01*
X38386Y-42705D02*
X38905Y-42705D01*
X37800Y-44400D02*
X37400Y-44400D01*
X36800Y-45000D02*
X36500Y-45000D01*
X41614Y-42902D02*
X43402Y-42902D01*
X43402Y-42902D02*
X43500Y-43000D01*
G54D39*
X41614Y-44614D02*
X41700Y-44700D01*
X41614Y-44083D02*
X41614Y-44614D01*
G54D35*
X38386Y-43492D02*
X35408Y-43492D01*
X35008Y-43492D02*
X34500Y-44000D01*
X35408Y-43492D02*
X35008Y-43492D01*
X36900Y-44500D02*
X36000Y-44500D01*
X37317Y-44083D02*
X36900Y-44500D01*
X36000Y-44500D02*
X35500Y-45000D01*
X38386Y-44083D02*
X37617Y-44083D01*
X37617Y-44083D02*
X37317Y-44083D01*
X40098Y-44614D02*
X40098Y-45398D01*
X40098Y-45398D02*
X40200Y-45500D01*
X38500Y-45000D02*
X38900Y-45000D01*
X38900Y-45000D02*
X38917Y-44983D01*
X37500Y-45000D02*
X38500Y-45000D01*
X38917Y-44983D02*
X38917Y-44614D01*
X36011Y-43689D02*
X35811Y-43689D01*
X38386Y-43689D02*
X36011Y-43689D01*
X35811Y-43689D02*
X35500Y-44000D01*
X37114Y-43886D02*
X36314Y-43886D01*
X36314Y-43886D02*
X35700Y-44500D01*
X38386Y-43886D02*
X37114Y-43886D01*
X35000Y-44500D02*
X34500Y-45000D01*
X35700Y-44500D02*
X35000Y-44500D01*
X38900Y-41700D02*
X38917Y-41683D01*
X33500Y-44625D02*
X33500Y-45250D01*
X35200Y-42400D02*
X34500Y-42400D01*
X33700Y-42800D02*
X33650Y-42750D01*
X36000Y-41700D02*
X38900Y-41700D01*
X36000Y-41700D02*
X35900Y-41700D01*
X35900Y-41700D02*
X35200Y-42400D01*
X38917Y-41683D02*
X38917Y-41386D01*
X34100Y-42800D02*
X33700Y-42800D01*
X34500Y-42400D02*
X34100Y-42800D01*
G54D38*
X29744Y-46144D02*
X29700Y-46100D01*
G54D36*
X29700Y-46100D02*
X29200Y-45600D01*
X29500Y-44625D02*
X29500Y-45300D01*
X29500Y-45300D02*
X29200Y-45600D01*
G54D38*
X29744Y-46953D02*
X29744Y-46144D01*
G54D36*
X30500Y-44625D02*
X30500Y-45300D01*
G54D38*
X30000Y-46953D02*
X30000Y-46300D01*
X30000Y-46300D02*
X30200Y-46100D01*
G54D36*
X30500Y-45300D02*
X30200Y-45600D01*
X30200Y-46100D02*
X30200Y-45600D01*
G54D35*
X34819Y-42919D02*
X35900Y-42919D01*
X32500Y-39875D02*
X32500Y-40500D01*
X36000Y-42819D02*
X35900Y-42919D01*
X36386Y-42114D02*
X38386Y-42114D01*
X36000Y-42500D02*
X36000Y-42819D01*
X34650Y-42750D02*
X34819Y-42919D01*
X36386Y-42114D02*
X36000Y-42500D01*
G54D36*
X41500Y-35125D02*
X42875Y-35125D01*
X37550Y-35125D02*
X37550Y-34950D01*
G54D35*
X42800Y-43400D02*
X42800Y-43500D01*
G54D36*
X42875Y-35125D02*
X43000Y-35000D01*
X31500Y-44700D02*
X31200Y-45000D01*
G54D40*
X28750Y-32875D02*
X28750Y-33750D01*
G54D37*
X44375Y-33375D02*
X44000Y-33000D01*
G54D36*
X30100Y-41475D02*
X29400Y-41475D01*
G54D35*
X42695Y-43295D02*
X42800Y-43400D01*
G54D38*
X30512Y-46388D02*
X30500Y-46400D01*
G54D36*
X30500Y-40000D02*
X30500Y-41075D01*
G54D35*
X41025Y-48100D02*
X41250Y-47875D01*
X34100Y-48000D02*
X34250Y-48150D01*
G54D36*
X32125Y-35125D02*
X32000Y-35000D01*
X30500Y-38500D02*
X30500Y-40000D01*
G54D37*
X37025Y-40600D02*
X36900Y-40600D01*
G54D35*
X34250Y-48150D02*
X35725Y-48150D01*
G54D36*
X30500Y-46400D02*
X30600Y-46300D01*
G54D35*
X38875Y-47775D02*
X39200Y-48100D01*
G54D36*
X30500Y-41000D02*
X30500Y-41075D01*
G54D37*
X44000Y-30000D02*
X44000Y-30875D01*
G54D36*
X37500Y-37000D02*
X36875Y-37000D01*
X38125Y-37000D02*
X37500Y-37000D01*
G54D37*
X41250Y-47875D02*
X41125Y-47875D01*
G54D35*
X41614Y-43295D02*
X42695Y-43295D01*
G54D36*
X30500Y-41075D02*
X30100Y-41475D01*
X30400Y-38400D02*
X30500Y-38500D01*
G54D40*
X46300Y-32875D02*
X46300Y-33750D01*
G54D36*
X29400Y-41475D02*
X29275Y-41350D01*
X33500Y-35125D02*
X32125Y-35125D01*
G54D35*
X38700Y-47775D02*
X38875Y-47775D01*
G54D36*
X37550Y-35125D02*
X40925Y-35125D01*
X40925Y-35125D02*
X41500Y-35125D01*
X31500Y-44625D02*
X31500Y-44700D01*
X28700Y-38400D02*
X30400Y-38400D01*
G54D37*
X46414Y-47975D02*
X46500Y-48061D01*
G54D36*
X33500Y-35125D02*
X37550Y-35125D01*
X30575Y-41000D02*
X30100Y-41475D01*
G54D37*
X41250Y-47875D02*
X43600Y-47875D01*
X45000Y-40375D02*
X46125Y-40375D01*
G54D35*
X40295Y-40305D02*
X40500Y-40100D01*
G54D37*
X43700Y-47975D02*
X44700Y-47975D01*
X43600Y-47875D02*
X43700Y-47975D01*
X45761Y-48061D02*
X45300Y-47600D01*
G54D36*
X31200Y-45000D02*
X31200Y-45600D01*
X31200Y-45700D02*
X30600Y-46300D01*
G54D37*
X46125Y-40375D02*
X46200Y-40300D01*
X46500Y-48061D02*
X45761Y-48061D01*
G54D36*
X37500Y-37000D02*
X37500Y-37750D01*
G54D37*
X36900Y-40600D02*
X36400Y-40100D01*
G54D35*
X43675Y-42100D02*
X44300Y-42100D01*
G54D37*
X33750Y-48000D02*
X33750Y-47425D01*
G54D36*
X31200Y-45700D02*
X31200Y-45600D01*
G54D38*
X30512Y-46953D02*
X30512Y-46388D01*
G54D35*
X33750Y-48000D02*
X34100Y-48000D01*
G54D37*
X33700Y-47375D02*
X33750Y-47425D01*
G54D36*
X29275Y-41350D02*
X29275Y-42250D01*
G54D37*
X44375Y-33500D02*
X44375Y-33375D01*
G54D36*
X31125Y-41000D02*
X30500Y-41000D01*
G54D37*
X44700Y-47975D02*
X46414Y-47975D01*
X44000Y-33000D02*
X44000Y-32750D01*
G54D35*
X40295Y-40305D02*
X40295Y-41386D01*
X35725Y-48150D02*
X36100Y-47775D01*
X39200Y-48100D02*
X41025Y-48100D01*
G54D37*
X43312Y-32550D02*
X43312Y-33187D01*
X43312Y-33187D02*
X43625Y-33500D01*
G54D36*
X43700Y-47225D02*
X42635Y-47225D01*
X42635Y-47225D02*
X42500Y-47090D01*
G54D35*
X40465Y-47125D02*
X40000Y-47590D01*
X41250Y-47125D02*
X40465Y-47125D01*
G54D37*
X38315Y-47025D02*
X37500Y-47840D01*
X38700Y-47025D02*
X38315Y-47025D01*
X45000Y-30825D02*
X44950Y-30875D01*
X44950Y-30875D02*
X44875Y-30875D01*
X44875Y-30875D02*
X44125Y-31625D01*
X44125Y-31625D02*
X44000Y-31625D01*
X45000Y-30000D02*
X45000Y-30825D01*
G54D40*
X46300Y-30990D02*
X46300Y-32125D01*
G54D37*
X35565Y-47025D02*
X35000Y-47590D01*
X36100Y-47025D02*
X35565Y-47025D01*
X32965Y-46625D02*
X32500Y-47090D01*
X33700Y-46625D02*
X32965Y-46625D01*
G54D40*
X28700Y-32075D02*
X28750Y-32125D01*
X28700Y-30990D02*
X28700Y-32075D01*
X43000Y-37000D02*
X41875Y-37000D01*
G54D36*
X36125Y-37000D02*
X36125Y-38255D01*
X36125Y-38255D02*
X35630Y-38750D01*
G54D35*
X37550Y-39350D02*
X36950Y-38750D01*
X37650Y-39450D02*
X37550Y-39350D01*
X39902Y-40202D02*
X39150Y-39450D01*
X39150Y-39450D02*
X37650Y-39450D01*
X39902Y-40202D02*
X39902Y-41386D01*
X35630Y-38750D02*
X36950Y-38750D01*
G54D36*
X38875Y-37000D02*
X38875Y-38255D01*
X38875Y-38255D02*
X39370Y-38750D01*
G54D35*
X40098Y-40098D02*
X39370Y-39370D01*
X39370Y-39370D02*
X39370Y-38750D01*
X40098Y-41386D02*
X40098Y-40098D01*
X38386Y-43098D02*
X32250Y-43098D01*
X32250Y-43098D02*
X32250Y-42625D01*
X32250Y-43098D02*
X30500Y-43098D01*
X32250Y-42625D02*
X32375Y-42500D01*
X29902Y-43098D02*
X29500Y-43500D01*
G54D37*
X30100Y-42950D02*
X30248Y-43098D01*
X30100Y-42225D02*
X30100Y-42950D01*
G54D35*
X30500Y-43098D02*
X30248Y-43098D01*
X29500Y-43500D02*
X29500Y-43875D01*
X30248Y-43098D02*
X29902Y-43098D01*
G54D40*
X32000Y-37000D02*
X33125Y-37000D01*
G54D35*
X30500Y-43500D02*
X30500Y-43875D01*
G54D37*
X30500Y-43875D02*
X31500Y-43875D01*
G54D35*
X32500Y-43875D02*
X33500Y-43875D01*
X31500Y-43875D02*
X32500Y-43875D01*
X38386Y-43295D02*
X30705Y-43295D01*
X30705Y-43295D02*
X30500Y-43500D01*
G54D10*
G36*
X41307Y-42704D02*
X41275Y-42718D01*
X41259Y-42734D01*
X41202Y-42734D01*
X41151Y-42785D01*
X41151Y-42805D01*
X41183Y-42881D01*
X41211Y-42909D01*
X41211Y-42990D01*
X41215Y-43000D01*
X41211Y-43010D01*
X41211Y-43068D01*
X41211Y-43186D01*
X41215Y-43196D01*
X41211Y-43207D01*
X41211Y-43265D01*
X41211Y-43306D01*
X41174Y-43217D01*
X41083Y-43126D01*
X40964Y-43077D01*
X40836Y-43077D01*
X40717Y-43126D01*
X40626Y-43217D01*
X40577Y-43336D01*
X40577Y-43464D01*
X40626Y-43583D01*
X40717Y-43674D01*
X40836Y-43723D01*
X40886Y-43723D01*
X40886Y-44211D01*
X40798Y-44211D01*
X40787Y-44215D01*
X40777Y-44211D01*
X40719Y-44211D01*
X40689Y-44211D01*
X40689Y-44208D01*
X40689Y-44092D01*
X40676Y-44028D01*
X40674Y-44017D01*
X40674Y-44016D01*
X40631Y-43953D01*
X40597Y-43919D01*
X40597Y-43800D01*
X40596Y-43799D01*
X40582Y-43725D01*
X40581Y-43724D01*
X40567Y-43703D01*
X40539Y-43661D01*
X40539Y-43660D01*
X40339Y-43461D01*
X40276Y-43418D01*
X40223Y-43407D01*
X40223Y-43336D01*
X40174Y-43217D01*
X40083Y-43126D01*
X39964Y-43077D01*
X39836Y-43077D01*
X39717Y-43126D01*
X39626Y-43217D01*
X39577Y-43336D01*
X39577Y-43464D01*
X39626Y-43583D01*
X39717Y-43674D01*
X39753Y-43689D01*
X39726Y-43717D01*
X39700Y-43780D01*
X39674Y-43717D01*
X39583Y-43626D01*
X39464Y-43577D01*
X39336Y-43577D01*
X39217Y-43626D01*
X39197Y-43646D01*
X39197Y-42800D01*
X39182Y-42725D01*
X39181Y-42724D01*
X39167Y-42703D01*
X39139Y-42661D01*
X39139Y-42660D01*
X39101Y-42623D01*
X39164Y-42623D01*
X39283Y-42574D01*
X39374Y-42483D01*
X39423Y-42364D01*
X39423Y-42236D01*
X39374Y-42117D01*
X39283Y-42026D01*
X39164Y-41977D01*
X39036Y-41977D01*
X38917Y-42026D01*
X38829Y-42114D01*
X38789Y-42114D01*
X38789Y-42026D01*
X38784Y-42015D01*
X38789Y-42005D01*
X38789Y-41947D01*
X38789Y-41897D01*
X38900Y-41897D01*
X38975Y-41882D01*
X38976Y-41882D01*
X39039Y-41839D01*
X39056Y-41822D01*
X39078Y-41789D01*
X39084Y-41789D01*
X39202Y-41789D01*
X39212Y-41784D01*
X39223Y-41789D01*
X39281Y-41789D01*
X39399Y-41789D01*
X39409Y-41784D01*
X39420Y-41789D01*
X39478Y-41789D01*
X39500Y-41789D01*
X39529Y-41818D01*
X39605Y-41849D01*
X39625Y-41849D01*
X39676Y-41798D01*
X39676Y-41740D01*
X39691Y-41725D01*
X39704Y-41692D01*
X39718Y-41725D01*
X39734Y-41740D01*
X39734Y-41798D01*
X39785Y-41849D01*
X39805Y-41849D01*
X39881Y-41818D01*
X39909Y-41789D01*
X39990Y-41789D01*
X40000Y-41784D01*
X40010Y-41789D01*
X40068Y-41789D01*
X40186Y-41789D01*
X40196Y-41784D01*
X40204Y-41788D01*
X40126Y-41867D01*
X40077Y-41986D01*
X40077Y-42114D01*
X40126Y-42233D01*
X40217Y-42324D01*
X40336Y-42373D01*
X40464Y-42373D01*
X40583Y-42324D01*
X40674Y-42233D01*
X40723Y-42114D01*
X41211Y-42114D01*
X41211Y-42202D01*
X41215Y-42212D01*
X41211Y-42223D01*
X41211Y-42281D01*
X41211Y-42399D01*
X41215Y-42409D01*
X41211Y-42420D01*
X41211Y-42478D01*
X41211Y-42500D01*
X41183Y-42529D01*
X41151Y-42605D01*
X41151Y-42625D01*
X41202Y-42676D01*
X41259Y-42676D01*
X41275Y-42691D01*
X41307Y-42704D01*
X41307Y-42704D01*
G37*
G54D41*
X41307Y-42704D02*
X41275Y-42718D01*
X41259Y-42734D01*
X41202Y-42734D01*
X41151Y-42785D01*
X41151Y-42805D01*
X41183Y-42881D01*
X41211Y-42909D01*
X41211Y-42990D01*
X41215Y-43000D01*
X41211Y-43010D01*
X41211Y-43068D01*
X41211Y-43186D01*
X41215Y-43196D01*
X41211Y-43207D01*
X41211Y-43265D01*
X41211Y-43306D01*
X41174Y-43217D01*
X41083Y-43126D01*
X40964Y-43077D01*
X40836Y-43077D01*
X40717Y-43126D01*
X40626Y-43217D01*
X40577Y-43336D01*
X40577Y-43464D01*
X40626Y-43583D01*
X40717Y-43674D01*
X40836Y-43723D01*
X40886Y-43723D01*
X40886Y-44211D01*
X40798Y-44211D01*
X40787Y-44215D01*
X40777Y-44211D01*
X40719Y-44211D01*
X40689Y-44211D01*
X40689Y-44208D01*
X40689Y-44092D01*
X40676Y-44028D01*
X40674Y-44017D01*
X40674Y-44016D01*
X40631Y-43953D01*
X40597Y-43919D01*
X40597Y-43800D01*
X40596Y-43799D01*
X40582Y-43725D01*
X40581Y-43724D01*
X40567Y-43703D01*
X40539Y-43661D01*
X40539Y-43660D01*
X40339Y-43461D01*
X40276Y-43418D01*
X40223Y-43407D01*
X40223Y-43336D01*
X40174Y-43217D01*
X40083Y-43126D01*
X39964Y-43077D01*
X39836Y-43077D01*
X39717Y-43126D01*
X39626Y-43217D01*
X39577Y-43336D01*
X39577Y-43464D01*
X39626Y-43583D01*
X39717Y-43674D01*
X39753Y-43689D01*
X39726Y-43717D01*
X39700Y-43780D01*
X39674Y-43717D01*
X39583Y-43626D01*
X39464Y-43577D01*
X39336Y-43577D01*
X39217Y-43626D01*
X39197Y-43646D01*
X39197Y-42800D01*
X39182Y-42725D01*
X39181Y-42724D01*
X39167Y-42703D01*
X39139Y-42661D01*
X39139Y-42660D01*
X39101Y-42623D01*
X39164Y-42623D01*
X39283Y-42574D01*
X39374Y-42483D01*
X39423Y-42364D01*
X39423Y-42236D01*
X39374Y-42117D01*
X39283Y-42026D01*
X39164Y-41977D01*
X39036Y-41977D01*
X38917Y-42026D01*
X38829Y-42114D01*
X38789Y-42114D01*
X38789Y-42026D01*
X38784Y-42015D01*
X38789Y-42005D01*
X38789Y-41947D01*
X38789Y-41897D01*
X38900Y-41897D01*
X38975Y-41882D01*
X38976Y-41882D01*
X39039Y-41839D01*
X39056Y-41822D01*
X39078Y-41789D01*
X39084Y-41789D01*
X39202Y-41789D01*
X39212Y-41784D01*
X39223Y-41789D01*
X39281Y-41789D01*
X39399Y-41789D01*
X39409Y-41784D01*
X39420Y-41789D01*
X39478Y-41789D01*
X39500Y-41789D01*
X39529Y-41818D01*
X39605Y-41849D01*
X39625Y-41849D01*
X39676Y-41798D01*
X39676Y-41740D01*
X39691Y-41725D01*
X39704Y-41692D01*
X39718Y-41725D01*
X39734Y-41740D01*
X39734Y-41798D01*
X39785Y-41849D01*
X39805Y-41849D01*
X39881Y-41818D01*
X39909Y-41789D01*
X39990Y-41789D01*
X40000Y-41784D01*
X40010Y-41789D01*
X40068Y-41789D01*
X40186Y-41789D01*
X40196Y-41784D01*
X40204Y-41788D01*
X40126Y-41867D01*
X40077Y-41986D01*
X40077Y-42114D01*
X40126Y-42233D01*
X40217Y-42324D01*
X40336Y-42373D01*
X40464Y-42373D01*
X40583Y-42324D01*
X40674Y-42233D01*
X40723Y-42114D01*
X41211Y-42114D01*
X41211Y-42202D01*
X41215Y-42212D01*
X41211Y-42223D01*
X41211Y-42281D01*
X41211Y-42399D01*
X41215Y-42409D01*
X41211Y-42420D01*
X41211Y-42478D01*
X41211Y-42500D01*
X41183Y-42529D01*
X41151Y-42605D01*
X41151Y-42625D01*
X41202Y-42676D01*
X41259Y-42676D01*
X41275Y-42691D01*
X41307Y-42704D01*
G54D10*
G36*
X47077Y-30184D02*
X46978Y-30085D01*
X46978Y-29428D01*
X46956Y-29374D01*
X46914Y-29333D01*
X46860Y-29310D01*
X46802Y-29310D01*
X45740Y-29310D01*
X45686Y-29332D01*
X45645Y-29374D01*
X45622Y-29428D01*
X45622Y-29486D01*
X45622Y-30192D01*
X45644Y-30246D01*
X45686Y-30287D01*
X45740Y-30310D01*
X45798Y-30310D01*
X46617Y-30310D01*
X46793Y-30485D01*
X46793Y-30490D01*
X45740Y-30490D01*
X45686Y-30512D01*
X45645Y-30554D01*
X45622Y-30608D01*
X45622Y-30666D01*
X45622Y-31372D01*
X45644Y-31426D01*
X45686Y-31467D01*
X45740Y-31490D01*
X45798Y-31490D01*
X46083Y-31490D01*
X46083Y-31803D01*
X45996Y-31803D01*
X45942Y-31825D01*
X45901Y-31867D01*
X45878Y-31921D01*
X45878Y-31979D01*
X45878Y-32329D01*
X45900Y-32383D01*
X45942Y-32424D01*
X45996Y-32447D01*
X46054Y-32447D01*
X46604Y-32447D01*
X46658Y-32425D01*
X46699Y-32383D01*
X46722Y-32329D01*
X46722Y-32271D01*
X46722Y-31921D01*
X46700Y-31867D01*
X46658Y-31826D01*
X46604Y-31803D01*
X46546Y-31803D01*
X46517Y-31803D01*
X46517Y-31490D01*
X46793Y-31490D01*
X46793Y-33914D01*
X46722Y-33985D01*
X46722Y-33079D01*
X46722Y-33021D01*
X46722Y-32671D01*
X46700Y-32617D01*
X46658Y-32576D01*
X46604Y-32553D01*
X46546Y-32553D01*
X45996Y-32553D01*
X45942Y-32575D01*
X45901Y-32617D01*
X45878Y-32671D01*
X45878Y-32729D01*
X45878Y-33079D01*
X45900Y-33133D01*
X45942Y-33174D01*
X45996Y-33197D01*
X46054Y-33197D01*
X46083Y-33197D01*
X46083Y-33510D01*
X46026Y-33567D01*
X45977Y-33686D01*
X45977Y-33814D01*
X46026Y-33933D01*
X46117Y-34024D01*
X46236Y-34073D01*
X46364Y-34073D01*
X46483Y-34024D01*
X46574Y-33933D01*
X46623Y-33814D01*
X46623Y-33686D01*
X46574Y-33567D01*
X46517Y-33510D01*
X46517Y-33197D01*
X46604Y-33197D01*
X46658Y-33175D01*
X46699Y-33133D01*
X46722Y-33079D01*
X46722Y-33985D01*
X46214Y-34493D01*
X45789Y-34493D01*
X45710Y-34509D01*
X45642Y-34554D01*
X45597Y-34599D01*
X45597Y-30700D01*
X45588Y-30655D01*
X45588Y-29842D01*
X45596Y-29800D01*
X45582Y-29724D01*
X45539Y-29661D01*
X45239Y-29361D01*
X45176Y-29318D01*
X45100Y-29303D01*
X29234Y-29303D01*
X29187Y-29294D01*
X29108Y-29309D01*
X29106Y-29310D01*
X28140Y-29310D01*
X28086Y-29332D01*
X28045Y-29374D01*
X28022Y-29428D01*
X28022Y-29486D01*
X28022Y-30192D01*
X28044Y-30246D01*
X28086Y-30287D01*
X28140Y-30310D01*
X28198Y-30310D01*
X29260Y-30310D01*
X29314Y-30288D01*
X29355Y-30246D01*
X29378Y-30192D01*
X29378Y-30134D01*
X29378Y-29697D01*
X30578Y-29697D01*
X30578Y-29754D01*
X30578Y-30304D01*
X30600Y-30358D01*
X30642Y-30399D01*
X30696Y-30422D01*
X30754Y-30422D01*
X31304Y-30422D01*
X31358Y-30400D01*
X31399Y-30358D01*
X31422Y-30304D01*
X31422Y-30246D01*
X31422Y-29697D01*
X31704Y-29697D01*
X31641Y-29760D01*
X31577Y-29916D01*
X31577Y-30084D01*
X31641Y-30239D01*
X31760Y-30359D01*
X31916Y-30423D01*
X32084Y-30423D01*
X32239Y-30359D01*
X32359Y-30240D01*
X32423Y-30084D01*
X32423Y-29916D01*
X32359Y-29761D01*
X32295Y-29697D01*
X32704Y-29697D01*
X32641Y-29760D01*
X32577Y-29916D01*
X32577Y-30084D01*
X32641Y-30239D01*
X32760Y-30359D01*
X32916Y-30423D01*
X33084Y-30423D01*
X33239Y-30359D01*
X33359Y-30240D01*
X33423Y-30084D01*
X33423Y-29916D01*
X33359Y-29761D01*
X33295Y-29697D01*
X33704Y-29697D01*
X33641Y-29760D01*
X33577Y-29916D01*
X33577Y-30084D01*
X33641Y-30239D01*
X33760Y-30359D01*
X33916Y-30423D01*
X34084Y-30423D01*
X34239Y-30359D01*
X34359Y-30240D01*
X34423Y-30084D01*
X34423Y-29916D01*
X34359Y-29761D01*
X34295Y-29697D01*
X34704Y-29697D01*
X34641Y-29760D01*
X34577Y-29916D01*
X34577Y-30084D01*
X34641Y-30239D01*
X34760Y-30359D01*
X34916Y-30423D01*
X35084Y-30423D01*
X35239Y-30359D01*
X35359Y-30240D01*
X35423Y-30084D01*
X35423Y-29916D01*
X35359Y-29761D01*
X35295Y-29697D01*
X35704Y-29697D01*
X35641Y-29760D01*
X35577Y-29916D01*
X35577Y-30084D01*
X35641Y-30239D01*
X35760Y-30359D01*
X35916Y-30423D01*
X36084Y-30423D01*
X36239Y-30359D01*
X36359Y-30240D01*
X36423Y-30084D01*
X36423Y-29916D01*
X36359Y-29761D01*
X36295Y-29697D01*
X37251Y-29697D01*
X37026Y-29790D01*
X36791Y-30026D01*
X36663Y-30333D01*
X36663Y-30666D01*
X36790Y-30974D01*
X37026Y-31209D01*
X37333Y-31337D01*
X37666Y-31337D01*
X37974Y-31210D01*
X38209Y-30974D01*
X38337Y-30667D01*
X38337Y-30334D01*
X38210Y-30026D01*
X37974Y-29791D01*
X37748Y-29697D01*
X38578Y-29697D01*
X38578Y-29754D01*
X38578Y-30304D01*
X38600Y-30358D01*
X38642Y-30399D01*
X38696Y-30422D01*
X38754Y-30422D01*
X39304Y-30422D01*
X39358Y-30400D01*
X39399Y-30358D01*
X39422Y-30304D01*
X39422Y-30246D01*
X39422Y-29697D01*
X39704Y-29697D01*
X39641Y-29760D01*
X39577Y-29916D01*
X39577Y-30084D01*
X39641Y-30239D01*
X39760Y-30359D01*
X39916Y-30423D01*
X40084Y-30423D01*
X40239Y-30359D01*
X40359Y-30240D01*
X40423Y-30084D01*
X40423Y-29916D01*
X40359Y-29761D01*
X40295Y-29697D01*
X40704Y-29697D01*
X40641Y-29760D01*
X40577Y-29916D01*
X40577Y-30084D01*
X40641Y-30239D01*
X40760Y-30359D01*
X40916Y-30423D01*
X41084Y-30423D01*
X41239Y-30359D01*
X41359Y-30240D01*
X41423Y-30084D01*
X41423Y-29916D01*
X41359Y-29761D01*
X41295Y-29697D01*
X41704Y-29697D01*
X41641Y-29760D01*
X41577Y-29916D01*
X41577Y-30084D01*
X41641Y-30239D01*
X41760Y-30359D01*
X41916Y-30423D01*
X42084Y-30423D01*
X42239Y-30359D01*
X42359Y-30240D01*
X42423Y-30084D01*
X42423Y-29916D01*
X42359Y-29761D01*
X42295Y-29697D01*
X42578Y-29697D01*
X42578Y-29754D01*
X42578Y-30304D01*
X42600Y-30358D01*
X42642Y-30399D01*
X42696Y-30422D01*
X42754Y-30422D01*
X42793Y-30422D01*
X42793Y-30553D01*
X42696Y-30553D01*
X42642Y-30575D01*
X42601Y-30617D01*
X42578Y-30671D01*
X42578Y-30729D01*
X42578Y-30879D01*
X42471Y-30985D01*
X42470Y-30895D01*
X42407Y-30742D01*
X42325Y-30718D01*
X42282Y-30760D01*
X42282Y-30675D01*
X42258Y-30593D01*
X42083Y-30526D01*
X41895Y-30530D01*
X41742Y-30593D01*
X41718Y-30675D01*
X42000Y-30958D01*
X42282Y-30675D01*
X42282Y-30760D01*
X42042Y-31000D01*
X42000Y-31042D01*
X41958Y-31084D01*
X41958Y-31000D01*
X41675Y-30718D01*
X41593Y-30742D01*
X41526Y-30917D01*
X41530Y-31105D01*
X41593Y-31258D01*
X41675Y-31282D01*
X41958Y-31000D01*
X41958Y-31084D01*
X41718Y-31325D01*
X41742Y-31407D01*
X41917Y-31474D01*
X42105Y-31470D01*
X42258Y-31407D01*
X42266Y-31379D01*
X42282Y-31395D01*
X42290Y-31403D01*
X42293Y-31400D01*
X42293Y-31694D01*
X42282Y-31683D01*
X42240Y-31641D01*
X42084Y-31577D01*
X41916Y-31577D01*
X41761Y-31641D01*
X41641Y-31760D01*
X41577Y-31916D01*
X41577Y-32084D01*
X41636Y-32227D01*
X41586Y-32227D01*
X41474Y-32273D01*
X41474Y-31083D01*
X41470Y-30895D01*
X41407Y-30742D01*
X41325Y-30718D01*
X41282Y-30760D01*
X41282Y-30675D01*
X41258Y-30593D01*
X41083Y-30526D01*
X40895Y-30530D01*
X40742Y-30593D01*
X40718Y-30675D01*
X41000Y-30958D01*
X41282Y-30675D01*
X41282Y-30760D01*
X41042Y-31000D01*
X41325Y-31282D01*
X41407Y-31258D01*
X41474Y-31083D01*
X41474Y-32273D01*
X41467Y-32276D01*
X41423Y-32320D01*
X41423Y-32084D01*
X41423Y-31916D01*
X41359Y-31761D01*
X41282Y-31683D01*
X41282Y-31325D01*
X41000Y-31042D01*
X40958Y-31084D01*
X40958Y-31000D01*
X40675Y-30718D01*
X40593Y-30742D01*
X40526Y-30917D01*
X40530Y-31105D01*
X40593Y-31258D01*
X40675Y-31282D01*
X40958Y-31000D01*
X40958Y-31084D01*
X40718Y-31325D01*
X40742Y-31407D01*
X40917Y-31474D01*
X41105Y-31470D01*
X41258Y-31407D01*
X41282Y-31325D01*
X41282Y-31683D01*
X41240Y-31641D01*
X41084Y-31577D01*
X40916Y-31577D01*
X40761Y-31641D01*
X40641Y-31760D01*
X40577Y-31916D01*
X40577Y-32084D01*
X40641Y-32239D01*
X40760Y-32359D01*
X40916Y-32423D01*
X41084Y-32423D01*
X41239Y-32359D01*
X41359Y-32240D01*
X41423Y-32084D01*
X41423Y-32320D01*
X41376Y-32367D01*
X41327Y-32486D01*
X41327Y-32614D01*
X41376Y-32733D01*
X41467Y-32824D01*
X41586Y-32873D01*
X41714Y-32873D01*
X41833Y-32824D01*
X41900Y-32757D01*
X42150Y-32757D01*
X42150Y-32756D01*
X42229Y-32741D01*
X42296Y-32696D01*
X42646Y-32347D01*
X42646Y-32346D01*
X42675Y-32302D01*
X42690Y-32280D01*
X42691Y-32279D01*
X42706Y-32201D01*
X42707Y-32200D01*
X42707Y-32007D01*
X42766Y-32007D01*
X42919Y-32007D01*
X42970Y-31956D01*
X42970Y-31705D01*
X42970Y-31655D01*
X42970Y-31595D01*
X42970Y-31545D01*
X42970Y-31294D01*
X42919Y-31243D01*
X42799Y-31243D01*
X42845Y-31197D01*
X43304Y-31197D01*
X43358Y-31175D01*
X43399Y-31133D01*
X43422Y-31079D01*
X43422Y-31021D01*
X43422Y-30671D01*
X43400Y-30617D01*
X43358Y-30576D01*
X43304Y-30553D01*
X43246Y-30553D01*
X43207Y-30553D01*
X43207Y-30422D01*
X43304Y-30422D01*
X43358Y-30400D01*
X43399Y-30358D01*
X43422Y-30304D01*
X43422Y-30246D01*
X43422Y-29697D01*
X43704Y-29697D01*
X43641Y-29760D01*
X43577Y-29916D01*
X43577Y-30084D01*
X43641Y-30239D01*
X43760Y-30359D01*
X43793Y-30372D01*
X43793Y-30472D01*
X43676Y-30472D01*
X43622Y-30494D01*
X43581Y-30536D01*
X43558Y-30590D01*
X43558Y-30648D01*
X43558Y-31160D01*
X43580Y-31214D01*
X43616Y-31249D01*
X43581Y-31286D01*
X43558Y-31340D01*
X43558Y-31398D01*
X43558Y-31910D01*
X43580Y-31964D01*
X43622Y-32005D01*
X43676Y-32028D01*
X43734Y-32028D01*
X44324Y-32028D01*
X44378Y-32006D01*
X44419Y-31964D01*
X44442Y-31910D01*
X44442Y-31852D01*
X44442Y-31600D01*
X44483Y-31559D01*
X44519Y-31595D01*
X44920Y-31595D01*
X44920Y-31294D01*
X44869Y-31243D01*
X44799Y-31243D01*
X44845Y-31197D01*
X45203Y-31197D01*
X45203Y-31243D01*
X45184Y-31243D01*
X45031Y-31243D01*
X44980Y-31294D01*
X44980Y-31545D01*
X44980Y-31595D01*
X44980Y-31655D01*
X44980Y-31705D01*
X44980Y-31956D01*
X45031Y-32007D01*
X45184Y-32007D01*
X45203Y-32007D01*
X45203Y-32996D01*
X45197Y-32990D01*
X45197Y-32750D01*
X45196Y-32749D01*
X45182Y-32675D01*
X45181Y-32674D01*
X45167Y-32653D01*
X45139Y-32611D01*
X45139Y-32610D01*
X45130Y-32601D01*
X45130Y-32226D01*
X45108Y-32172D01*
X45066Y-32131D01*
X45012Y-32108D01*
X44954Y-32108D01*
X44920Y-32108D01*
X44920Y-31956D01*
X44920Y-31655D01*
X44519Y-31655D01*
X44468Y-31706D01*
X44468Y-31841D01*
X44499Y-31917D01*
X44558Y-31975D01*
X44634Y-32007D01*
X44716Y-32007D01*
X44869Y-32007D01*
X44920Y-31956D01*
X44920Y-32108D01*
X44364Y-32108D01*
X44310Y-32130D01*
X44269Y-32172D01*
X44246Y-32226D01*
X44246Y-32284D01*
X44246Y-32539D01*
X44183Y-32476D01*
X44064Y-32427D01*
X43936Y-32427D01*
X43817Y-32476D01*
X43754Y-32539D01*
X43754Y-32226D01*
X43732Y-32172D01*
X43690Y-32131D01*
X43636Y-32108D01*
X43578Y-32108D01*
X43482Y-32108D01*
X43482Y-31841D01*
X43482Y-31706D01*
X43482Y-31544D01*
X43482Y-31409D01*
X43451Y-31333D01*
X43392Y-31275D01*
X43316Y-31243D01*
X43234Y-31243D01*
X43081Y-31243D01*
X43030Y-31294D01*
X43030Y-31595D01*
X43431Y-31595D01*
X43482Y-31544D01*
X43482Y-31706D01*
X43431Y-31655D01*
X43030Y-31655D01*
X43030Y-31956D01*
X43081Y-32007D01*
X43234Y-32007D01*
X43316Y-32007D01*
X43392Y-31975D01*
X43451Y-31917D01*
X43482Y-31841D01*
X43482Y-32108D01*
X42988Y-32108D01*
X42934Y-32130D01*
X42893Y-32172D01*
X42870Y-32226D01*
X42870Y-32284D01*
X42870Y-32874D01*
X42892Y-32928D01*
X42934Y-32969D01*
X42988Y-32992D01*
X43046Y-32992D01*
X43105Y-32992D01*
X43105Y-33187D01*
X43121Y-33266D01*
X43166Y-33333D01*
X43303Y-33470D01*
X43303Y-33804D01*
X43325Y-33858D01*
X43367Y-33899D01*
X43421Y-33922D01*
X43479Y-33922D01*
X43829Y-33922D01*
X43883Y-33900D01*
X43924Y-33858D01*
X43947Y-33804D01*
X43947Y-33746D01*
X43947Y-33239D01*
X44053Y-33345D01*
X44053Y-33804D01*
X44075Y-33858D01*
X44117Y-33899D01*
X44171Y-33922D01*
X44229Y-33922D01*
X44579Y-33922D01*
X44633Y-33900D01*
X44674Y-33858D01*
X44697Y-33804D01*
X44697Y-33746D01*
X44697Y-33362D01*
X44726Y-33433D01*
X44817Y-33524D01*
X44936Y-33573D01*
X45064Y-33573D01*
X45183Y-33524D01*
X45203Y-33504D01*
X45203Y-38118D01*
X45023Y-38298D01*
X45023Y-38064D01*
X45023Y-37936D01*
X44974Y-37817D01*
X44883Y-37726D01*
X44764Y-37677D01*
X44636Y-37677D01*
X44517Y-37726D01*
X44440Y-37803D01*
X43580Y-37803D01*
X43580Y-37329D01*
X43580Y-37271D01*
X43580Y-36671D01*
X43558Y-36617D01*
X43516Y-36576D01*
X43462Y-36553D01*
X43404Y-36553D01*
X42538Y-36553D01*
X42484Y-36575D01*
X42443Y-36617D01*
X42420Y-36671D01*
X42420Y-36729D01*
X42420Y-36783D01*
X42197Y-36783D01*
X42197Y-36696D01*
X42175Y-36642D01*
X42133Y-36601D01*
X42079Y-36578D01*
X42021Y-36578D01*
X41671Y-36578D01*
X41617Y-36600D01*
X41576Y-36642D01*
X41553Y-36696D01*
X41553Y-36754D01*
X41553Y-37304D01*
X41575Y-37358D01*
X41617Y-37399D01*
X41671Y-37422D01*
X41729Y-37422D01*
X42079Y-37422D01*
X42133Y-37400D01*
X42174Y-37358D01*
X42197Y-37304D01*
X42197Y-37246D01*
X42197Y-37217D01*
X42420Y-37217D01*
X42420Y-37329D01*
X42442Y-37383D01*
X42484Y-37424D01*
X42538Y-37447D01*
X42596Y-37447D01*
X43462Y-37447D01*
X43516Y-37425D01*
X43557Y-37383D01*
X43580Y-37329D01*
X43580Y-37803D01*
X42549Y-37803D01*
X42500Y-37793D01*
X41586Y-37793D01*
X41307Y-37514D01*
X41307Y-37422D01*
X41329Y-37422D01*
X41383Y-37400D01*
X41424Y-37358D01*
X41447Y-37304D01*
X41447Y-37246D01*
X41447Y-36696D01*
X41425Y-36642D01*
X41383Y-36601D01*
X41329Y-36578D01*
X41271Y-36578D01*
X40921Y-36578D01*
X40907Y-36583D01*
X40907Y-36161D01*
X41058Y-36161D01*
X41080Y-36214D01*
X41122Y-36255D01*
X41176Y-36278D01*
X41234Y-36278D01*
X41824Y-36278D01*
X41878Y-36256D01*
X41919Y-36214D01*
X41941Y-36161D01*
X42447Y-36161D01*
X42484Y-36248D01*
X42607Y-36372D01*
X42768Y-36439D01*
X42943Y-36439D01*
X43231Y-36439D01*
X43392Y-36372D01*
X43516Y-36249D01*
X43583Y-36088D01*
X43583Y-35913D01*
X43516Y-35752D01*
X43393Y-35628D01*
X43232Y-35561D01*
X43057Y-35561D01*
X42769Y-35561D01*
X42701Y-35589D01*
X41941Y-35589D01*
X41920Y-35536D01*
X41883Y-35500D01*
X41919Y-35464D01*
X41941Y-35411D01*
X42700Y-35411D01*
X42768Y-35439D01*
X42943Y-35439D01*
X43231Y-35439D01*
X43392Y-35372D01*
X43516Y-35249D01*
X43583Y-35088D01*
X43583Y-34913D01*
X43516Y-34752D01*
X43393Y-34628D01*
X43232Y-34561D01*
X43057Y-34561D01*
X42769Y-34561D01*
X42608Y-34628D01*
X42484Y-34751D01*
X42447Y-34839D01*
X41941Y-34839D01*
X41920Y-34786D01*
X41878Y-34745D01*
X41824Y-34722D01*
X41766Y-34722D01*
X41176Y-34722D01*
X41122Y-34744D01*
X41081Y-34786D01*
X41058Y-34839D01*
X40925Y-34839D01*
X40474Y-34839D01*
X40474Y-31083D01*
X40470Y-30895D01*
X40407Y-30742D01*
X40325Y-30718D01*
X40282Y-30760D01*
X40282Y-30675D01*
X40258Y-30593D01*
X40083Y-30526D01*
X39895Y-30530D01*
X39742Y-30593D01*
X39718Y-30675D01*
X40000Y-30958D01*
X40282Y-30675D01*
X40282Y-30760D01*
X40042Y-31000D01*
X40325Y-31282D01*
X40407Y-31258D01*
X40474Y-31083D01*
X40474Y-34839D01*
X40423Y-34839D01*
X40423Y-32084D01*
X40423Y-31916D01*
X40359Y-31761D01*
X40282Y-31683D01*
X40282Y-31325D01*
X40000Y-31042D01*
X39958Y-31084D01*
X39958Y-31000D01*
X39675Y-30718D01*
X39593Y-30742D01*
X39526Y-30917D01*
X39530Y-31105D01*
X39593Y-31258D01*
X39675Y-31282D01*
X39958Y-31000D01*
X39958Y-31084D01*
X39718Y-31325D01*
X39742Y-31407D01*
X39917Y-31474D01*
X40105Y-31470D01*
X40258Y-31407D01*
X40282Y-31325D01*
X40282Y-31683D01*
X40240Y-31641D01*
X40084Y-31577D01*
X39916Y-31577D01*
X39761Y-31641D01*
X39641Y-31760D01*
X39577Y-31916D01*
X39577Y-32084D01*
X39641Y-32239D01*
X39760Y-32359D01*
X39916Y-32423D01*
X40084Y-32423D01*
X40239Y-32359D01*
X40359Y-32240D01*
X40423Y-32084D01*
X40423Y-34839D01*
X39482Y-34839D01*
X39482Y-31316D01*
X39482Y-31234D01*
X39482Y-31081D01*
X39482Y-30919D01*
X39482Y-30766D01*
X39482Y-30684D01*
X39450Y-30608D01*
X39392Y-30549D01*
X39316Y-30518D01*
X39081Y-30518D01*
X39030Y-30569D01*
X39030Y-30970D01*
X39431Y-30970D01*
X39482Y-30919D01*
X39482Y-31081D01*
X39431Y-31030D01*
X39030Y-31030D01*
X39030Y-31431D01*
X39081Y-31482D01*
X39316Y-31482D01*
X39392Y-31451D01*
X39450Y-31392D01*
X39482Y-31316D01*
X39482Y-34839D01*
X39422Y-34839D01*
X39422Y-32304D01*
X39422Y-32246D01*
X39422Y-31696D01*
X39400Y-31642D01*
X39358Y-31601D01*
X39304Y-31578D01*
X39246Y-31578D01*
X38970Y-31578D01*
X38970Y-31431D01*
X38970Y-31030D01*
X38970Y-30970D01*
X38970Y-30569D01*
X38919Y-30518D01*
X38684Y-30518D01*
X38608Y-30549D01*
X38550Y-30608D01*
X38518Y-30684D01*
X38518Y-30766D01*
X38518Y-30919D01*
X38569Y-30970D01*
X38970Y-30970D01*
X38970Y-31030D01*
X38569Y-31030D01*
X38518Y-31081D01*
X38518Y-31234D01*
X38518Y-31316D01*
X38550Y-31392D01*
X38608Y-31451D01*
X38684Y-31482D01*
X38919Y-31482D01*
X38970Y-31431D01*
X38970Y-31578D01*
X38696Y-31578D01*
X38642Y-31600D01*
X38601Y-31642D01*
X38578Y-31696D01*
X38578Y-31754D01*
X38578Y-32304D01*
X38600Y-32358D01*
X38642Y-32399D01*
X38696Y-32422D01*
X38754Y-32422D01*
X39304Y-32422D01*
X39358Y-32400D01*
X39399Y-32358D01*
X39422Y-32304D01*
X39422Y-34839D01*
X38257Y-34839D01*
X38257Y-33216D01*
X38257Y-33134D01*
X38257Y-32981D01*
X38257Y-32819D01*
X38257Y-32666D01*
X38257Y-32584D01*
X38225Y-32508D01*
X38217Y-32500D01*
X38225Y-32492D01*
X38257Y-32416D01*
X38257Y-32334D01*
X38257Y-32181D01*
X38257Y-32019D01*
X38257Y-31866D01*
X38257Y-31784D01*
X38225Y-31708D01*
X38167Y-31649D01*
X38091Y-31618D01*
X37956Y-31618D01*
X37905Y-31669D01*
X37905Y-32070D01*
X38206Y-32070D01*
X38257Y-32019D01*
X38257Y-32181D01*
X38206Y-32130D01*
X37905Y-32130D01*
X37905Y-32469D01*
X37905Y-32531D01*
X37905Y-32870D01*
X38206Y-32870D01*
X38257Y-32819D01*
X38257Y-32981D01*
X38206Y-32930D01*
X37905Y-32930D01*
X37905Y-33331D01*
X37956Y-33382D01*
X38091Y-33382D01*
X38167Y-33351D01*
X38225Y-33292D01*
X38257Y-33216D01*
X38257Y-34839D01*
X37853Y-34839D01*
X37845Y-34819D01*
X37845Y-33331D01*
X37845Y-32930D01*
X37845Y-32870D01*
X37845Y-32531D01*
X37845Y-32469D01*
X37845Y-32130D01*
X37845Y-32070D01*
X37845Y-31669D01*
X37794Y-31618D01*
X37659Y-31618D01*
X37583Y-31649D01*
X37525Y-31708D01*
X37493Y-31784D01*
X37493Y-31866D01*
X37493Y-32019D01*
X37544Y-32070D01*
X37845Y-32070D01*
X37845Y-32130D01*
X37544Y-32130D01*
X37493Y-32181D01*
X37493Y-32334D01*
X37493Y-32416D01*
X37525Y-32492D01*
X37532Y-32500D01*
X37525Y-32508D01*
X37493Y-32584D01*
X37493Y-32666D01*
X37493Y-32819D01*
X37544Y-32870D01*
X37845Y-32870D01*
X37845Y-32930D01*
X37544Y-32930D01*
X37493Y-32981D01*
X37493Y-33134D01*
X37493Y-33216D01*
X37525Y-33292D01*
X37583Y-33351D01*
X37659Y-33382D01*
X37794Y-33382D01*
X37845Y-33331D01*
X37845Y-34819D01*
X37824Y-34767D01*
X37733Y-34676D01*
X37614Y-34627D01*
X37486Y-34627D01*
X37447Y-34643D01*
X37447Y-33204D01*
X37447Y-33146D01*
X37447Y-32596D01*
X37425Y-32542D01*
X37383Y-32501D01*
X37381Y-32500D01*
X37383Y-32500D01*
X37424Y-32458D01*
X37447Y-32404D01*
X37447Y-32346D01*
X37447Y-31796D01*
X37425Y-31742D01*
X37383Y-31701D01*
X37329Y-31678D01*
X37271Y-31678D01*
X36921Y-31678D01*
X36867Y-31700D01*
X36826Y-31742D01*
X36803Y-31796D01*
X36803Y-31854D01*
X36803Y-31893D01*
X36474Y-31893D01*
X36474Y-31083D01*
X36470Y-30895D01*
X36407Y-30742D01*
X36325Y-30718D01*
X36282Y-30760D01*
X36282Y-30675D01*
X36258Y-30593D01*
X36083Y-30526D01*
X35895Y-30530D01*
X35742Y-30593D01*
X35718Y-30675D01*
X36000Y-30958D01*
X36282Y-30675D01*
X36282Y-30760D01*
X36042Y-31000D01*
X36325Y-31282D01*
X36407Y-31258D01*
X36474Y-31083D01*
X36474Y-31893D01*
X36413Y-31893D01*
X36359Y-31761D01*
X36282Y-31683D01*
X36282Y-31325D01*
X36000Y-31042D01*
X35958Y-31084D01*
X35958Y-31000D01*
X35675Y-30718D01*
X35593Y-30742D01*
X35526Y-30917D01*
X35530Y-31105D01*
X35593Y-31258D01*
X35675Y-31282D01*
X35958Y-31000D01*
X35958Y-31084D01*
X35718Y-31325D01*
X35742Y-31407D01*
X35917Y-31474D01*
X36105Y-31470D01*
X36258Y-31407D01*
X36282Y-31325D01*
X36282Y-31683D01*
X36240Y-31641D01*
X36084Y-31577D01*
X35916Y-31577D01*
X35761Y-31641D01*
X35641Y-31760D01*
X35577Y-31916D01*
X35577Y-32084D01*
X35641Y-32239D01*
X35760Y-32359D01*
X35916Y-32423D01*
X36084Y-32423D01*
X36239Y-32359D01*
X36291Y-32307D01*
X36803Y-32307D01*
X36803Y-32404D01*
X36825Y-32458D01*
X36867Y-32499D01*
X36867Y-32500D01*
X36826Y-32542D01*
X36803Y-32596D01*
X36803Y-32654D01*
X36803Y-32693D01*
X35474Y-32693D01*
X35474Y-31083D01*
X35470Y-30895D01*
X35407Y-30742D01*
X35325Y-30718D01*
X35282Y-30760D01*
X35282Y-30675D01*
X35258Y-30593D01*
X35083Y-30526D01*
X34895Y-30530D01*
X34742Y-30593D01*
X34718Y-30675D01*
X35000Y-30958D01*
X35282Y-30675D01*
X35282Y-30760D01*
X35042Y-31000D01*
X35325Y-31282D01*
X35407Y-31258D01*
X35474Y-31083D01*
X35474Y-32693D01*
X35207Y-32693D01*
X35207Y-32372D01*
X35239Y-32359D01*
X35359Y-32240D01*
X35423Y-32084D01*
X35423Y-31916D01*
X35359Y-31761D01*
X35282Y-31683D01*
X35282Y-31325D01*
X35000Y-31042D01*
X34958Y-31084D01*
X34958Y-31000D01*
X34675Y-30718D01*
X34593Y-30742D01*
X34526Y-30917D01*
X34530Y-31105D01*
X34593Y-31258D01*
X34675Y-31282D01*
X34958Y-31000D01*
X34958Y-31084D01*
X34718Y-31325D01*
X34742Y-31407D01*
X34917Y-31474D01*
X35105Y-31470D01*
X35258Y-31407D01*
X35282Y-31325D01*
X35282Y-31683D01*
X35240Y-31641D01*
X35084Y-31577D01*
X34916Y-31577D01*
X34761Y-31641D01*
X34641Y-31760D01*
X34577Y-31916D01*
X34577Y-32084D01*
X34641Y-32239D01*
X34760Y-32359D01*
X34793Y-32372D01*
X34793Y-32900D01*
X34809Y-32979D01*
X34854Y-33046D01*
X34921Y-33091D01*
X35000Y-33107D01*
X36803Y-33107D01*
X36803Y-33204D01*
X36825Y-33258D01*
X36867Y-33299D01*
X36921Y-33322D01*
X36979Y-33322D01*
X37329Y-33322D01*
X37383Y-33300D01*
X37424Y-33258D01*
X37447Y-33204D01*
X37447Y-34643D01*
X37367Y-34676D01*
X37276Y-34767D01*
X37246Y-34839D01*
X34474Y-34839D01*
X34474Y-31083D01*
X34470Y-30895D01*
X34407Y-30742D01*
X34325Y-30718D01*
X34282Y-30760D01*
X34282Y-30675D01*
X34258Y-30593D01*
X34083Y-30526D01*
X33895Y-30530D01*
X33742Y-30593D01*
X33718Y-30675D01*
X34000Y-30958D01*
X34282Y-30675D01*
X34282Y-30760D01*
X34042Y-31000D01*
X34325Y-31282D01*
X34407Y-31258D01*
X34474Y-31083D01*
X34474Y-34839D01*
X34423Y-34839D01*
X34423Y-32084D01*
X34423Y-31916D01*
X34359Y-31761D01*
X34282Y-31683D01*
X34282Y-31325D01*
X34000Y-31042D01*
X33958Y-31084D01*
X33958Y-31000D01*
X33675Y-30718D01*
X33593Y-30742D01*
X33526Y-30917D01*
X33530Y-31105D01*
X33593Y-31258D01*
X33675Y-31282D01*
X33958Y-31000D01*
X33958Y-31084D01*
X33718Y-31325D01*
X33742Y-31407D01*
X33917Y-31474D01*
X34105Y-31470D01*
X34258Y-31407D01*
X34282Y-31325D01*
X34282Y-31683D01*
X34240Y-31641D01*
X34084Y-31577D01*
X33916Y-31577D01*
X33761Y-31641D01*
X33641Y-31760D01*
X33577Y-31916D01*
X33577Y-32084D01*
X33641Y-32239D01*
X33760Y-32359D01*
X33916Y-32423D01*
X34084Y-32423D01*
X34239Y-32359D01*
X34359Y-32240D01*
X34423Y-32084D01*
X34423Y-34839D01*
X33941Y-34839D01*
X33920Y-34786D01*
X33878Y-34745D01*
X33824Y-34722D01*
X33766Y-34722D01*
X33474Y-34722D01*
X33474Y-31083D01*
X33470Y-30895D01*
X33407Y-30742D01*
X33325Y-30718D01*
X33282Y-30760D01*
X33282Y-30675D01*
X33258Y-30593D01*
X33083Y-30526D01*
X32895Y-30530D01*
X32742Y-30593D01*
X32718Y-30675D01*
X33000Y-30958D01*
X33282Y-30675D01*
X33282Y-30760D01*
X33042Y-31000D01*
X33325Y-31282D01*
X33407Y-31258D01*
X33474Y-31083D01*
X33474Y-34722D01*
X33423Y-34722D01*
X33423Y-32084D01*
X33423Y-31916D01*
X33359Y-31761D01*
X33282Y-31683D01*
X33282Y-31325D01*
X33000Y-31042D01*
X32958Y-31084D01*
X32958Y-31000D01*
X32675Y-30718D01*
X32593Y-30742D01*
X32526Y-30917D01*
X32530Y-31105D01*
X32593Y-31258D01*
X32675Y-31282D01*
X32958Y-31000D01*
X32958Y-31084D01*
X32718Y-31325D01*
X32742Y-31407D01*
X32917Y-31474D01*
X33105Y-31470D01*
X33258Y-31407D01*
X33282Y-31325D01*
X33282Y-31683D01*
X33240Y-31641D01*
X33084Y-31577D01*
X32916Y-31577D01*
X32761Y-31641D01*
X32641Y-31760D01*
X32577Y-31916D01*
X32577Y-32084D01*
X32641Y-32239D01*
X32760Y-32359D01*
X32916Y-32423D01*
X33084Y-32423D01*
X33239Y-32359D01*
X33359Y-32240D01*
X33423Y-32084D01*
X33423Y-34722D01*
X33176Y-34722D01*
X33122Y-34744D01*
X33081Y-34786D01*
X33058Y-34839D01*
X32580Y-34839D01*
X32580Y-34671D01*
X32558Y-34617D01*
X32516Y-34576D01*
X32474Y-34558D01*
X32474Y-31083D01*
X32470Y-30895D01*
X32407Y-30742D01*
X32325Y-30718D01*
X32282Y-30760D01*
X32282Y-30675D01*
X32258Y-30593D01*
X32083Y-30526D01*
X31895Y-30530D01*
X31742Y-30593D01*
X31718Y-30675D01*
X32000Y-30958D01*
X32282Y-30675D01*
X32282Y-30760D01*
X32042Y-31000D01*
X32325Y-31282D01*
X32407Y-31258D01*
X32474Y-31083D01*
X32474Y-34558D01*
X32462Y-34553D01*
X32423Y-34553D01*
X32423Y-32084D01*
X32423Y-31916D01*
X32359Y-31761D01*
X32282Y-31683D01*
X32282Y-31325D01*
X32000Y-31042D01*
X31958Y-31084D01*
X31958Y-31000D01*
X31675Y-30718D01*
X31593Y-30742D01*
X31526Y-30917D01*
X31530Y-31105D01*
X31593Y-31258D01*
X31675Y-31282D01*
X31958Y-31000D01*
X31958Y-31084D01*
X31718Y-31325D01*
X31742Y-31407D01*
X31917Y-31474D01*
X32105Y-31470D01*
X32258Y-31407D01*
X32282Y-31325D01*
X32282Y-31683D01*
X32240Y-31641D01*
X32084Y-31577D01*
X31916Y-31577D01*
X31761Y-31641D01*
X31641Y-31760D01*
X31577Y-31916D01*
X31577Y-32084D01*
X31641Y-32239D01*
X31760Y-32359D01*
X31916Y-32423D01*
X32084Y-32423D01*
X32239Y-32359D01*
X32359Y-32240D01*
X32423Y-32084D01*
X32423Y-34553D01*
X32404Y-34553D01*
X31538Y-34553D01*
X31484Y-34575D01*
X31482Y-34577D01*
X31482Y-31316D01*
X31482Y-31234D01*
X31482Y-31081D01*
X31482Y-30919D01*
X31482Y-30766D01*
X31482Y-30684D01*
X31450Y-30608D01*
X31392Y-30549D01*
X31316Y-30518D01*
X31081Y-30518D01*
X31030Y-30569D01*
X31030Y-30970D01*
X31431Y-30970D01*
X31482Y-30919D01*
X31482Y-31081D01*
X31431Y-31030D01*
X31030Y-31030D01*
X31030Y-31431D01*
X31081Y-31482D01*
X31316Y-31482D01*
X31392Y-31451D01*
X31450Y-31392D01*
X31482Y-31316D01*
X31482Y-34577D01*
X31443Y-34617D01*
X31422Y-34666D01*
X31422Y-32304D01*
X31422Y-32246D01*
X31422Y-31696D01*
X31400Y-31642D01*
X31358Y-31601D01*
X31304Y-31578D01*
X31246Y-31578D01*
X30970Y-31578D01*
X30970Y-31431D01*
X30970Y-31030D01*
X30970Y-30970D01*
X30970Y-30569D01*
X30919Y-30518D01*
X30684Y-30518D01*
X30608Y-30549D01*
X30550Y-30608D01*
X30518Y-30684D01*
X30518Y-30766D01*
X30518Y-30919D01*
X30569Y-30970D01*
X30970Y-30970D01*
X30970Y-31030D01*
X30569Y-31030D01*
X30518Y-31081D01*
X30518Y-31234D01*
X30518Y-31316D01*
X30550Y-31392D01*
X30608Y-31451D01*
X30684Y-31482D01*
X30919Y-31482D01*
X30970Y-31431D01*
X30970Y-31578D01*
X30696Y-31578D01*
X30642Y-31600D01*
X30601Y-31642D01*
X30578Y-31696D01*
X30578Y-31754D01*
X30578Y-32304D01*
X30600Y-32358D01*
X30642Y-32399D01*
X30696Y-32422D01*
X30754Y-32422D01*
X31304Y-32422D01*
X31358Y-32400D01*
X31399Y-32358D01*
X31422Y-32304D01*
X31422Y-34666D01*
X31420Y-34671D01*
X31420Y-34729D01*
X31420Y-35329D01*
X31442Y-35383D01*
X31484Y-35424D01*
X31538Y-35447D01*
X31596Y-35447D01*
X32462Y-35447D01*
X32516Y-35425D01*
X32529Y-35411D01*
X33058Y-35411D01*
X33080Y-35464D01*
X33116Y-35499D01*
X33081Y-35536D01*
X33058Y-35589D01*
X32299Y-35589D01*
X32232Y-35561D01*
X32057Y-35561D01*
X31769Y-35561D01*
X31608Y-35628D01*
X31484Y-35751D01*
X31417Y-35912D01*
X31417Y-36087D01*
X31484Y-36248D01*
X31607Y-36372D01*
X31768Y-36439D01*
X31943Y-36439D01*
X32231Y-36439D01*
X32392Y-36372D01*
X32516Y-36249D01*
X32552Y-36161D01*
X33058Y-36161D01*
X33080Y-36214D01*
X33122Y-36255D01*
X33176Y-36278D01*
X33234Y-36278D01*
X33824Y-36278D01*
X33878Y-36256D01*
X33919Y-36214D01*
X33941Y-36161D01*
X34046Y-36161D01*
X33729Y-36479D01*
X33684Y-36546D01*
X33677Y-36578D01*
X33671Y-36578D01*
X33617Y-36600D01*
X33576Y-36642D01*
X33553Y-36696D01*
X33553Y-36754D01*
X33553Y-37304D01*
X33575Y-37358D01*
X33617Y-37399D01*
X33671Y-37422D01*
X33729Y-37422D01*
X34079Y-37422D01*
X34133Y-37400D01*
X34174Y-37358D01*
X34197Y-37304D01*
X34197Y-37246D01*
X34197Y-36696D01*
X34175Y-36642D01*
X34162Y-36629D01*
X34807Y-35985D01*
X40298Y-35985D01*
X40493Y-36179D01*
X40493Y-37500D01*
X40509Y-37579D01*
X40554Y-37646D01*
X41253Y-38346D01*
X41254Y-38346D01*
X41298Y-38375D01*
X41320Y-38390D01*
X41321Y-38391D01*
X41399Y-38406D01*
X41400Y-38407D01*
X43315Y-38407D01*
X43577Y-38669D01*
X43577Y-38764D01*
X43626Y-38883D01*
X43717Y-38974D01*
X43836Y-39023D01*
X43964Y-39023D01*
X44083Y-38974D01*
X44174Y-38883D01*
X44223Y-38764D01*
X44223Y-38636D01*
X44174Y-38517D01*
X44083Y-38426D01*
X43964Y-38377D01*
X43869Y-38377D01*
X43689Y-38197D01*
X44440Y-38197D01*
X44517Y-38274D01*
X44636Y-38323D01*
X44764Y-38323D01*
X44883Y-38274D01*
X44974Y-38183D01*
X45023Y-38064D01*
X45023Y-38298D01*
X42718Y-40603D01*
X41375Y-40603D01*
X41560Y-40417D01*
X41617Y-40474D01*
X41736Y-40523D01*
X41864Y-40523D01*
X41983Y-40474D01*
X42074Y-40383D01*
X42123Y-40264D01*
X42123Y-40136D01*
X42074Y-40017D01*
X41983Y-39926D01*
X41864Y-39877D01*
X41736Y-39877D01*
X41617Y-39926D01*
X41540Y-40003D01*
X41500Y-40003D01*
X41425Y-40018D01*
X41403Y-40032D01*
X41360Y-40061D01*
X40912Y-40509D01*
X40874Y-40417D01*
X40783Y-40326D01*
X40746Y-40310D01*
X40774Y-40283D01*
X40823Y-40164D01*
X40823Y-40036D01*
X40774Y-39917D01*
X40683Y-39826D01*
X40564Y-39777D01*
X40436Y-39777D01*
X40317Y-39826D01*
X40226Y-39917D01*
X40217Y-39938D01*
X39568Y-39290D01*
X40481Y-39290D01*
X40535Y-39268D01*
X40576Y-39226D01*
X40599Y-39172D01*
X40599Y-39114D01*
X40599Y-38328D01*
X40577Y-38274D01*
X40535Y-38233D01*
X40481Y-38210D01*
X40423Y-38210D01*
X39234Y-38210D01*
X39161Y-38137D01*
X39161Y-37441D01*
X39214Y-37420D01*
X39255Y-37378D01*
X39278Y-37324D01*
X39278Y-37266D01*
X39278Y-36676D01*
X39256Y-36622D01*
X39214Y-36581D01*
X39160Y-36558D01*
X39102Y-36558D01*
X38590Y-36558D01*
X38536Y-36580D01*
X38500Y-36616D01*
X38464Y-36581D01*
X38410Y-36558D01*
X38352Y-36558D01*
X37840Y-36558D01*
X37786Y-36580D01*
X37745Y-36622D01*
X37722Y-36676D01*
X37722Y-36714D01*
X37500Y-36714D01*
X37278Y-36714D01*
X37278Y-36676D01*
X37256Y-36622D01*
X37214Y-36581D01*
X37160Y-36558D01*
X37102Y-36558D01*
X36590Y-36558D01*
X36536Y-36580D01*
X36500Y-36616D01*
X36464Y-36581D01*
X36410Y-36558D01*
X36352Y-36558D01*
X35840Y-36558D01*
X35786Y-36580D01*
X35745Y-36622D01*
X35722Y-36676D01*
X35722Y-36734D01*
X35722Y-37324D01*
X35744Y-37378D01*
X35786Y-37419D01*
X35839Y-37441D01*
X35839Y-38137D01*
X35766Y-38210D01*
X34519Y-38210D01*
X34465Y-38232D01*
X34424Y-38274D01*
X34401Y-38328D01*
X34401Y-38386D01*
X34401Y-39172D01*
X34423Y-39226D01*
X34465Y-39267D01*
X34519Y-39290D01*
X34577Y-39290D01*
X36741Y-39290D01*
X36795Y-39268D01*
X36836Y-39226D01*
X36859Y-39172D01*
X36859Y-39114D01*
X36859Y-38947D01*
X36868Y-38947D01*
X37410Y-39489D01*
X37411Y-39489D01*
X37412Y-39490D01*
X37510Y-39589D01*
X37511Y-39589D01*
X37553Y-39617D01*
X37574Y-39631D01*
X37575Y-39632D01*
X37650Y-39647D01*
X39068Y-39647D01*
X39705Y-40283D01*
X39705Y-40858D01*
X39704Y-40857D01*
X39690Y-40783D01*
X39689Y-40782D01*
X39675Y-40761D01*
X39647Y-40719D01*
X39647Y-40718D01*
X39331Y-40403D01*
X39268Y-40360D01*
X39192Y-40345D01*
X38650Y-40345D01*
X38586Y-40357D01*
X38574Y-40360D01*
X38510Y-40403D01*
X38238Y-40675D01*
X38238Y-40519D01*
X38238Y-40346D01*
X38238Y-40264D01*
X38206Y-40188D01*
X38148Y-40129D01*
X38072Y-40098D01*
X37856Y-40098D01*
X37805Y-40149D01*
X37805Y-40570D01*
X38187Y-40570D01*
X38238Y-40519D01*
X38238Y-40675D01*
X38235Y-40678D01*
X38187Y-40630D01*
X37855Y-40630D01*
X37805Y-40630D01*
X37745Y-40630D01*
X37745Y-40570D01*
X37745Y-40520D01*
X37745Y-40149D01*
X37694Y-40098D01*
X37478Y-40098D01*
X37402Y-40129D01*
X37354Y-40177D01*
X37310Y-40158D01*
X37252Y-40158D01*
X36750Y-40158D01*
X36723Y-40131D01*
X36723Y-40036D01*
X36674Y-39917D01*
X36583Y-39826D01*
X36464Y-39777D01*
X36336Y-39777D01*
X36217Y-39826D01*
X36126Y-39917D01*
X36077Y-40036D01*
X36077Y-40164D01*
X36126Y-40283D01*
X36217Y-40374D01*
X36336Y-40423D01*
X36431Y-40423D01*
X36622Y-40614D01*
X36622Y-40924D01*
X36639Y-40966D01*
X36213Y-40966D01*
X35956Y-40966D01*
X35801Y-40811D01*
X35738Y-40768D01*
X35662Y-40753D01*
X35503Y-40753D01*
X35499Y-40742D01*
X35408Y-40651D01*
X35289Y-40602D01*
X35161Y-40602D01*
X35042Y-40651D01*
X34951Y-40742D01*
X34902Y-40861D01*
X34902Y-40989D01*
X34951Y-41108D01*
X35042Y-41199D01*
X35161Y-41248D01*
X35177Y-41248D01*
X35177Y-41339D01*
X35226Y-41458D01*
X35317Y-41549D01*
X35436Y-41598D01*
X35469Y-41598D01*
X35043Y-42024D01*
X34425Y-42024D01*
X34361Y-42036D01*
X34349Y-42039D01*
X34286Y-42082D01*
X34165Y-42203D01*
X33447Y-42203D01*
X33447Y-42196D01*
X33447Y-37304D01*
X33447Y-37246D01*
X33447Y-36696D01*
X33425Y-36642D01*
X33383Y-36601D01*
X33329Y-36578D01*
X33271Y-36578D01*
X32921Y-36578D01*
X32867Y-36600D01*
X32826Y-36642D01*
X32803Y-36696D01*
X32803Y-36754D01*
X32803Y-36783D01*
X32528Y-36783D01*
X32516Y-36752D01*
X32393Y-36628D01*
X32232Y-36561D01*
X32057Y-36561D01*
X31769Y-36561D01*
X31608Y-36628D01*
X31484Y-36751D01*
X31417Y-36912D01*
X31417Y-37087D01*
X31484Y-37248D01*
X31607Y-37372D01*
X31768Y-37439D01*
X31943Y-37439D01*
X32231Y-37439D01*
X32392Y-37372D01*
X32516Y-37249D01*
X32529Y-37217D01*
X32803Y-37217D01*
X32803Y-37304D01*
X32825Y-37358D01*
X32867Y-37399D01*
X32921Y-37422D01*
X32979Y-37422D01*
X33329Y-37422D01*
X33383Y-37400D01*
X33424Y-37358D01*
X33447Y-37304D01*
X33447Y-42196D01*
X33425Y-42142D01*
X33383Y-42101D01*
X33329Y-42078D01*
X33273Y-42078D01*
X33283Y-42074D01*
X33374Y-41983D01*
X33423Y-41864D01*
X33423Y-41736D01*
X33374Y-41617D01*
X33283Y-41526D01*
X33164Y-41477D01*
X33036Y-41477D01*
X32982Y-41499D01*
X32982Y-39341D01*
X32982Y-39206D01*
X32982Y-39044D01*
X32982Y-38909D01*
X32951Y-38833D01*
X32892Y-38775D01*
X32816Y-38743D01*
X32734Y-38743D01*
X32581Y-38743D01*
X32530Y-38794D01*
X32530Y-39095D01*
X32931Y-39095D01*
X32982Y-39044D01*
X32982Y-39206D01*
X32931Y-39155D01*
X32530Y-39155D01*
X32530Y-39456D01*
X32581Y-39507D01*
X32734Y-39507D01*
X32816Y-39507D01*
X32892Y-39475D01*
X32951Y-39417D01*
X32982Y-39341D01*
X32982Y-41499D01*
X32922Y-41523D01*
X32922Y-40079D01*
X32922Y-40021D01*
X32922Y-39671D01*
X32900Y-39617D01*
X32858Y-39576D01*
X32804Y-39553D01*
X32746Y-39553D01*
X32470Y-39553D01*
X32470Y-39456D01*
X32470Y-39155D01*
X32470Y-39095D01*
X32470Y-38794D01*
X32419Y-38743D01*
X32266Y-38743D01*
X32184Y-38743D01*
X32108Y-38775D01*
X32049Y-38833D01*
X32018Y-38909D01*
X32018Y-39044D01*
X32069Y-39095D01*
X32470Y-39095D01*
X32470Y-39155D01*
X32069Y-39155D01*
X32018Y-39206D01*
X32018Y-39341D01*
X32049Y-39417D01*
X32108Y-39475D01*
X32184Y-39507D01*
X32266Y-39507D01*
X32419Y-39507D01*
X32470Y-39456D01*
X32470Y-39553D01*
X32196Y-39553D01*
X32142Y-39575D01*
X32101Y-39617D01*
X32078Y-39671D01*
X32078Y-39729D01*
X32078Y-40079D01*
X32100Y-40133D01*
X32142Y-40174D01*
X32196Y-40197D01*
X32254Y-40197D01*
X32303Y-40197D01*
X32303Y-40240D01*
X32226Y-40317D01*
X32177Y-40436D01*
X32177Y-40500D01*
X32172Y-40498D01*
X31956Y-40498D01*
X31907Y-40547D01*
X31907Y-40061D01*
X31907Y-39381D01*
X31907Y-39219D01*
X31907Y-38539D01*
X31876Y-38463D01*
X31817Y-38405D01*
X31741Y-38373D01*
X31659Y-38373D01*
X31381Y-38373D01*
X31330Y-38424D01*
X31330Y-39270D01*
X31856Y-39270D01*
X31907Y-39219D01*
X31907Y-39381D01*
X31856Y-39330D01*
X31330Y-39330D01*
X31330Y-40176D01*
X31381Y-40227D01*
X31659Y-40227D01*
X31741Y-40227D01*
X31817Y-40195D01*
X31876Y-40137D01*
X31907Y-40061D01*
X31907Y-40547D01*
X31905Y-40549D01*
X31905Y-40970D01*
X32287Y-40970D01*
X32338Y-40919D01*
X32338Y-40782D01*
X32436Y-40823D01*
X32564Y-40823D01*
X32683Y-40774D01*
X32774Y-40683D01*
X32823Y-40564D01*
X32823Y-40436D01*
X32774Y-40317D01*
X32697Y-40240D01*
X32697Y-40197D01*
X32804Y-40197D01*
X32858Y-40175D01*
X32899Y-40133D01*
X32922Y-40079D01*
X32922Y-41523D01*
X32917Y-41526D01*
X32826Y-41617D01*
X32777Y-41736D01*
X32777Y-41864D01*
X32826Y-41983D01*
X32917Y-42074D01*
X32926Y-42078D01*
X32921Y-42078D01*
X32867Y-42100D01*
X32826Y-42142D01*
X32803Y-42196D01*
X32803Y-42254D01*
X32803Y-42804D01*
X32825Y-42858D01*
X32867Y-42899D01*
X32871Y-42901D01*
X32630Y-42901D01*
X32633Y-42900D01*
X32674Y-42858D01*
X32697Y-42804D01*
X32697Y-42746D01*
X32697Y-42196D01*
X32675Y-42142D01*
X32633Y-42101D01*
X32579Y-42078D01*
X32521Y-42078D01*
X32338Y-42078D01*
X32338Y-41336D01*
X32338Y-41254D01*
X32338Y-41081D01*
X32287Y-41030D01*
X31905Y-41030D01*
X31905Y-41451D01*
X31956Y-41502D01*
X32172Y-41502D01*
X32248Y-41471D01*
X32306Y-41412D01*
X32338Y-41336D01*
X32338Y-42078D01*
X32171Y-42078D01*
X32117Y-42100D01*
X32076Y-42142D01*
X32053Y-42196D01*
X32053Y-42254D01*
X32053Y-42625D01*
X32053Y-42804D01*
X32053Y-42901D01*
X30500Y-42901D01*
X30343Y-42901D01*
X30307Y-42864D01*
X30307Y-42628D01*
X30424Y-42628D01*
X30478Y-42606D01*
X30519Y-42564D01*
X30542Y-42510D01*
X30542Y-42452D01*
X30542Y-41940D01*
X30520Y-41886D01*
X30483Y-41850D01*
X30519Y-41814D01*
X30542Y-41760D01*
X30542Y-41702D01*
X30542Y-41437D01*
X30693Y-41286D01*
X30722Y-41286D01*
X30722Y-41324D01*
X30744Y-41378D01*
X30786Y-41419D01*
X30840Y-41442D01*
X30898Y-41442D01*
X31410Y-41442D01*
X31455Y-41423D01*
X31502Y-41471D01*
X31578Y-41502D01*
X31794Y-41502D01*
X31845Y-41451D01*
X31845Y-41080D01*
X31845Y-41030D01*
X31845Y-40970D01*
X31845Y-40920D01*
X31845Y-40549D01*
X31794Y-40498D01*
X31578Y-40498D01*
X31502Y-40529D01*
X31454Y-40577D01*
X31410Y-40558D01*
X31352Y-40558D01*
X30840Y-40558D01*
X30786Y-40580D01*
X30786Y-40196D01*
X30859Y-40227D01*
X30941Y-40227D01*
X31219Y-40227D01*
X31270Y-40176D01*
X31270Y-39380D01*
X31270Y-39330D01*
X31270Y-39270D01*
X31270Y-39220D01*
X31270Y-38424D01*
X31219Y-38373D01*
X30941Y-38373D01*
X30859Y-38373D01*
X30783Y-38405D01*
X30769Y-38418D01*
X30764Y-38391D01*
X30763Y-38390D01*
X30742Y-38359D01*
X30702Y-38298D01*
X30702Y-38297D01*
X30602Y-38198D01*
X30510Y-38136D01*
X30400Y-38114D01*
X29378Y-38114D01*
X29378Y-31372D01*
X29378Y-31314D01*
X29378Y-30608D01*
X29356Y-30554D01*
X29314Y-30513D01*
X29260Y-30490D01*
X29202Y-30490D01*
X28140Y-30490D01*
X28086Y-30512D01*
X28045Y-30554D01*
X28022Y-30608D01*
X28022Y-30666D01*
X28022Y-31372D01*
X28044Y-31426D01*
X28086Y-31467D01*
X28140Y-31490D01*
X28198Y-31490D01*
X28483Y-31490D01*
X28483Y-31803D01*
X28446Y-31803D01*
X28392Y-31825D01*
X28351Y-31867D01*
X28328Y-31921D01*
X28328Y-31979D01*
X28328Y-32329D01*
X28350Y-32383D01*
X28392Y-32424D01*
X28446Y-32447D01*
X28504Y-32447D01*
X29054Y-32447D01*
X29108Y-32425D01*
X29149Y-32383D01*
X29172Y-32329D01*
X29172Y-32271D01*
X29172Y-31921D01*
X29150Y-31867D01*
X29108Y-31826D01*
X29054Y-31803D01*
X28996Y-31803D01*
X28917Y-31803D01*
X28917Y-31490D01*
X29260Y-31490D01*
X29314Y-31468D01*
X29355Y-31426D01*
X29378Y-31372D01*
X29378Y-38114D01*
X29221Y-38114D01*
X29183Y-38076D01*
X29172Y-38071D01*
X29172Y-33079D01*
X29172Y-33021D01*
X29172Y-32671D01*
X29150Y-32617D01*
X29108Y-32576D01*
X29054Y-32553D01*
X28996Y-32553D01*
X28446Y-32553D01*
X28392Y-32575D01*
X28351Y-32617D01*
X28328Y-32671D01*
X28328Y-32729D01*
X28328Y-33079D01*
X28350Y-33133D01*
X28392Y-33174D01*
X28446Y-33197D01*
X28504Y-33197D01*
X28533Y-33197D01*
X28533Y-33510D01*
X28476Y-33567D01*
X28427Y-33686D01*
X28427Y-33814D01*
X28476Y-33933D01*
X28567Y-34024D01*
X28686Y-34073D01*
X28814Y-34073D01*
X28933Y-34024D01*
X29024Y-33933D01*
X29073Y-33814D01*
X29073Y-33686D01*
X29024Y-33567D01*
X28967Y-33510D01*
X28967Y-33197D01*
X29054Y-33197D01*
X29108Y-33175D01*
X29149Y-33133D01*
X29172Y-33079D01*
X29172Y-38071D01*
X29129Y-38053D01*
X29071Y-38053D01*
X28271Y-38053D01*
X28217Y-38075D01*
X28176Y-38117D01*
X28153Y-38171D01*
X28153Y-38229D01*
X28153Y-38629D01*
X28175Y-38683D01*
X28217Y-38724D01*
X28271Y-38747D01*
X28329Y-38747D01*
X29129Y-38747D01*
X29183Y-38725D01*
X29221Y-38686D01*
X30214Y-38686D01*
X30214Y-39846D01*
X30177Y-39936D01*
X30177Y-40064D01*
X30214Y-40153D01*
X30214Y-40956D01*
X30098Y-41072D01*
X29776Y-41072D01*
X29722Y-41094D01*
X29681Y-41136D01*
X29678Y-41143D01*
X29678Y-41026D01*
X29656Y-40972D01*
X29614Y-40931D01*
X29560Y-40908D01*
X29502Y-40908D01*
X28990Y-40908D01*
X28936Y-40930D01*
X28900Y-40966D01*
X28868Y-40935D01*
X28902Y-40903D01*
X28902Y-40902D01*
X28942Y-40841D01*
X28963Y-40810D01*
X28964Y-40809D01*
X28985Y-40700D01*
X28986Y-40700D01*
X28986Y-40547D01*
X29129Y-40547D01*
X29183Y-40525D01*
X29224Y-40483D01*
X29247Y-40429D01*
X29247Y-40371D01*
X29247Y-40286D01*
X29646Y-40286D01*
X29736Y-40323D01*
X29864Y-40323D01*
X29983Y-40274D01*
X30074Y-40183D01*
X30123Y-40064D01*
X30123Y-39936D01*
X30074Y-39817D01*
X29983Y-39726D01*
X29864Y-39677D01*
X29736Y-39677D01*
X29646Y-39714D01*
X29307Y-39714D01*
X29307Y-39541D01*
X29307Y-39381D01*
X29307Y-39219D01*
X29307Y-39059D01*
X29276Y-38983D01*
X29217Y-38925D01*
X29141Y-38893D01*
X29059Y-38893D01*
X28781Y-38893D01*
X28730Y-38944D01*
X28730Y-39270D01*
X29256Y-39270D01*
X29307Y-39219D01*
X29307Y-39381D01*
X29256Y-39330D01*
X28730Y-39330D01*
X28730Y-39656D01*
X28781Y-39707D01*
X29059Y-39707D01*
X29141Y-39707D01*
X29217Y-39675D01*
X29276Y-39617D01*
X29307Y-39541D01*
X29307Y-39714D01*
X28900Y-39714D01*
X28791Y-39736D01*
X28759Y-39757D01*
X28697Y-39798D01*
X28670Y-39825D01*
X28670Y-39656D01*
X28670Y-39330D01*
X28670Y-39270D01*
X28670Y-38944D01*
X28619Y-38893D01*
X28341Y-38893D01*
X28259Y-38893D01*
X28183Y-38925D01*
X28124Y-38983D01*
X28093Y-39059D01*
X28093Y-39219D01*
X28144Y-39270D01*
X28670Y-39270D01*
X28670Y-39330D01*
X28144Y-39330D01*
X28093Y-39381D01*
X28093Y-39541D01*
X28124Y-39617D01*
X28183Y-39675D01*
X28259Y-39707D01*
X28341Y-39707D01*
X28619Y-39707D01*
X28670Y-39656D01*
X28670Y-39825D01*
X28642Y-39853D01*
X28271Y-39853D01*
X28217Y-39875D01*
X28176Y-39917D01*
X28153Y-39971D01*
X28153Y-40029D01*
X28153Y-40429D01*
X28175Y-40483D01*
X28217Y-40524D01*
X28271Y-40547D01*
X28329Y-40547D01*
X28414Y-40547D01*
X28414Y-40581D01*
X28323Y-40673D01*
X28261Y-40765D01*
X28239Y-40875D01*
X28239Y-40908D01*
X28186Y-40930D01*
X28145Y-40972D01*
X28122Y-41026D01*
X28122Y-41084D01*
X28122Y-41674D01*
X28144Y-41728D01*
X28186Y-41769D01*
X28239Y-41791D01*
X28239Y-41808D01*
X28186Y-41830D01*
X28145Y-41872D01*
X28122Y-41926D01*
X28122Y-41984D01*
X28122Y-42574D01*
X28144Y-42628D01*
X28186Y-42669D01*
X28239Y-42691D01*
X28239Y-45156D01*
X28217Y-45178D01*
X27923Y-45178D01*
X27923Y-29223D01*
X47077Y-29223D01*
X47077Y-30184D01*
X47077Y-30184D01*
G37*
G54D41*
X47077Y-30184D02*
X46978Y-30085D01*
X46978Y-29428D01*
X46956Y-29374D01*
X46914Y-29333D01*
X46860Y-29310D01*
X46802Y-29310D01*
X45740Y-29310D01*
X45686Y-29332D01*
X45645Y-29374D01*
X45622Y-29428D01*
X45622Y-29486D01*
X45622Y-30192D01*
X45644Y-30246D01*
X45686Y-30287D01*
X45740Y-30310D01*
X45798Y-30310D01*
X46617Y-30310D01*
X46793Y-30485D01*
X46793Y-30490D01*
X45740Y-30490D01*
X45686Y-30512D01*
X45645Y-30554D01*
X45622Y-30608D01*
X45622Y-30666D01*
X45622Y-31372D01*
X45644Y-31426D01*
X45686Y-31467D01*
X45740Y-31490D01*
X45798Y-31490D01*
X46083Y-31490D01*
X46083Y-31803D01*
X45996Y-31803D01*
X45942Y-31825D01*
X45901Y-31867D01*
X45878Y-31921D01*
X45878Y-31979D01*
X45878Y-32329D01*
X45900Y-32383D01*
X45942Y-32424D01*
X45996Y-32447D01*
X46054Y-32447D01*
X46604Y-32447D01*
X46658Y-32425D01*
X46699Y-32383D01*
X46722Y-32329D01*
X46722Y-32271D01*
X46722Y-31921D01*
X46700Y-31867D01*
X46658Y-31826D01*
X46604Y-31803D01*
X46546Y-31803D01*
X46517Y-31803D01*
X46517Y-31490D01*
X46793Y-31490D01*
X46793Y-33914D01*
X46722Y-33985D01*
X46722Y-33079D01*
X46722Y-33021D01*
X46722Y-32671D01*
X46700Y-32617D01*
X46658Y-32576D01*
X46604Y-32553D01*
X46546Y-32553D01*
X45996Y-32553D01*
X45942Y-32575D01*
X45901Y-32617D01*
X45878Y-32671D01*
X45878Y-32729D01*
X45878Y-33079D01*
X45900Y-33133D01*
X45942Y-33174D01*
X45996Y-33197D01*
X46054Y-33197D01*
X46083Y-33197D01*
X46083Y-33510D01*
X46026Y-33567D01*
X45977Y-33686D01*
X45977Y-33814D01*
X46026Y-33933D01*
X46117Y-34024D01*
X46236Y-34073D01*
X46364Y-34073D01*
X46483Y-34024D01*
X46574Y-33933D01*
X46623Y-33814D01*
X46623Y-33686D01*
X46574Y-33567D01*
X46517Y-33510D01*
X46517Y-33197D01*
X46604Y-33197D01*
X46658Y-33175D01*
X46699Y-33133D01*
X46722Y-33079D01*
X46722Y-33985D01*
X46214Y-34493D01*
X45789Y-34493D01*
X45710Y-34509D01*
X45642Y-34554D01*
X45597Y-34599D01*
X45597Y-30700D01*
X45588Y-30655D01*
X45588Y-29842D01*
X45596Y-29800D01*
X45582Y-29724D01*
X45539Y-29661D01*
X45239Y-29361D01*
X45176Y-29318D01*
X45100Y-29303D01*
X29234Y-29303D01*
X29187Y-29294D01*
X29108Y-29309D01*
X29106Y-29310D01*
X28140Y-29310D01*
X28086Y-29332D01*
X28045Y-29374D01*
X28022Y-29428D01*
X28022Y-29486D01*
X28022Y-30192D01*
X28044Y-30246D01*
X28086Y-30287D01*
X28140Y-30310D01*
X28198Y-30310D01*
X29260Y-30310D01*
X29314Y-30288D01*
X29355Y-30246D01*
X29378Y-30192D01*
X29378Y-30134D01*
X29378Y-29697D01*
X30578Y-29697D01*
X30578Y-29754D01*
X30578Y-30304D01*
X30600Y-30358D01*
X30642Y-30399D01*
X30696Y-30422D01*
X30754Y-30422D01*
X31304Y-30422D01*
X31358Y-30400D01*
X31399Y-30358D01*
X31422Y-30304D01*
X31422Y-30246D01*
X31422Y-29697D01*
X31704Y-29697D01*
X31641Y-29760D01*
X31577Y-29916D01*
X31577Y-30084D01*
X31641Y-30239D01*
X31760Y-30359D01*
X31916Y-30423D01*
X32084Y-30423D01*
X32239Y-30359D01*
X32359Y-30240D01*
X32423Y-30084D01*
X32423Y-29916D01*
X32359Y-29761D01*
X32295Y-29697D01*
X32704Y-29697D01*
X32641Y-29760D01*
X32577Y-29916D01*
X32577Y-30084D01*
X32641Y-30239D01*
X32760Y-30359D01*
X32916Y-30423D01*
X33084Y-30423D01*
X33239Y-30359D01*
X33359Y-30240D01*
X33423Y-30084D01*
X33423Y-29916D01*
X33359Y-29761D01*
X33295Y-29697D01*
X33704Y-29697D01*
X33641Y-29760D01*
X33577Y-29916D01*
X33577Y-30084D01*
X33641Y-30239D01*
X33760Y-30359D01*
X33916Y-30423D01*
X34084Y-30423D01*
X34239Y-30359D01*
X34359Y-30240D01*
X34423Y-30084D01*
X34423Y-29916D01*
X34359Y-29761D01*
X34295Y-29697D01*
X34704Y-29697D01*
X34641Y-29760D01*
X34577Y-29916D01*
X34577Y-30084D01*
X34641Y-30239D01*
X34760Y-30359D01*
X34916Y-30423D01*
X35084Y-30423D01*
X35239Y-30359D01*
X35359Y-30240D01*
X35423Y-30084D01*
X35423Y-29916D01*
X35359Y-29761D01*
X35295Y-29697D01*
X35704Y-29697D01*
X35641Y-29760D01*
X35577Y-29916D01*
X35577Y-30084D01*
X35641Y-30239D01*
X35760Y-30359D01*
X35916Y-30423D01*
X36084Y-30423D01*
X36239Y-30359D01*
X36359Y-30240D01*
X36423Y-30084D01*
X36423Y-29916D01*
X36359Y-29761D01*
X36295Y-29697D01*
X37251Y-29697D01*
X37026Y-29790D01*
X36791Y-30026D01*
X36663Y-30333D01*
X36663Y-30666D01*
X36790Y-30974D01*
X37026Y-31209D01*
X37333Y-31337D01*
X37666Y-31337D01*
X37974Y-31210D01*
X38209Y-30974D01*
X38337Y-30667D01*
X38337Y-30334D01*
X38210Y-30026D01*
X37974Y-29791D01*
X37748Y-29697D01*
X38578Y-29697D01*
X38578Y-29754D01*
X38578Y-30304D01*
X38600Y-30358D01*
X38642Y-30399D01*
X38696Y-30422D01*
X38754Y-30422D01*
X39304Y-30422D01*
X39358Y-30400D01*
X39399Y-30358D01*
X39422Y-30304D01*
X39422Y-30246D01*
X39422Y-29697D01*
X39704Y-29697D01*
X39641Y-29760D01*
X39577Y-29916D01*
X39577Y-30084D01*
X39641Y-30239D01*
X39760Y-30359D01*
X39916Y-30423D01*
X40084Y-30423D01*
X40239Y-30359D01*
X40359Y-30240D01*
X40423Y-30084D01*
X40423Y-29916D01*
X40359Y-29761D01*
X40295Y-29697D01*
X40704Y-29697D01*
X40641Y-29760D01*
X40577Y-29916D01*
X40577Y-30084D01*
X40641Y-30239D01*
X40760Y-30359D01*
X40916Y-30423D01*
X41084Y-30423D01*
X41239Y-30359D01*
X41359Y-30240D01*
X41423Y-30084D01*
X41423Y-29916D01*
X41359Y-29761D01*
X41295Y-29697D01*
X41704Y-29697D01*
X41641Y-29760D01*
X41577Y-29916D01*
X41577Y-30084D01*
X41641Y-30239D01*
X41760Y-30359D01*
X41916Y-30423D01*
X42084Y-30423D01*
X42239Y-30359D01*
X42359Y-30240D01*
X42423Y-30084D01*
X42423Y-29916D01*
X42359Y-29761D01*
X42295Y-29697D01*
X42578Y-29697D01*
X42578Y-29754D01*
X42578Y-30304D01*
X42600Y-30358D01*
X42642Y-30399D01*
X42696Y-30422D01*
X42754Y-30422D01*
X42793Y-30422D01*
X42793Y-30553D01*
X42696Y-30553D01*
X42642Y-30575D01*
X42601Y-30617D01*
X42578Y-30671D01*
X42578Y-30729D01*
X42578Y-30879D01*
X42471Y-30985D01*
X42470Y-30895D01*
X42407Y-30742D01*
X42325Y-30718D01*
X42282Y-30760D01*
X42282Y-30675D01*
X42258Y-30593D01*
X42083Y-30526D01*
X41895Y-30530D01*
X41742Y-30593D01*
X41718Y-30675D01*
X42000Y-30958D01*
X42282Y-30675D01*
X42282Y-30760D01*
X42042Y-31000D01*
X42000Y-31042D01*
X41958Y-31084D01*
X41958Y-31000D01*
X41675Y-30718D01*
X41593Y-30742D01*
X41526Y-30917D01*
X41530Y-31105D01*
X41593Y-31258D01*
X41675Y-31282D01*
X41958Y-31000D01*
X41958Y-31084D01*
X41718Y-31325D01*
X41742Y-31407D01*
X41917Y-31474D01*
X42105Y-31470D01*
X42258Y-31407D01*
X42266Y-31379D01*
X42282Y-31395D01*
X42290Y-31403D01*
X42293Y-31400D01*
X42293Y-31694D01*
X42282Y-31683D01*
X42240Y-31641D01*
X42084Y-31577D01*
X41916Y-31577D01*
X41761Y-31641D01*
X41641Y-31760D01*
X41577Y-31916D01*
X41577Y-32084D01*
X41636Y-32227D01*
X41586Y-32227D01*
X41474Y-32273D01*
X41474Y-31083D01*
X41470Y-30895D01*
X41407Y-30742D01*
X41325Y-30718D01*
X41282Y-30760D01*
X41282Y-30675D01*
X41258Y-30593D01*
X41083Y-30526D01*
X40895Y-30530D01*
X40742Y-30593D01*
X40718Y-30675D01*
X41000Y-30958D01*
X41282Y-30675D01*
X41282Y-30760D01*
X41042Y-31000D01*
X41325Y-31282D01*
X41407Y-31258D01*
X41474Y-31083D01*
X41474Y-32273D01*
X41467Y-32276D01*
X41423Y-32320D01*
X41423Y-32084D01*
X41423Y-31916D01*
X41359Y-31761D01*
X41282Y-31683D01*
X41282Y-31325D01*
X41000Y-31042D01*
X40958Y-31084D01*
X40958Y-31000D01*
X40675Y-30718D01*
X40593Y-30742D01*
X40526Y-30917D01*
X40530Y-31105D01*
X40593Y-31258D01*
X40675Y-31282D01*
X40958Y-31000D01*
X40958Y-31084D01*
X40718Y-31325D01*
X40742Y-31407D01*
X40917Y-31474D01*
X41105Y-31470D01*
X41258Y-31407D01*
X41282Y-31325D01*
X41282Y-31683D01*
X41240Y-31641D01*
X41084Y-31577D01*
X40916Y-31577D01*
X40761Y-31641D01*
X40641Y-31760D01*
X40577Y-31916D01*
X40577Y-32084D01*
X40641Y-32239D01*
X40760Y-32359D01*
X40916Y-32423D01*
X41084Y-32423D01*
X41239Y-32359D01*
X41359Y-32240D01*
X41423Y-32084D01*
X41423Y-32320D01*
X41376Y-32367D01*
X41327Y-32486D01*
X41327Y-32614D01*
X41376Y-32733D01*
X41467Y-32824D01*
X41586Y-32873D01*
X41714Y-32873D01*
X41833Y-32824D01*
X41900Y-32757D01*
X42150Y-32757D01*
X42150Y-32756D01*
X42229Y-32741D01*
X42296Y-32696D01*
X42646Y-32347D01*
X42646Y-32346D01*
X42675Y-32302D01*
X42690Y-32280D01*
X42691Y-32279D01*
X42706Y-32201D01*
X42707Y-32200D01*
X42707Y-32007D01*
X42766Y-32007D01*
X42919Y-32007D01*
X42970Y-31956D01*
X42970Y-31705D01*
X42970Y-31655D01*
X42970Y-31595D01*
X42970Y-31545D01*
X42970Y-31294D01*
X42919Y-31243D01*
X42799Y-31243D01*
X42845Y-31197D01*
X43304Y-31197D01*
X43358Y-31175D01*
X43399Y-31133D01*
X43422Y-31079D01*
X43422Y-31021D01*
X43422Y-30671D01*
X43400Y-30617D01*
X43358Y-30576D01*
X43304Y-30553D01*
X43246Y-30553D01*
X43207Y-30553D01*
X43207Y-30422D01*
X43304Y-30422D01*
X43358Y-30400D01*
X43399Y-30358D01*
X43422Y-30304D01*
X43422Y-30246D01*
X43422Y-29697D01*
X43704Y-29697D01*
X43641Y-29760D01*
X43577Y-29916D01*
X43577Y-30084D01*
X43641Y-30239D01*
X43760Y-30359D01*
X43793Y-30372D01*
X43793Y-30472D01*
X43676Y-30472D01*
X43622Y-30494D01*
X43581Y-30536D01*
X43558Y-30590D01*
X43558Y-30648D01*
X43558Y-31160D01*
X43580Y-31214D01*
X43616Y-31249D01*
X43581Y-31286D01*
X43558Y-31340D01*
X43558Y-31398D01*
X43558Y-31910D01*
X43580Y-31964D01*
X43622Y-32005D01*
X43676Y-32028D01*
X43734Y-32028D01*
X44324Y-32028D01*
X44378Y-32006D01*
X44419Y-31964D01*
X44442Y-31910D01*
X44442Y-31852D01*
X44442Y-31600D01*
X44483Y-31559D01*
X44519Y-31595D01*
X44920Y-31595D01*
X44920Y-31294D01*
X44869Y-31243D01*
X44799Y-31243D01*
X44845Y-31197D01*
X45203Y-31197D01*
X45203Y-31243D01*
X45184Y-31243D01*
X45031Y-31243D01*
X44980Y-31294D01*
X44980Y-31545D01*
X44980Y-31595D01*
X44980Y-31655D01*
X44980Y-31705D01*
X44980Y-31956D01*
X45031Y-32007D01*
X45184Y-32007D01*
X45203Y-32007D01*
X45203Y-32996D01*
X45197Y-32990D01*
X45197Y-32750D01*
X45196Y-32749D01*
X45182Y-32675D01*
X45181Y-32674D01*
X45167Y-32653D01*
X45139Y-32611D01*
X45139Y-32610D01*
X45130Y-32601D01*
X45130Y-32226D01*
X45108Y-32172D01*
X45066Y-32131D01*
X45012Y-32108D01*
X44954Y-32108D01*
X44920Y-32108D01*
X44920Y-31956D01*
X44920Y-31655D01*
X44519Y-31655D01*
X44468Y-31706D01*
X44468Y-31841D01*
X44499Y-31917D01*
X44558Y-31975D01*
X44634Y-32007D01*
X44716Y-32007D01*
X44869Y-32007D01*
X44920Y-31956D01*
X44920Y-32108D01*
X44364Y-32108D01*
X44310Y-32130D01*
X44269Y-32172D01*
X44246Y-32226D01*
X44246Y-32284D01*
X44246Y-32539D01*
X44183Y-32476D01*
X44064Y-32427D01*
X43936Y-32427D01*
X43817Y-32476D01*
X43754Y-32539D01*
X43754Y-32226D01*
X43732Y-32172D01*
X43690Y-32131D01*
X43636Y-32108D01*
X43578Y-32108D01*
X43482Y-32108D01*
X43482Y-31841D01*
X43482Y-31706D01*
X43482Y-31544D01*
X43482Y-31409D01*
X43451Y-31333D01*
X43392Y-31275D01*
X43316Y-31243D01*
X43234Y-31243D01*
X43081Y-31243D01*
X43030Y-31294D01*
X43030Y-31595D01*
X43431Y-31595D01*
X43482Y-31544D01*
X43482Y-31706D01*
X43431Y-31655D01*
X43030Y-31655D01*
X43030Y-31956D01*
X43081Y-32007D01*
X43234Y-32007D01*
X43316Y-32007D01*
X43392Y-31975D01*
X43451Y-31917D01*
X43482Y-31841D01*
X43482Y-32108D01*
X42988Y-32108D01*
X42934Y-32130D01*
X42893Y-32172D01*
X42870Y-32226D01*
X42870Y-32284D01*
X42870Y-32874D01*
X42892Y-32928D01*
X42934Y-32969D01*
X42988Y-32992D01*
X43046Y-32992D01*
X43105Y-32992D01*
X43105Y-33187D01*
X43121Y-33266D01*
X43166Y-33333D01*
X43303Y-33470D01*
X43303Y-33804D01*
X43325Y-33858D01*
X43367Y-33899D01*
X43421Y-33922D01*
X43479Y-33922D01*
X43829Y-33922D01*
X43883Y-33900D01*
X43924Y-33858D01*
X43947Y-33804D01*
X43947Y-33746D01*
X43947Y-33239D01*
X44053Y-33345D01*
X44053Y-33804D01*
X44075Y-33858D01*
X44117Y-33899D01*
X44171Y-33922D01*
X44229Y-33922D01*
X44579Y-33922D01*
X44633Y-33900D01*
X44674Y-33858D01*
X44697Y-33804D01*
X44697Y-33746D01*
X44697Y-33362D01*
X44726Y-33433D01*
X44817Y-33524D01*
X44936Y-33573D01*
X45064Y-33573D01*
X45183Y-33524D01*
X45203Y-33504D01*
X45203Y-38118D01*
X45023Y-38298D01*
X45023Y-38064D01*
X45023Y-37936D01*
X44974Y-37817D01*
X44883Y-37726D01*
X44764Y-37677D01*
X44636Y-37677D01*
X44517Y-37726D01*
X44440Y-37803D01*
X43580Y-37803D01*
X43580Y-37329D01*
X43580Y-37271D01*
X43580Y-36671D01*
X43558Y-36617D01*
X43516Y-36576D01*
X43462Y-36553D01*
X43404Y-36553D01*
X42538Y-36553D01*
X42484Y-36575D01*
X42443Y-36617D01*
X42420Y-36671D01*
X42420Y-36729D01*
X42420Y-36783D01*
X42197Y-36783D01*
X42197Y-36696D01*
X42175Y-36642D01*
X42133Y-36601D01*
X42079Y-36578D01*
X42021Y-36578D01*
X41671Y-36578D01*
X41617Y-36600D01*
X41576Y-36642D01*
X41553Y-36696D01*
X41553Y-36754D01*
X41553Y-37304D01*
X41575Y-37358D01*
X41617Y-37399D01*
X41671Y-37422D01*
X41729Y-37422D01*
X42079Y-37422D01*
X42133Y-37400D01*
X42174Y-37358D01*
X42197Y-37304D01*
X42197Y-37246D01*
X42197Y-37217D01*
X42420Y-37217D01*
X42420Y-37329D01*
X42442Y-37383D01*
X42484Y-37424D01*
X42538Y-37447D01*
X42596Y-37447D01*
X43462Y-37447D01*
X43516Y-37425D01*
X43557Y-37383D01*
X43580Y-37329D01*
X43580Y-37803D01*
X42549Y-37803D01*
X42500Y-37793D01*
X41586Y-37793D01*
X41307Y-37514D01*
X41307Y-37422D01*
X41329Y-37422D01*
X41383Y-37400D01*
X41424Y-37358D01*
X41447Y-37304D01*
X41447Y-37246D01*
X41447Y-36696D01*
X41425Y-36642D01*
X41383Y-36601D01*
X41329Y-36578D01*
X41271Y-36578D01*
X40921Y-36578D01*
X40907Y-36583D01*
X40907Y-36161D01*
X41058Y-36161D01*
X41080Y-36214D01*
X41122Y-36255D01*
X41176Y-36278D01*
X41234Y-36278D01*
X41824Y-36278D01*
X41878Y-36256D01*
X41919Y-36214D01*
X41941Y-36161D01*
X42447Y-36161D01*
X42484Y-36248D01*
X42607Y-36372D01*
X42768Y-36439D01*
X42943Y-36439D01*
X43231Y-36439D01*
X43392Y-36372D01*
X43516Y-36249D01*
X43583Y-36088D01*
X43583Y-35913D01*
X43516Y-35752D01*
X43393Y-35628D01*
X43232Y-35561D01*
X43057Y-35561D01*
X42769Y-35561D01*
X42701Y-35589D01*
X41941Y-35589D01*
X41920Y-35536D01*
X41883Y-35500D01*
X41919Y-35464D01*
X41941Y-35411D01*
X42700Y-35411D01*
X42768Y-35439D01*
X42943Y-35439D01*
X43231Y-35439D01*
X43392Y-35372D01*
X43516Y-35249D01*
X43583Y-35088D01*
X43583Y-34913D01*
X43516Y-34752D01*
X43393Y-34628D01*
X43232Y-34561D01*
X43057Y-34561D01*
X42769Y-34561D01*
X42608Y-34628D01*
X42484Y-34751D01*
X42447Y-34839D01*
X41941Y-34839D01*
X41920Y-34786D01*
X41878Y-34745D01*
X41824Y-34722D01*
X41766Y-34722D01*
X41176Y-34722D01*
X41122Y-34744D01*
X41081Y-34786D01*
X41058Y-34839D01*
X40925Y-34839D01*
X40474Y-34839D01*
X40474Y-31083D01*
X40470Y-30895D01*
X40407Y-30742D01*
X40325Y-30718D01*
X40282Y-30760D01*
X40282Y-30675D01*
X40258Y-30593D01*
X40083Y-30526D01*
X39895Y-30530D01*
X39742Y-30593D01*
X39718Y-30675D01*
X40000Y-30958D01*
X40282Y-30675D01*
X40282Y-30760D01*
X40042Y-31000D01*
X40325Y-31282D01*
X40407Y-31258D01*
X40474Y-31083D01*
X40474Y-34839D01*
X40423Y-34839D01*
X40423Y-32084D01*
X40423Y-31916D01*
X40359Y-31761D01*
X40282Y-31683D01*
X40282Y-31325D01*
X40000Y-31042D01*
X39958Y-31084D01*
X39958Y-31000D01*
X39675Y-30718D01*
X39593Y-30742D01*
X39526Y-30917D01*
X39530Y-31105D01*
X39593Y-31258D01*
X39675Y-31282D01*
X39958Y-31000D01*
X39958Y-31084D01*
X39718Y-31325D01*
X39742Y-31407D01*
X39917Y-31474D01*
X40105Y-31470D01*
X40258Y-31407D01*
X40282Y-31325D01*
X40282Y-31683D01*
X40240Y-31641D01*
X40084Y-31577D01*
X39916Y-31577D01*
X39761Y-31641D01*
X39641Y-31760D01*
X39577Y-31916D01*
X39577Y-32084D01*
X39641Y-32239D01*
X39760Y-32359D01*
X39916Y-32423D01*
X40084Y-32423D01*
X40239Y-32359D01*
X40359Y-32240D01*
X40423Y-32084D01*
X40423Y-34839D01*
X39482Y-34839D01*
X39482Y-31316D01*
X39482Y-31234D01*
X39482Y-31081D01*
X39482Y-30919D01*
X39482Y-30766D01*
X39482Y-30684D01*
X39450Y-30608D01*
X39392Y-30549D01*
X39316Y-30518D01*
X39081Y-30518D01*
X39030Y-30569D01*
X39030Y-30970D01*
X39431Y-30970D01*
X39482Y-30919D01*
X39482Y-31081D01*
X39431Y-31030D01*
X39030Y-31030D01*
X39030Y-31431D01*
X39081Y-31482D01*
X39316Y-31482D01*
X39392Y-31451D01*
X39450Y-31392D01*
X39482Y-31316D01*
X39482Y-34839D01*
X39422Y-34839D01*
X39422Y-32304D01*
X39422Y-32246D01*
X39422Y-31696D01*
X39400Y-31642D01*
X39358Y-31601D01*
X39304Y-31578D01*
X39246Y-31578D01*
X38970Y-31578D01*
X38970Y-31431D01*
X38970Y-31030D01*
X38970Y-30970D01*
X38970Y-30569D01*
X38919Y-30518D01*
X38684Y-30518D01*
X38608Y-30549D01*
X38550Y-30608D01*
X38518Y-30684D01*
X38518Y-30766D01*
X38518Y-30919D01*
X38569Y-30970D01*
X38970Y-30970D01*
X38970Y-31030D01*
X38569Y-31030D01*
X38518Y-31081D01*
X38518Y-31234D01*
X38518Y-31316D01*
X38550Y-31392D01*
X38608Y-31451D01*
X38684Y-31482D01*
X38919Y-31482D01*
X38970Y-31431D01*
X38970Y-31578D01*
X38696Y-31578D01*
X38642Y-31600D01*
X38601Y-31642D01*
X38578Y-31696D01*
X38578Y-31754D01*
X38578Y-32304D01*
X38600Y-32358D01*
X38642Y-32399D01*
X38696Y-32422D01*
X38754Y-32422D01*
X39304Y-32422D01*
X39358Y-32400D01*
X39399Y-32358D01*
X39422Y-32304D01*
X39422Y-34839D01*
X38257Y-34839D01*
X38257Y-33216D01*
X38257Y-33134D01*
X38257Y-32981D01*
X38257Y-32819D01*
X38257Y-32666D01*
X38257Y-32584D01*
X38225Y-32508D01*
X38217Y-32500D01*
X38225Y-32492D01*
X38257Y-32416D01*
X38257Y-32334D01*
X38257Y-32181D01*
X38257Y-32019D01*
X38257Y-31866D01*
X38257Y-31784D01*
X38225Y-31708D01*
X38167Y-31649D01*
X38091Y-31618D01*
X37956Y-31618D01*
X37905Y-31669D01*
X37905Y-32070D01*
X38206Y-32070D01*
X38257Y-32019D01*
X38257Y-32181D01*
X38206Y-32130D01*
X37905Y-32130D01*
X37905Y-32469D01*
X37905Y-32531D01*
X37905Y-32870D01*
X38206Y-32870D01*
X38257Y-32819D01*
X38257Y-32981D01*
X38206Y-32930D01*
X37905Y-32930D01*
X37905Y-33331D01*
X37956Y-33382D01*
X38091Y-33382D01*
X38167Y-33351D01*
X38225Y-33292D01*
X38257Y-33216D01*
X38257Y-34839D01*
X37853Y-34839D01*
X37845Y-34819D01*
X37845Y-33331D01*
X37845Y-32930D01*
X37845Y-32870D01*
X37845Y-32531D01*
X37845Y-32469D01*
X37845Y-32130D01*
X37845Y-32070D01*
X37845Y-31669D01*
X37794Y-31618D01*
X37659Y-31618D01*
X37583Y-31649D01*
X37525Y-31708D01*
X37493Y-31784D01*
X37493Y-31866D01*
X37493Y-32019D01*
X37544Y-32070D01*
X37845Y-32070D01*
X37845Y-32130D01*
X37544Y-32130D01*
X37493Y-32181D01*
X37493Y-32334D01*
X37493Y-32416D01*
X37525Y-32492D01*
X37532Y-32500D01*
X37525Y-32508D01*
X37493Y-32584D01*
X37493Y-32666D01*
X37493Y-32819D01*
X37544Y-32870D01*
X37845Y-32870D01*
X37845Y-32930D01*
X37544Y-32930D01*
X37493Y-32981D01*
X37493Y-33134D01*
X37493Y-33216D01*
X37525Y-33292D01*
X37583Y-33351D01*
X37659Y-33382D01*
X37794Y-33382D01*
X37845Y-33331D01*
X37845Y-34819D01*
X37824Y-34767D01*
X37733Y-34676D01*
X37614Y-34627D01*
X37486Y-34627D01*
X37447Y-34643D01*
X37447Y-33204D01*
X37447Y-33146D01*
X37447Y-32596D01*
X37425Y-32542D01*
X37383Y-32501D01*
X37381Y-32500D01*
X37383Y-32500D01*
X37424Y-32458D01*
X37447Y-32404D01*
X37447Y-32346D01*
X37447Y-31796D01*
X37425Y-31742D01*
X37383Y-31701D01*
X37329Y-31678D01*
X37271Y-31678D01*
X36921Y-31678D01*
X36867Y-31700D01*
X36826Y-31742D01*
X36803Y-31796D01*
X36803Y-31854D01*
X36803Y-31893D01*
X36474Y-31893D01*
X36474Y-31083D01*
X36470Y-30895D01*
X36407Y-30742D01*
X36325Y-30718D01*
X36282Y-30760D01*
X36282Y-30675D01*
X36258Y-30593D01*
X36083Y-30526D01*
X35895Y-30530D01*
X35742Y-30593D01*
X35718Y-30675D01*
X36000Y-30958D01*
X36282Y-30675D01*
X36282Y-30760D01*
X36042Y-31000D01*
X36325Y-31282D01*
X36407Y-31258D01*
X36474Y-31083D01*
X36474Y-31893D01*
X36413Y-31893D01*
X36359Y-31761D01*
X36282Y-31683D01*
X36282Y-31325D01*
X36000Y-31042D01*
X35958Y-31084D01*
X35958Y-31000D01*
X35675Y-30718D01*
X35593Y-30742D01*
X35526Y-30917D01*
X35530Y-31105D01*
X35593Y-31258D01*
X35675Y-31282D01*
X35958Y-31000D01*
X35958Y-31084D01*
X35718Y-31325D01*
X35742Y-31407D01*
X35917Y-31474D01*
X36105Y-31470D01*
X36258Y-31407D01*
X36282Y-31325D01*
X36282Y-31683D01*
X36240Y-31641D01*
X36084Y-31577D01*
X35916Y-31577D01*
X35761Y-31641D01*
X35641Y-31760D01*
X35577Y-31916D01*
X35577Y-32084D01*
X35641Y-32239D01*
X35760Y-32359D01*
X35916Y-32423D01*
X36084Y-32423D01*
X36239Y-32359D01*
X36291Y-32307D01*
X36803Y-32307D01*
X36803Y-32404D01*
X36825Y-32458D01*
X36867Y-32499D01*
X36867Y-32500D01*
X36826Y-32542D01*
X36803Y-32596D01*
X36803Y-32654D01*
X36803Y-32693D01*
X35474Y-32693D01*
X35474Y-31083D01*
X35470Y-30895D01*
X35407Y-30742D01*
X35325Y-30718D01*
X35282Y-30760D01*
X35282Y-30675D01*
X35258Y-30593D01*
X35083Y-30526D01*
X34895Y-30530D01*
X34742Y-30593D01*
X34718Y-30675D01*
X35000Y-30958D01*
X35282Y-30675D01*
X35282Y-30760D01*
X35042Y-31000D01*
X35325Y-31282D01*
X35407Y-31258D01*
X35474Y-31083D01*
X35474Y-32693D01*
X35207Y-32693D01*
X35207Y-32372D01*
X35239Y-32359D01*
X35359Y-32240D01*
X35423Y-32084D01*
X35423Y-31916D01*
X35359Y-31761D01*
X35282Y-31683D01*
X35282Y-31325D01*
X35000Y-31042D01*
X34958Y-31084D01*
X34958Y-31000D01*
X34675Y-30718D01*
X34593Y-30742D01*
X34526Y-30917D01*
X34530Y-31105D01*
X34593Y-31258D01*
X34675Y-31282D01*
X34958Y-31000D01*
X34958Y-31084D01*
X34718Y-31325D01*
X34742Y-31407D01*
X34917Y-31474D01*
X35105Y-31470D01*
X35258Y-31407D01*
X35282Y-31325D01*
X35282Y-31683D01*
X35240Y-31641D01*
X35084Y-31577D01*
X34916Y-31577D01*
X34761Y-31641D01*
X34641Y-31760D01*
X34577Y-31916D01*
X34577Y-32084D01*
X34641Y-32239D01*
X34760Y-32359D01*
X34793Y-32372D01*
X34793Y-32900D01*
X34809Y-32979D01*
X34854Y-33046D01*
X34921Y-33091D01*
X35000Y-33107D01*
X36803Y-33107D01*
X36803Y-33204D01*
X36825Y-33258D01*
X36867Y-33299D01*
X36921Y-33322D01*
X36979Y-33322D01*
X37329Y-33322D01*
X37383Y-33300D01*
X37424Y-33258D01*
X37447Y-33204D01*
X37447Y-34643D01*
X37367Y-34676D01*
X37276Y-34767D01*
X37246Y-34839D01*
X34474Y-34839D01*
X34474Y-31083D01*
X34470Y-30895D01*
X34407Y-30742D01*
X34325Y-30718D01*
X34282Y-30760D01*
X34282Y-30675D01*
X34258Y-30593D01*
X34083Y-30526D01*
X33895Y-30530D01*
X33742Y-30593D01*
X33718Y-30675D01*
X34000Y-30958D01*
X34282Y-30675D01*
X34282Y-30760D01*
X34042Y-31000D01*
X34325Y-31282D01*
X34407Y-31258D01*
X34474Y-31083D01*
X34474Y-34839D01*
X34423Y-34839D01*
X34423Y-32084D01*
X34423Y-31916D01*
X34359Y-31761D01*
X34282Y-31683D01*
X34282Y-31325D01*
X34000Y-31042D01*
X33958Y-31084D01*
X33958Y-31000D01*
X33675Y-30718D01*
X33593Y-30742D01*
X33526Y-30917D01*
X33530Y-31105D01*
X33593Y-31258D01*
X33675Y-31282D01*
X33958Y-31000D01*
X33958Y-31084D01*
X33718Y-31325D01*
X33742Y-31407D01*
X33917Y-31474D01*
X34105Y-31470D01*
X34258Y-31407D01*
X34282Y-31325D01*
X34282Y-31683D01*
X34240Y-31641D01*
X34084Y-31577D01*
X33916Y-31577D01*
X33761Y-31641D01*
X33641Y-31760D01*
X33577Y-31916D01*
X33577Y-32084D01*
X33641Y-32239D01*
X33760Y-32359D01*
X33916Y-32423D01*
X34084Y-32423D01*
X34239Y-32359D01*
X34359Y-32240D01*
X34423Y-32084D01*
X34423Y-34839D01*
X33941Y-34839D01*
X33920Y-34786D01*
X33878Y-34745D01*
X33824Y-34722D01*
X33766Y-34722D01*
X33474Y-34722D01*
X33474Y-31083D01*
X33470Y-30895D01*
X33407Y-30742D01*
X33325Y-30718D01*
X33282Y-30760D01*
X33282Y-30675D01*
X33258Y-30593D01*
X33083Y-30526D01*
X32895Y-30530D01*
X32742Y-30593D01*
X32718Y-30675D01*
X33000Y-30958D01*
X33282Y-30675D01*
X33282Y-30760D01*
X33042Y-31000D01*
X33325Y-31282D01*
X33407Y-31258D01*
X33474Y-31083D01*
X33474Y-34722D01*
X33423Y-34722D01*
X33423Y-32084D01*
X33423Y-31916D01*
X33359Y-31761D01*
X33282Y-31683D01*
X33282Y-31325D01*
X33000Y-31042D01*
X32958Y-31084D01*
X32958Y-31000D01*
X32675Y-30718D01*
X32593Y-30742D01*
X32526Y-30917D01*
X32530Y-31105D01*
X32593Y-31258D01*
X32675Y-31282D01*
X32958Y-31000D01*
X32958Y-31084D01*
X32718Y-31325D01*
X32742Y-31407D01*
X32917Y-31474D01*
X33105Y-31470D01*
X33258Y-31407D01*
X33282Y-31325D01*
X33282Y-31683D01*
X33240Y-31641D01*
X33084Y-31577D01*
X32916Y-31577D01*
X32761Y-31641D01*
X32641Y-31760D01*
X32577Y-31916D01*
X32577Y-32084D01*
X32641Y-32239D01*
X32760Y-32359D01*
X32916Y-32423D01*
X33084Y-32423D01*
X33239Y-32359D01*
X33359Y-32240D01*
X33423Y-32084D01*
X33423Y-34722D01*
X33176Y-34722D01*
X33122Y-34744D01*
X33081Y-34786D01*
X33058Y-34839D01*
X32580Y-34839D01*
X32580Y-34671D01*
X32558Y-34617D01*
X32516Y-34576D01*
X32474Y-34558D01*
X32474Y-31083D01*
X32470Y-30895D01*
X32407Y-30742D01*
X32325Y-30718D01*
X32282Y-30760D01*
X32282Y-30675D01*
X32258Y-30593D01*
X32083Y-30526D01*
X31895Y-30530D01*
X31742Y-30593D01*
X31718Y-30675D01*
X32000Y-30958D01*
X32282Y-30675D01*
X32282Y-30760D01*
X32042Y-31000D01*
X32325Y-31282D01*
X32407Y-31258D01*
X32474Y-31083D01*
X32474Y-34558D01*
X32462Y-34553D01*
X32423Y-34553D01*
X32423Y-32084D01*
X32423Y-31916D01*
X32359Y-31761D01*
X32282Y-31683D01*
X32282Y-31325D01*
X32000Y-31042D01*
X31958Y-31084D01*
X31958Y-31000D01*
X31675Y-30718D01*
X31593Y-30742D01*
X31526Y-30917D01*
X31530Y-31105D01*
X31593Y-31258D01*
X31675Y-31282D01*
X31958Y-31000D01*
X31958Y-31084D01*
X31718Y-31325D01*
X31742Y-31407D01*
X31917Y-31474D01*
X32105Y-31470D01*
X32258Y-31407D01*
X32282Y-31325D01*
X32282Y-31683D01*
X32240Y-31641D01*
X32084Y-31577D01*
X31916Y-31577D01*
X31761Y-31641D01*
X31641Y-31760D01*
X31577Y-31916D01*
X31577Y-32084D01*
X31641Y-32239D01*
X31760Y-32359D01*
X31916Y-32423D01*
X32084Y-32423D01*
X32239Y-32359D01*
X32359Y-32240D01*
X32423Y-32084D01*
X32423Y-34553D01*
X32404Y-34553D01*
X31538Y-34553D01*
X31484Y-34575D01*
X31482Y-34577D01*
X31482Y-31316D01*
X31482Y-31234D01*
X31482Y-31081D01*
X31482Y-30919D01*
X31482Y-30766D01*
X31482Y-30684D01*
X31450Y-30608D01*
X31392Y-30549D01*
X31316Y-30518D01*
X31081Y-30518D01*
X31030Y-30569D01*
X31030Y-30970D01*
X31431Y-30970D01*
X31482Y-30919D01*
X31482Y-31081D01*
X31431Y-31030D01*
X31030Y-31030D01*
X31030Y-31431D01*
X31081Y-31482D01*
X31316Y-31482D01*
X31392Y-31451D01*
X31450Y-31392D01*
X31482Y-31316D01*
X31482Y-34577D01*
X31443Y-34617D01*
X31422Y-34666D01*
X31422Y-32304D01*
X31422Y-32246D01*
X31422Y-31696D01*
X31400Y-31642D01*
X31358Y-31601D01*
X31304Y-31578D01*
X31246Y-31578D01*
X30970Y-31578D01*
X30970Y-31431D01*
X30970Y-31030D01*
X30970Y-30970D01*
X30970Y-30569D01*
X30919Y-30518D01*
X30684Y-30518D01*
X30608Y-30549D01*
X30550Y-30608D01*
X30518Y-30684D01*
X30518Y-30766D01*
X30518Y-30919D01*
X30569Y-30970D01*
X30970Y-30970D01*
X30970Y-31030D01*
X30569Y-31030D01*
X30518Y-31081D01*
X30518Y-31234D01*
X30518Y-31316D01*
X30550Y-31392D01*
X30608Y-31451D01*
X30684Y-31482D01*
X30919Y-31482D01*
X30970Y-31431D01*
X30970Y-31578D01*
X30696Y-31578D01*
X30642Y-31600D01*
X30601Y-31642D01*
X30578Y-31696D01*
X30578Y-31754D01*
X30578Y-32304D01*
X30600Y-32358D01*
X30642Y-32399D01*
X30696Y-32422D01*
X30754Y-32422D01*
X31304Y-32422D01*
X31358Y-32400D01*
X31399Y-32358D01*
X31422Y-32304D01*
X31422Y-34666D01*
X31420Y-34671D01*
X31420Y-34729D01*
X31420Y-35329D01*
X31442Y-35383D01*
X31484Y-35424D01*
X31538Y-35447D01*
X31596Y-35447D01*
X32462Y-35447D01*
X32516Y-35425D01*
X32529Y-35411D01*
X33058Y-35411D01*
X33080Y-35464D01*
X33116Y-35499D01*
X33081Y-35536D01*
X33058Y-35589D01*
X32299Y-35589D01*
X32232Y-35561D01*
X32057Y-35561D01*
X31769Y-35561D01*
X31608Y-35628D01*
X31484Y-35751D01*
X31417Y-35912D01*
X31417Y-36087D01*
X31484Y-36248D01*
X31607Y-36372D01*
X31768Y-36439D01*
X31943Y-36439D01*
X32231Y-36439D01*
X32392Y-36372D01*
X32516Y-36249D01*
X32552Y-36161D01*
X33058Y-36161D01*
X33080Y-36214D01*
X33122Y-36255D01*
X33176Y-36278D01*
X33234Y-36278D01*
X33824Y-36278D01*
X33878Y-36256D01*
X33919Y-36214D01*
X33941Y-36161D01*
X34046Y-36161D01*
X33729Y-36479D01*
X33684Y-36546D01*
X33677Y-36578D01*
X33671Y-36578D01*
X33617Y-36600D01*
X33576Y-36642D01*
X33553Y-36696D01*
X33553Y-36754D01*
X33553Y-37304D01*
X33575Y-37358D01*
X33617Y-37399D01*
X33671Y-37422D01*
X33729Y-37422D01*
X34079Y-37422D01*
X34133Y-37400D01*
X34174Y-37358D01*
X34197Y-37304D01*
X34197Y-37246D01*
X34197Y-36696D01*
X34175Y-36642D01*
X34162Y-36629D01*
X34807Y-35985D01*
X40298Y-35985D01*
X40493Y-36179D01*
X40493Y-37500D01*
X40509Y-37579D01*
X40554Y-37646D01*
X41253Y-38346D01*
X41254Y-38346D01*
X41298Y-38375D01*
X41320Y-38390D01*
X41321Y-38391D01*
X41399Y-38406D01*
X41400Y-38407D01*
X43315Y-38407D01*
X43577Y-38669D01*
X43577Y-38764D01*
X43626Y-38883D01*
X43717Y-38974D01*
X43836Y-39023D01*
X43964Y-39023D01*
X44083Y-38974D01*
X44174Y-38883D01*
X44223Y-38764D01*
X44223Y-38636D01*
X44174Y-38517D01*
X44083Y-38426D01*
X43964Y-38377D01*
X43869Y-38377D01*
X43689Y-38197D01*
X44440Y-38197D01*
X44517Y-38274D01*
X44636Y-38323D01*
X44764Y-38323D01*
X44883Y-38274D01*
X44974Y-38183D01*
X45023Y-38064D01*
X45023Y-38298D01*
X42718Y-40603D01*
X41375Y-40603D01*
X41560Y-40417D01*
X41617Y-40474D01*
X41736Y-40523D01*
X41864Y-40523D01*
X41983Y-40474D01*
X42074Y-40383D01*
X42123Y-40264D01*
X42123Y-40136D01*
X42074Y-40017D01*
X41983Y-39926D01*
X41864Y-39877D01*
X41736Y-39877D01*
X41617Y-39926D01*
X41540Y-40003D01*
X41500Y-40003D01*
X41425Y-40018D01*
X41403Y-40032D01*
X41360Y-40061D01*
X40912Y-40509D01*
X40874Y-40417D01*
X40783Y-40326D01*
X40746Y-40310D01*
X40774Y-40283D01*
X40823Y-40164D01*
X40823Y-40036D01*
X40774Y-39917D01*
X40683Y-39826D01*
X40564Y-39777D01*
X40436Y-39777D01*
X40317Y-39826D01*
X40226Y-39917D01*
X40217Y-39938D01*
X39568Y-39290D01*
X40481Y-39290D01*
X40535Y-39268D01*
X40576Y-39226D01*
X40599Y-39172D01*
X40599Y-39114D01*
X40599Y-38328D01*
X40577Y-38274D01*
X40535Y-38233D01*
X40481Y-38210D01*
X40423Y-38210D01*
X39234Y-38210D01*
X39161Y-38137D01*
X39161Y-37441D01*
X39214Y-37420D01*
X39255Y-37378D01*
X39278Y-37324D01*
X39278Y-37266D01*
X39278Y-36676D01*
X39256Y-36622D01*
X39214Y-36581D01*
X39160Y-36558D01*
X39102Y-36558D01*
X38590Y-36558D01*
X38536Y-36580D01*
X38500Y-36616D01*
X38464Y-36581D01*
X38410Y-36558D01*
X38352Y-36558D01*
X37840Y-36558D01*
X37786Y-36580D01*
X37745Y-36622D01*
X37722Y-36676D01*
X37722Y-36714D01*
X37500Y-36714D01*
X37278Y-36714D01*
X37278Y-36676D01*
X37256Y-36622D01*
X37214Y-36581D01*
X37160Y-36558D01*
X37102Y-36558D01*
X36590Y-36558D01*
X36536Y-36580D01*
X36500Y-36616D01*
X36464Y-36581D01*
X36410Y-36558D01*
X36352Y-36558D01*
X35840Y-36558D01*
X35786Y-36580D01*
X35745Y-36622D01*
X35722Y-36676D01*
X35722Y-36734D01*
X35722Y-37324D01*
X35744Y-37378D01*
X35786Y-37419D01*
X35839Y-37441D01*
X35839Y-38137D01*
X35766Y-38210D01*
X34519Y-38210D01*
X34465Y-38232D01*
X34424Y-38274D01*
X34401Y-38328D01*
X34401Y-38386D01*
X34401Y-39172D01*
X34423Y-39226D01*
X34465Y-39267D01*
X34519Y-39290D01*
X34577Y-39290D01*
X36741Y-39290D01*
X36795Y-39268D01*
X36836Y-39226D01*
X36859Y-39172D01*
X36859Y-39114D01*
X36859Y-38947D01*
X36868Y-38947D01*
X37410Y-39489D01*
X37411Y-39489D01*
X37412Y-39490D01*
X37510Y-39589D01*
X37511Y-39589D01*
X37553Y-39617D01*
X37574Y-39631D01*
X37575Y-39632D01*
X37650Y-39647D01*
X39068Y-39647D01*
X39705Y-40283D01*
X39705Y-40858D01*
X39704Y-40857D01*
X39690Y-40783D01*
X39689Y-40782D01*
X39675Y-40761D01*
X39647Y-40719D01*
X39647Y-40718D01*
X39331Y-40403D01*
X39268Y-40360D01*
X39192Y-40345D01*
X38650Y-40345D01*
X38586Y-40357D01*
X38574Y-40360D01*
X38510Y-40403D01*
X38238Y-40675D01*
X38238Y-40519D01*
X38238Y-40346D01*
X38238Y-40264D01*
X38206Y-40188D01*
X38148Y-40129D01*
X38072Y-40098D01*
X37856Y-40098D01*
X37805Y-40149D01*
X37805Y-40570D01*
X38187Y-40570D01*
X38238Y-40519D01*
X38238Y-40675D01*
X38235Y-40678D01*
X38187Y-40630D01*
X37855Y-40630D01*
X37805Y-40630D01*
X37745Y-40630D01*
X37745Y-40570D01*
X37745Y-40520D01*
X37745Y-40149D01*
X37694Y-40098D01*
X37478Y-40098D01*
X37402Y-40129D01*
X37354Y-40177D01*
X37310Y-40158D01*
X37252Y-40158D01*
X36750Y-40158D01*
X36723Y-40131D01*
X36723Y-40036D01*
X36674Y-39917D01*
X36583Y-39826D01*
X36464Y-39777D01*
X36336Y-39777D01*
X36217Y-39826D01*
X36126Y-39917D01*
X36077Y-40036D01*
X36077Y-40164D01*
X36126Y-40283D01*
X36217Y-40374D01*
X36336Y-40423D01*
X36431Y-40423D01*
X36622Y-40614D01*
X36622Y-40924D01*
X36639Y-40966D01*
X36213Y-40966D01*
X35956Y-40966D01*
X35801Y-40811D01*
X35738Y-40768D01*
X35662Y-40753D01*
X35503Y-40753D01*
X35499Y-40742D01*
X35408Y-40651D01*
X35289Y-40602D01*
X35161Y-40602D01*
X35042Y-40651D01*
X34951Y-40742D01*
X34902Y-40861D01*
X34902Y-40989D01*
X34951Y-41108D01*
X35042Y-41199D01*
X35161Y-41248D01*
X35177Y-41248D01*
X35177Y-41339D01*
X35226Y-41458D01*
X35317Y-41549D01*
X35436Y-41598D01*
X35469Y-41598D01*
X35043Y-42024D01*
X34425Y-42024D01*
X34361Y-42036D01*
X34349Y-42039D01*
X34286Y-42082D01*
X34165Y-42203D01*
X33447Y-42203D01*
X33447Y-42196D01*
X33447Y-37304D01*
X33447Y-37246D01*
X33447Y-36696D01*
X33425Y-36642D01*
X33383Y-36601D01*
X33329Y-36578D01*
X33271Y-36578D01*
X32921Y-36578D01*
X32867Y-36600D01*
X32826Y-36642D01*
X32803Y-36696D01*
X32803Y-36754D01*
X32803Y-36783D01*
X32528Y-36783D01*
X32516Y-36752D01*
X32393Y-36628D01*
X32232Y-36561D01*
X32057Y-36561D01*
X31769Y-36561D01*
X31608Y-36628D01*
X31484Y-36751D01*
X31417Y-36912D01*
X31417Y-37087D01*
X31484Y-37248D01*
X31607Y-37372D01*
X31768Y-37439D01*
X31943Y-37439D01*
X32231Y-37439D01*
X32392Y-37372D01*
X32516Y-37249D01*
X32529Y-37217D01*
X32803Y-37217D01*
X32803Y-37304D01*
X32825Y-37358D01*
X32867Y-37399D01*
X32921Y-37422D01*
X32979Y-37422D01*
X33329Y-37422D01*
X33383Y-37400D01*
X33424Y-37358D01*
X33447Y-37304D01*
X33447Y-42196D01*
X33425Y-42142D01*
X33383Y-42101D01*
X33329Y-42078D01*
X33273Y-42078D01*
X33283Y-42074D01*
X33374Y-41983D01*
X33423Y-41864D01*
X33423Y-41736D01*
X33374Y-41617D01*
X33283Y-41526D01*
X33164Y-41477D01*
X33036Y-41477D01*
X32982Y-41499D01*
X32982Y-39341D01*
X32982Y-39206D01*
X32982Y-39044D01*
X32982Y-38909D01*
X32951Y-38833D01*
X32892Y-38775D01*
X32816Y-38743D01*
X32734Y-38743D01*
X32581Y-38743D01*
X32530Y-38794D01*
X32530Y-39095D01*
X32931Y-39095D01*
X32982Y-39044D01*
X32982Y-39206D01*
X32931Y-39155D01*
X32530Y-39155D01*
X32530Y-39456D01*
X32581Y-39507D01*
X32734Y-39507D01*
X32816Y-39507D01*
X32892Y-39475D01*
X32951Y-39417D01*
X32982Y-39341D01*
X32982Y-41499D01*
X32922Y-41523D01*
X32922Y-40079D01*
X32922Y-40021D01*
X32922Y-39671D01*
X32900Y-39617D01*
X32858Y-39576D01*
X32804Y-39553D01*
X32746Y-39553D01*
X32470Y-39553D01*
X32470Y-39456D01*
X32470Y-39155D01*
X32470Y-39095D01*
X32470Y-38794D01*
X32419Y-38743D01*
X32266Y-38743D01*
X32184Y-38743D01*
X32108Y-38775D01*
X32049Y-38833D01*
X32018Y-38909D01*
X32018Y-39044D01*
X32069Y-39095D01*
X32470Y-39095D01*
X32470Y-39155D01*
X32069Y-39155D01*
X32018Y-39206D01*
X32018Y-39341D01*
X32049Y-39417D01*
X32108Y-39475D01*
X32184Y-39507D01*
X32266Y-39507D01*
X32419Y-39507D01*
X32470Y-39456D01*
X32470Y-39553D01*
X32196Y-39553D01*
X32142Y-39575D01*
X32101Y-39617D01*
X32078Y-39671D01*
X32078Y-39729D01*
X32078Y-40079D01*
X32100Y-40133D01*
X32142Y-40174D01*
X32196Y-40197D01*
X32254Y-40197D01*
X32303Y-40197D01*
X32303Y-40240D01*
X32226Y-40317D01*
X32177Y-40436D01*
X32177Y-40500D01*
X32172Y-40498D01*
X31956Y-40498D01*
X31907Y-40547D01*
X31907Y-40061D01*
X31907Y-39381D01*
X31907Y-39219D01*
X31907Y-38539D01*
X31876Y-38463D01*
X31817Y-38405D01*
X31741Y-38373D01*
X31659Y-38373D01*
X31381Y-38373D01*
X31330Y-38424D01*
X31330Y-39270D01*
X31856Y-39270D01*
X31907Y-39219D01*
X31907Y-39381D01*
X31856Y-39330D01*
X31330Y-39330D01*
X31330Y-40176D01*
X31381Y-40227D01*
X31659Y-40227D01*
X31741Y-40227D01*
X31817Y-40195D01*
X31876Y-40137D01*
X31907Y-40061D01*
X31907Y-40547D01*
X31905Y-40549D01*
X31905Y-40970D01*
X32287Y-40970D01*
X32338Y-40919D01*
X32338Y-40782D01*
X32436Y-40823D01*
X32564Y-40823D01*
X32683Y-40774D01*
X32774Y-40683D01*
X32823Y-40564D01*
X32823Y-40436D01*
X32774Y-40317D01*
X32697Y-40240D01*
X32697Y-40197D01*
X32804Y-40197D01*
X32858Y-40175D01*
X32899Y-40133D01*
X32922Y-40079D01*
X32922Y-41523D01*
X32917Y-41526D01*
X32826Y-41617D01*
X32777Y-41736D01*
X32777Y-41864D01*
X32826Y-41983D01*
X32917Y-42074D01*
X32926Y-42078D01*
X32921Y-42078D01*
X32867Y-42100D01*
X32826Y-42142D01*
X32803Y-42196D01*
X32803Y-42254D01*
X32803Y-42804D01*
X32825Y-42858D01*
X32867Y-42899D01*
X32871Y-42901D01*
X32630Y-42901D01*
X32633Y-42900D01*
X32674Y-42858D01*
X32697Y-42804D01*
X32697Y-42746D01*
X32697Y-42196D01*
X32675Y-42142D01*
X32633Y-42101D01*
X32579Y-42078D01*
X32521Y-42078D01*
X32338Y-42078D01*
X32338Y-41336D01*
X32338Y-41254D01*
X32338Y-41081D01*
X32287Y-41030D01*
X31905Y-41030D01*
X31905Y-41451D01*
X31956Y-41502D01*
X32172Y-41502D01*
X32248Y-41471D01*
X32306Y-41412D01*
X32338Y-41336D01*
X32338Y-42078D01*
X32171Y-42078D01*
X32117Y-42100D01*
X32076Y-42142D01*
X32053Y-42196D01*
X32053Y-42254D01*
X32053Y-42625D01*
X32053Y-42804D01*
X32053Y-42901D01*
X30500Y-42901D01*
X30343Y-42901D01*
X30307Y-42864D01*
X30307Y-42628D01*
X30424Y-42628D01*
X30478Y-42606D01*
X30519Y-42564D01*
X30542Y-42510D01*
X30542Y-42452D01*
X30542Y-41940D01*
X30520Y-41886D01*
X30483Y-41850D01*
X30519Y-41814D01*
X30542Y-41760D01*
X30542Y-41702D01*
X30542Y-41437D01*
X30693Y-41286D01*
X30722Y-41286D01*
X30722Y-41324D01*
X30744Y-41378D01*
X30786Y-41419D01*
X30840Y-41442D01*
X30898Y-41442D01*
X31410Y-41442D01*
X31455Y-41423D01*
X31502Y-41471D01*
X31578Y-41502D01*
X31794Y-41502D01*
X31845Y-41451D01*
X31845Y-41080D01*
X31845Y-41030D01*
X31845Y-40970D01*
X31845Y-40920D01*
X31845Y-40549D01*
X31794Y-40498D01*
X31578Y-40498D01*
X31502Y-40529D01*
X31454Y-40577D01*
X31410Y-40558D01*
X31352Y-40558D01*
X30840Y-40558D01*
X30786Y-40580D01*
X30786Y-40196D01*
X30859Y-40227D01*
X30941Y-40227D01*
X31219Y-40227D01*
X31270Y-40176D01*
X31270Y-39380D01*
X31270Y-39330D01*
X31270Y-39270D01*
X31270Y-39220D01*
X31270Y-38424D01*
X31219Y-38373D01*
X30941Y-38373D01*
X30859Y-38373D01*
X30783Y-38405D01*
X30769Y-38418D01*
X30764Y-38391D01*
X30763Y-38390D01*
X30742Y-38359D01*
X30702Y-38298D01*
X30702Y-38297D01*
X30602Y-38198D01*
X30510Y-38136D01*
X30400Y-38114D01*
X29378Y-38114D01*
X29378Y-31372D01*
X29378Y-31314D01*
X29378Y-30608D01*
X29356Y-30554D01*
X29314Y-30513D01*
X29260Y-30490D01*
X29202Y-30490D01*
X28140Y-30490D01*
X28086Y-30512D01*
X28045Y-30554D01*
X28022Y-30608D01*
X28022Y-30666D01*
X28022Y-31372D01*
X28044Y-31426D01*
X28086Y-31467D01*
X28140Y-31490D01*
X28198Y-31490D01*
X28483Y-31490D01*
X28483Y-31803D01*
X28446Y-31803D01*
X28392Y-31825D01*
X28351Y-31867D01*
X28328Y-31921D01*
X28328Y-31979D01*
X28328Y-32329D01*
X28350Y-32383D01*
X28392Y-32424D01*
X28446Y-32447D01*
X28504Y-32447D01*
X29054Y-32447D01*
X29108Y-32425D01*
X29149Y-32383D01*
X29172Y-32329D01*
X29172Y-32271D01*
X29172Y-31921D01*
X29150Y-31867D01*
X29108Y-31826D01*
X29054Y-31803D01*
X28996Y-31803D01*
X28917Y-31803D01*
X28917Y-31490D01*
X29260Y-31490D01*
X29314Y-31468D01*
X29355Y-31426D01*
X29378Y-31372D01*
X29378Y-38114D01*
X29221Y-38114D01*
X29183Y-38076D01*
X29172Y-38071D01*
X29172Y-33079D01*
X29172Y-33021D01*
X29172Y-32671D01*
X29150Y-32617D01*
X29108Y-32576D01*
X29054Y-32553D01*
X28996Y-32553D01*
X28446Y-32553D01*
X28392Y-32575D01*
X28351Y-32617D01*
X28328Y-32671D01*
X28328Y-32729D01*
X28328Y-33079D01*
X28350Y-33133D01*
X28392Y-33174D01*
X28446Y-33197D01*
X28504Y-33197D01*
X28533Y-33197D01*
X28533Y-33510D01*
X28476Y-33567D01*
X28427Y-33686D01*
X28427Y-33814D01*
X28476Y-33933D01*
X28567Y-34024D01*
X28686Y-34073D01*
X28814Y-34073D01*
X28933Y-34024D01*
X29024Y-33933D01*
X29073Y-33814D01*
X29073Y-33686D01*
X29024Y-33567D01*
X28967Y-33510D01*
X28967Y-33197D01*
X29054Y-33197D01*
X29108Y-33175D01*
X29149Y-33133D01*
X29172Y-33079D01*
X29172Y-38071D01*
X29129Y-38053D01*
X29071Y-38053D01*
X28271Y-38053D01*
X28217Y-38075D01*
X28176Y-38117D01*
X28153Y-38171D01*
X28153Y-38229D01*
X28153Y-38629D01*
X28175Y-38683D01*
X28217Y-38724D01*
X28271Y-38747D01*
X28329Y-38747D01*
X29129Y-38747D01*
X29183Y-38725D01*
X29221Y-38686D01*
X30214Y-38686D01*
X30214Y-39846D01*
X30177Y-39936D01*
X30177Y-40064D01*
X30214Y-40153D01*
X30214Y-40956D01*
X30098Y-41072D01*
X29776Y-41072D01*
X29722Y-41094D01*
X29681Y-41136D01*
X29678Y-41143D01*
X29678Y-41026D01*
X29656Y-40972D01*
X29614Y-40931D01*
X29560Y-40908D01*
X29502Y-40908D01*
X28990Y-40908D01*
X28936Y-40930D01*
X28900Y-40966D01*
X28868Y-40935D01*
X28902Y-40903D01*
X28902Y-40902D01*
X28942Y-40841D01*
X28963Y-40810D01*
X28964Y-40809D01*
X28985Y-40700D01*
X28986Y-40700D01*
X28986Y-40547D01*
X29129Y-40547D01*
X29183Y-40525D01*
X29224Y-40483D01*
X29247Y-40429D01*
X29247Y-40371D01*
X29247Y-40286D01*
X29646Y-40286D01*
X29736Y-40323D01*
X29864Y-40323D01*
X29983Y-40274D01*
X30074Y-40183D01*
X30123Y-40064D01*
X30123Y-39936D01*
X30074Y-39817D01*
X29983Y-39726D01*
X29864Y-39677D01*
X29736Y-39677D01*
X29646Y-39714D01*
X29307Y-39714D01*
X29307Y-39541D01*
X29307Y-39381D01*
X29307Y-39219D01*
X29307Y-39059D01*
X29276Y-38983D01*
X29217Y-38925D01*
X29141Y-38893D01*
X29059Y-38893D01*
X28781Y-38893D01*
X28730Y-38944D01*
X28730Y-39270D01*
X29256Y-39270D01*
X29307Y-39219D01*
X29307Y-39381D01*
X29256Y-39330D01*
X28730Y-39330D01*
X28730Y-39656D01*
X28781Y-39707D01*
X29059Y-39707D01*
X29141Y-39707D01*
X29217Y-39675D01*
X29276Y-39617D01*
X29307Y-39541D01*
X29307Y-39714D01*
X28900Y-39714D01*
X28791Y-39736D01*
X28759Y-39757D01*
X28697Y-39798D01*
X28670Y-39825D01*
X28670Y-39656D01*
X28670Y-39330D01*
X28670Y-39270D01*
X28670Y-38944D01*
X28619Y-38893D01*
X28341Y-38893D01*
X28259Y-38893D01*
X28183Y-38925D01*
X28124Y-38983D01*
X28093Y-39059D01*
X28093Y-39219D01*
X28144Y-39270D01*
X28670Y-39270D01*
X28670Y-39330D01*
X28144Y-39330D01*
X28093Y-39381D01*
X28093Y-39541D01*
X28124Y-39617D01*
X28183Y-39675D01*
X28259Y-39707D01*
X28341Y-39707D01*
X28619Y-39707D01*
X28670Y-39656D01*
X28670Y-39825D01*
X28642Y-39853D01*
X28271Y-39853D01*
X28217Y-39875D01*
X28176Y-39917D01*
X28153Y-39971D01*
X28153Y-40029D01*
X28153Y-40429D01*
X28175Y-40483D01*
X28217Y-40524D01*
X28271Y-40547D01*
X28329Y-40547D01*
X28414Y-40547D01*
X28414Y-40581D01*
X28323Y-40673D01*
X28261Y-40765D01*
X28239Y-40875D01*
X28239Y-40908D01*
X28186Y-40930D01*
X28145Y-40972D01*
X28122Y-41026D01*
X28122Y-41084D01*
X28122Y-41674D01*
X28144Y-41728D01*
X28186Y-41769D01*
X28239Y-41791D01*
X28239Y-41808D01*
X28186Y-41830D01*
X28145Y-41872D01*
X28122Y-41926D01*
X28122Y-41984D01*
X28122Y-42574D01*
X28144Y-42628D01*
X28186Y-42669D01*
X28239Y-42691D01*
X28239Y-45156D01*
X28217Y-45178D01*
X27923Y-45178D01*
X27923Y-29223D01*
X47077Y-29223D01*
X47077Y-30184D01*
G54D10*
G36*
X47077Y-45258D02*
X46682Y-45258D01*
X46682Y-44616D01*
X46682Y-44381D01*
X46682Y-44219D01*
X46682Y-43984D01*
X46651Y-43908D01*
X46592Y-43850D01*
X46516Y-43818D01*
X46434Y-43818D01*
X46281Y-43818D01*
X46230Y-43869D01*
X46230Y-44270D01*
X46631Y-44270D01*
X46682Y-44219D01*
X46682Y-44381D01*
X46631Y-44330D01*
X46230Y-44330D01*
X46230Y-44731D01*
X46281Y-44782D01*
X46434Y-44782D01*
X46516Y-44782D01*
X46592Y-44750D01*
X46651Y-44692D01*
X46682Y-44616D01*
X46682Y-45258D01*
X46170Y-45258D01*
X46170Y-44731D01*
X46170Y-44330D01*
X46170Y-44270D01*
X46170Y-43869D01*
X46119Y-43818D01*
X45966Y-43818D01*
X45884Y-43818D01*
X45808Y-43850D01*
X45749Y-43908D01*
X45718Y-43984D01*
X45718Y-44219D01*
X45769Y-44270D01*
X46170Y-44270D01*
X46170Y-44330D01*
X45769Y-44330D01*
X45718Y-44381D01*
X45718Y-44616D01*
X45749Y-44692D01*
X45808Y-44750D01*
X45884Y-44782D01*
X45966Y-44782D01*
X46119Y-44782D01*
X46170Y-44731D01*
X46170Y-45258D01*
X45743Y-45258D01*
X45689Y-45280D01*
X45648Y-45322D01*
X45625Y-45376D01*
X45625Y-45434D01*
X45625Y-45447D01*
X45223Y-45045D01*
X45223Y-44936D01*
X45174Y-44817D01*
X45083Y-44726D01*
X44964Y-44677D01*
X44836Y-44677D01*
X44717Y-44726D01*
X44626Y-44817D01*
X44577Y-44936D01*
X44577Y-45064D01*
X44626Y-45183D01*
X44717Y-45274D01*
X44836Y-45323D01*
X44945Y-45323D01*
X45500Y-45878D01*
X45563Y-45921D01*
X45564Y-45921D01*
X45625Y-45933D01*
X45625Y-46102D01*
X45647Y-46156D01*
X45689Y-46197D01*
X45743Y-46220D01*
X45801Y-46220D01*
X46293Y-46220D01*
X46293Y-46614D01*
X46039Y-46868D01*
X45182Y-46868D01*
X45182Y-46541D01*
X45182Y-46406D01*
X45182Y-46244D01*
X45182Y-46109D01*
X45151Y-46033D01*
X45092Y-45975D01*
X45016Y-45943D01*
X44934Y-45943D01*
X44781Y-45943D01*
X44730Y-45994D01*
X44730Y-46295D01*
X45131Y-46295D01*
X45182Y-46244D01*
X45182Y-46406D01*
X45131Y-46355D01*
X44730Y-46355D01*
X44730Y-46656D01*
X44781Y-46707D01*
X44934Y-46707D01*
X45016Y-46707D01*
X45092Y-46675D01*
X45151Y-46617D01*
X45182Y-46541D01*
X45182Y-46868D01*
X45120Y-46868D01*
X45100Y-46817D01*
X45058Y-46776D01*
X45004Y-46753D01*
X44946Y-46753D01*
X44670Y-46753D01*
X44670Y-46656D01*
X44670Y-46355D01*
X44670Y-46295D01*
X44670Y-45994D01*
X44619Y-45943D01*
X44466Y-45943D01*
X44384Y-45943D01*
X44308Y-45975D01*
X44249Y-46033D01*
X44218Y-46109D01*
X44218Y-46244D01*
X44269Y-46295D01*
X44670Y-46295D01*
X44670Y-46355D01*
X44269Y-46355D01*
X44218Y-46406D01*
X44218Y-46541D01*
X44249Y-46617D01*
X44308Y-46675D01*
X44384Y-46707D01*
X44466Y-46707D01*
X44619Y-46707D01*
X44670Y-46656D01*
X44670Y-46753D01*
X44396Y-46753D01*
X44342Y-46775D01*
X44301Y-46817D01*
X44278Y-46871D01*
X44278Y-46929D01*
X44278Y-47279D01*
X44300Y-47333D01*
X44342Y-47374D01*
X44396Y-47397D01*
X44454Y-47397D01*
X45004Y-47397D01*
X45058Y-47375D01*
X45099Y-47333D01*
X45120Y-47282D01*
X45223Y-47282D01*
X45117Y-47326D01*
X45026Y-47417D01*
X44977Y-47536D01*
X44977Y-47664D01*
X45019Y-47768D01*
X44700Y-47768D01*
X44122Y-47768D01*
X44122Y-47429D01*
X44122Y-47371D01*
X44122Y-47021D01*
X44100Y-46967D01*
X44058Y-46926D01*
X44004Y-46903D01*
X43946Y-46903D01*
X43396Y-46903D01*
X43342Y-46925D01*
X43328Y-46939D01*
X43178Y-46939D01*
X43178Y-46708D01*
X43156Y-46654D01*
X43114Y-46613D01*
X43060Y-46590D01*
X43002Y-46590D01*
X41940Y-46590D01*
X41886Y-46612D01*
X41845Y-46654D01*
X41822Y-46708D01*
X41822Y-46766D01*
X41822Y-47472D01*
X41844Y-47526D01*
X41886Y-47567D01*
X41940Y-47590D01*
X41998Y-47590D01*
X43060Y-47590D01*
X43114Y-47568D01*
X43155Y-47526D01*
X43161Y-47511D01*
X43328Y-47511D01*
X43342Y-47524D01*
X43396Y-47547D01*
X43454Y-47547D01*
X44004Y-47547D01*
X44058Y-47525D01*
X44099Y-47483D01*
X44122Y-47429D01*
X44122Y-47768D01*
X44120Y-47768D01*
X44100Y-47717D01*
X44058Y-47676D01*
X44004Y-47653D01*
X43946Y-47653D01*
X43396Y-47653D01*
X43359Y-47668D01*
X41670Y-47668D01*
X41650Y-47617D01*
X41608Y-47576D01*
X41554Y-47553D01*
X41496Y-47553D01*
X40946Y-47553D01*
X40892Y-47575D01*
X40851Y-47617D01*
X40828Y-47671D01*
X40828Y-47729D01*
X40828Y-47903D01*
X40678Y-47903D01*
X40678Y-47322D01*
X40828Y-47322D01*
X40828Y-47329D01*
X40850Y-47383D01*
X40892Y-47424D01*
X40946Y-47447D01*
X41004Y-47447D01*
X41554Y-47447D01*
X41608Y-47425D01*
X41649Y-47383D01*
X41672Y-47329D01*
X41672Y-47271D01*
X41672Y-46921D01*
X41650Y-46867D01*
X41608Y-46826D01*
X41554Y-46803D01*
X41496Y-46803D01*
X40946Y-46803D01*
X40892Y-46825D01*
X40851Y-46867D01*
X40828Y-46921D01*
X40828Y-46928D01*
X40465Y-46928D01*
X40390Y-46943D01*
X40368Y-46957D01*
X40325Y-46986D01*
X40221Y-47090D01*
X39440Y-47090D01*
X39386Y-47112D01*
X39345Y-47154D01*
X39322Y-47208D01*
X39322Y-47266D01*
X39322Y-47903D01*
X39281Y-47903D01*
X39122Y-47743D01*
X39122Y-47571D01*
X39100Y-47517D01*
X39058Y-47476D01*
X39004Y-47453D01*
X38946Y-47453D01*
X38396Y-47453D01*
X38342Y-47475D01*
X38301Y-47517D01*
X38278Y-47571D01*
X38278Y-47629D01*
X38278Y-47979D01*
X38300Y-48033D01*
X38342Y-48074D01*
X38396Y-48097D01*
X38454Y-48097D01*
X38918Y-48097D01*
X39060Y-48239D01*
X39061Y-48239D01*
X39103Y-48267D01*
X39124Y-48281D01*
X39125Y-48282D01*
X39200Y-48297D01*
X41025Y-48297D01*
X41100Y-48282D01*
X41101Y-48282D01*
X41164Y-48239D01*
X41206Y-48197D01*
X41554Y-48197D01*
X41608Y-48175D01*
X41649Y-48133D01*
X41670Y-48082D01*
X43278Y-48082D01*
X43278Y-48179D01*
X43300Y-48233D01*
X43342Y-48274D01*
X43396Y-48297D01*
X43454Y-48297D01*
X44004Y-48297D01*
X44058Y-48275D01*
X44099Y-48233D01*
X44120Y-48182D01*
X44700Y-48182D01*
X45589Y-48182D01*
X45614Y-48207D01*
X45615Y-48207D01*
X45625Y-48214D01*
X45625Y-48377D01*
X31761Y-48377D01*
X31761Y-48344D01*
X31761Y-47598D01*
X31739Y-47544D01*
X31697Y-47503D01*
X31643Y-47480D01*
X31585Y-47480D01*
X31406Y-47480D01*
X31406Y-47479D01*
X31406Y-46653D01*
X31384Y-46599D01*
X31342Y-46558D01*
X31288Y-46535D01*
X31230Y-46535D01*
X30769Y-46535D01*
X30802Y-46503D01*
X30802Y-46502D01*
X30803Y-46500D01*
X31281Y-46023D01*
X31284Y-46023D01*
X31439Y-45959D01*
X31559Y-45840D01*
X31623Y-45684D01*
X31623Y-45516D01*
X31559Y-45361D01*
X31486Y-45287D01*
X31486Y-45118D01*
X31576Y-45028D01*
X31824Y-45028D01*
X31878Y-45006D01*
X31919Y-44964D01*
X31942Y-44910D01*
X31942Y-44852D01*
X31942Y-44340D01*
X31920Y-44286D01*
X31883Y-44250D01*
X31919Y-44214D01*
X31942Y-44160D01*
X31942Y-44102D01*
X31942Y-44072D01*
X32078Y-44072D01*
X32078Y-44079D01*
X32100Y-44133D01*
X32142Y-44174D01*
X32196Y-44197D01*
X32254Y-44197D01*
X32804Y-44197D01*
X32858Y-44175D01*
X32899Y-44133D01*
X32922Y-44079D01*
X32922Y-44072D01*
X33078Y-44072D01*
X33078Y-44079D01*
X33100Y-44133D01*
X33142Y-44174D01*
X33196Y-44197D01*
X33254Y-44197D01*
X33804Y-44197D01*
X33858Y-44175D01*
X33899Y-44133D01*
X33922Y-44079D01*
X33922Y-44021D01*
X33922Y-43671D01*
X33900Y-43617D01*
X33858Y-43576D01*
X33804Y-43553D01*
X33746Y-43553D01*
X33196Y-43553D01*
X33142Y-43575D01*
X33101Y-43617D01*
X33078Y-43671D01*
X33078Y-43678D01*
X32922Y-43678D01*
X32922Y-43671D01*
X32900Y-43617D01*
X32858Y-43576D01*
X32804Y-43553D01*
X32746Y-43553D01*
X32196Y-43553D01*
X32142Y-43575D01*
X32101Y-43617D01*
X32078Y-43671D01*
X32078Y-43678D01*
X31942Y-43678D01*
X31942Y-43590D01*
X31920Y-43536D01*
X31878Y-43495D01*
X31870Y-43492D01*
X34729Y-43492D01*
X34641Y-43580D01*
X34588Y-43558D01*
X34412Y-43558D01*
X34250Y-43625D01*
X34125Y-43750D01*
X34058Y-43912D01*
X34058Y-44088D01*
X34125Y-44250D01*
X34250Y-44375D01*
X34412Y-44442D01*
X34588Y-44442D01*
X34750Y-44375D01*
X34875Y-44250D01*
X34942Y-44088D01*
X34942Y-43912D01*
X34919Y-43858D01*
X35089Y-43689D01*
X35186Y-43689D01*
X35125Y-43750D01*
X35058Y-43912D01*
X35058Y-44088D01*
X35125Y-44250D01*
X35178Y-44303D01*
X35000Y-44303D01*
X34924Y-44318D01*
X34861Y-44361D01*
X34641Y-44580D01*
X34588Y-44558D01*
X34412Y-44558D01*
X34250Y-44625D01*
X34125Y-44750D01*
X34058Y-44912D01*
X34058Y-45088D01*
X34125Y-45250D01*
X34250Y-45375D01*
X34412Y-45442D01*
X34588Y-45442D01*
X34677Y-45405D01*
X34677Y-45514D01*
X34713Y-45603D01*
X33178Y-45603D01*
X33178Y-45528D01*
X33156Y-45474D01*
X33119Y-45437D01*
X33174Y-45383D01*
X33189Y-45344D01*
X33226Y-45433D01*
X33317Y-45524D01*
X33436Y-45573D01*
X33564Y-45573D01*
X33683Y-45524D01*
X33774Y-45433D01*
X33823Y-45314D01*
X33823Y-45186D01*
X33774Y-45067D01*
X33697Y-44990D01*
X33697Y-44947D01*
X33804Y-44947D01*
X33858Y-44925D01*
X33899Y-44883D01*
X33922Y-44829D01*
X33922Y-44771D01*
X33922Y-44421D01*
X33900Y-44367D01*
X33858Y-44326D01*
X33804Y-44303D01*
X33746Y-44303D01*
X33196Y-44303D01*
X33142Y-44325D01*
X33101Y-44367D01*
X33078Y-44421D01*
X33078Y-44479D01*
X33078Y-44829D01*
X33100Y-44883D01*
X33142Y-44924D01*
X33196Y-44947D01*
X33254Y-44947D01*
X33303Y-44947D01*
X33303Y-44990D01*
X33226Y-45067D01*
X33210Y-45105D01*
X33174Y-45017D01*
X33083Y-44926D01*
X32966Y-44878D01*
X32982Y-44841D01*
X32982Y-44706D01*
X32982Y-44544D01*
X32982Y-44409D01*
X32951Y-44333D01*
X32892Y-44275D01*
X32816Y-44243D01*
X32734Y-44243D01*
X32581Y-44243D01*
X32530Y-44294D01*
X32530Y-44595D01*
X32931Y-44595D01*
X32982Y-44544D01*
X32982Y-44706D01*
X32931Y-44655D01*
X32530Y-44655D01*
X32530Y-44956D01*
X32581Y-45007D01*
X32636Y-45007D01*
X32626Y-45017D01*
X32577Y-45136D01*
X32577Y-45264D01*
X32626Y-45383D01*
X32653Y-45410D01*
X32470Y-45410D01*
X32470Y-44956D01*
X32470Y-44655D01*
X32470Y-44595D01*
X32470Y-44294D01*
X32419Y-44243D01*
X32266Y-44243D01*
X32184Y-44243D01*
X32108Y-44275D01*
X32049Y-44333D01*
X32018Y-44409D01*
X32018Y-44544D01*
X32069Y-44595D01*
X32470Y-44595D01*
X32470Y-44655D01*
X32069Y-44655D01*
X32018Y-44706D01*
X32018Y-44841D01*
X32049Y-44917D01*
X32108Y-44975D01*
X32184Y-45007D01*
X32266Y-45007D01*
X32419Y-45007D01*
X32470Y-44956D01*
X32470Y-45410D01*
X31940Y-45410D01*
X31886Y-45432D01*
X31845Y-45474D01*
X31822Y-45528D01*
X31822Y-45586D01*
X31822Y-46292D01*
X31844Y-46346D01*
X31886Y-46387D01*
X31940Y-46410D01*
X31998Y-46410D01*
X33060Y-46410D01*
X33114Y-46388D01*
X33155Y-46346D01*
X33178Y-46292D01*
X33178Y-46234D01*
X33178Y-45997D01*
X34335Y-45997D01*
X34322Y-46028D01*
X34322Y-46086D01*
X34322Y-46792D01*
X34344Y-46846D01*
X34386Y-46887D01*
X34440Y-46910D01*
X34498Y-46910D01*
X35388Y-46910D01*
X35208Y-47090D01*
X34440Y-47090D01*
X34386Y-47112D01*
X34345Y-47154D01*
X34322Y-47208D01*
X34322Y-47266D01*
X34322Y-47944D01*
X34239Y-47861D01*
X34176Y-47818D01*
X34100Y-47803D01*
X34010Y-47803D01*
X33957Y-47750D01*
X33957Y-47697D01*
X34004Y-47697D01*
X34058Y-47675D01*
X34099Y-47633D01*
X34122Y-47579D01*
X34122Y-47521D01*
X34122Y-47171D01*
X34122Y-46829D01*
X34122Y-46771D01*
X34122Y-46421D01*
X34100Y-46367D01*
X34058Y-46326D01*
X34004Y-46303D01*
X33946Y-46303D01*
X33396Y-46303D01*
X33342Y-46325D01*
X33301Y-46367D01*
X33279Y-46418D01*
X32965Y-46418D01*
X32886Y-46434D01*
X32863Y-46449D01*
X32818Y-46479D01*
X32707Y-46590D01*
X31940Y-46590D01*
X31886Y-46612D01*
X31845Y-46654D01*
X31822Y-46708D01*
X31822Y-46766D01*
X31822Y-47472D01*
X31844Y-47526D01*
X31886Y-47567D01*
X31940Y-47590D01*
X31998Y-47590D01*
X33060Y-47590D01*
X33114Y-47568D01*
X33155Y-47526D01*
X33178Y-47472D01*
X33178Y-47414D01*
X33178Y-46832D01*
X33279Y-46832D01*
X33300Y-46883D01*
X33342Y-46924D01*
X33396Y-46947D01*
X33454Y-46947D01*
X34004Y-46947D01*
X34058Y-46925D01*
X34099Y-46883D01*
X34122Y-46829D01*
X34122Y-47171D01*
X34100Y-47117D01*
X34058Y-47076D01*
X34004Y-47053D01*
X33946Y-47053D01*
X33396Y-47053D01*
X33342Y-47075D01*
X33301Y-47117D01*
X33278Y-47171D01*
X33278Y-47229D01*
X33278Y-47579D01*
X33300Y-47633D01*
X33342Y-47674D01*
X33396Y-47697D01*
X33454Y-47697D01*
X33543Y-47697D01*
X33543Y-47750D01*
X33476Y-47817D01*
X33427Y-47936D01*
X33427Y-48064D01*
X33476Y-48183D01*
X33567Y-48274D01*
X33686Y-48323D01*
X33814Y-48323D01*
X33933Y-48274D01*
X34010Y-48197D01*
X34019Y-48197D01*
X34111Y-48289D01*
X34174Y-48332D01*
X34175Y-48332D01*
X34186Y-48334D01*
X34250Y-48347D01*
X35725Y-48347D01*
X35800Y-48332D01*
X35801Y-48332D01*
X35864Y-48289D01*
X36056Y-48097D01*
X36404Y-48097D01*
X36458Y-48075D01*
X36499Y-48033D01*
X36522Y-47979D01*
X36522Y-47921D01*
X36522Y-47571D01*
X36500Y-47517D01*
X36458Y-47476D01*
X36404Y-47453D01*
X36346Y-47453D01*
X35796Y-47453D01*
X35742Y-47475D01*
X35701Y-47517D01*
X35678Y-47571D01*
X35678Y-47232D01*
X35679Y-47232D01*
X35700Y-47283D01*
X35742Y-47324D01*
X35796Y-47347D01*
X35854Y-47347D01*
X36404Y-47347D01*
X36458Y-47325D01*
X36499Y-47283D01*
X36522Y-47229D01*
X36522Y-47171D01*
X36522Y-46821D01*
X36500Y-46767D01*
X36458Y-46726D01*
X36404Y-46703D01*
X36346Y-46703D01*
X35796Y-46703D01*
X35742Y-46725D01*
X35701Y-46767D01*
X35679Y-46818D01*
X35666Y-46818D01*
X35678Y-46792D01*
X35678Y-46734D01*
X35678Y-46197D01*
X36871Y-46197D01*
X36845Y-46224D01*
X36822Y-46278D01*
X36822Y-46336D01*
X36822Y-47042D01*
X36844Y-47096D01*
X36886Y-47137D01*
X36940Y-47160D01*
X36998Y-47160D01*
X37887Y-47160D01*
X37707Y-47340D01*
X36940Y-47340D01*
X36886Y-47362D01*
X36845Y-47404D01*
X36822Y-47458D01*
X36822Y-47516D01*
X36822Y-48222D01*
X36844Y-48276D01*
X36886Y-48317D01*
X36940Y-48340D01*
X36998Y-48340D01*
X38060Y-48340D01*
X38114Y-48318D01*
X38155Y-48276D01*
X38178Y-48222D01*
X38178Y-48164D01*
X38178Y-47458D01*
X38177Y-47455D01*
X38325Y-47307D01*
X38342Y-47324D01*
X38396Y-47347D01*
X38454Y-47347D01*
X39004Y-47347D01*
X39058Y-47325D01*
X39099Y-47283D01*
X39122Y-47229D01*
X39122Y-47171D01*
X39122Y-46821D01*
X39100Y-46767D01*
X39058Y-46726D01*
X39004Y-46703D01*
X38946Y-46703D01*
X38396Y-46703D01*
X38342Y-46725D01*
X38301Y-46767D01*
X38278Y-46821D01*
X38278Y-46825D01*
X38248Y-46831D01*
X38235Y-46834D01*
X38178Y-46872D01*
X38178Y-46278D01*
X38173Y-46265D01*
X38241Y-46197D01*
X39300Y-46197D01*
X39322Y-46192D01*
X39322Y-46792D01*
X39344Y-46846D01*
X39386Y-46887D01*
X39440Y-46910D01*
X39498Y-46910D01*
X40560Y-46910D01*
X40614Y-46888D01*
X40655Y-46846D01*
X40678Y-46792D01*
X40678Y-46734D01*
X40678Y-46100D01*
X40749Y-46028D01*
X41110Y-46389D01*
X41111Y-46389D01*
X41153Y-46417D01*
X41174Y-46431D01*
X41175Y-46432D01*
X41249Y-46446D01*
X41250Y-46447D01*
X42160Y-46447D01*
X42235Y-46432D01*
X42236Y-46432D01*
X42267Y-46410D01*
X42268Y-46410D01*
X43060Y-46410D01*
X43114Y-46388D01*
X43155Y-46346D01*
X43178Y-46292D01*
X43178Y-46234D01*
X43178Y-45528D01*
X43156Y-45474D01*
X43114Y-45433D01*
X43060Y-45410D01*
X43002Y-45410D01*
X41968Y-45410D01*
X42339Y-45040D01*
X42339Y-45039D01*
X42367Y-44997D01*
X42381Y-44976D01*
X42382Y-44975D01*
X42396Y-44900D01*
X42397Y-44900D01*
X42397Y-44175D01*
X42861Y-44639D01*
X42924Y-44682D01*
X42925Y-44682D01*
X42936Y-44684D01*
X43000Y-44697D01*
X43787Y-44697D01*
X43717Y-44726D01*
X43626Y-44817D01*
X43577Y-44936D01*
X43577Y-45064D01*
X43626Y-45183D01*
X43717Y-45274D01*
X43836Y-45323D01*
X43964Y-45323D01*
X44083Y-45274D01*
X44174Y-45183D01*
X44223Y-45064D01*
X44223Y-44955D01*
X44581Y-44597D01*
X44600Y-44597D01*
X44675Y-44582D01*
X44676Y-44582D01*
X44739Y-44539D01*
X45781Y-43497D01*
X45823Y-43497D01*
X45841Y-43539D01*
X45960Y-43659D01*
X46116Y-43723D01*
X46284Y-43723D01*
X46439Y-43659D01*
X46559Y-43540D01*
X46623Y-43384D01*
X46623Y-43216D01*
X46559Y-43061D01*
X46440Y-42941D01*
X46284Y-42877D01*
X46116Y-42877D01*
X46090Y-42887D01*
X46255Y-42723D01*
X46284Y-42723D01*
X46439Y-42659D01*
X46559Y-42540D01*
X46623Y-42384D01*
X46623Y-42216D01*
X46559Y-42061D01*
X46440Y-41941D01*
X46284Y-41877D01*
X46116Y-41877D01*
X45961Y-41941D01*
X45841Y-42060D01*
X45777Y-42216D01*
X45777Y-42384D01*
X45841Y-42539D01*
X45861Y-42560D01*
X45482Y-42940D01*
X45482Y-42856D01*
X45482Y-42694D01*
X45482Y-42559D01*
X45451Y-42483D01*
X45392Y-42425D01*
X45316Y-42393D01*
X45234Y-42393D01*
X45081Y-42393D01*
X45030Y-42444D01*
X45030Y-42745D01*
X45431Y-42745D01*
X45482Y-42694D01*
X45482Y-42856D01*
X45431Y-42805D01*
X45030Y-42805D01*
X45030Y-43106D01*
X45081Y-43157D01*
X45234Y-43157D01*
X45265Y-43157D01*
X44942Y-43480D01*
X44942Y-43412D01*
X44875Y-43250D01*
X44782Y-43157D01*
X44919Y-43157D01*
X44970Y-43106D01*
X44970Y-42805D01*
X44970Y-42745D01*
X44970Y-42444D01*
X44919Y-42393D01*
X44766Y-42393D01*
X44684Y-42393D01*
X44608Y-42425D01*
X44549Y-42483D01*
X44518Y-42559D01*
X44518Y-42694D01*
X44569Y-42745D01*
X44970Y-42745D01*
X44970Y-42805D01*
X44569Y-42805D01*
X44518Y-42856D01*
X44518Y-42991D01*
X44545Y-43058D01*
X44412Y-43058D01*
X44250Y-43125D01*
X44125Y-43250D01*
X44103Y-43303D01*
X43822Y-43303D01*
X43875Y-43250D01*
X43942Y-43088D01*
X43942Y-42912D01*
X43875Y-42750D01*
X43750Y-42625D01*
X43588Y-42558D01*
X43412Y-42558D01*
X43250Y-42625D01*
X43170Y-42705D01*
X42146Y-42705D01*
X42221Y-42690D01*
X42222Y-42690D01*
X42285Y-42647D01*
X42472Y-42460D01*
X42494Y-42512D01*
X42552Y-42571D01*
X42628Y-42602D01*
X42844Y-42602D01*
X42895Y-42551D01*
X42895Y-42180D01*
X42895Y-42130D01*
X42895Y-42070D01*
X42955Y-42070D01*
X42955Y-42130D01*
X42955Y-42180D01*
X42955Y-42551D01*
X43006Y-42602D01*
X43222Y-42602D01*
X43298Y-42571D01*
X43345Y-42522D01*
X43390Y-42542D01*
X43448Y-42542D01*
X43960Y-42542D01*
X44014Y-42520D01*
X44055Y-42478D01*
X44078Y-42424D01*
X44078Y-42366D01*
X44078Y-42335D01*
X44117Y-42374D01*
X44236Y-42423D01*
X44364Y-42423D01*
X44483Y-42374D01*
X44574Y-42283D01*
X44587Y-42251D01*
X44600Y-42283D01*
X44642Y-42324D01*
X44696Y-42347D01*
X44754Y-42347D01*
X45304Y-42347D01*
X45358Y-42325D01*
X45399Y-42283D01*
X45422Y-42229D01*
X45422Y-42171D01*
X45422Y-41821D01*
X45400Y-41767D01*
X45358Y-41726D01*
X45304Y-41703D01*
X45246Y-41703D01*
X45197Y-41703D01*
X45197Y-41528D01*
X45324Y-41528D01*
X45378Y-41506D01*
X45419Y-41464D01*
X45442Y-41410D01*
X45442Y-41352D01*
X45442Y-41332D01*
X45777Y-41332D01*
X45777Y-41384D01*
X45841Y-41539D01*
X45960Y-41659D01*
X46116Y-41723D01*
X46284Y-41723D01*
X46439Y-41659D01*
X46559Y-41540D01*
X46623Y-41384D01*
X46623Y-41216D01*
X46559Y-41061D01*
X46440Y-40941D01*
X46284Y-40877D01*
X46116Y-40877D01*
X46016Y-40918D01*
X45442Y-40918D01*
X45442Y-40840D01*
X45420Y-40786D01*
X45383Y-40750D01*
X45419Y-40714D01*
X45442Y-40660D01*
X45442Y-40602D01*
X45442Y-40582D01*
X45883Y-40582D01*
X45960Y-40659D01*
X46116Y-40723D01*
X46284Y-40723D01*
X46439Y-40659D01*
X46559Y-40540D01*
X46623Y-40384D01*
X46623Y-40216D01*
X46559Y-40061D01*
X46440Y-39941D01*
X46284Y-39877D01*
X46116Y-39877D01*
X45961Y-39941D01*
X45841Y-40060D01*
X45796Y-40168D01*
X45442Y-40168D01*
X45442Y-40090D01*
X45420Y-40036D01*
X45378Y-39995D01*
X45324Y-39972D01*
X45266Y-39972D01*
X44806Y-39972D01*
X45481Y-39297D01*
X45800Y-39297D01*
X45875Y-39282D01*
X45876Y-39282D01*
X45939Y-39239D01*
X46239Y-38939D01*
X46282Y-38876D01*
X46282Y-38875D01*
X46284Y-38863D01*
X46296Y-38800D01*
X46297Y-38800D01*
X46297Y-38681D01*
X46655Y-38323D01*
X46664Y-38323D01*
X46783Y-38274D01*
X46874Y-38183D01*
X46923Y-38064D01*
X46923Y-37936D01*
X46874Y-37817D01*
X46783Y-37726D01*
X46664Y-37677D01*
X46536Y-37677D01*
X46417Y-37726D01*
X46326Y-37817D01*
X46277Y-37936D01*
X46277Y-38064D01*
X46300Y-38121D01*
X45961Y-38461D01*
X45943Y-38486D01*
X45883Y-38426D01*
X45786Y-38386D01*
X45791Y-38379D01*
X45807Y-38300D01*
X45807Y-34974D01*
X45874Y-34907D01*
X46300Y-34907D01*
X46300Y-34906D01*
X46379Y-34891D01*
X46446Y-34846D01*
X47077Y-34215D01*
X47077Y-45258D01*
X47077Y-45258D01*
G37*
G54D41*
X47077Y-45258D02*
X46682Y-45258D01*
X46682Y-44616D01*
X46682Y-44381D01*
X46682Y-44219D01*
X46682Y-43984D01*
X46651Y-43908D01*
X46592Y-43850D01*
X46516Y-43818D01*
X46434Y-43818D01*
X46281Y-43818D01*
X46230Y-43869D01*
X46230Y-44270D01*
X46631Y-44270D01*
X46682Y-44219D01*
X46682Y-44381D01*
X46631Y-44330D01*
X46230Y-44330D01*
X46230Y-44731D01*
X46281Y-44782D01*
X46434Y-44782D01*
X46516Y-44782D01*
X46592Y-44750D01*
X46651Y-44692D01*
X46682Y-44616D01*
X46682Y-45258D01*
X46170Y-45258D01*
X46170Y-44731D01*
X46170Y-44330D01*
X46170Y-44270D01*
X46170Y-43869D01*
X46119Y-43818D01*
X45966Y-43818D01*
X45884Y-43818D01*
X45808Y-43850D01*
X45749Y-43908D01*
X45718Y-43984D01*
X45718Y-44219D01*
X45769Y-44270D01*
X46170Y-44270D01*
X46170Y-44330D01*
X45769Y-44330D01*
X45718Y-44381D01*
X45718Y-44616D01*
X45749Y-44692D01*
X45808Y-44750D01*
X45884Y-44782D01*
X45966Y-44782D01*
X46119Y-44782D01*
X46170Y-44731D01*
X46170Y-45258D01*
X45743Y-45258D01*
X45689Y-45280D01*
X45648Y-45322D01*
X45625Y-45376D01*
X45625Y-45434D01*
X45625Y-45447D01*
X45223Y-45045D01*
X45223Y-44936D01*
X45174Y-44817D01*
X45083Y-44726D01*
X44964Y-44677D01*
X44836Y-44677D01*
X44717Y-44726D01*
X44626Y-44817D01*
X44577Y-44936D01*
X44577Y-45064D01*
X44626Y-45183D01*
X44717Y-45274D01*
X44836Y-45323D01*
X44945Y-45323D01*
X45500Y-45878D01*
X45563Y-45921D01*
X45564Y-45921D01*
X45625Y-45933D01*
X45625Y-46102D01*
X45647Y-46156D01*
X45689Y-46197D01*
X45743Y-46220D01*
X45801Y-46220D01*
X46293Y-46220D01*
X46293Y-46614D01*
X46039Y-46868D01*
X45182Y-46868D01*
X45182Y-46541D01*
X45182Y-46406D01*
X45182Y-46244D01*
X45182Y-46109D01*
X45151Y-46033D01*
X45092Y-45975D01*
X45016Y-45943D01*
X44934Y-45943D01*
X44781Y-45943D01*
X44730Y-45994D01*
X44730Y-46295D01*
X45131Y-46295D01*
X45182Y-46244D01*
X45182Y-46406D01*
X45131Y-46355D01*
X44730Y-46355D01*
X44730Y-46656D01*
X44781Y-46707D01*
X44934Y-46707D01*
X45016Y-46707D01*
X45092Y-46675D01*
X45151Y-46617D01*
X45182Y-46541D01*
X45182Y-46868D01*
X45120Y-46868D01*
X45100Y-46817D01*
X45058Y-46776D01*
X45004Y-46753D01*
X44946Y-46753D01*
X44670Y-46753D01*
X44670Y-46656D01*
X44670Y-46355D01*
X44670Y-46295D01*
X44670Y-45994D01*
X44619Y-45943D01*
X44466Y-45943D01*
X44384Y-45943D01*
X44308Y-45975D01*
X44249Y-46033D01*
X44218Y-46109D01*
X44218Y-46244D01*
X44269Y-46295D01*
X44670Y-46295D01*
X44670Y-46355D01*
X44269Y-46355D01*
X44218Y-46406D01*
X44218Y-46541D01*
X44249Y-46617D01*
X44308Y-46675D01*
X44384Y-46707D01*
X44466Y-46707D01*
X44619Y-46707D01*
X44670Y-46656D01*
X44670Y-46753D01*
X44396Y-46753D01*
X44342Y-46775D01*
X44301Y-46817D01*
X44278Y-46871D01*
X44278Y-46929D01*
X44278Y-47279D01*
X44300Y-47333D01*
X44342Y-47374D01*
X44396Y-47397D01*
X44454Y-47397D01*
X45004Y-47397D01*
X45058Y-47375D01*
X45099Y-47333D01*
X45120Y-47282D01*
X45223Y-47282D01*
X45117Y-47326D01*
X45026Y-47417D01*
X44977Y-47536D01*
X44977Y-47664D01*
X45019Y-47768D01*
X44700Y-47768D01*
X44122Y-47768D01*
X44122Y-47429D01*
X44122Y-47371D01*
X44122Y-47021D01*
X44100Y-46967D01*
X44058Y-46926D01*
X44004Y-46903D01*
X43946Y-46903D01*
X43396Y-46903D01*
X43342Y-46925D01*
X43328Y-46939D01*
X43178Y-46939D01*
X43178Y-46708D01*
X43156Y-46654D01*
X43114Y-46613D01*
X43060Y-46590D01*
X43002Y-46590D01*
X41940Y-46590D01*
X41886Y-46612D01*
X41845Y-46654D01*
X41822Y-46708D01*
X41822Y-46766D01*
X41822Y-47472D01*
X41844Y-47526D01*
X41886Y-47567D01*
X41940Y-47590D01*
X41998Y-47590D01*
X43060Y-47590D01*
X43114Y-47568D01*
X43155Y-47526D01*
X43161Y-47511D01*
X43328Y-47511D01*
X43342Y-47524D01*
X43396Y-47547D01*
X43454Y-47547D01*
X44004Y-47547D01*
X44058Y-47525D01*
X44099Y-47483D01*
X44122Y-47429D01*
X44122Y-47768D01*
X44120Y-47768D01*
X44100Y-47717D01*
X44058Y-47676D01*
X44004Y-47653D01*
X43946Y-47653D01*
X43396Y-47653D01*
X43359Y-47668D01*
X41670Y-47668D01*
X41650Y-47617D01*
X41608Y-47576D01*
X41554Y-47553D01*
X41496Y-47553D01*
X40946Y-47553D01*
X40892Y-47575D01*
X40851Y-47617D01*
X40828Y-47671D01*
X40828Y-47729D01*
X40828Y-47903D01*
X40678Y-47903D01*
X40678Y-47322D01*
X40828Y-47322D01*
X40828Y-47329D01*
X40850Y-47383D01*
X40892Y-47424D01*
X40946Y-47447D01*
X41004Y-47447D01*
X41554Y-47447D01*
X41608Y-47425D01*
X41649Y-47383D01*
X41672Y-47329D01*
X41672Y-47271D01*
X41672Y-46921D01*
X41650Y-46867D01*
X41608Y-46826D01*
X41554Y-46803D01*
X41496Y-46803D01*
X40946Y-46803D01*
X40892Y-46825D01*
X40851Y-46867D01*
X40828Y-46921D01*
X40828Y-46928D01*
X40465Y-46928D01*
X40390Y-46943D01*
X40368Y-46957D01*
X40325Y-46986D01*
X40221Y-47090D01*
X39440Y-47090D01*
X39386Y-47112D01*
X39345Y-47154D01*
X39322Y-47208D01*
X39322Y-47266D01*
X39322Y-47903D01*
X39281Y-47903D01*
X39122Y-47743D01*
X39122Y-47571D01*
X39100Y-47517D01*
X39058Y-47476D01*
X39004Y-47453D01*
X38946Y-47453D01*
X38396Y-47453D01*
X38342Y-47475D01*
X38301Y-47517D01*
X38278Y-47571D01*
X38278Y-47629D01*
X38278Y-47979D01*
X38300Y-48033D01*
X38342Y-48074D01*
X38396Y-48097D01*
X38454Y-48097D01*
X38918Y-48097D01*
X39060Y-48239D01*
X39061Y-48239D01*
X39103Y-48267D01*
X39124Y-48281D01*
X39125Y-48282D01*
X39200Y-48297D01*
X41025Y-48297D01*
X41100Y-48282D01*
X41101Y-48282D01*
X41164Y-48239D01*
X41206Y-48197D01*
X41554Y-48197D01*
X41608Y-48175D01*
X41649Y-48133D01*
X41670Y-48082D01*
X43278Y-48082D01*
X43278Y-48179D01*
X43300Y-48233D01*
X43342Y-48274D01*
X43396Y-48297D01*
X43454Y-48297D01*
X44004Y-48297D01*
X44058Y-48275D01*
X44099Y-48233D01*
X44120Y-48182D01*
X44700Y-48182D01*
X45589Y-48182D01*
X45614Y-48207D01*
X45615Y-48207D01*
X45625Y-48214D01*
X45625Y-48377D01*
X31761Y-48377D01*
X31761Y-48344D01*
X31761Y-47598D01*
X31739Y-47544D01*
X31697Y-47503D01*
X31643Y-47480D01*
X31585Y-47480D01*
X31406Y-47480D01*
X31406Y-47479D01*
X31406Y-46653D01*
X31384Y-46599D01*
X31342Y-46558D01*
X31288Y-46535D01*
X31230Y-46535D01*
X30769Y-46535D01*
X30802Y-46503D01*
X30802Y-46502D01*
X30803Y-46500D01*
X31281Y-46023D01*
X31284Y-46023D01*
X31439Y-45959D01*
X31559Y-45840D01*
X31623Y-45684D01*
X31623Y-45516D01*
X31559Y-45361D01*
X31486Y-45287D01*
X31486Y-45118D01*
X31576Y-45028D01*
X31824Y-45028D01*
X31878Y-45006D01*
X31919Y-44964D01*
X31942Y-44910D01*
X31942Y-44852D01*
X31942Y-44340D01*
X31920Y-44286D01*
X31883Y-44250D01*
X31919Y-44214D01*
X31942Y-44160D01*
X31942Y-44102D01*
X31942Y-44072D01*
X32078Y-44072D01*
X32078Y-44079D01*
X32100Y-44133D01*
X32142Y-44174D01*
X32196Y-44197D01*
X32254Y-44197D01*
X32804Y-44197D01*
X32858Y-44175D01*
X32899Y-44133D01*
X32922Y-44079D01*
X32922Y-44072D01*
X33078Y-44072D01*
X33078Y-44079D01*
X33100Y-44133D01*
X33142Y-44174D01*
X33196Y-44197D01*
X33254Y-44197D01*
X33804Y-44197D01*
X33858Y-44175D01*
X33899Y-44133D01*
X33922Y-44079D01*
X33922Y-44021D01*
X33922Y-43671D01*
X33900Y-43617D01*
X33858Y-43576D01*
X33804Y-43553D01*
X33746Y-43553D01*
X33196Y-43553D01*
X33142Y-43575D01*
X33101Y-43617D01*
X33078Y-43671D01*
X33078Y-43678D01*
X32922Y-43678D01*
X32922Y-43671D01*
X32900Y-43617D01*
X32858Y-43576D01*
X32804Y-43553D01*
X32746Y-43553D01*
X32196Y-43553D01*
X32142Y-43575D01*
X32101Y-43617D01*
X32078Y-43671D01*
X32078Y-43678D01*
X31942Y-43678D01*
X31942Y-43590D01*
X31920Y-43536D01*
X31878Y-43495D01*
X31870Y-43492D01*
X34729Y-43492D01*
X34641Y-43580D01*
X34588Y-43558D01*
X34412Y-43558D01*
X34250Y-43625D01*
X34125Y-43750D01*
X34058Y-43912D01*
X34058Y-44088D01*
X34125Y-44250D01*
X34250Y-44375D01*
X34412Y-44442D01*
X34588Y-44442D01*
X34750Y-44375D01*
X34875Y-44250D01*
X34942Y-44088D01*
X34942Y-43912D01*
X34919Y-43858D01*
X35089Y-43689D01*
X35186Y-43689D01*
X35125Y-43750D01*
X35058Y-43912D01*
X35058Y-44088D01*
X35125Y-44250D01*
X35178Y-44303D01*
X35000Y-44303D01*
X34924Y-44318D01*
X34861Y-44361D01*
X34641Y-44580D01*
X34588Y-44558D01*
X34412Y-44558D01*
X34250Y-44625D01*
X34125Y-44750D01*
X34058Y-44912D01*
X34058Y-45088D01*
X34125Y-45250D01*
X34250Y-45375D01*
X34412Y-45442D01*
X34588Y-45442D01*
X34677Y-45405D01*
X34677Y-45514D01*
X34713Y-45603D01*
X33178Y-45603D01*
X33178Y-45528D01*
X33156Y-45474D01*
X33119Y-45437D01*
X33174Y-45383D01*
X33189Y-45344D01*
X33226Y-45433D01*
X33317Y-45524D01*
X33436Y-45573D01*
X33564Y-45573D01*
X33683Y-45524D01*
X33774Y-45433D01*
X33823Y-45314D01*
X33823Y-45186D01*
X33774Y-45067D01*
X33697Y-44990D01*
X33697Y-44947D01*
X33804Y-44947D01*
X33858Y-44925D01*
X33899Y-44883D01*
X33922Y-44829D01*
X33922Y-44771D01*
X33922Y-44421D01*
X33900Y-44367D01*
X33858Y-44326D01*
X33804Y-44303D01*
X33746Y-44303D01*
X33196Y-44303D01*
X33142Y-44325D01*
X33101Y-44367D01*
X33078Y-44421D01*
X33078Y-44479D01*
X33078Y-44829D01*
X33100Y-44883D01*
X33142Y-44924D01*
X33196Y-44947D01*
X33254Y-44947D01*
X33303Y-44947D01*
X33303Y-44990D01*
X33226Y-45067D01*
X33210Y-45105D01*
X33174Y-45017D01*
X33083Y-44926D01*
X32966Y-44878D01*
X32982Y-44841D01*
X32982Y-44706D01*
X32982Y-44544D01*
X32982Y-44409D01*
X32951Y-44333D01*
X32892Y-44275D01*
X32816Y-44243D01*
X32734Y-44243D01*
X32581Y-44243D01*
X32530Y-44294D01*
X32530Y-44595D01*
X32931Y-44595D01*
X32982Y-44544D01*
X32982Y-44706D01*
X32931Y-44655D01*
X32530Y-44655D01*
X32530Y-44956D01*
X32581Y-45007D01*
X32636Y-45007D01*
X32626Y-45017D01*
X32577Y-45136D01*
X32577Y-45264D01*
X32626Y-45383D01*
X32653Y-45410D01*
X32470Y-45410D01*
X32470Y-44956D01*
X32470Y-44655D01*
X32470Y-44595D01*
X32470Y-44294D01*
X32419Y-44243D01*
X32266Y-44243D01*
X32184Y-44243D01*
X32108Y-44275D01*
X32049Y-44333D01*
X32018Y-44409D01*
X32018Y-44544D01*
X32069Y-44595D01*
X32470Y-44595D01*
X32470Y-44655D01*
X32069Y-44655D01*
X32018Y-44706D01*
X32018Y-44841D01*
X32049Y-44917D01*
X32108Y-44975D01*
X32184Y-45007D01*
X32266Y-45007D01*
X32419Y-45007D01*
X32470Y-44956D01*
X32470Y-45410D01*
X31940Y-45410D01*
X31886Y-45432D01*
X31845Y-45474D01*
X31822Y-45528D01*
X31822Y-45586D01*
X31822Y-46292D01*
X31844Y-46346D01*
X31886Y-46387D01*
X31940Y-46410D01*
X31998Y-46410D01*
X33060Y-46410D01*
X33114Y-46388D01*
X33155Y-46346D01*
X33178Y-46292D01*
X33178Y-46234D01*
X33178Y-45997D01*
X34335Y-45997D01*
X34322Y-46028D01*
X34322Y-46086D01*
X34322Y-46792D01*
X34344Y-46846D01*
X34386Y-46887D01*
X34440Y-46910D01*
X34498Y-46910D01*
X35388Y-46910D01*
X35208Y-47090D01*
X34440Y-47090D01*
X34386Y-47112D01*
X34345Y-47154D01*
X34322Y-47208D01*
X34322Y-47266D01*
X34322Y-47944D01*
X34239Y-47861D01*
X34176Y-47818D01*
X34100Y-47803D01*
X34010Y-47803D01*
X33957Y-47750D01*
X33957Y-47697D01*
X34004Y-47697D01*
X34058Y-47675D01*
X34099Y-47633D01*
X34122Y-47579D01*
X34122Y-47521D01*
X34122Y-47171D01*
X34122Y-46829D01*
X34122Y-46771D01*
X34122Y-46421D01*
X34100Y-46367D01*
X34058Y-46326D01*
X34004Y-46303D01*
X33946Y-46303D01*
X33396Y-46303D01*
X33342Y-46325D01*
X33301Y-46367D01*
X33279Y-46418D01*
X32965Y-46418D01*
X32886Y-46434D01*
X32863Y-46449D01*
X32818Y-46479D01*
X32707Y-46590D01*
X31940Y-46590D01*
X31886Y-46612D01*
X31845Y-46654D01*
X31822Y-46708D01*
X31822Y-46766D01*
X31822Y-47472D01*
X31844Y-47526D01*
X31886Y-47567D01*
X31940Y-47590D01*
X31998Y-47590D01*
X33060Y-47590D01*
X33114Y-47568D01*
X33155Y-47526D01*
X33178Y-47472D01*
X33178Y-47414D01*
X33178Y-46832D01*
X33279Y-46832D01*
X33300Y-46883D01*
X33342Y-46924D01*
X33396Y-46947D01*
X33454Y-46947D01*
X34004Y-46947D01*
X34058Y-46925D01*
X34099Y-46883D01*
X34122Y-46829D01*
X34122Y-47171D01*
X34100Y-47117D01*
X34058Y-47076D01*
X34004Y-47053D01*
X33946Y-47053D01*
X33396Y-47053D01*
X33342Y-47075D01*
X33301Y-47117D01*
X33278Y-47171D01*
X33278Y-47229D01*
X33278Y-47579D01*
X33300Y-47633D01*
X33342Y-47674D01*
X33396Y-47697D01*
X33454Y-47697D01*
X33543Y-47697D01*
X33543Y-47750D01*
X33476Y-47817D01*
X33427Y-47936D01*
X33427Y-48064D01*
X33476Y-48183D01*
X33567Y-48274D01*
X33686Y-48323D01*
X33814Y-48323D01*
X33933Y-48274D01*
X34010Y-48197D01*
X34019Y-48197D01*
X34111Y-48289D01*
X34174Y-48332D01*
X34175Y-48332D01*
X34186Y-48334D01*
X34250Y-48347D01*
X35725Y-48347D01*
X35800Y-48332D01*
X35801Y-48332D01*
X35864Y-48289D01*
X36056Y-48097D01*
X36404Y-48097D01*
X36458Y-48075D01*
X36499Y-48033D01*
X36522Y-47979D01*
X36522Y-47921D01*
X36522Y-47571D01*
X36500Y-47517D01*
X36458Y-47476D01*
X36404Y-47453D01*
X36346Y-47453D01*
X35796Y-47453D01*
X35742Y-47475D01*
X35701Y-47517D01*
X35678Y-47571D01*
X35678Y-47232D01*
X35679Y-47232D01*
X35700Y-47283D01*
X35742Y-47324D01*
X35796Y-47347D01*
X35854Y-47347D01*
X36404Y-47347D01*
X36458Y-47325D01*
X36499Y-47283D01*
X36522Y-47229D01*
X36522Y-47171D01*
X36522Y-46821D01*
X36500Y-46767D01*
X36458Y-46726D01*
X36404Y-46703D01*
X36346Y-46703D01*
X35796Y-46703D01*
X35742Y-46725D01*
X35701Y-46767D01*
X35679Y-46818D01*
X35666Y-46818D01*
X35678Y-46792D01*
X35678Y-46734D01*
X35678Y-46197D01*
X36871Y-46197D01*
X36845Y-46224D01*
X36822Y-46278D01*
X36822Y-46336D01*
X36822Y-47042D01*
X36844Y-47096D01*
X36886Y-47137D01*
X36940Y-47160D01*
X36998Y-47160D01*
X37887Y-47160D01*
X37707Y-47340D01*
X36940Y-47340D01*
X36886Y-47362D01*
X36845Y-47404D01*
X36822Y-47458D01*
X36822Y-47516D01*
X36822Y-48222D01*
X36844Y-48276D01*
X36886Y-48317D01*
X36940Y-48340D01*
X36998Y-48340D01*
X38060Y-48340D01*
X38114Y-48318D01*
X38155Y-48276D01*
X38178Y-48222D01*
X38178Y-48164D01*
X38178Y-47458D01*
X38177Y-47455D01*
X38325Y-47307D01*
X38342Y-47324D01*
X38396Y-47347D01*
X38454Y-47347D01*
X39004Y-47347D01*
X39058Y-47325D01*
X39099Y-47283D01*
X39122Y-47229D01*
X39122Y-47171D01*
X39122Y-46821D01*
X39100Y-46767D01*
X39058Y-46726D01*
X39004Y-46703D01*
X38946Y-46703D01*
X38396Y-46703D01*
X38342Y-46725D01*
X38301Y-46767D01*
X38278Y-46821D01*
X38278Y-46825D01*
X38248Y-46831D01*
X38235Y-46834D01*
X38178Y-46872D01*
X38178Y-46278D01*
X38173Y-46265D01*
X38241Y-46197D01*
X39300Y-46197D01*
X39322Y-46192D01*
X39322Y-46792D01*
X39344Y-46846D01*
X39386Y-46887D01*
X39440Y-46910D01*
X39498Y-46910D01*
X40560Y-46910D01*
X40614Y-46888D01*
X40655Y-46846D01*
X40678Y-46792D01*
X40678Y-46734D01*
X40678Y-46100D01*
X40749Y-46028D01*
X41110Y-46389D01*
X41111Y-46389D01*
X41153Y-46417D01*
X41174Y-46431D01*
X41175Y-46432D01*
X41249Y-46446D01*
X41250Y-46447D01*
X42160Y-46447D01*
X42235Y-46432D01*
X42236Y-46432D01*
X42267Y-46410D01*
X42268Y-46410D01*
X43060Y-46410D01*
X43114Y-46388D01*
X43155Y-46346D01*
X43178Y-46292D01*
X43178Y-46234D01*
X43178Y-45528D01*
X43156Y-45474D01*
X43114Y-45433D01*
X43060Y-45410D01*
X43002Y-45410D01*
X41968Y-45410D01*
X42339Y-45040D01*
X42339Y-45039D01*
X42367Y-44997D01*
X42381Y-44976D01*
X42382Y-44975D01*
X42396Y-44900D01*
X42397Y-44900D01*
X42397Y-44175D01*
X42861Y-44639D01*
X42924Y-44682D01*
X42925Y-44682D01*
X42936Y-44684D01*
X43000Y-44697D01*
X43787Y-44697D01*
X43717Y-44726D01*
X43626Y-44817D01*
X43577Y-44936D01*
X43577Y-45064D01*
X43626Y-45183D01*
X43717Y-45274D01*
X43836Y-45323D01*
X43964Y-45323D01*
X44083Y-45274D01*
X44174Y-45183D01*
X44223Y-45064D01*
X44223Y-44955D01*
X44581Y-44597D01*
X44600Y-44597D01*
X44675Y-44582D01*
X44676Y-44582D01*
X44739Y-44539D01*
X45781Y-43497D01*
X45823Y-43497D01*
X45841Y-43539D01*
X45960Y-43659D01*
X46116Y-43723D01*
X46284Y-43723D01*
X46439Y-43659D01*
X46559Y-43540D01*
X46623Y-43384D01*
X46623Y-43216D01*
X46559Y-43061D01*
X46440Y-42941D01*
X46284Y-42877D01*
X46116Y-42877D01*
X46090Y-42887D01*
X46255Y-42723D01*
X46284Y-42723D01*
X46439Y-42659D01*
X46559Y-42540D01*
X46623Y-42384D01*
X46623Y-42216D01*
X46559Y-42061D01*
X46440Y-41941D01*
X46284Y-41877D01*
X46116Y-41877D01*
X45961Y-41941D01*
X45841Y-42060D01*
X45777Y-42216D01*
X45777Y-42384D01*
X45841Y-42539D01*
X45861Y-42560D01*
X45482Y-42940D01*
X45482Y-42856D01*
X45482Y-42694D01*
X45482Y-42559D01*
X45451Y-42483D01*
X45392Y-42425D01*
X45316Y-42393D01*
X45234Y-42393D01*
X45081Y-42393D01*
X45030Y-42444D01*
X45030Y-42745D01*
X45431Y-42745D01*
X45482Y-42694D01*
X45482Y-42856D01*
X45431Y-42805D01*
X45030Y-42805D01*
X45030Y-43106D01*
X45081Y-43157D01*
X45234Y-43157D01*
X45265Y-43157D01*
X44942Y-43480D01*
X44942Y-43412D01*
X44875Y-43250D01*
X44782Y-43157D01*
X44919Y-43157D01*
X44970Y-43106D01*
X44970Y-42805D01*
X44970Y-42745D01*
X44970Y-42444D01*
X44919Y-42393D01*
X44766Y-42393D01*
X44684Y-42393D01*
X44608Y-42425D01*
X44549Y-42483D01*
X44518Y-42559D01*
X44518Y-42694D01*
X44569Y-42745D01*
X44970Y-42745D01*
X44970Y-42805D01*
X44569Y-42805D01*
X44518Y-42856D01*
X44518Y-42991D01*
X44545Y-43058D01*
X44412Y-43058D01*
X44250Y-43125D01*
X44125Y-43250D01*
X44103Y-43303D01*
X43822Y-43303D01*
X43875Y-43250D01*
X43942Y-43088D01*
X43942Y-42912D01*
X43875Y-42750D01*
X43750Y-42625D01*
X43588Y-42558D01*
X43412Y-42558D01*
X43250Y-42625D01*
X43170Y-42705D01*
X42146Y-42705D01*
X42221Y-42690D01*
X42222Y-42690D01*
X42285Y-42647D01*
X42472Y-42460D01*
X42494Y-42512D01*
X42552Y-42571D01*
X42628Y-42602D01*
X42844Y-42602D01*
X42895Y-42551D01*
X42895Y-42180D01*
X42895Y-42130D01*
X42895Y-42070D01*
X42955Y-42070D01*
X42955Y-42130D01*
X42955Y-42180D01*
X42955Y-42551D01*
X43006Y-42602D01*
X43222Y-42602D01*
X43298Y-42571D01*
X43345Y-42522D01*
X43390Y-42542D01*
X43448Y-42542D01*
X43960Y-42542D01*
X44014Y-42520D01*
X44055Y-42478D01*
X44078Y-42424D01*
X44078Y-42366D01*
X44078Y-42335D01*
X44117Y-42374D01*
X44236Y-42423D01*
X44364Y-42423D01*
X44483Y-42374D01*
X44574Y-42283D01*
X44587Y-42251D01*
X44600Y-42283D01*
X44642Y-42324D01*
X44696Y-42347D01*
X44754Y-42347D01*
X45304Y-42347D01*
X45358Y-42325D01*
X45399Y-42283D01*
X45422Y-42229D01*
X45422Y-42171D01*
X45422Y-41821D01*
X45400Y-41767D01*
X45358Y-41726D01*
X45304Y-41703D01*
X45246Y-41703D01*
X45197Y-41703D01*
X45197Y-41528D01*
X45324Y-41528D01*
X45378Y-41506D01*
X45419Y-41464D01*
X45442Y-41410D01*
X45442Y-41352D01*
X45442Y-41332D01*
X45777Y-41332D01*
X45777Y-41384D01*
X45841Y-41539D01*
X45960Y-41659D01*
X46116Y-41723D01*
X46284Y-41723D01*
X46439Y-41659D01*
X46559Y-41540D01*
X46623Y-41384D01*
X46623Y-41216D01*
X46559Y-41061D01*
X46440Y-40941D01*
X46284Y-40877D01*
X46116Y-40877D01*
X46016Y-40918D01*
X45442Y-40918D01*
X45442Y-40840D01*
X45420Y-40786D01*
X45383Y-40750D01*
X45419Y-40714D01*
X45442Y-40660D01*
X45442Y-40602D01*
X45442Y-40582D01*
X45883Y-40582D01*
X45960Y-40659D01*
X46116Y-40723D01*
X46284Y-40723D01*
X46439Y-40659D01*
X46559Y-40540D01*
X46623Y-40384D01*
X46623Y-40216D01*
X46559Y-40061D01*
X46440Y-39941D01*
X46284Y-39877D01*
X46116Y-39877D01*
X45961Y-39941D01*
X45841Y-40060D01*
X45796Y-40168D01*
X45442Y-40168D01*
X45442Y-40090D01*
X45420Y-40036D01*
X45378Y-39995D01*
X45324Y-39972D01*
X45266Y-39972D01*
X44806Y-39972D01*
X45481Y-39297D01*
X45800Y-39297D01*
X45875Y-39282D01*
X45876Y-39282D01*
X45939Y-39239D01*
X46239Y-38939D01*
X46282Y-38876D01*
X46282Y-38875D01*
X46284Y-38863D01*
X46296Y-38800D01*
X46297Y-38800D01*
X46297Y-38681D01*
X46655Y-38323D01*
X46664Y-38323D01*
X46783Y-38274D01*
X46874Y-38183D01*
X46923Y-38064D01*
X46923Y-37936D01*
X46874Y-37817D01*
X46783Y-37726D01*
X46664Y-37677D01*
X46536Y-37677D01*
X46417Y-37726D01*
X46326Y-37817D01*
X46277Y-37936D01*
X46277Y-38064D01*
X46300Y-38121D01*
X45961Y-38461D01*
X45943Y-38486D01*
X45883Y-38426D01*
X45786Y-38386D01*
X45791Y-38379D01*
X45807Y-38300D01*
X45807Y-34974D01*
X45874Y-34907D01*
X46300Y-34907D01*
X46300Y-34906D01*
X46379Y-34891D01*
X46446Y-34846D01*
X47077Y-34215D01*
X47077Y-45258D01*
M02*
