G04 (created by PCBNEW-RS274X (2012-01-19 BZR 3256)-stable) date 3/3/2013 11:18:49 PM*
G01*
G70*
G90*
%MOIN*%
G04 Gerber Fmt 3.4, Leading zero omitted, Abs format*
%FSLAX34Y34*%
G04 APERTURE LIST*
%ADD10C,0.006000*%
%ADD11C,0.015000*%
%ADD12R,0.065000X0.045000*%
%ADD13R,0.045000X0.065000*%
%ADD14R,0.066200X0.094700*%
%ADD15R,0.113500X0.094700*%
%ADD16R,0.078000X0.102700*%
%ADD17R,0.037700X0.074300*%
%ADD18R,0.067200X0.067200*%
%ADD19R,0.106600X0.080000*%
%ADD20O,0.106600X0.080000*%
%ADD21R,0.059400X0.047600*%
%ADD22R,0.059400X0.059400*%
%ADD23R,0.100000X0.164000*%
%ADD24R,0.100000X0.060000*%
%ADD25R,0.031800X0.071200*%
%ADD26R,0.071200X0.031800*%
%ADD27R,0.051500X0.047500*%
%ADD28R,0.047500X0.051500*%
%ADD29R,0.080000X0.100000*%
%ADD30R,0.100000X0.080000*%
%ADD31C,0.098700*%
%ADD32R,0.075000X0.075000*%
%ADD33C,0.075000*%
%ADD34R,0.079000X0.079000*%
G04 APERTURE END LIST*
G54D10*
G54D11*
X51200Y-37600D02*
X51200Y-18000D01*
X70800Y-37600D02*
X51200Y-37600D01*
X70800Y-18000D02*
X70800Y-37600D01*
X51200Y-18000D02*
X70800Y-18000D01*
G54D12*
X53600Y-33700D03*
X53600Y-33100D03*
X53000Y-33100D03*
X53000Y-33700D03*
G54D13*
X67000Y-27000D03*
X67600Y-27000D03*
X65100Y-29200D03*
X64500Y-29200D03*
G54D12*
X52200Y-20700D03*
X52200Y-21300D03*
G54D14*
X53170Y-36250D03*
X53830Y-36250D03*
G54D15*
X54647Y-36250D03*
X52353Y-36250D03*
G54D16*
X54469Y-35345D03*
X52531Y-35345D03*
G54D17*
X52988Y-35203D03*
X53244Y-35203D03*
X53500Y-35203D03*
X53756Y-35203D03*
X54012Y-35203D03*
G54D18*
X52200Y-18987D03*
X52200Y-19813D03*
X70000Y-18987D03*
X70000Y-19813D03*
X56000Y-35087D03*
X56000Y-35913D03*
X58500Y-35587D03*
X58500Y-36413D03*
X61000Y-35837D03*
X61000Y-36663D03*
G54D19*
X67000Y-26000D03*
G54D20*
X67000Y-25000D03*
X67000Y-24000D03*
G54D13*
X68700Y-34400D03*
X69300Y-34400D03*
X56550Y-26000D03*
X55950Y-26000D03*
G54D12*
X70000Y-20450D03*
X70000Y-21050D03*
X57200Y-35700D03*
X57200Y-36300D03*
X59600Y-36100D03*
X59600Y-36700D03*
X62200Y-36100D03*
X62200Y-36700D03*
X64800Y-35700D03*
X64800Y-36300D03*
X67000Y-35300D03*
X67000Y-35900D03*
X58500Y-31700D03*
X58500Y-31100D03*
G54D13*
X54600Y-31500D03*
X54000Y-31500D03*
G54D12*
X54800Y-33100D03*
X54800Y-33700D03*
G54D13*
X61100Y-33700D03*
X61700Y-33700D03*
X57800Y-34000D03*
X57200Y-34000D03*
G54D19*
X55000Y-24000D03*
G54D20*
X55000Y-25000D03*
X55000Y-26000D03*
G54D18*
X63500Y-35587D03*
X63500Y-36413D03*
X66000Y-35087D03*
X66000Y-35913D03*
G54D21*
X55500Y-33600D03*
X56500Y-33225D03*
X56500Y-33975D03*
G54D22*
X70181Y-36728D03*
X67819Y-35272D03*
X70181Y-35272D03*
X67819Y-36728D03*
G54D23*
X54800Y-28300D03*
G54D24*
X52200Y-28300D03*
X52200Y-29200D03*
X52200Y-27400D03*
G54D25*
X63992Y-30386D03*
X63795Y-30386D03*
X63598Y-30386D03*
X63402Y-30386D03*
X63205Y-30386D03*
X64583Y-30386D03*
X64386Y-30386D03*
X64189Y-30386D03*
G54D26*
X61886Y-30917D03*
X61886Y-31114D03*
X61886Y-31311D03*
X61886Y-31508D03*
X61886Y-31705D03*
X61886Y-31902D03*
X61886Y-32098D03*
X61886Y-32295D03*
G54D25*
X62417Y-33614D03*
X62614Y-33614D03*
X62811Y-33614D03*
X63008Y-33614D03*
X63205Y-33614D03*
X63402Y-33614D03*
X63598Y-33614D03*
X63795Y-33614D03*
G54D26*
X65114Y-33083D03*
X65114Y-32886D03*
X65114Y-32689D03*
X65114Y-32492D03*
X65114Y-32295D03*
X65114Y-32098D03*
X65114Y-31902D03*
X65114Y-31705D03*
G54D25*
X63008Y-30386D03*
X62811Y-30386D03*
X62614Y-30386D03*
X62417Y-30386D03*
G54D26*
X61886Y-32492D03*
X61886Y-32689D03*
X61886Y-32886D03*
X61886Y-33083D03*
G54D25*
X63992Y-33614D03*
X64189Y-33614D03*
X64386Y-33614D03*
X64583Y-33614D03*
G54D26*
X65114Y-31508D03*
X65114Y-31311D03*
X65114Y-31114D03*
X65114Y-30917D03*
G54D27*
X61934Y-28400D03*
X62366Y-28400D03*
X63866Y-28400D03*
X63434Y-28400D03*
G54D28*
X52400Y-33184D03*
X52400Y-33616D03*
X54200Y-33184D03*
X54200Y-33616D03*
G54D29*
X52850Y-30500D03*
X54150Y-30500D03*
G54D13*
X52450Y-31500D03*
X53050Y-31500D03*
X65100Y-28500D03*
X64500Y-28500D03*
G54D12*
X56000Y-23950D03*
X56000Y-24550D03*
G54D30*
X68500Y-30850D03*
X68500Y-32150D03*
G54D29*
X56350Y-30500D03*
X55050Y-30500D03*
G54D12*
X67400Y-31700D03*
X67400Y-32300D03*
G54D29*
X60800Y-28700D03*
X59500Y-28700D03*
G54D13*
X61000Y-29700D03*
X60400Y-29700D03*
G54D30*
X64750Y-23600D03*
X64750Y-24900D03*
G54D31*
X61900Y-27150D03*
X63900Y-27150D03*
G54D30*
X57000Y-23350D03*
X57000Y-24650D03*
G54D12*
X65750Y-23950D03*
X65750Y-24550D03*
G54D13*
X60700Y-21900D03*
X60100Y-21900D03*
X61300Y-21900D03*
X61900Y-21900D03*
G54D32*
X56500Y-20000D03*
G54D33*
X57500Y-20000D03*
X58500Y-20000D03*
X59500Y-20000D03*
X60500Y-20000D03*
X61500Y-20000D03*
X62500Y-20000D03*
X63500Y-20000D03*
X64500Y-20000D03*
X65500Y-20000D03*
G54D32*
X56500Y-19000D03*
G54D33*
X57500Y-19000D03*
X58500Y-19000D03*
X59500Y-19000D03*
X60500Y-19000D03*
X61500Y-19000D03*
X62500Y-19000D03*
X63500Y-19000D03*
X64500Y-19000D03*
X65500Y-19000D03*
G54D32*
X56500Y-21000D03*
G54D33*
X57500Y-21000D03*
X58500Y-21000D03*
X59500Y-21000D03*
X60500Y-21000D03*
X61500Y-21000D03*
X62500Y-21000D03*
X63500Y-21000D03*
X64500Y-21000D03*
X65500Y-21000D03*
G54D12*
X67800Y-20550D03*
X67800Y-19950D03*
X68450Y-19950D03*
X68450Y-20550D03*
X67150Y-20550D03*
X67150Y-19950D03*
X66500Y-20550D03*
X66500Y-19950D03*
G54D34*
X68188Y-21550D03*
X66812Y-21550D03*
G54D32*
X66500Y-19000D03*
G54D33*
X67500Y-19000D03*
X68500Y-19000D03*
M02*
