G04 (created by PCBNEW-RS274X (2012-01-19 BZR 3256)-stable) date 4/1/2013 12:09:17 AM*
G01*
G70*
G90*
%MOIN*%
G04 Gerber Fmt 3.4, Leading zero omitted, Abs format*
%FSLAX34Y34*%
G04 APERTURE LIST*
%ADD10C,0.006000*%
%ADD11C,0.012000*%
%ADD12C,0.009900*%
%ADD13C,0.015000*%
%ADD14C,0.011800*%
%ADD15C,0.010800*%
%ADD16C,0.007900*%
%ADD17C,0.008000*%
%ADD18C,0.005900*%
%ADD19C,0.005000*%
%ADD20C,0.010000*%
%ADD21C,0.007800*%
%ADD22C,0.002400*%
%ADD23C,0.004900*%
G04 APERTURE END LIST*
G54D10*
G54D11*
X40617Y-38645D02*
X40842Y-38645D01*
X40702Y-39039D02*
X40702Y-38532D01*
X40730Y-38476D01*
X40786Y-38448D01*
X40842Y-38448D01*
X41293Y-39039D02*
X41293Y-38729D01*
X41265Y-38673D01*
X41209Y-38645D01*
X41096Y-38645D01*
X41040Y-38673D01*
X41293Y-39011D02*
X41237Y-39039D01*
X41096Y-39039D01*
X41040Y-39011D01*
X41012Y-38954D01*
X41012Y-38898D01*
X41040Y-38842D01*
X41096Y-38814D01*
X41237Y-38814D01*
X41293Y-38785D01*
X41575Y-38645D02*
X41575Y-39039D01*
X41575Y-38701D02*
X41603Y-38673D01*
X41659Y-38645D01*
X41744Y-38645D01*
X41800Y-38673D01*
X41828Y-38729D01*
X41828Y-39039D01*
X42110Y-38814D02*
X42560Y-38814D01*
X42926Y-39039D02*
X42870Y-39011D01*
X42842Y-38954D01*
X42842Y-38448D01*
X43152Y-38645D02*
X43152Y-39236D01*
X43152Y-38673D02*
X43208Y-38645D01*
X43321Y-38645D01*
X43377Y-38673D01*
X43405Y-38701D01*
X43433Y-38757D01*
X43433Y-38926D01*
X43405Y-38982D01*
X43377Y-39011D01*
X43321Y-39039D01*
X43208Y-39039D01*
X43152Y-39011D01*
X43940Y-39011D02*
X43884Y-39039D01*
X43771Y-39039D01*
X43715Y-39011D01*
X43687Y-38982D01*
X43659Y-38926D01*
X43659Y-38757D01*
X43687Y-38701D01*
X43715Y-38673D01*
X43771Y-38645D01*
X43884Y-38645D01*
X43940Y-38673D01*
X44503Y-39039D02*
X44166Y-39039D01*
X44334Y-39039D02*
X44334Y-38448D01*
X44278Y-38532D01*
X44222Y-38588D01*
X44166Y-38617D01*
X45066Y-39039D02*
X44729Y-39039D01*
X44897Y-39039D02*
X44897Y-38448D01*
X44841Y-38532D01*
X44785Y-38588D01*
X44729Y-38617D01*
X45573Y-38645D02*
X45573Y-39039D01*
X45320Y-38645D02*
X45320Y-38954D01*
X45348Y-39011D01*
X45404Y-39039D01*
X45489Y-39039D01*
X45545Y-39011D01*
X45573Y-38982D01*
X45827Y-38504D02*
X45855Y-38476D01*
X45911Y-38448D01*
X46052Y-38448D01*
X46108Y-38476D01*
X46136Y-38504D01*
X46164Y-38560D01*
X46164Y-38617D01*
X46136Y-38701D01*
X45798Y-39039D01*
X46164Y-39039D01*
X46671Y-38645D02*
X46671Y-39039D01*
X46530Y-38420D02*
X46390Y-38842D01*
X46755Y-38842D01*
X33172Y-34129D02*
X32972Y-34129D01*
X32972Y-34439D02*
X32972Y-33848D01*
X33258Y-33848D01*
X33743Y-34439D02*
X33743Y-34129D01*
X33714Y-34073D01*
X33657Y-34045D01*
X33543Y-34045D01*
X33486Y-34073D01*
X33743Y-34411D02*
X33686Y-34439D01*
X33543Y-34439D01*
X33486Y-34411D01*
X33457Y-34354D01*
X33457Y-34298D01*
X33486Y-34242D01*
X33543Y-34214D01*
X33686Y-34214D01*
X33743Y-34185D01*
X34029Y-34045D02*
X34029Y-34439D01*
X34029Y-34101D02*
X34057Y-34073D01*
X34115Y-34045D01*
X34200Y-34045D01*
X34257Y-34073D01*
X34286Y-34129D01*
X34286Y-34439D01*
X34572Y-34439D02*
X34572Y-33848D01*
X34572Y-34073D02*
X34629Y-34045D01*
X34743Y-34045D01*
X34800Y-34073D01*
X34829Y-34101D01*
X34858Y-34157D01*
X34858Y-34326D01*
X34829Y-34382D01*
X34800Y-34411D01*
X34743Y-34439D01*
X34629Y-34439D01*
X34572Y-34411D01*
X35201Y-34439D02*
X35143Y-34411D01*
X35115Y-34382D01*
X35086Y-34326D01*
X35086Y-34157D01*
X35115Y-34101D01*
X35143Y-34073D01*
X35201Y-34045D01*
X35286Y-34045D01*
X35343Y-34073D01*
X35372Y-34101D01*
X35401Y-34157D01*
X35401Y-34326D01*
X35372Y-34382D01*
X35343Y-34411D01*
X35286Y-34439D01*
X35201Y-34439D01*
X35572Y-34045D02*
X35801Y-34045D01*
X35658Y-33848D02*
X35658Y-34354D01*
X35686Y-34411D01*
X35744Y-34439D01*
X35801Y-34439D01*
X36458Y-34439D02*
X36458Y-33848D01*
X36458Y-34073D02*
X36515Y-34045D01*
X36629Y-34045D01*
X36686Y-34073D01*
X36715Y-34101D01*
X36744Y-34157D01*
X36744Y-34326D01*
X36715Y-34382D01*
X36686Y-34411D01*
X36629Y-34439D01*
X36515Y-34439D01*
X36458Y-34411D01*
X37001Y-34439D02*
X37001Y-34045D01*
X37001Y-34157D02*
X37029Y-34101D01*
X37058Y-34073D01*
X37115Y-34045D01*
X37172Y-34045D01*
X37629Y-34439D02*
X37629Y-34129D01*
X37600Y-34073D01*
X37543Y-34045D01*
X37429Y-34045D01*
X37372Y-34073D01*
X37629Y-34411D02*
X37572Y-34439D01*
X37429Y-34439D01*
X37372Y-34411D01*
X37343Y-34354D01*
X37343Y-34298D01*
X37372Y-34242D01*
X37429Y-34214D01*
X37572Y-34214D01*
X37629Y-34185D01*
X37915Y-34439D02*
X37915Y-34045D01*
X37915Y-33848D02*
X37886Y-33876D01*
X37915Y-33904D01*
X37943Y-33876D01*
X37915Y-33848D01*
X37915Y-33904D01*
X38201Y-34045D02*
X38201Y-34439D01*
X38201Y-34101D02*
X38229Y-34073D01*
X38287Y-34045D01*
X38372Y-34045D01*
X38429Y-34073D01*
X38458Y-34129D01*
X38458Y-34439D01*
X39201Y-34214D02*
X39658Y-34214D01*
X40401Y-34439D02*
X40401Y-34045D01*
X40401Y-34157D02*
X40429Y-34101D01*
X40458Y-34073D01*
X40515Y-34045D01*
X40572Y-34045D01*
X41000Y-34411D02*
X40943Y-34439D01*
X40829Y-34439D01*
X40772Y-34411D01*
X40743Y-34354D01*
X40743Y-34129D01*
X40772Y-34073D01*
X40829Y-34045D01*
X40943Y-34045D01*
X41000Y-34073D01*
X41029Y-34129D01*
X41029Y-34185D01*
X40743Y-34242D01*
X41229Y-34045D02*
X41372Y-34439D01*
X41514Y-34045D01*
X41714Y-33904D02*
X41743Y-33876D01*
X41800Y-33848D01*
X41943Y-33848D01*
X42000Y-33876D01*
X42029Y-33904D01*
X42057Y-33960D01*
X42057Y-34017D01*
X42029Y-34101D01*
X41686Y-34439D01*
X42057Y-34439D01*
X28241Y-46148D02*
X27960Y-46148D01*
X27932Y-46429D01*
X27960Y-46401D01*
X28016Y-46373D01*
X28157Y-46373D01*
X28213Y-46401D01*
X28241Y-46429D01*
X28269Y-46485D01*
X28269Y-46626D01*
X28241Y-46682D01*
X28213Y-46711D01*
X28157Y-46739D01*
X28016Y-46739D01*
X27960Y-46711D01*
X27932Y-46682D01*
G54D12*
X31355Y-46176D02*
X31299Y-46148D01*
X31215Y-46148D01*
X31130Y-46176D01*
X31074Y-46232D01*
X31046Y-46288D01*
X31018Y-46401D01*
X31018Y-46485D01*
X31046Y-46598D01*
X31074Y-46654D01*
X31130Y-46711D01*
X31215Y-46739D01*
X31271Y-46739D01*
X31355Y-46711D01*
X31383Y-46682D01*
X31383Y-46485D01*
X31271Y-46485D01*
X45666Y-39641D02*
X45722Y-39659D01*
X45816Y-39659D01*
X45854Y-39641D01*
X45872Y-39622D01*
X45891Y-39584D01*
X45891Y-39547D01*
X45872Y-39509D01*
X45854Y-39491D01*
X45816Y-39472D01*
X45741Y-39453D01*
X45704Y-39434D01*
X45685Y-39416D01*
X45666Y-39378D01*
X45666Y-39341D01*
X45685Y-39303D01*
X45704Y-39284D01*
X45741Y-39265D01*
X45835Y-39265D01*
X45891Y-39284D01*
X46022Y-39265D02*
X46116Y-39659D01*
X46191Y-39378D01*
X46266Y-39659D01*
X46360Y-39265D01*
X46510Y-39659D02*
X46510Y-39265D01*
X46604Y-39265D01*
X46660Y-39284D01*
X46697Y-39322D01*
X46716Y-39359D01*
X46735Y-39434D01*
X46735Y-39491D01*
X46716Y-39566D01*
X46697Y-39603D01*
X46660Y-39641D01*
X46604Y-39659D01*
X46510Y-39659D01*
X46850Y-44309D02*
X47150Y-44309D01*
X47000Y-44459D02*
X47000Y-44159D01*
X47122Y-43422D02*
X47103Y-43441D01*
X47047Y-43459D01*
X47009Y-43459D01*
X46953Y-43441D01*
X46916Y-43403D01*
X46897Y-43366D01*
X46878Y-43291D01*
X46878Y-43234D01*
X46897Y-43159D01*
X46916Y-43122D01*
X46953Y-43084D01*
X47009Y-43065D01*
X47047Y-43065D01*
X47103Y-43084D01*
X47122Y-43103D01*
X46897Y-42459D02*
X46897Y-42065D01*
X46991Y-42065D01*
X47047Y-42084D01*
X47084Y-42122D01*
X47103Y-42159D01*
X47122Y-42234D01*
X47122Y-42291D01*
X47103Y-42366D01*
X47084Y-42403D01*
X47047Y-42441D01*
X46991Y-42459D01*
X46897Y-42459D01*
X47122Y-41459D02*
X46991Y-41272D01*
X46897Y-41459D02*
X46897Y-41065D01*
X47047Y-41065D01*
X47084Y-41084D01*
X47103Y-41103D01*
X47122Y-41141D01*
X47122Y-41197D01*
X47103Y-41234D01*
X47084Y-41253D01*
X47047Y-41272D01*
X46897Y-41272D01*
X47103Y-40084D02*
X47066Y-40065D01*
X47009Y-40065D01*
X46953Y-40084D01*
X46916Y-40122D01*
X46897Y-40159D01*
X46878Y-40234D01*
X46878Y-40291D01*
X46897Y-40366D01*
X46916Y-40403D01*
X46953Y-40441D01*
X47009Y-40459D01*
X47047Y-40459D01*
X47103Y-40441D01*
X47122Y-40422D01*
X47122Y-40291D01*
X47047Y-40291D01*
G54D13*
X45500Y-30400D02*
X45500Y-33200D01*
G54D11*
X29143Y-46024D02*
X29143Y-46671D01*
X29171Y-46748D01*
X29200Y-46786D01*
X29257Y-46824D01*
X29371Y-46824D01*
X29429Y-46786D01*
X29457Y-46748D01*
X29486Y-46671D01*
X29486Y-46024D01*
X29743Y-46786D02*
X29829Y-46824D01*
X29972Y-46824D01*
X30029Y-46786D01*
X30058Y-46748D01*
X30086Y-46671D01*
X30086Y-46595D01*
X30058Y-46519D01*
X30029Y-46481D01*
X29972Y-46443D01*
X29858Y-46405D01*
X29800Y-46367D01*
X29772Y-46329D01*
X29743Y-46252D01*
X29743Y-46176D01*
X29772Y-46100D01*
X29800Y-46062D01*
X29858Y-46024D01*
X30000Y-46024D01*
X30086Y-46062D01*
X30543Y-46405D02*
X30629Y-46443D01*
X30657Y-46481D01*
X30686Y-46557D01*
X30686Y-46671D01*
X30657Y-46748D01*
X30629Y-46786D01*
X30571Y-46824D01*
X30343Y-46824D01*
X30343Y-46024D01*
X30543Y-46024D01*
X30600Y-46062D01*
X30629Y-46100D01*
X30657Y-46176D01*
X30657Y-46252D01*
X30629Y-46329D01*
X30600Y-46367D01*
X30543Y-46405D01*
X30343Y-46405D01*
X34520Y-35624D02*
X34520Y-34824D01*
X34970Y-35624D02*
X34633Y-35167D01*
X34970Y-34824D02*
X34520Y-35281D01*
X35607Y-35586D02*
X35532Y-35624D01*
X35382Y-35624D01*
X35307Y-35586D01*
X35270Y-35510D01*
X35270Y-35205D01*
X35307Y-35129D01*
X35382Y-35090D01*
X35532Y-35090D01*
X35607Y-35129D01*
X35645Y-35205D01*
X35645Y-35281D01*
X35270Y-35357D01*
X35982Y-35624D02*
X35982Y-34824D01*
X36057Y-35319D02*
X36282Y-35624D01*
X36282Y-35090D02*
X35982Y-35395D01*
X36882Y-35205D02*
X36994Y-35243D01*
X37032Y-35281D01*
X37069Y-35357D01*
X37069Y-35471D01*
X37032Y-35548D01*
X36994Y-35586D01*
X36919Y-35624D01*
X36619Y-35624D01*
X36619Y-34824D01*
X36882Y-34824D01*
X36957Y-34862D01*
X36994Y-34900D01*
X37032Y-34976D01*
X37032Y-35052D01*
X36994Y-35129D01*
X36957Y-35167D01*
X36882Y-35205D01*
X36619Y-35205D01*
X37519Y-35624D02*
X37444Y-35586D01*
X37406Y-35548D01*
X37369Y-35471D01*
X37369Y-35243D01*
X37406Y-35167D01*
X37444Y-35129D01*
X37519Y-35090D01*
X37631Y-35090D01*
X37706Y-35129D01*
X37744Y-35167D01*
X37781Y-35243D01*
X37781Y-35471D01*
X37744Y-35548D01*
X37706Y-35586D01*
X37631Y-35624D01*
X37519Y-35624D01*
X38006Y-35090D02*
X38306Y-35090D01*
X38118Y-34824D02*
X38118Y-35510D01*
X38156Y-35586D01*
X38231Y-35624D01*
X38306Y-35624D01*
X38568Y-35548D02*
X38606Y-35586D01*
X38568Y-35624D01*
X38531Y-35586D01*
X38568Y-35548D01*
X38568Y-35624D01*
X39056Y-35624D02*
X38981Y-35586D01*
X38943Y-35548D01*
X38906Y-35471D01*
X38906Y-35243D01*
X38943Y-35167D01*
X38981Y-35129D01*
X39056Y-35090D01*
X39168Y-35090D01*
X39243Y-35129D01*
X39281Y-35167D01*
X39318Y-35243D01*
X39318Y-35471D01*
X39281Y-35548D01*
X39243Y-35586D01*
X39168Y-35624D01*
X39056Y-35624D01*
X39655Y-35624D02*
X39655Y-35090D01*
X39655Y-35243D02*
X39693Y-35167D01*
X39730Y-35129D01*
X39805Y-35090D01*
X39880Y-35090D01*
X40480Y-35090D02*
X40480Y-35738D01*
X40442Y-35814D01*
X40405Y-35852D01*
X40330Y-35890D01*
X40217Y-35890D01*
X40142Y-35852D01*
X40480Y-35586D02*
X40405Y-35624D01*
X40255Y-35624D01*
X40180Y-35586D01*
X40142Y-35548D01*
X40105Y-35471D01*
X40105Y-35243D01*
X40142Y-35167D01*
X40180Y-35129D01*
X40255Y-35090D01*
X40405Y-35090D01*
X40480Y-35129D01*
G54D13*
X42500Y-33200D02*
X42500Y-32500D01*
X45500Y-33200D02*
X42500Y-33200D01*
G54D11*
X28314Y-36811D02*
X28400Y-36839D01*
X28543Y-36839D01*
X28600Y-36811D01*
X28629Y-36782D01*
X28657Y-36726D01*
X28657Y-36670D01*
X28629Y-36614D01*
X28600Y-36585D01*
X28543Y-36557D01*
X28429Y-36529D01*
X28371Y-36501D01*
X28343Y-36473D01*
X28314Y-36417D01*
X28314Y-36360D01*
X28343Y-36304D01*
X28371Y-36276D01*
X28429Y-36248D01*
X28571Y-36248D01*
X28657Y-36276D01*
X28914Y-36839D02*
X28914Y-36248D01*
X29514Y-36276D02*
X29457Y-36248D01*
X29371Y-36248D01*
X29286Y-36276D01*
X29228Y-36332D01*
X29200Y-36388D01*
X29171Y-36501D01*
X29171Y-36585D01*
X29200Y-36698D01*
X29228Y-36754D01*
X29286Y-36811D01*
X29371Y-36839D01*
X29428Y-36839D01*
X29514Y-36811D01*
X29543Y-36782D01*
X29543Y-36585D01*
X29428Y-36585D01*
X29771Y-36304D02*
X29800Y-36276D01*
X29857Y-36248D01*
X30000Y-36248D01*
X30057Y-36276D01*
X30086Y-36304D01*
X30114Y-36360D01*
X30114Y-36417D01*
X30086Y-36501D01*
X29743Y-36839D01*
X30114Y-36839D01*
X28657Y-34276D02*
X28600Y-34248D01*
X28514Y-34248D01*
X28429Y-34276D01*
X28371Y-34332D01*
X28343Y-34388D01*
X28314Y-34501D01*
X28314Y-34585D01*
X28343Y-34698D01*
X28371Y-34754D01*
X28429Y-34811D01*
X28514Y-34839D01*
X28571Y-34839D01*
X28657Y-34811D01*
X28686Y-34782D01*
X28686Y-34585D01*
X28571Y-34585D01*
X28943Y-34839D02*
X28943Y-34248D01*
X29286Y-34839D01*
X29286Y-34248D01*
X29572Y-34839D02*
X29572Y-34248D01*
X29715Y-34248D01*
X29800Y-34276D01*
X29858Y-34332D01*
X29886Y-34388D01*
X29915Y-34501D01*
X29915Y-34585D01*
X29886Y-34698D01*
X29858Y-34754D01*
X29800Y-34811D01*
X29715Y-34839D01*
X29572Y-34839D01*
X28343Y-35614D02*
X28800Y-35614D01*
X28571Y-35839D02*
X28571Y-35388D01*
X29372Y-35248D02*
X29086Y-35248D01*
X29057Y-35529D01*
X29086Y-35501D01*
X29143Y-35473D01*
X29286Y-35473D01*
X29343Y-35501D01*
X29372Y-35529D01*
X29400Y-35585D01*
X29400Y-35726D01*
X29372Y-35782D01*
X29343Y-35811D01*
X29286Y-35839D01*
X29143Y-35839D01*
X29086Y-35811D01*
X29057Y-35782D01*
X29571Y-35248D02*
X29771Y-35839D01*
X29971Y-35248D01*
X44915Y-35614D02*
X45372Y-35614D01*
X45143Y-35839D02*
X45143Y-35388D01*
X45944Y-35248D02*
X45658Y-35248D01*
X45629Y-35529D01*
X45658Y-35501D01*
X45715Y-35473D01*
X45858Y-35473D01*
X45915Y-35501D01*
X45944Y-35529D01*
X45972Y-35585D01*
X45972Y-35726D01*
X45944Y-35782D01*
X45915Y-35811D01*
X45858Y-35839D01*
X45715Y-35839D01*
X45658Y-35811D01*
X45629Y-35782D01*
X46143Y-35248D02*
X46343Y-35839D01*
X46543Y-35248D01*
X45249Y-34276D02*
X45193Y-34248D01*
X45109Y-34248D01*
X45024Y-34276D01*
X44968Y-34332D01*
X44940Y-34388D01*
X44912Y-34501D01*
X44912Y-34585D01*
X44940Y-34698D01*
X44968Y-34754D01*
X45024Y-34811D01*
X45109Y-34839D01*
X45165Y-34839D01*
X45249Y-34811D01*
X45277Y-34782D01*
X45277Y-34585D01*
X45165Y-34585D01*
X45531Y-34839D02*
X45531Y-34248D01*
X45868Y-34839D01*
X45868Y-34248D01*
X46150Y-34839D02*
X46150Y-34248D01*
X46290Y-34248D01*
X46375Y-34276D01*
X46431Y-34332D01*
X46459Y-34388D01*
X46487Y-34501D01*
X46487Y-34585D01*
X46459Y-34698D01*
X46431Y-34754D01*
X46375Y-34811D01*
X46290Y-34839D01*
X46150Y-34839D01*
X44886Y-36811D02*
X44972Y-36839D01*
X45115Y-36839D01*
X45172Y-36811D01*
X45201Y-36782D01*
X45229Y-36726D01*
X45229Y-36670D01*
X45201Y-36614D01*
X45172Y-36585D01*
X45115Y-36557D01*
X45001Y-36529D01*
X44943Y-36501D01*
X44915Y-36473D01*
X44886Y-36417D01*
X44886Y-36360D01*
X44915Y-36304D01*
X44943Y-36276D01*
X45001Y-36248D01*
X45143Y-36248D01*
X45229Y-36276D01*
X45486Y-36839D02*
X45486Y-36248D01*
X46086Y-36276D02*
X46029Y-36248D01*
X45943Y-36248D01*
X45858Y-36276D01*
X45800Y-36332D01*
X45772Y-36388D01*
X45743Y-36501D01*
X45743Y-36585D01*
X45772Y-36698D01*
X45800Y-36754D01*
X45858Y-36811D01*
X45943Y-36839D01*
X46000Y-36839D01*
X46086Y-36811D01*
X46115Y-36782D01*
X46115Y-36585D01*
X46000Y-36585D01*
X46686Y-36839D02*
X46343Y-36839D01*
X46515Y-36839D02*
X46515Y-36248D01*
X46458Y-36332D01*
X46400Y-36388D01*
X46343Y-36417D01*
G54D14*
X45691Y-48351D02*
X45219Y-48351D01*
X45219Y-48171D01*
X45242Y-48126D01*
X45264Y-48103D01*
X45309Y-48081D01*
X45376Y-48081D01*
X45421Y-48103D01*
X45444Y-48126D01*
X45466Y-48171D01*
X45466Y-48351D01*
X45691Y-47609D02*
X45466Y-47766D01*
X45691Y-47879D02*
X45219Y-47879D01*
X45219Y-47699D01*
X45242Y-47654D01*
X45264Y-47631D01*
X45309Y-47609D01*
X45376Y-47609D01*
X45421Y-47631D01*
X45444Y-47654D01*
X45466Y-47699D01*
X45466Y-47879D01*
X45219Y-47317D02*
X45219Y-47227D01*
X45242Y-47182D01*
X45286Y-47137D01*
X45376Y-47114D01*
X45534Y-47114D01*
X45624Y-47137D01*
X45669Y-47182D01*
X45691Y-47227D01*
X45691Y-47317D01*
X45669Y-47362D01*
X45624Y-47407D01*
X45534Y-47429D01*
X45376Y-47429D01*
X45286Y-47407D01*
X45242Y-47362D01*
X45219Y-47317D01*
X45242Y-46665D02*
X45219Y-46710D01*
X45219Y-46778D01*
X45242Y-46845D01*
X45286Y-46890D01*
X45331Y-46913D01*
X45421Y-46935D01*
X45489Y-46935D01*
X45579Y-46913D01*
X45624Y-46890D01*
X45669Y-46845D01*
X45691Y-46778D01*
X45691Y-46733D01*
X45669Y-46665D01*
X45646Y-46643D01*
X45489Y-46643D01*
X45489Y-46733D01*
X45691Y-46171D02*
X45466Y-46328D01*
X45691Y-46441D02*
X45219Y-46441D01*
X45219Y-46261D01*
X45242Y-46216D01*
X45264Y-46193D01*
X45309Y-46171D01*
X45376Y-46171D01*
X45421Y-46193D01*
X45444Y-46216D01*
X45466Y-46261D01*
X45466Y-46441D01*
X45556Y-45991D02*
X45556Y-45766D01*
X45691Y-46036D02*
X45219Y-45879D01*
X45691Y-45721D01*
X45691Y-45564D02*
X45219Y-45564D01*
X45556Y-45406D01*
X45219Y-45249D01*
X45691Y-45249D01*
G54D12*
X36141Y-33469D02*
X36159Y-33413D01*
X36159Y-33319D01*
X36141Y-33281D01*
X36122Y-33263D01*
X36084Y-33244D01*
X36047Y-33244D01*
X36009Y-33263D01*
X35991Y-33281D01*
X35972Y-33319D01*
X35953Y-33394D01*
X35934Y-33431D01*
X35916Y-33450D01*
X35878Y-33469D01*
X35841Y-33469D01*
X35803Y-33450D01*
X35784Y-33431D01*
X35765Y-33394D01*
X35765Y-33300D01*
X35784Y-33244D01*
X36122Y-32850D02*
X36141Y-32869D01*
X36159Y-32925D01*
X36159Y-32963D01*
X36141Y-33019D01*
X36103Y-33056D01*
X36066Y-33075D01*
X35991Y-33094D01*
X35934Y-33094D01*
X35859Y-33075D01*
X35822Y-33056D01*
X35784Y-33019D01*
X35765Y-32963D01*
X35765Y-32925D01*
X35784Y-32869D01*
X35803Y-32850D01*
X36159Y-32494D02*
X36159Y-32681D01*
X35765Y-32681D01*
X35141Y-33478D02*
X35159Y-33422D01*
X35159Y-33328D01*
X35141Y-33290D01*
X35122Y-33272D01*
X35084Y-33253D01*
X35047Y-33253D01*
X35009Y-33272D01*
X34991Y-33290D01*
X34972Y-33328D01*
X34953Y-33403D01*
X34934Y-33440D01*
X34916Y-33459D01*
X34878Y-33478D01*
X34841Y-33478D01*
X34803Y-33459D01*
X34784Y-33440D01*
X34765Y-33403D01*
X34765Y-33309D01*
X34784Y-33253D01*
X35159Y-33084D02*
X34765Y-33084D01*
X34765Y-32990D01*
X34784Y-32934D01*
X34822Y-32897D01*
X34859Y-32878D01*
X34934Y-32859D01*
X34991Y-32859D01*
X35066Y-32878D01*
X35103Y-32897D01*
X35141Y-32934D01*
X35159Y-32990D01*
X35159Y-33084D01*
X35047Y-32709D02*
X35047Y-32521D01*
X35159Y-32746D02*
X34765Y-32615D01*
X35159Y-32484D01*
X34854Y-36522D02*
X34835Y-36541D01*
X34779Y-36559D01*
X34741Y-36559D01*
X34685Y-36541D01*
X34648Y-36503D01*
X34629Y-36466D01*
X34610Y-36391D01*
X34610Y-36334D01*
X34629Y-36259D01*
X34648Y-36222D01*
X34685Y-36184D01*
X34741Y-36165D01*
X34779Y-36165D01*
X34835Y-36184D01*
X34854Y-36203D01*
X35248Y-36522D02*
X35229Y-36541D01*
X35173Y-36559D01*
X35135Y-36559D01*
X35079Y-36541D01*
X35042Y-36503D01*
X35023Y-36466D01*
X35004Y-36391D01*
X35004Y-36334D01*
X35023Y-36259D01*
X35042Y-36222D01*
X35079Y-36184D01*
X35135Y-36165D01*
X35173Y-36165D01*
X35229Y-36184D01*
X35248Y-36203D01*
X35417Y-36409D02*
X35717Y-36409D01*
X36036Y-36353D02*
X36092Y-36372D01*
X36111Y-36391D01*
X36130Y-36428D01*
X36130Y-36484D01*
X36111Y-36522D01*
X36092Y-36541D01*
X36055Y-36559D01*
X35905Y-36559D01*
X35905Y-36165D01*
X36036Y-36165D01*
X36074Y-36184D01*
X36092Y-36203D01*
X36111Y-36241D01*
X36111Y-36278D01*
X36092Y-36316D01*
X36074Y-36334D01*
X36036Y-36353D01*
X35905Y-36353D01*
X36374Y-36372D02*
X36374Y-36559D01*
X36243Y-36165D02*
X36374Y-36372D01*
X36505Y-36165D01*
X36637Y-36409D02*
X36937Y-36409D01*
X37106Y-36541D02*
X37162Y-36559D01*
X37256Y-36559D01*
X37294Y-36541D01*
X37312Y-36522D01*
X37331Y-36484D01*
X37331Y-36447D01*
X37312Y-36409D01*
X37294Y-36391D01*
X37256Y-36372D01*
X37181Y-36353D01*
X37144Y-36334D01*
X37125Y-36316D01*
X37106Y-36278D01*
X37106Y-36241D01*
X37125Y-36203D01*
X37144Y-36184D01*
X37181Y-36165D01*
X37275Y-36165D01*
X37331Y-36184D01*
X37481Y-36447D02*
X37669Y-36447D01*
X37444Y-36559D02*
X37575Y-36165D01*
X37706Y-36559D01*
X37838Y-36409D02*
X38138Y-36409D01*
X38326Y-36559D02*
X38326Y-36165D01*
X38551Y-36559D01*
X38551Y-36165D01*
X38964Y-36522D02*
X38945Y-36541D01*
X38889Y-36559D01*
X38851Y-36559D01*
X38795Y-36541D01*
X38758Y-36503D01*
X38739Y-36466D01*
X38720Y-36391D01*
X38720Y-36334D01*
X38739Y-36259D01*
X38758Y-36222D01*
X38795Y-36184D01*
X38851Y-36165D01*
X38889Y-36165D01*
X38945Y-36184D01*
X38964Y-36203D01*
X39133Y-36409D02*
X39433Y-36409D01*
X39583Y-36165D02*
X39827Y-36165D01*
X39696Y-36316D01*
X39752Y-36316D01*
X39790Y-36334D01*
X39808Y-36353D01*
X39827Y-36391D01*
X39827Y-36484D01*
X39808Y-36522D01*
X39790Y-36541D01*
X39752Y-36559D01*
X39640Y-36559D01*
X39602Y-36541D01*
X39583Y-36522D01*
X39996Y-36522D02*
X40015Y-36541D01*
X39996Y-36559D01*
X39977Y-36541D01*
X39996Y-36522D01*
X39996Y-36559D01*
X40259Y-36165D02*
X40296Y-36165D01*
X40334Y-36184D01*
X40353Y-36203D01*
X40371Y-36241D01*
X40390Y-36316D01*
X40390Y-36409D01*
X40371Y-36484D01*
X40353Y-36522D01*
X40334Y-36541D01*
X40296Y-36559D01*
X40259Y-36559D01*
X40221Y-36541D01*
X40203Y-36522D01*
X40184Y-36484D01*
X40165Y-36409D01*
X40165Y-36316D01*
X40184Y-36241D01*
X40203Y-36203D01*
X40221Y-36184D01*
X40259Y-36165D01*
G54D11*
X41886Y-33324D02*
X41543Y-33324D01*
X41715Y-33324D02*
X41715Y-32524D01*
X41658Y-32638D01*
X41600Y-32714D01*
X41543Y-32752D01*
X42257Y-32524D02*
X42314Y-32524D01*
X42371Y-32562D01*
X42400Y-32600D01*
X42429Y-32676D01*
X42457Y-32829D01*
X42457Y-33019D01*
X42429Y-33171D01*
X42400Y-33248D01*
X42371Y-33286D01*
X42314Y-33324D01*
X42257Y-33324D01*
X42200Y-33286D01*
X42171Y-33248D01*
X42143Y-33171D01*
X42114Y-33019D01*
X42114Y-32829D01*
X42143Y-32676D01*
X42171Y-32600D01*
X42200Y-32562D01*
X42257Y-32524D01*
X40886Y-33324D02*
X41001Y-33324D01*
X41058Y-33286D01*
X41086Y-33248D01*
X41144Y-33133D01*
X41172Y-32981D01*
X41172Y-32676D01*
X41144Y-32600D01*
X41115Y-32562D01*
X41058Y-32524D01*
X40944Y-32524D01*
X40886Y-32562D01*
X40858Y-32600D01*
X40829Y-32676D01*
X40829Y-32867D01*
X40858Y-32943D01*
X40886Y-32981D01*
X40944Y-33019D01*
X41058Y-33019D01*
X41115Y-32981D01*
X41144Y-32943D01*
X41172Y-32867D01*
X39944Y-32867D02*
X39886Y-32829D01*
X39858Y-32790D01*
X39829Y-32714D01*
X39829Y-32676D01*
X39858Y-32600D01*
X39886Y-32562D01*
X39944Y-32524D01*
X40058Y-32524D01*
X40115Y-32562D01*
X40144Y-32600D01*
X40172Y-32676D01*
X40172Y-32714D01*
X40144Y-32790D01*
X40115Y-32829D01*
X40058Y-32867D01*
X39944Y-32867D01*
X39886Y-32905D01*
X39858Y-32943D01*
X39829Y-33019D01*
X39829Y-33171D01*
X39858Y-33248D01*
X39886Y-33286D01*
X39944Y-33324D01*
X40058Y-33324D01*
X40115Y-33286D01*
X40144Y-33248D01*
X40172Y-33171D01*
X40172Y-33019D01*
X40144Y-32943D01*
X40115Y-32905D01*
X40058Y-32867D01*
X38801Y-32524D02*
X39201Y-32524D01*
X38944Y-33324D01*
X34115Y-32790D02*
X34115Y-33324D01*
X33972Y-32486D02*
X33829Y-33057D01*
X34201Y-33057D01*
X32801Y-32524D02*
X33172Y-32524D01*
X32972Y-32829D01*
X33058Y-32829D01*
X33115Y-32867D01*
X33144Y-32905D01*
X33172Y-32981D01*
X33172Y-33171D01*
X33144Y-33248D01*
X33115Y-33286D01*
X33058Y-33324D01*
X32886Y-33324D01*
X32829Y-33286D01*
X32801Y-33248D01*
X31829Y-32600D02*
X31858Y-32562D01*
X31915Y-32524D01*
X32058Y-32524D01*
X32115Y-32562D01*
X32144Y-32600D01*
X32172Y-32676D01*
X32172Y-32752D01*
X32144Y-32867D01*
X31801Y-33324D01*
X32172Y-33324D01*
X31172Y-33324D02*
X30829Y-33324D01*
X31001Y-33324D02*
X31001Y-32524D01*
X30944Y-32638D01*
X30886Y-32714D01*
X30829Y-32752D01*
G54D15*
X29570Y-29862D02*
X29529Y-29842D01*
X29467Y-29842D01*
X29405Y-29862D01*
X29364Y-29904D01*
X29343Y-29945D01*
X29322Y-30027D01*
X29322Y-30089D01*
X29343Y-30172D01*
X29364Y-30213D01*
X29405Y-30254D01*
X29467Y-30275D01*
X29508Y-30275D01*
X29570Y-30254D01*
X29591Y-30234D01*
X29591Y-30089D01*
X29508Y-30089D01*
X29776Y-30275D02*
X29776Y-29842D01*
X30024Y-30275D01*
X30024Y-29842D01*
X30230Y-30275D02*
X30230Y-29842D01*
X30333Y-29842D01*
X30395Y-29862D01*
X30436Y-29904D01*
X30457Y-29945D01*
X30478Y-30027D01*
X30478Y-30089D01*
X30457Y-30172D01*
X30436Y-30213D01*
X30395Y-30254D01*
X30333Y-30275D01*
X30230Y-30275D01*
X29365Y-30842D02*
X29633Y-30842D01*
X29489Y-31007D01*
X29550Y-31007D01*
X29592Y-31027D01*
X29612Y-31048D01*
X29633Y-31089D01*
X29633Y-31192D01*
X29612Y-31234D01*
X29592Y-31254D01*
X29550Y-31275D01*
X29427Y-31275D01*
X29385Y-31254D01*
X29365Y-31234D01*
X29756Y-30842D02*
X29901Y-31275D01*
X30045Y-30842D01*
X30148Y-30842D02*
X30416Y-30842D01*
X30272Y-31007D01*
X30333Y-31007D01*
X30375Y-31027D01*
X30395Y-31048D01*
X30416Y-31089D01*
X30416Y-31192D01*
X30395Y-31234D01*
X30375Y-31254D01*
X30333Y-31275D01*
X30210Y-31275D01*
X30168Y-31254D01*
X30148Y-31234D01*
G54D13*
X27700Y-48600D02*
X27700Y-29000D01*
X47300Y-48600D02*
X27700Y-48600D01*
X47300Y-29000D02*
X47300Y-48600D01*
X27700Y-29000D02*
X47300Y-29000D01*
G54D16*
X28346Y-48787D02*
X31654Y-48787D01*
X28346Y-48827D02*
X31654Y-48827D01*
X31654Y-48827D02*
X31654Y-48748D01*
X31654Y-48748D02*
X28346Y-48748D01*
X28346Y-48748D02*
X28346Y-48827D01*
X28465Y-48827D02*
X28465Y-46858D01*
X28465Y-46858D02*
X31535Y-46858D01*
X31535Y-46858D02*
X31535Y-48827D01*
G54D11*
X43500Y-37500D02*
X44500Y-36500D01*
X43500Y-36500D02*
X44500Y-37500D01*
X43500Y-37500D02*
X43500Y-34500D01*
X43500Y-34500D02*
X44500Y-34500D01*
X44500Y-34500D02*
X44500Y-37500D01*
X43500Y-36500D02*
X44500Y-36500D01*
X43000Y-37000D02*
X47000Y-37000D01*
X47000Y-35000D02*
X43000Y-35000D01*
X43000Y-36000D02*
X47000Y-36000D01*
X44500Y-37500D02*
X43500Y-37500D01*
X31500Y-34500D02*
X30500Y-35500D01*
X31500Y-35500D02*
X30500Y-34500D01*
X31500Y-34500D02*
X31500Y-37500D01*
X31500Y-37500D02*
X30500Y-37500D01*
X30500Y-37500D02*
X30500Y-34500D01*
X31500Y-35500D02*
X30500Y-35500D01*
X32000Y-35000D02*
X28000Y-35000D01*
X28000Y-37000D02*
X32000Y-37000D01*
X32000Y-36000D02*
X28000Y-36000D01*
X30500Y-34500D02*
X31500Y-34500D01*
G54D17*
X29400Y-37900D02*
X28200Y-37900D01*
X28200Y-37900D02*
X28200Y-40700D01*
X28200Y-40700D02*
X29400Y-40700D01*
X30600Y-37900D02*
X30900Y-37900D01*
X30900Y-37900D02*
X31800Y-38500D01*
X31800Y-38500D02*
X31800Y-40100D01*
X31800Y-40100D02*
X30900Y-40700D01*
X30900Y-40700D02*
X30600Y-40700D01*
G54D18*
X41614Y-41465D02*
X41535Y-41386D01*
X41457Y-41386D02*
X41614Y-41543D01*
X41614Y-41622D02*
X41378Y-41386D01*
X41299Y-41386D02*
X41614Y-41701D01*
X41220Y-41386D02*
X41614Y-41386D01*
X41614Y-41386D02*
X41614Y-41780D01*
X41614Y-41780D02*
X41220Y-41386D01*
X38386Y-41780D02*
X38386Y-41386D01*
X38386Y-41386D02*
X38780Y-41386D01*
X38780Y-44614D02*
X38386Y-44614D01*
X38386Y-44614D02*
X38386Y-44220D01*
X41614Y-44220D02*
X41614Y-44614D01*
X41614Y-44614D02*
X41220Y-44614D01*
G54D19*
X41061Y-42050D02*
X41058Y-42071D01*
X41052Y-42092D01*
X41042Y-42111D01*
X41028Y-42128D01*
X41012Y-42142D01*
X40993Y-42152D01*
X40972Y-42158D01*
X40950Y-42160D01*
X40930Y-42159D01*
X40909Y-42152D01*
X40890Y-42142D01*
X40873Y-42129D01*
X40859Y-42112D01*
X40848Y-42093D01*
X40842Y-42073D01*
X40840Y-42051D01*
X40841Y-42030D01*
X40847Y-42010D01*
X40857Y-41990D01*
X40871Y-41973D01*
X40887Y-41959D01*
X40906Y-41949D01*
X40927Y-41942D01*
X40948Y-41940D01*
X40969Y-41941D01*
X40990Y-41947D01*
X41009Y-41957D01*
X41026Y-41970D01*
X41040Y-41987D01*
X41051Y-42005D01*
X41058Y-42026D01*
X41060Y-42047D01*
X41061Y-42050D01*
X38600Y-41750D02*
X38750Y-41600D01*
X38750Y-41600D02*
X41250Y-41600D01*
X41250Y-41600D02*
X41400Y-41750D01*
X41400Y-41750D02*
X41400Y-44250D01*
X41400Y-44250D02*
X41250Y-44400D01*
X41250Y-44400D02*
X38750Y-44400D01*
X38750Y-44400D02*
X38600Y-44250D01*
X38600Y-44250D02*
X38600Y-41750D01*
G54D20*
X44000Y-32629D02*
X44000Y-32511D01*
X44039Y-32432D02*
X44039Y-32668D01*
X44118Y-32786D02*
X44118Y-32314D01*
X44118Y-32314D02*
X43882Y-32550D01*
X43882Y-32550D02*
X44118Y-32786D01*
X43685Y-32196D02*
X43685Y-32904D01*
X44315Y-32904D02*
X44315Y-32196D01*
X44630Y-32904D02*
X43370Y-32904D01*
X43370Y-32904D02*
X43370Y-32196D01*
X43370Y-32196D02*
X44630Y-32196D01*
X44630Y-32196D02*
X44630Y-32904D01*
G54D11*
X42500Y-30500D02*
X42500Y-29500D01*
X42500Y-29500D02*
X45500Y-29500D01*
X45500Y-29500D02*
X45500Y-30500D01*
X45500Y-30500D02*
X42500Y-30500D01*
X43500Y-29500D02*
X43500Y-30500D01*
G54D14*
X35217Y-37766D02*
X35217Y-39734D01*
X35217Y-39734D02*
X39783Y-39734D01*
X39783Y-39734D02*
X39783Y-37766D01*
X39783Y-37766D02*
X35217Y-37766D01*
G54D20*
X39700Y-38750D02*
X39696Y-38672D01*
X39686Y-38594D01*
X39669Y-38518D01*
X39645Y-38443D01*
X39615Y-38370D01*
X39579Y-38301D01*
X39537Y-38234D01*
X39489Y-38172D01*
X39436Y-38114D01*
X39378Y-38061D01*
X39316Y-38013D01*
X39250Y-37971D01*
X39180Y-37935D01*
X39107Y-37905D01*
X39032Y-37881D01*
X38956Y-37864D01*
X38878Y-37854D01*
X38800Y-37850D01*
X36200Y-39450D02*
X38800Y-39450D01*
X38800Y-38050D02*
X36200Y-38050D01*
X38800Y-39450D02*
X38861Y-39447D01*
X38921Y-39439D01*
X38981Y-39426D01*
X39039Y-39407D01*
X39095Y-39384D01*
X39150Y-39356D01*
X39201Y-39323D01*
X39249Y-39286D01*
X39294Y-39244D01*
X39336Y-39199D01*
X39373Y-39151D01*
X39406Y-39099D01*
X39434Y-39045D01*
X39457Y-38989D01*
X39476Y-38931D01*
X39489Y-38871D01*
X39497Y-38811D01*
X39500Y-38750D01*
X39500Y-38750D02*
X39497Y-38689D01*
X39489Y-38629D01*
X39476Y-38569D01*
X39457Y-38511D01*
X39434Y-38455D01*
X39406Y-38401D01*
X39373Y-38349D01*
X39336Y-38301D01*
X39294Y-38256D01*
X39249Y-38214D01*
X39201Y-38177D01*
X39150Y-38144D01*
X39095Y-38116D01*
X39039Y-38093D01*
X38981Y-38074D01*
X38921Y-38061D01*
X38861Y-38053D01*
X38800Y-38050D01*
X35500Y-38750D02*
X35503Y-38811D01*
X35511Y-38871D01*
X35524Y-38931D01*
X35543Y-38989D01*
X35566Y-39045D01*
X35594Y-39099D01*
X35627Y-39151D01*
X35664Y-39199D01*
X35706Y-39244D01*
X35751Y-39286D01*
X35799Y-39323D01*
X35851Y-39356D01*
X35905Y-39384D01*
X35961Y-39407D01*
X36019Y-39426D01*
X36079Y-39439D01*
X36139Y-39447D01*
X36200Y-39450D01*
X36200Y-38050D02*
X36139Y-38053D01*
X36079Y-38061D01*
X36019Y-38074D01*
X35961Y-38093D01*
X35905Y-38116D01*
X35851Y-38144D01*
X35799Y-38177D01*
X35751Y-38214D01*
X35706Y-38256D01*
X35664Y-38301D01*
X35627Y-38349D01*
X35594Y-38401D01*
X35566Y-38455D01*
X35543Y-38511D01*
X35524Y-38569D01*
X35511Y-38629D01*
X35503Y-38689D01*
X35500Y-38750D01*
X38800Y-39650D02*
X38878Y-39646D01*
X38956Y-39636D01*
X39032Y-39619D01*
X39107Y-39595D01*
X39180Y-39565D01*
X39250Y-39529D01*
X39316Y-39487D01*
X39378Y-39439D01*
X39436Y-39386D01*
X39489Y-39328D01*
X39537Y-39266D01*
X39579Y-39199D01*
X39615Y-39130D01*
X39645Y-39057D01*
X39669Y-38982D01*
X39686Y-38906D01*
X39696Y-38828D01*
X39700Y-38750D01*
X38800Y-39650D02*
X36200Y-39650D01*
X36200Y-37850D02*
X38800Y-37850D01*
X35300Y-38750D02*
X35304Y-38828D01*
X35314Y-38906D01*
X35331Y-38982D01*
X35355Y-39057D01*
X35385Y-39130D01*
X35421Y-39199D01*
X35463Y-39266D01*
X35511Y-39328D01*
X35564Y-39386D01*
X35622Y-39439D01*
X35684Y-39487D01*
X35751Y-39529D01*
X35820Y-39565D01*
X35893Y-39595D01*
X35968Y-39619D01*
X36044Y-39636D01*
X36122Y-39646D01*
X36200Y-39650D01*
X36200Y-37850D02*
X36122Y-37854D01*
X36044Y-37864D01*
X35968Y-37881D01*
X35893Y-37905D01*
X35820Y-37935D01*
X35751Y-37971D01*
X35684Y-38013D01*
X35622Y-38061D01*
X35564Y-38114D01*
X35511Y-38172D01*
X35463Y-38234D01*
X35421Y-38301D01*
X35385Y-38370D01*
X35355Y-38443D01*
X35331Y-38518D01*
X35314Y-38594D01*
X35304Y-38672D01*
X35300Y-38750D01*
G54D21*
X28621Y-30439D02*
X28779Y-30439D01*
X28582Y-30361D02*
X28818Y-30361D01*
X28149Y-30991D02*
X29251Y-30991D01*
X29251Y-29809D02*
X28149Y-29809D01*
X29172Y-30400D02*
X29163Y-30491D01*
X29136Y-30579D01*
X29093Y-30661D01*
X29034Y-30732D01*
X28963Y-30791D01*
X28882Y-30835D01*
X28794Y-30862D01*
X28703Y-30871D01*
X28612Y-30863D01*
X28524Y-30837D01*
X28442Y-30794D01*
X28370Y-30737D01*
X28311Y-30666D01*
X28267Y-30585D01*
X28239Y-30498D01*
X28229Y-30406D01*
X28236Y-30315D01*
X28262Y-30227D01*
X28304Y-30145D01*
X28361Y-30073D01*
X28431Y-30013D01*
X28512Y-29968D01*
X28599Y-29940D01*
X28691Y-29929D01*
X28781Y-29936D01*
X28870Y-29960D01*
X28952Y-30002D01*
X29025Y-30059D01*
X29085Y-30128D01*
X29131Y-30209D01*
X29160Y-30296D01*
X29171Y-30387D01*
X29172Y-30400D01*
X28897Y-30322D02*
X28503Y-30322D01*
X28503Y-30322D02*
X28700Y-30518D01*
X28700Y-30518D02*
X28897Y-30322D01*
X28149Y-30715D02*
X28424Y-30990D01*
X28149Y-30872D02*
X28267Y-30990D01*
X28228Y-30990D02*
X28149Y-30912D01*
X28149Y-30793D02*
X28346Y-30990D01*
X29251Y-29731D02*
X28149Y-29731D01*
X28149Y-29731D02*
X28149Y-31069D01*
X28149Y-31069D02*
X29251Y-31069D01*
X29250Y-31069D02*
X29250Y-29731D01*
X46221Y-30439D02*
X46379Y-30439D01*
X46182Y-30361D02*
X46418Y-30361D01*
X45749Y-30991D02*
X46851Y-30991D01*
X46851Y-29809D02*
X45749Y-29809D01*
X46772Y-30400D02*
X46763Y-30491D01*
X46736Y-30579D01*
X46693Y-30661D01*
X46634Y-30732D01*
X46563Y-30791D01*
X46482Y-30835D01*
X46394Y-30862D01*
X46303Y-30871D01*
X46212Y-30863D01*
X46124Y-30837D01*
X46042Y-30794D01*
X45970Y-30737D01*
X45911Y-30666D01*
X45867Y-30585D01*
X45839Y-30498D01*
X45829Y-30406D01*
X45836Y-30315D01*
X45862Y-30227D01*
X45904Y-30145D01*
X45961Y-30073D01*
X46031Y-30013D01*
X46112Y-29968D01*
X46199Y-29940D01*
X46291Y-29929D01*
X46381Y-29936D01*
X46470Y-29960D01*
X46552Y-30002D01*
X46625Y-30059D01*
X46685Y-30128D01*
X46731Y-30209D01*
X46760Y-30296D01*
X46771Y-30387D01*
X46772Y-30400D01*
X46497Y-30322D02*
X46103Y-30322D01*
X46103Y-30322D02*
X46300Y-30518D01*
X46300Y-30518D02*
X46497Y-30322D01*
X45749Y-30715D02*
X46024Y-30990D01*
X45749Y-30872D02*
X45867Y-30990D01*
X45828Y-30990D02*
X45749Y-30912D01*
X45749Y-30793D02*
X45946Y-30990D01*
X46851Y-29731D02*
X45749Y-29731D01*
X45749Y-29731D02*
X45749Y-31069D01*
X45749Y-31069D02*
X46851Y-31069D01*
X46850Y-31069D02*
X46850Y-29731D01*
X32421Y-46539D02*
X32579Y-46539D01*
X32382Y-46461D02*
X32618Y-46461D01*
X31949Y-47091D02*
X33051Y-47091D01*
X33051Y-45909D02*
X31949Y-45909D01*
X32972Y-46500D02*
X32963Y-46591D01*
X32936Y-46679D01*
X32893Y-46761D01*
X32834Y-46832D01*
X32763Y-46891D01*
X32682Y-46935D01*
X32594Y-46962D01*
X32503Y-46971D01*
X32412Y-46963D01*
X32324Y-46937D01*
X32242Y-46894D01*
X32170Y-46837D01*
X32111Y-46766D01*
X32067Y-46685D01*
X32039Y-46598D01*
X32029Y-46506D01*
X32036Y-46415D01*
X32062Y-46327D01*
X32104Y-46245D01*
X32161Y-46173D01*
X32231Y-46113D01*
X32312Y-46068D01*
X32399Y-46040D01*
X32491Y-46029D01*
X32581Y-46036D01*
X32670Y-46060D01*
X32752Y-46102D01*
X32825Y-46159D01*
X32885Y-46228D01*
X32931Y-46309D01*
X32960Y-46396D01*
X32971Y-46487D01*
X32972Y-46500D01*
X32697Y-46422D02*
X32303Y-46422D01*
X32303Y-46422D02*
X32500Y-46618D01*
X32500Y-46618D02*
X32697Y-46422D01*
X31949Y-46815D02*
X32224Y-47090D01*
X31949Y-46972D02*
X32067Y-47090D01*
X32028Y-47090D02*
X31949Y-47012D01*
X31949Y-46893D02*
X32146Y-47090D01*
X33051Y-45831D02*
X31949Y-45831D01*
X31949Y-45831D02*
X31949Y-47169D01*
X31949Y-47169D02*
X33051Y-47169D01*
X33050Y-47169D02*
X33050Y-45831D01*
X34921Y-47039D02*
X35079Y-47039D01*
X34882Y-46961D02*
X35118Y-46961D01*
X34449Y-47591D02*
X35551Y-47591D01*
X35551Y-46409D02*
X34449Y-46409D01*
X35472Y-47000D02*
X35463Y-47091D01*
X35436Y-47179D01*
X35393Y-47261D01*
X35334Y-47332D01*
X35263Y-47391D01*
X35182Y-47435D01*
X35094Y-47462D01*
X35003Y-47471D01*
X34912Y-47463D01*
X34824Y-47437D01*
X34742Y-47394D01*
X34670Y-47337D01*
X34611Y-47266D01*
X34567Y-47185D01*
X34539Y-47098D01*
X34529Y-47006D01*
X34536Y-46915D01*
X34562Y-46827D01*
X34604Y-46745D01*
X34661Y-46673D01*
X34731Y-46613D01*
X34812Y-46568D01*
X34899Y-46540D01*
X34991Y-46529D01*
X35081Y-46536D01*
X35170Y-46560D01*
X35252Y-46602D01*
X35325Y-46659D01*
X35385Y-46728D01*
X35431Y-46809D01*
X35460Y-46896D01*
X35471Y-46987D01*
X35472Y-47000D01*
X35197Y-46922D02*
X34803Y-46922D01*
X34803Y-46922D02*
X35000Y-47118D01*
X35000Y-47118D02*
X35197Y-46922D01*
X34449Y-47315D02*
X34724Y-47590D01*
X34449Y-47472D02*
X34567Y-47590D01*
X34528Y-47590D02*
X34449Y-47512D01*
X34449Y-47393D02*
X34646Y-47590D01*
X35551Y-46331D02*
X34449Y-46331D01*
X34449Y-46331D02*
X34449Y-47669D01*
X34449Y-47669D02*
X35551Y-47669D01*
X35550Y-47669D02*
X35550Y-46331D01*
X37421Y-47289D02*
X37579Y-47289D01*
X37382Y-47211D02*
X37618Y-47211D01*
X36949Y-47841D02*
X38051Y-47841D01*
X38051Y-46659D02*
X36949Y-46659D01*
X37972Y-47250D02*
X37963Y-47341D01*
X37936Y-47429D01*
X37893Y-47511D01*
X37834Y-47582D01*
X37763Y-47641D01*
X37682Y-47685D01*
X37594Y-47712D01*
X37503Y-47721D01*
X37412Y-47713D01*
X37324Y-47687D01*
X37242Y-47644D01*
X37170Y-47587D01*
X37111Y-47516D01*
X37067Y-47435D01*
X37039Y-47348D01*
X37029Y-47256D01*
X37036Y-47165D01*
X37062Y-47077D01*
X37104Y-46995D01*
X37161Y-46923D01*
X37231Y-46863D01*
X37312Y-46818D01*
X37399Y-46790D01*
X37491Y-46779D01*
X37581Y-46786D01*
X37670Y-46810D01*
X37752Y-46852D01*
X37825Y-46909D01*
X37885Y-46978D01*
X37931Y-47059D01*
X37960Y-47146D01*
X37971Y-47237D01*
X37972Y-47250D01*
X37697Y-47172D02*
X37303Y-47172D01*
X37303Y-47172D02*
X37500Y-47368D01*
X37500Y-47368D02*
X37697Y-47172D01*
X36949Y-47565D02*
X37224Y-47840D01*
X36949Y-47722D02*
X37067Y-47840D01*
X37028Y-47840D02*
X36949Y-47762D01*
X36949Y-47643D02*
X37146Y-47840D01*
X38051Y-46581D02*
X36949Y-46581D01*
X36949Y-46581D02*
X36949Y-47919D01*
X36949Y-47919D02*
X38051Y-47919D01*
X38050Y-47919D02*
X38050Y-46581D01*
X39921Y-47039D02*
X40079Y-47039D01*
X39882Y-46961D02*
X40118Y-46961D01*
X39449Y-47591D02*
X40551Y-47591D01*
X40551Y-46409D02*
X39449Y-46409D01*
X40472Y-47000D02*
X40463Y-47091D01*
X40436Y-47179D01*
X40393Y-47261D01*
X40334Y-47332D01*
X40263Y-47391D01*
X40182Y-47435D01*
X40094Y-47462D01*
X40003Y-47471D01*
X39912Y-47463D01*
X39824Y-47437D01*
X39742Y-47394D01*
X39670Y-47337D01*
X39611Y-47266D01*
X39567Y-47185D01*
X39539Y-47098D01*
X39529Y-47006D01*
X39536Y-46915D01*
X39562Y-46827D01*
X39604Y-46745D01*
X39661Y-46673D01*
X39731Y-46613D01*
X39812Y-46568D01*
X39899Y-46540D01*
X39991Y-46529D01*
X40081Y-46536D01*
X40170Y-46560D01*
X40252Y-46602D01*
X40325Y-46659D01*
X40385Y-46728D01*
X40431Y-46809D01*
X40460Y-46896D01*
X40471Y-46987D01*
X40472Y-47000D01*
X40197Y-46922D02*
X39803Y-46922D01*
X39803Y-46922D02*
X40000Y-47118D01*
X40000Y-47118D02*
X40197Y-46922D01*
X39449Y-47315D02*
X39724Y-47590D01*
X39449Y-47472D02*
X39567Y-47590D01*
X39528Y-47590D02*
X39449Y-47512D01*
X39449Y-47393D02*
X39646Y-47590D01*
X40551Y-46331D02*
X39449Y-46331D01*
X39449Y-46331D02*
X39449Y-47669D01*
X39449Y-47669D02*
X40551Y-47669D01*
X40550Y-47669D02*
X40550Y-46331D01*
X42421Y-46539D02*
X42579Y-46539D01*
X42382Y-46461D02*
X42618Y-46461D01*
X41949Y-47091D02*
X43051Y-47091D01*
X43051Y-45909D02*
X41949Y-45909D01*
X42972Y-46500D02*
X42963Y-46591D01*
X42936Y-46679D01*
X42893Y-46761D01*
X42834Y-46832D01*
X42763Y-46891D01*
X42682Y-46935D01*
X42594Y-46962D01*
X42503Y-46971D01*
X42412Y-46963D01*
X42324Y-46937D01*
X42242Y-46894D01*
X42170Y-46837D01*
X42111Y-46766D01*
X42067Y-46685D01*
X42039Y-46598D01*
X42029Y-46506D01*
X42036Y-46415D01*
X42062Y-46327D01*
X42104Y-46245D01*
X42161Y-46173D01*
X42231Y-46113D01*
X42312Y-46068D01*
X42399Y-46040D01*
X42491Y-46029D01*
X42581Y-46036D01*
X42670Y-46060D01*
X42752Y-46102D01*
X42825Y-46159D01*
X42885Y-46228D01*
X42931Y-46309D01*
X42960Y-46396D01*
X42971Y-46487D01*
X42972Y-46500D01*
X42697Y-46422D02*
X42303Y-46422D01*
X42303Y-46422D02*
X42500Y-46618D01*
X42500Y-46618D02*
X42697Y-46422D01*
X41949Y-46815D02*
X42224Y-47090D01*
X41949Y-46972D02*
X42067Y-47090D01*
X42028Y-47090D02*
X41949Y-47012D01*
X41949Y-46893D02*
X42146Y-47090D01*
X43051Y-45831D02*
X41949Y-45831D01*
X41949Y-45831D02*
X41949Y-47169D01*
X41949Y-47169D02*
X43051Y-47169D01*
X43050Y-47169D02*
X43050Y-45831D01*
G54D19*
X32250Y-38850D02*
X32249Y-38859D01*
X32246Y-38869D01*
X32241Y-38877D01*
X32235Y-38885D01*
X32227Y-38891D01*
X32219Y-38896D01*
X32210Y-38898D01*
X32200Y-38899D01*
X32191Y-38899D01*
X32182Y-38896D01*
X32173Y-38891D01*
X32166Y-38885D01*
X32159Y-38878D01*
X32155Y-38869D01*
X32152Y-38860D01*
X32151Y-38850D01*
X32151Y-38841D01*
X32154Y-38832D01*
X32158Y-38823D01*
X32165Y-38816D01*
X32172Y-38809D01*
X32180Y-38805D01*
X32190Y-38802D01*
X32199Y-38801D01*
X32208Y-38801D01*
X32218Y-38804D01*
X32226Y-38808D01*
X32234Y-38814D01*
X32240Y-38822D01*
X32245Y-38830D01*
X32248Y-38839D01*
X32249Y-38849D01*
X32250Y-38850D01*
X32200Y-39300D02*
X32200Y-38900D01*
X32200Y-38900D02*
X32800Y-38900D01*
X32800Y-38900D02*
X32800Y-39300D01*
X32800Y-39700D02*
X32800Y-40100D01*
X32800Y-40100D02*
X32200Y-40100D01*
X32200Y-40100D02*
X32200Y-39700D01*
X28650Y-41600D02*
X28650Y-41100D01*
X29150Y-41600D02*
X29150Y-41110D01*
X29300Y-41600D02*
X28500Y-41600D01*
X28500Y-41600D02*
X28500Y-41100D01*
X28500Y-41100D02*
X29300Y-41100D01*
X29300Y-41100D02*
X29300Y-41600D01*
X45250Y-41000D02*
X44750Y-41000D01*
X45250Y-40500D02*
X44760Y-40500D01*
X45250Y-40350D02*
X45250Y-41150D01*
X45250Y-41150D02*
X44750Y-41150D01*
X44750Y-41150D02*
X44750Y-40350D01*
X44750Y-40350D02*
X45250Y-40350D01*
X33750Y-35750D02*
X33250Y-35750D01*
X33750Y-35250D02*
X33260Y-35250D01*
X33750Y-35100D02*
X33750Y-35900D01*
X33750Y-35900D02*
X33250Y-35900D01*
X33250Y-35900D02*
X33250Y-35100D01*
X33250Y-35100D02*
X33750Y-35100D01*
X43050Y-42350D02*
X43050Y-41850D01*
X43550Y-42350D02*
X43550Y-41860D01*
X43700Y-42350D02*
X42900Y-42350D01*
X42900Y-42350D02*
X42900Y-41850D01*
X42900Y-41850D02*
X43700Y-41850D01*
X43700Y-41850D02*
X43700Y-42350D01*
X37650Y-40350D02*
X37650Y-40850D01*
X37150Y-40350D02*
X37150Y-40840D01*
X37000Y-40350D02*
X37800Y-40350D01*
X37800Y-40350D02*
X37800Y-40850D01*
X37800Y-40850D02*
X37000Y-40850D01*
X37000Y-40850D02*
X37000Y-40350D01*
X36250Y-37250D02*
X36250Y-36750D01*
X36750Y-37250D02*
X36750Y-36760D01*
X36900Y-37250D02*
X36100Y-37250D01*
X36100Y-37250D02*
X36100Y-36750D01*
X36100Y-36750D02*
X36900Y-36750D01*
X36900Y-36750D02*
X36900Y-37250D01*
X38750Y-36750D02*
X38750Y-37250D01*
X38250Y-36750D02*
X38250Y-37240D01*
X38100Y-36750D02*
X38900Y-36750D01*
X38900Y-36750D02*
X38900Y-37250D01*
X38900Y-37250D02*
X38100Y-37250D01*
X38100Y-37250D02*
X38100Y-36750D01*
X31250Y-44000D02*
X31750Y-44000D01*
X31250Y-44500D02*
X31740Y-44500D01*
X31250Y-44650D02*
X31250Y-43850D01*
X31250Y-43850D02*
X31750Y-43850D01*
X31750Y-43850D02*
X31750Y-44650D01*
X31750Y-44650D02*
X31250Y-44650D01*
X30350Y-42100D02*
X29850Y-42100D01*
X30350Y-41600D02*
X29860Y-41600D01*
X30350Y-41450D02*
X30350Y-42250D01*
X30350Y-42250D02*
X29850Y-42250D01*
X29850Y-42250D02*
X29850Y-41450D01*
X29850Y-41450D02*
X30350Y-41450D01*
X28500Y-31850D02*
X28499Y-31859D01*
X28496Y-31869D01*
X28491Y-31877D01*
X28485Y-31885D01*
X28477Y-31891D01*
X28469Y-31896D01*
X28460Y-31898D01*
X28450Y-31899D01*
X28441Y-31899D01*
X28432Y-31896D01*
X28423Y-31891D01*
X28416Y-31885D01*
X28409Y-31878D01*
X28405Y-31869D01*
X28402Y-31860D01*
X28401Y-31850D01*
X28401Y-31841D01*
X28404Y-31832D01*
X28408Y-31823D01*
X28415Y-31816D01*
X28422Y-31809D01*
X28430Y-31805D01*
X28440Y-31802D01*
X28449Y-31801D01*
X28458Y-31801D01*
X28468Y-31804D01*
X28476Y-31808D01*
X28484Y-31814D01*
X28490Y-31822D01*
X28495Y-31830D01*
X28498Y-31839D01*
X28499Y-31849D01*
X28500Y-31850D01*
X28450Y-32300D02*
X28450Y-31900D01*
X28450Y-31900D02*
X29050Y-31900D01*
X29050Y-31900D02*
X29050Y-32300D01*
X29050Y-32700D02*
X29050Y-33100D01*
X29050Y-33100D02*
X28450Y-33100D01*
X28450Y-33100D02*
X28450Y-32700D01*
X45350Y-43050D02*
X45349Y-43059D01*
X45346Y-43069D01*
X45341Y-43077D01*
X45335Y-43085D01*
X45327Y-43091D01*
X45319Y-43096D01*
X45310Y-43098D01*
X45300Y-43099D01*
X45291Y-43099D01*
X45282Y-43096D01*
X45273Y-43091D01*
X45266Y-43085D01*
X45259Y-43078D01*
X45255Y-43069D01*
X45252Y-43060D01*
X45251Y-43050D01*
X45251Y-43041D01*
X45254Y-43032D01*
X45258Y-43023D01*
X45265Y-43016D01*
X45272Y-43009D01*
X45280Y-43005D01*
X45290Y-43002D01*
X45299Y-43001D01*
X45308Y-43001D01*
X45318Y-43004D01*
X45326Y-43008D01*
X45334Y-43014D01*
X45340Y-43022D01*
X45345Y-43030D01*
X45348Y-43039D01*
X45349Y-43049D01*
X45350Y-43050D01*
X45300Y-42600D02*
X45300Y-43000D01*
X45300Y-43000D02*
X44700Y-43000D01*
X44700Y-43000D02*
X44700Y-42600D01*
X44700Y-42200D02*
X44700Y-41800D01*
X44700Y-41800D02*
X45300Y-41800D01*
X45300Y-41800D02*
X45300Y-42200D01*
X42200Y-36700D02*
X42199Y-36709D01*
X42196Y-36719D01*
X42191Y-36727D01*
X42185Y-36735D01*
X42177Y-36741D01*
X42169Y-36746D01*
X42160Y-36748D01*
X42150Y-36749D01*
X42141Y-36749D01*
X42132Y-36746D01*
X42123Y-36741D01*
X42116Y-36735D01*
X42109Y-36728D01*
X42105Y-36719D01*
X42102Y-36710D01*
X42101Y-36700D01*
X42101Y-36691D01*
X42104Y-36682D01*
X42108Y-36673D01*
X42115Y-36666D01*
X42122Y-36659D01*
X42130Y-36655D01*
X42140Y-36652D01*
X42149Y-36651D01*
X42158Y-36651D01*
X42168Y-36654D01*
X42176Y-36658D01*
X42184Y-36664D01*
X42190Y-36672D01*
X42195Y-36680D01*
X42198Y-36689D01*
X42199Y-36699D01*
X42200Y-36700D01*
X41700Y-36700D02*
X42100Y-36700D01*
X42100Y-36700D02*
X42100Y-37300D01*
X42100Y-37300D02*
X41700Y-37300D01*
X41300Y-37300D02*
X40900Y-37300D01*
X40900Y-37300D02*
X40900Y-36700D01*
X40900Y-36700D02*
X41300Y-36700D01*
X29250Y-43600D02*
X29249Y-43609D01*
X29246Y-43619D01*
X29241Y-43627D01*
X29235Y-43635D01*
X29227Y-43641D01*
X29219Y-43646D01*
X29210Y-43648D01*
X29200Y-43649D01*
X29191Y-43649D01*
X29182Y-43646D01*
X29173Y-43641D01*
X29166Y-43635D01*
X29159Y-43628D01*
X29155Y-43619D01*
X29152Y-43610D01*
X29151Y-43600D01*
X29151Y-43591D01*
X29154Y-43582D01*
X29158Y-43573D01*
X29165Y-43566D01*
X29172Y-43559D01*
X29180Y-43555D01*
X29190Y-43552D01*
X29199Y-43551D01*
X29208Y-43551D01*
X29218Y-43554D01*
X29226Y-43558D01*
X29234Y-43564D01*
X29240Y-43572D01*
X29245Y-43580D01*
X29248Y-43589D01*
X29249Y-43599D01*
X29250Y-43600D01*
X29200Y-44050D02*
X29200Y-43650D01*
X29200Y-43650D02*
X29800Y-43650D01*
X29800Y-43650D02*
X29800Y-44050D01*
X29800Y-44450D02*
X29800Y-44850D01*
X29800Y-44850D02*
X29200Y-44850D01*
X29200Y-44850D02*
X29200Y-44450D01*
X30850Y-44900D02*
X30849Y-44909D01*
X30846Y-44919D01*
X30841Y-44927D01*
X30835Y-44935D01*
X30827Y-44941D01*
X30819Y-44946D01*
X30810Y-44948D01*
X30800Y-44949D01*
X30791Y-44949D01*
X30782Y-44946D01*
X30773Y-44941D01*
X30766Y-44935D01*
X30759Y-44928D01*
X30755Y-44919D01*
X30752Y-44910D01*
X30751Y-44900D01*
X30751Y-44891D01*
X30754Y-44882D01*
X30758Y-44873D01*
X30765Y-44866D01*
X30772Y-44859D01*
X30780Y-44855D01*
X30790Y-44852D01*
X30799Y-44851D01*
X30808Y-44851D01*
X30818Y-44854D01*
X30826Y-44858D01*
X30834Y-44864D01*
X30840Y-44872D01*
X30845Y-44880D01*
X30848Y-44889D01*
X30849Y-44899D01*
X30850Y-44900D01*
X30800Y-44450D02*
X30800Y-44850D01*
X30800Y-44850D02*
X30200Y-44850D01*
X30200Y-44850D02*
X30200Y-44450D01*
X30200Y-44050D02*
X30200Y-43650D01*
X30200Y-43650D02*
X30800Y-43650D01*
X30800Y-43650D02*
X30800Y-44050D01*
X36900Y-33200D02*
X36899Y-33209D01*
X36896Y-33219D01*
X36891Y-33227D01*
X36885Y-33235D01*
X36877Y-33241D01*
X36869Y-33246D01*
X36860Y-33248D01*
X36850Y-33249D01*
X36841Y-33249D01*
X36832Y-33246D01*
X36823Y-33241D01*
X36816Y-33235D01*
X36809Y-33228D01*
X36805Y-33219D01*
X36802Y-33210D01*
X36801Y-33200D01*
X36801Y-33191D01*
X36804Y-33182D01*
X36808Y-33173D01*
X36815Y-33166D01*
X36822Y-33159D01*
X36830Y-33155D01*
X36840Y-33152D01*
X36849Y-33151D01*
X36858Y-33151D01*
X36868Y-33154D01*
X36876Y-33158D01*
X36884Y-33164D01*
X36890Y-33172D01*
X36895Y-33180D01*
X36898Y-33189D01*
X36899Y-33199D01*
X36900Y-33200D01*
X37300Y-33200D02*
X36900Y-33200D01*
X36900Y-33200D02*
X36900Y-32600D01*
X36900Y-32600D02*
X37300Y-32600D01*
X37700Y-32600D02*
X38100Y-32600D01*
X38100Y-32600D02*
X38100Y-33200D01*
X38100Y-33200D02*
X37700Y-33200D01*
X36900Y-32400D02*
X36899Y-32409D01*
X36896Y-32419D01*
X36891Y-32427D01*
X36885Y-32435D01*
X36877Y-32441D01*
X36869Y-32446D01*
X36860Y-32448D01*
X36850Y-32449D01*
X36841Y-32449D01*
X36832Y-32446D01*
X36823Y-32441D01*
X36816Y-32435D01*
X36809Y-32428D01*
X36805Y-32419D01*
X36802Y-32410D01*
X36801Y-32400D01*
X36801Y-32391D01*
X36804Y-32382D01*
X36808Y-32373D01*
X36815Y-32366D01*
X36822Y-32359D01*
X36830Y-32355D01*
X36840Y-32352D01*
X36849Y-32351D01*
X36858Y-32351D01*
X36868Y-32354D01*
X36876Y-32358D01*
X36884Y-32364D01*
X36890Y-32372D01*
X36895Y-32380D01*
X36898Y-32389D01*
X36899Y-32399D01*
X36900Y-32400D01*
X37300Y-32400D02*
X36900Y-32400D01*
X36900Y-32400D02*
X36900Y-31800D01*
X36900Y-31800D02*
X37300Y-31800D01*
X37700Y-31800D02*
X38100Y-31800D01*
X38100Y-31800D02*
X38100Y-32400D01*
X38100Y-32400D02*
X37700Y-32400D01*
X34200Y-36700D02*
X34199Y-36709D01*
X34196Y-36719D01*
X34191Y-36727D01*
X34185Y-36735D01*
X34177Y-36741D01*
X34169Y-36746D01*
X34160Y-36748D01*
X34150Y-36749D01*
X34141Y-36749D01*
X34132Y-36746D01*
X34123Y-36741D01*
X34116Y-36735D01*
X34109Y-36728D01*
X34105Y-36719D01*
X34102Y-36710D01*
X34101Y-36700D01*
X34101Y-36691D01*
X34104Y-36682D01*
X34108Y-36673D01*
X34115Y-36666D01*
X34122Y-36659D01*
X34130Y-36655D01*
X34140Y-36652D01*
X34149Y-36651D01*
X34158Y-36651D01*
X34168Y-36654D01*
X34176Y-36658D01*
X34184Y-36664D01*
X34190Y-36672D01*
X34195Y-36680D01*
X34198Y-36689D01*
X34199Y-36699D01*
X34200Y-36700D01*
X33700Y-36700D02*
X34100Y-36700D01*
X34100Y-36700D02*
X34100Y-37300D01*
X34100Y-37300D02*
X33700Y-37300D01*
X33300Y-37300D02*
X32900Y-37300D01*
X32900Y-37300D02*
X32900Y-36700D01*
X32900Y-36700D02*
X33300Y-36700D01*
X46050Y-31850D02*
X46049Y-31859D01*
X46046Y-31869D01*
X46041Y-31877D01*
X46035Y-31885D01*
X46027Y-31891D01*
X46019Y-31896D01*
X46010Y-31898D01*
X46000Y-31899D01*
X45991Y-31899D01*
X45982Y-31896D01*
X45973Y-31891D01*
X45966Y-31885D01*
X45959Y-31878D01*
X45955Y-31869D01*
X45952Y-31860D01*
X45951Y-31850D01*
X45951Y-31841D01*
X45954Y-31832D01*
X45958Y-31823D01*
X45965Y-31816D01*
X45972Y-31809D01*
X45980Y-31805D01*
X45990Y-31802D01*
X45999Y-31801D01*
X46008Y-31801D01*
X46018Y-31804D01*
X46026Y-31808D01*
X46034Y-31814D01*
X46040Y-31822D01*
X46045Y-31830D01*
X46048Y-31839D01*
X46049Y-31849D01*
X46050Y-31850D01*
X46000Y-32300D02*
X46000Y-31900D01*
X46000Y-31900D02*
X46600Y-31900D01*
X46600Y-31900D02*
X46600Y-32300D01*
X46600Y-32700D02*
X46600Y-33100D01*
X46600Y-33100D02*
X46000Y-33100D01*
X46000Y-33100D02*
X46000Y-32700D01*
X44700Y-30600D02*
X44699Y-30609D01*
X44696Y-30619D01*
X44691Y-30627D01*
X44685Y-30635D01*
X44677Y-30641D01*
X44669Y-30646D01*
X44660Y-30648D01*
X44650Y-30649D01*
X44641Y-30649D01*
X44632Y-30646D01*
X44623Y-30641D01*
X44616Y-30635D01*
X44609Y-30628D01*
X44605Y-30619D01*
X44602Y-30610D01*
X44601Y-30600D01*
X44601Y-30591D01*
X44604Y-30582D01*
X44608Y-30573D01*
X44615Y-30566D01*
X44622Y-30559D01*
X44630Y-30555D01*
X44640Y-30552D01*
X44649Y-30551D01*
X44658Y-30551D01*
X44668Y-30554D01*
X44676Y-30558D01*
X44684Y-30564D01*
X44690Y-30572D01*
X44695Y-30580D01*
X44698Y-30589D01*
X44699Y-30599D01*
X44700Y-30600D01*
X44650Y-31050D02*
X44650Y-30650D01*
X44650Y-30650D02*
X45250Y-30650D01*
X45250Y-30650D02*
X45250Y-31050D01*
X45250Y-31450D02*
X45250Y-31850D01*
X45250Y-31850D02*
X44650Y-31850D01*
X44650Y-31850D02*
X44650Y-31450D01*
X33450Y-46350D02*
X33449Y-46359D01*
X33446Y-46369D01*
X33441Y-46377D01*
X33435Y-46385D01*
X33427Y-46391D01*
X33419Y-46396D01*
X33410Y-46398D01*
X33400Y-46399D01*
X33391Y-46399D01*
X33382Y-46396D01*
X33373Y-46391D01*
X33366Y-46385D01*
X33359Y-46378D01*
X33355Y-46369D01*
X33352Y-46360D01*
X33351Y-46350D01*
X33351Y-46341D01*
X33354Y-46332D01*
X33358Y-46323D01*
X33365Y-46316D01*
X33372Y-46309D01*
X33380Y-46305D01*
X33390Y-46302D01*
X33399Y-46301D01*
X33408Y-46301D01*
X33418Y-46304D01*
X33426Y-46308D01*
X33434Y-46314D01*
X33440Y-46322D01*
X33445Y-46330D01*
X33448Y-46339D01*
X33449Y-46349D01*
X33450Y-46350D01*
X33400Y-46800D02*
X33400Y-46400D01*
X33400Y-46400D02*
X34000Y-46400D01*
X34000Y-46400D02*
X34000Y-46800D01*
X34000Y-47200D02*
X34000Y-47600D01*
X34000Y-47600D02*
X33400Y-47600D01*
X33400Y-47600D02*
X33400Y-47200D01*
X35850Y-46750D02*
X35849Y-46759D01*
X35846Y-46769D01*
X35841Y-46777D01*
X35835Y-46785D01*
X35827Y-46791D01*
X35819Y-46796D01*
X35810Y-46798D01*
X35800Y-46799D01*
X35791Y-46799D01*
X35782Y-46796D01*
X35773Y-46791D01*
X35766Y-46785D01*
X35759Y-46778D01*
X35755Y-46769D01*
X35752Y-46760D01*
X35751Y-46750D01*
X35751Y-46741D01*
X35754Y-46732D01*
X35758Y-46723D01*
X35765Y-46716D01*
X35772Y-46709D01*
X35780Y-46705D01*
X35790Y-46702D01*
X35799Y-46701D01*
X35808Y-46701D01*
X35818Y-46704D01*
X35826Y-46708D01*
X35834Y-46714D01*
X35840Y-46722D01*
X35845Y-46730D01*
X35848Y-46739D01*
X35849Y-46749D01*
X35850Y-46750D01*
X35800Y-47200D02*
X35800Y-46800D01*
X35800Y-46800D02*
X36400Y-46800D01*
X36400Y-46800D02*
X36400Y-47200D01*
X36400Y-47600D02*
X36400Y-48000D01*
X36400Y-48000D02*
X35800Y-48000D01*
X35800Y-48000D02*
X35800Y-47600D01*
X38450Y-46750D02*
X38449Y-46759D01*
X38446Y-46769D01*
X38441Y-46777D01*
X38435Y-46785D01*
X38427Y-46791D01*
X38419Y-46796D01*
X38410Y-46798D01*
X38400Y-46799D01*
X38391Y-46799D01*
X38382Y-46796D01*
X38373Y-46791D01*
X38366Y-46785D01*
X38359Y-46778D01*
X38355Y-46769D01*
X38352Y-46760D01*
X38351Y-46750D01*
X38351Y-46741D01*
X38354Y-46732D01*
X38358Y-46723D01*
X38365Y-46716D01*
X38372Y-46709D01*
X38380Y-46705D01*
X38390Y-46702D01*
X38399Y-46701D01*
X38408Y-46701D01*
X38418Y-46704D01*
X38426Y-46708D01*
X38434Y-46714D01*
X38440Y-46722D01*
X38445Y-46730D01*
X38448Y-46739D01*
X38449Y-46749D01*
X38450Y-46750D01*
X38400Y-47200D02*
X38400Y-46800D01*
X38400Y-46800D02*
X39000Y-46800D01*
X39000Y-46800D02*
X39000Y-47200D01*
X39000Y-47600D02*
X39000Y-48000D01*
X39000Y-48000D02*
X38400Y-48000D01*
X38400Y-48000D02*
X38400Y-47600D01*
X41000Y-46850D02*
X40999Y-46859D01*
X40996Y-46869D01*
X40991Y-46877D01*
X40985Y-46885D01*
X40977Y-46891D01*
X40969Y-46896D01*
X40960Y-46898D01*
X40950Y-46899D01*
X40941Y-46899D01*
X40932Y-46896D01*
X40923Y-46891D01*
X40916Y-46885D01*
X40909Y-46878D01*
X40905Y-46869D01*
X40902Y-46860D01*
X40901Y-46850D01*
X40901Y-46841D01*
X40904Y-46832D01*
X40908Y-46823D01*
X40915Y-46816D01*
X40922Y-46809D01*
X40930Y-46805D01*
X40940Y-46802D01*
X40949Y-46801D01*
X40958Y-46801D01*
X40968Y-46804D01*
X40976Y-46808D01*
X40984Y-46814D01*
X40990Y-46822D01*
X40995Y-46830D01*
X40998Y-46839D01*
X40999Y-46849D01*
X41000Y-46850D01*
X40950Y-47300D02*
X40950Y-46900D01*
X40950Y-46900D02*
X41550Y-46900D01*
X41550Y-46900D02*
X41550Y-47300D01*
X41550Y-47700D02*
X41550Y-48100D01*
X41550Y-48100D02*
X40950Y-48100D01*
X40950Y-48100D02*
X40950Y-47700D01*
X43450Y-46950D02*
X43449Y-46959D01*
X43446Y-46969D01*
X43441Y-46977D01*
X43435Y-46985D01*
X43427Y-46991D01*
X43419Y-46996D01*
X43410Y-46998D01*
X43400Y-46999D01*
X43391Y-46999D01*
X43382Y-46996D01*
X43373Y-46991D01*
X43366Y-46985D01*
X43359Y-46978D01*
X43355Y-46969D01*
X43352Y-46960D01*
X43351Y-46950D01*
X43351Y-46941D01*
X43354Y-46932D01*
X43358Y-46923D01*
X43365Y-46916D01*
X43372Y-46909D01*
X43380Y-46905D01*
X43390Y-46902D01*
X43399Y-46901D01*
X43408Y-46901D01*
X43418Y-46904D01*
X43426Y-46908D01*
X43434Y-46914D01*
X43440Y-46922D01*
X43445Y-46930D01*
X43448Y-46939D01*
X43449Y-46949D01*
X43450Y-46950D01*
X43400Y-47400D02*
X43400Y-47000D01*
X43400Y-47000D02*
X44000Y-47000D01*
X44000Y-47000D02*
X44000Y-47400D01*
X44000Y-47800D02*
X44000Y-48200D01*
X44000Y-48200D02*
X43400Y-48200D01*
X43400Y-48200D02*
X43400Y-47800D01*
X44450Y-46050D02*
X44449Y-46059D01*
X44446Y-46069D01*
X44441Y-46077D01*
X44435Y-46085D01*
X44427Y-46091D01*
X44419Y-46096D01*
X44410Y-46098D01*
X44400Y-46099D01*
X44391Y-46099D01*
X44382Y-46096D01*
X44373Y-46091D01*
X44366Y-46085D01*
X44359Y-46078D01*
X44355Y-46069D01*
X44352Y-46060D01*
X44351Y-46050D01*
X44351Y-46041D01*
X44354Y-46032D01*
X44358Y-46023D01*
X44365Y-46016D01*
X44372Y-46009D01*
X44380Y-46005D01*
X44390Y-46002D01*
X44399Y-46001D01*
X44408Y-46001D01*
X44418Y-46004D01*
X44426Y-46008D01*
X44434Y-46014D01*
X44440Y-46022D01*
X44445Y-46030D01*
X44448Y-46039D01*
X44449Y-46049D01*
X44450Y-46050D01*
X44400Y-46500D02*
X44400Y-46100D01*
X44400Y-46100D02*
X45000Y-46100D01*
X45000Y-46100D02*
X45000Y-46500D01*
X45000Y-46900D02*
X45000Y-47300D01*
X45000Y-47300D02*
X44400Y-47300D01*
X44400Y-47300D02*
X44400Y-46900D01*
X33250Y-43600D02*
X33249Y-43609D01*
X33246Y-43619D01*
X33241Y-43627D01*
X33235Y-43635D01*
X33227Y-43641D01*
X33219Y-43646D01*
X33210Y-43648D01*
X33200Y-43649D01*
X33191Y-43649D01*
X33182Y-43646D01*
X33173Y-43641D01*
X33166Y-43635D01*
X33159Y-43628D01*
X33155Y-43619D01*
X33152Y-43610D01*
X33151Y-43600D01*
X33151Y-43591D01*
X33154Y-43582D01*
X33158Y-43573D01*
X33165Y-43566D01*
X33172Y-43559D01*
X33180Y-43555D01*
X33190Y-43552D01*
X33199Y-43551D01*
X33208Y-43551D01*
X33218Y-43554D01*
X33226Y-43558D01*
X33234Y-43564D01*
X33240Y-43572D01*
X33245Y-43580D01*
X33248Y-43589D01*
X33249Y-43599D01*
X33250Y-43600D01*
X33200Y-44050D02*
X33200Y-43650D01*
X33200Y-43650D02*
X33800Y-43650D01*
X33800Y-43650D02*
X33800Y-44050D01*
X33800Y-44450D02*
X33800Y-44850D01*
X33800Y-44850D02*
X33200Y-44850D01*
X33200Y-44850D02*
X33200Y-44450D01*
X33450Y-42200D02*
X33449Y-42209D01*
X33446Y-42219D01*
X33441Y-42227D01*
X33435Y-42235D01*
X33427Y-42241D01*
X33419Y-42246D01*
X33410Y-42248D01*
X33400Y-42249D01*
X33391Y-42249D01*
X33382Y-42246D01*
X33373Y-42241D01*
X33366Y-42235D01*
X33359Y-42228D01*
X33355Y-42219D01*
X33352Y-42210D01*
X33351Y-42200D01*
X33351Y-42191D01*
X33354Y-42182D01*
X33358Y-42173D01*
X33365Y-42166D01*
X33372Y-42159D01*
X33380Y-42155D01*
X33390Y-42152D01*
X33399Y-42151D01*
X33408Y-42151D01*
X33418Y-42154D01*
X33426Y-42158D01*
X33434Y-42164D01*
X33440Y-42172D01*
X33445Y-42180D01*
X33448Y-42189D01*
X33449Y-42199D01*
X33450Y-42200D01*
X32950Y-42200D02*
X33350Y-42200D01*
X33350Y-42200D02*
X33350Y-42800D01*
X33350Y-42800D02*
X32950Y-42800D01*
X32550Y-42800D02*
X32150Y-42800D01*
X32150Y-42800D02*
X32150Y-42200D01*
X32150Y-42200D02*
X32550Y-42200D01*
X32850Y-44900D02*
X32849Y-44909D01*
X32846Y-44919D01*
X32841Y-44927D01*
X32835Y-44935D01*
X32827Y-44941D01*
X32819Y-44946D01*
X32810Y-44948D01*
X32800Y-44949D01*
X32791Y-44949D01*
X32782Y-44946D01*
X32773Y-44941D01*
X32766Y-44935D01*
X32759Y-44928D01*
X32755Y-44919D01*
X32752Y-44910D01*
X32751Y-44900D01*
X32751Y-44891D01*
X32754Y-44882D01*
X32758Y-44873D01*
X32765Y-44866D01*
X32772Y-44859D01*
X32780Y-44855D01*
X32790Y-44852D01*
X32799Y-44851D01*
X32808Y-44851D01*
X32818Y-44854D01*
X32826Y-44858D01*
X32834Y-44864D01*
X32840Y-44872D01*
X32845Y-44880D01*
X32848Y-44889D01*
X32849Y-44899D01*
X32850Y-44900D01*
X32800Y-44450D02*
X32800Y-44850D01*
X32800Y-44850D02*
X32200Y-44850D01*
X32200Y-44850D02*
X32200Y-44450D01*
X32200Y-44050D02*
X32200Y-43650D01*
X32200Y-43650D02*
X32800Y-43650D01*
X32800Y-43650D02*
X32800Y-44050D01*
X43400Y-33800D02*
X43399Y-33809D01*
X43396Y-33819D01*
X43391Y-33827D01*
X43385Y-33835D01*
X43377Y-33841D01*
X43369Y-33846D01*
X43360Y-33848D01*
X43350Y-33849D01*
X43341Y-33849D01*
X43332Y-33846D01*
X43323Y-33841D01*
X43316Y-33835D01*
X43309Y-33828D01*
X43305Y-33819D01*
X43302Y-33810D01*
X43301Y-33800D01*
X43301Y-33791D01*
X43304Y-33782D01*
X43308Y-33773D01*
X43315Y-33766D01*
X43322Y-33759D01*
X43330Y-33755D01*
X43340Y-33752D01*
X43349Y-33751D01*
X43358Y-33751D01*
X43368Y-33754D01*
X43376Y-33758D01*
X43384Y-33764D01*
X43390Y-33772D01*
X43395Y-33780D01*
X43398Y-33789D01*
X43399Y-33799D01*
X43400Y-33800D01*
X43800Y-33800D02*
X43400Y-33800D01*
X43400Y-33800D02*
X43400Y-33200D01*
X43400Y-33200D02*
X43800Y-33200D01*
X44200Y-33200D02*
X44600Y-33200D01*
X44600Y-33200D02*
X44600Y-33800D01*
X44600Y-33800D02*
X44200Y-33800D01*
X43350Y-31900D02*
X43349Y-31909D01*
X43346Y-31919D01*
X43341Y-31927D01*
X43335Y-31935D01*
X43327Y-31941D01*
X43319Y-31946D01*
X43310Y-31948D01*
X43300Y-31949D01*
X43291Y-31949D01*
X43282Y-31946D01*
X43273Y-31941D01*
X43266Y-31935D01*
X43259Y-31928D01*
X43255Y-31919D01*
X43252Y-31910D01*
X43251Y-31900D01*
X43251Y-31891D01*
X43254Y-31882D01*
X43258Y-31873D01*
X43265Y-31866D01*
X43272Y-31859D01*
X43280Y-31855D01*
X43290Y-31852D01*
X43299Y-31851D01*
X43308Y-31851D01*
X43318Y-31854D01*
X43326Y-31858D01*
X43334Y-31864D01*
X43340Y-31872D01*
X43345Y-31880D01*
X43348Y-31889D01*
X43349Y-31899D01*
X43350Y-31900D01*
X43300Y-31450D02*
X43300Y-31850D01*
X43300Y-31850D02*
X42700Y-31850D01*
X42700Y-31850D02*
X42700Y-31450D01*
X42700Y-31050D02*
X42700Y-30650D01*
X42700Y-30650D02*
X43300Y-30650D01*
X43300Y-30650D02*
X43300Y-31050D01*
X44250Y-31500D02*
X43750Y-31500D01*
X44250Y-31000D02*
X43760Y-31000D01*
X44250Y-30850D02*
X44250Y-31650D01*
X44250Y-31650D02*
X43750Y-31650D01*
X43750Y-31650D02*
X43750Y-30850D01*
X43750Y-30850D02*
X44250Y-30850D01*
G54D13*
X47200Y-47600D02*
X47500Y-47600D01*
X47500Y-47600D02*
X47500Y-46200D01*
X47500Y-46200D02*
X47200Y-46200D01*
X45800Y-48300D02*
X45800Y-45500D01*
X45800Y-45500D02*
X46300Y-45500D01*
X46300Y-45500D02*
X46300Y-45700D01*
X46300Y-45700D02*
X46600Y-45700D01*
X46600Y-45700D02*
X46600Y-45500D01*
X46600Y-45500D02*
X47200Y-45500D01*
X47200Y-45500D02*
X47200Y-48300D01*
X47200Y-48300D02*
X46600Y-48300D01*
X46600Y-48300D02*
X46600Y-48100D01*
X46600Y-48100D02*
X46400Y-48100D01*
X46400Y-48100D02*
X46400Y-48300D01*
X46400Y-48300D02*
X45800Y-48300D01*
G54D11*
X30500Y-30500D02*
X30500Y-29500D01*
X30500Y-29500D02*
X36500Y-29500D01*
X36500Y-29500D02*
X36500Y-30500D01*
X36500Y-30500D02*
X30500Y-30500D01*
X31500Y-30500D02*
X31500Y-29500D01*
X38500Y-29500D02*
X38500Y-29500D01*
X38500Y-30500D02*
X38500Y-29500D01*
X38500Y-29500D02*
X38500Y-29500D01*
X38500Y-29500D02*
X42500Y-29500D01*
X42500Y-29500D02*
X42500Y-30500D01*
X42500Y-30500D02*
X38500Y-30500D01*
X39500Y-30500D02*
X39500Y-29500D01*
X38500Y-30500D02*
X38500Y-30500D01*
X38500Y-31500D02*
X38500Y-30500D01*
X38500Y-30500D02*
X38500Y-30500D01*
X38500Y-30500D02*
X42500Y-30500D01*
X42500Y-30500D02*
X42500Y-31500D01*
X42500Y-31500D02*
X38500Y-31500D01*
X39500Y-31500D02*
X39500Y-30500D01*
X38500Y-31500D02*
X38500Y-31500D01*
X38500Y-32500D02*
X38500Y-31500D01*
X38500Y-31500D02*
X38500Y-31500D01*
X38500Y-31500D02*
X42500Y-31500D01*
X42500Y-31500D02*
X42500Y-32500D01*
X42500Y-32500D02*
X38500Y-32500D01*
X39500Y-32500D02*
X39500Y-31500D01*
X30500Y-32500D02*
X30500Y-31500D01*
X30500Y-31500D02*
X36500Y-31500D01*
X36500Y-31500D02*
X36500Y-32500D01*
X36500Y-32500D02*
X30500Y-32500D01*
X31500Y-32500D02*
X31500Y-31500D01*
X30500Y-31500D02*
X30500Y-30500D01*
X30500Y-30500D02*
X36500Y-30500D01*
X36500Y-30500D02*
X36500Y-31500D01*
X36500Y-31500D02*
X30500Y-31500D01*
X31500Y-31500D02*
X31500Y-30500D01*
X27700Y-45100D02*
X27700Y-45100D01*
X27700Y-46100D02*
X27700Y-45100D01*
X27700Y-45100D02*
X27700Y-45100D01*
X27700Y-45100D02*
X31700Y-45100D01*
X31700Y-45100D02*
X31700Y-46100D01*
X31700Y-46100D02*
X27700Y-46100D01*
X28700Y-46100D02*
X28700Y-45100D01*
G54D19*
X28650Y-42500D02*
X28650Y-42000D01*
X29150Y-42500D02*
X29150Y-42010D01*
X29300Y-42500D02*
X28500Y-42500D01*
X28500Y-42500D02*
X28500Y-42000D01*
X28500Y-42000D02*
X29300Y-42000D01*
X29300Y-42000D02*
X29300Y-42500D01*
X31750Y-40750D02*
X31750Y-41250D01*
X31250Y-40750D02*
X31250Y-41240D01*
X31100Y-40750D02*
X31900Y-40750D01*
X31900Y-40750D02*
X31900Y-41250D01*
X31900Y-41250D02*
X31100Y-41250D01*
X31100Y-41250D02*
X31100Y-40750D01*
X41750Y-35750D02*
X41250Y-35750D01*
X41750Y-35250D02*
X41260Y-35250D01*
X41750Y-35100D02*
X41750Y-35900D01*
X41750Y-35900D02*
X41250Y-35900D01*
X41250Y-35900D02*
X41250Y-35100D01*
X41250Y-35100D02*
X41750Y-35100D01*
G54D11*
X46700Y-44800D02*
X45700Y-44800D01*
X45700Y-44800D02*
X45700Y-39800D01*
X45700Y-39800D02*
X46700Y-39800D01*
X46700Y-39800D02*
X46700Y-44800D01*
X46700Y-43800D02*
X45700Y-43800D01*
G54D20*
X41750Y-44700D02*
X41749Y-44709D01*
X41746Y-44719D01*
X41741Y-44727D01*
X41735Y-44735D01*
X41727Y-44741D01*
X41719Y-44746D01*
X41710Y-44748D01*
X41700Y-44749D01*
X41691Y-44749D01*
X41682Y-44746D01*
X41673Y-44741D01*
X41666Y-44735D01*
X41659Y-44728D01*
X41655Y-44719D01*
X41652Y-44710D01*
X41651Y-44700D01*
X41651Y-44691D01*
X41654Y-44682D01*
X41658Y-44673D01*
X41665Y-44666D01*
X41672Y-44659D01*
X41680Y-44655D01*
X41690Y-44652D01*
X41699Y-44651D01*
X41708Y-44651D01*
X41718Y-44654D01*
X41726Y-44658D01*
X41734Y-44664D01*
X41740Y-44672D01*
X41745Y-44680D01*
X41748Y-44689D01*
X41749Y-44699D01*
X41750Y-44700D01*
X42103Y-44700D02*
X42095Y-44778D01*
X42072Y-44853D01*
X42035Y-44923D01*
X41985Y-44983D01*
X41925Y-45034D01*
X41856Y-45071D01*
X41781Y-45094D01*
X41702Y-45102D01*
X41625Y-45095D01*
X41550Y-45073D01*
X41480Y-45037D01*
X41419Y-44987D01*
X41368Y-44927D01*
X41330Y-44858D01*
X41306Y-44783D01*
X41298Y-44705D01*
X41304Y-44628D01*
X41326Y-44552D01*
X41362Y-44482D01*
X41411Y-44421D01*
X41471Y-44370D01*
X41539Y-44331D01*
X41614Y-44307D01*
X41692Y-44298D01*
X41769Y-44304D01*
X41845Y-44325D01*
X41915Y-44360D01*
X41977Y-44409D01*
X42029Y-44468D01*
X42068Y-44537D01*
X42092Y-44611D01*
X42102Y-44689D01*
X42103Y-44700D01*
X34550Y-44000D02*
X34549Y-44009D01*
X34546Y-44019D01*
X34541Y-44027D01*
X34535Y-44035D01*
X34527Y-44041D01*
X34519Y-44046D01*
X34510Y-44048D01*
X34500Y-44049D01*
X34491Y-44049D01*
X34482Y-44046D01*
X34473Y-44041D01*
X34466Y-44035D01*
X34459Y-44028D01*
X34455Y-44019D01*
X34452Y-44010D01*
X34451Y-44000D01*
X34451Y-43991D01*
X34454Y-43982D01*
X34458Y-43973D01*
X34465Y-43966D01*
X34472Y-43959D01*
X34480Y-43955D01*
X34490Y-43952D01*
X34499Y-43951D01*
X34508Y-43951D01*
X34518Y-43954D01*
X34526Y-43958D01*
X34534Y-43964D01*
X34540Y-43972D01*
X34545Y-43980D01*
X34548Y-43989D01*
X34549Y-43999D01*
X34550Y-44000D01*
X34903Y-44000D02*
X34895Y-44078D01*
X34872Y-44153D01*
X34835Y-44223D01*
X34785Y-44283D01*
X34725Y-44334D01*
X34656Y-44371D01*
X34581Y-44394D01*
X34502Y-44402D01*
X34425Y-44395D01*
X34350Y-44373D01*
X34280Y-44337D01*
X34219Y-44287D01*
X34168Y-44227D01*
X34130Y-44158D01*
X34106Y-44083D01*
X34098Y-44005D01*
X34104Y-43928D01*
X34126Y-43852D01*
X34162Y-43782D01*
X34211Y-43721D01*
X34271Y-43670D01*
X34339Y-43631D01*
X34414Y-43607D01*
X34492Y-43598D01*
X34569Y-43604D01*
X34645Y-43625D01*
X34715Y-43660D01*
X34777Y-43709D01*
X34829Y-43768D01*
X34868Y-43837D01*
X34892Y-43911D01*
X34902Y-43989D01*
X34903Y-44000D01*
X35550Y-45000D02*
X35549Y-45009D01*
X35546Y-45019D01*
X35541Y-45027D01*
X35535Y-45035D01*
X35527Y-45041D01*
X35519Y-45046D01*
X35510Y-45048D01*
X35500Y-45049D01*
X35491Y-45049D01*
X35482Y-45046D01*
X35473Y-45041D01*
X35466Y-45035D01*
X35459Y-45028D01*
X35455Y-45019D01*
X35452Y-45010D01*
X35451Y-45000D01*
X35451Y-44991D01*
X35454Y-44982D01*
X35458Y-44973D01*
X35465Y-44966D01*
X35472Y-44959D01*
X35480Y-44955D01*
X35490Y-44952D01*
X35499Y-44951D01*
X35508Y-44951D01*
X35518Y-44954D01*
X35526Y-44958D01*
X35534Y-44964D01*
X35540Y-44972D01*
X35545Y-44980D01*
X35548Y-44989D01*
X35549Y-44999D01*
X35550Y-45000D01*
X35903Y-45000D02*
X35895Y-45078D01*
X35872Y-45153D01*
X35835Y-45223D01*
X35785Y-45283D01*
X35725Y-45334D01*
X35656Y-45371D01*
X35581Y-45394D01*
X35502Y-45402D01*
X35425Y-45395D01*
X35350Y-45373D01*
X35280Y-45337D01*
X35219Y-45287D01*
X35168Y-45227D01*
X35130Y-45158D01*
X35106Y-45083D01*
X35098Y-45005D01*
X35104Y-44928D01*
X35126Y-44852D01*
X35162Y-44782D01*
X35211Y-44721D01*
X35271Y-44670D01*
X35339Y-44631D01*
X35414Y-44607D01*
X35492Y-44598D01*
X35569Y-44604D01*
X35645Y-44625D01*
X35715Y-44660D01*
X35777Y-44709D01*
X35829Y-44768D01*
X35868Y-44837D01*
X35892Y-44911D01*
X35902Y-44989D01*
X35903Y-45000D01*
X40250Y-45500D02*
X40249Y-45509D01*
X40246Y-45519D01*
X40241Y-45527D01*
X40235Y-45535D01*
X40227Y-45541D01*
X40219Y-45546D01*
X40210Y-45548D01*
X40200Y-45549D01*
X40191Y-45549D01*
X40182Y-45546D01*
X40173Y-45541D01*
X40166Y-45535D01*
X40159Y-45528D01*
X40155Y-45519D01*
X40152Y-45510D01*
X40151Y-45500D01*
X40151Y-45491D01*
X40154Y-45482D01*
X40158Y-45473D01*
X40165Y-45466D01*
X40172Y-45459D01*
X40180Y-45455D01*
X40190Y-45452D01*
X40199Y-45451D01*
X40208Y-45451D01*
X40218Y-45454D01*
X40226Y-45458D01*
X40234Y-45464D01*
X40240Y-45472D01*
X40245Y-45480D01*
X40248Y-45489D01*
X40249Y-45499D01*
X40250Y-45500D01*
X40603Y-45500D02*
X40595Y-45578D01*
X40572Y-45653D01*
X40535Y-45723D01*
X40485Y-45783D01*
X40425Y-45834D01*
X40356Y-45871D01*
X40281Y-45894D01*
X40202Y-45902D01*
X40125Y-45895D01*
X40050Y-45873D01*
X39980Y-45837D01*
X39919Y-45787D01*
X39868Y-45727D01*
X39830Y-45658D01*
X39806Y-45583D01*
X39798Y-45505D01*
X39804Y-45428D01*
X39826Y-45352D01*
X39862Y-45282D01*
X39911Y-45221D01*
X39971Y-45170D01*
X40039Y-45131D01*
X40114Y-45107D01*
X40192Y-45098D01*
X40269Y-45104D01*
X40345Y-45125D01*
X40415Y-45160D01*
X40477Y-45209D01*
X40529Y-45268D01*
X40568Y-45337D01*
X40592Y-45411D01*
X40602Y-45489D01*
X40603Y-45500D01*
X37550Y-45000D02*
X37549Y-45009D01*
X37546Y-45019D01*
X37541Y-45027D01*
X37535Y-45035D01*
X37527Y-45041D01*
X37519Y-45046D01*
X37510Y-45048D01*
X37500Y-45049D01*
X37491Y-45049D01*
X37482Y-45046D01*
X37473Y-45041D01*
X37466Y-45035D01*
X37459Y-45028D01*
X37455Y-45019D01*
X37452Y-45010D01*
X37451Y-45000D01*
X37451Y-44991D01*
X37454Y-44982D01*
X37458Y-44973D01*
X37465Y-44966D01*
X37472Y-44959D01*
X37480Y-44955D01*
X37490Y-44952D01*
X37499Y-44951D01*
X37508Y-44951D01*
X37518Y-44954D01*
X37526Y-44958D01*
X37534Y-44964D01*
X37540Y-44972D01*
X37545Y-44980D01*
X37548Y-44989D01*
X37549Y-44999D01*
X37550Y-45000D01*
X37903Y-45000D02*
X37895Y-45078D01*
X37872Y-45153D01*
X37835Y-45223D01*
X37785Y-45283D01*
X37725Y-45334D01*
X37656Y-45371D01*
X37581Y-45394D01*
X37502Y-45402D01*
X37425Y-45395D01*
X37350Y-45373D01*
X37280Y-45337D01*
X37219Y-45287D01*
X37168Y-45227D01*
X37130Y-45158D01*
X37106Y-45083D01*
X37098Y-45005D01*
X37104Y-44928D01*
X37126Y-44852D01*
X37162Y-44782D01*
X37211Y-44721D01*
X37271Y-44670D01*
X37339Y-44631D01*
X37414Y-44607D01*
X37492Y-44598D01*
X37569Y-44604D01*
X37645Y-44625D01*
X37715Y-44660D01*
X37777Y-44709D01*
X37829Y-44768D01*
X37868Y-44837D01*
X37892Y-44911D01*
X37902Y-44989D01*
X37903Y-45000D01*
X35550Y-44000D02*
X35549Y-44009D01*
X35546Y-44019D01*
X35541Y-44027D01*
X35535Y-44035D01*
X35527Y-44041D01*
X35519Y-44046D01*
X35510Y-44048D01*
X35500Y-44049D01*
X35491Y-44049D01*
X35482Y-44046D01*
X35473Y-44041D01*
X35466Y-44035D01*
X35459Y-44028D01*
X35455Y-44019D01*
X35452Y-44010D01*
X35451Y-44000D01*
X35451Y-43991D01*
X35454Y-43982D01*
X35458Y-43973D01*
X35465Y-43966D01*
X35472Y-43959D01*
X35480Y-43955D01*
X35490Y-43952D01*
X35499Y-43951D01*
X35508Y-43951D01*
X35518Y-43954D01*
X35526Y-43958D01*
X35534Y-43964D01*
X35540Y-43972D01*
X35545Y-43980D01*
X35548Y-43989D01*
X35549Y-43999D01*
X35550Y-44000D01*
X35903Y-44000D02*
X35895Y-44078D01*
X35872Y-44153D01*
X35835Y-44223D01*
X35785Y-44283D01*
X35725Y-44334D01*
X35656Y-44371D01*
X35581Y-44394D01*
X35502Y-44402D01*
X35425Y-44395D01*
X35350Y-44373D01*
X35280Y-44337D01*
X35219Y-44287D01*
X35168Y-44227D01*
X35130Y-44158D01*
X35106Y-44083D01*
X35098Y-44005D01*
X35104Y-43928D01*
X35126Y-43852D01*
X35162Y-43782D01*
X35211Y-43721D01*
X35271Y-43670D01*
X35339Y-43631D01*
X35414Y-43607D01*
X35492Y-43598D01*
X35569Y-43604D01*
X35645Y-43625D01*
X35715Y-43660D01*
X35777Y-43709D01*
X35829Y-43768D01*
X35868Y-43837D01*
X35892Y-43911D01*
X35902Y-43989D01*
X35903Y-44000D01*
X34550Y-45000D02*
X34549Y-45009D01*
X34546Y-45019D01*
X34541Y-45027D01*
X34535Y-45035D01*
X34527Y-45041D01*
X34519Y-45046D01*
X34510Y-45048D01*
X34500Y-45049D01*
X34491Y-45049D01*
X34482Y-45046D01*
X34473Y-45041D01*
X34466Y-45035D01*
X34459Y-45028D01*
X34455Y-45019D01*
X34452Y-45010D01*
X34451Y-45000D01*
X34451Y-44991D01*
X34454Y-44982D01*
X34458Y-44973D01*
X34465Y-44966D01*
X34472Y-44959D01*
X34480Y-44955D01*
X34490Y-44952D01*
X34499Y-44951D01*
X34508Y-44951D01*
X34518Y-44954D01*
X34526Y-44958D01*
X34534Y-44964D01*
X34540Y-44972D01*
X34545Y-44980D01*
X34548Y-44989D01*
X34549Y-44999D01*
X34550Y-45000D01*
X34903Y-45000D02*
X34895Y-45078D01*
X34872Y-45153D01*
X34835Y-45223D01*
X34785Y-45283D01*
X34725Y-45334D01*
X34656Y-45371D01*
X34581Y-45394D01*
X34502Y-45402D01*
X34425Y-45395D01*
X34350Y-45373D01*
X34280Y-45337D01*
X34219Y-45287D01*
X34168Y-45227D01*
X34130Y-45158D01*
X34106Y-45083D01*
X34098Y-45005D01*
X34104Y-44928D01*
X34126Y-44852D01*
X34162Y-44782D01*
X34211Y-44721D01*
X34271Y-44670D01*
X34339Y-44631D01*
X34414Y-44607D01*
X34492Y-44598D01*
X34569Y-44604D01*
X34645Y-44625D01*
X34715Y-44660D01*
X34777Y-44709D01*
X34829Y-44768D01*
X34868Y-44837D01*
X34892Y-44911D01*
X34902Y-44989D01*
X34903Y-45000D01*
X43550Y-44000D02*
X43549Y-44009D01*
X43546Y-44019D01*
X43541Y-44027D01*
X43535Y-44035D01*
X43527Y-44041D01*
X43519Y-44046D01*
X43510Y-44048D01*
X43500Y-44049D01*
X43491Y-44049D01*
X43482Y-44046D01*
X43473Y-44041D01*
X43466Y-44035D01*
X43459Y-44028D01*
X43455Y-44019D01*
X43452Y-44010D01*
X43451Y-44000D01*
X43451Y-43991D01*
X43454Y-43982D01*
X43458Y-43973D01*
X43465Y-43966D01*
X43472Y-43959D01*
X43480Y-43955D01*
X43490Y-43952D01*
X43499Y-43951D01*
X43508Y-43951D01*
X43518Y-43954D01*
X43526Y-43958D01*
X43534Y-43964D01*
X43540Y-43972D01*
X43545Y-43980D01*
X43548Y-43989D01*
X43549Y-43999D01*
X43550Y-44000D01*
X43903Y-44000D02*
X43895Y-44078D01*
X43872Y-44153D01*
X43835Y-44223D01*
X43785Y-44283D01*
X43725Y-44334D01*
X43656Y-44371D01*
X43581Y-44394D01*
X43502Y-44402D01*
X43425Y-44395D01*
X43350Y-44373D01*
X43280Y-44337D01*
X43219Y-44287D01*
X43168Y-44227D01*
X43130Y-44158D01*
X43106Y-44083D01*
X43098Y-44005D01*
X43104Y-43928D01*
X43126Y-43852D01*
X43162Y-43782D01*
X43211Y-43721D01*
X43271Y-43670D01*
X43339Y-43631D01*
X43414Y-43607D01*
X43492Y-43598D01*
X43569Y-43604D01*
X43645Y-43625D01*
X43715Y-43660D01*
X43777Y-43709D01*
X43829Y-43768D01*
X43868Y-43837D01*
X43892Y-43911D01*
X43902Y-43989D01*
X43903Y-44000D01*
X44150Y-41200D02*
X44149Y-41209D01*
X44146Y-41219D01*
X44141Y-41227D01*
X44135Y-41235D01*
X44127Y-41241D01*
X44119Y-41246D01*
X44110Y-41248D01*
X44100Y-41249D01*
X44091Y-41249D01*
X44082Y-41246D01*
X44073Y-41241D01*
X44066Y-41235D01*
X44059Y-41228D01*
X44055Y-41219D01*
X44052Y-41210D01*
X44051Y-41200D01*
X44051Y-41191D01*
X44054Y-41182D01*
X44058Y-41173D01*
X44065Y-41166D01*
X44072Y-41159D01*
X44080Y-41155D01*
X44090Y-41152D01*
X44099Y-41151D01*
X44108Y-41151D01*
X44118Y-41154D01*
X44126Y-41158D01*
X44134Y-41164D01*
X44140Y-41172D01*
X44145Y-41180D01*
X44148Y-41189D01*
X44149Y-41199D01*
X44150Y-41200D01*
X44503Y-41200D02*
X44495Y-41278D01*
X44472Y-41353D01*
X44435Y-41423D01*
X44385Y-41483D01*
X44325Y-41534D01*
X44256Y-41571D01*
X44181Y-41594D01*
X44102Y-41602D01*
X44025Y-41595D01*
X43950Y-41573D01*
X43880Y-41537D01*
X43819Y-41487D01*
X43768Y-41427D01*
X43730Y-41358D01*
X43706Y-41283D01*
X43698Y-41205D01*
X43704Y-41128D01*
X43726Y-41052D01*
X43762Y-40982D01*
X43811Y-40921D01*
X43871Y-40870D01*
X43939Y-40831D01*
X44014Y-40807D01*
X44092Y-40798D01*
X44169Y-40804D01*
X44245Y-40825D01*
X44315Y-40860D01*
X44377Y-40909D01*
X44429Y-40968D01*
X44468Y-41037D01*
X44492Y-41111D01*
X44502Y-41189D01*
X44503Y-41200D01*
X36550Y-45000D02*
X36549Y-45009D01*
X36546Y-45019D01*
X36541Y-45027D01*
X36535Y-45035D01*
X36527Y-45041D01*
X36519Y-45046D01*
X36510Y-45048D01*
X36500Y-45049D01*
X36491Y-45049D01*
X36482Y-45046D01*
X36473Y-45041D01*
X36466Y-45035D01*
X36459Y-45028D01*
X36455Y-45019D01*
X36452Y-45010D01*
X36451Y-45000D01*
X36451Y-44991D01*
X36454Y-44982D01*
X36458Y-44973D01*
X36465Y-44966D01*
X36472Y-44959D01*
X36480Y-44955D01*
X36490Y-44952D01*
X36499Y-44951D01*
X36508Y-44951D01*
X36518Y-44954D01*
X36526Y-44958D01*
X36534Y-44964D01*
X36540Y-44972D01*
X36545Y-44980D01*
X36548Y-44989D01*
X36549Y-44999D01*
X36550Y-45000D01*
X36903Y-45000D02*
X36895Y-45078D01*
X36872Y-45153D01*
X36835Y-45223D01*
X36785Y-45283D01*
X36725Y-45334D01*
X36656Y-45371D01*
X36581Y-45394D01*
X36502Y-45402D01*
X36425Y-45395D01*
X36350Y-45373D01*
X36280Y-45337D01*
X36219Y-45287D01*
X36168Y-45227D01*
X36130Y-45158D01*
X36106Y-45083D01*
X36098Y-45005D01*
X36104Y-44928D01*
X36126Y-44852D01*
X36162Y-44782D01*
X36211Y-44721D01*
X36271Y-44670D01*
X36339Y-44631D01*
X36414Y-44607D01*
X36492Y-44598D01*
X36569Y-44604D01*
X36645Y-44625D01*
X36715Y-44660D01*
X36777Y-44709D01*
X36829Y-44768D01*
X36868Y-44837D01*
X36892Y-44911D01*
X36902Y-44989D01*
X36903Y-45000D01*
X44550Y-43500D02*
X44549Y-43509D01*
X44546Y-43519D01*
X44541Y-43527D01*
X44535Y-43535D01*
X44527Y-43541D01*
X44519Y-43546D01*
X44510Y-43548D01*
X44500Y-43549D01*
X44491Y-43549D01*
X44482Y-43546D01*
X44473Y-43541D01*
X44466Y-43535D01*
X44459Y-43528D01*
X44455Y-43519D01*
X44452Y-43510D01*
X44451Y-43500D01*
X44451Y-43491D01*
X44454Y-43482D01*
X44458Y-43473D01*
X44465Y-43466D01*
X44472Y-43459D01*
X44480Y-43455D01*
X44490Y-43452D01*
X44499Y-43451D01*
X44508Y-43451D01*
X44518Y-43454D01*
X44526Y-43458D01*
X44534Y-43464D01*
X44540Y-43472D01*
X44545Y-43480D01*
X44548Y-43489D01*
X44549Y-43499D01*
X44550Y-43500D01*
X44903Y-43500D02*
X44895Y-43578D01*
X44872Y-43653D01*
X44835Y-43723D01*
X44785Y-43783D01*
X44725Y-43834D01*
X44656Y-43871D01*
X44581Y-43894D01*
X44502Y-43902D01*
X44425Y-43895D01*
X44350Y-43873D01*
X44280Y-43837D01*
X44219Y-43787D01*
X44168Y-43727D01*
X44130Y-43658D01*
X44106Y-43583D01*
X44098Y-43505D01*
X44104Y-43428D01*
X44126Y-43352D01*
X44162Y-43282D01*
X44211Y-43221D01*
X44271Y-43170D01*
X44339Y-43131D01*
X44414Y-43107D01*
X44492Y-43098D01*
X44569Y-43104D01*
X44645Y-43125D01*
X44715Y-43160D01*
X44777Y-43209D01*
X44829Y-43268D01*
X44868Y-43337D01*
X44892Y-43411D01*
X44902Y-43489D01*
X44903Y-43500D01*
X43550Y-43000D02*
X43549Y-43009D01*
X43546Y-43019D01*
X43541Y-43027D01*
X43535Y-43035D01*
X43527Y-43041D01*
X43519Y-43046D01*
X43510Y-43048D01*
X43500Y-43049D01*
X43491Y-43049D01*
X43482Y-43046D01*
X43473Y-43041D01*
X43466Y-43035D01*
X43459Y-43028D01*
X43455Y-43019D01*
X43452Y-43010D01*
X43451Y-43000D01*
X43451Y-42991D01*
X43454Y-42982D01*
X43458Y-42973D01*
X43465Y-42966D01*
X43472Y-42959D01*
X43480Y-42955D01*
X43490Y-42952D01*
X43499Y-42951D01*
X43508Y-42951D01*
X43518Y-42954D01*
X43526Y-42958D01*
X43534Y-42964D01*
X43540Y-42972D01*
X43545Y-42980D01*
X43548Y-42989D01*
X43549Y-42999D01*
X43550Y-43000D01*
X43903Y-43000D02*
X43895Y-43078D01*
X43872Y-43153D01*
X43835Y-43223D01*
X43785Y-43283D01*
X43725Y-43334D01*
X43656Y-43371D01*
X43581Y-43394D01*
X43502Y-43402D01*
X43425Y-43395D01*
X43350Y-43373D01*
X43280Y-43337D01*
X43219Y-43287D01*
X43168Y-43227D01*
X43130Y-43158D01*
X43106Y-43083D01*
X43098Y-43005D01*
X43104Y-42928D01*
X43126Y-42852D01*
X43162Y-42782D01*
X43211Y-42721D01*
X43271Y-42670D01*
X43339Y-42631D01*
X43414Y-42607D01*
X43492Y-42598D01*
X43569Y-42604D01*
X43645Y-42625D01*
X43715Y-42660D01*
X43777Y-42709D01*
X43829Y-42768D01*
X43868Y-42837D01*
X43892Y-42911D01*
X43902Y-42989D01*
X43903Y-43000D01*
X37500Y-29550D02*
X37500Y-31450D01*
X36550Y-30500D02*
X38450Y-30500D01*
X38300Y-30500D02*
X38284Y-30655D01*
X38239Y-30804D01*
X38166Y-30942D01*
X38067Y-31063D01*
X37947Y-31163D01*
X37810Y-31237D01*
X37660Y-31283D01*
X37505Y-31299D01*
X37351Y-31285D01*
X37201Y-31241D01*
X37062Y-31169D01*
X36941Y-31071D01*
X36840Y-30951D01*
X36765Y-30815D01*
X36718Y-30666D01*
X36701Y-30511D01*
X36714Y-30356D01*
X36757Y-30206D01*
X36828Y-30067D01*
X36925Y-29945D01*
X37044Y-29844D01*
X37180Y-29767D01*
X37329Y-29719D01*
X37484Y-29701D01*
X37638Y-29713D01*
X37789Y-29755D01*
X37928Y-29825D01*
X38051Y-29921D01*
X38153Y-30039D01*
X38230Y-30175D01*
X38280Y-30323D01*
X38299Y-30478D01*
X38300Y-30500D01*
G54D17*
X42312Y-36295D02*
X41912Y-36295D01*
X42312Y-36066D02*
X42083Y-36238D01*
X41912Y-36066D02*
X42140Y-36295D01*
X42312Y-35685D02*
X42312Y-35914D01*
X42312Y-35800D02*
X41912Y-35800D01*
X41969Y-35838D01*
X42007Y-35876D01*
X42026Y-35914D01*
X33012Y-36295D02*
X32612Y-36295D01*
X33012Y-36066D02*
X32783Y-36238D01*
X32612Y-36066D02*
X32840Y-36295D01*
X32650Y-35914D02*
X32631Y-35895D01*
X32612Y-35857D01*
X32612Y-35761D01*
X32631Y-35723D01*
X32650Y-35704D01*
X32688Y-35685D01*
X32726Y-35685D01*
X32783Y-35704D01*
X33012Y-35933D01*
X33012Y-35685D01*
X30062Y-39605D02*
X30386Y-39605D01*
X30424Y-39586D01*
X30443Y-39567D01*
X30462Y-39529D01*
X30462Y-39452D01*
X30443Y-39414D01*
X30424Y-39395D01*
X30386Y-39376D01*
X30062Y-39376D01*
X30462Y-38976D02*
X30462Y-39205D01*
X30462Y-39091D02*
X30062Y-39091D01*
X30119Y-39129D01*
X30157Y-39167D01*
X30176Y-39205D01*
X29862Y-41319D02*
X29462Y-41319D01*
X29862Y-41090D01*
X29462Y-41090D01*
X29462Y-40938D02*
X29862Y-40671D01*
X29462Y-40671D02*
X29862Y-40938D01*
X29862Y-40309D02*
X29862Y-40538D01*
X29862Y-40424D02*
X29462Y-40424D01*
X29519Y-40462D01*
X29557Y-40500D01*
X29576Y-40538D01*
X29862Y-39928D02*
X29862Y-40157D01*
X29862Y-40043D02*
X29462Y-40043D01*
X29519Y-40081D01*
X29557Y-40119D01*
X29576Y-40157D01*
X29862Y-39547D02*
X29862Y-39776D01*
X29862Y-39662D02*
X29462Y-39662D01*
X29519Y-39700D01*
X29557Y-39738D01*
X29576Y-39776D01*
X29462Y-39414D02*
X29462Y-39147D01*
X29862Y-39319D01*
X29824Y-38766D02*
X29843Y-38785D01*
X29862Y-38842D01*
X29862Y-38880D01*
X29843Y-38938D01*
X29805Y-38976D01*
X29767Y-38995D01*
X29690Y-39014D01*
X29633Y-39014D01*
X29557Y-38995D01*
X29519Y-38976D01*
X29481Y-38938D01*
X29462Y-38880D01*
X29462Y-38842D01*
X29481Y-38785D01*
X29500Y-38766D01*
X29652Y-38595D02*
X29652Y-38461D01*
X29862Y-38404D02*
X29862Y-38595D01*
X29462Y-38595D01*
X29462Y-38404D01*
X29462Y-38271D02*
X29462Y-38023D01*
X29614Y-38157D01*
X29614Y-38099D01*
X29633Y-38061D01*
X29652Y-38042D01*
X29690Y-38023D01*
X29786Y-38023D01*
X29824Y-38042D01*
X29843Y-38061D01*
X29862Y-38099D01*
X29862Y-38214D01*
X29843Y-38252D01*
X29824Y-38271D01*
X29462Y-37890D02*
X29462Y-37642D01*
X29614Y-37776D01*
X29614Y-37718D01*
X29633Y-37680D01*
X29652Y-37661D01*
X29690Y-37642D01*
X29786Y-37642D01*
X29824Y-37661D01*
X29843Y-37680D01*
X29862Y-37718D01*
X29862Y-37833D01*
X29843Y-37871D01*
X29824Y-37890D01*
X29462Y-37509D02*
X29462Y-37242D01*
X29862Y-37509D01*
X29862Y-37242D01*
G54D18*
X39775Y-42374D02*
X39775Y-42613D01*
X39789Y-42641D01*
X39803Y-42655D01*
X39831Y-42669D01*
X39888Y-42669D01*
X39916Y-42655D01*
X39930Y-42641D01*
X39944Y-42613D01*
X39944Y-42374D01*
X40070Y-42402D02*
X40084Y-42388D01*
X40112Y-42374D01*
X40183Y-42374D01*
X40211Y-42388D01*
X40225Y-42402D01*
X40239Y-42430D01*
X40239Y-42458D01*
X40225Y-42500D01*
X40056Y-42669D01*
X40239Y-42669D01*
X37802Y-43569D02*
X37661Y-43569D01*
X37661Y-43274D01*
X37900Y-43569D02*
X37900Y-43274D01*
X38013Y-43274D01*
X38041Y-43288D01*
X38055Y-43302D01*
X38069Y-43330D01*
X38069Y-43372D01*
X38055Y-43400D01*
X38041Y-43414D01*
X38013Y-43428D01*
X37900Y-43428D01*
X38364Y-43541D02*
X38350Y-43555D01*
X38308Y-43569D01*
X38280Y-43569D01*
X38237Y-43555D01*
X38209Y-43527D01*
X38195Y-43499D01*
X38181Y-43442D01*
X38181Y-43400D01*
X38195Y-43344D01*
X38209Y-43316D01*
X38237Y-43288D01*
X38280Y-43274D01*
X38308Y-43274D01*
X38350Y-43288D01*
X38364Y-43302D01*
X38645Y-43569D02*
X38476Y-43569D01*
X38560Y-43569D02*
X38560Y-43274D01*
X38532Y-43316D01*
X38504Y-43344D01*
X38476Y-43358D01*
X38926Y-43569D02*
X38757Y-43569D01*
X38841Y-43569D02*
X38841Y-43274D01*
X38813Y-43316D01*
X38785Y-43344D01*
X38757Y-43358D01*
X39052Y-43274D02*
X39052Y-43513D01*
X39066Y-43541D01*
X39080Y-43555D01*
X39108Y-43569D01*
X39165Y-43569D01*
X39193Y-43555D01*
X39207Y-43541D01*
X39221Y-43513D01*
X39221Y-43274D01*
X39347Y-43302D02*
X39361Y-43288D01*
X39389Y-43274D01*
X39460Y-43274D01*
X39488Y-43288D01*
X39502Y-43302D01*
X39516Y-43330D01*
X39516Y-43358D01*
X39502Y-43400D01*
X39333Y-43569D01*
X39516Y-43569D01*
X39769Y-43372D02*
X39769Y-43569D01*
X39698Y-43260D02*
X39628Y-43471D01*
X39811Y-43471D01*
X40022Y-43414D02*
X39923Y-43414D01*
X39923Y-43569D02*
X39923Y-43274D01*
X40064Y-43274D01*
X40275Y-43414D02*
X40317Y-43428D01*
X40331Y-43442D01*
X40345Y-43471D01*
X40345Y-43513D01*
X40331Y-43541D01*
X40317Y-43555D01*
X40289Y-43569D01*
X40176Y-43569D01*
X40176Y-43274D01*
X40275Y-43274D01*
X40303Y-43288D01*
X40317Y-43302D01*
X40331Y-43330D01*
X40331Y-43358D01*
X40317Y-43386D01*
X40303Y-43400D01*
X40275Y-43414D01*
X40176Y-43414D01*
X40471Y-43569D02*
X40471Y-43274D01*
X40541Y-43274D01*
X40584Y-43288D01*
X40612Y-43316D01*
X40626Y-43344D01*
X40640Y-43400D01*
X40640Y-43442D01*
X40626Y-43499D01*
X40612Y-43527D01*
X40584Y-43555D01*
X40541Y-43569D01*
X40471Y-43569D01*
X40893Y-43372D02*
X40893Y-43569D01*
X40822Y-43260D02*
X40752Y-43471D01*
X40935Y-43471D01*
X41089Y-43400D02*
X41061Y-43386D01*
X41047Y-43372D01*
X41033Y-43344D01*
X41033Y-43330D01*
X41047Y-43302D01*
X41061Y-43288D01*
X41089Y-43274D01*
X41146Y-43274D01*
X41174Y-43288D01*
X41188Y-43302D01*
X41202Y-43330D01*
X41202Y-43344D01*
X41188Y-43372D01*
X41174Y-43386D01*
X41146Y-43400D01*
X41089Y-43400D01*
X41061Y-43414D01*
X41047Y-43428D01*
X41033Y-43457D01*
X41033Y-43513D01*
X41047Y-43541D01*
X41061Y-43555D01*
X41089Y-43569D01*
X41146Y-43569D01*
X41174Y-43555D01*
X41188Y-43541D01*
X41202Y-43513D01*
X41202Y-43457D01*
X41188Y-43428D01*
X41174Y-43414D01*
X41146Y-43400D01*
X41539Y-43260D02*
X41286Y-43639D01*
X41609Y-43274D02*
X41792Y-43274D01*
X41693Y-43386D01*
X41736Y-43386D01*
X41764Y-43400D01*
X41778Y-43414D01*
X41792Y-43442D01*
X41792Y-43513D01*
X41778Y-43541D01*
X41764Y-43555D01*
X41736Y-43569D01*
X41651Y-43569D01*
X41623Y-43555D01*
X41609Y-43541D01*
X41974Y-43274D02*
X42003Y-43274D01*
X42031Y-43288D01*
X42045Y-43302D01*
X42059Y-43330D01*
X42073Y-43386D01*
X42073Y-43457D01*
X42059Y-43513D01*
X42045Y-43541D01*
X42031Y-43555D01*
X42003Y-43569D01*
X41974Y-43569D01*
X41946Y-43555D01*
X41932Y-43541D01*
X41918Y-43513D01*
X41904Y-43457D01*
X41904Y-43386D01*
X41918Y-43330D01*
X41932Y-43302D01*
X41946Y-43288D01*
X41974Y-43274D01*
X42354Y-43569D02*
X42185Y-43569D01*
X42269Y-43569D02*
X42269Y-43274D01*
X42241Y-43316D01*
X42213Y-43344D01*
X42185Y-43358D01*
X43027Y-32832D02*
X42712Y-32832D01*
X42712Y-32757D01*
X42727Y-32712D01*
X42757Y-32682D01*
X42787Y-32667D01*
X42847Y-32652D01*
X42892Y-32652D01*
X42952Y-32667D01*
X42982Y-32682D01*
X43012Y-32712D01*
X43027Y-32757D01*
X43027Y-32832D01*
X42712Y-32547D02*
X42712Y-32352D01*
X42832Y-32457D01*
X42832Y-32412D01*
X42847Y-32382D01*
X42862Y-32367D01*
X42892Y-32352D01*
X42967Y-32352D01*
X42997Y-32367D01*
X43012Y-32382D01*
X43027Y-32412D01*
X43027Y-32502D01*
X43012Y-32532D01*
X42997Y-32547D01*
G54D10*
X37095Y-37182D02*
X37429Y-37632D01*
X37429Y-37182D02*
X37095Y-37632D01*
X37881Y-37632D02*
X37595Y-37632D01*
X37738Y-37632D02*
X37738Y-37182D01*
X37690Y-37246D01*
X37643Y-37289D01*
X37595Y-37311D01*
X36655Y-40232D02*
X36369Y-40232D01*
X36512Y-40232D02*
X36512Y-39782D01*
X36464Y-39846D01*
X36417Y-39889D01*
X36369Y-39911D01*
X36845Y-39825D02*
X36869Y-39804D01*
X36917Y-39782D01*
X37036Y-39782D01*
X37083Y-39804D01*
X37107Y-39825D01*
X37131Y-39868D01*
X37131Y-39911D01*
X37107Y-39975D01*
X36821Y-40232D01*
X37131Y-40232D01*
X37345Y-40232D02*
X37345Y-39782D01*
X37512Y-40104D01*
X37678Y-39782D01*
X37678Y-40232D01*
X37916Y-40232D02*
X37916Y-39782D01*
X37916Y-39996D02*
X38202Y-39996D01*
X38202Y-40232D02*
X38202Y-39782D01*
X38392Y-39932D02*
X38654Y-39932D01*
X38392Y-40232D01*
X38654Y-40232D01*
G54D18*
X28468Y-29527D02*
X28468Y-29212D01*
X28543Y-29212D01*
X28588Y-29227D01*
X28618Y-29257D01*
X28633Y-29287D01*
X28648Y-29347D01*
X28648Y-29392D01*
X28633Y-29452D01*
X28618Y-29482D01*
X28588Y-29512D01*
X28543Y-29527D01*
X28468Y-29527D01*
X28948Y-29527D02*
X28768Y-29527D01*
X28858Y-29527D02*
X28858Y-29212D01*
X28828Y-29257D01*
X28798Y-29287D01*
X28768Y-29302D01*
X46068Y-29527D02*
X46068Y-29212D01*
X46143Y-29212D01*
X46188Y-29227D01*
X46218Y-29257D01*
X46233Y-29287D01*
X46248Y-29347D01*
X46248Y-29392D01*
X46233Y-29452D01*
X46218Y-29482D01*
X46188Y-29512D01*
X46143Y-29527D01*
X46068Y-29527D01*
X46368Y-29242D02*
X46383Y-29227D01*
X46413Y-29212D01*
X46488Y-29212D01*
X46518Y-29227D01*
X46533Y-29242D01*
X46548Y-29272D01*
X46548Y-29302D01*
X46533Y-29347D01*
X46353Y-29527D01*
X46548Y-29527D01*
X32268Y-45727D02*
X32268Y-45412D01*
X32343Y-45412D01*
X32388Y-45427D01*
X32418Y-45457D01*
X32433Y-45487D01*
X32448Y-45547D01*
X32448Y-45592D01*
X32433Y-45652D01*
X32418Y-45682D01*
X32388Y-45712D01*
X32343Y-45727D01*
X32268Y-45727D01*
X32718Y-45517D02*
X32718Y-45727D01*
X32643Y-45397D02*
X32568Y-45622D01*
X32763Y-45622D01*
X34868Y-46327D02*
X34868Y-46012D01*
X34943Y-46012D01*
X34988Y-46027D01*
X35018Y-46057D01*
X35033Y-46087D01*
X35048Y-46147D01*
X35048Y-46192D01*
X35033Y-46252D01*
X35018Y-46282D01*
X34988Y-46312D01*
X34943Y-46327D01*
X34868Y-46327D01*
X35333Y-46012D02*
X35183Y-46012D01*
X35168Y-46162D01*
X35183Y-46147D01*
X35213Y-46132D01*
X35288Y-46132D01*
X35318Y-46147D01*
X35333Y-46162D01*
X35348Y-46192D01*
X35348Y-46267D01*
X35333Y-46297D01*
X35318Y-46312D01*
X35288Y-46327D01*
X35213Y-46327D01*
X35183Y-46312D01*
X35168Y-46297D01*
X37268Y-46527D02*
X37268Y-46212D01*
X37343Y-46212D01*
X37388Y-46227D01*
X37418Y-46257D01*
X37433Y-46287D01*
X37448Y-46347D01*
X37448Y-46392D01*
X37433Y-46452D01*
X37418Y-46482D01*
X37388Y-46512D01*
X37343Y-46527D01*
X37268Y-46527D01*
X37718Y-46212D02*
X37658Y-46212D01*
X37628Y-46227D01*
X37613Y-46242D01*
X37583Y-46287D01*
X37568Y-46347D01*
X37568Y-46467D01*
X37583Y-46497D01*
X37598Y-46512D01*
X37628Y-46527D01*
X37688Y-46527D01*
X37718Y-46512D01*
X37733Y-46497D01*
X37748Y-46467D01*
X37748Y-46392D01*
X37733Y-46362D01*
X37718Y-46347D01*
X37688Y-46332D01*
X37628Y-46332D01*
X37598Y-46347D01*
X37583Y-46362D01*
X37568Y-46392D01*
X39668Y-46327D02*
X39668Y-46012D01*
X39743Y-46012D01*
X39788Y-46027D01*
X39818Y-46057D01*
X39833Y-46087D01*
X39848Y-46147D01*
X39848Y-46192D01*
X39833Y-46252D01*
X39818Y-46282D01*
X39788Y-46312D01*
X39743Y-46327D01*
X39668Y-46327D01*
X39953Y-46012D02*
X40163Y-46012D01*
X40028Y-46327D01*
X42268Y-45727D02*
X42268Y-45412D01*
X42343Y-45412D01*
X42388Y-45427D01*
X42418Y-45457D01*
X42433Y-45487D01*
X42448Y-45547D01*
X42448Y-45592D01*
X42433Y-45652D01*
X42418Y-45682D01*
X42388Y-45712D01*
X42343Y-45727D01*
X42268Y-45727D01*
X42628Y-45547D02*
X42598Y-45532D01*
X42583Y-45517D01*
X42568Y-45487D01*
X42568Y-45472D01*
X42583Y-45442D01*
X42598Y-45427D01*
X42628Y-45412D01*
X42688Y-45412D01*
X42718Y-45427D01*
X42733Y-45442D01*
X42748Y-45472D01*
X42748Y-45487D01*
X42733Y-45517D01*
X42718Y-45532D01*
X42688Y-45547D01*
X42628Y-45547D01*
X42598Y-45562D01*
X42583Y-45577D01*
X42568Y-45607D01*
X42568Y-45667D01*
X42583Y-45697D01*
X42598Y-45712D01*
X42628Y-45727D01*
X42688Y-45727D01*
X42718Y-45712D01*
X42733Y-45697D01*
X42748Y-45667D01*
X42748Y-45607D01*
X42733Y-45577D01*
X42718Y-45562D01*
X42688Y-45547D01*
G54D19*
X32601Y-39661D02*
X32482Y-39744D01*
X32601Y-39803D02*
X32351Y-39803D01*
X32351Y-39708D01*
X32363Y-39684D01*
X32375Y-39673D01*
X32399Y-39661D01*
X32435Y-39661D01*
X32458Y-39673D01*
X32470Y-39684D01*
X32482Y-39708D01*
X32482Y-39803D01*
X32375Y-39565D02*
X32363Y-39553D01*
X32351Y-39530D01*
X32351Y-39470D01*
X32363Y-39446D01*
X32375Y-39434D01*
X32399Y-39423D01*
X32423Y-39423D01*
X32458Y-39434D01*
X32601Y-39577D01*
X32601Y-39423D01*
X32351Y-39268D02*
X32351Y-39244D01*
X32363Y-39220D01*
X32375Y-39208D01*
X32399Y-39196D01*
X32446Y-39185D01*
X32506Y-39185D01*
X32554Y-39196D01*
X32577Y-39208D01*
X32589Y-39220D01*
X32601Y-39244D01*
X32601Y-39268D01*
X32589Y-39292D01*
X32577Y-39304D01*
X32554Y-39315D01*
X32506Y-39327D01*
X32446Y-39327D01*
X32399Y-39315D01*
X32375Y-39304D01*
X32363Y-39292D01*
X32351Y-39268D01*
G54D22*
X28881Y-41777D02*
X28875Y-41782D01*
X28858Y-41788D01*
X28847Y-41788D01*
X28830Y-41782D01*
X28819Y-41771D01*
X28813Y-41760D01*
X28807Y-41737D01*
X28807Y-41720D01*
X28813Y-41698D01*
X28819Y-41687D01*
X28830Y-41675D01*
X28847Y-41670D01*
X28858Y-41670D01*
X28875Y-41675D01*
X28881Y-41681D01*
X28925Y-41681D02*
X28931Y-41675D01*
X28942Y-41670D01*
X28970Y-41670D01*
X28982Y-41675D01*
X28987Y-41681D01*
X28993Y-41692D01*
X28993Y-41703D01*
X28987Y-41720D01*
X28920Y-41788D01*
X28993Y-41788D01*
G54D23*
X44660Y-40733D02*
X44670Y-40742D01*
X44679Y-40770D01*
X44679Y-40789D01*
X44670Y-40817D01*
X44651Y-40836D01*
X44632Y-40845D01*
X44595Y-40854D01*
X44567Y-40854D01*
X44529Y-40845D01*
X44510Y-40836D01*
X44492Y-40817D01*
X44482Y-40789D01*
X44482Y-40770D01*
X44492Y-40742D01*
X44501Y-40733D01*
X44482Y-40667D02*
X44482Y-40545D01*
X44557Y-40611D01*
X44557Y-40582D01*
X44567Y-40564D01*
X44576Y-40554D01*
X44595Y-40545D01*
X44642Y-40545D01*
X44660Y-40554D01*
X44670Y-40564D01*
X44679Y-40582D01*
X44679Y-40639D01*
X44670Y-40657D01*
X44660Y-40667D01*
G54D22*
X33927Y-35519D02*
X33932Y-35525D01*
X33938Y-35542D01*
X33938Y-35553D01*
X33932Y-35570D01*
X33921Y-35581D01*
X33910Y-35587D01*
X33887Y-35593D01*
X33870Y-35593D01*
X33848Y-35587D01*
X33837Y-35581D01*
X33825Y-35570D01*
X33820Y-35553D01*
X33820Y-35542D01*
X33825Y-35525D01*
X33831Y-35519D01*
X33859Y-35418D02*
X33938Y-35418D01*
X33814Y-35446D02*
X33898Y-35475D01*
X33898Y-35401D01*
X43281Y-42527D02*
X43275Y-42532D01*
X43258Y-42538D01*
X43247Y-42538D01*
X43230Y-42532D01*
X43219Y-42521D01*
X43213Y-42510D01*
X43207Y-42487D01*
X43207Y-42470D01*
X43213Y-42448D01*
X43219Y-42437D01*
X43230Y-42425D01*
X43247Y-42420D01*
X43258Y-42420D01*
X43275Y-42425D01*
X43281Y-42431D01*
X43320Y-42420D02*
X43399Y-42420D01*
X43348Y-42538D01*
X37325Y-40247D02*
X37319Y-40252D01*
X37302Y-40258D01*
X37291Y-40258D01*
X37274Y-40252D01*
X37263Y-40241D01*
X37257Y-40230D01*
X37251Y-40207D01*
X37251Y-40190D01*
X37257Y-40168D01*
X37263Y-40157D01*
X37274Y-40145D01*
X37291Y-40140D01*
X37302Y-40140D01*
X37319Y-40145D01*
X37325Y-40151D01*
X37437Y-40258D02*
X37369Y-40258D01*
X37403Y-40258D02*
X37403Y-40140D01*
X37392Y-40157D01*
X37381Y-40168D01*
X37369Y-40173D01*
X37510Y-40140D02*
X37521Y-40140D01*
X37532Y-40145D01*
X37538Y-40151D01*
X37543Y-40162D01*
X37549Y-40185D01*
X37549Y-40213D01*
X37543Y-40235D01*
X37538Y-40247D01*
X37532Y-40252D01*
X37521Y-40258D01*
X37510Y-40258D01*
X37498Y-40252D01*
X37493Y-40247D01*
X37487Y-40235D01*
X37481Y-40213D01*
X37481Y-40185D01*
X37487Y-40162D01*
X37493Y-40151D01*
X37498Y-40145D01*
X37510Y-40140D01*
X36425Y-37427D02*
X36419Y-37432D01*
X36402Y-37438D01*
X36391Y-37438D01*
X36374Y-37432D01*
X36363Y-37421D01*
X36357Y-37410D01*
X36351Y-37387D01*
X36351Y-37370D01*
X36357Y-37348D01*
X36363Y-37337D01*
X36374Y-37325D01*
X36391Y-37320D01*
X36402Y-37320D01*
X36419Y-37325D01*
X36425Y-37331D01*
X36537Y-37438D02*
X36469Y-37438D01*
X36503Y-37438D02*
X36503Y-37320D01*
X36492Y-37337D01*
X36481Y-37348D01*
X36469Y-37353D01*
X36649Y-37438D02*
X36581Y-37438D01*
X36615Y-37438D02*
X36615Y-37320D01*
X36604Y-37337D01*
X36593Y-37348D01*
X36581Y-37353D01*
X38425Y-36647D02*
X38419Y-36652D01*
X38402Y-36658D01*
X38391Y-36658D01*
X38374Y-36652D01*
X38363Y-36641D01*
X38357Y-36630D01*
X38351Y-36607D01*
X38351Y-36590D01*
X38357Y-36568D01*
X38363Y-36557D01*
X38374Y-36545D01*
X38391Y-36540D01*
X38402Y-36540D01*
X38419Y-36545D01*
X38425Y-36551D01*
X38537Y-36658D02*
X38469Y-36658D01*
X38503Y-36658D02*
X38503Y-36540D01*
X38492Y-36557D01*
X38481Y-36568D01*
X38469Y-36573D01*
X38581Y-36551D02*
X38587Y-36545D01*
X38598Y-36540D01*
X38626Y-36540D01*
X38638Y-36545D01*
X38643Y-36551D01*
X38649Y-36562D01*
X38649Y-36573D01*
X38643Y-36590D01*
X38576Y-36658D01*
X38649Y-36658D01*
G54D23*
X31170Y-44377D02*
X31180Y-44386D01*
X31189Y-44414D01*
X31189Y-44433D01*
X31180Y-44461D01*
X31161Y-44480D01*
X31142Y-44489D01*
X31105Y-44498D01*
X31077Y-44498D01*
X31039Y-44489D01*
X31020Y-44480D01*
X31002Y-44461D01*
X30992Y-44433D01*
X30992Y-44414D01*
X31002Y-44386D01*
X31011Y-44377D01*
X31189Y-44189D02*
X31189Y-44301D01*
X31189Y-44245D02*
X30992Y-44245D01*
X31020Y-44264D01*
X31039Y-44283D01*
X31049Y-44301D01*
X30992Y-44123D02*
X30992Y-44001D01*
X31067Y-44067D01*
X31067Y-44038D01*
X31077Y-44020D01*
X31086Y-44010D01*
X31105Y-44001D01*
X31152Y-44001D01*
X31170Y-44010D01*
X31180Y-44020D01*
X31189Y-44038D01*
X31189Y-44095D01*
X31180Y-44113D01*
X31170Y-44123D01*
G54D22*
X30527Y-41925D02*
X30532Y-41931D01*
X30538Y-41948D01*
X30538Y-41959D01*
X30532Y-41976D01*
X30521Y-41987D01*
X30510Y-41993D01*
X30487Y-41999D01*
X30470Y-41999D01*
X30448Y-41993D01*
X30437Y-41987D01*
X30425Y-41976D01*
X30420Y-41959D01*
X30420Y-41948D01*
X30425Y-41931D01*
X30431Y-41925D01*
X30538Y-41813D02*
X30538Y-41881D01*
X30538Y-41847D02*
X30420Y-41847D01*
X30437Y-41858D01*
X30448Y-41869D01*
X30453Y-41881D01*
X30459Y-41712D02*
X30538Y-41712D01*
X30414Y-41740D02*
X30498Y-41769D01*
X30498Y-41695D01*
G54D19*
X28851Y-32542D02*
X28732Y-32625D01*
X28851Y-32684D02*
X28601Y-32684D01*
X28601Y-32589D01*
X28613Y-32565D01*
X28625Y-32554D01*
X28649Y-32542D01*
X28685Y-32542D01*
X28708Y-32554D01*
X28720Y-32565D01*
X28732Y-32589D01*
X28732Y-32684D01*
X28851Y-32304D02*
X28851Y-32446D01*
X28851Y-32375D02*
X28601Y-32375D01*
X28637Y-32399D01*
X28661Y-32423D01*
X28673Y-32446D01*
X45101Y-42442D02*
X44982Y-42525D01*
X45101Y-42584D02*
X44851Y-42584D01*
X44851Y-42489D01*
X44863Y-42465D01*
X44875Y-42454D01*
X44899Y-42442D01*
X44935Y-42442D01*
X44958Y-42454D01*
X44970Y-42465D01*
X44982Y-42489D01*
X44982Y-42584D01*
X44875Y-42346D02*
X44863Y-42334D01*
X44851Y-42311D01*
X44851Y-42251D01*
X44863Y-42227D01*
X44875Y-42215D01*
X44899Y-42204D01*
X44923Y-42204D01*
X44958Y-42215D01*
X45101Y-42358D01*
X45101Y-42204D01*
X41458Y-37101D02*
X41375Y-36982D01*
X41316Y-37101D02*
X41316Y-36851D01*
X41411Y-36851D01*
X41435Y-36863D01*
X41446Y-36875D01*
X41458Y-36899D01*
X41458Y-36935D01*
X41446Y-36958D01*
X41435Y-36970D01*
X41411Y-36982D01*
X41316Y-36982D01*
X41542Y-36851D02*
X41696Y-36851D01*
X41613Y-36946D01*
X41649Y-36946D01*
X41673Y-36958D01*
X41685Y-36970D01*
X41696Y-36994D01*
X41696Y-37054D01*
X41685Y-37077D01*
X41673Y-37089D01*
X41649Y-37101D01*
X41577Y-37101D01*
X41554Y-37089D01*
X41542Y-37077D01*
X29601Y-44292D02*
X29482Y-44375D01*
X29601Y-44434D02*
X29351Y-44434D01*
X29351Y-44339D01*
X29363Y-44315D01*
X29375Y-44304D01*
X29399Y-44292D01*
X29435Y-44292D01*
X29458Y-44304D01*
X29470Y-44315D01*
X29482Y-44339D01*
X29482Y-44434D01*
X29435Y-44077D02*
X29601Y-44077D01*
X29339Y-44137D02*
X29518Y-44196D01*
X29518Y-44042D01*
X30601Y-44292D02*
X30482Y-44375D01*
X30601Y-44434D02*
X30351Y-44434D01*
X30351Y-44339D01*
X30363Y-44315D01*
X30375Y-44304D01*
X30399Y-44292D01*
X30435Y-44292D01*
X30458Y-44304D01*
X30470Y-44315D01*
X30482Y-44339D01*
X30482Y-44434D01*
X30351Y-44065D02*
X30351Y-44184D01*
X30470Y-44196D01*
X30458Y-44184D01*
X30446Y-44161D01*
X30446Y-44101D01*
X30458Y-44077D01*
X30470Y-44065D01*
X30494Y-44054D01*
X30554Y-44054D01*
X30577Y-44065D01*
X30589Y-44077D01*
X30601Y-44101D01*
X30601Y-44161D01*
X30589Y-44184D01*
X30577Y-44196D01*
X37458Y-33001D02*
X37375Y-32882D01*
X37316Y-33001D02*
X37316Y-32751D01*
X37411Y-32751D01*
X37435Y-32763D01*
X37446Y-32775D01*
X37458Y-32799D01*
X37458Y-32835D01*
X37446Y-32858D01*
X37435Y-32870D01*
X37411Y-32882D01*
X37316Y-32882D01*
X37673Y-32751D02*
X37625Y-32751D01*
X37601Y-32763D01*
X37589Y-32775D01*
X37566Y-32811D01*
X37554Y-32858D01*
X37554Y-32954D01*
X37566Y-32977D01*
X37577Y-32989D01*
X37601Y-33001D01*
X37649Y-33001D01*
X37673Y-32989D01*
X37685Y-32977D01*
X37696Y-32954D01*
X37696Y-32894D01*
X37685Y-32870D01*
X37673Y-32858D01*
X37649Y-32846D01*
X37601Y-32846D01*
X37577Y-32858D01*
X37566Y-32870D01*
X37554Y-32894D01*
X37458Y-32201D02*
X37375Y-32082D01*
X37316Y-32201D02*
X37316Y-31951D01*
X37411Y-31951D01*
X37435Y-31963D01*
X37446Y-31975D01*
X37458Y-31999D01*
X37458Y-32035D01*
X37446Y-32058D01*
X37435Y-32070D01*
X37411Y-32082D01*
X37316Y-32082D01*
X37542Y-31951D02*
X37708Y-31951D01*
X37601Y-32201D01*
X33458Y-37101D02*
X33375Y-36982D01*
X33316Y-37101D02*
X33316Y-36851D01*
X33411Y-36851D01*
X33435Y-36863D01*
X33446Y-36875D01*
X33458Y-36899D01*
X33458Y-36935D01*
X33446Y-36958D01*
X33435Y-36970D01*
X33411Y-36982D01*
X33316Y-36982D01*
X33601Y-36958D02*
X33577Y-36946D01*
X33566Y-36935D01*
X33554Y-36911D01*
X33554Y-36899D01*
X33566Y-36875D01*
X33577Y-36863D01*
X33601Y-36851D01*
X33649Y-36851D01*
X33673Y-36863D01*
X33685Y-36875D01*
X33696Y-36899D01*
X33696Y-36911D01*
X33685Y-36935D01*
X33673Y-36946D01*
X33649Y-36958D01*
X33601Y-36958D01*
X33577Y-36970D01*
X33566Y-36982D01*
X33554Y-37006D01*
X33554Y-37054D01*
X33566Y-37077D01*
X33577Y-37089D01*
X33601Y-37101D01*
X33649Y-37101D01*
X33673Y-37089D01*
X33685Y-37077D01*
X33696Y-37054D01*
X33696Y-37006D01*
X33685Y-36982D01*
X33673Y-36970D01*
X33649Y-36958D01*
X46401Y-32542D02*
X46282Y-32625D01*
X46401Y-32684D02*
X46151Y-32684D01*
X46151Y-32589D01*
X46163Y-32565D01*
X46175Y-32554D01*
X46199Y-32542D01*
X46235Y-32542D01*
X46258Y-32554D01*
X46270Y-32565D01*
X46282Y-32589D01*
X46282Y-32684D01*
X46401Y-32423D02*
X46401Y-32375D01*
X46389Y-32351D01*
X46377Y-32339D01*
X46342Y-32315D01*
X46294Y-32304D01*
X46199Y-32304D01*
X46175Y-32315D01*
X46163Y-32327D01*
X46151Y-32351D01*
X46151Y-32399D01*
X46163Y-32423D01*
X46175Y-32434D01*
X46199Y-32446D01*
X46258Y-32446D01*
X46282Y-32434D01*
X46294Y-32423D01*
X46306Y-32399D01*
X46306Y-32351D01*
X46294Y-32327D01*
X46282Y-32315D01*
X46258Y-32304D01*
X45051Y-31411D02*
X44932Y-31494D01*
X45051Y-31553D02*
X44801Y-31553D01*
X44801Y-31458D01*
X44813Y-31434D01*
X44825Y-31423D01*
X44849Y-31411D01*
X44885Y-31411D01*
X44908Y-31423D01*
X44920Y-31434D01*
X44932Y-31458D01*
X44932Y-31553D01*
X45051Y-31173D02*
X45051Y-31315D01*
X45051Y-31244D02*
X44801Y-31244D01*
X44837Y-31268D01*
X44861Y-31292D01*
X44873Y-31315D01*
X44801Y-31018D02*
X44801Y-30994D01*
X44813Y-30970D01*
X44825Y-30958D01*
X44849Y-30946D01*
X44896Y-30935D01*
X44956Y-30935D01*
X45004Y-30946D01*
X45027Y-30958D01*
X45039Y-30970D01*
X45051Y-30994D01*
X45051Y-31018D01*
X45039Y-31042D01*
X45027Y-31054D01*
X45004Y-31065D01*
X44956Y-31077D01*
X44896Y-31077D01*
X44849Y-31065D01*
X44825Y-31054D01*
X44813Y-31042D01*
X44801Y-31018D01*
X33539Y-47901D02*
X33456Y-47782D01*
X33397Y-47901D02*
X33397Y-47651D01*
X33492Y-47651D01*
X33516Y-47663D01*
X33527Y-47675D01*
X33539Y-47699D01*
X33539Y-47735D01*
X33527Y-47758D01*
X33516Y-47770D01*
X33492Y-47782D01*
X33397Y-47782D01*
X33777Y-47901D02*
X33635Y-47901D01*
X33706Y-47901D02*
X33706Y-47651D01*
X33682Y-47687D01*
X33658Y-47711D01*
X33635Y-47723D01*
X34015Y-47901D02*
X33873Y-47901D01*
X33944Y-47901D02*
X33944Y-47651D01*
X33920Y-47687D01*
X33896Y-47711D01*
X33873Y-47723D01*
X35939Y-48301D02*
X35856Y-48182D01*
X35797Y-48301D02*
X35797Y-48051D01*
X35892Y-48051D01*
X35916Y-48063D01*
X35927Y-48075D01*
X35939Y-48099D01*
X35939Y-48135D01*
X35927Y-48158D01*
X35916Y-48170D01*
X35892Y-48182D01*
X35797Y-48182D01*
X36177Y-48301D02*
X36035Y-48301D01*
X36106Y-48301D02*
X36106Y-48051D01*
X36082Y-48087D01*
X36058Y-48111D01*
X36035Y-48123D01*
X36273Y-48075D02*
X36285Y-48063D01*
X36308Y-48051D01*
X36368Y-48051D01*
X36392Y-48063D01*
X36404Y-48075D01*
X36415Y-48099D01*
X36415Y-48123D01*
X36404Y-48158D01*
X36261Y-48301D01*
X36415Y-48301D01*
X38539Y-48301D02*
X38456Y-48182D01*
X38397Y-48301D02*
X38397Y-48051D01*
X38492Y-48051D01*
X38516Y-48063D01*
X38527Y-48075D01*
X38539Y-48099D01*
X38539Y-48135D01*
X38527Y-48158D01*
X38516Y-48170D01*
X38492Y-48182D01*
X38397Y-48182D01*
X38777Y-48301D02*
X38635Y-48301D01*
X38706Y-48301D02*
X38706Y-48051D01*
X38682Y-48087D01*
X38658Y-48111D01*
X38635Y-48123D01*
X38861Y-48051D02*
X39015Y-48051D01*
X38932Y-48146D01*
X38968Y-48146D01*
X38992Y-48158D01*
X39004Y-48170D01*
X39015Y-48194D01*
X39015Y-48254D01*
X39004Y-48277D01*
X38992Y-48289D01*
X38968Y-48301D01*
X38896Y-48301D01*
X38873Y-48289D01*
X38861Y-48277D01*
X41801Y-47961D02*
X41682Y-48044D01*
X41801Y-48103D02*
X41551Y-48103D01*
X41551Y-48008D01*
X41563Y-47984D01*
X41575Y-47973D01*
X41599Y-47961D01*
X41635Y-47961D01*
X41658Y-47973D01*
X41670Y-47984D01*
X41682Y-48008D01*
X41682Y-48103D01*
X41801Y-47723D02*
X41801Y-47865D01*
X41801Y-47794D02*
X41551Y-47794D01*
X41587Y-47818D01*
X41611Y-47842D01*
X41623Y-47865D01*
X41635Y-47508D02*
X41801Y-47508D01*
X41539Y-47568D02*
X41718Y-47627D01*
X41718Y-47473D01*
X44201Y-48061D02*
X44082Y-48144D01*
X44201Y-48203D02*
X43951Y-48203D01*
X43951Y-48108D01*
X43963Y-48084D01*
X43975Y-48073D01*
X43999Y-48061D01*
X44035Y-48061D01*
X44058Y-48073D01*
X44070Y-48084D01*
X44082Y-48108D01*
X44082Y-48203D01*
X44201Y-47823D02*
X44201Y-47965D01*
X44201Y-47894D02*
X43951Y-47894D01*
X43987Y-47918D01*
X44011Y-47942D01*
X44023Y-47965D01*
X43951Y-47596D02*
X43951Y-47715D01*
X44070Y-47727D01*
X44058Y-47715D01*
X44046Y-47692D01*
X44046Y-47632D01*
X44058Y-47608D01*
X44070Y-47596D01*
X44094Y-47585D01*
X44154Y-47585D01*
X44177Y-47596D01*
X44189Y-47608D01*
X44201Y-47632D01*
X44201Y-47692D01*
X44189Y-47715D01*
X44177Y-47727D01*
X44539Y-45901D02*
X44456Y-45782D01*
X44397Y-45901D02*
X44397Y-45651D01*
X44492Y-45651D01*
X44516Y-45663D01*
X44527Y-45675D01*
X44539Y-45699D01*
X44539Y-45735D01*
X44527Y-45758D01*
X44516Y-45770D01*
X44492Y-45782D01*
X44397Y-45782D01*
X44777Y-45901D02*
X44635Y-45901D01*
X44706Y-45901D02*
X44706Y-45651D01*
X44682Y-45687D01*
X44658Y-45711D01*
X44635Y-45723D01*
X44992Y-45651D02*
X44944Y-45651D01*
X44920Y-45663D01*
X44908Y-45675D01*
X44885Y-45711D01*
X44873Y-45758D01*
X44873Y-45854D01*
X44885Y-45877D01*
X44896Y-45889D01*
X44920Y-45901D01*
X44968Y-45901D01*
X44992Y-45889D01*
X45004Y-45877D01*
X45015Y-45854D01*
X45015Y-45794D01*
X45004Y-45770D01*
X44992Y-45758D01*
X44968Y-45746D01*
X44920Y-45746D01*
X44896Y-45758D01*
X44885Y-45770D01*
X44873Y-45794D01*
X33601Y-44411D02*
X33482Y-44494D01*
X33601Y-44553D02*
X33351Y-44553D01*
X33351Y-44458D01*
X33363Y-44434D01*
X33375Y-44423D01*
X33399Y-44411D01*
X33435Y-44411D01*
X33458Y-44423D01*
X33470Y-44434D01*
X33482Y-44458D01*
X33482Y-44553D01*
X33601Y-44173D02*
X33601Y-44315D01*
X33601Y-44244D02*
X33351Y-44244D01*
X33387Y-44268D01*
X33411Y-44292D01*
X33423Y-44315D01*
X33351Y-44089D02*
X33351Y-43923D01*
X33601Y-44030D01*
X32589Y-42601D02*
X32506Y-42482D01*
X32447Y-42601D02*
X32447Y-42351D01*
X32542Y-42351D01*
X32566Y-42363D01*
X32577Y-42375D01*
X32589Y-42399D01*
X32589Y-42435D01*
X32577Y-42458D01*
X32566Y-42470D01*
X32542Y-42482D01*
X32447Y-42482D01*
X32827Y-42601D02*
X32685Y-42601D01*
X32756Y-42601D02*
X32756Y-42351D01*
X32732Y-42387D01*
X32708Y-42411D01*
X32685Y-42423D01*
X32970Y-42458D02*
X32946Y-42446D01*
X32935Y-42435D01*
X32923Y-42411D01*
X32923Y-42399D01*
X32935Y-42375D01*
X32946Y-42363D01*
X32970Y-42351D01*
X33018Y-42351D01*
X33042Y-42363D01*
X33054Y-42375D01*
X33065Y-42399D01*
X33065Y-42411D01*
X33054Y-42435D01*
X33042Y-42446D01*
X33018Y-42458D01*
X32970Y-42458D01*
X32946Y-42470D01*
X32935Y-42482D01*
X32923Y-42506D01*
X32923Y-42554D01*
X32935Y-42577D01*
X32946Y-42589D01*
X32970Y-42601D01*
X33018Y-42601D01*
X33042Y-42589D01*
X33054Y-42577D01*
X33065Y-42554D01*
X33065Y-42506D01*
X33054Y-42482D01*
X33042Y-42470D01*
X33018Y-42458D01*
X32601Y-44411D02*
X32482Y-44494D01*
X32601Y-44553D02*
X32351Y-44553D01*
X32351Y-44458D01*
X32363Y-44434D01*
X32375Y-44423D01*
X32399Y-44411D01*
X32435Y-44411D01*
X32458Y-44423D01*
X32470Y-44434D01*
X32482Y-44458D01*
X32482Y-44553D01*
X32601Y-44173D02*
X32601Y-44315D01*
X32601Y-44244D02*
X32351Y-44244D01*
X32387Y-44268D01*
X32411Y-44292D01*
X32423Y-44315D01*
X32601Y-44054D02*
X32601Y-44006D01*
X32589Y-43982D01*
X32577Y-43970D01*
X32542Y-43946D01*
X32494Y-43935D01*
X32399Y-43935D01*
X32375Y-43946D01*
X32363Y-43958D01*
X32351Y-43982D01*
X32351Y-44030D01*
X32363Y-44054D01*
X32375Y-44065D01*
X32399Y-44077D01*
X32458Y-44077D01*
X32482Y-44065D01*
X32494Y-44054D01*
X32506Y-44030D01*
X32506Y-43982D01*
X32494Y-43958D01*
X32482Y-43946D01*
X32458Y-43935D01*
X43839Y-33601D02*
X43756Y-33482D01*
X43697Y-33601D02*
X43697Y-33351D01*
X43792Y-33351D01*
X43816Y-33363D01*
X43827Y-33375D01*
X43839Y-33399D01*
X43839Y-33435D01*
X43827Y-33458D01*
X43816Y-33470D01*
X43792Y-33482D01*
X43697Y-33482D01*
X43935Y-33375D02*
X43947Y-33363D01*
X43970Y-33351D01*
X44030Y-33351D01*
X44054Y-33363D01*
X44066Y-33375D01*
X44077Y-33399D01*
X44077Y-33423D01*
X44066Y-33458D01*
X43923Y-33601D01*
X44077Y-33601D01*
X44315Y-33601D02*
X44173Y-33601D01*
X44244Y-33601D02*
X44244Y-33351D01*
X44220Y-33387D01*
X44196Y-33411D01*
X44173Y-33423D01*
X43101Y-31411D02*
X42982Y-31494D01*
X43101Y-31553D02*
X42851Y-31553D01*
X42851Y-31458D01*
X42863Y-31434D01*
X42875Y-31423D01*
X42899Y-31411D01*
X42935Y-31411D01*
X42958Y-31423D01*
X42970Y-31434D01*
X42982Y-31458D01*
X42982Y-31553D01*
X42875Y-31315D02*
X42863Y-31303D01*
X42851Y-31280D01*
X42851Y-31220D01*
X42863Y-31196D01*
X42875Y-31184D01*
X42899Y-31173D01*
X42923Y-31173D01*
X42958Y-31184D01*
X43101Y-31327D01*
X43101Y-31173D01*
X42851Y-31089D02*
X42851Y-30935D01*
X42946Y-31018D01*
X42946Y-30982D01*
X42958Y-30958D01*
X42970Y-30946D01*
X42994Y-30935D01*
X43054Y-30935D01*
X43077Y-30946D01*
X43089Y-30958D01*
X43101Y-30982D01*
X43101Y-31054D01*
X43089Y-31077D01*
X43077Y-31089D01*
G54D22*
X44427Y-31325D02*
X44432Y-31331D01*
X44438Y-31348D01*
X44438Y-31359D01*
X44432Y-31376D01*
X44421Y-31387D01*
X44410Y-31393D01*
X44387Y-31399D01*
X44370Y-31399D01*
X44348Y-31393D01*
X44337Y-31387D01*
X44325Y-31376D01*
X44320Y-31359D01*
X44320Y-31348D01*
X44325Y-31331D01*
X44331Y-31325D01*
X44438Y-31213D02*
X44438Y-31281D01*
X44438Y-31247D02*
X44320Y-31247D01*
X44337Y-31258D01*
X44348Y-31269D01*
X44353Y-31281D01*
X44320Y-31174D02*
X44320Y-31095D01*
X44438Y-31146D01*
X28881Y-42677D02*
X28875Y-42682D01*
X28858Y-42688D01*
X28847Y-42688D01*
X28830Y-42682D01*
X28819Y-42671D01*
X28813Y-42660D01*
X28807Y-42637D01*
X28807Y-42620D01*
X28813Y-42598D01*
X28819Y-42587D01*
X28830Y-42575D01*
X28847Y-42570D01*
X28858Y-42570D01*
X28875Y-42575D01*
X28881Y-42581D01*
X28993Y-42688D02*
X28925Y-42688D01*
X28959Y-42688D02*
X28959Y-42570D01*
X28948Y-42587D01*
X28937Y-42598D01*
X28925Y-42603D01*
X31481Y-40647D02*
X31475Y-40652D01*
X31458Y-40658D01*
X31447Y-40658D01*
X31430Y-40652D01*
X31419Y-40641D01*
X31413Y-40630D01*
X31407Y-40607D01*
X31407Y-40590D01*
X31413Y-40568D01*
X31419Y-40557D01*
X31430Y-40545D01*
X31447Y-40540D01*
X31458Y-40540D01*
X31475Y-40545D01*
X31481Y-40551D01*
X31582Y-40540D02*
X31559Y-40540D01*
X31548Y-40545D01*
X31542Y-40551D01*
X31531Y-40568D01*
X31525Y-40590D01*
X31525Y-40635D01*
X31531Y-40647D01*
X31537Y-40652D01*
X31548Y-40658D01*
X31570Y-40658D01*
X31582Y-40652D01*
X31587Y-40647D01*
X31593Y-40635D01*
X31593Y-40607D01*
X31587Y-40596D01*
X31582Y-40590D01*
X31570Y-40585D01*
X31548Y-40585D01*
X31537Y-40590D01*
X31531Y-40596D01*
X31525Y-40607D01*
X41927Y-35519D02*
X41932Y-35525D01*
X41938Y-35542D01*
X41938Y-35553D01*
X41932Y-35570D01*
X41921Y-35581D01*
X41910Y-35587D01*
X41887Y-35593D01*
X41870Y-35593D01*
X41848Y-35587D01*
X41837Y-35581D01*
X41825Y-35570D01*
X41820Y-35553D01*
X41820Y-35542D01*
X41825Y-35525D01*
X41831Y-35519D01*
X41870Y-35452D02*
X41865Y-35463D01*
X41859Y-35469D01*
X41848Y-35475D01*
X41842Y-35475D01*
X41831Y-35469D01*
X41825Y-35463D01*
X41820Y-35452D01*
X41820Y-35430D01*
X41825Y-35418D01*
X41831Y-35413D01*
X41842Y-35407D01*
X41848Y-35407D01*
X41859Y-35413D01*
X41865Y-35418D01*
X41870Y-35430D01*
X41870Y-35452D01*
X41876Y-35463D01*
X41882Y-35469D01*
X41893Y-35475D01*
X41915Y-35475D01*
X41927Y-35469D01*
X41932Y-35463D01*
X41938Y-35452D01*
X41938Y-35430D01*
X41932Y-35418D01*
X41927Y-35413D01*
X41915Y-35407D01*
X41893Y-35407D01*
X41882Y-35413D01*
X41876Y-35418D01*
X41870Y-35430D01*
G54D12*
X41401Y-45165D02*
X41626Y-45165D01*
X41513Y-45559D02*
X41513Y-45165D01*
X41719Y-45165D02*
X41963Y-45165D01*
X41832Y-45316D01*
X41888Y-45316D01*
X41926Y-45334D01*
X41944Y-45353D01*
X41963Y-45391D01*
X41963Y-45484D01*
X41944Y-45522D01*
X41926Y-45541D01*
X41888Y-45559D01*
X41776Y-45559D01*
X41738Y-45541D01*
X41719Y-45522D01*
X34201Y-43265D02*
X34426Y-43265D01*
X34313Y-43659D02*
X34313Y-43265D01*
X34726Y-43397D02*
X34726Y-43659D01*
X34632Y-43247D02*
X34538Y-43528D01*
X34782Y-43528D01*
X35201Y-45465D02*
X35426Y-45465D01*
X35313Y-45859D02*
X35313Y-45465D01*
X35744Y-45465D02*
X35557Y-45465D01*
X35538Y-45653D01*
X35557Y-45634D01*
X35594Y-45616D01*
X35688Y-45616D01*
X35726Y-45634D01*
X35744Y-45653D01*
X35763Y-45691D01*
X35763Y-45784D01*
X35744Y-45822D01*
X35726Y-45841D01*
X35688Y-45859D01*
X35594Y-45859D01*
X35557Y-45841D01*
X35538Y-45822D01*
X39201Y-45265D02*
X39426Y-45265D01*
X39313Y-45659D02*
X39313Y-45265D01*
X39726Y-45265D02*
X39651Y-45265D01*
X39613Y-45284D01*
X39594Y-45303D01*
X39557Y-45359D01*
X39538Y-45434D01*
X39538Y-45584D01*
X39557Y-45622D01*
X39576Y-45641D01*
X39613Y-45659D01*
X39688Y-45659D01*
X39726Y-45641D01*
X39744Y-45622D01*
X39763Y-45584D01*
X39763Y-45491D01*
X39744Y-45453D01*
X39726Y-45434D01*
X39688Y-45416D01*
X39613Y-45416D01*
X39576Y-45434D01*
X39557Y-45453D01*
X39538Y-45491D01*
X37201Y-44165D02*
X37426Y-44165D01*
X37313Y-44559D02*
X37313Y-44165D01*
X37519Y-44165D02*
X37782Y-44165D01*
X37613Y-44559D01*
X35301Y-43265D02*
X35526Y-43265D01*
X35413Y-43659D02*
X35413Y-43265D01*
X35713Y-43434D02*
X35676Y-43416D01*
X35657Y-43397D01*
X35638Y-43359D01*
X35638Y-43341D01*
X35657Y-43303D01*
X35676Y-43284D01*
X35713Y-43265D01*
X35788Y-43265D01*
X35826Y-43284D01*
X35844Y-43303D01*
X35863Y-43341D01*
X35863Y-43359D01*
X35844Y-43397D01*
X35826Y-43416D01*
X35788Y-43434D01*
X35713Y-43434D01*
X35676Y-43453D01*
X35657Y-43472D01*
X35638Y-43509D01*
X35638Y-43584D01*
X35657Y-43622D01*
X35676Y-43641D01*
X35713Y-43659D01*
X35788Y-43659D01*
X35826Y-43641D01*
X35844Y-43622D01*
X35863Y-43584D01*
X35863Y-43509D01*
X35844Y-43472D01*
X35826Y-43453D01*
X35788Y-43434D01*
X34201Y-45465D02*
X34426Y-45465D01*
X34313Y-45859D02*
X34313Y-45465D01*
X34576Y-45859D02*
X34651Y-45859D01*
X34688Y-45841D01*
X34707Y-45822D01*
X34744Y-45766D01*
X34763Y-45691D01*
X34763Y-45541D01*
X34744Y-45503D01*
X34726Y-45484D01*
X34688Y-45465D01*
X34613Y-45465D01*
X34576Y-45484D01*
X34557Y-45503D01*
X34538Y-45541D01*
X34538Y-45634D01*
X34557Y-45672D01*
X34576Y-45691D01*
X34613Y-45709D01*
X34688Y-45709D01*
X34726Y-45691D01*
X34744Y-45672D01*
X34763Y-45634D01*
X43013Y-44365D02*
X43238Y-44365D01*
X43125Y-44759D02*
X43125Y-44365D01*
X43575Y-44759D02*
X43350Y-44759D01*
X43463Y-44759D02*
X43463Y-44365D01*
X43425Y-44422D01*
X43388Y-44459D01*
X43350Y-44478D01*
X43819Y-44365D02*
X43856Y-44365D01*
X43894Y-44384D01*
X43913Y-44403D01*
X43931Y-44441D01*
X43950Y-44516D01*
X43950Y-44609D01*
X43931Y-44684D01*
X43913Y-44722D01*
X43894Y-44741D01*
X43856Y-44759D01*
X43819Y-44759D01*
X43781Y-44741D01*
X43763Y-44722D01*
X43744Y-44684D01*
X43725Y-44609D01*
X43725Y-44516D01*
X43744Y-44441D01*
X43763Y-44403D01*
X43781Y-44384D01*
X43819Y-44365D01*
X42713Y-40965D02*
X42938Y-40965D01*
X42825Y-41359D02*
X42825Y-40965D01*
X43275Y-41359D02*
X43050Y-41359D01*
X43163Y-41359D02*
X43163Y-40965D01*
X43125Y-41022D01*
X43088Y-41059D01*
X43050Y-41078D01*
X43650Y-41359D02*
X43425Y-41359D01*
X43538Y-41359D02*
X43538Y-40965D01*
X43500Y-41022D01*
X43463Y-41059D01*
X43425Y-41078D01*
X36013Y-45465D02*
X36238Y-45465D01*
X36125Y-45859D02*
X36125Y-45465D01*
X36575Y-45859D02*
X36350Y-45859D01*
X36463Y-45859D02*
X36463Y-45465D01*
X36425Y-45522D01*
X36388Y-45559D01*
X36350Y-45578D01*
X36725Y-45503D02*
X36744Y-45484D01*
X36781Y-45465D01*
X36875Y-45465D01*
X36913Y-45484D01*
X36931Y-45503D01*
X36950Y-45541D01*
X36950Y-45578D01*
X36931Y-45634D01*
X36706Y-45859D01*
X36950Y-45859D01*
X44201Y-43865D02*
X44426Y-43865D01*
X44313Y-44259D02*
X44313Y-43865D01*
X44763Y-44259D02*
X44538Y-44259D01*
X44651Y-44259D02*
X44651Y-43865D01*
X44613Y-43922D01*
X44576Y-43959D01*
X44538Y-43978D01*
X42501Y-42765D02*
X42726Y-42765D01*
X42613Y-43159D02*
X42613Y-42765D01*
X42838Y-42803D02*
X42857Y-42784D01*
X42894Y-42765D01*
X42988Y-42765D01*
X43026Y-42784D01*
X43044Y-42803D01*
X43063Y-42841D01*
X43063Y-42878D01*
X43044Y-42934D01*
X42819Y-43159D01*
X43063Y-43159D01*
M02*
