G04 (created by PCBNEW-RS274X (2012-01-19 BZR 3256)-stable) date 3/3/2013 11:18:49 PM*
G01*
G70*
G90*
%MOIN*%
G04 Gerber Fmt 3.4, Leading zero omitted, Abs format*
%FSLAX34Y34*%
G04 APERTURE LIST*
%ADD10C,0.006000*%
%ADD11C,0.015000*%
%ADD12R,0.106600X0.080000*%
%ADD13O,0.106600X0.080000*%
%ADD14C,0.098700*%
%ADD15R,0.075000X0.075000*%
%ADD16C,0.075000*%
G04 APERTURE END LIST*
G54D10*
G54D11*
X51200Y-37600D02*
X51200Y-18000D01*
X70800Y-37600D02*
X51200Y-37600D01*
X70800Y-18000D02*
X70800Y-37600D01*
X51200Y-18000D02*
X70800Y-18000D01*
G54D12*
X67000Y-26000D03*
G54D13*
X67000Y-25000D03*
X67000Y-24000D03*
G54D12*
X55000Y-24000D03*
G54D13*
X55000Y-25000D03*
X55000Y-26000D03*
G54D14*
X61900Y-27150D03*
X63900Y-27150D03*
G54D15*
X56500Y-20000D03*
G54D16*
X57500Y-20000D03*
X58500Y-20000D03*
X59500Y-20000D03*
X60500Y-20000D03*
X61500Y-20000D03*
X62500Y-20000D03*
X63500Y-20000D03*
X64500Y-20000D03*
X65500Y-20000D03*
G54D15*
X56500Y-19000D03*
G54D16*
X57500Y-19000D03*
X58500Y-19000D03*
X59500Y-19000D03*
X60500Y-19000D03*
X61500Y-19000D03*
X62500Y-19000D03*
X63500Y-19000D03*
X64500Y-19000D03*
X65500Y-19000D03*
G54D15*
X56500Y-21000D03*
G54D16*
X57500Y-21000D03*
X58500Y-21000D03*
X59500Y-21000D03*
X60500Y-21000D03*
X61500Y-21000D03*
X62500Y-21000D03*
X63500Y-21000D03*
X64500Y-21000D03*
X65500Y-21000D03*
G54D15*
X66500Y-19000D03*
G54D16*
X67500Y-19000D03*
X68500Y-19000D03*
M02*
