G04 (created by PCBNEW-RS274X (2012-01-19 BZR 3256)-stable) date 4/1/2013 12:09:17 AM*
G01*
G70*
G90*
%MOIN*%
G04 Gerber Fmt 3.4, Leading zero omitted, Abs format*
%FSLAX34Y34*%
G04 APERTURE LIST*
%ADD10C,0.006000*%
%ADD11C,0.015000*%
%ADD12R,0.086600X0.060000*%
%ADD13O,0.086600X0.060000*%
%ADD14R,0.055000X0.055000*%
%ADD15C,0.055000*%
%ADD16C,0.137800*%
%ADD17C,0.035000*%
%ADD18C,0.013800*%
%ADD19C,0.027600*%
%ADD20C,0.011800*%
%ADD21C,0.009800*%
%ADD22C,0.010000*%
G04 APERTURE END LIST*
G54D10*
G54D11*
X27700Y-48600D02*
X27700Y-29000D01*
X47300Y-48600D02*
X27700Y-48600D01*
X47300Y-29000D02*
X47300Y-48600D01*
X27700Y-29000D02*
X47300Y-29000D01*
G54D12*
X43000Y-37000D03*
G54D13*
X43000Y-36000D03*
X43000Y-35000D03*
G54D12*
X32000Y-35000D03*
G54D13*
X32000Y-36000D03*
X32000Y-37000D03*
G54D14*
X43000Y-30000D03*
G54D15*
X44000Y-30000D03*
X45000Y-30000D03*
G54D14*
X31000Y-30000D03*
G54D15*
X32000Y-30000D03*
X33000Y-30000D03*
X34000Y-30000D03*
X35000Y-30000D03*
X36000Y-30000D03*
G54D14*
X39000Y-30000D03*
G54D15*
X40000Y-30000D03*
X41000Y-30000D03*
X42000Y-30000D03*
G54D14*
X39000Y-31000D03*
G54D15*
X40000Y-31000D03*
X41000Y-31000D03*
X42000Y-31000D03*
G54D14*
X39000Y-32000D03*
G54D15*
X40000Y-32000D03*
X41000Y-32000D03*
X42000Y-32000D03*
G54D14*
X31000Y-32000D03*
G54D15*
X32000Y-32000D03*
X33000Y-32000D03*
X34000Y-32000D03*
X35000Y-32000D03*
X36000Y-32000D03*
G54D14*
X31000Y-31000D03*
G54D15*
X32000Y-31000D03*
X33000Y-31000D03*
X34000Y-31000D03*
X35000Y-31000D03*
X36000Y-31000D03*
G54D14*
X28200Y-45600D03*
G54D15*
X29200Y-45600D03*
X30200Y-45600D03*
X31200Y-45600D03*
G54D14*
X46200Y-44300D03*
G54D15*
X46200Y-43300D03*
X46200Y-42300D03*
X46200Y-41300D03*
X46200Y-40300D03*
G54D16*
X37500Y-30500D03*
G54D17*
X33000Y-45200D03*
X33200Y-41800D03*
X43200Y-39600D03*
X45400Y-39700D03*
X29800Y-40000D03*
X40000Y-43900D03*
X39900Y-43400D03*
X35650Y-41200D03*
X36000Y-40950D03*
X42150Y-33000D03*
X40400Y-42050D03*
X40900Y-43400D03*
X45000Y-33250D03*
X40600Y-40600D03*
X44900Y-45000D03*
X35000Y-45450D03*
X41400Y-45700D03*
X41800Y-40200D03*
X35700Y-42400D03*
X39100Y-42300D03*
X36800Y-42500D03*
X46600Y-38000D03*
X44700Y-38000D03*
X45700Y-38700D03*
X43900Y-38700D03*
X36400Y-42700D03*
X43900Y-45000D03*
X39400Y-43900D03*
X33500Y-45250D03*
X33650Y-42750D03*
X34650Y-42750D03*
X32500Y-40500D03*
X33750Y-48000D03*
X42800Y-43500D03*
X46300Y-33750D03*
X36400Y-40100D03*
X45300Y-47600D03*
X44000Y-32750D03*
X28750Y-33750D03*
X30500Y-40000D03*
X40500Y-40100D03*
X37500Y-37750D03*
X44300Y-42100D03*
X37550Y-34950D03*
G54D18*
X33200Y-45000D02*
X33200Y-41800D01*
G54D19*
X45300Y-39600D02*
X43200Y-39600D01*
G54D18*
X33000Y-45200D02*
X33200Y-45000D01*
G54D19*
X45400Y-39700D02*
X45300Y-39600D01*
X29700Y-36700D02*
X29700Y-36600D01*
X30300Y-36000D02*
X32000Y-36000D01*
X29800Y-40000D02*
X29700Y-39900D01*
X29700Y-39900D02*
X29700Y-36700D01*
X29700Y-36600D02*
X30300Y-36000D01*
G54D20*
X36350Y-40850D02*
X36350Y-41050D01*
X39236Y-41950D02*
X37000Y-41950D01*
X36100Y-41450D02*
X36500Y-41850D01*
X35100Y-34600D02*
X34600Y-35100D01*
X35900Y-40600D02*
X36100Y-40600D01*
X39500Y-32900D02*
X39200Y-32900D01*
X39450Y-42164D02*
X39236Y-41950D01*
X36100Y-41300D02*
X36100Y-41450D01*
X35839Y-40661D02*
X35900Y-40600D01*
X37400Y-33400D02*
X36600Y-34200D01*
X36500Y-41850D02*
X36900Y-41850D01*
X39800Y-32600D02*
X39500Y-32900D01*
X34600Y-39772D02*
X35278Y-40450D01*
X36600Y-34200D02*
X35500Y-34200D01*
X36350Y-41050D02*
X36100Y-41300D01*
X35278Y-40450D02*
X35489Y-40661D01*
X40900Y-32000D02*
X40300Y-32600D01*
X39450Y-43500D02*
X39450Y-42164D01*
X35489Y-40661D02*
X35839Y-40661D01*
X41000Y-32000D02*
X40900Y-32000D01*
X35500Y-34200D02*
X35100Y-34600D01*
X39200Y-32900D02*
X38700Y-33400D01*
X34600Y-35100D02*
X34600Y-39772D01*
X36100Y-40600D02*
X36350Y-40850D01*
X40300Y-32600D02*
X39800Y-32600D01*
X38700Y-33400D02*
X37400Y-33400D01*
X36900Y-41850D02*
X37000Y-41950D01*
X39850Y-43900D02*
X39450Y-43500D01*
X39850Y-43900D02*
X40000Y-43900D01*
G54D21*
X39679Y-43329D02*
X39750Y-43400D01*
X39750Y-43400D02*
X39900Y-43400D01*
G54D20*
X35424Y-34675D02*
X34800Y-35299D01*
G54D21*
X39679Y-42125D02*
X39679Y-43329D01*
G54D20*
X40400Y-32900D02*
X39900Y-32900D01*
X37000Y-41650D02*
X36701Y-41650D01*
X35425Y-34675D02*
X35400Y-34700D01*
X35650Y-40400D02*
X35500Y-40250D01*
X39600Y-33200D02*
X39300Y-33200D01*
X34800Y-39650D02*
X35400Y-40250D01*
X36450Y-41399D02*
X36450Y-41250D01*
X36450Y-41250D02*
X36549Y-41151D01*
X36650Y-34450D02*
X35650Y-34450D01*
X39300Y-33200D02*
X38900Y-33600D01*
G54D21*
X39304Y-41750D02*
X39679Y-42125D01*
G54D20*
X35650Y-34450D02*
X35425Y-34675D01*
X37100Y-41750D02*
X37000Y-41650D01*
X34800Y-35299D02*
X34800Y-39650D01*
X37300Y-41750D02*
X37100Y-41750D01*
X36549Y-41151D02*
X36549Y-40749D01*
X37500Y-33600D02*
X36650Y-34450D01*
X42000Y-32000D02*
X41850Y-32000D01*
X40700Y-32600D02*
X40400Y-32900D01*
X39304Y-41750D02*
X37300Y-41750D01*
X41250Y-32600D02*
X40700Y-32600D01*
X36549Y-40749D02*
X36200Y-40400D01*
X36701Y-41650D02*
X36450Y-41399D01*
X38900Y-33600D02*
X37500Y-33600D01*
X39900Y-32900D02*
X39600Y-33200D01*
X36200Y-40400D02*
X35650Y-40400D01*
X35500Y-40250D02*
X35400Y-40250D01*
X41850Y-32000D02*
X41250Y-32600D01*
X35424Y-34675D02*
X35425Y-34675D01*
X39000Y-32000D02*
X38200Y-32800D01*
X34197Y-39933D02*
X35357Y-41093D01*
X34500Y-34400D02*
X35300Y-33600D01*
X34500Y-34400D02*
X34497Y-34400D01*
X35300Y-33600D02*
X36300Y-33600D01*
X34497Y-34400D02*
X34197Y-34700D01*
X37100Y-32800D02*
X38200Y-32800D01*
X35532Y-41268D02*
X35357Y-41093D01*
X35582Y-41268D02*
X35532Y-41268D01*
X34197Y-34700D02*
X34197Y-39933D01*
X35650Y-41200D02*
X35582Y-41268D01*
X36300Y-33600D02*
X37100Y-32800D01*
X36500Y-33900D02*
X37300Y-33100D01*
X35400Y-33900D02*
X36500Y-33900D01*
X34800Y-34500D02*
X34796Y-34500D01*
X34398Y-39852D02*
X35346Y-40800D01*
X34796Y-34500D02*
X34398Y-34898D01*
X35423Y-40877D02*
X35346Y-40800D01*
X35927Y-40877D02*
X35423Y-40877D01*
X36000Y-40950D02*
X35927Y-40877D01*
X38600Y-33100D02*
X39100Y-32600D01*
X34800Y-34500D02*
X35400Y-33900D01*
X39100Y-32600D02*
X39400Y-32600D01*
X34398Y-34898D02*
X34398Y-39852D01*
X37300Y-33100D02*
X38600Y-33100D01*
X39400Y-32600D02*
X40000Y-32000D01*
X41700Y-34000D02*
X40418Y-34000D01*
X39901Y-34517D02*
X39901Y-40683D01*
X40418Y-34000D02*
X39901Y-34517D01*
X40400Y-41182D02*
X40400Y-42050D01*
X39901Y-40683D02*
X40400Y-41182D01*
X42150Y-33550D02*
X41700Y-34000D01*
X42150Y-33000D02*
X42150Y-33550D01*
X45000Y-33250D02*
X45000Y-33700D01*
X40100Y-40600D02*
X40800Y-41300D01*
X40800Y-43300D02*
X40900Y-43400D01*
X44500Y-34200D02*
X40500Y-34200D01*
X40100Y-34600D02*
X40100Y-40600D01*
X40800Y-41300D02*
X40800Y-43300D01*
X45000Y-33700D02*
X44500Y-34200D01*
X40500Y-34200D02*
X40100Y-34600D01*
G54D21*
X44900Y-45000D02*
X44300Y-44400D01*
X42400Y-44400D02*
X41000Y-43000D01*
X44300Y-44400D02*
X42400Y-44400D01*
X40600Y-40600D02*
X41000Y-41000D01*
X41000Y-41000D02*
X41000Y-43000D01*
X33000Y-40500D02*
X33032Y-40500D01*
G54D20*
X33000Y-40500D02*
X33000Y-35000D01*
X33000Y-33100D02*
X32700Y-32800D01*
X32700Y-32800D02*
X31800Y-32800D01*
X33000Y-35000D02*
X33000Y-33100D01*
G54D21*
X33032Y-40500D02*
X35000Y-42468D01*
G54D20*
X31000Y-32000D02*
X31800Y-32800D01*
G54D21*
X35000Y-42468D02*
X35000Y-45450D01*
G54D20*
X32900Y-32500D02*
X32500Y-32500D01*
X35650Y-45700D02*
X37500Y-45700D01*
X33200Y-40400D02*
X35200Y-42400D01*
X33200Y-34918D02*
X33200Y-32800D01*
X33200Y-32800D02*
X32900Y-32500D01*
X32041Y-32041D02*
X32000Y-32000D01*
X35200Y-42400D02*
X35200Y-44850D01*
X32500Y-32500D02*
X32000Y-32000D01*
X35450Y-45500D02*
X35650Y-45700D01*
X35200Y-44850D02*
X35450Y-45100D01*
X33200Y-40400D02*
X33200Y-34918D01*
X33199Y-40399D02*
X33200Y-40400D01*
X35450Y-45100D02*
X35450Y-45500D01*
X37500Y-45700D02*
X41400Y-45700D01*
G54D21*
X42900Y-40200D02*
X44000Y-41300D01*
X44000Y-41300D02*
X46200Y-41300D01*
X41800Y-40200D02*
X42900Y-40200D01*
G54D20*
X33400Y-40318D02*
X33400Y-34837D01*
X33400Y-32400D02*
X33000Y-32000D01*
X33400Y-34836D02*
X33400Y-32400D01*
X35482Y-42400D02*
X35700Y-42400D01*
X33400Y-34837D02*
X33401Y-34836D01*
X33400Y-40318D02*
X35482Y-42400D01*
X33401Y-34836D02*
X33400Y-34836D01*
X33400Y-34836D02*
X33400Y-34836D01*
X35500Y-32500D02*
X36000Y-32000D01*
X36401Y-42051D02*
X35951Y-41601D01*
X35583Y-41601D02*
X33998Y-40016D01*
X37200Y-42300D02*
X37050Y-42300D01*
X33998Y-40016D02*
X33998Y-34002D01*
X33998Y-34002D02*
X33998Y-33402D01*
X34900Y-32500D02*
X35500Y-32500D01*
X33998Y-33402D02*
X34900Y-32500D01*
X36801Y-42051D02*
X36401Y-42051D01*
X37050Y-42300D02*
X36801Y-42051D01*
X39100Y-42300D02*
X37200Y-42300D01*
X35951Y-41601D02*
X35583Y-41601D01*
X33800Y-40100D02*
X33800Y-33200D01*
X35500Y-41800D02*
X35850Y-41800D01*
X33800Y-40100D02*
X35500Y-41800D01*
X36300Y-42250D02*
X36550Y-42250D01*
X33799Y-40099D02*
X33800Y-40100D01*
X33800Y-33200D02*
X35000Y-32000D01*
X35850Y-41800D02*
X36300Y-42250D01*
X36800Y-42500D02*
X36550Y-42250D01*
G54D21*
X46600Y-38000D02*
X44700Y-38000D01*
X43900Y-38700D02*
X45700Y-38700D01*
G54D20*
X36400Y-42700D02*
X36400Y-42650D01*
X33600Y-34500D02*
X33600Y-32400D01*
X35400Y-42000D02*
X33600Y-40200D01*
X33600Y-34800D02*
X33600Y-34500D01*
X35750Y-42000D02*
X35400Y-42000D01*
X33600Y-40200D02*
X33600Y-34800D01*
X36400Y-42650D02*
X35750Y-42000D01*
X33600Y-32400D02*
X34000Y-32000D01*
G54D21*
X39700Y-45000D02*
X43900Y-45000D01*
X39400Y-43900D02*
X39400Y-44700D01*
X39400Y-44700D02*
X39700Y-45000D01*
X33500Y-42900D02*
X33500Y-45250D01*
X33650Y-42750D02*
X33500Y-42900D01*
X34650Y-42450D02*
X34650Y-42750D01*
X32700Y-40500D02*
X34650Y-42450D01*
X32500Y-40500D02*
X32700Y-40500D01*
G54D10*
G36*
X47054Y-48354D02*
X46945Y-48354D01*
X46945Y-38069D01*
X46945Y-37932D01*
X46893Y-37805D01*
X46796Y-37708D01*
X46669Y-37655D01*
X46532Y-37655D01*
X46405Y-37707D01*
X46332Y-37780D01*
X45445Y-37780D01*
X45445Y-30089D01*
X45445Y-29912D01*
X45377Y-29748D01*
X45252Y-29623D01*
X45089Y-29555D01*
X44912Y-29555D01*
X44748Y-29623D01*
X44623Y-29748D01*
X44555Y-29911D01*
X44555Y-30088D01*
X44623Y-30252D01*
X44748Y-30377D01*
X44911Y-30445D01*
X45088Y-30445D01*
X45252Y-30377D01*
X45377Y-30252D01*
X45445Y-30089D01*
X45445Y-37780D01*
X45345Y-37780D01*
X45345Y-33319D01*
X45345Y-33182D01*
X45293Y-33055D01*
X45196Y-32958D01*
X45069Y-32905D01*
X44932Y-32905D01*
X44805Y-32957D01*
X44708Y-33054D01*
X44655Y-33181D01*
X44655Y-33318D01*
X44707Y-33445D01*
X44770Y-33508D01*
X44770Y-33604D01*
X44474Y-33900D01*
X44474Y-30083D01*
X44470Y-29895D01*
X44407Y-29742D01*
X44325Y-29718D01*
X44282Y-29760D01*
X44282Y-29675D01*
X44258Y-29593D01*
X44083Y-29526D01*
X43895Y-29530D01*
X43742Y-29593D01*
X43718Y-29675D01*
X44000Y-29958D01*
X44282Y-29675D01*
X44282Y-29760D01*
X44042Y-30000D01*
X44325Y-30282D01*
X44407Y-30258D01*
X44474Y-30083D01*
X44474Y-33900D01*
X44404Y-33970D01*
X44282Y-33970D01*
X44282Y-30325D01*
X44000Y-30042D01*
X43958Y-30084D01*
X43958Y-30000D01*
X43675Y-29718D01*
X43593Y-29742D01*
X43526Y-29917D01*
X43530Y-30105D01*
X43593Y-30258D01*
X43675Y-30282D01*
X43958Y-30000D01*
X43958Y-30084D01*
X43718Y-30325D01*
X43742Y-30407D01*
X43917Y-30474D01*
X44105Y-30470D01*
X44258Y-30407D01*
X44282Y-30325D01*
X44282Y-33970D01*
X43446Y-33970D01*
X43446Y-30309D01*
X43446Y-30241D01*
X43446Y-29691D01*
X43420Y-29628D01*
X43372Y-29580D01*
X43309Y-29554D01*
X43241Y-29554D01*
X42691Y-29554D01*
X42628Y-29580D01*
X42580Y-29628D01*
X42554Y-29691D01*
X42554Y-29759D01*
X42554Y-30309D01*
X42580Y-30372D01*
X42628Y-30420D01*
X42691Y-30446D01*
X42759Y-30446D01*
X43309Y-30446D01*
X43372Y-30420D01*
X43420Y-30372D01*
X43446Y-30309D01*
X43446Y-33970D01*
X42055Y-33970D01*
X42310Y-33714D01*
X42312Y-33713D01*
X42313Y-33713D01*
X42362Y-33638D01*
X42380Y-33550D01*
X42380Y-33258D01*
X42442Y-33196D01*
X42495Y-33069D01*
X42495Y-32932D01*
X42474Y-32880D01*
X42474Y-30083D01*
X42470Y-29895D01*
X42407Y-29742D01*
X42325Y-29718D01*
X42282Y-29760D01*
X42282Y-29675D01*
X42258Y-29593D01*
X42083Y-29526D01*
X41895Y-29530D01*
X41742Y-29593D01*
X41718Y-29675D01*
X42000Y-29958D01*
X42282Y-29675D01*
X42282Y-29760D01*
X42042Y-30000D01*
X42325Y-30282D01*
X42407Y-30258D01*
X42474Y-30083D01*
X42474Y-32880D01*
X42443Y-32805D01*
X42346Y-32708D01*
X42219Y-32655D01*
X42082Y-32655D01*
X41955Y-32707D01*
X41858Y-32804D01*
X41805Y-32931D01*
X41805Y-33068D01*
X41857Y-33195D01*
X41920Y-33258D01*
X41920Y-33454D01*
X41604Y-33770D01*
X40418Y-33770D01*
X40330Y-33788D01*
X40255Y-33837D01*
X39738Y-34354D01*
X39689Y-34429D01*
X39670Y-34517D01*
X39671Y-34521D01*
X39671Y-40678D01*
X39670Y-40683D01*
X39689Y-40771D01*
X39738Y-40846D01*
X40170Y-41277D01*
X40170Y-41792D01*
X40108Y-41854D01*
X40055Y-41981D01*
X40055Y-42118D01*
X40107Y-42245D01*
X40204Y-42342D01*
X40331Y-42395D01*
X40468Y-42395D01*
X40570Y-42353D01*
X40570Y-43294D01*
X40570Y-43295D01*
X40555Y-43331D01*
X40555Y-43468D01*
X40607Y-43595D01*
X40704Y-43692D01*
X40831Y-43745D01*
X40968Y-43745D01*
X41095Y-43693D01*
X41192Y-43596D01*
X41219Y-43530D01*
X42242Y-44553D01*
X42244Y-44556D01*
X42315Y-44602D01*
X42316Y-44603D01*
X42382Y-44616D01*
X42399Y-44620D01*
X42399Y-44619D01*
X42400Y-44620D01*
X44208Y-44620D01*
X44555Y-44966D01*
X44555Y-45068D01*
X44607Y-45195D01*
X44704Y-45292D01*
X44831Y-45345D01*
X44968Y-45345D01*
X45095Y-45293D01*
X45192Y-45196D01*
X45245Y-45069D01*
X45245Y-44932D01*
X45193Y-44805D01*
X45096Y-44708D01*
X44969Y-44655D01*
X44866Y-44655D01*
X44456Y-44244D01*
X44384Y-44197D01*
X44300Y-44179D01*
X44295Y-44180D01*
X42491Y-44180D01*
X41220Y-42908D01*
X41220Y-41000D01*
X41203Y-40916D01*
X41202Y-40915D01*
X41156Y-40844D01*
X41153Y-40842D01*
X40945Y-40633D01*
X40945Y-40532D01*
X40893Y-40405D01*
X40796Y-40308D01*
X40669Y-40255D01*
X40532Y-40255D01*
X40405Y-40307D01*
X40330Y-40382D01*
X40330Y-34695D01*
X40595Y-34430D01*
X44495Y-34430D01*
X44500Y-34431D01*
X44500Y-34430D01*
X44588Y-34412D01*
X44663Y-34363D01*
X45163Y-33863D01*
X45212Y-33788D01*
X45230Y-33700D01*
X45230Y-33508D01*
X45292Y-33446D01*
X45345Y-33319D01*
X45345Y-37780D01*
X44968Y-37780D01*
X44896Y-37708D01*
X44769Y-37655D01*
X44632Y-37655D01*
X44505Y-37707D01*
X44408Y-37804D01*
X44355Y-37931D01*
X44355Y-38068D01*
X44407Y-38195D01*
X44504Y-38292D01*
X44631Y-38345D01*
X44768Y-38345D01*
X44895Y-38293D01*
X44968Y-38220D01*
X46332Y-38220D01*
X46404Y-38292D01*
X46531Y-38345D01*
X46668Y-38345D01*
X46795Y-38293D01*
X46892Y-38196D01*
X46945Y-38069D01*
X46945Y-48354D01*
X46674Y-48354D01*
X46674Y-40383D01*
X46670Y-40195D01*
X46607Y-40042D01*
X46525Y-40018D01*
X46482Y-40060D01*
X46482Y-39975D01*
X46458Y-39893D01*
X46283Y-39826D01*
X46095Y-39830D01*
X46045Y-39850D01*
X46045Y-38769D01*
X46045Y-38632D01*
X45993Y-38505D01*
X45896Y-38408D01*
X45769Y-38355D01*
X45632Y-38355D01*
X45505Y-38407D01*
X45432Y-38480D01*
X44168Y-38480D01*
X44096Y-38408D01*
X43969Y-38355D01*
X43832Y-38355D01*
X43705Y-38407D01*
X43628Y-38484D01*
X43628Y-35109D01*
X43628Y-34891D01*
X43615Y-34839D01*
X43517Y-34667D01*
X43360Y-34545D01*
X43169Y-34493D01*
X43030Y-34493D01*
X43030Y-34970D01*
X43588Y-34970D01*
X43628Y-34891D01*
X43628Y-35109D01*
X43588Y-35030D01*
X43030Y-35030D01*
X43030Y-35507D01*
X43169Y-35507D01*
X43360Y-35455D01*
X43517Y-35333D01*
X43615Y-35161D01*
X43628Y-35109D01*
X43628Y-38484D01*
X43608Y-38504D01*
X43606Y-38508D01*
X43606Y-36093D01*
X43606Y-35909D01*
X43536Y-35739D01*
X43406Y-35609D01*
X43237Y-35538D01*
X43053Y-35538D01*
X42970Y-35538D01*
X42970Y-35507D01*
X42970Y-35030D01*
X42970Y-34970D01*
X42970Y-34493D01*
X42831Y-34493D01*
X42640Y-34545D01*
X42483Y-34667D01*
X42385Y-34839D01*
X42372Y-34891D01*
X42412Y-34970D01*
X42970Y-34970D01*
X42970Y-35030D01*
X42412Y-35030D01*
X42372Y-35109D01*
X42385Y-35161D01*
X42483Y-35333D01*
X42640Y-35455D01*
X42831Y-35507D01*
X42970Y-35507D01*
X42970Y-35538D01*
X42765Y-35538D01*
X42595Y-35608D01*
X42465Y-35738D01*
X42394Y-35907D01*
X42394Y-36091D01*
X42464Y-36261D01*
X42594Y-36391D01*
X42763Y-36462D01*
X42947Y-36462D01*
X43235Y-36462D01*
X43405Y-36392D01*
X43535Y-36262D01*
X43606Y-36093D01*
X43606Y-38508D01*
X43604Y-38513D01*
X43604Y-37334D01*
X43604Y-37266D01*
X43604Y-36666D01*
X43578Y-36603D01*
X43530Y-36555D01*
X43467Y-36529D01*
X43399Y-36529D01*
X42533Y-36529D01*
X42470Y-36555D01*
X42422Y-36603D01*
X42396Y-36666D01*
X42396Y-36734D01*
X42396Y-37334D01*
X42422Y-37397D01*
X42470Y-37445D01*
X42533Y-37471D01*
X42601Y-37471D01*
X43467Y-37471D01*
X43530Y-37445D01*
X43578Y-37397D01*
X43604Y-37334D01*
X43604Y-38513D01*
X43555Y-38631D01*
X43555Y-38768D01*
X43607Y-38895D01*
X43704Y-38992D01*
X43831Y-39045D01*
X43968Y-39045D01*
X44095Y-38993D01*
X44168Y-38920D01*
X45432Y-38920D01*
X45504Y-38992D01*
X45631Y-39045D01*
X45768Y-39045D01*
X45895Y-38993D01*
X45992Y-38896D01*
X46045Y-38769D01*
X46045Y-39850D01*
X45942Y-39893D01*
X45918Y-39975D01*
X46200Y-40258D01*
X46482Y-39975D01*
X46482Y-40060D01*
X46242Y-40300D01*
X46525Y-40582D01*
X46607Y-40558D01*
X46674Y-40383D01*
X46674Y-48354D01*
X46646Y-48354D01*
X46646Y-44609D01*
X46646Y-44541D01*
X46646Y-43991D01*
X46645Y-43988D01*
X46645Y-43389D01*
X46645Y-43212D01*
X46645Y-42389D01*
X46645Y-42212D01*
X46645Y-41389D01*
X46645Y-41212D01*
X46577Y-41048D01*
X46482Y-40953D01*
X46482Y-40625D01*
X46200Y-40342D01*
X46158Y-40384D01*
X46158Y-40300D01*
X45875Y-40018D01*
X45793Y-40042D01*
X45745Y-40167D01*
X45745Y-39769D01*
X45745Y-39632D01*
X45693Y-39505D01*
X45596Y-39408D01*
X45492Y-39364D01*
X45418Y-39315D01*
X45300Y-39291D01*
X43355Y-39291D01*
X43269Y-39255D01*
X43132Y-39255D01*
X43005Y-39307D01*
X42908Y-39404D01*
X42855Y-39531D01*
X42855Y-39668D01*
X42907Y-39795D01*
X43004Y-39892D01*
X43131Y-39945D01*
X43268Y-39945D01*
X43355Y-39909D01*
X45121Y-39909D01*
X45204Y-39992D01*
X45331Y-40045D01*
X45468Y-40045D01*
X45595Y-39993D01*
X45692Y-39896D01*
X45745Y-39769D01*
X45745Y-40167D01*
X45726Y-40217D01*
X45730Y-40405D01*
X45793Y-40558D01*
X45875Y-40582D01*
X46158Y-40300D01*
X46158Y-40384D01*
X45918Y-40625D01*
X45942Y-40707D01*
X46117Y-40774D01*
X46305Y-40770D01*
X46458Y-40707D01*
X46482Y-40625D01*
X46482Y-40953D01*
X46452Y-40923D01*
X46289Y-40855D01*
X46112Y-40855D01*
X45948Y-40923D01*
X45823Y-41048D01*
X45809Y-41080D01*
X44091Y-41080D01*
X43056Y-40044D01*
X42984Y-39997D01*
X42900Y-39979D01*
X42895Y-39980D01*
X42068Y-39980D01*
X41996Y-39908D01*
X41869Y-39855D01*
X41732Y-39855D01*
X41605Y-39907D01*
X41508Y-40004D01*
X41455Y-40131D01*
X41455Y-40268D01*
X41507Y-40395D01*
X41604Y-40492D01*
X41731Y-40545D01*
X41868Y-40545D01*
X41995Y-40493D01*
X42068Y-40420D01*
X42808Y-40420D01*
X43842Y-41453D01*
X43844Y-41456D01*
X43915Y-41502D01*
X43916Y-41503D01*
X44000Y-41520D01*
X45809Y-41520D01*
X45823Y-41552D01*
X45948Y-41677D01*
X46111Y-41745D01*
X46288Y-41745D01*
X46452Y-41677D01*
X46577Y-41552D01*
X46645Y-41389D01*
X46645Y-42212D01*
X46577Y-42048D01*
X46452Y-41923D01*
X46289Y-41855D01*
X46112Y-41855D01*
X45948Y-41923D01*
X45823Y-42048D01*
X45755Y-42211D01*
X45755Y-42388D01*
X45823Y-42552D01*
X45948Y-42677D01*
X46111Y-42745D01*
X46288Y-42745D01*
X46452Y-42677D01*
X46577Y-42552D01*
X46645Y-42389D01*
X46645Y-43212D01*
X46577Y-43048D01*
X46452Y-42923D01*
X46289Y-42855D01*
X46112Y-42855D01*
X45948Y-42923D01*
X45823Y-43048D01*
X45755Y-43211D01*
X45755Y-43388D01*
X45823Y-43552D01*
X45948Y-43677D01*
X46111Y-43745D01*
X46288Y-43745D01*
X46452Y-43677D01*
X46577Y-43552D01*
X46645Y-43389D01*
X46645Y-43988D01*
X46620Y-43928D01*
X46572Y-43880D01*
X46509Y-43854D01*
X46441Y-43854D01*
X45891Y-43854D01*
X45828Y-43880D01*
X45780Y-43928D01*
X45754Y-43991D01*
X45754Y-44059D01*
X45754Y-44609D01*
X45780Y-44672D01*
X45828Y-44720D01*
X45891Y-44746D01*
X45959Y-44746D01*
X46509Y-44746D01*
X46572Y-44720D01*
X46620Y-44672D01*
X46646Y-44609D01*
X46646Y-48354D01*
X44245Y-48354D01*
X44245Y-45069D01*
X44245Y-44932D01*
X44193Y-44805D01*
X44096Y-44708D01*
X43969Y-44655D01*
X43832Y-44655D01*
X43705Y-44707D01*
X43632Y-44780D01*
X39791Y-44780D01*
X39620Y-44608D01*
X39620Y-44168D01*
X39692Y-44096D01*
X39699Y-44077D01*
X39707Y-44095D01*
X39804Y-44192D01*
X39931Y-44245D01*
X40068Y-44245D01*
X40195Y-44193D01*
X40292Y-44096D01*
X40345Y-43969D01*
X40345Y-43832D01*
X40293Y-43705D01*
X40196Y-43608D01*
X40184Y-43603D01*
X40192Y-43596D01*
X40245Y-43469D01*
X40245Y-43332D01*
X40193Y-43205D01*
X40096Y-43108D01*
X39969Y-43055D01*
X39899Y-43055D01*
X39899Y-42125D01*
X39882Y-42041D01*
X39835Y-41969D01*
X39832Y-41967D01*
X39493Y-41627D01*
X39467Y-41587D01*
X39392Y-41538D01*
X39304Y-41520D01*
X37300Y-41520D01*
X37195Y-41520D01*
X37163Y-41487D01*
X37088Y-41438D01*
X37000Y-41419D01*
X36995Y-41420D01*
X36796Y-41420D01*
X36701Y-41324D01*
X36712Y-41314D01*
X36761Y-41239D01*
X36779Y-41151D01*
X36780Y-41151D01*
X36779Y-41146D01*
X36779Y-40749D01*
X36761Y-40661D01*
X36712Y-40586D01*
X36709Y-40584D01*
X36363Y-40237D01*
X36288Y-40188D01*
X36200Y-40169D01*
X36195Y-40170D01*
X35746Y-40170D01*
X35663Y-40087D01*
X35588Y-40038D01*
X35500Y-40019D01*
X35495Y-40020D01*
X35030Y-39554D01*
X35030Y-35394D01*
X35557Y-34866D01*
X35563Y-34863D01*
X35585Y-34839D01*
X35586Y-34838D01*
X35587Y-34838D01*
X35588Y-34838D01*
X35745Y-34680D01*
X36645Y-34680D01*
X36650Y-34681D01*
X36650Y-34680D01*
X36738Y-34662D01*
X36813Y-34613D01*
X37596Y-33830D01*
X38895Y-33830D01*
X38900Y-33831D01*
X38900Y-33830D01*
X38988Y-33812D01*
X39063Y-33763D01*
X39395Y-33430D01*
X39595Y-33430D01*
X39600Y-33431D01*
X39600Y-33430D01*
X39688Y-33412D01*
X39763Y-33363D01*
X39995Y-33130D01*
X40395Y-33130D01*
X40400Y-33131D01*
X40400Y-33130D01*
X40488Y-33112D01*
X40563Y-33063D01*
X40795Y-32830D01*
X41245Y-32830D01*
X41250Y-32831D01*
X41250Y-32830D01*
X41338Y-32812D01*
X41413Y-32763D01*
X41783Y-32391D01*
X41911Y-32445D01*
X42088Y-32445D01*
X42252Y-32377D01*
X42377Y-32252D01*
X42445Y-32089D01*
X42445Y-31912D01*
X42445Y-31089D01*
X42445Y-30912D01*
X42377Y-30748D01*
X42282Y-30653D01*
X42282Y-30325D01*
X42000Y-30042D01*
X41958Y-30084D01*
X41958Y-30000D01*
X41675Y-29718D01*
X41593Y-29742D01*
X41526Y-29917D01*
X41530Y-30105D01*
X41593Y-30258D01*
X41675Y-30282D01*
X41958Y-30000D01*
X41958Y-30084D01*
X41718Y-30325D01*
X41742Y-30407D01*
X41917Y-30474D01*
X42105Y-30470D01*
X42258Y-30407D01*
X42282Y-30325D01*
X42282Y-30653D01*
X42252Y-30623D01*
X42089Y-30555D01*
X41912Y-30555D01*
X41748Y-30623D01*
X41623Y-30748D01*
X41555Y-30911D01*
X41555Y-31088D01*
X41623Y-31252D01*
X41748Y-31377D01*
X41911Y-31445D01*
X42088Y-31445D01*
X42252Y-31377D01*
X42377Y-31252D01*
X42445Y-31089D01*
X42445Y-31912D01*
X42377Y-31748D01*
X42252Y-31623D01*
X42089Y-31555D01*
X41912Y-31555D01*
X41748Y-31623D01*
X41623Y-31748D01*
X41555Y-31911D01*
X41555Y-31969D01*
X41474Y-32050D01*
X41474Y-30083D01*
X41470Y-29895D01*
X41407Y-29742D01*
X41325Y-29718D01*
X41282Y-29760D01*
X41282Y-29675D01*
X41258Y-29593D01*
X41083Y-29526D01*
X40895Y-29530D01*
X40742Y-29593D01*
X40718Y-29675D01*
X41000Y-29958D01*
X41282Y-29675D01*
X41282Y-29760D01*
X41042Y-30000D01*
X41325Y-30282D01*
X41407Y-30258D01*
X41474Y-30083D01*
X41474Y-32050D01*
X41445Y-32079D01*
X41445Y-31912D01*
X41445Y-31089D01*
X41445Y-30912D01*
X41377Y-30748D01*
X41282Y-30653D01*
X41282Y-30325D01*
X41000Y-30042D01*
X40958Y-30084D01*
X40958Y-30000D01*
X40675Y-29718D01*
X40593Y-29742D01*
X40526Y-29917D01*
X40530Y-30105D01*
X40593Y-30258D01*
X40675Y-30282D01*
X40958Y-30000D01*
X40958Y-30084D01*
X40718Y-30325D01*
X40742Y-30407D01*
X40917Y-30474D01*
X41105Y-30470D01*
X41258Y-30407D01*
X41282Y-30325D01*
X41282Y-30653D01*
X41252Y-30623D01*
X41089Y-30555D01*
X40912Y-30555D01*
X40748Y-30623D01*
X40623Y-30748D01*
X40555Y-30911D01*
X40555Y-31088D01*
X40623Y-31252D01*
X40748Y-31377D01*
X40911Y-31445D01*
X41088Y-31445D01*
X41252Y-31377D01*
X41377Y-31252D01*
X41445Y-31089D01*
X41445Y-31912D01*
X41377Y-31748D01*
X41252Y-31623D01*
X41089Y-31555D01*
X40912Y-31555D01*
X40748Y-31623D01*
X40623Y-31748D01*
X40555Y-31911D01*
X40555Y-32019D01*
X40474Y-32100D01*
X40474Y-30083D01*
X40470Y-29895D01*
X40407Y-29742D01*
X40325Y-29718D01*
X40282Y-29760D01*
X40282Y-29675D01*
X40258Y-29593D01*
X40083Y-29526D01*
X39895Y-29530D01*
X39742Y-29593D01*
X39718Y-29675D01*
X40000Y-29958D01*
X40282Y-29675D01*
X40282Y-29760D01*
X40042Y-30000D01*
X40325Y-30282D01*
X40407Y-30258D01*
X40474Y-30083D01*
X40474Y-32100D01*
X40416Y-32158D01*
X40445Y-32089D01*
X40445Y-31912D01*
X40445Y-31089D01*
X40445Y-30912D01*
X40377Y-30748D01*
X40282Y-30653D01*
X40282Y-30325D01*
X40000Y-30042D01*
X39958Y-30084D01*
X39958Y-30000D01*
X39675Y-29718D01*
X39593Y-29742D01*
X39526Y-29917D01*
X39530Y-30105D01*
X39593Y-30258D01*
X39675Y-30282D01*
X39958Y-30000D01*
X39958Y-30084D01*
X39718Y-30325D01*
X39742Y-30407D01*
X39917Y-30474D01*
X40105Y-30470D01*
X40258Y-30407D01*
X40282Y-30325D01*
X40282Y-30653D01*
X40252Y-30623D01*
X40089Y-30555D01*
X39912Y-30555D01*
X39748Y-30623D01*
X39623Y-30748D01*
X39555Y-30911D01*
X39555Y-31088D01*
X39623Y-31252D01*
X39748Y-31377D01*
X39911Y-31445D01*
X40088Y-31445D01*
X40252Y-31377D01*
X40377Y-31252D01*
X40445Y-31089D01*
X40445Y-31912D01*
X40377Y-31748D01*
X40252Y-31623D01*
X40089Y-31555D01*
X39912Y-31555D01*
X39748Y-31623D01*
X39623Y-31748D01*
X39555Y-31911D01*
X39555Y-32088D01*
X39564Y-32110D01*
X39482Y-32192D01*
X39482Y-30316D01*
X39482Y-30234D01*
X39482Y-30081D01*
X39482Y-29919D01*
X39482Y-29766D01*
X39482Y-29684D01*
X39450Y-29608D01*
X39392Y-29549D01*
X39316Y-29518D01*
X39081Y-29518D01*
X39030Y-29569D01*
X39030Y-29970D01*
X39431Y-29970D01*
X39482Y-29919D01*
X39482Y-30081D01*
X39431Y-30030D01*
X39030Y-30030D01*
X39030Y-30431D01*
X39081Y-30482D01*
X39316Y-30482D01*
X39392Y-30451D01*
X39450Y-30392D01*
X39482Y-30316D01*
X39482Y-32192D01*
X39446Y-32228D01*
X39446Y-31691D01*
X39446Y-31309D01*
X39446Y-31241D01*
X39446Y-30691D01*
X39420Y-30628D01*
X39372Y-30580D01*
X39309Y-30554D01*
X39241Y-30554D01*
X38970Y-30554D01*
X38970Y-30431D01*
X38970Y-30030D01*
X38970Y-29970D01*
X38970Y-29569D01*
X38919Y-29518D01*
X38684Y-29518D01*
X38608Y-29549D01*
X38550Y-29608D01*
X38518Y-29684D01*
X38518Y-29766D01*
X38518Y-29919D01*
X38569Y-29970D01*
X38970Y-29970D01*
X38970Y-30030D01*
X38569Y-30030D01*
X38518Y-30081D01*
X38518Y-30234D01*
X38518Y-30316D01*
X38550Y-30392D01*
X38608Y-30451D01*
X38684Y-30482D01*
X38919Y-30482D01*
X38970Y-30431D01*
X38970Y-30554D01*
X38691Y-30554D01*
X38628Y-30580D01*
X38580Y-30628D01*
X38554Y-30691D01*
X38554Y-30759D01*
X38554Y-31309D01*
X38580Y-31372D01*
X38628Y-31420D01*
X38691Y-31446D01*
X38759Y-31446D01*
X39309Y-31446D01*
X39372Y-31420D01*
X39420Y-31372D01*
X39446Y-31309D01*
X39446Y-31691D01*
X39420Y-31628D01*
X39372Y-31580D01*
X39309Y-31554D01*
X39241Y-31554D01*
X38691Y-31554D01*
X38628Y-31580D01*
X38580Y-31628D01*
X38554Y-31691D01*
X38554Y-31759D01*
X38554Y-32120D01*
X38359Y-32315D01*
X38359Y-30672D01*
X38359Y-30330D01*
X38229Y-30014D01*
X37987Y-29772D01*
X37672Y-29641D01*
X37330Y-29641D01*
X37014Y-29771D01*
X36772Y-30013D01*
X36641Y-30328D01*
X36641Y-30670D01*
X36771Y-30986D01*
X37013Y-31228D01*
X37328Y-31359D01*
X37670Y-31359D01*
X37986Y-31229D01*
X38228Y-30987D01*
X38359Y-30672D01*
X38359Y-32315D01*
X38104Y-32570D01*
X37100Y-32570D01*
X37012Y-32588D01*
X36937Y-32637D01*
X36935Y-32639D01*
X36474Y-33100D01*
X36474Y-30083D01*
X36470Y-29895D01*
X36407Y-29742D01*
X36325Y-29718D01*
X36282Y-29760D01*
X36282Y-29675D01*
X36258Y-29593D01*
X36083Y-29526D01*
X35895Y-29530D01*
X35742Y-29593D01*
X35718Y-29675D01*
X36000Y-29958D01*
X36282Y-29675D01*
X36282Y-29760D01*
X36042Y-30000D01*
X36325Y-30282D01*
X36407Y-30258D01*
X36474Y-30083D01*
X36474Y-33100D01*
X36204Y-33370D01*
X35300Y-33370D01*
X35212Y-33388D01*
X35137Y-33437D01*
X35135Y-33439D01*
X34342Y-34231D01*
X34340Y-34233D01*
X34334Y-34237D01*
X34332Y-34239D01*
X34228Y-34343D01*
X34228Y-34002D01*
X34228Y-33497D01*
X34995Y-32730D01*
X35495Y-32730D01*
X35500Y-32731D01*
X35500Y-32730D01*
X35588Y-32712D01*
X35663Y-32663D01*
X35889Y-32436D01*
X35911Y-32445D01*
X36088Y-32445D01*
X36252Y-32377D01*
X36377Y-32252D01*
X36445Y-32089D01*
X36445Y-31912D01*
X36445Y-31089D01*
X36445Y-30912D01*
X36377Y-30748D01*
X36282Y-30653D01*
X36282Y-30325D01*
X36000Y-30042D01*
X35958Y-30084D01*
X35958Y-30000D01*
X35675Y-29718D01*
X35593Y-29742D01*
X35526Y-29917D01*
X35530Y-30105D01*
X35593Y-30258D01*
X35675Y-30282D01*
X35958Y-30000D01*
X35958Y-30084D01*
X35718Y-30325D01*
X35742Y-30407D01*
X35917Y-30474D01*
X36105Y-30470D01*
X36258Y-30407D01*
X36282Y-30325D01*
X36282Y-30653D01*
X36252Y-30623D01*
X36089Y-30555D01*
X35912Y-30555D01*
X35748Y-30623D01*
X35623Y-30748D01*
X35555Y-30911D01*
X35555Y-31088D01*
X35623Y-31252D01*
X35748Y-31377D01*
X35911Y-31445D01*
X36088Y-31445D01*
X36252Y-31377D01*
X36377Y-31252D01*
X36445Y-31089D01*
X36445Y-31912D01*
X36377Y-31748D01*
X36252Y-31623D01*
X36089Y-31555D01*
X35912Y-31555D01*
X35748Y-31623D01*
X35623Y-31748D01*
X35555Y-31911D01*
X35555Y-32088D01*
X35564Y-32109D01*
X35474Y-32199D01*
X35474Y-30083D01*
X35470Y-29895D01*
X35407Y-29742D01*
X35325Y-29718D01*
X35282Y-29760D01*
X35282Y-29675D01*
X35258Y-29593D01*
X35083Y-29526D01*
X34895Y-29530D01*
X34742Y-29593D01*
X34718Y-29675D01*
X35000Y-29958D01*
X35282Y-29675D01*
X35282Y-29760D01*
X35042Y-30000D01*
X35325Y-30282D01*
X35407Y-30258D01*
X35474Y-30083D01*
X35474Y-32199D01*
X35404Y-32270D01*
X35359Y-32270D01*
X35377Y-32252D01*
X35445Y-32089D01*
X35445Y-31912D01*
X35445Y-31089D01*
X35445Y-30912D01*
X35377Y-30748D01*
X35282Y-30653D01*
X35282Y-30325D01*
X35000Y-30042D01*
X34958Y-30084D01*
X34958Y-30000D01*
X34675Y-29718D01*
X34593Y-29742D01*
X34526Y-29917D01*
X34530Y-30105D01*
X34593Y-30258D01*
X34675Y-30282D01*
X34958Y-30000D01*
X34958Y-30084D01*
X34718Y-30325D01*
X34742Y-30407D01*
X34917Y-30474D01*
X35105Y-30470D01*
X35258Y-30407D01*
X35282Y-30325D01*
X35282Y-30653D01*
X35252Y-30623D01*
X35089Y-30555D01*
X34912Y-30555D01*
X34748Y-30623D01*
X34623Y-30748D01*
X34555Y-30911D01*
X34555Y-31088D01*
X34623Y-31252D01*
X34748Y-31377D01*
X34911Y-31445D01*
X35088Y-31445D01*
X35252Y-31377D01*
X35377Y-31252D01*
X35445Y-31089D01*
X35445Y-31912D01*
X35377Y-31748D01*
X35252Y-31623D01*
X35089Y-31555D01*
X34912Y-31555D01*
X34748Y-31623D01*
X34623Y-31748D01*
X34555Y-31911D01*
X34555Y-32088D01*
X34564Y-32109D01*
X34474Y-32199D01*
X34474Y-30083D01*
X34470Y-29895D01*
X34407Y-29742D01*
X34325Y-29718D01*
X34282Y-29760D01*
X34282Y-29675D01*
X34258Y-29593D01*
X34083Y-29526D01*
X33895Y-29530D01*
X33742Y-29593D01*
X33718Y-29675D01*
X34000Y-29958D01*
X34282Y-29675D01*
X34282Y-29760D01*
X34042Y-30000D01*
X34325Y-30282D01*
X34407Y-30258D01*
X34474Y-30083D01*
X34474Y-32199D01*
X33830Y-32844D01*
X33830Y-32495D01*
X33889Y-32436D01*
X33911Y-32445D01*
X34088Y-32445D01*
X34252Y-32377D01*
X34377Y-32252D01*
X34445Y-32089D01*
X34445Y-31912D01*
X34445Y-31089D01*
X34445Y-30912D01*
X34377Y-30748D01*
X34282Y-30653D01*
X34282Y-30325D01*
X34000Y-30042D01*
X33958Y-30084D01*
X33958Y-30000D01*
X33675Y-29718D01*
X33593Y-29742D01*
X33526Y-29917D01*
X33530Y-30105D01*
X33593Y-30258D01*
X33675Y-30282D01*
X33958Y-30000D01*
X33958Y-30084D01*
X33718Y-30325D01*
X33742Y-30407D01*
X33917Y-30474D01*
X34105Y-30470D01*
X34258Y-30407D01*
X34282Y-30325D01*
X34282Y-30653D01*
X34252Y-30623D01*
X34089Y-30555D01*
X33912Y-30555D01*
X33748Y-30623D01*
X33623Y-30748D01*
X33555Y-30911D01*
X33555Y-31088D01*
X33623Y-31252D01*
X33748Y-31377D01*
X33911Y-31445D01*
X34088Y-31445D01*
X34252Y-31377D01*
X34377Y-31252D01*
X34445Y-31089D01*
X34445Y-31912D01*
X34377Y-31748D01*
X34252Y-31623D01*
X34089Y-31555D01*
X33912Y-31555D01*
X33748Y-31623D01*
X33623Y-31748D01*
X33555Y-31911D01*
X33555Y-32088D01*
X33564Y-32110D01*
X33499Y-32174D01*
X33474Y-32149D01*
X33474Y-30083D01*
X33470Y-29895D01*
X33407Y-29742D01*
X33325Y-29718D01*
X33282Y-29760D01*
X33282Y-29675D01*
X33258Y-29593D01*
X33083Y-29526D01*
X32895Y-29530D01*
X32742Y-29593D01*
X32718Y-29675D01*
X33000Y-29958D01*
X33282Y-29675D01*
X33282Y-29760D01*
X33042Y-30000D01*
X33325Y-30282D01*
X33407Y-30258D01*
X33474Y-30083D01*
X33474Y-32149D01*
X33435Y-32110D01*
X33445Y-32089D01*
X33445Y-31912D01*
X33445Y-31089D01*
X33445Y-30912D01*
X33377Y-30748D01*
X33282Y-30653D01*
X33282Y-30325D01*
X33000Y-30042D01*
X32958Y-30084D01*
X32958Y-30000D01*
X32675Y-29718D01*
X32593Y-29742D01*
X32526Y-29917D01*
X32530Y-30105D01*
X32593Y-30258D01*
X32675Y-30282D01*
X32958Y-30000D01*
X32958Y-30084D01*
X32718Y-30325D01*
X32742Y-30407D01*
X32917Y-30474D01*
X33105Y-30470D01*
X33258Y-30407D01*
X33282Y-30325D01*
X33282Y-30653D01*
X33252Y-30623D01*
X33089Y-30555D01*
X32912Y-30555D01*
X32748Y-30623D01*
X32623Y-30748D01*
X32555Y-30911D01*
X32555Y-31088D01*
X32623Y-31252D01*
X32748Y-31377D01*
X32911Y-31445D01*
X33088Y-31445D01*
X33252Y-31377D01*
X33377Y-31252D01*
X33445Y-31089D01*
X33445Y-31912D01*
X33377Y-31748D01*
X33252Y-31623D01*
X33089Y-31555D01*
X32912Y-31555D01*
X32748Y-31623D01*
X32623Y-31748D01*
X32555Y-31911D01*
X32555Y-32088D01*
X32623Y-32252D01*
X32641Y-32270D01*
X32596Y-32270D01*
X32474Y-32148D01*
X32474Y-30083D01*
X32470Y-29895D01*
X32407Y-29742D01*
X32325Y-29718D01*
X32282Y-29760D01*
X32282Y-29675D01*
X32258Y-29593D01*
X32083Y-29526D01*
X31895Y-29530D01*
X31742Y-29593D01*
X31718Y-29675D01*
X32000Y-29958D01*
X32282Y-29675D01*
X32282Y-29760D01*
X32042Y-30000D01*
X32325Y-30282D01*
X32407Y-30258D01*
X32474Y-30083D01*
X32474Y-32148D01*
X32436Y-32110D01*
X32445Y-32089D01*
X32445Y-31912D01*
X32445Y-31089D01*
X32445Y-30912D01*
X32377Y-30748D01*
X32282Y-30653D01*
X32282Y-30325D01*
X32000Y-30042D01*
X31958Y-30084D01*
X31958Y-30000D01*
X31675Y-29718D01*
X31593Y-29742D01*
X31526Y-29917D01*
X31530Y-30105D01*
X31593Y-30258D01*
X31675Y-30282D01*
X31958Y-30000D01*
X31958Y-30084D01*
X31718Y-30325D01*
X31742Y-30407D01*
X31917Y-30474D01*
X32105Y-30470D01*
X32258Y-30407D01*
X32282Y-30325D01*
X32282Y-30653D01*
X32252Y-30623D01*
X32089Y-30555D01*
X31912Y-30555D01*
X31748Y-30623D01*
X31623Y-30748D01*
X31555Y-30911D01*
X31555Y-31088D01*
X31623Y-31252D01*
X31748Y-31377D01*
X31911Y-31445D01*
X32088Y-31445D01*
X32252Y-31377D01*
X32377Y-31252D01*
X32445Y-31089D01*
X32445Y-31912D01*
X32377Y-31748D01*
X32252Y-31623D01*
X32089Y-31555D01*
X31912Y-31555D01*
X31748Y-31623D01*
X31623Y-31748D01*
X31555Y-31911D01*
X31555Y-32088D01*
X31623Y-32252D01*
X31748Y-32377D01*
X31911Y-32445D01*
X32088Y-32445D01*
X32109Y-32435D01*
X32244Y-32570D01*
X31895Y-32570D01*
X31482Y-32156D01*
X31482Y-30316D01*
X31482Y-30234D01*
X31482Y-30081D01*
X31482Y-29919D01*
X31482Y-29766D01*
X31482Y-29684D01*
X31450Y-29608D01*
X31392Y-29549D01*
X31316Y-29518D01*
X31081Y-29518D01*
X31030Y-29569D01*
X31030Y-29970D01*
X31431Y-29970D01*
X31482Y-29919D01*
X31482Y-30081D01*
X31431Y-30030D01*
X31030Y-30030D01*
X31030Y-30431D01*
X31081Y-30482D01*
X31316Y-30482D01*
X31392Y-30451D01*
X31450Y-30392D01*
X31482Y-30316D01*
X31482Y-32156D01*
X31446Y-32120D01*
X31446Y-31691D01*
X31446Y-31309D01*
X31446Y-31241D01*
X31446Y-30691D01*
X31420Y-30628D01*
X31372Y-30580D01*
X31309Y-30554D01*
X31241Y-30554D01*
X30970Y-30554D01*
X30970Y-30431D01*
X30970Y-30030D01*
X30970Y-29970D01*
X30970Y-29569D01*
X30919Y-29518D01*
X30684Y-29518D01*
X30608Y-29549D01*
X30550Y-29608D01*
X30518Y-29684D01*
X30518Y-29766D01*
X30518Y-29919D01*
X30569Y-29970D01*
X30970Y-29970D01*
X30970Y-30030D01*
X30569Y-30030D01*
X30518Y-30081D01*
X30518Y-30234D01*
X30518Y-30316D01*
X30550Y-30392D01*
X30608Y-30451D01*
X30684Y-30482D01*
X30919Y-30482D01*
X30970Y-30431D01*
X30970Y-30554D01*
X30691Y-30554D01*
X30628Y-30580D01*
X30580Y-30628D01*
X30554Y-30691D01*
X30554Y-30759D01*
X30554Y-31309D01*
X30580Y-31372D01*
X30628Y-31420D01*
X30691Y-31446D01*
X30759Y-31446D01*
X31309Y-31446D01*
X31372Y-31420D01*
X31420Y-31372D01*
X31446Y-31309D01*
X31446Y-31691D01*
X31420Y-31628D01*
X31372Y-31580D01*
X31309Y-31554D01*
X31241Y-31554D01*
X30691Y-31554D01*
X30628Y-31580D01*
X30580Y-31628D01*
X30554Y-31691D01*
X30554Y-31759D01*
X30554Y-32309D01*
X30580Y-32372D01*
X30628Y-32420D01*
X30691Y-32446D01*
X30759Y-32446D01*
X31120Y-32446D01*
X31635Y-32960D01*
X31637Y-32963D01*
X31712Y-33012D01*
X31800Y-33030D01*
X32604Y-33030D01*
X32770Y-33195D01*
X32770Y-35000D01*
X32770Y-40282D01*
X32696Y-40208D01*
X32640Y-40184D01*
X32640Y-35341D01*
X32640Y-35081D01*
X32640Y-34919D01*
X32640Y-34659D01*
X32609Y-34583D01*
X32550Y-34525D01*
X32474Y-34493D01*
X32392Y-34493D01*
X32081Y-34493D01*
X32030Y-34544D01*
X32030Y-34970D01*
X32589Y-34970D01*
X32640Y-34919D01*
X32640Y-35081D01*
X32589Y-35030D01*
X32030Y-35030D01*
X32030Y-35456D01*
X32081Y-35507D01*
X32392Y-35507D01*
X32474Y-35507D01*
X32550Y-35475D01*
X32609Y-35417D01*
X32640Y-35341D01*
X32640Y-40184D01*
X32606Y-40170D01*
X32606Y-37093D01*
X32606Y-36909D01*
X32606Y-36093D01*
X32606Y-35909D01*
X32536Y-35739D01*
X32406Y-35609D01*
X32237Y-35538D01*
X32053Y-35538D01*
X31970Y-35538D01*
X31970Y-35456D01*
X31970Y-35030D01*
X31970Y-34970D01*
X31970Y-34544D01*
X31919Y-34493D01*
X31608Y-34493D01*
X31526Y-34493D01*
X31450Y-34525D01*
X31391Y-34583D01*
X31360Y-34659D01*
X31360Y-34919D01*
X31411Y-34970D01*
X31970Y-34970D01*
X31970Y-35030D01*
X31411Y-35030D01*
X31360Y-35081D01*
X31360Y-35341D01*
X31391Y-35417D01*
X31450Y-35475D01*
X31526Y-35507D01*
X31608Y-35507D01*
X31919Y-35507D01*
X31970Y-35456D01*
X31970Y-35538D01*
X31765Y-35538D01*
X31595Y-35608D01*
X31512Y-35691D01*
X30300Y-35691D01*
X30182Y-35715D01*
X30081Y-35782D01*
X29482Y-36382D01*
X29415Y-36482D01*
X29391Y-36600D01*
X29391Y-36700D01*
X29391Y-39900D01*
X29415Y-40018D01*
X29465Y-40092D01*
X29507Y-40195D01*
X29604Y-40292D01*
X29731Y-40345D01*
X29868Y-40345D01*
X29995Y-40293D01*
X30092Y-40196D01*
X30145Y-40069D01*
X30145Y-39932D01*
X30093Y-39805D01*
X30009Y-39721D01*
X30009Y-36727D01*
X30427Y-36309D01*
X31512Y-36309D01*
X31594Y-36391D01*
X31763Y-36462D01*
X31947Y-36462D01*
X32235Y-36462D01*
X32405Y-36392D01*
X32535Y-36262D01*
X32606Y-36093D01*
X32606Y-36909D01*
X32536Y-36739D01*
X32406Y-36609D01*
X32237Y-36538D01*
X32053Y-36538D01*
X31765Y-36538D01*
X31595Y-36608D01*
X31465Y-36738D01*
X31394Y-36907D01*
X31394Y-37091D01*
X31464Y-37261D01*
X31594Y-37391D01*
X31763Y-37462D01*
X31947Y-37462D01*
X32235Y-37462D01*
X32405Y-37392D01*
X32535Y-37262D01*
X32606Y-37093D01*
X32606Y-40170D01*
X32569Y-40155D01*
X32432Y-40155D01*
X32305Y-40207D01*
X32208Y-40304D01*
X32155Y-40431D01*
X32155Y-40568D01*
X32207Y-40695D01*
X32304Y-40792D01*
X32431Y-40845D01*
X32568Y-40845D01*
X32685Y-40797D01*
X33396Y-41508D01*
X33269Y-41455D01*
X33132Y-41455D01*
X33005Y-41507D01*
X32908Y-41604D01*
X32855Y-41731D01*
X32855Y-41868D01*
X32907Y-41995D01*
X32960Y-42048D01*
X32960Y-44855D01*
X32932Y-44855D01*
X32805Y-44907D01*
X32708Y-45004D01*
X32655Y-45131D01*
X32655Y-45268D01*
X32707Y-45395D01*
X32804Y-45492D01*
X32931Y-45545D01*
X33068Y-45545D01*
X33195Y-45493D01*
X33225Y-45463D01*
X33304Y-45542D01*
X33431Y-45595D01*
X33568Y-45595D01*
X33695Y-45543D01*
X33792Y-45446D01*
X33845Y-45319D01*
X33845Y-45182D01*
X33793Y-45055D01*
X33720Y-44982D01*
X33720Y-43094D01*
X33845Y-43043D01*
X33942Y-42946D01*
X33995Y-42819D01*
X33995Y-42682D01*
X33943Y-42555D01*
X33846Y-42458D01*
X33719Y-42405D01*
X33582Y-42405D01*
X33455Y-42457D01*
X33440Y-42472D01*
X33440Y-42048D01*
X33492Y-41996D01*
X33545Y-41869D01*
X33545Y-41732D01*
X33493Y-41605D01*
X34400Y-42511D01*
X34358Y-42554D01*
X34305Y-42681D01*
X34305Y-42818D01*
X34357Y-42945D01*
X34454Y-43042D01*
X34581Y-43095D01*
X34718Y-43095D01*
X34780Y-43069D01*
X34780Y-45182D01*
X34708Y-45254D01*
X34655Y-45381D01*
X34655Y-45518D01*
X34707Y-45645D01*
X34804Y-45742D01*
X34931Y-45795D01*
X35068Y-45795D01*
X35195Y-45743D01*
X35282Y-45655D01*
X35287Y-45663D01*
X35485Y-45860D01*
X35487Y-45863D01*
X35562Y-45912D01*
X35649Y-45930D01*
X35649Y-45929D01*
X35650Y-45930D01*
X37500Y-45930D01*
X41142Y-45930D01*
X41204Y-45992D01*
X41331Y-46045D01*
X41468Y-46045D01*
X41595Y-45993D01*
X41692Y-45896D01*
X41745Y-45769D01*
X41745Y-45632D01*
X41693Y-45505D01*
X41596Y-45408D01*
X41469Y-45355D01*
X41332Y-45355D01*
X41205Y-45407D01*
X41142Y-45470D01*
X37500Y-45470D01*
X35745Y-45470D01*
X35680Y-45404D01*
X35680Y-45100D01*
X35662Y-45012D01*
X35613Y-44937D01*
X35610Y-44935D01*
X35430Y-44754D01*
X35430Y-42619D01*
X35431Y-42619D01*
X35504Y-42692D01*
X35631Y-42745D01*
X35768Y-42745D01*
X35895Y-42693D01*
X35992Y-42596D01*
X36000Y-42575D01*
X36055Y-42630D01*
X36055Y-42631D01*
X36055Y-42768D01*
X36107Y-42895D01*
X36204Y-42992D01*
X36331Y-43045D01*
X36468Y-43045D01*
X36595Y-42993D01*
X36692Y-42896D01*
X36715Y-42838D01*
X36731Y-42845D01*
X36868Y-42845D01*
X36995Y-42793D01*
X37092Y-42696D01*
X37145Y-42569D01*
X37145Y-42530D01*
X37200Y-42530D01*
X38842Y-42530D01*
X38904Y-42592D01*
X39031Y-42645D01*
X39168Y-42645D01*
X39220Y-42623D01*
X39220Y-43495D01*
X39219Y-43500D01*
X39238Y-43588D01*
X39240Y-43592D01*
X39205Y-43607D01*
X39108Y-43704D01*
X39055Y-43831D01*
X39055Y-43968D01*
X39107Y-44095D01*
X39180Y-44168D01*
X39180Y-44695D01*
X39179Y-44700D01*
X39197Y-44784D01*
X39244Y-44856D01*
X39542Y-45153D01*
X39544Y-45156D01*
X39616Y-45203D01*
X39700Y-45220D01*
X43632Y-45220D01*
X43704Y-45292D01*
X43831Y-45345D01*
X43968Y-45345D01*
X44095Y-45293D01*
X44192Y-45196D01*
X44245Y-45069D01*
X44245Y-48354D01*
X31674Y-48354D01*
X31674Y-45683D01*
X31670Y-45495D01*
X31607Y-45342D01*
X31525Y-45318D01*
X31482Y-45360D01*
X31482Y-45275D01*
X31458Y-45193D01*
X31283Y-45126D01*
X31095Y-45130D01*
X30942Y-45193D01*
X30918Y-45275D01*
X31200Y-45558D01*
X31482Y-45275D01*
X31482Y-45360D01*
X31242Y-45600D01*
X31525Y-45882D01*
X31607Y-45858D01*
X31674Y-45683D01*
X31674Y-48354D01*
X31482Y-48354D01*
X31482Y-45925D01*
X31200Y-45642D01*
X31158Y-45684D01*
X31158Y-45600D01*
X30875Y-45318D01*
X30793Y-45342D01*
X30726Y-45517D01*
X30730Y-45705D01*
X30793Y-45858D01*
X30875Y-45882D01*
X31158Y-45600D01*
X31158Y-45684D01*
X30918Y-45925D01*
X30942Y-46007D01*
X31117Y-46074D01*
X31305Y-46070D01*
X31458Y-46007D01*
X31482Y-45925D01*
X31482Y-48354D01*
X30645Y-48354D01*
X30645Y-45689D01*
X30645Y-45512D01*
X30577Y-45348D01*
X30452Y-45223D01*
X30289Y-45155D01*
X30112Y-45155D01*
X29948Y-45223D01*
X29823Y-45348D01*
X29755Y-45511D01*
X29755Y-45688D01*
X29823Y-45852D01*
X29948Y-45977D01*
X30111Y-46045D01*
X30288Y-46045D01*
X30452Y-45977D01*
X30577Y-45852D01*
X30645Y-45689D01*
X30645Y-48354D01*
X29645Y-48354D01*
X29645Y-45689D01*
X29645Y-45512D01*
X29577Y-45348D01*
X29452Y-45223D01*
X29289Y-45155D01*
X29112Y-45155D01*
X28948Y-45223D01*
X28823Y-45348D01*
X28755Y-45511D01*
X28755Y-45688D01*
X28823Y-45852D01*
X28948Y-45977D01*
X29111Y-46045D01*
X29288Y-46045D01*
X29452Y-45977D01*
X29577Y-45852D01*
X29645Y-45689D01*
X29645Y-48354D01*
X27946Y-48354D01*
X27946Y-46046D01*
X27959Y-46046D01*
X28509Y-46046D01*
X28572Y-46020D01*
X28620Y-45972D01*
X28646Y-45909D01*
X28646Y-45841D01*
X28646Y-45291D01*
X28620Y-45228D01*
X28572Y-45180D01*
X28509Y-45154D01*
X28441Y-45154D01*
X27946Y-45154D01*
X27946Y-29246D01*
X47054Y-29246D01*
X47054Y-48354D01*
X47054Y-48354D01*
G37*
G54D22*
X47054Y-48354D02*
X46945Y-48354D01*
X46945Y-38069D01*
X46945Y-37932D01*
X46893Y-37805D01*
X46796Y-37708D01*
X46669Y-37655D01*
X46532Y-37655D01*
X46405Y-37707D01*
X46332Y-37780D01*
X45445Y-37780D01*
X45445Y-30089D01*
X45445Y-29912D01*
X45377Y-29748D01*
X45252Y-29623D01*
X45089Y-29555D01*
X44912Y-29555D01*
X44748Y-29623D01*
X44623Y-29748D01*
X44555Y-29911D01*
X44555Y-30088D01*
X44623Y-30252D01*
X44748Y-30377D01*
X44911Y-30445D01*
X45088Y-30445D01*
X45252Y-30377D01*
X45377Y-30252D01*
X45445Y-30089D01*
X45445Y-37780D01*
X45345Y-37780D01*
X45345Y-33319D01*
X45345Y-33182D01*
X45293Y-33055D01*
X45196Y-32958D01*
X45069Y-32905D01*
X44932Y-32905D01*
X44805Y-32957D01*
X44708Y-33054D01*
X44655Y-33181D01*
X44655Y-33318D01*
X44707Y-33445D01*
X44770Y-33508D01*
X44770Y-33604D01*
X44474Y-33900D01*
X44474Y-30083D01*
X44470Y-29895D01*
X44407Y-29742D01*
X44325Y-29718D01*
X44282Y-29760D01*
X44282Y-29675D01*
X44258Y-29593D01*
X44083Y-29526D01*
X43895Y-29530D01*
X43742Y-29593D01*
X43718Y-29675D01*
X44000Y-29958D01*
X44282Y-29675D01*
X44282Y-29760D01*
X44042Y-30000D01*
X44325Y-30282D01*
X44407Y-30258D01*
X44474Y-30083D01*
X44474Y-33900D01*
X44404Y-33970D01*
X44282Y-33970D01*
X44282Y-30325D01*
X44000Y-30042D01*
X43958Y-30084D01*
X43958Y-30000D01*
X43675Y-29718D01*
X43593Y-29742D01*
X43526Y-29917D01*
X43530Y-30105D01*
X43593Y-30258D01*
X43675Y-30282D01*
X43958Y-30000D01*
X43958Y-30084D01*
X43718Y-30325D01*
X43742Y-30407D01*
X43917Y-30474D01*
X44105Y-30470D01*
X44258Y-30407D01*
X44282Y-30325D01*
X44282Y-33970D01*
X43446Y-33970D01*
X43446Y-30309D01*
X43446Y-30241D01*
X43446Y-29691D01*
X43420Y-29628D01*
X43372Y-29580D01*
X43309Y-29554D01*
X43241Y-29554D01*
X42691Y-29554D01*
X42628Y-29580D01*
X42580Y-29628D01*
X42554Y-29691D01*
X42554Y-29759D01*
X42554Y-30309D01*
X42580Y-30372D01*
X42628Y-30420D01*
X42691Y-30446D01*
X42759Y-30446D01*
X43309Y-30446D01*
X43372Y-30420D01*
X43420Y-30372D01*
X43446Y-30309D01*
X43446Y-33970D01*
X42055Y-33970D01*
X42310Y-33714D01*
X42312Y-33713D01*
X42313Y-33713D01*
X42362Y-33638D01*
X42380Y-33550D01*
X42380Y-33258D01*
X42442Y-33196D01*
X42495Y-33069D01*
X42495Y-32932D01*
X42474Y-32880D01*
X42474Y-30083D01*
X42470Y-29895D01*
X42407Y-29742D01*
X42325Y-29718D01*
X42282Y-29760D01*
X42282Y-29675D01*
X42258Y-29593D01*
X42083Y-29526D01*
X41895Y-29530D01*
X41742Y-29593D01*
X41718Y-29675D01*
X42000Y-29958D01*
X42282Y-29675D01*
X42282Y-29760D01*
X42042Y-30000D01*
X42325Y-30282D01*
X42407Y-30258D01*
X42474Y-30083D01*
X42474Y-32880D01*
X42443Y-32805D01*
X42346Y-32708D01*
X42219Y-32655D01*
X42082Y-32655D01*
X41955Y-32707D01*
X41858Y-32804D01*
X41805Y-32931D01*
X41805Y-33068D01*
X41857Y-33195D01*
X41920Y-33258D01*
X41920Y-33454D01*
X41604Y-33770D01*
X40418Y-33770D01*
X40330Y-33788D01*
X40255Y-33837D01*
X39738Y-34354D01*
X39689Y-34429D01*
X39670Y-34517D01*
X39671Y-34521D01*
X39671Y-40678D01*
X39670Y-40683D01*
X39689Y-40771D01*
X39738Y-40846D01*
X40170Y-41277D01*
X40170Y-41792D01*
X40108Y-41854D01*
X40055Y-41981D01*
X40055Y-42118D01*
X40107Y-42245D01*
X40204Y-42342D01*
X40331Y-42395D01*
X40468Y-42395D01*
X40570Y-42353D01*
X40570Y-43294D01*
X40570Y-43295D01*
X40555Y-43331D01*
X40555Y-43468D01*
X40607Y-43595D01*
X40704Y-43692D01*
X40831Y-43745D01*
X40968Y-43745D01*
X41095Y-43693D01*
X41192Y-43596D01*
X41219Y-43530D01*
X42242Y-44553D01*
X42244Y-44556D01*
X42315Y-44602D01*
X42316Y-44603D01*
X42382Y-44616D01*
X42399Y-44620D01*
X42399Y-44619D01*
X42400Y-44620D01*
X44208Y-44620D01*
X44555Y-44966D01*
X44555Y-45068D01*
X44607Y-45195D01*
X44704Y-45292D01*
X44831Y-45345D01*
X44968Y-45345D01*
X45095Y-45293D01*
X45192Y-45196D01*
X45245Y-45069D01*
X45245Y-44932D01*
X45193Y-44805D01*
X45096Y-44708D01*
X44969Y-44655D01*
X44866Y-44655D01*
X44456Y-44244D01*
X44384Y-44197D01*
X44300Y-44179D01*
X44295Y-44180D01*
X42491Y-44180D01*
X41220Y-42908D01*
X41220Y-41000D01*
X41203Y-40916D01*
X41202Y-40915D01*
X41156Y-40844D01*
X41153Y-40842D01*
X40945Y-40633D01*
X40945Y-40532D01*
X40893Y-40405D01*
X40796Y-40308D01*
X40669Y-40255D01*
X40532Y-40255D01*
X40405Y-40307D01*
X40330Y-40382D01*
X40330Y-34695D01*
X40595Y-34430D01*
X44495Y-34430D01*
X44500Y-34431D01*
X44500Y-34430D01*
X44588Y-34412D01*
X44663Y-34363D01*
X45163Y-33863D01*
X45212Y-33788D01*
X45230Y-33700D01*
X45230Y-33508D01*
X45292Y-33446D01*
X45345Y-33319D01*
X45345Y-37780D01*
X44968Y-37780D01*
X44896Y-37708D01*
X44769Y-37655D01*
X44632Y-37655D01*
X44505Y-37707D01*
X44408Y-37804D01*
X44355Y-37931D01*
X44355Y-38068D01*
X44407Y-38195D01*
X44504Y-38292D01*
X44631Y-38345D01*
X44768Y-38345D01*
X44895Y-38293D01*
X44968Y-38220D01*
X46332Y-38220D01*
X46404Y-38292D01*
X46531Y-38345D01*
X46668Y-38345D01*
X46795Y-38293D01*
X46892Y-38196D01*
X46945Y-38069D01*
X46945Y-48354D01*
X46674Y-48354D01*
X46674Y-40383D01*
X46670Y-40195D01*
X46607Y-40042D01*
X46525Y-40018D01*
X46482Y-40060D01*
X46482Y-39975D01*
X46458Y-39893D01*
X46283Y-39826D01*
X46095Y-39830D01*
X46045Y-39850D01*
X46045Y-38769D01*
X46045Y-38632D01*
X45993Y-38505D01*
X45896Y-38408D01*
X45769Y-38355D01*
X45632Y-38355D01*
X45505Y-38407D01*
X45432Y-38480D01*
X44168Y-38480D01*
X44096Y-38408D01*
X43969Y-38355D01*
X43832Y-38355D01*
X43705Y-38407D01*
X43628Y-38484D01*
X43628Y-35109D01*
X43628Y-34891D01*
X43615Y-34839D01*
X43517Y-34667D01*
X43360Y-34545D01*
X43169Y-34493D01*
X43030Y-34493D01*
X43030Y-34970D01*
X43588Y-34970D01*
X43628Y-34891D01*
X43628Y-35109D01*
X43588Y-35030D01*
X43030Y-35030D01*
X43030Y-35507D01*
X43169Y-35507D01*
X43360Y-35455D01*
X43517Y-35333D01*
X43615Y-35161D01*
X43628Y-35109D01*
X43628Y-38484D01*
X43608Y-38504D01*
X43606Y-38508D01*
X43606Y-36093D01*
X43606Y-35909D01*
X43536Y-35739D01*
X43406Y-35609D01*
X43237Y-35538D01*
X43053Y-35538D01*
X42970Y-35538D01*
X42970Y-35507D01*
X42970Y-35030D01*
X42970Y-34970D01*
X42970Y-34493D01*
X42831Y-34493D01*
X42640Y-34545D01*
X42483Y-34667D01*
X42385Y-34839D01*
X42372Y-34891D01*
X42412Y-34970D01*
X42970Y-34970D01*
X42970Y-35030D01*
X42412Y-35030D01*
X42372Y-35109D01*
X42385Y-35161D01*
X42483Y-35333D01*
X42640Y-35455D01*
X42831Y-35507D01*
X42970Y-35507D01*
X42970Y-35538D01*
X42765Y-35538D01*
X42595Y-35608D01*
X42465Y-35738D01*
X42394Y-35907D01*
X42394Y-36091D01*
X42464Y-36261D01*
X42594Y-36391D01*
X42763Y-36462D01*
X42947Y-36462D01*
X43235Y-36462D01*
X43405Y-36392D01*
X43535Y-36262D01*
X43606Y-36093D01*
X43606Y-38508D01*
X43604Y-38513D01*
X43604Y-37334D01*
X43604Y-37266D01*
X43604Y-36666D01*
X43578Y-36603D01*
X43530Y-36555D01*
X43467Y-36529D01*
X43399Y-36529D01*
X42533Y-36529D01*
X42470Y-36555D01*
X42422Y-36603D01*
X42396Y-36666D01*
X42396Y-36734D01*
X42396Y-37334D01*
X42422Y-37397D01*
X42470Y-37445D01*
X42533Y-37471D01*
X42601Y-37471D01*
X43467Y-37471D01*
X43530Y-37445D01*
X43578Y-37397D01*
X43604Y-37334D01*
X43604Y-38513D01*
X43555Y-38631D01*
X43555Y-38768D01*
X43607Y-38895D01*
X43704Y-38992D01*
X43831Y-39045D01*
X43968Y-39045D01*
X44095Y-38993D01*
X44168Y-38920D01*
X45432Y-38920D01*
X45504Y-38992D01*
X45631Y-39045D01*
X45768Y-39045D01*
X45895Y-38993D01*
X45992Y-38896D01*
X46045Y-38769D01*
X46045Y-39850D01*
X45942Y-39893D01*
X45918Y-39975D01*
X46200Y-40258D01*
X46482Y-39975D01*
X46482Y-40060D01*
X46242Y-40300D01*
X46525Y-40582D01*
X46607Y-40558D01*
X46674Y-40383D01*
X46674Y-48354D01*
X46646Y-48354D01*
X46646Y-44609D01*
X46646Y-44541D01*
X46646Y-43991D01*
X46645Y-43988D01*
X46645Y-43389D01*
X46645Y-43212D01*
X46645Y-42389D01*
X46645Y-42212D01*
X46645Y-41389D01*
X46645Y-41212D01*
X46577Y-41048D01*
X46482Y-40953D01*
X46482Y-40625D01*
X46200Y-40342D01*
X46158Y-40384D01*
X46158Y-40300D01*
X45875Y-40018D01*
X45793Y-40042D01*
X45745Y-40167D01*
X45745Y-39769D01*
X45745Y-39632D01*
X45693Y-39505D01*
X45596Y-39408D01*
X45492Y-39364D01*
X45418Y-39315D01*
X45300Y-39291D01*
X43355Y-39291D01*
X43269Y-39255D01*
X43132Y-39255D01*
X43005Y-39307D01*
X42908Y-39404D01*
X42855Y-39531D01*
X42855Y-39668D01*
X42907Y-39795D01*
X43004Y-39892D01*
X43131Y-39945D01*
X43268Y-39945D01*
X43355Y-39909D01*
X45121Y-39909D01*
X45204Y-39992D01*
X45331Y-40045D01*
X45468Y-40045D01*
X45595Y-39993D01*
X45692Y-39896D01*
X45745Y-39769D01*
X45745Y-40167D01*
X45726Y-40217D01*
X45730Y-40405D01*
X45793Y-40558D01*
X45875Y-40582D01*
X46158Y-40300D01*
X46158Y-40384D01*
X45918Y-40625D01*
X45942Y-40707D01*
X46117Y-40774D01*
X46305Y-40770D01*
X46458Y-40707D01*
X46482Y-40625D01*
X46482Y-40953D01*
X46452Y-40923D01*
X46289Y-40855D01*
X46112Y-40855D01*
X45948Y-40923D01*
X45823Y-41048D01*
X45809Y-41080D01*
X44091Y-41080D01*
X43056Y-40044D01*
X42984Y-39997D01*
X42900Y-39979D01*
X42895Y-39980D01*
X42068Y-39980D01*
X41996Y-39908D01*
X41869Y-39855D01*
X41732Y-39855D01*
X41605Y-39907D01*
X41508Y-40004D01*
X41455Y-40131D01*
X41455Y-40268D01*
X41507Y-40395D01*
X41604Y-40492D01*
X41731Y-40545D01*
X41868Y-40545D01*
X41995Y-40493D01*
X42068Y-40420D01*
X42808Y-40420D01*
X43842Y-41453D01*
X43844Y-41456D01*
X43915Y-41502D01*
X43916Y-41503D01*
X44000Y-41520D01*
X45809Y-41520D01*
X45823Y-41552D01*
X45948Y-41677D01*
X46111Y-41745D01*
X46288Y-41745D01*
X46452Y-41677D01*
X46577Y-41552D01*
X46645Y-41389D01*
X46645Y-42212D01*
X46577Y-42048D01*
X46452Y-41923D01*
X46289Y-41855D01*
X46112Y-41855D01*
X45948Y-41923D01*
X45823Y-42048D01*
X45755Y-42211D01*
X45755Y-42388D01*
X45823Y-42552D01*
X45948Y-42677D01*
X46111Y-42745D01*
X46288Y-42745D01*
X46452Y-42677D01*
X46577Y-42552D01*
X46645Y-42389D01*
X46645Y-43212D01*
X46577Y-43048D01*
X46452Y-42923D01*
X46289Y-42855D01*
X46112Y-42855D01*
X45948Y-42923D01*
X45823Y-43048D01*
X45755Y-43211D01*
X45755Y-43388D01*
X45823Y-43552D01*
X45948Y-43677D01*
X46111Y-43745D01*
X46288Y-43745D01*
X46452Y-43677D01*
X46577Y-43552D01*
X46645Y-43389D01*
X46645Y-43988D01*
X46620Y-43928D01*
X46572Y-43880D01*
X46509Y-43854D01*
X46441Y-43854D01*
X45891Y-43854D01*
X45828Y-43880D01*
X45780Y-43928D01*
X45754Y-43991D01*
X45754Y-44059D01*
X45754Y-44609D01*
X45780Y-44672D01*
X45828Y-44720D01*
X45891Y-44746D01*
X45959Y-44746D01*
X46509Y-44746D01*
X46572Y-44720D01*
X46620Y-44672D01*
X46646Y-44609D01*
X46646Y-48354D01*
X44245Y-48354D01*
X44245Y-45069D01*
X44245Y-44932D01*
X44193Y-44805D01*
X44096Y-44708D01*
X43969Y-44655D01*
X43832Y-44655D01*
X43705Y-44707D01*
X43632Y-44780D01*
X39791Y-44780D01*
X39620Y-44608D01*
X39620Y-44168D01*
X39692Y-44096D01*
X39699Y-44077D01*
X39707Y-44095D01*
X39804Y-44192D01*
X39931Y-44245D01*
X40068Y-44245D01*
X40195Y-44193D01*
X40292Y-44096D01*
X40345Y-43969D01*
X40345Y-43832D01*
X40293Y-43705D01*
X40196Y-43608D01*
X40184Y-43603D01*
X40192Y-43596D01*
X40245Y-43469D01*
X40245Y-43332D01*
X40193Y-43205D01*
X40096Y-43108D01*
X39969Y-43055D01*
X39899Y-43055D01*
X39899Y-42125D01*
X39882Y-42041D01*
X39835Y-41969D01*
X39832Y-41967D01*
X39493Y-41627D01*
X39467Y-41587D01*
X39392Y-41538D01*
X39304Y-41520D01*
X37300Y-41520D01*
X37195Y-41520D01*
X37163Y-41487D01*
X37088Y-41438D01*
X37000Y-41419D01*
X36995Y-41420D01*
X36796Y-41420D01*
X36701Y-41324D01*
X36712Y-41314D01*
X36761Y-41239D01*
X36779Y-41151D01*
X36780Y-41151D01*
X36779Y-41146D01*
X36779Y-40749D01*
X36761Y-40661D01*
X36712Y-40586D01*
X36709Y-40584D01*
X36363Y-40237D01*
X36288Y-40188D01*
X36200Y-40169D01*
X36195Y-40170D01*
X35746Y-40170D01*
X35663Y-40087D01*
X35588Y-40038D01*
X35500Y-40019D01*
X35495Y-40020D01*
X35030Y-39554D01*
X35030Y-35394D01*
X35557Y-34866D01*
X35563Y-34863D01*
X35585Y-34839D01*
X35586Y-34838D01*
X35587Y-34838D01*
X35588Y-34838D01*
X35745Y-34680D01*
X36645Y-34680D01*
X36650Y-34681D01*
X36650Y-34680D01*
X36738Y-34662D01*
X36813Y-34613D01*
X37596Y-33830D01*
X38895Y-33830D01*
X38900Y-33831D01*
X38900Y-33830D01*
X38988Y-33812D01*
X39063Y-33763D01*
X39395Y-33430D01*
X39595Y-33430D01*
X39600Y-33431D01*
X39600Y-33430D01*
X39688Y-33412D01*
X39763Y-33363D01*
X39995Y-33130D01*
X40395Y-33130D01*
X40400Y-33131D01*
X40400Y-33130D01*
X40488Y-33112D01*
X40563Y-33063D01*
X40795Y-32830D01*
X41245Y-32830D01*
X41250Y-32831D01*
X41250Y-32830D01*
X41338Y-32812D01*
X41413Y-32763D01*
X41783Y-32391D01*
X41911Y-32445D01*
X42088Y-32445D01*
X42252Y-32377D01*
X42377Y-32252D01*
X42445Y-32089D01*
X42445Y-31912D01*
X42445Y-31089D01*
X42445Y-30912D01*
X42377Y-30748D01*
X42282Y-30653D01*
X42282Y-30325D01*
X42000Y-30042D01*
X41958Y-30084D01*
X41958Y-30000D01*
X41675Y-29718D01*
X41593Y-29742D01*
X41526Y-29917D01*
X41530Y-30105D01*
X41593Y-30258D01*
X41675Y-30282D01*
X41958Y-30000D01*
X41958Y-30084D01*
X41718Y-30325D01*
X41742Y-30407D01*
X41917Y-30474D01*
X42105Y-30470D01*
X42258Y-30407D01*
X42282Y-30325D01*
X42282Y-30653D01*
X42252Y-30623D01*
X42089Y-30555D01*
X41912Y-30555D01*
X41748Y-30623D01*
X41623Y-30748D01*
X41555Y-30911D01*
X41555Y-31088D01*
X41623Y-31252D01*
X41748Y-31377D01*
X41911Y-31445D01*
X42088Y-31445D01*
X42252Y-31377D01*
X42377Y-31252D01*
X42445Y-31089D01*
X42445Y-31912D01*
X42377Y-31748D01*
X42252Y-31623D01*
X42089Y-31555D01*
X41912Y-31555D01*
X41748Y-31623D01*
X41623Y-31748D01*
X41555Y-31911D01*
X41555Y-31969D01*
X41474Y-32050D01*
X41474Y-30083D01*
X41470Y-29895D01*
X41407Y-29742D01*
X41325Y-29718D01*
X41282Y-29760D01*
X41282Y-29675D01*
X41258Y-29593D01*
X41083Y-29526D01*
X40895Y-29530D01*
X40742Y-29593D01*
X40718Y-29675D01*
X41000Y-29958D01*
X41282Y-29675D01*
X41282Y-29760D01*
X41042Y-30000D01*
X41325Y-30282D01*
X41407Y-30258D01*
X41474Y-30083D01*
X41474Y-32050D01*
X41445Y-32079D01*
X41445Y-31912D01*
X41445Y-31089D01*
X41445Y-30912D01*
X41377Y-30748D01*
X41282Y-30653D01*
X41282Y-30325D01*
X41000Y-30042D01*
X40958Y-30084D01*
X40958Y-30000D01*
X40675Y-29718D01*
X40593Y-29742D01*
X40526Y-29917D01*
X40530Y-30105D01*
X40593Y-30258D01*
X40675Y-30282D01*
X40958Y-30000D01*
X40958Y-30084D01*
X40718Y-30325D01*
X40742Y-30407D01*
X40917Y-30474D01*
X41105Y-30470D01*
X41258Y-30407D01*
X41282Y-30325D01*
X41282Y-30653D01*
X41252Y-30623D01*
X41089Y-30555D01*
X40912Y-30555D01*
X40748Y-30623D01*
X40623Y-30748D01*
X40555Y-30911D01*
X40555Y-31088D01*
X40623Y-31252D01*
X40748Y-31377D01*
X40911Y-31445D01*
X41088Y-31445D01*
X41252Y-31377D01*
X41377Y-31252D01*
X41445Y-31089D01*
X41445Y-31912D01*
X41377Y-31748D01*
X41252Y-31623D01*
X41089Y-31555D01*
X40912Y-31555D01*
X40748Y-31623D01*
X40623Y-31748D01*
X40555Y-31911D01*
X40555Y-32019D01*
X40474Y-32100D01*
X40474Y-30083D01*
X40470Y-29895D01*
X40407Y-29742D01*
X40325Y-29718D01*
X40282Y-29760D01*
X40282Y-29675D01*
X40258Y-29593D01*
X40083Y-29526D01*
X39895Y-29530D01*
X39742Y-29593D01*
X39718Y-29675D01*
X40000Y-29958D01*
X40282Y-29675D01*
X40282Y-29760D01*
X40042Y-30000D01*
X40325Y-30282D01*
X40407Y-30258D01*
X40474Y-30083D01*
X40474Y-32100D01*
X40416Y-32158D01*
X40445Y-32089D01*
X40445Y-31912D01*
X40445Y-31089D01*
X40445Y-30912D01*
X40377Y-30748D01*
X40282Y-30653D01*
X40282Y-30325D01*
X40000Y-30042D01*
X39958Y-30084D01*
X39958Y-30000D01*
X39675Y-29718D01*
X39593Y-29742D01*
X39526Y-29917D01*
X39530Y-30105D01*
X39593Y-30258D01*
X39675Y-30282D01*
X39958Y-30000D01*
X39958Y-30084D01*
X39718Y-30325D01*
X39742Y-30407D01*
X39917Y-30474D01*
X40105Y-30470D01*
X40258Y-30407D01*
X40282Y-30325D01*
X40282Y-30653D01*
X40252Y-30623D01*
X40089Y-30555D01*
X39912Y-30555D01*
X39748Y-30623D01*
X39623Y-30748D01*
X39555Y-30911D01*
X39555Y-31088D01*
X39623Y-31252D01*
X39748Y-31377D01*
X39911Y-31445D01*
X40088Y-31445D01*
X40252Y-31377D01*
X40377Y-31252D01*
X40445Y-31089D01*
X40445Y-31912D01*
X40377Y-31748D01*
X40252Y-31623D01*
X40089Y-31555D01*
X39912Y-31555D01*
X39748Y-31623D01*
X39623Y-31748D01*
X39555Y-31911D01*
X39555Y-32088D01*
X39564Y-32110D01*
X39482Y-32192D01*
X39482Y-30316D01*
X39482Y-30234D01*
X39482Y-30081D01*
X39482Y-29919D01*
X39482Y-29766D01*
X39482Y-29684D01*
X39450Y-29608D01*
X39392Y-29549D01*
X39316Y-29518D01*
X39081Y-29518D01*
X39030Y-29569D01*
X39030Y-29970D01*
X39431Y-29970D01*
X39482Y-29919D01*
X39482Y-30081D01*
X39431Y-30030D01*
X39030Y-30030D01*
X39030Y-30431D01*
X39081Y-30482D01*
X39316Y-30482D01*
X39392Y-30451D01*
X39450Y-30392D01*
X39482Y-30316D01*
X39482Y-32192D01*
X39446Y-32228D01*
X39446Y-31691D01*
X39446Y-31309D01*
X39446Y-31241D01*
X39446Y-30691D01*
X39420Y-30628D01*
X39372Y-30580D01*
X39309Y-30554D01*
X39241Y-30554D01*
X38970Y-30554D01*
X38970Y-30431D01*
X38970Y-30030D01*
X38970Y-29970D01*
X38970Y-29569D01*
X38919Y-29518D01*
X38684Y-29518D01*
X38608Y-29549D01*
X38550Y-29608D01*
X38518Y-29684D01*
X38518Y-29766D01*
X38518Y-29919D01*
X38569Y-29970D01*
X38970Y-29970D01*
X38970Y-30030D01*
X38569Y-30030D01*
X38518Y-30081D01*
X38518Y-30234D01*
X38518Y-30316D01*
X38550Y-30392D01*
X38608Y-30451D01*
X38684Y-30482D01*
X38919Y-30482D01*
X38970Y-30431D01*
X38970Y-30554D01*
X38691Y-30554D01*
X38628Y-30580D01*
X38580Y-30628D01*
X38554Y-30691D01*
X38554Y-30759D01*
X38554Y-31309D01*
X38580Y-31372D01*
X38628Y-31420D01*
X38691Y-31446D01*
X38759Y-31446D01*
X39309Y-31446D01*
X39372Y-31420D01*
X39420Y-31372D01*
X39446Y-31309D01*
X39446Y-31691D01*
X39420Y-31628D01*
X39372Y-31580D01*
X39309Y-31554D01*
X39241Y-31554D01*
X38691Y-31554D01*
X38628Y-31580D01*
X38580Y-31628D01*
X38554Y-31691D01*
X38554Y-31759D01*
X38554Y-32120D01*
X38359Y-32315D01*
X38359Y-30672D01*
X38359Y-30330D01*
X38229Y-30014D01*
X37987Y-29772D01*
X37672Y-29641D01*
X37330Y-29641D01*
X37014Y-29771D01*
X36772Y-30013D01*
X36641Y-30328D01*
X36641Y-30670D01*
X36771Y-30986D01*
X37013Y-31228D01*
X37328Y-31359D01*
X37670Y-31359D01*
X37986Y-31229D01*
X38228Y-30987D01*
X38359Y-30672D01*
X38359Y-32315D01*
X38104Y-32570D01*
X37100Y-32570D01*
X37012Y-32588D01*
X36937Y-32637D01*
X36935Y-32639D01*
X36474Y-33100D01*
X36474Y-30083D01*
X36470Y-29895D01*
X36407Y-29742D01*
X36325Y-29718D01*
X36282Y-29760D01*
X36282Y-29675D01*
X36258Y-29593D01*
X36083Y-29526D01*
X35895Y-29530D01*
X35742Y-29593D01*
X35718Y-29675D01*
X36000Y-29958D01*
X36282Y-29675D01*
X36282Y-29760D01*
X36042Y-30000D01*
X36325Y-30282D01*
X36407Y-30258D01*
X36474Y-30083D01*
X36474Y-33100D01*
X36204Y-33370D01*
X35300Y-33370D01*
X35212Y-33388D01*
X35137Y-33437D01*
X35135Y-33439D01*
X34342Y-34231D01*
X34340Y-34233D01*
X34334Y-34237D01*
X34332Y-34239D01*
X34228Y-34343D01*
X34228Y-34002D01*
X34228Y-33497D01*
X34995Y-32730D01*
X35495Y-32730D01*
X35500Y-32731D01*
X35500Y-32730D01*
X35588Y-32712D01*
X35663Y-32663D01*
X35889Y-32436D01*
X35911Y-32445D01*
X36088Y-32445D01*
X36252Y-32377D01*
X36377Y-32252D01*
X36445Y-32089D01*
X36445Y-31912D01*
X36445Y-31089D01*
X36445Y-30912D01*
X36377Y-30748D01*
X36282Y-30653D01*
X36282Y-30325D01*
X36000Y-30042D01*
X35958Y-30084D01*
X35958Y-30000D01*
X35675Y-29718D01*
X35593Y-29742D01*
X35526Y-29917D01*
X35530Y-30105D01*
X35593Y-30258D01*
X35675Y-30282D01*
X35958Y-30000D01*
X35958Y-30084D01*
X35718Y-30325D01*
X35742Y-30407D01*
X35917Y-30474D01*
X36105Y-30470D01*
X36258Y-30407D01*
X36282Y-30325D01*
X36282Y-30653D01*
X36252Y-30623D01*
X36089Y-30555D01*
X35912Y-30555D01*
X35748Y-30623D01*
X35623Y-30748D01*
X35555Y-30911D01*
X35555Y-31088D01*
X35623Y-31252D01*
X35748Y-31377D01*
X35911Y-31445D01*
X36088Y-31445D01*
X36252Y-31377D01*
X36377Y-31252D01*
X36445Y-31089D01*
X36445Y-31912D01*
X36377Y-31748D01*
X36252Y-31623D01*
X36089Y-31555D01*
X35912Y-31555D01*
X35748Y-31623D01*
X35623Y-31748D01*
X35555Y-31911D01*
X35555Y-32088D01*
X35564Y-32109D01*
X35474Y-32199D01*
X35474Y-30083D01*
X35470Y-29895D01*
X35407Y-29742D01*
X35325Y-29718D01*
X35282Y-29760D01*
X35282Y-29675D01*
X35258Y-29593D01*
X35083Y-29526D01*
X34895Y-29530D01*
X34742Y-29593D01*
X34718Y-29675D01*
X35000Y-29958D01*
X35282Y-29675D01*
X35282Y-29760D01*
X35042Y-30000D01*
X35325Y-30282D01*
X35407Y-30258D01*
X35474Y-30083D01*
X35474Y-32199D01*
X35404Y-32270D01*
X35359Y-32270D01*
X35377Y-32252D01*
X35445Y-32089D01*
X35445Y-31912D01*
X35445Y-31089D01*
X35445Y-30912D01*
X35377Y-30748D01*
X35282Y-30653D01*
X35282Y-30325D01*
X35000Y-30042D01*
X34958Y-30084D01*
X34958Y-30000D01*
X34675Y-29718D01*
X34593Y-29742D01*
X34526Y-29917D01*
X34530Y-30105D01*
X34593Y-30258D01*
X34675Y-30282D01*
X34958Y-30000D01*
X34958Y-30084D01*
X34718Y-30325D01*
X34742Y-30407D01*
X34917Y-30474D01*
X35105Y-30470D01*
X35258Y-30407D01*
X35282Y-30325D01*
X35282Y-30653D01*
X35252Y-30623D01*
X35089Y-30555D01*
X34912Y-30555D01*
X34748Y-30623D01*
X34623Y-30748D01*
X34555Y-30911D01*
X34555Y-31088D01*
X34623Y-31252D01*
X34748Y-31377D01*
X34911Y-31445D01*
X35088Y-31445D01*
X35252Y-31377D01*
X35377Y-31252D01*
X35445Y-31089D01*
X35445Y-31912D01*
X35377Y-31748D01*
X35252Y-31623D01*
X35089Y-31555D01*
X34912Y-31555D01*
X34748Y-31623D01*
X34623Y-31748D01*
X34555Y-31911D01*
X34555Y-32088D01*
X34564Y-32109D01*
X34474Y-32199D01*
X34474Y-30083D01*
X34470Y-29895D01*
X34407Y-29742D01*
X34325Y-29718D01*
X34282Y-29760D01*
X34282Y-29675D01*
X34258Y-29593D01*
X34083Y-29526D01*
X33895Y-29530D01*
X33742Y-29593D01*
X33718Y-29675D01*
X34000Y-29958D01*
X34282Y-29675D01*
X34282Y-29760D01*
X34042Y-30000D01*
X34325Y-30282D01*
X34407Y-30258D01*
X34474Y-30083D01*
X34474Y-32199D01*
X33830Y-32844D01*
X33830Y-32495D01*
X33889Y-32436D01*
X33911Y-32445D01*
X34088Y-32445D01*
X34252Y-32377D01*
X34377Y-32252D01*
X34445Y-32089D01*
X34445Y-31912D01*
X34445Y-31089D01*
X34445Y-30912D01*
X34377Y-30748D01*
X34282Y-30653D01*
X34282Y-30325D01*
X34000Y-30042D01*
X33958Y-30084D01*
X33958Y-30000D01*
X33675Y-29718D01*
X33593Y-29742D01*
X33526Y-29917D01*
X33530Y-30105D01*
X33593Y-30258D01*
X33675Y-30282D01*
X33958Y-30000D01*
X33958Y-30084D01*
X33718Y-30325D01*
X33742Y-30407D01*
X33917Y-30474D01*
X34105Y-30470D01*
X34258Y-30407D01*
X34282Y-30325D01*
X34282Y-30653D01*
X34252Y-30623D01*
X34089Y-30555D01*
X33912Y-30555D01*
X33748Y-30623D01*
X33623Y-30748D01*
X33555Y-30911D01*
X33555Y-31088D01*
X33623Y-31252D01*
X33748Y-31377D01*
X33911Y-31445D01*
X34088Y-31445D01*
X34252Y-31377D01*
X34377Y-31252D01*
X34445Y-31089D01*
X34445Y-31912D01*
X34377Y-31748D01*
X34252Y-31623D01*
X34089Y-31555D01*
X33912Y-31555D01*
X33748Y-31623D01*
X33623Y-31748D01*
X33555Y-31911D01*
X33555Y-32088D01*
X33564Y-32110D01*
X33499Y-32174D01*
X33474Y-32149D01*
X33474Y-30083D01*
X33470Y-29895D01*
X33407Y-29742D01*
X33325Y-29718D01*
X33282Y-29760D01*
X33282Y-29675D01*
X33258Y-29593D01*
X33083Y-29526D01*
X32895Y-29530D01*
X32742Y-29593D01*
X32718Y-29675D01*
X33000Y-29958D01*
X33282Y-29675D01*
X33282Y-29760D01*
X33042Y-30000D01*
X33325Y-30282D01*
X33407Y-30258D01*
X33474Y-30083D01*
X33474Y-32149D01*
X33435Y-32110D01*
X33445Y-32089D01*
X33445Y-31912D01*
X33445Y-31089D01*
X33445Y-30912D01*
X33377Y-30748D01*
X33282Y-30653D01*
X33282Y-30325D01*
X33000Y-30042D01*
X32958Y-30084D01*
X32958Y-30000D01*
X32675Y-29718D01*
X32593Y-29742D01*
X32526Y-29917D01*
X32530Y-30105D01*
X32593Y-30258D01*
X32675Y-30282D01*
X32958Y-30000D01*
X32958Y-30084D01*
X32718Y-30325D01*
X32742Y-30407D01*
X32917Y-30474D01*
X33105Y-30470D01*
X33258Y-30407D01*
X33282Y-30325D01*
X33282Y-30653D01*
X33252Y-30623D01*
X33089Y-30555D01*
X32912Y-30555D01*
X32748Y-30623D01*
X32623Y-30748D01*
X32555Y-30911D01*
X32555Y-31088D01*
X32623Y-31252D01*
X32748Y-31377D01*
X32911Y-31445D01*
X33088Y-31445D01*
X33252Y-31377D01*
X33377Y-31252D01*
X33445Y-31089D01*
X33445Y-31912D01*
X33377Y-31748D01*
X33252Y-31623D01*
X33089Y-31555D01*
X32912Y-31555D01*
X32748Y-31623D01*
X32623Y-31748D01*
X32555Y-31911D01*
X32555Y-32088D01*
X32623Y-32252D01*
X32641Y-32270D01*
X32596Y-32270D01*
X32474Y-32148D01*
X32474Y-30083D01*
X32470Y-29895D01*
X32407Y-29742D01*
X32325Y-29718D01*
X32282Y-29760D01*
X32282Y-29675D01*
X32258Y-29593D01*
X32083Y-29526D01*
X31895Y-29530D01*
X31742Y-29593D01*
X31718Y-29675D01*
X32000Y-29958D01*
X32282Y-29675D01*
X32282Y-29760D01*
X32042Y-30000D01*
X32325Y-30282D01*
X32407Y-30258D01*
X32474Y-30083D01*
X32474Y-32148D01*
X32436Y-32110D01*
X32445Y-32089D01*
X32445Y-31912D01*
X32445Y-31089D01*
X32445Y-30912D01*
X32377Y-30748D01*
X32282Y-30653D01*
X32282Y-30325D01*
X32000Y-30042D01*
X31958Y-30084D01*
X31958Y-30000D01*
X31675Y-29718D01*
X31593Y-29742D01*
X31526Y-29917D01*
X31530Y-30105D01*
X31593Y-30258D01*
X31675Y-30282D01*
X31958Y-30000D01*
X31958Y-30084D01*
X31718Y-30325D01*
X31742Y-30407D01*
X31917Y-30474D01*
X32105Y-30470D01*
X32258Y-30407D01*
X32282Y-30325D01*
X32282Y-30653D01*
X32252Y-30623D01*
X32089Y-30555D01*
X31912Y-30555D01*
X31748Y-30623D01*
X31623Y-30748D01*
X31555Y-30911D01*
X31555Y-31088D01*
X31623Y-31252D01*
X31748Y-31377D01*
X31911Y-31445D01*
X32088Y-31445D01*
X32252Y-31377D01*
X32377Y-31252D01*
X32445Y-31089D01*
X32445Y-31912D01*
X32377Y-31748D01*
X32252Y-31623D01*
X32089Y-31555D01*
X31912Y-31555D01*
X31748Y-31623D01*
X31623Y-31748D01*
X31555Y-31911D01*
X31555Y-32088D01*
X31623Y-32252D01*
X31748Y-32377D01*
X31911Y-32445D01*
X32088Y-32445D01*
X32109Y-32435D01*
X32244Y-32570D01*
X31895Y-32570D01*
X31482Y-32156D01*
X31482Y-30316D01*
X31482Y-30234D01*
X31482Y-30081D01*
X31482Y-29919D01*
X31482Y-29766D01*
X31482Y-29684D01*
X31450Y-29608D01*
X31392Y-29549D01*
X31316Y-29518D01*
X31081Y-29518D01*
X31030Y-29569D01*
X31030Y-29970D01*
X31431Y-29970D01*
X31482Y-29919D01*
X31482Y-30081D01*
X31431Y-30030D01*
X31030Y-30030D01*
X31030Y-30431D01*
X31081Y-30482D01*
X31316Y-30482D01*
X31392Y-30451D01*
X31450Y-30392D01*
X31482Y-30316D01*
X31482Y-32156D01*
X31446Y-32120D01*
X31446Y-31691D01*
X31446Y-31309D01*
X31446Y-31241D01*
X31446Y-30691D01*
X31420Y-30628D01*
X31372Y-30580D01*
X31309Y-30554D01*
X31241Y-30554D01*
X30970Y-30554D01*
X30970Y-30431D01*
X30970Y-30030D01*
X30970Y-29970D01*
X30970Y-29569D01*
X30919Y-29518D01*
X30684Y-29518D01*
X30608Y-29549D01*
X30550Y-29608D01*
X30518Y-29684D01*
X30518Y-29766D01*
X30518Y-29919D01*
X30569Y-29970D01*
X30970Y-29970D01*
X30970Y-30030D01*
X30569Y-30030D01*
X30518Y-30081D01*
X30518Y-30234D01*
X30518Y-30316D01*
X30550Y-30392D01*
X30608Y-30451D01*
X30684Y-30482D01*
X30919Y-30482D01*
X30970Y-30431D01*
X30970Y-30554D01*
X30691Y-30554D01*
X30628Y-30580D01*
X30580Y-30628D01*
X30554Y-30691D01*
X30554Y-30759D01*
X30554Y-31309D01*
X30580Y-31372D01*
X30628Y-31420D01*
X30691Y-31446D01*
X30759Y-31446D01*
X31309Y-31446D01*
X31372Y-31420D01*
X31420Y-31372D01*
X31446Y-31309D01*
X31446Y-31691D01*
X31420Y-31628D01*
X31372Y-31580D01*
X31309Y-31554D01*
X31241Y-31554D01*
X30691Y-31554D01*
X30628Y-31580D01*
X30580Y-31628D01*
X30554Y-31691D01*
X30554Y-31759D01*
X30554Y-32309D01*
X30580Y-32372D01*
X30628Y-32420D01*
X30691Y-32446D01*
X30759Y-32446D01*
X31120Y-32446D01*
X31635Y-32960D01*
X31637Y-32963D01*
X31712Y-33012D01*
X31800Y-33030D01*
X32604Y-33030D01*
X32770Y-33195D01*
X32770Y-35000D01*
X32770Y-40282D01*
X32696Y-40208D01*
X32640Y-40184D01*
X32640Y-35341D01*
X32640Y-35081D01*
X32640Y-34919D01*
X32640Y-34659D01*
X32609Y-34583D01*
X32550Y-34525D01*
X32474Y-34493D01*
X32392Y-34493D01*
X32081Y-34493D01*
X32030Y-34544D01*
X32030Y-34970D01*
X32589Y-34970D01*
X32640Y-34919D01*
X32640Y-35081D01*
X32589Y-35030D01*
X32030Y-35030D01*
X32030Y-35456D01*
X32081Y-35507D01*
X32392Y-35507D01*
X32474Y-35507D01*
X32550Y-35475D01*
X32609Y-35417D01*
X32640Y-35341D01*
X32640Y-40184D01*
X32606Y-40170D01*
X32606Y-37093D01*
X32606Y-36909D01*
X32606Y-36093D01*
X32606Y-35909D01*
X32536Y-35739D01*
X32406Y-35609D01*
X32237Y-35538D01*
X32053Y-35538D01*
X31970Y-35538D01*
X31970Y-35456D01*
X31970Y-35030D01*
X31970Y-34970D01*
X31970Y-34544D01*
X31919Y-34493D01*
X31608Y-34493D01*
X31526Y-34493D01*
X31450Y-34525D01*
X31391Y-34583D01*
X31360Y-34659D01*
X31360Y-34919D01*
X31411Y-34970D01*
X31970Y-34970D01*
X31970Y-35030D01*
X31411Y-35030D01*
X31360Y-35081D01*
X31360Y-35341D01*
X31391Y-35417D01*
X31450Y-35475D01*
X31526Y-35507D01*
X31608Y-35507D01*
X31919Y-35507D01*
X31970Y-35456D01*
X31970Y-35538D01*
X31765Y-35538D01*
X31595Y-35608D01*
X31512Y-35691D01*
X30300Y-35691D01*
X30182Y-35715D01*
X30081Y-35782D01*
X29482Y-36382D01*
X29415Y-36482D01*
X29391Y-36600D01*
X29391Y-36700D01*
X29391Y-39900D01*
X29415Y-40018D01*
X29465Y-40092D01*
X29507Y-40195D01*
X29604Y-40292D01*
X29731Y-40345D01*
X29868Y-40345D01*
X29995Y-40293D01*
X30092Y-40196D01*
X30145Y-40069D01*
X30145Y-39932D01*
X30093Y-39805D01*
X30009Y-39721D01*
X30009Y-36727D01*
X30427Y-36309D01*
X31512Y-36309D01*
X31594Y-36391D01*
X31763Y-36462D01*
X31947Y-36462D01*
X32235Y-36462D01*
X32405Y-36392D01*
X32535Y-36262D01*
X32606Y-36093D01*
X32606Y-36909D01*
X32536Y-36739D01*
X32406Y-36609D01*
X32237Y-36538D01*
X32053Y-36538D01*
X31765Y-36538D01*
X31595Y-36608D01*
X31465Y-36738D01*
X31394Y-36907D01*
X31394Y-37091D01*
X31464Y-37261D01*
X31594Y-37391D01*
X31763Y-37462D01*
X31947Y-37462D01*
X32235Y-37462D01*
X32405Y-37392D01*
X32535Y-37262D01*
X32606Y-37093D01*
X32606Y-40170D01*
X32569Y-40155D01*
X32432Y-40155D01*
X32305Y-40207D01*
X32208Y-40304D01*
X32155Y-40431D01*
X32155Y-40568D01*
X32207Y-40695D01*
X32304Y-40792D01*
X32431Y-40845D01*
X32568Y-40845D01*
X32685Y-40797D01*
X33396Y-41508D01*
X33269Y-41455D01*
X33132Y-41455D01*
X33005Y-41507D01*
X32908Y-41604D01*
X32855Y-41731D01*
X32855Y-41868D01*
X32907Y-41995D01*
X32960Y-42048D01*
X32960Y-44855D01*
X32932Y-44855D01*
X32805Y-44907D01*
X32708Y-45004D01*
X32655Y-45131D01*
X32655Y-45268D01*
X32707Y-45395D01*
X32804Y-45492D01*
X32931Y-45545D01*
X33068Y-45545D01*
X33195Y-45493D01*
X33225Y-45463D01*
X33304Y-45542D01*
X33431Y-45595D01*
X33568Y-45595D01*
X33695Y-45543D01*
X33792Y-45446D01*
X33845Y-45319D01*
X33845Y-45182D01*
X33793Y-45055D01*
X33720Y-44982D01*
X33720Y-43094D01*
X33845Y-43043D01*
X33942Y-42946D01*
X33995Y-42819D01*
X33995Y-42682D01*
X33943Y-42555D01*
X33846Y-42458D01*
X33719Y-42405D01*
X33582Y-42405D01*
X33455Y-42457D01*
X33440Y-42472D01*
X33440Y-42048D01*
X33492Y-41996D01*
X33545Y-41869D01*
X33545Y-41732D01*
X33493Y-41605D01*
X34400Y-42511D01*
X34358Y-42554D01*
X34305Y-42681D01*
X34305Y-42818D01*
X34357Y-42945D01*
X34454Y-43042D01*
X34581Y-43095D01*
X34718Y-43095D01*
X34780Y-43069D01*
X34780Y-45182D01*
X34708Y-45254D01*
X34655Y-45381D01*
X34655Y-45518D01*
X34707Y-45645D01*
X34804Y-45742D01*
X34931Y-45795D01*
X35068Y-45795D01*
X35195Y-45743D01*
X35282Y-45655D01*
X35287Y-45663D01*
X35485Y-45860D01*
X35487Y-45863D01*
X35562Y-45912D01*
X35649Y-45930D01*
X35649Y-45929D01*
X35650Y-45930D01*
X37500Y-45930D01*
X41142Y-45930D01*
X41204Y-45992D01*
X41331Y-46045D01*
X41468Y-46045D01*
X41595Y-45993D01*
X41692Y-45896D01*
X41745Y-45769D01*
X41745Y-45632D01*
X41693Y-45505D01*
X41596Y-45408D01*
X41469Y-45355D01*
X41332Y-45355D01*
X41205Y-45407D01*
X41142Y-45470D01*
X37500Y-45470D01*
X35745Y-45470D01*
X35680Y-45404D01*
X35680Y-45100D01*
X35662Y-45012D01*
X35613Y-44937D01*
X35610Y-44935D01*
X35430Y-44754D01*
X35430Y-42619D01*
X35431Y-42619D01*
X35504Y-42692D01*
X35631Y-42745D01*
X35768Y-42745D01*
X35895Y-42693D01*
X35992Y-42596D01*
X36000Y-42575D01*
X36055Y-42630D01*
X36055Y-42631D01*
X36055Y-42768D01*
X36107Y-42895D01*
X36204Y-42992D01*
X36331Y-43045D01*
X36468Y-43045D01*
X36595Y-42993D01*
X36692Y-42896D01*
X36715Y-42838D01*
X36731Y-42845D01*
X36868Y-42845D01*
X36995Y-42793D01*
X37092Y-42696D01*
X37145Y-42569D01*
X37145Y-42530D01*
X37200Y-42530D01*
X38842Y-42530D01*
X38904Y-42592D01*
X39031Y-42645D01*
X39168Y-42645D01*
X39220Y-42623D01*
X39220Y-43495D01*
X39219Y-43500D01*
X39238Y-43588D01*
X39240Y-43592D01*
X39205Y-43607D01*
X39108Y-43704D01*
X39055Y-43831D01*
X39055Y-43968D01*
X39107Y-44095D01*
X39180Y-44168D01*
X39180Y-44695D01*
X39179Y-44700D01*
X39197Y-44784D01*
X39244Y-44856D01*
X39542Y-45153D01*
X39544Y-45156D01*
X39616Y-45203D01*
X39700Y-45220D01*
X43632Y-45220D01*
X43704Y-45292D01*
X43831Y-45345D01*
X43968Y-45345D01*
X44095Y-45293D01*
X44192Y-45196D01*
X44245Y-45069D01*
X44245Y-48354D01*
X31674Y-48354D01*
X31674Y-45683D01*
X31670Y-45495D01*
X31607Y-45342D01*
X31525Y-45318D01*
X31482Y-45360D01*
X31482Y-45275D01*
X31458Y-45193D01*
X31283Y-45126D01*
X31095Y-45130D01*
X30942Y-45193D01*
X30918Y-45275D01*
X31200Y-45558D01*
X31482Y-45275D01*
X31482Y-45360D01*
X31242Y-45600D01*
X31525Y-45882D01*
X31607Y-45858D01*
X31674Y-45683D01*
X31674Y-48354D01*
X31482Y-48354D01*
X31482Y-45925D01*
X31200Y-45642D01*
X31158Y-45684D01*
X31158Y-45600D01*
X30875Y-45318D01*
X30793Y-45342D01*
X30726Y-45517D01*
X30730Y-45705D01*
X30793Y-45858D01*
X30875Y-45882D01*
X31158Y-45600D01*
X31158Y-45684D01*
X30918Y-45925D01*
X30942Y-46007D01*
X31117Y-46074D01*
X31305Y-46070D01*
X31458Y-46007D01*
X31482Y-45925D01*
X31482Y-48354D01*
X30645Y-48354D01*
X30645Y-45689D01*
X30645Y-45512D01*
X30577Y-45348D01*
X30452Y-45223D01*
X30289Y-45155D01*
X30112Y-45155D01*
X29948Y-45223D01*
X29823Y-45348D01*
X29755Y-45511D01*
X29755Y-45688D01*
X29823Y-45852D01*
X29948Y-45977D01*
X30111Y-46045D01*
X30288Y-46045D01*
X30452Y-45977D01*
X30577Y-45852D01*
X30645Y-45689D01*
X30645Y-48354D01*
X29645Y-48354D01*
X29645Y-45689D01*
X29645Y-45512D01*
X29577Y-45348D01*
X29452Y-45223D01*
X29289Y-45155D01*
X29112Y-45155D01*
X28948Y-45223D01*
X28823Y-45348D01*
X28755Y-45511D01*
X28755Y-45688D01*
X28823Y-45852D01*
X28948Y-45977D01*
X29111Y-46045D01*
X29288Y-46045D01*
X29452Y-45977D01*
X29577Y-45852D01*
X29645Y-45689D01*
X29645Y-48354D01*
X27946Y-48354D01*
X27946Y-46046D01*
X27959Y-46046D01*
X28509Y-46046D01*
X28572Y-46020D01*
X28620Y-45972D01*
X28646Y-45909D01*
X28646Y-45841D01*
X28646Y-45291D01*
X28620Y-45228D01*
X28572Y-45180D01*
X28509Y-45154D01*
X28441Y-45154D01*
X27946Y-45154D01*
X27946Y-29246D01*
X47054Y-29246D01*
X47054Y-48354D01*
M02*
