G04 (created by PCBNEW-RS274X (2012-01-19 BZR 3256)-stable) date 3/3/2013 12:27:56 AM*
G01*
G70*
G90*
%MOIN*%
G04 Gerber Fmt 3.4, Leading zero omitted, Abs format*
%FSLAX34Y34*%
G04 APERTURE LIST*
%ADD10C,0.006000*%
%ADD11C,0.015000*%
%ADD12R,0.045000X0.025000*%
%ADD13R,0.025000X0.045000*%
%ADD14R,0.046200X0.074700*%
%ADD15R,0.093500X0.074700*%
%ADD16R,0.058000X0.082700*%
%ADD17R,0.017700X0.054300*%
%ADD18R,0.047200X0.047200*%
%ADD19R,0.086600X0.060000*%
%ADD20O,0.086600X0.060000*%
%ADD21R,0.039400X0.027600*%
%ADD22R,0.039400X0.039400*%
%ADD23R,0.080000X0.144000*%
%ADD24R,0.080000X0.040000*%
%ADD25R,0.011800X0.051200*%
%ADD26R,0.051200X0.011800*%
%ADD27R,0.031500X0.027500*%
%ADD28R,0.027500X0.031500*%
%ADD29R,0.060000X0.080000*%
%ADD30R,0.080000X0.060000*%
%ADD31C,0.078700*%
%ADD32R,0.055000X0.055000*%
%ADD33C,0.055000*%
%ADD34C,0.035000*%
%ADD35C,0.023600*%
%ADD36C,0.009800*%
%ADD37C,0.017700*%
%ADD38C,0.015700*%
%ADD39C,0.011800*%
%ADD40C,0.013800*%
%ADD41C,0.027600*%
%ADD42C,0.008000*%
%ADD43C,0.010000*%
G04 APERTURE END LIST*
G54D10*
G54D11*
X51200Y-37600D02*
X51200Y-18000D01*
X70800Y-37600D02*
X51200Y-37600D01*
X70800Y-18000D02*
X70800Y-37600D01*
X51200Y-18000D02*
X70800Y-18000D01*
G54D12*
X53600Y-33700D03*
X53600Y-33100D03*
X53000Y-33100D03*
X53000Y-33700D03*
G54D13*
X67000Y-27000D03*
X67600Y-27000D03*
X65100Y-29200D03*
X64500Y-29200D03*
G54D12*
X52200Y-20700D03*
X52200Y-21300D03*
G54D14*
X53170Y-36250D03*
X53830Y-36250D03*
G54D15*
X54647Y-36250D03*
X52353Y-36250D03*
G54D16*
X54469Y-35345D03*
X52531Y-35345D03*
G54D17*
X52988Y-35203D03*
X53244Y-35203D03*
X53500Y-35203D03*
X53756Y-35203D03*
X54012Y-35203D03*
G54D18*
X52200Y-18987D03*
X52200Y-19813D03*
X70000Y-18987D03*
X70000Y-19813D03*
X56000Y-35087D03*
X56000Y-35913D03*
X58500Y-35587D03*
X58500Y-36413D03*
X61000Y-35837D03*
X61000Y-36663D03*
G54D19*
X67000Y-26000D03*
G54D20*
X67000Y-25000D03*
X67000Y-24000D03*
G54D13*
X68700Y-34400D03*
X69300Y-34400D03*
X55950Y-26000D03*
X56550Y-26000D03*
G54D12*
X70000Y-20450D03*
X70000Y-21050D03*
X57200Y-35700D03*
X57200Y-36300D03*
X59600Y-36100D03*
X59600Y-36700D03*
X62200Y-36100D03*
X62200Y-36700D03*
X64800Y-35700D03*
X64800Y-36300D03*
X67000Y-35300D03*
X67000Y-35900D03*
X57700Y-31400D03*
X57700Y-30800D03*
G54D13*
X54800Y-31600D03*
X54200Y-31600D03*
G54D12*
X54800Y-33100D03*
X54800Y-33700D03*
X58400Y-30800D03*
X58400Y-31400D03*
G54D13*
X57800Y-34000D03*
X57200Y-34000D03*
G54D19*
X55000Y-24000D03*
G54D20*
X55000Y-25000D03*
X55000Y-26000D03*
G54D18*
X63500Y-35587D03*
X63500Y-36413D03*
X66000Y-35087D03*
X66000Y-35913D03*
G54D21*
X55500Y-33600D03*
X56500Y-33225D03*
X56500Y-33975D03*
G54D22*
X70181Y-36728D03*
X67819Y-35272D03*
X70181Y-35272D03*
X67819Y-36728D03*
G54D23*
X54800Y-28300D03*
G54D24*
X52200Y-28300D03*
X52200Y-29200D03*
X52200Y-27400D03*
G54D25*
X63992Y-30386D03*
X63795Y-30386D03*
X63598Y-30386D03*
X63402Y-30386D03*
X63205Y-30386D03*
X64583Y-30386D03*
X64386Y-30386D03*
X64189Y-30386D03*
G54D26*
X61886Y-30917D03*
X61886Y-31114D03*
X61886Y-31311D03*
X61886Y-31508D03*
X61886Y-31705D03*
X61886Y-31902D03*
X61886Y-32098D03*
X61886Y-32295D03*
G54D25*
X62417Y-33614D03*
X62614Y-33614D03*
X62811Y-33614D03*
X63008Y-33614D03*
X63205Y-33614D03*
X63402Y-33614D03*
X63598Y-33614D03*
X63795Y-33614D03*
G54D26*
X65114Y-33083D03*
X65114Y-32886D03*
X65114Y-32689D03*
X65114Y-32492D03*
X65114Y-32295D03*
X65114Y-32098D03*
X65114Y-31902D03*
X65114Y-31705D03*
G54D25*
X63008Y-30386D03*
X62811Y-30386D03*
X62614Y-30386D03*
X62417Y-30386D03*
G54D26*
X61886Y-32492D03*
X61886Y-32689D03*
X61886Y-32886D03*
X61886Y-33083D03*
G54D25*
X63992Y-33614D03*
X64189Y-33614D03*
X64386Y-33614D03*
X64583Y-33614D03*
G54D26*
X65114Y-31508D03*
X65114Y-31311D03*
X65114Y-31114D03*
X65114Y-30917D03*
G54D27*
X61934Y-28400D03*
X62366Y-28400D03*
X63866Y-28400D03*
X63434Y-28400D03*
G54D28*
X52400Y-33184D03*
X52400Y-33616D03*
X54200Y-33184D03*
X54200Y-33616D03*
G54D29*
X52850Y-30500D03*
X54150Y-30500D03*
G54D13*
X52450Y-31500D03*
X53050Y-31500D03*
X65100Y-28500D03*
X64500Y-28500D03*
G54D12*
X56000Y-24550D03*
X56000Y-23950D03*
G54D30*
X68500Y-30850D03*
X68500Y-32150D03*
G54D29*
X56350Y-30500D03*
X55050Y-30500D03*
G54D12*
X67400Y-31700D03*
X67400Y-32300D03*
G54D29*
X60800Y-28700D03*
X59500Y-28700D03*
G54D13*
X61000Y-29700D03*
X60400Y-29700D03*
G54D30*
X64750Y-24900D03*
X64750Y-23600D03*
G54D31*
X61900Y-27150D03*
X63900Y-27150D03*
G54D30*
X57000Y-24650D03*
X57000Y-23350D03*
G54D12*
X65750Y-24550D03*
X65750Y-23950D03*
G54D13*
X60700Y-21900D03*
X60100Y-21900D03*
X61300Y-21900D03*
X61900Y-21900D03*
G54D32*
X56500Y-20000D03*
G54D33*
X57500Y-20000D03*
X58500Y-20000D03*
X59500Y-20000D03*
X60500Y-20000D03*
X61500Y-20000D03*
X62500Y-20000D03*
X63500Y-20000D03*
X64500Y-20000D03*
X65500Y-20000D03*
G54D32*
X56500Y-19000D03*
G54D33*
X57500Y-19000D03*
X58500Y-19000D03*
X59500Y-19000D03*
X60500Y-19000D03*
X61500Y-19000D03*
X62500Y-19000D03*
X63500Y-19000D03*
X64500Y-19000D03*
X65500Y-19000D03*
G54D32*
X56500Y-21000D03*
G54D33*
X57500Y-21000D03*
X58500Y-21000D03*
X59500Y-21000D03*
X60500Y-21000D03*
X61500Y-21000D03*
X62500Y-21000D03*
X63500Y-21000D03*
X64500Y-21000D03*
X65500Y-21000D03*
G54D34*
X56500Y-32700D03*
X56500Y-31200D03*
X53300Y-29000D03*
X63800Y-32900D03*
X64300Y-32900D03*
X61600Y-29600D03*
X62850Y-29450D03*
X68700Y-29600D03*
X64100Y-29600D03*
X60100Y-34300D03*
X65200Y-34700D03*
X59200Y-31400D03*
X62600Y-31300D03*
X60300Y-31500D03*
X70100Y-27000D03*
X68200Y-27000D03*
X69200Y-27700D03*
X66000Y-25900D03*
X59900Y-31700D03*
X68500Y-31500D03*
X54200Y-34200D03*
X59500Y-27900D03*
X70000Y-21900D03*
X69100Y-36000D03*
X60300Y-36300D03*
X62900Y-28400D03*
X64000Y-29100D03*
X52400Y-34200D03*
X54000Y-29000D03*
X52200Y-21900D03*
X57700Y-31700D03*
X57100Y-32600D03*
G54D35*
X67650Y-31700D02*
X68500Y-30850D01*
G54D36*
X67400Y-31700D02*
X67650Y-31700D01*
G54D37*
X62000Y-29100D02*
X61800Y-28900D01*
G54D36*
X63205Y-29205D02*
X63100Y-29100D01*
X63205Y-30386D02*
X63205Y-29205D01*
G54D38*
X60800Y-28700D02*
X60800Y-29500D01*
G54D36*
X67395Y-31705D02*
X67400Y-31700D01*
G54D37*
X61800Y-28900D02*
X61000Y-28900D01*
G54D39*
X61100Y-29000D02*
X60800Y-28700D01*
G54D38*
X60800Y-29500D02*
X61000Y-29700D01*
G54D36*
X61000Y-28900D02*
X60800Y-28700D01*
X65114Y-31705D02*
X67395Y-31705D01*
X63100Y-29100D02*
X62000Y-29100D01*
X56500Y-33225D02*
X56500Y-32700D01*
G54D40*
X52988Y-35203D02*
X52988Y-34688D01*
G54D39*
X56900Y-24550D02*
X57000Y-24650D01*
G54D35*
X55000Y-25000D02*
X55550Y-25000D01*
G54D41*
X52450Y-31500D02*
X52450Y-30900D01*
G54D35*
X64500Y-24650D02*
X64750Y-24900D01*
G54D41*
X52850Y-29850D02*
X52200Y-29200D01*
G54D35*
X55550Y-25000D02*
X56000Y-24550D01*
G54D41*
X52200Y-29900D02*
X52200Y-29200D01*
G54D35*
X64750Y-24900D02*
X65400Y-24900D01*
G54D41*
X52450Y-30900D02*
X52850Y-30500D01*
X51800Y-30300D02*
X52200Y-29900D01*
G54D37*
X52988Y-34688D02*
X52900Y-34600D01*
G54D35*
X65750Y-24550D02*
X66550Y-24550D01*
X57000Y-24650D02*
X64500Y-24650D01*
X66550Y-24550D02*
X67000Y-25000D01*
X56000Y-24550D02*
X56900Y-24550D01*
G54D41*
X52850Y-29450D02*
X53300Y-29000D01*
X51800Y-34600D02*
X51800Y-30300D01*
G54D35*
X65400Y-24900D02*
X65750Y-24550D01*
G54D41*
X52900Y-34600D02*
X51800Y-34600D01*
X52850Y-30500D02*
X52850Y-29450D01*
X52850Y-30500D02*
X52850Y-29850D01*
G54D36*
X63795Y-32905D02*
X63795Y-33614D01*
X63795Y-32905D02*
X63800Y-32900D01*
X63992Y-33614D02*
X63992Y-33208D01*
X63992Y-33208D02*
X64300Y-32900D01*
G54D42*
X62650Y-29750D02*
X61750Y-29750D01*
X61750Y-29750D02*
X61600Y-29600D01*
G54D36*
X62650Y-29750D02*
X62811Y-29911D01*
X62642Y-29742D02*
X62650Y-29750D01*
X62811Y-29911D02*
X62811Y-30386D01*
X63008Y-29608D02*
X62850Y-29450D01*
X63008Y-29608D02*
X63008Y-30386D01*
G54D39*
X69300Y-34400D02*
X69300Y-35100D01*
G54D36*
X69700Y-34000D02*
X69300Y-34400D01*
G54D39*
X69300Y-35100D02*
X69128Y-35272D01*
G54D36*
X63992Y-29708D02*
X64100Y-29600D01*
G54D39*
X69128Y-35272D02*
X67819Y-35272D01*
G54D36*
X69700Y-29800D02*
X69700Y-34000D01*
X69500Y-29600D02*
X69700Y-29800D01*
X68700Y-29600D02*
X69500Y-29600D01*
X63992Y-30386D02*
X63992Y-29708D01*
X64386Y-30386D02*
X64386Y-30068D01*
G54D42*
X68900Y-19700D02*
X68900Y-18800D01*
X52687Y-18500D02*
X52200Y-18987D01*
X68600Y-18500D02*
X52687Y-18500D01*
G54D36*
X64654Y-29800D02*
X64700Y-29800D01*
X64700Y-29800D02*
X66300Y-29800D01*
X66300Y-29800D02*
X68900Y-27200D01*
X68900Y-27200D02*
X68900Y-19700D01*
X64386Y-30068D02*
X64654Y-29800D01*
G54D42*
X68900Y-18800D02*
X68600Y-18500D01*
G54D36*
X64583Y-30386D02*
X64583Y-30217D01*
X69100Y-19887D02*
X70000Y-18987D01*
X66400Y-30000D02*
X69100Y-27300D01*
X69100Y-27300D02*
X69100Y-19887D01*
X64800Y-30000D02*
X66400Y-30000D01*
X64583Y-30217D02*
X64800Y-30000D01*
X56000Y-35087D02*
X57613Y-35087D01*
X60613Y-35087D02*
X57613Y-35087D01*
X60621Y-35079D02*
X60613Y-35087D01*
X62500Y-34700D02*
X60921Y-34700D01*
X60621Y-35000D02*
X60621Y-35079D01*
X62811Y-34389D02*
X62811Y-33614D01*
X62500Y-34700D02*
X62811Y-34389D01*
X60921Y-34700D02*
X60621Y-35000D01*
X62600Y-34900D02*
X63008Y-34492D01*
X60800Y-35300D02*
X60513Y-35587D01*
X61000Y-34900D02*
X60800Y-35100D01*
X63008Y-33614D02*
X63008Y-34492D01*
X60513Y-35587D02*
X58500Y-35587D01*
X62600Y-34900D02*
X61000Y-34900D01*
X60800Y-35100D02*
X60800Y-35300D01*
X63205Y-33614D02*
X63205Y-34595D01*
X62700Y-35100D02*
X61100Y-35100D01*
X61000Y-35200D02*
X61000Y-35837D01*
X63205Y-34595D02*
X62700Y-35100D01*
X61100Y-35100D02*
X61000Y-35200D01*
X63402Y-35489D02*
X63500Y-35587D01*
X63402Y-33614D02*
X63402Y-35489D01*
X63598Y-33614D02*
X63598Y-34898D01*
X63787Y-35087D02*
X66000Y-35087D01*
X63598Y-34898D02*
X63787Y-35087D01*
X60300Y-34500D02*
X60100Y-34300D01*
X62614Y-34286D02*
X62400Y-34500D01*
X62400Y-34500D02*
X60300Y-34500D01*
X62614Y-34286D02*
X62614Y-33614D01*
X65114Y-32886D02*
X65786Y-32886D01*
X65800Y-34100D02*
X65200Y-34700D01*
X65786Y-32886D02*
X65800Y-32900D01*
X65800Y-32900D02*
X65800Y-34100D01*
X61400Y-30300D02*
X61546Y-30300D01*
X55500Y-31600D02*
X55700Y-31400D01*
X56800Y-29700D02*
X59100Y-29700D01*
X59700Y-30300D02*
X61400Y-30300D01*
X55500Y-31600D02*
X54800Y-31600D01*
X62521Y-29921D02*
X62614Y-30014D01*
X59100Y-29700D02*
X59700Y-30300D01*
X62614Y-30386D02*
X62614Y-30014D01*
X55700Y-31400D02*
X55700Y-29700D01*
X61925Y-29921D02*
X62521Y-29921D01*
X61546Y-30300D02*
X61925Y-29921D01*
X55700Y-29700D02*
X56800Y-29700D01*
X59683Y-30917D02*
X59200Y-31400D01*
X61886Y-30917D02*
X59683Y-30917D01*
X61886Y-31311D02*
X62589Y-31311D01*
X61500Y-21000D02*
X61500Y-21700D01*
X61500Y-21700D02*
X61300Y-21900D01*
X62589Y-31311D02*
X62600Y-31300D01*
X60308Y-31508D02*
X60300Y-31500D01*
X60500Y-21700D02*
X60700Y-21900D01*
X60308Y-31508D02*
X60300Y-31500D01*
X61886Y-31508D02*
X60308Y-31508D01*
X60500Y-21000D02*
X60500Y-21700D01*
X68200Y-27000D02*
X67600Y-27000D01*
X65114Y-31311D02*
X66189Y-31311D01*
X70200Y-27100D02*
X70100Y-27000D01*
X66189Y-31311D02*
X70200Y-27300D01*
X70200Y-27300D02*
X70200Y-27100D01*
X56900Y-26000D02*
X57700Y-25200D01*
X56900Y-26000D02*
X56550Y-26000D01*
X57700Y-25200D02*
X63500Y-25200D01*
X65114Y-31114D02*
X65786Y-31114D01*
X65786Y-31114D02*
X69200Y-27700D01*
X63500Y-25200D02*
X64200Y-25900D01*
X66000Y-25900D02*
X65400Y-25900D01*
X64200Y-25900D02*
X65400Y-25900D01*
X61886Y-31902D02*
X61002Y-31902D01*
X60102Y-31902D02*
X59900Y-31700D01*
X61002Y-31902D02*
X60102Y-31902D01*
X59200Y-30600D02*
X59221Y-30600D01*
X60800Y-30521D02*
X61579Y-30521D01*
X58000Y-31100D02*
X57700Y-30800D01*
X62417Y-30386D02*
X62417Y-30117D01*
X60779Y-30521D02*
X60800Y-30521D01*
X58000Y-31100D02*
X59100Y-31100D01*
X62000Y-30100D02*
X62400Y-30100D01*
X59221Y-30600D02*
X59300Y-30521D01*
X59100Y-31100D02*
X59200Y-31000D01*
X61579Y-30521D02*
X62000Y-30100D01*
X62400Y-30100D02*
X62417Y-30117D01*
X60779Y-30521D02*
X59300Y-30521D01*
X59200Y-31000D02*
X59200Y-30600D01*
X56525Y-34000D02*
X56500Y-33975D01*
X57200Y-34000D02*
X56525Y-34000D01*
G54D40*
X53244Y-34244D02*
X53000Y-34000D01*
X53244Y-35203D02*
X53244Y-34244D01*
X53000Y-34000D02*
X53000Y-33700D01*
X53500Y-34300D02*
X53600Y-34200D01*
X53500Y-35203D02*
X53500Y-34300D01*
X53600Y-34200D02*
X53600Y-33700D01*
G54D36*
X60900Y-31114D02*
X59986Y-31114D01*
X60900Y-31114D02*
X60886Y-31114D01*
X61314Y-31114D02*
X60900Y-31114D01*
X59986Y-31114D02*
X59200Y-31900D01*
X59200Y-31900D02*
X58800Y-31900D01*
X58400Y-31900D02*
X58400Y-31400D01*
X61886Y-31114D02*
X61314Y-31114D01*
X58800Y-31900D02*
X58400Y-31900D01*
G54D41*
X70000Y-21050D02*
X70000Y-21900D01*
G54D37*
X53756Y-34606D02*
X54162Y-34200D01*
G54D36*
X63434Y-28400D02*
X62900Y-28400D01*
X54200Y-34300D02*
X54200Y-34200D01*
G54D39*
X69100Y-36000D02*
X67100Y-36000D01*
G54D35*
X68500Y-32150D02*
X68500Y-31500D01*
G54D37*
X60150Y-29650D02*
X60000Y-29500D01*
G54D39*
X67000Y-36200D02*
X66600Y-36600D01*
G54D40*
X56000Y-23950D02*
X56400Y-23950D01*
G54D39*
X70181Y-36119D02*
X70062Y-36000D01*
G54D42*
X62200Y-36700D02*
X62200Y-36800D01*
G54D36*
X65114Y-32295D02*
X67395Y-32295D01*
G54D40*
X56400Y-23950D02*
X57000Y-23350D01*
G54D39*
X59300Y-36700D02*
X59000Y-37000D01*
G54D41*
X54000Y-29000D02*
X54000Y-30350D01*
G54D39*
X67100Y-36000D02*
X67000Y-35900D01*
G54D41*
X59500Y-28700D02*
X59500Y-27900D01*
G54D36*
X59900Y-36700D02*
X60300Y-36300D01*
G54D39*
X65800Y-24000D02*
X65750Y-23950D01*
G54D36*
X68350Y-32300D02*
X68500Y-32150D01*
G54D41*
X52400Y-33616D02*
X52400Y-34200D01*
G54D36*
X67395Y-32295D02*
X67400Y-32300D01*
X59600Y-36700D02*
X59900Y-36700D01*
G54D41*
X54200Y-34200D02*
X54200Y-33616D01*
G54D37*
X60000Y-29500D02*
X60000Y-29200D01*
G54D39*
X57900Y-37000D02*
X57200Y-36300D01*
X66600Y-36600D02*
X65100Y-36600D01*
G54D37*
X59500Y-28700D02*
X60000Y-29200D01*
G54D36*
X63795Y-29305D02*
X64000Y-29100D01*
G54D35*
X67400Y-32300D02*
X68350Y-32300D01*
G54D36*
X64500Y-28600D02*
X64000Y-29100D01*
G54D40*
X67000Y-24000D02*
X65800Y-24000D01*
G54D39*
X70062Y-36000D02*
X69100Y-36000D01*
G54D36*
X63795Y-29305D02*
X63795Y-30386D01*
G54D39*
X64800Y-36600D02*
X64400Y-37000D01*
G54D37*
X60350Y-29650D02*
X60400Y-29700D01*
G54D39*
X65100Y-23950D02*
X64750Y-23600D01*
X55950Y-24000D02*
X56000Y-23950D01*
G54D37*
X53756Y-35203D02*
X53756Y-34606D01*
G54D41*
X53900Y-27400D02*
X54000Y-27500D01*
G54D39*
X65100Y-36600D02*
X64800Y-36300D01*
X64400Y-37000D02*
X62500Y-37000D01*
G54D41*
X52200Y-27400D02*
X53900Y-27400D01*
X52200Y-21300D02*
X52200Y-21900D01*
G54D37*
X60150Y-29650D02*
X60350Y-29650D01*
X54162Y-34200D02*
X54200Y-34200D01*
G54D40*
X65750Y-23950D02*
X65100Y-23950D01*
G54D41*
X54000Y-30350D02*
X54150Y-30500D01*
G54D39*
X64800Y-36300D02*
X64800Y-36600D01*
X62500Y-37000D02*
X62200Y-36700D01*
G54D41*
X55050Y-30500D02*
X54150Y-30500D01*
X54050Y-30500D02*
X53050Y-31500D01*
G54D39*
X67000Y-35900D02*
X67000Y-36200D01*
G54D38*
X54150Y-30500D02*
X54050Y-30500D01*
G54D42*
X59600Y-36700D02*
X59300Y-36700D01*
G54D39*
X70181Y-36728D02*
X70181Y-36119D01*
G54D40*
X55000Y-24000D02*
X55950Y-24000D01*
G54D36*
X62900Y-28400D02*
X62366Y-28400D01*
X64500Y-28500D02*
X64500Y-28600D01*
G54D39*
X59000Y-37000D02*
X57900Y-37000D01*
G54D41*
X54000Y-27500D02*
X54000Y-29000D01*
G54D39*
X52916Y-33184D02*
X53000Y-33100D01*
G54D36*
X53000Y-33100D02*
X53000Y-32500D01*
X53800Y-31600D02*
X54200Y-31600D01*
X53402Y-32098D02*
X61886Y-32098D01*
X53402Y-32098D02*
X53402Y-31998D01*
X53402Y-31998D02*
X53800Y-31600D01*
X53000Y-32500D02*
X53402Y-32098D01*
G54D39*
X52400Y-33184D02*
X52916Y-33184D01*
G54D42*
X67000Y-35300D02*
X66613Y-35300D01*
X66613Y-35300D02*
X66000Y-35913D01*
G54D37*
X70000Y-20450D02*
X70000Y-19813D01*
G54D42*
X56213Y-35700D02*
X56000Y-35913D01*
X57200Y-35700D02*
X56213Y-35700D01*
G54D39*
X64800Y-35700D02*
X64600Y-35700D01*
X64600Y-35700D02*
X63887Y-36413D01*
X63887Y-36413D02*
X63500Y-36413D01*
G54D42*
X62200Y-36100D02*
X61563Y-36100D01*
X61563Y-36100D02*
X61000Y-36663D01*
X58813Y-36100D02*
X58500Y-36413D01*
X59600Y-36100D02*
X58813Y-36100D01*
G54D37*
X52200Y-19813D02*
X52200Y-20700D01*
G54D36*
X67000Y-26000D02*
X67000Y-27000D01*
G54D39*
X54900Y-33600D02*
X54800Y-33700D01*
X55500Y-33600D02*
X54900Y-33600D01*
G54D37*
X55000Y-26000D02*
X55950Y-26000D01*
G54D36*
X53600Y-32400D02*
X53705Y-32295D01*
X53600Y-33100D02*
X53600Y-32400D01*
G54D39*
X54200Y-33184D02*
X54716Y-33184D01*
G54D36*
X57200Y-32277D02*
X57200Y-32295D01*
X57200Y-32295D02*
X61886Y-32295D01*
G54D39*
X53600Y-33100D02*
X54116Y-33100D01*
X54116Y-33100D02*
X54200Y-33184D01*
X54716Y-33184D02*
X54800Y-33100D01*
G54D36*
X57100Y-32600D02*
X57100Y-32295D01*
X57700Y-31400D02*
X57700Y-31700D01*
X57100Y-32295D02*
X57200Y-32295D01*
X53705Y-32295D02*
X57100Y-32295D01*
X61900Y-27150D02*
X61900Y-28366D01*
X63300Y-28900D02*
X62200Y-28900D01*
X62200Y-28900D02*
X61934Y-28634D01*
X63402Y-30386D02*
X63402Y-29002D01*
X63402Y-29002D02*
X63300Y-28900D01*
X61900Y-28366D02*
X61934Y-28400D01*
X61934Y-28634D02*
X61934Y-28400D01*
X57911Y-32689D02*
X57800Y-32800D01*
X57800Y-32800D02*
X57800Y-34000D01*
X61886Y-32689D02*
X57911Y-32689D01*
X63900Y-28434D02*
X63866Y-28400D01*
X63598Y-30386D02*
X63598Y-29002D01*
X63900Y-28700D02*
X63900Y-28434D01*
X63900Y-28366D02*
X63866Y-28400D01*
X63700Y-28900D02*
X63900Y-28700D01*
X63598Y-29002D02*
X63700Y-28900D01*
X63900Y-27150D02*
X63900Y-28366D01*
X65100Y-28600D02*
X64500Y-29200D01*
X64189Y-30011D02*
X64500Y-29700D01*
X64500Y-29700D02*
X64500Y-29200D01*
X64500Y-29200D02*
X64500Y-29300D01*
X65100Y-28500D02*
X65100Y-28600D01*
X64189Y-30386D02*
X64189Y-30011D01*
G54D10*
G36*
X59389Y-30301D02*
X59300Y-30301D01*
X59257Y-30305D01*
X59239Y-30310D01*
X59218Y-30317D01*
X59216Y-30317D01*
X59216Y-30318D01*
X59178Y-30338D01*
X59153Y-30358D01*
X59146Y-30364D01*
X59145Y-30365D01*
X59144Y-30366D01*
X59108Y-30400D01*
X59078Y-30417D01*
X59053Y-30437D01*
X59046Y-30443D01*
X59045Y-30443D01*
X59045Y-30444D01*
X59040Y-30449D01*
X59018Y-30476D01*
X58998Y-30513D01*
X58997Y-30513D01*
X58997Y-30515D01*
X58984Y-30556D01*
X58980Y-30592D01*
X58980Y-30597D01*
X58980Y-30598D01*
X58980Y-30600D01*
X58980Y-30880D01*
X58832Y-30880D01*
X58832Y-30719D01*
X58832Y-30655D01*
X58824Y-30615D01*
X58809Y-30578D01*
X58786Y-30544D01*
X58758Y-30515D01*
X58724Y-30492D01*
X58687Y-30476D01*
X58647Y-30468D01*
X58606Y-30468D01*
X58481Y-30468D01*
X58430Y-30519D01*
X58430Y-30770D01*
X58781Y-30770D01*
X58832Y-30719D01*
X58832Y-30880D01*
X58831Y-30880D01*
X58781Y-30830D01*
X58480Y-30830D01*
X58430Y-30830D01*
X58370Y-30830D01*
X58370Y-30770D01*
X58370Y-30720D01*
X58370Y-30519D01*
X58319Y-30468D01*
X58194Y-30468D01*
X58153Y-30468D01*
X58113Y-30476D01*
X58076Y-30492D01*
X58042Y-30515D01*
X58022Y-30535D01*
X58006Y-30525D01*
X57975Y-30512D01*
X57943Y-30505D01*
X57909Y-30505D01*
X57458Y-30505D01*
X57425Y-30512D01*
X57395Y-30524D01*
X57367Y-30543D01*
X57343Y-30566D01*
X57325Y-30594D01*
X57312Y-30625D01*
X57305Y-30657D01*
X57305Y-30691D01*
X57305Y-30942D01*
X57312Y-30975D01*
X57324Y-31005D01*
X57343Y-31033D01*
X57366Y-31057D01*
X57394Y-31075D01*
X57425Y-31088D01*
X57457Y-31095D01*
X57491Y-31095D01*
X57683Y-31095D01*
X57693Y-31105D01*
X57458Y-31105D01*
X57425Y-31112D01*
X57395Y-31124D01*
X57367Y-31143D01*
X57343Y-31166D01*
X57325Y-31194D01*
X57312Y-31225D01*
X57305Y-31257D01*
X57305Y-31291D01*
X57305Y-31542D01*
X57312Y-31575D01*
X57324Y-31605D01*
X57343Y-31633D01*
X57357Y-31648D01*
X57355Y-31662D01*
X57355Y-31729D01*
X57367Y-31796D01*
X57392Y-31859D01*
X57404Y-31878D01*
X56857Y-31878D01*
X56857Y-30922D01*
X56857Y-30881D01*
X56857Y-30581D01*
X56806Y-30530D01*
X56380Y-30530D01*
X56380Y-31056D01*
X56431Y-31107D01*
X56670Y-31107D01*
X56710Y-31099D01*
X56747Y-31084D01*
X56781Y-31061D01*
X56810Y-31033D01*
X56833Y-30999D01*
X56849Y-30962D01*
X56857Y-30922D01*
X56857Y-31878D01*
X55086Y-31878D01*
X55088Y-31875D01*
X55095Y-31843D01*
X55095Y-31820D01*
X55498Y-31820D01*
X55500Y-31820D01*
X55541Y-31816D01*
X55543Y-31816D01*
X55578Y-31804D01*
X55581Y-31804D01*
X55581Y-31803D01*
X55584Y-31803D01*
X55595Y-31796D01*
X55620Y-31785D01*
X55622Y-31783D01*
X55653Y-31758D01*
X55655Y-31756D01*
X55656Y-31756D01*
X55854Y-31557D01*
X55855Y-31556D01*
X55882Y-31524D01*
X55883Y-31523D01*
X55888Y-31511D01*
X55902Y-31487D01*
X55902Y-31485D01*
X55915Y-31446D01*
X55915Y-31444D01*
X55920Y-31403D01*
X55920Y-31400D01*
X55920Y-31061D01*
X55953Y-31084D01*
X55990Y-31099D01*
X56030Y-31107D01*
X56269Y-31107D01*
X56320Y-31056D01*
X56320Y-30580D01*
X56320Y-30530D01*
X56320Y-30470D01*
X56380Y-30470D01*
X56430Y-30470D01*
X56806Y-30470D01*
X56857Y-30419D01*
X56857Y-30119D01*
X56857Y-30078D01*
X56849Y-30038D01*
X56833Y-30001D01*
X56810Y-29967D01*
X56781Y-29939D01*
X56752Y-29920D01*
X56797Y-29920D01*
X56800Y-29920D01*
X59008Y-29920D01*
X59389Y-30301D01*
X59389Y-30301D01*
G37*
G54D43*
X59389Y-30301D02*
X59300Y-30301D01*
X59257Y-30305D01*
X59239Y-30310D01*
X59218Y-30317D01*
X59216Y-30317D01*
X59216Y-30318D01*
X59178Y-30338D01*
X59153Y-30358D01*
X59146Y-30364D01*
X59145Y-30365D01*
X59144Y-30366D01*
X59108Y-30400D01*
X59078Y-30417D01*
X59053Y-30437D01*
X59046Y-30443D01*
X59045Y-30443D01*
X59045Y-30444D01*
X59040Y-30449D01*
X59018Y-30476D01*
X58998Y-30513D01*
X58997Y-30513D01*
X58997Y-30515D01*
X58984Y-30556D01*
X58980Y-30592D01*
X58980Y-30597D01*
X58980Y-30598D01*
X58980Y-30600D01*
X58980Y-30880D01*
X58832Y-30880D01*
X58832Y-30719D01*
X58832Y-30655D01*
X58824Y-30615D01*
X58809Y-30578D01*
X58786Y-30544D01*
X58758Y-30515D01*
X58724Y-30492D01*
X58687Y-30476D01*
X58647Y-30468D01*
X58606Y-30468D01*
X58481Y-30468D01*
X58430Y-30519D01*
X58430Y-30770D01*
X58781Y-30770D01*
X58832Y-30719D01*
X58832Y-30880D01*
X58831Y-30880D01*
X58781Y-30830D01*
X58480Y-30830D01*
X58430Y-30830D01*
X58370Y-30830D01*
X58370Y-30770D01*
X58370Y-30720D01*
X58370Y-30519D01*
X58319Y-30468D01*
X58194Y-30468D01*
X58153Y-30468D01*
X58113Y-30476D01*
X58076Y-30492D01*
X58042Y-30515D01*
X58022Y-30535D01*
X58006Y-30525D01*
X57975Y-30512D01*
X57943Y-30505D01*
X57909Y-30505D01*
X57458Y-30505D01*
X57425Y-30512D01*
X57395Y-30524D01*
X57367Y-30543D01*
X57343Y-30566D01*
X57325Y-30594D01*
X57312Y-30625D01*
X57305Y-30657D01*
X57305Y-30691D01*
X57305Y-30942D01*
X57312Y-30975D01*
X57324Y-31005D01*
X57343Y-31033D01*
X57366Y-31057D01*
X57394Y-31075D01*
X57425Y-31088D01*
X57457Y-31095D01*
X57491Y-31095D01*
X57683Y-31095D01*
X57693Y-31105D01*
X57458Y-31105D01*
X57425Y-31112D01*
X57395Y-31124D01*
X57367Y-31143D01*
X57343Y-31166D01*
X57325Y-31194D01*
X57312Y-31225D01*
X57305Y-31257D01*
X57305Y-31291D01*
X57305Y-31542D01*
X57312Y-31575D01*
X57324Y-31605D01*
X57343Y-31633D01*
X57357Y-31648D01*
X57355Y-31662D01*
X57355Y-31729D01*
X57367Y-31796D01*
X57392Y-31859D01*
X57404Y-31878D01*
X56857Y-31878D01*
X56857Y-30922D01*
X56857Y-30881D01*
X56857Y-30581D01*
X56806Y-30530D01*
X56380Y-30530D01*
X56380Y-31056D01*
X56431Y-31107D01*
X56670Y-31107D01*
X56710Y-31099D01*
X56747Y-31084D01*
X56781Y-31061D01*
X56810Y-31033D01*
X56833Y-30999D01*
X56849Y-30962D01*
X56857Y-30922D01*
X56857Y-31878D01*
X55086Y-31878D01*
X55088Y-31875D01*
X55095Y-31843D01*
X55095Y-31820D01*
X55498Y-31820D01*
X55500Y-31820D01*
X55541Y-31816D01*
X55543Y-31816D01*
X55578Y-31804D01*
X55581Y-31804D01*
X55581Y-31803D01*
X55584Y-31803D01*
X55595Y-31796D01*
X55620Y-31785D01*
X55622Y-31783D01*
X55653Y-31758D01*
X55655Y-31756D01*
X55656Y-31756D01*
X55854Y-31557D01*
X55855Y-31556D01*
X55882Y-31524D01*
X55883Y-31523D01*
X55888Y-31511D01*
X55902Y-31487D01*
X55902Y-31485D01*
X55915Y-31446D01*
X55915Y-31444D01*
X55920Y-31403D01*
X55920Y-31400D01*
X55920Y-31061D01*
X55953Y-31084D01*
X55990Y-31099D01*
X56030Y-31107D01*
X56269Y-31107D01*
X56320Y-31056D01*
X56320Y-30580D01*
X56320Y-30530D01*
X56320Y-30470D01*
X56380Y-30470D01*
X56430Y-30470D01*
X56806Y-30470D01*
X56857Y-30419D01*
X56857Y-30119D01*
X56857Y-30078D01*
X56849Y-30038D01*
X56833Y-30001D01*
X56810Y-29967D01*
X56781Y-29939D01*
X56752Y-29920D01*
X56797Y-29920D01*
X56800Y-29920D01*
X59008Y-29920D01*
X59389Y-30301D01*
G54D10*
G36*
X61030Y-29730D02*
X60970Y-29730D01*
X60970Y-29670D01*
X61030Y-29670D01*
X61030Y-29730D01*
X61030Y-29730D01*
G37*
G54D43*
X61030Y-29730D02*
X60970Y-29730D01*
X60970Y-29670D01*
X61030Y-29670D01*
X61030Y-29730D01*
G54D10*
G36*
X70554Y-37354D02*
X70548Y-37354D01*
X70548Y-36943D01*
X70548Y-36909D01*
X70548Y-36514D01*
X70548Y-35487D01*
X70548Y-35453D01*
X70548Y-35058D01*
X70541Y-35025D01*
X70529Y-34995D01*
X70510Y-34967D01*
X70487Y-34943D01*
X70459Y-34925D01*
X70445Y-34919D01*
X70445Y-26966D01*
X70432Y-26900D01*
X70406Y-26837D01*
X70369Y-26781D01*
X70321Y-26733D01*
X70265Y-26695D01*
X70202Y-26669D01*
X70136Y-26655D01*
X70068Y-26655D01*
X70002Y-26667D01*
X69939Y-26693D01*
X69883Y-26730D01*
X69834Y-26777D01*
X69796Y-26833D01*
X69770Y-26895D01*
X69755Y-26962D01*
X69755Y-27029D01*
X69767Y-27096D01*
X69792Y-27159D01*
X69828Y-27215D01*
X69875Y-27264D01*
X69904Y-27284D01*
X69541Y-27647D01*
X69532Y-27600D01*
X69506Y-27537D01*
X69469Y-27481D01*
X69421Y-27433D01*
X69365Y-27395D01*
X69307Y-27371D01*
X69315Y-27346D01*
X69315Y-27343D01*
X69320Y-27303D01*
X69320Y-27301D01*
X69320Y-27300D01*
X69320Y-19978D01*
X69594Y-19704D01*
X69594Y-20066D01*
X69601Y-20099D01*
X69613Y-20129D01*
X69632Y-20157D01*
X69655Y-20181D01*
X69670Y-20190D01*
X69667Y-20193D01*
X69643Y-20216D01*
X69625Y-20244D01*
X69612Y-20275D01*
X69605Y-20307D01*
X69605Y-20341D01*
X69605Y-20592D01*
X69612Y-20625D01*
X69624Y-20655D01*
X69643Y-20683D01*
X69666Y-20707D01*
X69694Y-20725D01*
X69725Y-20738D01*
X69757Y-20745D01*
X69791Y-20745D01*
X69954Y-20745D01*
X69942Y-20746D01*
X69913Y-20755D01*
X69758Y-20755D01*
X69725Y-20762D01*
X69695Y-20774D01*
X69667Y-20793D01*
X69643Y-20816D01*
X69625Y-20844D01*
X69612Y-20875D01*
X69605Y-20907D01*
X69605Y-20941D01*
X69605Y-21192D01*
X69612Y-21225D01*
X69624Y-21255D01*
X69643Y-21283D01*
X69666Y-21307D01*
X69691Y-21323D01*
X69691Y-21744D01*
X69670Y-21795D01*
X69655Y-21862D01*
X69655Y-21929D01*
X69667Y-21996D01*
X69692Y-22059D01*
X69728Y-22115D01*
X69775Y-22164D01*
X69831Y-22203D01*
X69893Y-22230D01*
X69959Y-22244D01*
X70027Y-22246D01*
X70093Y-22234D01*
X70156Y-22209D01*
X70214Y-22173D01*
X70263Y-22126D01*
X70302Y-22071D01*
X70329Y-22009D01*
X70344Y-21943D01*
X70345Y-21866D01*
X70332Y-21800D01*
X70309Y-21744D01*
X70309Y-21323D01*
X70333Y-21307D01*
X70357Y-21284D01*
X70375Y-21256D01*
X70388Y-21225D01*
X70395Y-21193D01*
X70395Y-21159D01*
X70395Y-20908D01*
X70388Y-20875D01*
X70376Y-20845D01*
X70357Y-20817D01*
X70334Y-20793D01*
X70306Y-20775D01*
X70275Y-20762D01*
X70243Y-20755D01*
X70209Y-20755D01*
X70087Y-20755D01*
X70062Y-20747D01*
X70042Y-20745D01*
X70242Y-20745D01*
X70275Y-20738D01*
X70305Y-20726D01*
X70333Y-20707D01*
X70357Y-20684D01*
X70375Y-20656D01*
X70388Y-20625D01*
X70395Y-20593D01*
X70395Y-20559D01*
X70395Y-20308D01*
X70388Y-20275D01*
X70376Y-20245D01*
X70357Y-20217D01*
X70334Y-20193D01*
X70330Y-20190D01*
X70344Y-20181D01*
X70368Y-20158D01*
X70386Y-20130D01*
X70399Y-20099D01*
X70406Y-20067D01*
X70406Y-20033D01*
X70406Y-19560D01*
X70399Y-19527D01*
X70387Y-19497D01*
X70368Y-19469D01*
X70345Y-19445D01*
X70317Y-19427D01*
X70286Y-19414D01*
X70254Y-19407D01*
X70220Y-19407D01*
X69891Y-19407D01*
X69905Y-19393D01*
X70253Y-19393D01*
X70286Y-19386D01*
X70316Y-19374D01*
X70344Y-19355D01*
X70368Y-19332D01*
X70386Y-19304D01*
X70399Y-19273D01*
X70406Y-19241D01*
X70406Y-19207D01*
X70406Y-18734D01*
X70399Y-18701D01*
X70387Y-18671D01*
X70368Y-18643D01*
X70345Y-18619D01*
X70317Y-18601D01*
X70286Y-18588D01*
X70254Y-18581D01*
X70220Y-18581D01*
X69747Y-18581D01*
X69714Y-18588D01*
X69684Y-18600D01*
X69656Y-18619D01*
X69632Y-18642D01*
X69614Y-18670D01*
X69601Y-18701D01*
X69594Y-18733D01*
X69594Y-18767D01*
X69594Y-19081D01*
X69111Y-19564D01*
X69111Y-18802D01*
X69111Y-18800D01*
X69107Y-18761D01*
X69107Y-18759D01*
X69101Y-18742D01*
X69096Y-18721D01*
X69095Y-18720D01*
X69078Y-18686D01*
X69077Y-18685D01*
X69076Y-18683D01*
X69051Y-18653D01*
X69050Y-18651D01*
X69044Y-18646D01*
X68755Y-18357D01*
X68751Y-18352D01*
X68749Y-18351D01*
X68719Y-18326D01*
X68717Y-18325D01*
X68683Y-18306D01*
X68657Y-18298D01*
X68642Y-18293D01*
X68611Y-18289D01*
X68603Y-18289D01*
X68601Y-18289D01*
X68600Y-18289D01*
X52689Y-18289D01*
X52687Y-18289D01*
X52646Y-18293D01*
X52607Y-18305D01*
X52570Y-18324D01*
X52542Y-18346D01*
X52539Y-18349D01*
X52538Y-18350D01*
X52537Y-18351D01*
X52307Y-18581D01*
X51947Y-18581D01*
X51914Y-18588D01*
X51884Y-18600D01*
X51856Y-18619D01*
X51832Y-18642D01*
X51814Y-18670D01*
X51801Y-18701D01*
X51794Y-18733D01*
X51794Y-18767D01*
X51794Y-19240D01*
X51801Y-19273D01*
X51813Y-19303D01*
X51832Y-19331D01*
X51855Y-19355D01*
X51883Y-19373D01*
X51914Y-19386D01*
X51946Y-19393D01*
X51980Y-19393D01*
X52453Y-19393D01*
X52486Y-19386D01*
X52516Y-19374D01*
X52544Y-19355D01*
X52568Y-19332D01*
X52586Y-19304D01*
X52599Y-19273D01*
X52606Y-19241D01*
X52606Y-19207D01*
X52606Y-18879D01*
X52774Y-18711D01*
X56018Y-18711D01*
X56018Y-18744D01*
X56018Y-18919D01*
X56069Y-18970D01*
X56420Y-18970D01*
X56470Y-18970D01*
X56530Y-18970D01*
X56580Y-18970D01*
X56931Y-18970D01*
X56982Y-18919D01*
X56982Y-18744D01*
X56982Y-18711D01*
X57104Y-18711D01*
X57101Y-18714D01*
X57120Y-18733D01*
X57093Y-18742D01*
X57051Y-18825D01*
X57026Y-18916D01*
X57018Y-19009D01*
X57030Y-19103D01*
X57059Y-19192D01*
X57093Y-19258D01*
X57175Y-19282D01*
X57422Y-19035D01*
X57458Y-19000D01*
X57457Y-18999D01*
X57499Y-18957D01*
X57500Y-18958D01*
X57500Y-18957D01*
X57542Y-18999D01*
X57542Y-19000D01*
X57578Y-19035D01*
X57825Y-19282D01*
X57907Y-19258D01*
X57949Y-19175D01*
X57974Y-19084D01*
X57982Y-18991D01*
X57970Y-18897D01*
X57941Y-18808D01*
X57907Y-18742D01*
X57879Y-18733D01*
X57899Y-18714D01*
X57896Y-18711D01*
X58104Y-18711D01*
X58101Y-18714D01*
X58120Y-18733D01*
X58093Y-18742D01*
X58051Y-18825D01*
X58026Y-18916D01*
X58018Y-19009D01*
X58030Y-19103D01*
X58059Y-19192D01*
X58093Y-19258D01*
X58175Y-19282D01*
X58422Y-19035D01*
X58458Y-19000D01*
X58457Y-18999D01*
X58499Y-18957D01*
X58500Y-18958D01*
X58500Y-18957D01*
X58542Y-18999D01*
X58542Y-19000D01*
X58578Y-19035D01*
X58825Y-19282D01*
X58907Y-19258D01*
X58949Y-19175D01*
X58974Y-19084D01*
X58982Y-18991D01*
X58970Y-18897D01*
X58941Y-18808D01*
X58907Y-18742D01*
X58879Y-18733D01*
X58899Y-18714D01*
X58896Y-18711D01*
X59104Y-18711D01*
X59101Y-18714D01*
X59120Y-18733D01*
X59093Y-18742D01*
X59051Y-18825D01*
X59026Y-18916D01*
X59018Y-19009D01*
X59030Y-19103D01*
X59059Y-19192D01*
X59093Y-19258D01*
X59175Y-19282D01*
X59422Y-19035D01*
X59458Y-19000D01*
X59457Y-18999D01*
X59499Y-18957D01*
X59500Y-18958D01*
X59500Y-18957D01*
X59542Y-18999D01*
X59542Y-19000D01*
X59578Y-19035D01*
X59825Y-19282D01*
X59907Y-19258D01*
X59949Y-19175D01*
X59974Y-19084D01*
X59982Y-18991D01*
X59970Y-18897D01*
X59941Y-18808D01*
X59907Y-18742D01*
X59879Y-18733D01*
X59899Y-18714D01*
X59896Y-18711D01*
X60104Y-18711D01*
X60101Y-18714D01*
X60120Y-18733D01*
X60093Y-18742D01*
X60051Y-18825D01*
X60026Y-18916D01*
X60018Y-19009D01*
X60030Y-19103D01*
X60059Y-19192D01*
X60093Y-19258D01*
X60175Y-19282D01*
X60422Y-19035D01*
X60458Y-19000D01*
X60457Y-18999D01*
X60499Y-18957D01*
X60500Y-18958D01*
X60500Y-18957D01*
X60542Y-18999D01*
X60542Y-19000D01*
X60578Y-19035D01*
X60825Y-19282D01*
X60907Y-19258D01*
X60949Y-19175D01*
X60974Y-19084D01*
X60982Y-18991D01*
X60970Y-18897D01*
X60941Y-18808D01*
X60907Y-18742D01*
X60879Y-18733D01*
X60899Y-18714D01*
X60896Y-18711D01*
X61104Y-18711D01*
X61101Y-18714D01*
X61120Y-18733D01*
X61093Y-18742D01*
X61051Y-18825D01*
X61026Y-18916D01*
X61018Y-19009D01*
X61030Y-19103D01*
X61059Y-19192D01*
X61093Y-19258D01*
X61175Y-19282D01*
X61422Y-19035D01*
X61458Y-19000D01*
X61457Y-18999D01*
X61499Y-18957D01*
X61500Y-18958D01*
X61500Y-18957D01*
X61542Y-18999D01*
X61542Y-19000D01*
X61578Y-19035D01*
X61825Y-19282D01*
X61907Y-19258D01*
X61949Y-19175D01*
X61974Y-19084D01*
X61982Y-18991D01*
X61970Y-18897D01*
X61941Y-18808D01*
X61907Y-18742D01*
X61879Y-18733D01*
X61899Y-18714D01*
X61896Y-18711D01*
X62104Y-18711D01*
X62101Y-18714D01*
X62120Y-18733D01*
X62093Y-18742D01*
X62051Y-18825D01*
X62026Y-18916D01*
X62018Y-19009D01*
X62030Y-19103D01*
X62059Y-19192D01*
X62093Y-19258D01*
X62175Y-19282D01*
X62422Y-19035D01*
X62458Y-19000D01*
X62457Y-18999D01*
X62499Y-18957D01*
X62500Y-18958D01*
X62500Y-18957D01*
X62542Y-18999D01*
X62542Y-19000D01*
X62578Y-19035D01*
X62825Y-19282D01*
X62907Y-19258D01*
X62949Y-19175D01*
X62974Y-19084D01*
X62982Y-18991D01*
X62970Y-18897D01*
X62941Y-18808D01*
X62907Y-18742D01*
X62879Y-18733D01*
X62899Y-18714D01*
X62896Y-18711D01*
X63104Y-18711D01*
X63101Y-18714D01*
X63120Y-18733D01*
X63093Y-18742D01*
X63051Y-18825D01*
X63026Y-18916D01*
X63018Y-19009D01*
X63030Y-19103D01*
X63059Y-19192D01*
X63093Y-19258D01*
X63175Y-19282D01*
X63422Y-19035D01*
X63458Y-19000D01*
X63457Y-18999D01*
X63499Y-18957D01*
X63500Y-18958D01*
X63500Y-18957D01*
X63542Y-18999D01*
X63542Y-19000D01*
X63578Y-19035D01*
X63825Y-19282D01*
X63907Y-19258D01*
X63949Y-19175D01*
X63974Y-19084D01*
X63982Y-18991D01*
X63970Y-18897D01*
X63941Y-18808D01*
X63907Y-18742D01*
X63879Y-18733D01*
X63899Y-18714D01*
X63896Y-18711D01*
X64104Y-18711D01*
X64101Y-18714D01*
X64120Y-18733D01*
X64093Y-18742D01*
X64051Y-18825D01*
X64026Y-18916D01*
X64018Y-19009D01*
X64030Y-19103D01*
X64059Y-19192D01*
X64093Y-19258D01*
X64175Y-19282D01*
X64422Y-19035D01*
X64458Y-19000D01*
X64457Y-18999D01*
X64499Y-18957D01*
X64500Y-18958D01*
X64500Y-18957D01*
X64542Y-18999D01*
X64542Y-19000D01*
X64578Y-19035D01*
X64825Y-19282D01*
X64907Y-19258D01*
X64949Y-19175D01*
X64974Y-19084D01*
X64982Y-18991D01*
X64970Y-18897D01*
X64941Y-18808D01*
X64907Y-18742D01*
X64879Y-18733D01*
X64899Y-18714D01*
X64896Y-18711D01*
X65104Y-18711D01*
X65101Y-18714D01*
X65120Y-18733D01*
X65093Y-18742D01*
X65051Y-18825D01*
X65026Y-18916D01*
X65018Y-19009D01*
X65030Y-19103D01*
X65059Y-19192D01*
X65093Y-19258D01*
X65175Y-19282D01*
X65422Y-19035D01*
X65458Y-19000D01*
X65457Y-18999D01*
X65499Y-18957D01*
X65500Y-18958D01*
X65500Y-18957D01*
X65542Y-18999D01*
X65542Y-19000D01*
X65578Y-19035D01*
X65825Y-19282D01*
X65907Y-19258D01*
X65949Y-19175D01*
X65974Y-19084D01*
X65982Y-18991D01*
X65970Y-18897D01*
X65941Y-18808D01*
X65907Y-18742D01*
X65879Y-18733D01*
X65899Y-18714D01*
X65896Y-18711D01*
X68513Y-18711D01*
X68689Y-18887D01*
X68689Y-19641D01*
X68685Y-19654D01*
X68680Y-19697D01*
X68680Y-19700D01*
X68680Y-27108D01*
X68545Y-27243D01*
X68545Y-26966D01*
X68532Y-26900D01*
X68506Y-26837D01*
X68469Y-26781D01*
X68421Y-26733D01*
X68365Y-26695D01*
X68302Y-26669D01*
X68236Y-26655D01*
X68168Y-26655D01*
X68102Y-26667D01*
X68039Y-26693D01*
X67983Y-26730D01*
X67934Y-26777D01*
X67931Y-26780D01*
X67895Y-26780D01*
X67895Y-26758D01*
X67888Y-26725D01*
X67876Y-26695D01*
X67857Y-26667D01*
X67834Y-26643D01*
X67806Y-26625D01*
X67775Y-26612D01*
X67743Y-26605D01*
X67709Y-26605D01*
X67604Y-26605D01*
X67604Y-25049D01*
X67604Y-24957D01*
X67587Y-24867D01*
X67553Y-24782D01*
X67502Y-24705D01*
X67438Y-24639D01*
X67362Y-24587D01*
X67277Y-24551D01*
X67188Y-24532D01*
X67096Y-24530D01*
X66938Y-24530D01*
X66877Y-24469D01*
X66904Y-24470D01*
X67181Y-24469D01*
X67271Y-24451D01*
X67356Y-24416D01*
X67433Y-24365D01*
X67498Y-24300D01*
X67550Y-24224D01*
X67585Y-24139D01*
X67604Y-24049D01*
X67604Y-23957D01*
X67587Y-23867D01*
X67553Y-23782D01*
X67502Y-23705D01*
X67438Y-23639D01*
X67362Y-23587D01*
X67277Y-23551D01*
X67188Y-23532D01*
X67096Y-23530D01*
X66819Y-23531D01*
X66729Y-23549D01*
X66644Y-23584D01*
X66567Y-23635D01*
X66502Y-23700D01*
X66460Y-23760D01*
X66132Y-23760D01*
X66126Y-23745D01*
X66107Y-23717D01*
X66084Y-23693D01*
X66056Y-23675D01*
X66025Y-23662D01*
X65993Y-23655D01*
X65982Y-23655D01*
X65959Y-23655D01*
X65946Y-23655D01*
X65946Y-20956D01*
X65946Y-19956D01*
X65929Y-19870D01*
X65896Y-19789D01*
X65847Y-19717D01*
X65785Y-19655D01*
X65782Y-19652D01*
X65782Y-19325D01*
X65500Y-19042D01*
X65458Y-19084D01*
X65218Y-19325D01*
X65242Y-19407D01*
X65325Y-19449D01*
X65416Y-19474D01*
X65509Y-19482D01*
X65603Y-19470D01*
X65692Y-19441D01*
X65758Y-19407D01*
X65782Y-19325D01*
X65782Y-19652D01*
X65713Y-19606D01*
X65632Y-19572D01*
X65547Y-19554D01*
X65459Y-19554D01*
X65373Y-19570D01*
X65292Y-19603D01*
X65219Y-19651D01*
X65157Y-19712D01*
X65107Y-19784D01*
X65073Y-19865D01*
X65055Y-19950D01*
X65053Y-20038D01*
X65069Y-20124D01*
X65102Y-20205D01*
X65149Y-20279D01*
X65210Y-20341D01*
X65282Y-20391D01*
X65362Y-20426D01*
X65447Y-20445D01*
X65535Y-20447D01*
X65621Y-20432D01*
X65702Y-20400D01*
X65776Y-20353D01*
X65839Y-20293D01*
X65890Y-20221D01*
X65925Y-20141D01*
X65945Y-20056D01*
X65946Y-19956D01*
X65946Y-20956D01*
X65929Y-20870D01*
X65896Y-20789D01*
X65847Y-20717D01*
X65785Y-20655D01*
X65713Y-20606D01*
X65632Y-20572D01*
X65547Y-20554D01*
X65459Y-20554D01*
X65373Y-20570D01*
X65292Y-20603D01*
X65219Y-20651D01*
X65157Y-20712D01*
X65107Y-20784D01*
X65073Y-20865D01*
X65055Y-20950D01*
X65053Y-21038D01*
X65069Y-21124D01*
X65102Y-21205D01*
X65149Y-21279D01*
X65210Y-21341D01*
X65282Y-21391D01*
X65362Y-21426D01*
X65447Y-21445D01*
X65535Y-21447D01*
X65621Y-21432D01*
X65702Y-21400D01*
X65776Y-21353D01*
X65839Y-21293D01*
X65890Y-21221D01*
X65925Y-21141D01*
X65945Y-21056D01*
X65946Y-20956D01*
X65946Y-23655D01*
X65508Y-23655D01*
X65475Y-23662D01*
X65445Y-23674D01*
X65417Y-23693D01*
X65399Y-23710D01*
X65320Y-23710D01*
X65320Y-23283D01*
X65313Y-23250D01*
X65301Y-23220D01*
X65282Y-23192D01*
X65259Y-23168D01*
X65231Y-23150D01*
X65200Y-23137D01*
X65168Y-23130D01*
X65134Y-23130D01*
X64982Y-23130D01*
X64946Y-23130D01*
X64946Y-20956D01*
X64946Y-19956D01*
X64929Y-19870D01*
X64896Y-19789D01*
X64847Y-19717D01*
X64785Y-19655D01*
X64782Y-19652D01*
X64782Y-19325D01*
X64500Y-19042D01*
X64458Y-19084D01*
X64218Y-19325D01*
X64242Y-19407D01*
X64325Y-19449D01*
X64416Y-19474D01*
X64509Y-19482D01*
X64603Y-19470D01*
X64692Y-19441D01*
X64758Y-19407D01*
X64782Y-19325D01*
X64782Y-19652D01*
X64713Y-19606D01*
X64632Y-19572D01*
X64547Y-19554D01*
X64459Y-19554D01*
X64373Y-19570D01*
X64292Y-19603D01*
X64219Y-19651D01*
X64157Y-19712D01*
X64107Y-19784D01*
X64073Y-19865D01*
X64055Y-19950D01*
X64053Y-20038D01*
X64069Y-20124D01*
X64102Y-20205D01*
X64149Y-20279D01*
X64210Y-20341D01*
X64282Y-20391D01*
X64362Y-20426D01*
X64447Y-20445D01*
X64535Y-20447D01*
X64621Y-20432D01*
X64702Y-20400D01*
X64776Y-20353D01*
X64839Y-20293D01*
X64890Y-20221D01*
X64925Y-20141D01*
X64945Y-20056D01*
X64946Y-19956D01*
X64946Y-20956D01*
X64929Y-20870D01*
X64896Y-20789D01*
X64847Y-20717D01*
X64785Y-20655D01*
X64713Y-20606D01*
X64632Y-20572D01*
X64547Y-20554D01*
X64459Y-20554D01*
X64373Y-20570D01*
X64292Y-20603D01*
X64219Y-20651D01*
X64157Y-20712D01*
X64107Y-20784D01*
X64073Y-20865D01*
X64055Y-20950D01*
X64053Y-21038D01*
X64069Y-21124D01*
X64102Y-21205D01*
X64149Y-21279D01*
X64210Y-21341D01*
X64282Y-21391D01*
X64362Y-21426D01*
X64447Y-21445D01*
X64535Y-21447D01*
X64621Y-21432D01*
X64702Y-21400D01*
X64776Y-21353D01*
X64839Y-21293D01*
X64890Y-21221D01*
X64925Y-21141D01*
X64945Y-21056D01*
X64946Y-20956D01*
X64946Y-23130D01*
X64333Y-23130D01*
X64300Y-23137D01*
X64270Y-23149D01*
X64242Y-23168D01*
X64218Y-23191D01*
X64200Y-23219D01*
X64187Y-23250D01*
X64180Y-23282D01*
X64180Y-23316D01*
X64180Y-23917D01*
X64187Y-23950D01*
X64199Y-23980D01*
X64218Y-24008D01*
X64241Y-24032D01*
X64269Y-24050D01*
X64300Y-24063D01*
X64332Y-24070D01*
X64366Y-24070D01*
X64893Y-24070D01*
X64899Y-24081D01*
X64929Y-24118D01*
X64964Y-24148D01*
X65005Y-24171D01*
X65050Y-24185D01*
X65097Y-24190D01*
X65100Y-24190D01*
X65399Y-24190D01*
X65416Y-24207D01*
X65444Y-24225D01*
X65475Y-24238D01*
X65507Y-24245D01*
X65541Y-24245D01*
X65992Y-24245D01*
X66015Y-24240D01*
X66461Y-24240D01*
X66475Y-24261D01*
X66020Y-24261D01*
X65993Y-24255D01*
X65959Y-24255D01*
X65508Y-24255D01*
X65475Y-24262D01*
X65445Y-24274D01*
X65417Y-24293D01*
X65393Y-24316D01*
X65375Y-24344D01*
X65362Y-24375D01*
X65355Y-24407D01*
X65355Y-24441D01*
X65355Y-24536D01*
X65318Y-24573D01*
X65313Y-24550D01*
X65301Y-24520D01*
X65282Y-24492D01*
X65259Y-24468D01*
X65231Y-24450D01*
X65200Y-24437D01*
X65168Y-24430D01*
X65134Y-24430D01*
X64684Y-24430D01*
X64663Y-24412D01*
X64661Y-24410D01*
X64633Y-24395D01*
X64614Y-24384D01*
X64611Y-24383D01*
X64560Y-24367D01*
X64557Y-24366D01*
X64519Y-24362D01*
X64504Y-24361D01*
X64501Y-24361D01*
X64500Y-24361D01*
X63982Y-24361D01*
X63946Y-24361D01*
X63946Y-20956D01*
X63946Y-19956D01*
X63929Y-19870D01*
X63896Y-19789D01*
X63847Y-19717D01*
X63785Y-19655D01*
X63782Y-19652D01*
X63782Y-19325D01*
X63500Y-19042D01*
X63458Y-19084D01*
X63218Y-19325D01*
X63242Y-19407D01*
X63325Y-19449D01*
X63416Y-19474D01*
X63509Y-19482D01*
X63603Y-19470D01*
X63692Y-19441D01*
X63758Y-19407D01*
X63782Y-19325D01*
X63782Y-19652D01*
X63713Y-19606D01*
X63632Y-19572D01*
X63547Y-19554D01*
X63459Y-19554D01*
X63373Y-19570D01*
X63292Y-19603D01*
X63219Y-19651D01*
X63157Y-19712D01*
X63107Y-19784D01*
X63073Y-19865D01*
X63055Y-19950D01*
X63053Y-20038D01*
X63069Y-20124D01*
X63102Y-20205D01*
X63149Y-20279D01*
X63210Y-20341D01*
X63282Y-20391D01*
X63362Y-20426D01*
X63447Y-20445D01*
X63535Y-20447D01*
X63621Y-20432D01*
X63702Y-20400D01*
X63776Y-20353D01*
X63839Y-20293D01*
X63890Y-20221D01*
X63925Y-20141D01*
X63945Y-20056D01*
X63946Y-19956D01*
X63946Y-20956D01*
X63929Y-20870D01*
X63896Y-20789D01*
X63847Y-20717D01*
X63785Y-20655D01*
X63713Y-20606D01*
X63632Y-20572D01*
X63547Y-20554D01*
X63459Y-20554D01*
X63373Y-20570D01*
X63292Y-20603D01*
X63219Y-20651D01*
X63157Y-20712D01*
X63107Y-20784D01*
X63073Y-20865D01*
X63055Y-20950D01*
X63053Y-21038D01*
X63069Y-21124D01*
X63102Y-21205D01*
X63149Y-21279D01*
X63210Y-21341D01*
X63282Y-21391D01*
X63362Y-21426D01*
X63447Y-21445D01*
X63535Y-21447D01*
X63621Y-21432D01*
X63702Y-21400D01*
X63776Y-21353D01*
X63839Y-21293D01*
X63890Y-21221D01*
X63925Y-21141D01*
X63945Y-21056D01*
X63946Y-20956D01*
X63946Y-24361D01*
X62982Y-24361D01*
X62946Y-24361D01*
X62946Y-20956D01*
X62946Y-19956D01*
X62929Y-19870D01*
X62896Y-19789D01*
X62847Y-19717D01*
X62785Y-19655D01*
X62782Y-19652D01*
X62782Y-19325D01*
X62500Y-19042D01*
X62458Y-19084D01*
X62218Y-19325D01*
X62242Y-19407D01*
X62325Y-19449D01*
X62416Y-19474D01*
X62509Y-19482D01*
X62603Y-19470D01*
X62692Y-19441D01*
X62758Y-19407D01*
X62782Y-19325D01*
X62782Y-19652D01*
X62713Y-19606D01*
X62632Y-19572D01*
X62547Y-19554D01*
X62459Y-19554D01*
X62373Y-19570D01*
X62292Y-19603D01*
X62219Y-19651D01*
X62157Y-19712D01*
X62107Y-19784D01*
X62073Y-19865D01*
X62055Y-19950D01*
X62053Y-20038D01*
X62069Y-20124D01*
X62102Y-20205D01*
X62149Y-20279D01*
X62210Y-20341D01*
X62282Y-20391D01*
X62362Y-20426D01*
X62447Y-20445D01*
X62535Y-20447D01*
X62621Y-20432D01*
X62702Y-20400D01*
X62776Y-20353D01*
X62839Y-20293D01*
X62890Y-20221D01*
X62925Y-20141D01*
X62945Y-20056D01*
X62946Y-19956D01*
X62946Y-20956D01*
X62929Y-20870D01*
X62896Y-20789D01*
X62847Y-20717D01*
X62785Y-20655D01*
X62713Y-20606D01*
X62632Y-20572D01*
X62547Y-20554D01*
X62459Y-20554D01*
X62373Y-20570D01*
X62292Y-20603D01*
X62219Y-20651D01*
X62157Y-20712D01*
X62107Y-20784D01*
X62073Y-20865D01*
X62055Y-20950D01*
X62053Y-21038D01*
X62069Y-21124D01*
X62102Y-21205D01*
X62149Y-21279D01*
X62210Y-21341D01*
X62282Y-21391D01*
X62362Y-21426D01*
X62447Y-21445D01*
X62535Y-21447D01*
X62621Y-21432D01*
X62702Y-21400D01*
X62776Y-21353D01*
X62839Y-21293D01*
X62890Y-21221D01*
X62925Y-21141D01*
X62945Y-21056D01*
X62946Y-20956D01*
X62946Y-24361D01*
X62232Y-24361D01*
X62232Y-22147D01*
X62232Y-22106D01*
X62232Y-21981D01*
X62232Y-21819D01*
X62232Y-21694D01*
X62232Y-21653D01*
X62224Y-21613D01*
X62208Y-21576D01*
X62185Y-21542D01*
X62156Y-21514D01*
X62122Y-21491D01*
X62085Y-21476D01*
X62045Y-21468D01*
X61982Y-21468D01*
X61981Y-21468D01*
X61946Y-21503D01*
X61946Y-20956D01*
X61946Y-19956D01*
X61929Y-19870D01*
X61896Y-19789D01*
X61847Y-19717D01*
X61785Y-19655D01*
X61782Y-19652D01*
X61782Y-19325D01*
X61500Y-19042D01*
X61458Y-19084D01*
X61218Y-19325D01*
X61242Y-19407D01*
X61325Y-19449D01*
X61416Y-19474D01*
X61509Y-19482D01*
X61603Y-19470D01*
X61692Y-19441D01*
X61758Y-19407D01*
X61782Y-19325D01*
X61782Y-19652D01*
X61713Y-19606D01*
X61632Y-19572D01*
X61547Y-19554D01*
X61459Y-19554D01*
X61373Y-19570D01*
X61292Y-19603D01*
X61219Y-19651D01*
X61157Y-19712D01*
X61107Y-19784D01*
X61073Y-19865D01*
X61055Y-19950D01*
X61053Y-20038D01*
X61069Y-20124D01*
X61102Y-20205D01*
X61149Y-20279D01*
X61210Y-20341D01*
X61282Y-20391D01*
X61362Y-20426D01*
X61447Y-20445D01*
X61535Y-20447D01*
X61621Y-20432D01*
X61702Y-20400D01*
X61776Y-20353D01*
X61839Y-20293D01*
X61890Y-20221D01*
X61925Y-20141D01*
X61945Y-20056D01*
X61946Y-19956D01*
X61946Y-20956D01*
X61929Y-20870D01*
X61896Y-20789D01*
X61847Y-20717D01*
X61785Y-20655D01*
X61713Y-20606D01*
X61632Y-20572D01*
X61547Y-20554D01*
X61459Y-20554D01*
X61373Y-20570D01*
X61292Y-20603D01*
X61219Y-20651D01*
X61157Y-20712D01*
X61107Y-20784D01*
X61073Y-20865D01*
X61055Y-20950D01*
X61053Y-21038D01*
X61069Y-21124D01*
X61102Y-21205D01*
X61149Y-21279D01*
X61210Y-21341D01*
X61280Y-21389D01*
X61280Y-21505D01*
X61158Y-21505D01*
X61125Y-21512D01*
X61095Y-21524D01*
X61067Y-21543D01*
X61043Y-21566D01*
X61025Y-21594D01*
X61012Y-21625D01*
X61005Y-21657D01*
X61005Y-21691D01*
X61005Y-22142D01*
X61012Y-22175D01*
X61024Y-22205D01*
X61043Y-22233D01*
X61066Y-22257D01*
X61094Y-22275D01*
X61125Y-22288D01*
X61157Y-22295D01*
X61191Y-22295D01*
X61442Y-22295D01*
X61475Y-22288D01*
X61505Y-22276D01*
X61533Y-22257D01*
X61557Y-22234D01*
X61575Y-22206D01*
X61579Y-22195D01*
X61592Y-22224D01*
X61615Y-22258D01*
X61644Y-22286D01*
X61678Y-22309D01*
X61715Y-22324D01*
X61755Y-22332D01*
X61819Y-22332D01*
X61870Y-22281D01*
X61870Y-21980D01*
X61870Y-21930D01*
X61870Y-21870D01*
X61870Y-21820D01*
X61870Y-21519D01*
X61819Y-21468D01*
X61755Y-21468D01*
X61720Y-21475D01*
X61720Y-21388D01*
X61776Y-21353D01*
X61839Y-21293D01*
X61890Y-21221D01*
X61925Y-21141D01*
X61945Y-21056D01*
X61946Y-20956D01*
X61946Y-21503D01*
X61930Y-21519D01*
X61930Y-21870D01*
X62181Y-21870D01*
X62232Y-21819D01*
X62232Y-21981D01*
X62181Y-21930D01*
X61930Y-21930D01*
X61930Y-22281D01*
X61981Y-22332D01*
X62045Y-22332D01*
X62085Y-22324D01*
X62122Y-22309D01*
X62156Y-22286D01*
X62185Y-22258D01*
X62208Y-22224D01*
X62224Y-22187D01*
X62232Y-22147D01*
X62232Y-24361D01*
X60995Y-24361D01*
X60995Y-22143D01*
X60995Y-22109D01*
X60995Y-21658D01*
X60988Y-21625D01*
X60982Y-21610D01*
X60976Y-21595D01*
X60957Y-21567D01*
X60934Y-21543D01*
X60906Y-21525D01*
X60875Y-21512D01*
X60843Y-21505D01*
X60809Y-21505D01*
X60720Y-21505D01*
X60720Y-21388D01*
X60776Y-21353D01*
X60839Y-21293D01*
X60890Y-21221D01*
X60925Y-21141D01*
X60945Y-21056D01*
X60946Y-20956D01*
X60946Y-19956D01*
X60929Y-19870D01*
X60896Y-19789D01*
X60847Y-19717D01*
X60785Y-19655D01*
X60782Y-19652D01*
X60782Y-19325D01*
X60500Y-19042D01*
X60458Y-19084D01*
X60218Y-19325D01*
X60242Y-19407D01*
X60325Y-19449D01*
X60416Y-19474D01*
X60509Y-19482D01*
X60603Y-19470D01*
X60692Y-19441D01*
X60758Y-19407D01*
X60782Y-19325D01*
X60782Y-19652D01*
X60713Y-19606D01*
X60632Y-19572D01*
X60547Y-19554D01*
X60459Y-19554D01*
X60373Y-19570D01*
X60292Y-19603D01*
X60219Y-19651D01*
X60157Y-19712D01*
X60107Y-19784D01*
X60073Y-19865D01*
X60055Y-19950D01*
X60053Y-20038D01*
X60069Y-20124D01*
X60102Y-20205D01*
X60149Y-20279D01*
X60210Y-20341D01*
X60282Y-20391D01*
X60362Y-20426D01*
X60447Y-20445D01*
X60535Y-20447D01*
X60621Y-20432D01*
X60702Y-20400D01*
X60776Y-20353D01*
X60839Y-20293D01*
X60890Y-20221D01*
X60925Y-20141D01*
X60945Y-20056D01*
X60946Y-19956D01*
X60946Y-20956D01*
X60929Y-20870D01*
X60896Y-20789D01*
X60847Y-20717D01*
X60785Y-20655D01*
X60713Y-20606D01*
X60632Y-20572D01*
X60547Y-20554D01*
X60459Y-20554D01*
X60373Y-20570D01*
X60292Y-20603D01*
X60219Y-20651D01*
X60157Y-20712D01*
X60107Y-20784D01*
X60073Y-20865D01*
X60055Y-20950D01*
X60053Y-21038D01*
X60069Y-21124D01*
X60102Y-21205D01*
X60149Y-21279D01*
X60210Y-21341D01*
X60280Y-21389D01*
X60280Y-21475D01*
X60245Y-21468D01*
X60181Y-21468D01*
X60130Y-21519D01*
X60130Y-21820D01*
X60130Y-21870D01*
X60130Y-21930D01*
X60130Y-21980D01*
X60130Y-22281D01*
X60181Y-22332D01*
X60245Y-22332D01*
X60285Y-22324D01*
X60322Y-22309D01*
X60356Y-22286D01*
X60385Y-22258D01*
X60408Y-22224D01*
X60420Y-22195D01*
X60424Y-22205D01*
X60443Y-22233D01*
X60466Y-22257D01*
X60494Y-22275D01*
X60525Y-22288D01*
X60557Y-22295D01*
X60591Y-22295D01*
X60842Y-22295D01*
X60875Y-22288D01*
X60905Y-22276D01*
X60933Y-22257D01*
X60957Y-22234D01*
X60975Y-22206D01*
X60988Y-22175D01*
X60995Y-22143D01*
X60995Y-24361D01*
X60070Y-24361D01*
X60070Y-22281D01*
X60070Y-21930D01*
X60070Y-21870D01*
X60070Y-21519D01*
X60019Y-21468D01*
X59982Y-21468D01*
X59955Y-21468D01*
X59946Y-21469D01*
X59946Y-20956D01*
X59946Y-19956D01*
X59929Y-19870D01*
X59896Y-19789D01*
X59847Y-19717D01*
X59785Y-19655D01*
X59782Y-19652D01*
X59782Y-19325D01*
X59500Y-19042D01*
X59458Y-19084D01*
X59218Y-19325D01*
X59242Y-19407D01*
X59325Y-19449D01*
X59416Y-19474D01*
X59509Y-19482D01*
X59603Y-19470D01*
X59692Y-19441D01*
X59758Y-19407D01*
X59782Y-19325D01*
X59782Y-19652D01*
X59713Y-19606D01*
X59632Y-19572D01*
X59547Y-19554D01*
X59459Y-19554D01*
X59373Y-19570D01*
X59292Y-19603D01*
X59219Y-19651D01*
X59157Y-19712D01*
X59107Y-19784D01*
X59073Y-19865D01*
X59055Y-19950D01*
X59053Y-20038D01*
X59069Y-20124D01*
X59102Y-20205D01*
X59149Y-20279D01*
X59210Y-20341D01*
X59282Y-20391D01*
X59362Y-20426D01*
X59447Y-20445D01*
X59535Y-20447D01*
X59621Y-20432D01*
X59702Y-20400D01*
X59776Y-20353D01*
X59839Y-20293D01*
X59890Y-20221D01*
X59925Y-20141D01*
X59945Y-20056D01*
X59946Y-19956D01*
X59946Y-20956D01*
X59929Y-20870D01*
X59896Y-20789D01*
X59847Y-20717D01*
X59785Y-20655D01*
X59713Y-20606D01*
X59632Y-20572D01*
X59547Y-20554D01*
X59459Y-20554D01*
X59373Y-20570D01*
X59292Y-20603D01*
X59219Y-20651D01*
X59157Y-20712D01*
X59107Y-20784D01*
X59073Y-20865D01*
X59055Y-20950D01*
X59053Y-21038D01*
X59069Y-21124D01*
X59102Y-21205D01*
X59149Y-21279D01*
X59210Y-21341D01*
X59282Y-21391D01*
X59362Y-21426D01*
X59447Y-21445D01*
X59535Y-21447D01*
X59621Y-21432D01*
X59702Y-21400D01*
X59776Y-21353D01*
X59839Y-21293D01*
X59890Y-21221D01*
X59925Y-21141D01*
X59945Y-21056D01*
X59946Y-20956D01*
X59946Y-21469D01*
X59915Y-21476D01*
X59878Y-21491D01*
X59844Y-21514D01*
X59815Y-21542D01*
X59792Y-21576D01*
X59776Y-21613D01*
X59768Y-21653D01*
X59768Y-21694D01*
X59768Y-21819D01*
X59819Y-21870D01*
X60070Y-21870D01*
X60070Y-21930D01*
X59819Y-21930D01*
X59768Y-21981D01*
X59768Y-22106D01*
X59768Y-22147D01*
X59776Y-22187D01*
X59792Y-22224D01*
X59815Y-22258D01*
X59844Y-22286D01*
X59878Y-22309D01*
X59915Y-22324D01*
X59955Y-22332D01*
X60019Y-22332D01*
X60070Y-22281D01*
X60070Y-24361D01*
X58982Y-24361D01*
X58946Y-24361D01*
X58946Y-20956D01*
X58946Y-19956D01*
X58929Y-19870D01*
X58896Y-19789D01*
X58847Y-19717D01*
X58785Y-19655D01*
X58782Y-19652D01*
X58782Y-19325D01*
X58500Y-19042D01*
X58458Y-19084D01*
X58218Y-19325D01*
X58242Y-19407D01*
X58325Y-19449D01*
X58416Y-19474D01*
X58509Y-19482D01*
X58603Y-19470D01*
X58692Y-19441D01*
X58758Y-19407D01*
X58782Y-19325D01*
X58782Y-19652D01*
X58713Y-19606D01*
X58632Y-19572D01*
X58547Y-19554D01*
X58459Y-19554D01*
X58373Y-19570D01*
X58292Y-19603D01*
X58219Y-19651D01*
X58157Y-19712D01*
X58107Y-19784D01*
X58073Y-19865D01*
X58055Y-19950D01*
X58053Y-20038D01*
X58069Y-20124D01*
X58102Y-20205D01*
X58149Y-20279D01*
X58210Y-20341D01*
X58282Y-20391D01*
X58362Y-20426D01*
X58447Y-20445D01*
X58535Y-20447D01*
X58621Y-20432D01*
X58702Y-20400D01*
X58776Y-20353D01*
X58839Y-20293D01*
X58890Y-20221D01*
X58925Y-20141D01*
X58945Y-20056D01*
X58946Y-19956D01*
X58946Y-20956D01*
X58929Y-20870D01*
X58896Y-20789D01*
X58847Y-20717D01*
X58785Y-20655D01*
X58713Y-20606D01*
X58632Y-20572D01*
X58547Y-20554D01*
X58459Y-20554D01*
X58373Y-20570D01*
X58292Y-20603D01*
X58219Y-20651D01*
X58157Y-20712D01*
X58107Y-20784D01*
X58073Y-20865D01*
X58055Y-20950D01*
X58053Y-21038D01*
X58069Y-21124D01*
X58102Y-21205D01*
X58149Y-21279D01*
X58210Y-21341D01*
X58282Y-21391D01*
X58362Y-21426D01*
X58447Y-21445D01*
X58535Y-21447D01*
X58621Y-21432D01*
X58702Y-21400D01*
X58776Y-21353D01*
X58839Y-21293D01*
X58890Y-21221D01*
X58925Y-21141D01*
X58945Y-21056D01*
X58946Y-20956D01*
X58946Y-24361D01*
X57982Y-24361D01*
X57946Y-24361D01*
X57946Y-20956D01*
X57946Y-19956D01*
X57929Y-19870D01*
X57896Y-19789D01*
X57847Y-19717D01*
X57785Y-19655D01*
X57782Y-19652D01*
X57782Y-19325D01*
X57500Y-19042D01*
X57458Y-19084D01*
X57218Y-19325D01*
X57242Y-19407D01*
X57325Y-19449D01*
X57416Y-19474D01*
X57509Y-19482D01*
X57603Y-19470D01*
X57692Y-19441D01*
X57758Y-19407D01*
X57782Y-19325D01*
X57782Y-19652D01*
X57713Y-19606D01*
X57632Y-19572D01*
X57547Y-19554D01*
X57459Y-19554D01*
X57373Y-19570D01*
X57292Y-19603D01*
X57219Y-19651D01*
X57157Y-19712D01*
X57107Y-19784D01*
X57073Y-19865D01*
X57055Y-19950D01*
X57053Y-20038D01*
X57069Y-20124D01*
X57102Y-20205D01*
X57149Y-20279D01*
X57210Y-20341D01*
X57282Y-20391D01*
X57362Y-20426D01*
X57447Y-20445D01*
X57535Y-20447D01*
X57621Y-20432D01*
X57702Y-20400D01*
X57776Y-20353D01*
X57839Y-20293D01*
X57890Y-20221D01*
X57925Y-20141D01*
X57945Y-20056D01*
X57946Y-19956D01*
X57946Y-20956D01*
X57929Y-20870D01*
X57896Y-20789D01*
X57847Y-20717D01*
X57785Y-20655D01*
X57713Y-20606D01*
X57632Y-20572D01*
X57547Y-20554D01*
X57459Y-20554D01*
X57373Y-20570D01*
X57292Y-20603D01*
X57219Y-20651D01*
X57157Y-20712D01*
X57107Y-20784D01*
X57073Y-20865D01*
X57055Y-20950D01*
X57053Y-21038D01*
X57069Y-21124D01*
X57102Y-21205D01*
X57149Y-21279D01*
X57210Y-21341D01*
X57282Y-21391D01*
X57362Y-21426D01*
X57447Y-21445D01*
X57535Y-21447D01*
X57621Y-21432D01*
X57702Y-21400D01*
X57776Y-21353D01*
X57839Y-21293D01*
X57890Y-21221D01*
X57925Y-21141D01*
X57945Y-21056D01*
X57946Y-20956D01*
X57946Y-24361D01*
X57570Y-24361D01*
X57570Y-24333D01*
X57570Y-23668D01*
X57570Y-23634D01*
X57570Y-23033D01*
X57563Y-23000D01*
X57551Y-22970D01*
X57532Y-22942D01*
X57509Y-22918D01*
X57481Y-22900D01*
X57450Y-22887D01*
X57418Y-22880D01*
X57384Y-22880D01*
X56982Y-22880D01*
X56982Y-19297D01*
X56982Y-19256D01*
X56982Y-19081D01*
X56931Y-19030D01*
X56530Y-19030D01*
X56530Y-19431D01*
X56581Y-19482D01*
X56795Y-19482D01*
X56835Y-19474D01*
X56872Y-19459D01*
X56906Y-19436D01*
X56935Y-19408D01*
X56958Y-19374D01*
X56974Y-19337D01*
X56982Y-19297D01*
X56982Y-22880D01*
X56945Y-22880D01*
X56945Y-21293D01*
X56945Y-21259D01*
X56945Y-20708D01*
X56945Y-20293D01*
X56945Y-20259D01*
X56945Y-19708D01*
X56938Y-19675D01*
X56926Y-19645D01*
X56907Y-19617D01*
X56884Y-19593D01*
X56856Y-19575D01*
X56825Y-19562D01*
X56793Y-19555D01*
X56759Y-19555D01*
X56470Y-19555D01*
X56470Y-19431D01*
X56470Y-19030D01*
X56069Y-19030D01*
X56018Y-19081D01*
X56018Y-19256D01*
X56018Y-19297D01*
X56026Y-19337D01*
X56042Y-19374D01*
X56065Y-19408D01*
X56094Y-19436D01*
X56128Y-19459D01*
X56165Y-19474D01*
X56205Y-19482D01*
X56419Y-19482D01*
X56470Y-19431D01*
X56470Y-19555D01*
X56208Y-19555D01*
X56175Y-19562D01*
X56145Y-19574D01*
X56117Y-19593D01*
X56093Y-19616D01*
X56075Y-19644D01*
X56062Y-19675D01*
X56055Y-19707D01*
X56055Y-19741D01*
X56055Y-20292D01*
X56062Y-20325D01*
X56074Y-20355D01*
X56093Y-20383D01*
X56116Y-20407D01*
X56144Y-20425D01*
X56175Y-20438D01*
X56207Y-20445D01*
X56241Y-20445D01*
X56792Y-20445D01*
X56825Y-20438D01*
X56855Y-20426D01*
X56883Y-20407D01*
X56907Y-20384D01*
X56925Y-20356D01*
X56938Y-20325D01*
X56945Y-20293D01*
X56945Y-20708D01*
X56938Y-20675D01*
X56926Y-20645D01*
X56907Y-20617D01*
X56884Y-20593D01*
X56856Y-20575D01*
X56825Y-20562D01*
X56793Y-20555D01*
X56759Y-20555D01*
X56208Y-20555D01*
X56175Y-20562D01*
X56145Y-20574D01*
X56117Y-20593D01*
X56093Y-20616D01*
X56075Y-20644D01*
X56062Y-20675D01*
X56055Y-20707D01*
X56055Y-20741D01*
X56055Y-21292D01*
X56062Y-21325D01*
X56074Y-21355D01*
X56093Y-21383D01*
X56116Y-21407D01*
X56144Y-21425D01*
X56175Y-21438D01*
X56207Y-21445D01*
X56241Y-21445D01*
X56792Y-21445D01*
X56825Y-21438D01*
X56855Y-21426D01*
X56883Y-21407D01*
X56907Y-21384D01*
X56925Y-21356D01*
X56938Y-21325D01*
X56945Y-21293D01*
X56945Y-22880D01*
X56583Y-22880D01*
X56550Y-22887D01*
X56520Y-22899D01*
X56492Y-22918D01*
X56468Y-22941D01*
X56450Y-22969D01*
X56437Y-23000D01*
X56430Y-23032D01*
X56430Y-23066D01*
X56430Y-23580D01*
X56323Y-23686D01*
X56306Y-23675D01*
X56275Y-23662D01*
X56243Y-23655D01*
X56209Y-23655D01*
X55758Y-23655D01*
X55725Y-23662D01*
X55695Y-23674D01*
X55667Y-23693D01*
X55643Y-23716D01*
X55625Y-23744D01*
X55618Y-23760D01*
X55603Y-23760D01*
X55603Y-23683D01*
X55596Y-23650D01*
X55584Y-23620D01*
X55565Y-23592D01*
X55542Y-23568D01*
X55514Y-23550D01*
X55483Y-23537D01*
X55451Y-23530D01*
X55417Y-23530D01*
X54550Y-23530D01*
X54517Y-23537D01*
X54487Y-23549D01*
X54459Y-23568D01*
X54435Y-23591D01*
X54417Y-23619D01*
X54404Y-23650D01*
X54397Y-23682D01*
X54397Y-23716D01*
X54397Y-24317D01*
X54404Y-24350D01*
X54416Y-24380D01*
X54435Y-24408D01*
X54458Y-24432D01*
X54486Y-24450D01*
X54517Y-24463D01*
X54549Y-24470D01*
X54583Y-24470D01*
X55450Y-24470D01*
X55483Y-24463D01*
X55513Y-24451D01*
X55541Y-24432D01*
X55565Y-24409D01*
X55583Y-24381D01*
X55596Y-24350D01*
X55603Y-24318D01*
X55603Y-24284D01*
X55603Y-24240D01*
X55734Y-24240D01*
X55757Y-24245D01*
X55791Y-24245D01*
X56242Y-24245D01*
X56275Y-24238D01*
X56305Y-24226D01*
X56333Y-24207D01*
X56350Y-24190D01*
X56398Y-24190D01*
X56400Y-24190D01*
X56408Y-24189D01*
X56444Y-24186D01*
X56447Y-24185D01*
X56489Y-24173D01*
X56491Y-24172D01*
X56531Y-24152D01*
X56533Y-24150D01*
X56568Y-24122D01*
X56569Y-24120D01*
X56570Y-24120D01*
X56869Y-23820D01*
X57417Y-23820D01*
X57450Y-23813D01*
X57480Y-23801D01*
X57508Y-23782D01*
X57532Y-23759D01*
X57550Y-23731D01*
X57563Y-23700D01*
X57570Y-23668D01*
X57570Y-24333D01*
X57563Y-24300D01*
X57551Y-24270D01*
X57532Y-24242D01*
X57509Y-24218D01*
X57481Y-24200D01*
X57450Y-24187D01*
X57418Y-24180D01*
X57384Y-24180D01*
X56583Y-24180D01*
X56550Y-24187D01*
X56520Y-24199D01*
X56492Y-24218D01*
X56468Y-24241D01*
X56455Y-24261D01*
X56270Y-24261D01*
X56243Y-24255D01*
X56209Y-24255D01*
X55758Y-24255D01*
X55725Y-24262D01*
X55695Y-24274D01*
X55667Y-24293D01*
X55643Y-24316D01*
X55625Y-24344D01*
X55612Y-24375D01*
X55605Y-24407D01*
X55605Y-24441D01*
X55605Y-24536D01*
X55469Y-24671D01*
X55438Y-24639D01*
X55362Y-24587D01*
X55277Y-24551D01*
X55188Y-24532D01*
X55096Y-24530D01*
X54819Y-24531D01*
X54729Y-24549D01*
X54644Y-24584D01*
X54567Y-24635D01*
X54502Y-24700D01*
X54450Y-24776D01*
X54415Y-24861D01*
X54396Y-24951D01*
X54396Y-25043D01*
X54413Y-25133D01*
X54447Y-25218D01*
X54498Y-25295D01*
X54562Y-25361D01*
X54638Y-25413D01*
X54723Y-25449D01*
X54812Y-25468D01*
X54904Y-25470D01*
X55181Y-25469D01*
X55271Y-25451D01*
X55356Y-25416D01*
X55433Y-25365D01*
X55498Y-25300D01*
X55505Y-25289D01*
X55550Y-25289D01*
X55584Y-25285D01*
X55603Y-25284D01*
X55606Y-25283D01*
X55657Y-25269D01*
X55660Y-25267D01*
X55708Y-25243D01*
X55710Y-25241D01*
X55752Y-25207D01*
X55752Y-25206D01*
X55754Y-25205D01*
X55754Y-25204D01*
X55759Y-25198D01*
X56113Y-24845D01*
X56242Y-24845D01*
X56270Y-24839D01*
X56430Y-24839D01*
X56430Y-24967D01*
X56437Y-25000D01*
X56449Y-25030D01*
X56468Y-25058D01*
X56491Y-25082D01*
X56519Y-25100D01*
X56550Y-25113D01*
X56582Y-25120D01*
X56616Y-25120D01*
X57417Y-25120D01*
X57450Y-25113D01*
X57480Y-25101D01*
X57504Y-25084D01*
X56842Y-25745D01*
X56838Y-25725D01*
X56826Y-25695D01*
X56807Y-25667D01*
X56784Y-25643D01*
X56756Y-25625D01*
X56725Y-25612D01*
X56693Y-25605D01*
X56659Y-25605D01*
X56408Y-25605D01*
X56375Y-25612D01*
X56345Y-25624D01*
X56317Y-25643D01*
X56293Y-25666D01*
X56275Y-25694D01*
X56262Y-25725D01*
X56255Y-25757D01*
X56255Y-25791D01*
X56255Y-26242D01*
X56262Y-26275D01*
X56274Y-26305D01*
X56293Y-26333D01*
X56316Y-26357D01*
X56344Y-26375D01*
X56375Y-26388D01*
X56407Y-26395D01*
X56441Y-26395D01*
X56692Y-26395D01*
X56725Y-26388D01*
X56755Y-26376D01*
X56783Y-26357D01*
X56807Y-26334D01*
X56825Y-26306D01*
X56838Y-26275D01*
X56845Y-26243D01*
X56845Y-26220D01*
X56898Y-26220D01*
X56900Y-26220D01*
X56941Y-26216D01*
X56943Y-26216D01*
X56978Y-26204D01*
X56981Y-26204D01*
X56981Y-26203D01*
X56984Y-26203D01*
X56995Y-26196D01*
X57020Y-26185D01*
X57022Y-26183D01*
X57053Y-26158D01*
X57055Y-26156D01*
X57056Y-26156D01*
X57791Y-25420D01*
X63408Y-25420D01*
X64043Y-26054D01*
X64044Y-26055D01*
X64049Y-26059D01*
X64076Y-26082D01*
X64077Y-26082D01*
X64113Y-26102D01*
X64115Y-26102D01*
X64154Y-26115D01*
X64156Y-26115D01*
X64197Y-26120D01*
X64200Y-26120D01*
X65397Y-26120D01*
X65400Y-26120D01*
X65732Y-26120D01*
X65775Y-26164D01*
X65831Y-26203D01*
X65893Y-26230D01*
X65959Y-26244D01*
X66027Y-26246D01*
X66093Y-26234D01*
X66156Y-26209D01*
X66214Y-26173D01*
X66263Y-26126D01*
X66302Y-26071D01*
X66329Y-26009D01*
X66344Y-25943D01*
X66345Y-25866D01*
X66332Y-25800D01*
X66306Y-25737D01*
X66269Y-25681D01*
X66221Y-25633D01*
X66165Y-25595D01*
X66102Y-25569D01*
X66036Y-25555D01*
X65968Y-25555D01*
X65902Y-25567D01*
X65839Y-25593D01*
X65783Y-25630D01*
X65734Y-25677D01*
X65731Y-25680D01*
X65403Y-25680D01*
X65400Y-25680D01*
X64291Y-25680D01*
X63657Y-25046D01*
X63656Y-25044D01*
X63634Y-25027D01*
X63624Y-25018D01*
X63622Y-25017D01*
X63587Y-24998D01*
X63584Y-24997D01*
X63546Y-24985D01*
X63543Y-24984D01*
X63512Y-24981D01*
X63503Y-24980D01*
X63501Y-24980D01*
X63500Y-24980D01*
X57702Y-24980D01*
X57700Y-24980D01*
X57657Y-24984D01*
X57633Y-24991D01*
X57618Y-24996D01*
X57616Y-24996D01*
X57616Y-24997D01*
X57578Y-25017D01*
X57553Y-25037D01*
X57546Y-25043D01*
X57545Y-25044D01*
X57544Y-25045D01*
X57535Y-25053D01*
X57550Y-25031D01*
X57563Y-25000D01*
X57570Y-24968D01*
X57570Y-24939D01*
X64180Y-24939D01*
X64180Y-25217D01*
X64187Y-25250D01*
X64199Y-25280D01*
X64218Y-25308D01*
X64241Y-25332D01*
X64269Y-25350D01*
X64300Y-25363D01*
X64332Y-25370D01*
X64366Y-25370D01*
X65167Y-25370D01*
X65200Y-25363D01*
X65230Y-25351D01*
X65258Y-25332D01*
X65282Y-25309D01*
X65300Y-25281D01*
X65313Y-25250D01*
X65320Y-25218D01*
X65320Y-25189D01*
X65400Y-25189D01*
X65434Y-25185D01*
X65453Y-25184D01*
X65456Y-25183D01*
X65507Y-25169D01*
X65510Y-25167D01*
X65558Y-25143D01*
X65560Y-25141D01*
X65602Y-25107D01*
X65602Y-25106D01*
X65604Y-25105D01*
X65604Y-25104D01*
X65609Y-25098D01*
X65863Y-24845D01*
X65992Y-24845D01*
X66020Y-24839D01*
X66424Y-24839D01*
X66415Y-24861D01*
X66396Y-24951D01*
X66396Y-25043D01*
X66413Y-25133D01*
X66447Y-25218D01*
X66498Y-25295D01*
X66562Y-25361D01*
X66638Y-25413D01*
X66723Y-25449D01*
X66812Y-25468D01*
X66904Y-25470D01*
X67181Y-25469D01*
X67271Y-25451D01*
X67356Y-25416D01*
X67433Y-25365D01*
X67498Y-25300D01*
X67550Y-25224D01*
X67585Y-25139D01*
X67604Y-25049D01*
X67604Y-26605D01*
X67603Y-26605D01*
X67603Y-26318D01*
X67603Y-26284D01*
X67603Y-25683D01*
X67596Y-25650D01*
X67584Y-25620D01*
X67565Y-25592D01*
X67542Y-25568D01*
X67514Y-25550D01*
X67483Y-25537D01*
X67451Y-25530D01*
X67417Y-25530D01*
X66550Y-25530D01*
X66517Y-25537D01*
X66487Y-25549D01*
X66459Y-25568D01*
X66435Y-25591D01*
X66417Y-25619D01*
X66404Y-25650D01*
X66397Y-25682D01*
X66397Y-25716D01*
X66397Y-26317D01*
X66404Y-26350D01*
X66416Y-26380D01*
X66435Y-26408D01*
X66458Y-26432D01*
X66486Y-26450D01*
X66517Y-26463D01*
X66549Y-26470D01*
X66583Y-26470D01*
X66780Y-26470D01*
X66780Y-26634D01*
X66767Y-26643D01*
X66743Y-26666D01*
X66725Y-26694D01*
X66712Y-26725D01*
X66705Y-26757D01*
X66705Y-26791D01*
X66705Y-27242D01*
X66712Y-27275D01*
X66724Y-27305D01*
X66743Y-27333D01*
X66766Y-27357D01*
X66794Y-27375D01*
X66825Y-27388D01*
X66857Y-27395D01*
X66891Y-27395D01*
X67142Y-27395D01*
X67175Y-27388D01*
X67205Y-27376D01*
X67233Y-27357D01*
X67257Y-27334D01*
X67275Y-27306D01*
X67288Y-27275D01*
X67295Y-27243D01*
X67295Y-27209D01*
X67295Y-26758D01*
X67288Y-26725D01*
X67276Y-26695D01*
X67257Y-26667D01*
X67234Y-26643D01*
X67220Y-26634D01*
X67220Y-26470D01*
X67450Y-26470D01*
X67483Y-26463D01*
X67513Y-26451D01*
X67541Y-26432D01*
X67565Y-26409D01*
X67583Y-26381D01*
X67596Y-26350D01*
X67603Y-26318D01*
X67603Y-26605D01*
X67458Y-26605D01*
X67425Y-26612D01*
X67395Y-26624D01*
X67367Y-26643D01*
X67343Y-26666D01*
X67325Y-26694D01*
X67312Y-26725D01*
X67305Y-26757D01*
X67305Y-26791D01*
X67305Y-27242D01*
X67312Y-27275D01*
X67324Y-27305D01*
X67343Y-27333D01*
X67366Y-27357D01*
X67394Y-27375D01*
X67425Y-27388D01*
X67457Y-27395D01*
X67491Y-27395D01*
X67742Y-27395D01*
X67775Y-27388D01*
X67805Y-27376D01*
X67833Y-27357D01*
X67857Y-27334D01*
X67875Y-27306D01*
X67888Y-27275D01*
X67895Y-27243D01*
X67895Y-27220D01*
X67932Y-27220D01*
X67975Y-27264D01*
X68031Y-27303D01*
X68093Y-27330D01*
X68159Y-27344D01*
X68227Y-27346D01*
X68293Y-27334D01*
X68356Y-27309D01*
X68414Y-27273D01*
X68463Y-27226D01*
X68502Y-27171D01*
X68529Y-27109D01*
X68544Y-27043D01*
X68545Y-26966D01*
X68545Y-27243D01*
X66208Y-29580D01*
X65362Y-29580D01*
X65385Y-29558D01*
X65408Y-29524D01*
X65424Y-29487D01*
X65432Y-29447D01*
X65432Y-29406D01*
X65432Y-29281D01*
X65381Y-29230D01*
X65180Y-29230D01*
X65130Y-29230D01*
X65070Y-29230D01*
X65070Y-29170D01*
X65130Y-29170D01*
X65180Y-29170D01*
X65381Y-29170D01*
X65432Y-29119D01*
X65432Y-28994D01*
X65432Y-28953D01*
X65424Y-28913D01*
X65408Y-28876D01*
X65385Y-28842D01*
X65364Y-28822D01*
X65375Y-28806D01*
X65388Y-28775D01*
X65395Y-28743D01*
X65395Y-28709D01*
X65395Y-28258D01*
X65388Y-28225D01*
X65376Y-28195D01*
X65357Y-28167D01*
X65334Y-28143D01*
X65306Y-28125D01*
X65275Y-28112D01*
X65243Y-28105D01*
X65209Y-28105D01*
X64958Y-28105D01*
X64925Y-28112D01*
X64895Y-28124D01*
X64867Y-28143D01*
X64843Y-28166D01*
X64825Y-28194D01*
X64812Y-28225D01*
X64805Y-28257D01*
X64805Y-28291D01*
X64805Y-28583D01*
X64795Y-28593D01*
X64795Y-28258D01*
X64788Y-28225D01*
X64776Y-28195D01*
X64757Y-28167D01*
X64734Y-28143D01*
X64706Y-28125D01*
X64675Y-28112D01*
X64643Y-28105D01*
X64609Y-28105D01*
X64358Y-28105D01*
X64325Y-28112D01*
X64295Y-28124D01*
X64267Y-28143D01*
X64243Y-28166D01*
X64225Y-28194D01*
X64212Y-28225D01*
X64205Y-28257D01*
X64205Y-28291D01*
X64205Y-28583D01*
X64174Y-28613D01*
X64186Y-28587D01*
X64193Y-28555D01*
X64193Y-28521D01*
X64193Y-28246D01*
X64186Y-28213D01*
X64174Y-28183D01*
X64155Y-28155D01*
X64132Y-28131D01*
X64120Y-28123D01*
X64120Y-27668D01*
X64155Y-27655D01*
X64248Y-27596D01*
X64328Y-27520D01*
X64392Y-27430D01*
X64437Y-27329D01*
X64461Y-27221D01*
X64463Y-27095D01*
X64442Y-26987D01*
X64400Y-26885D01*
X64338Y-26793D01*
X64261Y-26714D01*
X64169Y-26652D01*
X64067Y-26610D01*
X63959Y-26587D01*
X63849Y-26587D01*
X63740Y-26607D01*
X63638Y-26649D01*
X63546Y-26709D01*
X63467Y-26786D01*
X63404Y-26877D01*
X63361Y-26979D01*
X63338Y-27087D01*
X63336Y-27197D01*
X63356Y-27306D01*
X63397Y-27408D01*
X63457Y-27501D01*
X63533Y-27581D01*
X63624Y-27644D01*
X63680Y-27668D01*
X63680Y-28095D01*
X63659Y-28100D01*
X63649Y-28103D01*
X63641Y-28100D01*
X63609Y-28093D01*
X63575Y-28093D01*
X63260Y-28093D01*
X63227Y-28100D01*
X63197Y-28112D01*
X63169Y-28131D01*
X63145Y-28154D01*
X63143Y-28155D01*
X63121Y-28133D01*
X63065Y-28095D01*
X63002Y-28069D01*
X62936Y-28055D01*
X62868Y-28055D01*
X62802Y-28067D01*
X62739Y-28093D01*
X62683Y-28130D01*
X62655Y-28155D01*
X62632Y-28131D01*
X62604Y-28113D01*
X62573Y-28100D01*
X62541Y-28093D01*
X62507Y-28093D01*
X62192Y-28093D01*
X62159Y-28100D01*
X62149Y-28103D01*
X62141Y-28100D01*
X62120Y-28095D01*
X62120Y-27668D01*
X62155Y-27655D01*
X62248Y-27596D01*
X62328Y-27520D01*
X62392Y-27430D01*
X62437Y-27329D01*
X62461Y-27221D01*
X62463Y-27095D01*
X62442Y-26987D01*
X62400Y-26885D01*
X62338Y-26793D01*
X62261Y-26714D01*
X62169Y-26652D01*
X62067Y-26610D01*
X61959Y-26587D01*
X61849Y-26587D01*
X61740Y-26607D01*
X61638Y-26649D01*
X61546Y-26709D01*
X61467Y-26786D01*
X61404Y-26877D01*
X61361Y-26979D01*
X61338Y-27087D01*
X61336Y-27197D01*
X61356Y-27306D01*
X61397Y-27408D01*
X61457Y-27501D01*
X61533Y-27581D01*
X61624Y-27644D01*
X61680Y-27668D01*
X61680Y-28123D01*
X61669Y-28131D01*
X61645Y-28154D01*
X61627Y-28182D01*
X61614Y-28213D01*
X61607Y-28245D01*
X61607Y-28279D01*
X61607Y-28554D01*
X61614Y-28587D01*
X61626Y-28617D01*
X61645Y-28645D01*
X61668Y-28669D01*
X61696Y-28687D01*
X61725Y-28699D01*
X61729Y-28712D01*
X61730Y-28715D01*
X61731Y-28718D01*
X61737Y-28729D01*
X61749Y-28754D01*
X61751Y-28756D01*
X61776Y-28787D01*
X61778Y-28790D01*
X62043Y-29054D01*
X62044Y-29055D01*
X62050Y-29060D01*
X62076Y-29082D01*
X62078Y-29083D01*
X62113Y-29102D01*
X62115Y-29102D01*
X62116Y-29103D01*
X62154Y-29115D01*
X62157Y-29116D01*
X62187Y-29118D01*
X62197Y-29120D01*
X62199Y-29120D01*
X62200Y-29120D01*
X62744Y-29120D01*
X62689Y-29143D01*
X62633Y-29180D01*
X62584Y-29227D01*
X62546Y-29283D01*
X62520Y-29345D01*
X62505Y-29412D01*
X62505Y-29479D01*
X62515Y-29539D01*
X61939Y-29539D01*
X61932Y-29500D01*
X61906Y-29437D01*
X61869Y-29381D01*
X61821Y-29333D01*
X61765Y-29295D01*
X61702Y-29269D01*
X61636Y-29255D01*
X61568Y-29255D01*
X61502Y-29267D01*
X61439Y-29293D01*
X61383Y-29330D01*
X61334Y-29377D01*
X61318Y-29400D01*
X61308Y-29376D01*
X61285Y-29342D01*
X61256Y-29314D01*
X61222Y-29291D01*
X61199Y-29282D01*
X61231Y-29261D01*
X61260Y-29233D01*
X61283Y-29199D01*
X61299Y-29162D01*
X61307Y-29122D01*
X61307Y-29081D01*
X61307Y-28781D01*
X61307Y-28619D01*
X61307Y-28319D01*
X61307Y-28278D01*
X61299Y-28238D01*
X61283Y-28201D01*
X61260Y-28167D01*
X61231Y-28139D01*
X61197Y-28116D01*
X61160Y-28101D01*
X61120Y-28093D01*
X60881Y-28093D01*
X60830Y-28144D01*
X60830Y-28670D01*
X61256Y-28670D01*
X61307Y-28619D01*
X61307Y-28781D01*
X61256Y-28730D01*
X60880Y-28730D01*
X60830Y-28730D01*
X60770Y-28730D01*
X60770Y-28670D01*
X60770Y-28144D01*
X60719Y-28093D01*
X60480Y-28093D01*
X60440Y-28101D01*
X60403Y-28116D01*
X60369Y-28139D01*
X60340Y-28167D01*
X60317Y-28201D01*
X60301Y-28238D01*
X60293Y-28278D01*
X60293Y-28319D01*
X60293Y-28619D01*
X60344Y-28670D01*
X60770Y-28670D01*
X60770Y-28730D01*
X60720Y-28730D01*
X60344Y-28730D01*
X60293Y-28781D01*
X60293Y-29081D01*
X60293Y-29122D01*
X60301Y-29162D01*
X60317Y-29199D01*
X60340Y-29233D01*
X60369Y-29261D01*
X60403Y-29284D01*
X60440Y-29299D01*
X60470Y-29305D01*
X60259Y-29305D01*
X60259Y-29203D01*
X60259Y-29200D01*
X60254Y-29152D01*
X60254Y-29150D01*
X60241Y-29109D01*
X60240Y-29104D01*
X60239Y-29103D01*
X60239Y-29101D01*
X60217Y-29059D01*
X60216Y-29057D01*
X60186Y-29020D01*
X60184Y-29017D01*
X60178Y-29012D01*
X59970Y-28804D01*
X59970Y-28283D01*
X59963Y-28250D01*
X59951Y-28220D01*
X59932Y-28192D01*
X59909Y-28168D01*
X59881Y-28150D01*
X59850Y-28137D01*
X59818Y-28130D01*
X59809Y-28130D01*
X59809Y-28054D01*
X59829Y-28009D01*
X59844Y-27943D01*
X59845Y-27866D01*
X59832Y-27800D01*
X59806Y-27737D01*
X59769Y-27681D01*
X59721Y-27633D01*
X59665Y-27595D01*
X59602Y-27569D01*
X59536Y-27555D01*
X59468Y-27555D01*
X59402Y-27567D01*
X59339Y-27593D01*
X59283Y-27630D01*
X59234Y-27677D01*
X59196Y-27733D01*
X59170Y-27795D01*
X59155Y-27862D01*
X59155Y-27929D01*
X59167Y-27996D01*
X59191Y-28056D01*
X59191Y-28130D01*
X59183Y-28130D01*
X59150Y-28137D01*
X59120Y-28149D01*
X59092Y-28168D01*
X59068Y-28191D01*
X59050Y-28219D01*
X59037Y-28250D01*
X59030Y-28282D01*
X59030Y-28316D01*
X59030Y-29117D01*
X59037Y-29150D01*
X59049Y-29180D01*
X59068Y-29208D01*
X59091Y-29232D01*
X59119Y-29250D01*
X59150Y-29263D01*
X59182Y-29270D01*
X59216Y-29270D01*
X59704Y-29270D01*
X59741Y-29307D01*
X59741Y-29497D01*
X59741Y-29500D01*
X59742Y-29510D01*
X59745Y-29548D01*
X59760Y-29596D01*
X59761Y-29599D01*
X59783Y-29641D01*
X59784Y-29643D01*
X59814Y-29680D01*
X59816Y-29683D01*
X59817Y-29683D01*
X59821Y-29687D01*
X59965Y-29831D01*
X59967Y-29833D01*
X59979Y-29842D01*
X60004Y-29864D01*
X60006Y-29865D01*
X60048Y-29888D01*
X60050Y-29888D01*
X60051Y-29889D01*
X60096Y-29903D01*
X60098Y-29904D01*
X60105Y-29904D01*
X60105Y-29942D01*
X60112Y-29975D01*
X60124Y-30005D01*
X60143Y-30033D01*
X60166Y-30057D01*
X60194Y-30075D01*
X60205Y-30080D01*
X59791Y-30080D01*
X59257Y-29546D01*
X59256Y-29544D01*
X59234Y-29527D01*
X59224Y-29518D01*
X59222Y-29517D01*
X59187Y-29498D01*
X59184Y-29497D01*
X59146Y-29485D01*
X59143Y-29484D01*
X59112Y-29481D01*
X59103Y-29480D01*
X59101Y-29480D01*
X59100Y-29480D01*
X56803Y-29480D01*
X56800Y-29480D01*
X56245Y-29480D01*
X56245Y-26243D01*
X56245Y-26209D01*
X56245Y-25758D01*
X56238Y-25725D01*
X56226Y-25695D01*
X56207Y-25667D01*
X56184Y-25643D01*
X56156Y-25625D01*
X56125Y-25612D01*
X56093Y-25605D01*
X56059Y-25605D01*
X55808Y-25605D01*
X55775Y-25612D01*
X55745Y-25624D01*
X55717Y-25643D01*
X55693Y-25666D01*
X55675Y-25694D01*
X55662Y-25725D01*
X55658Y-25741D01*
X55525Y-25741D01*
X55502Y-25705D01*
X55438Y-25639D01*
X55362Y-25587D01*
X55277Y-25551D01*
X55188Y-25532D01*
X55096Y-25530D01*
X54819Y-25531D01*
X54729Y-25549D01*
X54644Y-25584D01*
X54567Y-25635D01*
X54502Y-25700D01*
X54450Y-25776D01*
X54415Y-25861D01*
X54396Y-25951D01*
X54396Y-26043D01*
X54413Y-26133D01*
X54447Y-26218D01*
X54498Y-26295D01*
X54562Y-26361D01*
X54638Y-26413D01*
X54723Y-26449D01*
X54812Y-26468D01*
X54904Y-26470D01*
X55181Y-26469D01*
X55271Y-26451D01*
X55356Y-26416D01*
X55433Y-26365D01*
X55498Y-26300D01*
X55526Y-26259D01*
X55658Y-26259D01*
X55662Y-26275D01*
X55674Y-26305D01*
X55693Y-26333D01*
X55716Y-26357D01*
X55744Y-26375D01*
X55775Y-26388D01*
X55807Y-26395D01*
X55841Y-26395D01*
X56092Y-26395D01*
X56125Y-26388D01*
X56155Y-26376D01*
X56183Y-26357D01*
X56207Y-26334D01*
X56225Y-26306D01*
X56238Y-26275D01*
X56245Y-26243D01*
X56245Y-29480D01*
X55702Y-29480D01*
X55700Y-29480D01*
X55657Y-29484D01*
X55633Y-29491D01*
X55618Y-29496D01*
X55616Y-29496D01*
X55616Y-29497D01*
X55578Y-29517D01*
X55553Y-29537D01*
X55546Y-29543D01*
X55545Y-29543D01*
X55545Y-29544D01*
X55540Y-29549D01*
X55518Y-29576D01*
X55498Y-29613D01*
X55497Y-29613D01*
X55497Y-29615D01*
X55484Y-29656D01*
X55480Y-29692D01*
X55480Y-29697D01*
X55480Y-29698D01*
X55480Y-29700D01*
X55480Y-29989D01*
X55459Y-29968D01*
X55431Y-29950D01*
X55407Y-29939D01*
X55407Y-29040D01*
X55407Y-28381D01*
X55407Y-28219D01*
X55407Y-27560D01*
X55399Y-27520D01*
X55384Y-27483D01*
X55361Y-27449D01*
X55333Y-27420D01*
X55299Y-27397D01*
X55262Y-27381D01*
X55222Y-27373D01*
X55181Y-27373D01*
X54881Y-27373D01*
X54830Y-27424D01*
X54830Y-28270D01*
X55356Y-28270D01*
X55407Y-28219D01*
X55407Y-28381D01*
X55356Y-28330D01*
X54830Y-28330D01*
X54830Y-29176D01*
X54881Y-29227D01*
X55181Y-29227D01*
X55222Y-29227D01*
X55262Y-29219D01*
X55299Y-29203D01*
X55333Y-29180D01*
X55361Y-29151D01*
X55384Y-29117D01*
X55399Y-29080D01*
X55407Y-29040D01*
X55407Y-29939D01*
X55400Y-29937D01*
X55368Y-29930D01*
X55334Y-29930D01*
X54733Y-29930D01*
X54700Y-29937D01*
X54670Y-29949D01*
X54642Y-29968D01*
X54618Y-29991D01*
X54600Y-30018D01*
X54582Y-29992D01*
X54559Y-29968D01*
X54531Y-29950D01*
X54500Y-29937D01*
X54468Y-29930D01*
X54434Y-29930D01*
X54309Y-29930D01*
X54309Y-29206D01*
X54338Y-29219D01*
X54378Y-29227D01*
X54419Y-29227D01*
X54719Y-29227D01*
X54770Y-29176D01*
X54770Y-28380D01*
X54770Y-28330D01*
X54770Y-28270D01*
X54770Y-28220D01*
X54770Y-27424D01*
X54719Y-27373D01*
X54419Y-27373D01*
X54378Y-27373D01*
X54338Y-27381D01*
X54301Y-27397D01*
X54292Y-27402D01*
X54287Y-27385D01*
X54286Y-27384D01*
X54286Y-27382D01*
X54275Y-27362D01*
X54259Y-27331D01*
X54257Y-27329D01*
X54221Y-27284D01*
X54219Y-27282D01*
X54218Y-27281D01*
X54124Y-27188D01*
X54121Y-27184D01*
X54118Y-27182D01*
X54075Y-27145D01*
X54073Y-27144D01*
X54072Y-27143D01*
X54022Y-27116D01*
X54019Y-27114D01*
X53964Y-27098D01*
X53961Y-27097D01*
X53922Y-27093D01*
X53904Y-27091D01*
X53901Y-27091D01*
X53900Y-27091D01*
X52731Y-27091D01*
X52709Y-27068D01*
X52681Y-27050D01*
X52650Y-27037D01*
X52618Y-27030D01*
X52606Y-27030D01*
X52606Y-20067D01*
X52606Y-20033D01*
X52606Y-19560D01*
X52599Y-19527D01*
X52587Y-19497D01*
X52568Y-19469D01*
X52545Y-19445D01*
X52517Y-19427D01*
X52486Y-19414D01*
X52454Y-19407D01*
X52420Y-19407D01*
X51947Y-19407D01*
X51914Y-19414D01*
X51884Y-19426D01*
X51856Y-19445D01*
X51832Y-19468D01*
X51814Y-19496D01*
X51801Y-19527D01*
X51794Y-19559D01*
X51794Y-19593D01*
X51794Y-20066D01*
X51801Y-20099D01*
X51813Y-20129D01*
X51832Y-20157D01*
X51855Y-20181D01*
X51883Y-20199D01*
X51914Y-20212D01*
X51941Y-20217D01*
X51941Y-20408D01*
X51925Y-20412D01*
X51895Y-20424D01*
X51867Y-20443D01*
X51843Y-20466D01*
X51825Y-20494D01*
X51812Y-20525D01*
X51805Y-20557D01*
X51805Y-20591D01*
X51805Y-20842D01*
X51812Y-20875D01*
X51824Y-20905D01*
X51843Y-20933D01*
X51866Y-20957D01*
X51894Y-20975D01*
X51925Y-20988D01*
X51957Y-20995D01*
X51991Y-20995D01*
X52154Y-20995D01*
X52142Y-20996D01*
X52113Y-21005D01*
X51958Y-21005D01*
X51925Y-21012D01*
X51895Y-21024D01*
X51867Y-21043D01*
X51843Y-21066D01*
X51825Y-21094D01*
X51812Y-21125D01*
X51805Y-21157D01*
X51805Y-21191D01*
X51805Y-21442D01*
X51812Y-21475D01*
X51824Y-21505D01*
X51843Y-21533D01*
X51866Y-21557D01*
X51891Y-21573D01*
X51891Y-21744D01*
X51870Y-21795D01*
X51855Y-21862D01*
X51855Y-21929D01*
X51867Y-21996D01*
X51892Y-22059D01*
X51928Y-22115D01*
X51975Y-22164D01*
X52031Y-22203D01*
X52093Y-22230D01*
X52159Y-22244D01*
X52227Y-22246D01*
X52293Y-22234D01*
X52356Y-22209D01*
X52414Y-22173D01*
X52463Y-22126D01*
X52502Y-22071D01*
X52529Y-22009D01*
X52544Y-21943D01*
X52545Y-21866D01*
X52532Y-21800D01*
X52509Y-21744D01*
X52509Y-21573D01*
X52533Y-21557D01*
X52557Y-21534D01*
X52575Y-21506D01*
X52588Y-21475D01*
X52595Y-21443D01*
X52595Y-21409D01*
X52595Y-21158D01*
X52588Y-21125D01*
X52576Y-21095D01*
X52557Y-21067D01*
X52534Y-21043D01*
X52506Y-21025D01*
X52475Y-21012D01*
X52443Y-21005D01*
X52409Y-21005D01*
X52287Y-21005D01*
X52262Y-20997D01*
X52242Y-20995D01*
X52442Y-20995D01*
X52475Y-20988D01*
X52505Y-20976D01*
X52533Y-20957D01*
X52557Y-20934D01*
X52575Y-20906D01*
X52588Y-20875D01*
X52595Y-20843D01*
X52595Y-20809D01*
X52595Y-20558D01*
X52588Y-20525D01*
X52576Y-20495D01*
X52557Y-20467D01*
X52534Y-20443D01*
X52506Y-20425D01*
X52475Y-20412D01*
X52459Y-20408D01*
X52459Y-20217D01*
X52486Y-20212D01*
X52516Y-20200D01*
X52544Y-20181D01*
X52568Y-20158D01*
X52586Y-20130D01*
X52599Y-20099D01*
X52606Y-20067D01*
X52606Y-27030D01*
X52584Y-27030D01*
X51783Y-27030D01*
X51750Y-27037D01*
X51720Y-27049D01*
X51692Y-27068D01*
X51668Y-27091D01*
X51650Y-27119D01*
X51637Y-27150D01*
X51630Y-27182D01*
X51630Y-27216D01*
X51630Y-27617D01*
X51637Y-27650D01*
X51649Y-27680D01*
X51668Y-27708D01*
X51691Y-27732D01*
X51719Y-27750D01*
X51750Y-27763D01*
X51782Y-27770D01*
X51816Y-27770D01*
X52617Y-27770D01*
X52650Y-27763D01*
X52680Y-27751D01*
X52708Y-27732D01*
X52732Y-27709D01*
X53691Y-27709D01*
X53691Y-28844D01*
X53670Y-28895D01*
X53655Y-28962D01*
X53655Y-29029D01*
X53667Y-29096D01*
X53691Y-29156D01*
X53691Y-30040D01*
X53687Y-30050D01*
X53680Y-30082D01*
X53680Y-30116D01*
X53680Y-30433D01*
X53320Y-30793D01*
X53320Y-30083D01*
X53313Y-30050D01*
X53301Y-30020D01*
X53282Y-29992D01*
X53259Y-29968D01*
X53231Y-29950D01*
X53200Y-29937D01*
X53168Y-29930D01*
X53159Y-29930D01*
X53159Y-29853D01*
X53159Y-29850D01*
X53159Y-29577D01*
X53409Y-29327D01*
X53456Y-29309D01*
X53514Y-29273D01*
X53563Y-29226D01*
X53602Y-29171D01*
X53629Y-29109D01*
X53644Y-29043D01*
X53645Y-28966D01*
X53632Y-28900D01*
X53606Y-28837D01*
X53569Y-28781D01*
X53521Y-28733D01*
X53465Y-28695D01*
X53402Y-28669D01*
X53336Y-28655D01*
X53268Y-28655D01*
X53202Y-28667D01*
X53139Y-28693D01*
X53083Y-28730D01*
X53034Y-28777D01*
X52996Y-28833D01*
X52971Y-28891D01*
X52807Y-29055D01*
X52807Y-28520D01*
X52807Y-28381D01*
X52807Y-28219D01*
X52807Y-28080D01*
X52799Y-28040D01*
X52784Y-28003D01*
X52761Y-27969D01*
X52733Y-27940D01*
X52699Y-27917D01*
X52662Y-27901D01*
X52622Y-27893D01*
X52581Y-27893D01*
X52281Y-27893D01*
X52230Y-27944D01*
X52230Y-28270D01*
X52756Y-28270D01*
X52807Y-28219D01*
X52807Y-28381D01*
X52756Y-28330D01*
X52230Y-28330D01*
X52230Y-28656D01*
X52281Y-28707D01*
X52581Y-28707D01*
X52622Y-28707D01*
X52662Y-28699D01*
X52699Y-28683D01*
X52733Y-28660D01*
X52761Y-28631D01*
X52784Y-28597D01*
X52799Y-28560D01*
X52807Y-28520D01*
X52807Y-29055D01*
X52770Y-29093D01*
X52770Y-28983D01*
X52763Y-28950D01*
X52751Y-28920D01*
X52732Y-28892D01*
X52709Y-28868D01*
X52681Y-28850D01*
X52650Y-28837D01*
X52618Y-28830D01*
X52584Y-28830D01*
X52170Y-28830D01*
X52170Y-28656D01*
X52170Y-28330D01*
X52170Y-28270D01*
X52170Y-27944D01*
X52119Y-27893D01*
X51819Y-27893D01*
X51778Y-27893D01*
X51738Y-27901D01*
X51701Y-27917D01*
X51667Y-27940D01*
X51639Y-27969D01*
X51616Y-28003D01*
X51601Y-28040D01*
X51593Y-28080D01*
X51593Y-28219D01*
X51644Y-28270D01*
X52170Y-28270D01*
X52170Y-28330D01*
X51644Y-28330D01*
X51593Y-28381D01*
X51593Y-28520D01*
X51601Y-28560D01*
X51616Y-28597D01*
X51639Y-28631D01*
X51667Y-28660D01*
X51701Y-28683D01*
X51738Y-28699D01*
X51778Y-28707D01*
X51819Y-28707D01*
X52119Y-28707D01*
X52170Y-28656D01*
X52170Y-28830D01*
X51783Y-28830D01*
X51750Y-28837D01*
X51720Y-28849D01*
X51692Y-28868D01*
X51668Y-28891D01*
X51650Y-28919D01*
X51637Y-28950D01*
X51630Y-28982D01*
X51630Y-29016D01*
X51630Y-29417D01*
X51637Y-29450D01*
X51649Y-29480D01*
X51668Y-29508D01*
X51691Y-29532D01*
X51719Y-29550D01*
X51750Y-29563D01*
X51782Y-29570D01*
X51816Y-29570D01*
X51891Y-29570D01*
X51891Y-29772D01*
X51589Y-30074D01*
X51584Y-30079D01*
X51545Y-30125D01*
X51544Y-30126D01*
X51543Y-30128D01*
X51514Y-30181D01*
X51497Y-30239D01*
X51493Y-30278D01*
X51491Y-30296D01*
X51491Y-30299D01*
X51491Y-30300D01*
X51491Y-34598D01*
X51491Y-34600D01*
X51492Y-34610D01*
X51496Y-34658D01*
X51503Y-34682D01*
X51514Y-34718D01*
X51528Y-34745D01*
X51541Y-34769D01*
X51543Y-34771D01*
X51579Y-34816D01*
X51580Y-34817D01*
X51581Y-34818D01*
X51595Y-34829D01*
X51625Y-34855D01*
X51627Y-34856D01*
X51678Y-34884D01*
X51680Y-34885D01*
X51736Y-34902D01*
X51738Y-34903D01*
X51784Y-34907D01*
X51796Y-34909D01*
X51798Y-34909D01*
X51800Y-34909D01*
X52072Y-34909D01*
X52071Y-34914D01*
X52071Y-34948D01*
X52071Y-35707D01*
X51869Y-35707D01*
X51836Y-35714D01*
X51806Y-35726D01*
X51778Y-35745D01*
X51754Y-35768D01*
X51736Y-35796D01*
X51723Y-35827D01*
X51716Y-35859D01*
X51716Y-35893D01*
X51716Y-36640D01*
X51723Y-36673D01*
X51735Y-36703D01*
X51754Y-36731D01*
X51777Y-36755D01*
X51805Y-36773D01*
X51836Y-36786D01*
X51868Y-36793D01*
X51902Y-36793D01*
X52837Y-36793D01*
X52870Y-36786D01*
X52879Y-36782D01*
X52889Y-36786D01*
X52921Y-36793D01*
X52955Y-36793D01*
X53418Y-36793D01*
X53451Y-36786D01*
X53481Y-36774D01*
X53499Y-36761D01*
X53518Y-36773D01*
X53549Y-36786D01*
X53581Y-36793D01*
X53615Y-36793D01*
X54078Y-36793D01*
X54111Y-36786D01*
X54120Y-36782D01*
X54130Y-36786D01*
X54162Y-36793D01*
X54196Y-36793D01*
X55131Y-36793D01*
X55164Y-36786D01*
X55194Y-36774D01*
X55222Y-36755D01*
X55246Y-36732D01*
X55264Y-36704D01*
X55277Y-36673D01*
X55284Y-36641D01*
X55284Y-36607D01*
X55284Y-35860D01*
X55277Y-35827D01*
X55265Y-35797D01*
X55246Y-35769D01*
X55223Y-35745D01*
X55195Y-35727D01*
X55164Y-35714D01*
X55132Y-35707D01*
X55098Y-35707D01*
X54929Y-35707D01*
X54929Y-34915D01*
X54922Y-34882D01*
X54910Y-34852D01*
X54891Y-34824D01*
X54868Y-34800D01*
X54840Y-34782D01*
X54809Y-34769D01*
X54777Y-34762D01*
X54743Y-34762D01*
X54162Y-34762D01*
X54139Y-34766D01*
X54118Y-34762D01*
X54084Y-34762D01*
X54015Y-34762D01*
X54015Y-34713D01*
X54183Y-34544D01*
X54227Y-34546D01*
X54293Y-34534D01*
X54356Y-34509D01*
X54414Y-34473D01*
X54463Y-34426D01*
X54502Y-34371D01*
X54529Y-34309D01*
X54544Y-34243D01*
X54545Y-34166D01*
X54532Y-34100D01*
X54509Y-34044D01*
X54509Y-33981D01*
X54525Y-33988D01*
X54557Y-33995D01*
X54591Y-33995D01*
X55042Y-33995D01*
X55075Y-33988D01*
X55105Y-33976D01*
X55133Y-33957D01*
X55157Y-33934D01*
X55175Y-33906D01*
X55188Y-33875D01*
X55190Y-33865D01*
X55194Y-33870D01*
X55222Y-33888D01*
X55253Y-33901D01*
X55285Y-33908D01*
X55319Y-33908D01*
X55714Y-33908D01*
X55747Y-33901D01*
X55777Y-33889D01*
X55805Y-33870D01*
X55829Y-33847D01*
X55847Y-33819D01*
X55860Y-33788D01*
X55867Y-33756D01*
X55867Y-33722D01*
X55867Y-33445D01*
X55860Y-33412D01*
X55848Y-33382D01*
X55829Y-33354D01*
X55806Y-33330D01*
X55778Y-33312D01*
X55747Y-33299D01*
X55715Y-33292D01*
X55681Y-33292D01*
X55286Y-33292D01*
X55253Y-33299D01*
X55223Y-33311D01*
X55195Y-33330D01*
X55171Y-33353D01*
X55160Y-33370D01*
X55113Y-33370D01*
X55133Y-33357D01*
X55157Y-33334D01*
X55175Y-33306D01*
X55188Y-33275D01*
X55195Y-33243D01*
X55195Y-33209D01*
X55195Y-32958D01*
X55188Y-32925D01*
X55176Y-32895D01*
X55157Y-32867D01*
X55134Y-32843D01*
X55106Y-32825D01*
X55075Y-32812D01*
X55043Y-32805D01*
X55009Y-32805D01*
X54558Y-32805D01*
X54525Y-32812D01*
X54495Y-32824D01*
X54467Y-32843D01*
X54443Y-32866D01*
X54430Y-32885D01*
X54418Y-32877D01*
X54387Y-32864D01*
X54355Y-32857D01*
X54321Y-32857D01*
X54046Y-32857D01*
X54013Y-32864D01*
X53998Y-32870D01*
X53959Y-32870D01*
X53957Y-32867D01*
X53934Y-32843D01*
X53906Y-32825D01*
X53875Y-32812D01*
X53843Y-32805D01*
X53820Y-32805D01*
X53820Y-32515D01*
X56765Y-32515D01*
X56755Y-32562D01*
X56755Y-32629D01*
X56767Y-32696D01*
X56792Y-32759D01*
X56828Y-32815D01*
X56875Y-32864D01*
X56931Y-32903D01*
X56993Y-32930D01*
X57059Y-32944D01*
X57127Y-32946D01*
X57193Y-32934D01*
X57256Y-32909D01*
X57314Y-32873D01*
X57363Y-32826D01*
X57402Y-32771D01*
X57429Y-32709D01*
X57444Y-32643D01*
X57445Y-32566D01*
X57434Y-32515D01*
X57778Y-32515D01*
X57764Y-32526D01*
X57757Y-32532D01*
X57756Y-32533D01*
X57755Y-32534D01*
X57644Y-32644D01*
X57627Y-32665D01*
X57618Y-32676D01*
X57598Y-32713D01*
X57597Y-32715D01*
X57597Y-32716D01*
X57584Y-32757D01*
X57581Y-32787D01*
X57580Y-32797D01*
X57580Y-32799D01*
X57580Y-32800D01*
X57580Y-33634D01*
X57567Y-33643D01*
X57543Y-33666D01*
X57525Y-33694D01*
X57512Y-33725D01*
X57505Y-33757D01*
X57505Y-33791D01*
X57505Y-34242D01*
X57512Y-34275D01*
X57524Y-34305D01*
X57543Y-34333D01*
X57566Y-34357D01*
X57594Y-34375D01*
X57625Y-34388D01*
X57657Y-34395D01*
X57691Y-34395D01*
X57942Y-34395D01*
X57975Y-34388D01*
X58005Y-34376D01*
X58033Y-34357D01*
X58057Y-34334D01*
X58075Y-34306D01*
X58088Y-34275D01*
X58095Y-34243D01*
X58095Y-34209D01*
X58095Y-33758D01*
X58088Y-33725D01*
X58076Y-33695D01*
X58057Y-33667D01*
X58034Y-33643D01*
X58020Y-33634D01*
X58020Y-32909D01*
X61460Y-32909D01*
X61460Y-32962D01*
X61464Y-32984D01*
X61460Y-33006D01*
X61460Y-33040D01*
X61460Y-33159D01*
X61467Y-33192D01*
X61479Y-33222D01*
X61498Y-33250D01*
X61521Y-33274D01*
X61549Y-33292D01*
X61580Y-33305D01*
X61612Y-33312D01*
X61646Y-33312D01*
X62159Y-33312D01*
X62192Y-33305D01*
X62197Y-33302D01*
X62195Y-33308D01*
X62188Y-33340D01*
X62188Y-33374D01*
X62188Y-33887D01*
X62195Y-33920D01*
X62207Y-33950D01*
X62226Y-33978D01*
X62249Y-34002D01*
X62277Y-34020D01*
X62308Y-34033D01*
X62340Y-34040D01*
X62374Y-34040D01*
X62394Y-34040D01*
X62394Y-34194D01*
X62308Y-34280D01*
X60444Y-34280D01*
X60445Y-34266D01*
X60432Y-34200D01*
X60406Y-34137D01*
X60369Y-34081D01*
X60321Y-34033D01*
X60265Y-33995D01*
X60202Y-33969D01*
X60136Y-33955D01*
X60068Y-33955D01*
X60002Y-33967D01*
X59939Y-33993D01*
X59883Y-34030D01*
X59834Y-34077D01*
X59796Y-34133D01*
X59770Y-34195D01*
X59755Y-34262D01*
X59755Y-34329D01*
X59767Y-34396D01*
X59792Y-34459D01*
X59828Y-34515D01*
X59875Y-34564D01*
X59931Y-34603D01*
X59993Y-34630D01*
X60059Y-34644D01*
X60127Y-34646D01*
X60133Y-34644D01*
X60143Y-34654D01*
X60144Y-34655D01*
X60176Y-34682D01*
X60177Y-34683D01*
X60188Y-34688D01*
X60213Y-34702D01*
X60215Y-34702D01*
X60254Y-34715D01*
X60256Y-34715D01*
X60297Y-34720D01*
X60300Y-34720D01*
X60589Y-34720D01*
X60465Y-34844D01*
X60448Y-34865D01*
X60446Y-34867D01*
X57616Y-34867D01*
X57613Y-34867D01*
X57495Y-34867D01*
X57495Y-34243D01*
X57495Y-34209D01*
X57495Y-33758D01*
X57488Y-33725D01*
X57476Y-33695D01*
X57457Y-33667D01*
X57434Y-33643D01*
X57406Y-33625D01*
X57375Y-33612D01*
X57343Y-33605D01*
X57309Y-33605D01*
X57058Y-33605D01*
X57025Y-33612D01*
X56995Y-33624D01*
X56967Y-33643D01*
X56943Y-33666D01*
X56925Y-33694D01*
X56912Y-33725D01*
X56905Y-33757D01*
X56905Y-33780D01*
X56904Y-33780D01*
X56904Y-33383D01*
X56904Y-33306D01*
X56904Y-33144D01*
X56904Y-33067D01*
X56896Y-33027D01*
X56881Y-32990D01*
X56858Y-32956D01*
X56830Y-32927D01*
X56796Y-32904D01*
X56759Y-32888D01*
X56719Y-32880D01*
X56678Y-32880D01*
X56581Y-32880D01*
X56530Y-32931D01*
X56530Y-33195D01*
X56853Y-33195D01*
X56904Y-33144D01*
X56904Y-33306D01*
X56853Y-33255D01*
X56530Y-33255D01*
X56530Y-33519D01*
X56581Y-33570D01*
X56678Y-33570D01*
X56719Y-33570D01*
X56759Y-33562D01*
X56796Y-33546D01*
X56830Y-33523D01*
X56858Y-33494D01*
X56881Y-33460D01*
X56896Y-33423D01*
X56904Y-33383D01*
X56904Y-33780D01*
X56857Y-33780D01*
X56848Y-33757D01*
X56829Y-33729D01*
X56806Y-33705D01*
X56778Y-33687D01*
X56747Y-33674D01*
X56715Y-33667D01*
X56681Y-33667D01*
X56470Y-33667D01*
X56470Y-33519D01*
X56470Y-33255D01*
X56470Y-33195D01*
X56470Y-32931D01*
X56419Y-32880D01*
X56322Y-32880D01*
X56281Y-32880D01*
X56241Y-32888D01*
X56204Y-32904D01*
X56170Y-32927D01*
X56142Y-32956D01*
X56119Y-32990D01*
X56104Y-33027D01*
X56096Y-33067D01*
X56096Y-33144D01*
X56147Y-33195D01*
X56470Y-33195D01*
X56470Y-33255D01*
X56147Y-33255D01*
X56096Y-33306D01*
X56096Y-33383D01*
X56104Y-33423D01*
X56119Y-33460D01*
X56142Y-33494D01*
X56170Y-33523D01*
X56204Y-33546D01*
X56241Y-33562D01*
X56281Y-33570D01*
X56322Y-33570D01*
X56419Y-33570D01*
X56470Y-33519D01*
X56470Y-33667D01*
X56286Y-33667D01*
X56253Y-33674D01*
X56223Y-33686D01*
X56195Y-33705D01*
X56171Y-33728D01*
X56153Y-33756D01*
X56140Y-33787D01*
X56133Y-33819D01*
X56133Y-33853D01*
X56133Y-34130D01*
X56140Y-34163D01*
X56152Y-34193D01*
X56171Y-34221D01*
X56194Y-34245D01*
X56222Y-34263D01*
X56253Y-34276D01*
X56285Y-34283D01*
X56319Y-34283D01*
X56714Y-34283D01*
X56747Y-34276D01*
X56777Y-34264D01*
X56805Y-34245D01*
X56829Y-34222D01*
X56830Y-34220D01*
X56905Y-34220D01*
X56905Y-34242D01*
X56912Y-34275D01*
X56924Y-34305D01*
X56943Y-34333D01*
X56966Y-34357D01*
X56994Y-34375D01*
X57025Y-34388D01*
X57057Y-34395D01*
X57091Y-34395D01*
X57342Y-34395D01*
X57375Y-34388D01*
X57405Y-34376D01*
X57433Y-34357D01*
X57457Y-34334D01*
X57475Y-34306D01*
X57488Y-34275D01*
X57495Y-34243D01*
X57495Y-34867D01*
X56406Y-34867D01*
X56406Y-34834D01*
X56399Y-34801D01*
X56387Y-34771D01*
X56368Y-34743D01*
X56345Y-34719D01*
X56317Y-34701D01*
X56286Y-34688D01*
X56254Y-34681D01*
X56220Y-34681D01*
X55747Y-34681D01*
X55714Y-34688D01*
X55684Y-34700D01*
X55656Y-34719D01*
X55632Y-34742D01*
X55614Y-34770D01*
X55601Y-34801D01*
X55594Y-34833D01*
X55594Y-34867D01*
X55594Y-35340D01*
X55601Y-35373D01*
X55613Y-35403D01*
X55632Y-35431D01*
X55655Y-35455D01*
X55683Y-35473D01*
X55714Y-35486D01*
X55746Y-35493D01*
X55780Y-35493D01*
X56172Y-35493D01*
X56155Y-35498D01*
X56134Y-35504D01*
X56128Y-35507D01*
X55747Y-35507D01*
X55714Y-35514D01*
X55684Y-35526D01*
X55656Y-35545D01*
X55632Y-35568D01*
X55614Y-35596D01*
X55601Y-35627D01*
X55594Y-35659D01*
X55594Y-35693D01*
X55594Y-36166D01*
X55601Y-36199D01*
X55613Y-36229D01*
X55632Y-36257D01*
X55655Y-36281D01*
X55683Y-36299D01*
X55714Y-36312D01*
X55746Y-36319D01*
X55780Y-36319D01*
X56253Y-36319D01*
X56286Y-36312D01*
X56316Y-36300D01*
X56344Y-36281D01*
X56368Y-36258D01*
X56386Y-36230D01*
X56399Y-36199D01*
X56406Y-36167D01*
X56406Y-36133D01*
X56406Y-35911D01*
X56828Y-35911D01*
X56843Y-35933D01*
X56866Y-35957D01*
X56894Y-35975D01*
X56925Y-35988D01*
X56957Y-35995D01*
X56991Y-35995D01*
X57442Y-35995D01*
X57475Y-35988D01*
X57505Y-35976D01*
X57533Y-35957D01*
X57557Y-35934D01*
X57575Y-35906D01*
X57588Y-35875D01*
X57595Y-35843D01*
X57595Y-35809D01*
X57595Y-35558D01*
X57588Y-35525D01*
X57576Y-35495D01*
X57557Y-35467D01*
X57534Y-35443D01*
X57506Y-35425D01*
X57475Y-35412D01*
X57443Y-35405D01*
X57409Y-35405D01*
X56958Y-35405D01*
X56925Y-35412D01*
X56895Y-35424D01*
X56867Y-35443D01*
X56843Y-35466D01*
X56828Y-35489D01*
X56271Y-35489D01*
X56286Y-35486D01*
X56316Y-35474D01*
X56344Y-35455D01*
X56368Y-35432D01*
X56386Y-35404D01*
X56399Y-35373D01*
X56406Y-35341D01*
X56406Y-35307D01*
X57610Y-35307D01*
X57613Y-35307D01*
X58099Y-35307D01*
X58094Y-35333D01*
X58094Y-35367D01*
X58094Y-35840D01*
X58101Y-35873D01*
X58113Y-35903D01*
X58132Y-35931D01*
X58155Y-35955D01*
X58183Y-35973D01*
X58214Y-35986D01*
X58246Y-35993D01*
X58280Y-35993D01*
X58621Y-35993D01*
X58607Y-36007D01*
X58247Y-36007D01*
X58214Y-36014D01*
X58184Y-36026D01*
X58156Y-36045D01*
X58132Y-36068D01*
X58114Y-36096D01*
X58101Y-36127D01*
X58094Y-36159D01*
X58094Y-36193D01*
X58094Y-36666D01*
X58101Y-36699D01*
X58113Y-36729D01*
X58132Y-36757D01*
X58144Y-36770D01*
X57995Y-36770D01*
X57595Y-36369D01*
X57595Y-36158D01*
X57588Y-36125D01*
X57576Y-36095D01*
X57557Y-36067D01*
X57534Y-36043D01*
X57506Y-36025D01*
X57475Y-36012D01*
X57443Y-36005D01*
X57409Y-36005D01*
X56958Y-36005D01*
X56925Y-36012D01*
X56895Y-36024D01*
X56867Y-36043D01*
X56843Y-36066D01*
X56825Y-36094D01*
X56812Y-36125D01*
X56805Y-36157D01*
X56805Y-36191D01*
X56805Y-36442D01*
X56812Y-36475D01*
X56824Y-36505D01*
X56843Y-36533D01*
X56866Y-36557D01*
X56894Y-36575D01*
X56925Y-36588D01*
X56957Y-36595D01*
X56991Y-36595D01*
X57169Y-36595D01*
X57736Y-37161D01*
X57737Y-37162D01*
X57770Y-37190D01*
X57771Y-37191D01*
X57805Y-37209D01*
X57809Y-37211D01*
X57811Y-37212D01*
X57832Y-37218D01*
X57852Y-37225D01*
X57853Y-37225D01*
X57897Y-37230D01*
X57900Y-37230D01*
X58998Y-37230D01*
X59000Y-37230D01*
X59042Y-37226D01*
X59045Y-37226D01*
X59081Y-37215D01*
X59085Y-37214D01*
X59085Y-37213D01*
X59088Y-37213D01*
X59125Y-37193D01*
X59127Y-37192D01*
X59137Y-37182D01*
X59161Y-37165D01*
X59162Y-37163D01*
X59163Y-37163D01*
X59335Y-36990D01*
X59357Y-36995D01*
X59391Y-36995D01*
X59842Y-36995D01*
X59875Y-36988D01*
X59905Y-36976D01*
X59933Y-36957D01*
X59957Y-36934D01*
X59975Y-36906D01*
X59975Y-36905D01*
X59978Y-36904D01*
X59981Y-36904D01*
X59981Y-36903D01*
X59984Y-36903D01*
X59995Y-36896D01*
X60020Y-36885D01*
X60022Y-36883D01*
X60053Y-36858D01*
X60055Y-36856D01*
X60056Y-36856D01*
X60267Y-36644D01*
X60327Y-36646D01*
X60393Y-36634D01*
X60456Y-36609D01*
X60514Y-36573D01*
X60563Y-36526D01*
X60594Y-36482D01*
X60594Y-36916D01*
X60601Y-36949D01*
X60613Y-36979D01*
X60632Y-37007D01*
X60655Y-37031D01*
X60683Y-37049D01*
X60714Y-37062D01*
X60746Y-37069D01*
X60780Y-37069D01*
X61253Y-37069D01*
X61286Y-37062D01*
X61316Y-37050D01*
X61344Y-37031D01*
X61368Y-37008D01*
X61386Y-36980D01*
X61399Y-36949D01*
X61406Y-36917D01*
X61406Y-36883D01*
X61406Y-36555D01*
X61650Y-36311D01*
X61828Y-36311D01*
X61843Y-36333D01*
X61866Y-36357D01*
X61894Y-36375D01*
X61925Y-36388D01*
X61957Y-36395D01*
X61991Y-36395D01*
X62442Y-36395D01*
X62475Y-36388D01*
X62505Y-36376D01*
X62533Y-36357D01*
X62557Y-36334D01*
X62575Y-36306D01*
X62588Y-36275D01*
X62595Y-36243D01*
X62595Y-36209D01*
X62595Y-35958D01*
X62588Y-35925D01*
X62576Y-35895D01*
X62557Y-35867D01*
X62534Y-35843D01*
X62506Y-35825D01*
X62475Y-35812D01*
X62443Y-35805D01*
X62409Y-35805D01*
X61958Y-35805D01*
X61925Y-35812D01*
X61895Y-35824D01*
X61867Y-35843D01*
X61843Y-35866D01*
X61828Y-35889D01*
X61565Y-35889D01*
X61563Y-35889D01*
X61522Y-35893D01*
X61505Y-35898D01*
X61484Y-35904D01*
X61449Y-35922D01*
X61446Y-35924D01*
X61414Y-35950D01*
X61409Y-35955D01*
X61406Y-35959D01*
X61406Y-35584D01*
X61399Y-35551D01*
X61387Y-35521D01*
X61368Y-35493D01*
X61345Y-35469D01*
X61317Y-35451D01*
X61286Y-35438D01*
X61254Y-35431D01*
X61220Y-35431D01*
X61220Y-35320D01*
X62698Y-35320D01*
X62700Y-35320D01*
X62741Y-35316D01*
X62743Y-35316D01*
X62778Y-35304D01*
X62781Y-35304D01*
X62781Y-35303D01*
X62784Y-35303D01*
X62795Y-35296D01*
X62820Y-35285D01*
X62822Y-35283D01*
X62853Y-35258D01*
X62855Y-35256D01*
X62856Y-35256D01*
X63182Y-34929D01*
X63182Y-35201D01*
X63156Y-35219D01*
X63132Y-35242D01*
X63114Y-35270D01*
X63101Y-35301D01*
X63094Y-35333D01*
X63094Y-35367D01*
X63094Y-35840D01*
X63101Y-35873D01*
X63113Y-35903D01*
X63132Y-35931D01*
X63155Y-35955D01*
X63183Y-35973D01*
X63214Y-35986D01*
X63246Y-35993D01*
X63280Y-35993D01*
X63753Y-35993D01*
X63786Y-35986D01*
X63816Y-35974D01*
X63844Y-35955D01*
X63868Y-35932D01*
X63886Y-35904D01*
X63899Y-35873D01*
X63906Y-35841D01*
X63906Y-35807D01*
X63906Y-35334D01*
X63900Y-35307D01*
X65594Y-35307D01*
X65594Y-35340D01*
X65601Y-35373D01*
X65613Y-35403D01*
X65632Y-35431D01*
X65655Y-35455D01*
X65683Y-35473D01*
X65714Y-35486D01*
X65746Y-35493D01*
X65780Y-35493D01*
X66121Y-35493D01*
X66107Y-35507D01*
X65747Y-35507D01*
X65714Y-35514D01*
X65684Y-35526D01*
X65656Y-35545D01*
X65632Y-35568D01*
X65614Y-35596D01*
X65601Y-35627D01*
X65594Y-35659D01*
X65594Y-35693D01*
X65594Y-36166D01*
X65601Y-36199D01*
X65613Y-36229D01*
X65632Y-36257D01*
X65655Y-36281D01*
X65683Y-36299D01*
X65714Y-36312D01*
X65746Y-36319D01*
X65780Y-36319D01*
X66253Y-36319D01*
X66286Y-36312D01*
X66316Y-36300D01*
X66344Y-36281D01*
X66368Y-36258D01*
X66386Y-36230D01*
X66399Y-36199D01*
X66406Y-36167D01*
X66406Y-36133D01*
X66406Y-35805D01*
X66660Y-35551D01*
X66666Y-35557D01*
X66694Y-35575D01*
X66725Y-35588D01*
X66757Y-35595D01*
X66791Y-35595D01*
X67242Y-35595D01*
X67275Y-35588D01*
X67305Y-35576D01*
X67333Y-35557D01*
X67357Y-35534D01*
X67375Y-35506D01*
X67388Y-35475D01*
X67395Y-35443D01*
X67395Y-35409D01*
X67395Y-35158D01*
X67388Y-35125D01*
X67376Y-35095D01*
X67357Y-35067D01*
X67334Y-35043D01*
X67306Y-35025D01*
X67275Y-35012D01*
X67243Y-35005D01*
X67209Y-35005D01*
X66758Y-35005D01*
X66725Y-35012D01*
X66695Y-35024D01*
X66667Y-35043D01*
X66643Y-35066D01*
X66628Y-35089D01*
X66614Y-35089D01*
X66613Y-35089D01*
X66572Y-35093D01*
X66533Y-35105D01*
X66496Y-35124D01*
X66468Y-35146D01*
X66465Y-35149D01*
X66464Y-35150D01*
X66463Y-35151D01*
X66406Y-35208D01*
X66406Y-34834D01*
X66399Y-34801D01*
X66387Y-34771D01*
X66368Y-34743D01*
X66345Y-34719D01*
X66317Y-34701D01*
X66286Y-34688D01*
X66254Y-34681D01*
X66220Y-34681D01*
X65747Y-34681D01*
X65714Y-34688D01*
X65684Y-34700D01*
X65656Y-34719D01*
X65632Y-34742D01*
X65614Y-34770D01*
X65601Y-34801D01*
X65594Y-34833D01*
X65594Y-34867D01*
X65503Y-34867D01*
X65529Y-34809D01*
X65544Y-34743D01*
X65544Y-34666D01*
X65545Y-34666D01*
X65954Y-34257D01*
X65955Y-34256D01*
X65982Y-34224D01*
X65983Y-34223D01*
X66000Y-34190D01*
X66002Y-34187D01*
X66002Y-34186D01*
X66003Y-34185D01*
X66007Y-34170D01*
X66015Y-34146D01*
X66015Y-34144D01*
X66020Y-34103D01*
X66020Y-34101D01*
X66020Y-34100D01*
X66020Y-32900D01*
X66016Y-32858D01*
X66016Y-32857D01*
X66010Y-32839D01*
X66004Y-32818D01*
X66003Y-32816D01*
X65984Y-32780D01*
X65983Y-32778D01*
X65963Y-32753D01*
X65957Y-32746D01*
X65956Y-32745D01*
X65955Y-32744D01*
X65943Y-32732D01*
X65942Y-32730D01*
X65920Y-32713D01*
X65910Y-32704D01*
X65908Y-32703D01*
X65873Y-32684D01*
X65870Y-32683D01*
X65832Y-32671D01*
X65829Y-32670D01*
X65798Y-32667D01*
X65789Y-32666D01*
X65787Y-32666D01*
X65786Y-32666D01*
X65540Y-32666D01*
X65540Y-32613D01*
X65535Y-32590D01*
X65540Y-32569D01*
X65540Y-32535D01*
X65540Y-32515D01*
X67030Y-32515D01*
X67043Y-32533D01*
X67066Y-32557D01*
X67094Y-32575D01*
X67125Y-32588D01*
X67157Y-32595D01*
X67191Y-32595D01*
X67642Y-32595D01*
X67670Y-32589D01*
X68001Y-32589D01*
X68019Y-32600D01*
X68050Y-32613D01*
X68082Y-32620D01*
X68116Y-32620D01*
X68917Y-32620D01*
X68950Y-32613D01*
X68980Y-32601D01*
X69008Y-32582D01*
X69032Y-32559D01*
X69050Y-32531D01*
X69063Y-32500D01*
X69070Y-32468D01*
X69070Y-32434D01*
X69070Y-31833D01*
X69063Y-31800D01*
X69051Y-31770D01*
X69032Y-31742D01*
X69009Y-31718D01*
X68981Y-31700D01*
X68950Y-31687D01*
X68918Y-31680D01*
X68884Y-31680D01*
X68795Y-31680D01*
X68802Y-31671D01*
X68829Y-31609D01*
X68844Y-31543D01*
X68845Y-31466D01*
X68832Y-31400D01*
X68814Y-31357D01*
X68881Y-31357D01*
X68922Y-31357D01*
X68962Y-31349D01*
X68999Y-31333D01*
X69033Y-31310D01*
X69061Y-31281D01*
X69084Y-31247D01*
X69099Y-31210D01*
X69107Y-31170D01*
X69107Y-30931D01*
X69107Y-30769D01*
X69107Y-30530D01*
X69099Y-30490D01*
X69084Y-30453D01*
X69061Y-30419D01*
X69033Y-30390D01*
X68999Y-30367D01*
X68962Y-30351D01*
X68922Y-30343D01*
X68881Y-30343D01*
X68581Y-30343D01*
X68530Y-30394D01*
X68530Y-30820D01*
X69056Y-30820D01*
X69107Y-30769D01*
X69107Y-30931D01*
X69056Y-30880D01*
X68580Y-30880D01*
X68530Y-30880D01*
X68470Y-30880D01*
X68470Y-30820D01*
X68470Y-30394D01*
X68419Y-30343D01*
X68119Y-30343D01*
X68078Y-30343D01*
X68038Y-30351D01*
X68001Y-30367D01*
X67967Y-30390D01*
X67939Y-30419D01*
X67916Y-30453D01*
X67901Y-30490D01*
X67893Y-30530D01*
X67893Y-30769D01*
X67944Y-30820D01*
X68470Y-30820D01*
X68470Y-30880D01*
X68420Y-30880D01*
X67944Y-30880D01*
X67893Y-30931D01*
X67893Y-31170D01*
X67901Y-31210D01*
X67916Y-31247D01*
X67939Y-31281D01*
X67967Y-31310D01*
X68001Y-31333D01*
X68038Y-31349D01*
X68078Y-31357D01*
X68119Y-31357D01*
X68185Y-31357D01*
X68170Y-31395D01*
X68155Y-31462D01*
X68155Y-31529D01*
X68167Y-31596D01*
X68192Y-31659D01*
X68205Y-31680D01*
X68083Y-31680D01*
X68050Y-31687D01*
X68020Y-31699D01*
X67992Y-31718D01*
X67968Y-31741D01*
X67950Y-31769D01*
X67937Y-31800D01*
X67930Y-31832D01*
X67930Y-31866D01*
X67930Y-32011D01*
X67717Y-32011D01*
X67724Y-32008D01*
X67758Y-31985D01*
X67786Y-31956D01*
X67809Y-31922D01*
X67824Y-31885D01*
X67832Y-31845D01*
X67832Y-31781D01*
X67832Y-31619D01*
X67832Y-31555D01*
X67824Y-31515D01*
X67809Y-31478D01*
X67786Y-31444D01*
X67758Y-31415D01*
X67724Y-31392D01*
X67687Y-31376D01*
X67647Y-31368D01*
X67606Y-31368D01*
X67481Y-31368D01*
X67430Y-31419D01*
X67430Y-31670D01*
X67781Y-31670D01*
X67832Y-31619D01*
X67832Y-31781D01*
X67781Y-31730D01*
X67480Y-31730D01*
X67430Y-31730D01*
X67370Y-31730D01*
X67370Y-31670D01*
X67370Y-31419D01*
X67319Y-31368D01*
X67194Y-31368D01*
X67153Y-31368D01*
X67113Y-31376D01*
X67076Y-31392D01*
X67042Y-31415D01*
X67014Y-31444D01*
X66991Y-31478D01*
X66976Y-31515D01*
X66968Y-31555D01*
X66968Y-31619D01*
X67019Y-31670D01*
X67370Y-31670D01*
X67370Y-31730D01*
X67320Y-31730D01*
X67019Y-31730D01*
X66968Y-31781D01*
X66968Y-31845D01*
X66976Y-31885D01*
X66991Y-31922D01*
X67014Y-31956D01*
X67042Y-31985D01*
X67076Y-32008D01*
X67104Y-32020D01*
X67095Y-32024D01*
X67067Y-32043D01*
X67043Y-32066D01*
X67037Y-32075D01*
X65540Y-32075D01*
X65540Y-32022D01*
X65535Y-32000D01*
X65540Y-31979D01*
X65540Y-31945D01*
X65540Y-31882D01*
X65553Y-31863D01*
X65569Y-31826D01*
X65577Y-31786D01*
X65577Y-31785D01*
X65526Y-31734D01*
X65501Y-31734D01*
X65479Y-31711D01*
X65469Y-31704D01*
X65478Y-31699D01*
X65502Y-31676D01*
X65526Y-31676D01*
X65577Y-31625D01*
X65577Y-31624D01*
X65569Y-31584D01*
X65553Y-31547D01*
X65542Y-31531D01*
X66187Y-31531D01*
X66189Y-31531D01*
X66230Y-31527D01*
X66232Y-31527D01*
X66267Y-31515D01*
X66270Y-31515D01*
X66270Y-31514D01*
X66273Y-31514D01*
X66284Y-31507D01*
X66309Y-31496D01*
X66311Y-31494D01*
X66342Y-31469D01*
X66344Y-31467D01*
X66345Y-31467D01*
X68432Y-29378D01*
X68396Y-29433D01*
X68370Y-29495D01*
X68355Y-29562D01*
X68355Y-29629D01*
X68367Y-29696D01*
X68392Y-29759D01*
X68428Y-29815D01*
X68475Y-29864D01*
X68531Y-29903D01*
X68593Y-29930D01*
X68659Y-29944D01*
X68727Y-29946D01*
X68793Y-29934D01*
X68856Y-29909D01*
X68914Y-29873D01*
X68963Y-29826D01*
X68967Y-29820D01*
X69408Y-29820D01*
X69480Y-29891D01*
X69480Y-33908D01*
X69383Y-34005D01*
X69158Y-34005D01*
X69125Y-34012D01*
X69095Y-34024D01*
X69067Y-34043D01*
X69043Y-34066D01*
X69025Y-34094D01*
X69020Y-34104D01*
X69008Y-34076D01*
X68985Y-34042D01*
X68956Y-34014D01*
X68922Y-33991D01*
X68885Y-33976D01*
X68845Y-33968D01*
X68781Y-33968D01*
X68730Y-34019D01*
X68730Y-34320D01*
X68730Y-34370D01*
X68730Y-34430D01*
X68730Y-34480D01*
X68730Y-34781D01*
X68781Y-34832D01*
X68845Y-34832D01*
X68885Y-34824D01*
X68922Y-34809D01*
X68956Y-34786D01*
X68985Y-34758D01*
X69008Y-34724D01*
X69020Y-34695D01*
X69024Y-34705D01*
X69043Y-34733D01*
X69066Y-34757D01*
X69070Y-34759D01*
X69070Y-35004D01*
X69032Y-35042D01*
X68670Y-35042D01*
X68670Y-34781D01*
X68670Y-34430D01*
X68670Y-34370D01*
X68670Y-34019D01*
X68619Y-33968D01*
X68555Y-33968D01*
X68515Y-33976D01*
X68478Y-33991D01*
X68444Y-34014D01*
X68415Y-34042D01*
X68392Y-34076D01*
X68376Y-34113D01*
X68368Y-34153D01*
X68368Y-34194D01*
X68368Y-34319D01*
X68419Y-34370D01*
X68670Y-34370D01*
X68670Y-34430D01*
X68419Y-34430D01*
X68368Y-34481D01*
X68368Y-34606D01*
X68368Y-34647D01*
X68376Y-34687D01*
X68392Y-34724D01*
X68415Y-34758D01*
X68444Y-34786D01*
X68478Y-34809D01*
X68515Y-34824D01*
X68555Y-34832D01*
X68619Y-34832D01*
X68670Y-34781D01*
X68670Y-35042D01*
X68182Y-35042D01*
X68179Y-35025D01*
X68167Y-34995D01*
X68148Y-34967D01*
X68125Y-34943D01*
X68097Y-34925D01*
X68066Y-34912D01*
X68034Y-34905D01*
X68000Y-34905D01*
X67605Y-34905D01*
X67572Y-34912D01*
X67542Y-34924D01*
X67514Y-34943D01*
X67490Y-34966D01*
X67472Y-34994D01*
X67459Y-35025D01*
X67452Y-35057D01*
X67452Y-35091D01*
X67452Y-35486D01*
X67459Y-35519D01*
X67471Y-35549D01*
X67490Y-35577D01*
X67513Y-35601D01*
X67541Y-35619D01*
X67572Y-35632D01*
X67604Y-35639D01*
X67638Y-35639D01*
X68033Y-35639D01*
X68066Y-35632D01*
X68096Y-35620D01*
X68124Y-35601D01*
X68148Y-35578D01*
X68166Y-35550D01*
X68179Y-35519D01*
X68182Y-35502D01*
X69126Y-35502D01*
X69128Y-35502D01*
X69170Y-35498D01*
X69173Y-35498D01*
X69209Y-35487D01*
X69213Y-35486D01*
X69213Y-35485D01*
X69216Y-35485D01*
X69253Y-35465D01*
X69255Y-35464D01*
X69265Y-35454D01*
X69289Y-35437D01*
X69290Y-35435D01*
X69291Y-35435D01*
X69461Y-35264D01*
X69462Y-35263D01*
X69467Y-35256D01*
X69490Y-35230D01*
X69491Y-35228D01*
X69492Y-35225D01*
X69511Y-35191D01*
X69513Y-35189D01*
X69521Y-35160D01*
X69525Y-35148D01*
X69525Y-35146D01*
X69530Y-35103D01*
X69530Y-35101D01*
X69530Y-35100D01*
X69530Y-34759D01*
X69533Y-34757D01*
X69557Y-34734D01*
X69575Y-34706D01*
X69588Y-34675D01*
X69595Y-34643D01*
X69595Y-34609D01*
X69595Y-34416D01*
X69854Y-34157D01*
X69855Y-34156D01*
X69882Y-34124D01*
X69883Y-34123D01*
X69888Y-34111D01*
X69902Y-34087D01*
X69902Y-34085D01*
X69915Y-34046D01*
X69915Y-34044D01*
X69920Y-34003D01*
X69920Y-34000D01*
X69920Y-29800D01*
X69916Y-29758D01*
X69916Y-29757D01*
X69910Y-29739D01*
X69904Y-29718D01*
X69903Y-29716D01*
X69884Y-29680D01*
X69883Y-29678D01*
X69863Y-29653D01*
X69857Y-29646D01*
X69856Y-29645D01*
X69855Y-29644D01*
X69657Y-29446D01*
X69656Y-29444D01*
X69634Y-29427D01*
X69624Y-29418D01*
X69622Y-29417D01*
X69587Y-29398D01*
X69584Y-29397D01*
X69546Y-29385D01*
X69543Y-29384D01*
X69512Y-29381D01*
X69503Y-29380D01*
X69501Y-29380D01*
X69500Y-29380D01*
X68968Y-29380D01*
X68921Y-29333D01*
X68865Y-29295D01*
X68802Y-29269D01*
X68736Y-29255D01*
X68668Y-29255D01*
X68602Y-29267D01*
X68539Y-29293D01*
X68483Y-29330D01*
X68445Y-29365D01*
X70354Y-27457D01*
X70355Y-27456D01*
X70382Y-27424D01*
X70383Y-27423D01*
X70391Y-27406D01*
X70402Y-27387D01*
X70402Y-27384D01*
X70403Y-27384D01*
X70403Y-27382D01*
X70415Y-27346D01*
X70415Y-27343D01*
X70420Y-27303D01*
X70420Y-27301D01*
X70420Y-27300D01*
X70420Y-27129D01*
X70429Y-27109D01*
X70444Y-27043D01*
X70445Y-26966D01*
X70445Y-34919D01*
X70428Y-34912D01*
X70396Y-34905D01*
X70362Y-34905D01*
X69967Y-34905D01*
X69934Y-34912D01*
X69904Y-34924D01*
X69876Y-34943D01*
X69852Y-34966D01*
X69834Y-34994D01*
X69821Y-35025D01*
X69814Y-35057D01*
X69814Y-35091D01*
X69814Y-35486D01*
X69821Y-35519D01*
X69833Y-35549D01*
X69852Y-35577D01*
X69875Y-35601D01*
X69903Y-35619D01*
X69934Y-35632D01*
X69966Y-35639D01*
X70000Y-35639D01*
X70395Y-35639D01*
X70428Y-35632D01*
X70458Y-35620D01*
X70486Y-35601D01*
X70510Y-35578D01*
X70528Y-35550D01*
X70541Y-35519D01*
X70548Y-35487D01*
X70548Y-36514D01*
X70541Y-36481D01*
X70529Y-36451D01*
X70510Y-36423D01*
X70487Y-36399D01*
X70459Y-36381D01*
X70428Y-36368D01*
X70411Y-36364D01*
X70411Y-36121D01*
X70411Y-36119D01*
X70407Y-36076D01*
X70407Y-36074D01*
X70394Y-36034D01*
X70394Y-36031D01*
X70374Y-35994D01*
X70373Y-35992D01*
X70363Y-35981D01*
X70346Y-35958D01*
X70344Y-35957D01*
X70343Y-35956D01*
X70226Y-35839D01*
X70225Y-35837D01*
X70192Y-35810D01*
X70190Y-35808D01*
X70153Y-35789D01*
X70150Y-35787D01*
X70108Y-35774D01*
X70073Y-35770D01*
X70065Y-35770D01*
X70063Y-35770D01*
X70062Y-35770D01*
X69358Y-35770D01*
X69321Y-35733D01*
X69265Y-35695D01*
X69202Y-35669D01*
X69136Y-35655D01*
X69068Y-35655D01*
X69002Y-35667D01*
X68939Y-35693D01*
X68883Y-35730D01*
X68841Y-35770D01*
X67395Y-35770D01*
X67395Y-35758D01*
X67388Y-35725D01*
X67376Y-35695D01*
X67357Y-35667D01*
X67334Y-35643D01*
X67306Y-35625D01*
X67275Y-35612D01*
X67243Y-35605D01*
X67209Y-35605D01*
X66758Y-35605D01*
X66725Y-35612D01*
X66695Y-35624D01*
X66667Y-35643D01*
X66643Y-35666D01*
X66625Y-35694D01*
X66612Y-35725D01*
X66605Y-35757D01*
X66605Y-35791D01*
X66605Y-36042D01*
X66612Y-36075D01*
X66624Y-36105D01*
X66643Y-36133D01*
X66666Y-36157D01*
X66694Y-36175D01*
X66697Y-36176D01*
X66504Y-36370D01*
X65195Y-36370D01*
X65195Y-36369D01*
X65195Y-36158D01*
X65188Y-36125D01*
X65176Y-36095D01*
X65157Y-36067D01*
X65134Y-36043D01*
X65106Y-36025D01*
X65075Y-36012D01*
X65043Y-36005D01*
X65009Y-36005D01*
X64620Y-36005D01*
X64630Y-35995D01*
X65042Y-35995D01*
X65075Y-35988D01*
X65105Y-35976D01*
X65133Y-35957D01*
X65157Y-35934D01*
X65175Y-35906D01*
X65188Y-35875D01*
X65195Y-35843D01*
X65195Y-35809D01*
X65195Y-35558D01*
X65188Y-35525D01*
X65176Y-35495D01*
X65157Y-35467D01*
X65134Y-35443D01*
X65106Y-35425D01*
X65075Y-35412D01*
X65043Y-35405D01*
X65009Y-35405D01*
X64558Y-35405D01*
X64525Y-35412D01*
X64495Y-35424D01*
X64467Y-35443D01*
X64443Y-35466D01*
X64425Y-35494D01*
X64412Y-35525D01*
X64405Y-35557D01*
X64405Y-35569D01*
X63883Y-36091D01*
X63868Y-36069D01*
X63845Y-36045D01*
X63817Y-36027D01*
X63786Y-36014D01*
X63754Y-36007D01*
X63720Y-36007D01*
X63247Y-36007D01*
X63214Y-36014D01*
X63184Y-36026D01*
X63156Y-36045D01*
X63132Y-36068D01*
X63114Y-36096D01*
X63101Y-36127D01*
X63094Y-36159D01*
X63094Y-36193D01*
X63094Y-36666D01*
X63101Y-36699D01*
X63113Y-36729D01*
X63132Y-36757D01*
X63144Y-36770D01*
X62595Y-36770D01*
X62595Y-36769D01*
X62595Y-36558D01*
X62588Y-36525D01*
X62576Y-36495D01*
X62557Y-36467D01*
X62534Y-36443D01*
X62506Y-36425D01*
X62475Y-36412D01*
X62443Y-36405D01*
X62409Y-36405D01*
X61958Y-36405D01*
X61925Y-36412D01*
X61895Y-36424D01*
X61867Y-36443D01*
X61843Y-36466D01*
X61825Y-36494D01*
X61812Y-36525D01*
X61805Y-36557D01*
X61805Y-36591D01*
X61805Y-36842D01*
X61812Y-36875D01*
X61824Y-36905D01*
X61843Y-36933D01*
X61866Y-36957D01*
X61894Y-36975D01*
X61925Y-36988D01*
X61957Y-36995D01*
X61991Y-36995D01*
X62118Y-36995D01*
X62158Y-37007D01*
X62184Y-37009D01*
X62336Y-37161D01*
X62337Y-37162D01*
X62343Y-37167D01*
X62370Y-37190D01*
X62372Y-37191D01*
X62375Y-37192D01*
X62409Y-37211D01*
X62411Y-37213D01*
X62440Y-37221D01*
X62452Y-37225D01*
X62454Y-37225D01*
X62497Y-37230D01*
X62499Y-37230D01*
X62500Y-37230D01*
X64398Y-37230D01*
X64400Y-37230D01*
X64442Y-37226D01*
X64445Y-37226D01*
X64481Y-37215D01*
X64485Y-37214D01*
X64485Y-37213D01*
X64488Y-37213D01*
X64525Y-37193D01*
X64527Y-37192D01*
X64537Y-37182D01*
X64561Y-37165D01*
X64562Y-37163D01*
X64563Y-37163D01*
X64951Y-36773D01*
X64970Y-36790D01*
X64972Y-36791D01*
X64975Y-36792D01*
X65009Y-36811D01*
X65011Y-36813D01*
X65040Y-36821D01*
X65052Y-36825D01*
X65054Y-36825D01*
X65097Y-36830D01*
X65099Y-36830D01*
X65100Y-36830D01*
X66598Y-36830D01*
X66600Y-36830D01*
X66642Y-36826D01*
X66645Y-36826D01*
X66681Y-36815D01*
X66685Y-36814D01*
X66685Y-36813D01*
X66688Y-36813D01*
X66725Y-36793D01*
X66727Y-36792D01*
X66737Y-36782D01*
X66761Y-36765D01*
X66762Y-36763D01*
X66763Y-36763D01*
X67161Y-36364D01*
X67162Y-36363D01*
X67167Y-36356D01*
X67190Y-36330D01*
X67191Y-36328D01*
X67211Y-36291D01*
X67211Y-36290D01*
X67212Y-36289D01*
X67216Y-36274D01*
X67225Y-36248D01*
X67225Y-36246D01*
X67226Y-36230D01*
X67227Y-36230D01*
X68842Y-36230D01*
X68875Y-36264D01*
X68931Y-36303D01*
X68993Y-36330D01*
X69059Y-36344D01*
X69127Y-36346D01*
X69193Y-36334D01*
X69256Y-36309D01*
X69314Y-36273D01*
X69358Y-36230D01*
X69951Y-36230D01*
X69951Y-36364D01*
X69934Y-36368D01*
X69904Y-36380D01*
X69876Y-36399D01*
X69852Y-36422D01*
X69834Y-36450D01*
X69821Y-36481D01*
X69814Y-36513D01*
X69814Y-36547D01*
X69814Y-36942D01*
X69821Y-36975D01*
X69833Y-37005D01*
X69852Y-37033D01*
X69875Y-37057D01*
X69903Y-37075D01*
X69934Y-37088D01*
X69966Y-37095D01*
X70000Y-37095D01*
X70395Y-37095D01*
X70428Y-37088D01*
X70458Y-37076D01*
X70486Y-37057D01*
X70510Y-37034D01*
X70528Y-37006D01*
X70541Y-36975D01*
X70548Y-36943D01*
X70548Y-37354D01*
X68186Y-37354D01*
X68186Y-36943D01*
X68186Y-36909D01*
X68186Y-36514D01*
X68179Y-36481D01*
X68167Y-36451D01*
X68148Y-36423D01*
X68125Y-36399D01*
X68097Y-36381D01*
X68066Y-36368D01*
X68034Y-36361D01*
X68000Y-36361D01*
X67605Y-36361D01*
X67572Y-36368D01*
X67542Y-36380D01*
X67514Y-36399D01*
X67490Y-36422D01*
X67472Y-36450D01*
X67459Y-36481D01*
X67452Y-36513D01*
X67452Y-36547D01*
X67452Y-36942D01*
X67459Y-36975D01*
X67471Y-37005D01*
X67490Y-37033D01*
X67513Y-37057D01*
X67541Y-37075D01*
X67572Y-37088D01*
X67604Y-37095D01*
X67638Y-37095D01*
X68033Y-37095D01*
X68066Y-37088D01*
X68096Y-37076D01*
X68124Y-37057D01*
X68148Y-37034D01*
X68166Y-37006D01*
X68179Y-36975D01*
X68186Y-36943D01*
X68186Y-37354D01*
X51446Y-37354D01*
X51446Y-18246D01*
X70554Y-18246D01*
X70554Y-37354D01*
X70554Y-37354D01*
G37*
G54D43*
X70554Y-37354D02*
X70548Y-37354D01*
X70548Y-36943D01*
X70548Y-36909D01*
X70548Y-36514D01*
X70548Y-35487D01*
X70548Y-35453D01*
X70548Y-35058D01*
X70541Y-35025D01*
X70529Y-34995D01*
X70510Y-34967D01*
X70487Y-34943D01*
X70459Y-34925D01*
X70445Y-34919D01*
X70445Y-26966D01*
X70432Y-26900D01*
X70406Y-26837D01*
X70369Y-26781D01*
X70321Y-26733D01*
X70265Y-26695D01*
X70202Y-26669D01*
X70136Y-26655D01*
X70068Y-26655D01*
X70002Y-26667D01*
X69939Y-26693D01*
X69883Y-26730D01*
X69834Y-26777D01*
X69796Y-26833D01*
X69770Y-26895D01*
X69755Y-26962D01*
X69755Y-27029D01*
X69767Y-27096D01*
X69792Y-27159D01*
X69828Y-27215D01*
X69875Y-27264D01*
X69904Y-27284D01*
X69541Y-27647D01*
X69532Y-27600D01*
X69506Y-27537D01*
X69469Y-27481D01*
X69421Y-27433D01*
X69365Y-27395D01*
X69307Y-27371D01*
X69315Y-27346D01*
X69315Y-27343D01*
X69320Y-27303D01*
X69320Y-27301D01*
X69320Y-27300D01*
X69320Y-19978D01*
X69594Y-19704D01*
X69594Y-20066D01*
X69601Y-20099D01*
X69613Y-20129D01*
X69632Y-20157D01*
X69655Y-20181D01*
X69670Y-20190D01*
X69667Y-20193D01*
X69643Y-20216D01*
X69625Y-20244D01*
X69612Y-20275D01*
X69605Y-20307D01*
X69605Y-20341D01*
X69605Y-20592D01*
X69612Y-20625D01*
X69624Y-20655D01*
X69643Y-20683D01*
X69666Y-20707D01*
X69694Y-20725D01*
X69725Y-20738D01*
X69757Y-20745D01*
X69791Y-20745D01*
X69954Y-20745D01*
X69942Y-20746D01*
X69913Y-20755D01*
X69758Y-20755D01*
X69725Y-20762D01*
X69695Y-20774D01*
X69667Y-20793D01*
X69643Y-20816D01*
X69625Y-20844D01*
X69612Y-20875D01*
X69605Y-20907D01*
X69605Y-20941D01*
X69605Y-21192D01*
X69612Y-21225D01*
X69624Y-21255D01*
X69643Y-21283D01*
X69666Y-21307D01*
X69691Y-21323D01*
X69691Y-21744D01*
X69670Y-21795D01*
X69655Y-21862D01*
X69655Y-21929D01*
X69667Y-21996D01*
X69692Y-22059D01*
X69728Y-22115D01*
X69775Y-22164D01*
X69831Y-22203D01*
X69893Y-22230D01*
X69959Y-22244D01*
X70027Y-22246D01*
X70093Y-22234D01*
X70156Y-22209D01*
X70214Y-22173D01*
X70263Y-22126D01*
X70302Y-22071D01*
X70329Y-22009D01*
X70344Y-21943D01*
X70345Y-21866D01*
X70332Y-21800D01*
X70309Y-21744D01*
X70309Y-21323D01*
X70333Y-21307D01*
X70357Y-21284D01*
X70375Y-21256D01*
X70388Y-21225D01*
X70395Y-21193D01*
X70395Y-21159D01*
X70395Y-20908D01*
X70388Y-20875D01*
X70376Y-20845D01*
X70357Y-20817D01*
X70334Y-20793D01*
X70306Y-20775D01*
X70275Y-20762D01*
X70243Y-20755D01*
X70209Y-20755D01*
X70087Y-20755D01*
X70062Y-20747D01*
X70042Y-20745D01*
X70242Y-20745D01*
X70275Y-20738D01*
X70305Y-20726D01*
X70333Y-20707D01*
X70357Y-20684D01*
X70375Y-20656D01*
X70388Y-20625D01*
X70395Y-20593D01*
X70395Y-20559D01*
X70395Y-20308D01*
X70388Y-20275D01*
X70376Y-20245D01*
X70357Y-20217D01*
X70334Y-20193D01*
X70330Y-20190D01*
X70344Y-20181D01*
X70368Y-20158D01*
X70386Y-20130D01*
X70399Y-20099D01*
X70406Y-20067D01*
X70406Y-20033D01*
X70406Y-19560D01*
X70399Y-19527D01*
X70387Y-19497D01*
X70368Y-19469D01*
X70345Y-19445D01*
X70317Y-19427D01*
X70286Y-19414D01*
X70254Y-19407D01*
X70220Y-19407D01*
X69891Y-19407D01*
X69905Y-19393D01*
X70253Y-19393D01*
X70286Y-19386D01*
X70316Y-19374D01*
X70344Y-19355D01*
X70368Y-19332D01*
X70386Y-19304D01*
X70399Y-19273D01*
X70406Y-19241D01*
X70406Y-19207D01*
X70406Y-18734D01*
X70399Y-18701D01*
X70387Y-18671D01*
X70368Y-18643D01*
X70345Y-18619D01*
X70317Y-18601D01*
X70286Y-18588D01*
X70254Y-18581D01*
X70220Y-18581D01*
X69747Y-18581D01*
X69714Y-18588D01*
X69684Y-18600D01*
X69656Y-18619D01*
X69632Y-18642D01*
X69614Y-18670D01*
X69601Y-18701D01*
X69594Y-18733D01*
X69594Y-18767D01*
X69594Y-19081D01*
X69111Y-19564D01*
X69111Y-18802D01*
X69111Y-18800D01*
X69107Y-18761D01*
X69107Y-18759D01*
X69101Y-18742D01*
X69096Y-18721D01*
X69095Y-18720D01*
X69078Y-18686D01*
X69077Y-18685D01*
X69076Y-18683D01*
X69051Y-18653D01*
X69050Y-18651D01*
X69044Y-18646D01*
X68755Y-18357D01*
X68751Y-18352D01*
X68749Y-18351D01*
X68719Y-18326D01*
X68717Y-18325D01*
X68683Y-18306D01*
X68657Y-18298D01*
X68642Y-18293D01*
X68611Y-18289D01*
X68603Y-18289D01*
X68601Y-18289D01*
X68600Y-18289D01*
X52689Y-18289D01*
X52687Y-18289D01*
X52646Y-18293D01*
X52607Y-18305D01*
X52570Y-18324D01*
X52542Y-18346D01*
X52539Y-18349D01*
X52538Y-18350D01*
X52537Y-18351D01*
X52307Y-18581D01*
X51947Y-18581D01*
X51914Y-18588D01*
X51884Y-18600D01*
X51856Y-18619D01*
X51832Y-18642D01*
X51814Y-18670D01*
X51801Y-18701D01*
X51794Y-18733D01*
X51794Y-18767D01*
X51794Y-19240D01*
X51801Y-19273D01*
X51813Y-19303D01*
X51832Y-19331D01*
X51855Y-19355D01*
X51883Y-19373D01*
X51914Y-19386D01*
X51946Y-19393D01*
X51980Y-19393D01*
X52453Y-19393D01*
X52486Y-19386D01*
X52516Y-19374D01*
X52544Y-19355D01*
X52568Y-19332D01*
X52586Y-19304D01*
X52599Y-19273D01*
X52606Y-19241D01*
X52606Y-19207D01*
X52606Y-18879D01*
X52774Y-18711D01*
X56018Y-18711D01*
X56018Y-18744D01*
X56018Y-18919D01*
X56069Y-18970D01*
X56420Y-18970D01*
X56470Y-18970D01*
X56530Y-18970D01*
X56580Y-18970D01*
X56931Y-18970D01*
X56982Y-18919D01*
X56982Y-18744D01*
X56982Y-18711D01*
X57104Y-18711D01*
X57101Y-18714D01*
X57120Y-18733D01*
X57093Y-18742D01*
X57051Y-18825D01*
X57026Y-18916D01*
X57018Y-19009D01*
X57030Y-19103D01*
X57059Y-19192D01*
X57093Y-19258D01*
X57175Y-19282D01*
X57422Y-19035D01*
X57458Y-19000D01*
X57457Y-18999D01*
X57499Y-18957D01*
X57500Y-18958D01*
X57500Y-18957D01*
X57542Y-18999D01*
X57542Y-19000D01*
X57578Y-19035D01*
X57825Y-19282D01*
X57907Y-19258D01*
X57949Y-19175D01*
X57974Y-19084D01*
X57982Y-18991D01*
X57970Y-18897D01*
X57941Y-18808D01*
X57907Y-18742D01*
X57879Y-18733D01*
X57899Y-18714D01*
X57896Y-18711D01*
X58104Y-18711D01*
X58101Y-18714D01*
X58120Y-18733D01*
X58093Y-18742D01*
X58051Y-18825D01*
X58026Y-18916D01*
X58018Y-19009D01*
X58030Y-19103D01*
X58059Y-19192D01*
X58093Y-19258D01*
X58175Y-19282D01*
X58422Y-19035D01*
X58458Y-19000D01*
X58457Y-18999D01*
X58499Y-18957D01*
X58500Y-18958D01*
X58500Y-18957D01*
X58542Y-18999D01*
X58542Y-19000D01*
X58578Y-19035D01*
X58825Y-19282D01*
X58907Y-19258D01*
X58949Y-19175D01*
X58974Y-19084D01*
X58982Y-18991D01*
X58970Y-18897D01*
X58941Y-18808D01*
X58907Y-18742D01*
X58879Y-18733D01*
X58899Y-18714D01*
X58896Y-18711D01*
X59104Y-18711D01*
X59101Y-18714D01*
X59120Y-18733D01*
X59093Y-18742D01*
X59051Y-18825D01*
X59026Y-18916D01*
X59018Y-19009D01*
X59030Y-19103D01*
X59059Y-19192D01*
X59093Y-19258D01*
X59175Y-19282D01*
X59422Y-19035D01*
X59458Y-19000D01*
X59457Y-18999D01*
X59499Y-18957D01*
X59500Y-18958D01*
X59500Y-18957D01*
X59542Y-18999D01*
X59542Y-19000D01*
X59578Y-19035D01*
X59825Y-19282D01*
X59907Y-19258D01*
X59949Y-19175D01*
X59974Y-19084D01*
X59982Y-18991D01*
X59970Y-18897D01*
X59941Y-18808D01*
X59907Y-18742D01*
X59879Y-18733D01*
X59899Y-18714D01*
X59896Y-18711D01*
X60104Y-18711D01*
X60101Y-18714D01*
X60120Y-18733D01*
X60093Y-18742D01*
X60051Y-18825D01*
X60026Y-18916D01*
X60018Y-19009D01*
X60030Y-19103D01*
X60059Y-19192D01*
X60093Y-19258D01*
X60175Y-19282D01*
X60422Y-19035D01*
X60458Y-19000D01*
X60457Y-18999D01*
X60499Y-18957D01*
X60500Y-18958D01*
X60500Y-18957D01*
X60542Y-18999D01*
X60542Y-19000D01*
X60578Y-19035D01*
X60825Y-19282D01*
X60907Y-19258D01*
X60949Y-19175D01*
X60974Y-19084D01*
X60982Y-18991D01*
X60970Y-18897D01*
X60941Y-18808D01*
X60907Y-18742D01*
X60879Y-18733D01*
X60899Y-18714D01*
X60896Y-18711D01*
X61104Y-18711D01*
X61101Y-18714D01*
X61120Y-18733D01*
X61093Y-18742D01*
X61051Y-18825D01*
X61026Y-18916D01*
X61018Y-19009D01*
X61030Y-19103D01*
X61059Y-19192D01*
X61093Y-19258D01*
X61175Y-19282D01*
X61422Y-19035D01*
X61458Y-19000D01*
X61457Y-18999D01*
X61499Y-18957D01*
X61500Y-18958D01*
X61500Y-18957D01*
X61542Y-18999D01*
X61542Y-19000D01*
X61578Y-19035D01*
X61825Y-19282D01*
X61907Y-19258D01*
X61949Y-19175D01*
X61974Y-19084D01*
X61982Y-18991D01*
X61970Y-18897D01*
X61941Y-18808D01*
X61907Y-18742D01*
X61879Y-18733D01*
X61899Y-18714D01*
X61896Y-18711D01*
X62104Y-18711D01*
X62101Y-18714D01*
X62120Y-18733D01*
X62093Y-18742D01*
X62051Y-18825D01*
X62026Y-18916D01*
X62018Y-19009D01*
X62030Y-19103D01*
X62059Y-19192D01*
X62093Y-19258D01*
X62175Y-19282D01*
X62422Y-19035D01*
X62458Y-19000D01*
X62457Y-18999D01*
X62499Y-18957D01*
X62500Y-18958D01*
X62500Y-18957D01*
X62542Y-18999D01*
X62542Y-19000D01*
X62578Y-19035D01*
X62825Y-19282D01*
X62907Y-19258D01*
X62949Y-19175D01*
X62974Y-19084D01*
X62982Y-18991D01*
X62970Y-18897D01*
X62941Y-18808D01*
X62907Y-18742D01*
X62879Y-18733D01*
X62899Y-18714D01*
X62896Y-18711D01*
X63104Y-18711D01*
X63101Y-18714D01*
X63120Y-18733D01*
X63093Y-18742D01*
X63051Y-18825D01*
X63026Y-18916D01*
X63018Y-19009D01*
X63030Y-19103D01*
X63059Y-19192D01*
X63093Y-19258D01*
X63175Y-19282D01*
X63422Y-19035D01*
X63458Y-19000D01*
X63457Y-18999D01*
X63499Y-18957D01*
X63500Y-18958D01*
X63500Y-18957D01*
X63542Y-18999D01*
X63542Y-19000D01*
X63578Y-19035D01*
X63825Y-19282D01*
X63907Y-19258D01*
X63949Y-19175D01*
X63974Y-19084D01*
X63982Y-18991D01*
X63970Y-18897D01*
X63941Y-18808D01*
X63907Y-18742D01*
X63879Y-18733D01*
X63899Y-18714D01*
X63896Y-18711D01*
X64104Y-18711D01*
X64101Y-18714D01*
X64120Y-18733D01*
X64093Y-18742D01*
X64051Y-18825D01*
X64026Y-18916D01*
X64018Y-19009D01*
X64030Y-19103D01*
X64059Y-19192D01*
X64093Y-19258D01*
X64175Y-19282D01*
X64422Y-19035D01*
X64458Y-19000D01*
X64457Y-18999D01*
X64499Y-18957D01*
X64500Y-18958D01*
X64500Y-18957D01*
X64542Y-18999D01*
X64542Y-19000D01*
X64578Y-19035D01*
X64825Y-19282D01*
X64907Y-19258D01*
X64949Y-19175D01*
X64974Y-19084D01*
X64982Y-18991D01*
X64970Y-18897D01*
X64941Y-18808D01*
X64907Y-18742D01*
X64879Y-18733D01*
X64899Y-18714D01*
X64896Y-18711D01*
X65104Y-18711D01*
X65101Y-18714D01*
X65120Y-18733D01*
X65093Y-18742D01*
X65051Y-18825D01*
X65026Y-18916D01*
X65018Y-19009D01*
X65030Y-19103D01*
X65059Y-19192D01*
X65093Y-19258D01*
X65175Y-19282D01*
X65422Y-19035D01*
X65458Y-19000D01*
X65457Y-18999D01*
X65499Y-18957D01*
X65500Y-18958D01*
X65500Y-18957D01*
X65542Y-18999D01*
X65542Y-19000D01*
X65578Y-19035D01*
X65825Y-19282D01*
X65907Y-19258D01*
X65949Y-19175D01*
X65974Y-19084D01*
X65982Y-18991D01*
X65970Y-18897D01*
X65941Y-18808D01*
X65907Y-18742D01*
X65879Y-18733D01*
X65899Y-18714D01*
X65896Y-18711D01*
X68513Y-18711D01*
X68689Y-18887D01*
X68689Y-19641D01*
X68685Y-19654D01*
X68680Y-19697D01*
X68680Y-19700D01*
X68680Y-27108D01*
X68545Y-27243D01*
X68545Y-26966D01*
X68532Y-26900D01*
X68506Y-26837D01*
X68469Y-26781D01*
X68421Y-26733D01*
X68365Y-26695D01*
X68302Y-26669D01*
X68236Y-26655D01*
X68168Y-26655D01*
X68102Y-26667D01*
X68039Y-26693D01*
X67983Y-26730D01*
X67934Y-26777D01*
X67931Y-26780D01*
X67895Y-26780D01*
X67895Y-26758D01*
X67888Y-26725D01*
X67876Y-26695D01*
X67857Y-26667D01*
X67834Y-26643D01*
X67806Y-26625D01*
X67775Y-26612D01*
X67743Y-26605D01*
X67709Y-26605D01*
X67604Y-26605D01*
X67604Y-25049D01*
X67604Y-24957D01*
X67587Y-24867D01*
X67553Y-24782D01*
X67502Y-24705D01*
X67438Y-24639D01*
X67362Y-24587D01*
X67277Y-24551D01*
X67188Y-24532D01*
X67096Y-24530D01*
X66938Y-24530D01*
X66877Y-24469D01*
X66904Y-24470D01*
X67181Y-24469D01*
X67271Y-24451D01*
X67356Y-24416D01*
X67433Y-24365D01*
X67498Y-24300D01*
X67550Y-24224D01*
X67585Y-24139D01*
X67604Y-24049D01*
X67604Y-23957D01*
X67587Y-23867D01*
X67553Y-23782D01*
X67502Y-23705D01*
X67438Y-23639D01*
X67362Y-23587D01*
X67277Y-23551D01*
X67188Y-23532D01*
X67096Y-23530D01*
X66819Y-23531D01*
X66729Y-23549D01*
X66644Y-23584D01*
X66567Y-23635D01*
X66502Y-23700D01*
X66460Y-23760D01*
X66132Y-23760D01*
X66126Y-23745D01*
X66107Y-23717D01*
X66084Y-23693D01*
X66056Y-23675D01*
X66025Y-23662D01*
X65993Y-23655D01*
X65982Y-23655D01*
X65959Y-23655D01*
X65946Y-23655D01*
X65946Y-20956D01*
X65946Y-19956D01*
X65929Y-19870D01*
X65896Y-19789D01*
X65847Y-19717D01*
X65785Y-19655D01*
X65782Y-19652D01*
X65782Y-19325D01*
X65500Y-19042D01*
X65458Y-19084D01*
X65218Y-19325D01*
X65242Y-19407D01*
X65325Y-19449D01*
X65416Y-19474D01*
X65509Y-19482D01*
X65603Y-19470D01*
X65692Y-19441D01*
X65758Y-19407D01*
X65782Y-19325D01*
X65782Y-19652D01*
X65713Y-19606D01*
X65632Y-19572D01*
X65547Y-19554D01*
X65459Y-19554D01*
X65373Y-19570D01*
X65292Y-19603D01*
X65219Y-19651D01*
X65157Y-19712D01*
X65107Y-19784D01*
X65073Y-19865D01*
X65055Y-19950D01*
X65053Y-20038D01*
X65069Y-20124D01*
X65102Y-20205D01*
X65149Y-20279D01*
X65210Y-20341D01*
X65282Y-20391D01*
X65362Y-20426D01*
X65447Y-20445D01*
X65535Y-20447D01*
X65621Y-20432D01*
X65702Y-20400D01*
X65776Y-20353D01*
X65839Y-20293D01*
X65890Y-20221D01*
X65925Y-20141D01*
X65945Y-20056D01*
X65946Y-19956D01*
X65946Y-20956D01*
X65929Y-20870D01*
X65896Y-20789D01*
X65847Y-20717D01*
X65785Y-20655D01*
X65713Y-20606D01*
X65632Y-20572D01*
X65547Y-20554D01*
X65459Y-20554D01*
X65373Y-20570D01*
X65292Y-20603D01*
X65219Y-20651D01*
X65157Y-20712D01*
X65107Y-20784D01*
X65073Y-20865D01*
X65055Y-20950D01*
X65053Y-21038D01*
X65069Y-21124D01*
X65102Y-21205D01*
X65149Y-21279D01*
X65210Y-21341D01*
X65282Y-21391D01*
X65362Y-21426D01*
X65447Y-21445D01*
X65535Y-21447D01*
X65621Y-21432D01*
X65702Y-21400D01*
X65776Y-21353D01*
X65839Y-21293D01*
X65890Y-21221D01*
X65925Y-21141D01*
X65945Y-21056D01*
X65946Y-20956D01*
X65946Y-23655D01*
X65508Y-23655D01*
X65475Y-23662D01*
X65445Y-23674D01*
X65417Y-23693D01*
X65399Y-23710D01*
X65320Y-23710D01*
X65320Y-23283D01*
X65313Y-23250D01*
X65301Y-23220D01*
X65282Y-23192D01*
X65259Y-23168D01*
X65231Y-23150D01*
X65200Y-23137D01*
X65168Y-23130D01*
X65134Y-23130D01*
X64982Y-23130D01*
X64946Y-23130D01*
X64946Y-20956D01*
X64946Y-19956D01*
X64929Y-19870D01*
X64896Y-19789D01*
X64847Y-19717D01*
X64785Y-19655D01*
X64782Y-19652D01*
X64782Y-19325D01*
X64500Y-19042D01*
X64458Y-19084D01*
X64218Y-19325D01*
X64242Y-19407D01*
X64325Y-19449D01*
X64416Y-19474D01*
X64509Y-19482D01*
X64603Y-19470D01*
X64692Y-19441D01*
X64758Y-19407D01*
X64782Y-19325D01*
X64782Y-19652D01*
X64713Y-19606D01*
X64632Y-19572D01*
X64547Y-19554D01*
X64459Y-19554D01*
X64373Y-19570D01*
X64292Y-19603D01*
X64219Y-19651D01*
X64157Y-19712D01*
X64107Y-19784D01*
X64073Y-19865D01*
X64055Y-19950D01*
X64053Y-20038D01*
X64069Y-20124D01*
X64102Y-20205D01*
X64149Y-20279D01*
X64210Y-20341D01*
X64282Y-20391D01*
X64362Y-20426D01*
X64447Y-20445D01*
X64535Y-20447D01*
X64621Y-20432D01*
X64702Y-20400D01*
X64776Y-20353D01*
X64839Y-20293D01*
X64890Y-20221D01*
X64925Y-20141D01*
X64945Y-20056D01*
X64946Y-19956D01*
X64946Y-20956D01*
X64929Y-20870D01*
X64896Y-20789D01*
X64847Y-20717D01*
X64785Y-20655D01*
X64713Y-20606D01*
X64632Y-20572D01*
X64547Y-20554D01*
X64459Y-20554D01*
X64373Y-20570D01*
X64292Y-20603D01*
X64219Y-20651D01*
X64157Y-20712D01*
X64107Y-20784D01*
X64073Y-20865D01*
X64055Y-20950D01*
X64053Y-21038D01*
X64069Y-21124D01*
X64102Y-21205D01*
X64149Y-21279D01*
X64210Y-21341D01*
X64282Y-21391D01*
X64362Y-21426D01*
X64447Y-21445D01*
X64535Y-21447D01*
X64621Y-21432D01*
X64702Y-21400D01*
X64776Y-21353D01*
X64839Y-21293D01*
X64890Y-21221D01*
X64925Y-21141D01*
X64945Y-21056D01*
X64946Y-20956D01*
X64946Y-23130D01*
X64333Y-23130D01*
X64300Y-23137D01*
X64270Y-23149D01*
X64242Y-23168D01*
X64218Y-23191D01*
X64200Y-23219D01*
X64187Y-23250D01*
X64180Y-23282D01*
X64180Y-23316D01*
X64180Y-23917D01*
X64187Y-23950D01*
X64199Y-23980D01*
X64218Y-24008D01*
X64241Y-24032D01*
X64269Y-24050D01*
X64300Y-24063D01*
X64332Y-24070D01*
X64366Y-24070D01*
X64893Y-24070D01*
X64899Y-24081D01*
X64929Y-24118D01*
X64964Y-24148D01*
X65005Y-24171D01*
X65050Y-24185D01*
X65097Y-24190D01*
X65100Y-24190D01*
X65399Y-24190D01*
X65416Y-24207D01*
X65444Y-24225D01*
X65475Y-24238D01*
X65507Y-24245D01*
X65541Y-24245D01*
X65992Y-24245D01*
X66015Y-24240D01*
X66461Y-24240D01*
X66475Y-24261D01*
X66020Y-24261D01*
X65993Y-24255D01*
X65959Y-24255D01*
X65508Y-24255D01*
X65475Y-24262D01*
X65445Y-24274D01*
X65417Y-24293D01*
X65393Y-24316D01*
X65375Y-24344D01*
X65362Y-24375D01*
X65355Y-24407D01*
X65355Y-24441D01*
X65355Y-24536D01*
X65318Y-24573D01*
X65313Y-24550D01*
X65301Y-24520D01*
X65282Y-24492D01*
X65259Y-24468D01*
X65231Y-24450D01*
X65200Y-24437D01*
X65168Y-24430D01*
X65134Y-24430D01*
X64684Y-24430D01*
X64663Y-24412D01*
X64661Y-24410D01*
X64633Y-24395D01*
X64614Y-24384D01*
X64611Y-24383D01*
X64560Y-24367D01*
X64557Y-24366D01*
X64519Y-24362D01*
X64504Y-24361D01*
X64501Y-24361D01*
X64500Y-24361D01*
X63982Y-24361D01*
X63946Y-24361D01*
X63946Y-20956D01*
X63946Y-19956D01*
X63929Y-19870D01*
X63896Y-19789D01*
X63847Y-19717D01*
X63785Y-19655D01*
X63782Y-19652D01*
X63782Y-19325D01*
X63500Y-19042D01*
X63458Y-19084D01*
X63218Y-19325D01*
X63242Y-19407D01*
X63325Y-19449D01*
X63416Y-19474D01*
X63509Y-19482D01*
X63603Y-19470D01*
X63692Y-19441D01*
X63758Y-19407D01*
X63782Y-19325D01*
X63782Y-19652D01*
X63713Y-19606D01*
X63632Y-19572D01*
X63547Y-19554D01*
X63459Y-19554D01*
X63373Y-19570D01*
X63292Y-19603D01*
X63219Y-19651D01*
X63157Y-19712D01*
X63107Y-19784D01*
X63073Y-19865D01*
X63055Y-19950D01*
X63053Y-20038D01*
X63069Y-20124D01*
X63102Y-20205D01*
X63149Y-20279D01*
X63210Y-20341D01*
X63282Y-20391D01*
X63362Y-20426D01*
X63447Y-20445D01*
X63535Y-20447D01*
X63621Y-20432D01*
X63702Y-20400D01*
X63776Y-20353D01*
X63839Y-20293D01*
X63890Y-20221D01*
X63925Y-20141D01*
X63945Y-20056D01*
X63946Y-19956D01*
X63946Y-20956D01*
X63929Y-20870D01*
X63896Y-20789D01*
X63847Y-20717D01*
X63785Y-20655D01*
X63713Y-20606D01*
X63632Y-20572D01*
X63547Y-20554D01*
X63459Y-20554D01*
X63373Y-20570D01*
X63292Y-20603D01*
X63219Y-20651D01*
X63157Y-20712D01*
X63107Y-20784D01*
X63073Y-20865D01*
X63055Y-20950D01*
X63053Y-21038D01*
X63069Y-21124D01*
X63102Y-21205D01*
X63149Y-21279D01*
X63210Y-21341D01*
X63282Y-21391D01*
X63362Y-21426D01*
X63447Y-21445D01*
X63535Y-21447D01*
X63621Y-21432D01*
X63702Y-21400D01*
X63776Y-21353D01*
X63839Y-21293D01*
X63890Y-21221D01*
X63925Y-21141D01*
X63945Y-21056D01*
X63946Y-20956D01*
X63946Y-24361D01*
X62982Y-24361D01*
X62946Y-24361D01*
X62946Y-20956D01*
X62946Y-19956D01*
X62929Y-19870D01*
X62896Y-19789D01*
X62847Y-19717D01*
X62785Y-19655D01*
X62782Y-19652D01*
X62782Y-19325D01*
X62500Y-19042D01*
X62458Y-19084D01*
X62218Y-19325D01*
X62242Y-19407D01*
X62325Y-19449D01*
X62416Y-19474D01*
X62509Y-19482D01*
X62603Y-19470D01*
X62692Y-19441D01*
X62758Y-19407D01*
X62782Y-19325D01*
X62782Y-19652D01*
X62713Y-19606D01*
X62632Y-19572D01*
X62547Y-19554D01*
X62459Y-19554D01*
X62373Y-19570D01*
X62292Y-19603D01*
X62219Y-19651D01*
X62157Y-19712D01*
X62107Y-19784D01*
X62073Y-19865D01*
X62055Y-19950D01*
X62053Y-20038D01*
X62069Y-20124D01*
X62102Y-20205D01*
X62149Y-20279D01*
X62210Y-20341D01*
X62282Y-20391D01*
X62362Y-20426D01*
X62447Y-20445D01*
X62535Y-20447D01*
X62621Y-20432D01*
X62702Y-20400D01*
X62776Y-20353D01*
X62839Y-20293D01*
X62890Y-20221D01*
X62925Y-20141D01*
X62945Y-20056D01*
X62946Y-19956D01*
X62946Y-20956D01*
X62929Y-20870D01*
X62896Y-20789D01*
X62847Y-20717D01*
X62785Y-20655D01*
X62713Y-20606D01*
X62632Y-20572D01*
X62547Y-20554D01*
X62459Y-20554D01*
X62373Y-20570D01*
X62292Y-20603D01*
X62219Y-20651D01*
X62157Y-20712D01*
X62107Y-20784D01*
X62073Y-20865D01*
X62055Y-20950D01*
X62053Y-21038D01*
X62069Y-21124D01*
X62102Y-21205D01*
X62149Y-21279D01*
X62210Y-21341D01*
X62282Y-21391D01*
X62362Y-21426D01*
X62447Y-21445D01*
X62535Y-21447D01*
X62621Y-21432D01*
X62702Y-21400D01*
X62776Y-21353D01*
X62839Y-21293D01*
X62890Y-21221D01*
X62925Y-21141D01*
X62945Y-21056D01*
X62946Y-20956D01*
X62946Y-24361D01*
X62232Y-24361D01*
X62232Y-22147D01*
X62232Y-22106D01*
X62232Y-21981D01*
X62232Y-21819D01*
X62232Y-21694D01*
X62232Y-21653D01*
X62224Y-21613D01*
X62208Y-21576D01*
X62185Y-21542D01*
X62156Y-21514D01*
X62122Y-21491D01*
X62085Y-21476D01*
X62045Y-21468D01*
X61982Y-21468D01*
X61981Y-21468D01*
X61946Y-21503D01*
X61946Y-20956D01*
X61946Y-19956D01*
X61929Y-19870D01*
X61896Y-19789D01*
X61847Y-19717D01*
X61785Y-19655D01*
X61782Y-19652D01*
X61782Y-19325D01*
X61500Y-19042D01*
X61458Y-19084D01*
X61218Y-19325D01*
X61242Y-19407D01*
X61325Y-19449D01*
X61416Y-19474D01*
X61509Y-19482D01*
X61603Y-19470D01*
X61692Y-19441D01*
X61758Y-19407D01*
X61782Y-19325D01*
X61782Y-19652D01*
X61713Y-19606D01*
X61632Y-19572D01*
X61547Y-19554D01*
X61459Y-19554D01*
X61373Y-19570D01*
X61292Y-19603D01*
X61219Y-19651D01*
X61157Y-19712D01*
X61107Y-19784D01*
X61073Y-19865D01*
X61055Y-19950D01*
X61053Y-20038D01*
X61069Y-20124D01*
X61102Y-20205D01*
X61149Y-20279D01*
X61210Y-20341D01*
X61282Y-20391D01*
X61362Y-20426D01*
X61447Y-20445D01*
X61535Y-20447D01*
X61621Y-20432D01*
X61702Y-20400D01*
X61776Y-20353D01*
X61839Y-20293D01*
X61890Y-20221D01*
X61925Y-20141D01*
X61945Y-20056D01*
X61946Y-19956D01*
X61946Y-20956D01*
X61929Y-20870D01*
X61896Y-20789D01*
X61847Y-20717D01*
X61785Y-20655D01*
X61713Y-20606D01*
X61632Y-20572D01*
X61547Y-20554D01*
X61459Y-20554D01*
X61373Y-20570D01*
X61292Y-20603D01*
X61219Y-20651D01*
X61157Y-20712D01*
X61107Y-20784D01*
X61073Y-20865D01*
X61055Y-20950D01*
X61053Y-21038D01*
X61069Y-21124D01*
X61102Y-21205D01*
X61149Y-21279D01*
X61210Y-21341D01*
X61280Y-21389D01*
X61280Y-21505D01*
X61158Y-21505D01*
X61125Y-21512D01*
X61095Y-21524D01*
X61067Y-21543D01*
X61043Y-21566D01*
X61025Y-21594D01*
X61012Y-21625D01*
X61005Y-21657D01*
X61005Y-21691D01*
X61005Y-22142D01*
X61012Y-22175D01*
X61024Y-22205D01*
X61043Y-22233D01*
X61066Y-22257D01*
X61094Y-22275D01*
X61125Y-22288D01*
X61157Y-22295D01*
X61191Y-22295D01*
X61442Y-22295D01*
X61475Y-22288D01*
X61505Y-22276D01*
X61533Y-22257D01*
X61557Y-22234D01*
X61575Y-22206D01*
X61579Y-22195D01*
X61592Y-22224D01*
X61615Y-22258D01*
X61644Y-22286D01*
X61678Y-22309D01*
X61715Y-22324D01*
X61755Y-22332D01*
X61819Y-22332D01*
X61870Y-22281D01*
X61870Y-21980D01*
X61870Y-21930D01*
X61870Y-21870D01*
X61870Y-21820D01*
X61870Y-21519D01*
X61819Y-21468D01*
X61755Y-21468D01*
X61720Y-21475D01*
X61720Y-21388D01*
X61776Y-21353D01*
X61839Y-21293D01*
X61890Y-21221D01*
X61925Y-21141D01*
X61945Y-21056D01*
X61946Y-20956D01*
X61946Y-21503D01*
X61930Y-21519D01*
X61930Y-21870D01*
X62181Y-21870D01*
X62232Y-21819D01*
X62232Y-21981D01*
X62181Y-21930D01*
X61930Y-21930D01*
X61930Y-22281D01*
X61981Y-22332D01*
X62045Y-22332D01*
X62085Y-22324D01*
X62122Y-22309D01*
X62156Y-22286D01*
X62185Y-22258D01*
X62208Y-22224D01*
X62224Y-22187D01*
X62232Y-22147D01*
X62232Y-24361D01*
X60995Y-24361D01*
X60995Y-22143D01*
X60995Y-22109D01*
X60995Y-21658D01*
X60988Y-21625D01*
X60982Y-21610D01*
X60976Y-21595D01*
X60957Y-21567D01*
X60934Y-21543D01*
X60906Y-21525D01*
X60875Y-21512D01*
X60843Y-21505D01*
X60809Y-21505D01*
X60720Y-21505D01*
X60720Y-21388D01*
X60776Y-21353D01*
X60839Y-21293D01*
X60890Y-21221D01*
X60925Y-21141D01*
X60945Y-21056D01*
X60946Y-20956D01*
X60946Y-19956D01*
X60929Y-19870D01*
X60896Y-19789D01*
X60847Y-19717D01*
X60785Y-19655D01*
X60782Y-19652D01*
X60782Y-19325D01*
X60500Y-19042D01*
X60458Y-19084D01*
X60218Y-19325D01*
X60242Y-19407D01*
X60325Y-19449D01*
X60416Y-19474D01*
X60509Y-19482D01*
X60603Y-19470D01*
X60692Y-19441D01*
X60758Y-19407D01*
X60782Y-19325D01*
X60782Y-19652D01*
X60713Y-19606D01*
X60632Y-19572D01*
X60547Y-19554D01*
X60459Y-19554D01*
X60373Y-19570D01*
X60292Y-19603D01*
X60219Y-19651D01*
X60157Y-19712D01*
X60107Y-19784D01*
X60073Y-19865D01*
X60055Y-19950D01*
X60053Y-20038D01*
X60069Y-20124D01*
X60102Y-20205D01*
X60149Y-20279D01*
X60210Y-20341D01*
X60282Y-20391D01*
X60362Y-20426D01*
X60447Y-20445D01*
X60535Y-20447D01*
X60621Y-20432D01*
X60702Y-20400D01*
X60776Y-20353D01*
X60839Y-20293D01*
X60890Y-20221D01*
X60925Y-20141D01*
X60945Y-20056D01*
X60946Y-19956D01*
X60946Y-20956D01*
X60929Y-20870D01*
X60896Y-20789D01*
X60847Y-20717D01*
X60785Y-20655D01*
X60713Y-20606D01*
X60632Y-20572D01*
X60547Y-20554D01*
X60459Y-20554D01*
X60373Y-20570D01*
X60292Y-20603D01*
X60219Y-20651D01*
X60157Y-20712D01*
X60107Y-20784D01*
X60073Y-20865D01*
X60055Y-20950D01*
X60053Y-21038D01*
X60069Y-21124D01*
X60102Y-21205D01*
X60149Y-21279D01*
X60210Y-21341D01*
X60280Y-21389D01*
X60280Y-21475D01*
X60245Y-21468D01*
X60181Y-21468D01*
X60130Y-21519D01*
X60130Y-21820D01*
X60130Y-21870D01*
X60130Y-21930D01*
X60130Y-21980D01*
X60130Y-22281D01*
X60181Y-22332D01*
X60245Y-22332D01*
X60285Y-22324D01*
X60322Y-22309D01*
X60356Y-22286D01*
X60385Y-22258D01*
X60408Y-22224D01*
X60420Y-22195D01*
X60424Y-22205D01*
X60443Y-22233D01*
X60466Y-22257D01*
X60494Y-22275D01*
X60525Y-22288D01*
X60557Y-22295D01*
X60591Y-22295D01*
X60842Y-22295D01*
X60875Y-22288D01*
X60905Y-22276D01*
X60933Y-22257D01*
X60957Y-22234D01*
X60975Y-22206D01*
X60988Y-22175D01*
X60995Y-22143D01*
X60995Y-24361D01*
X60070Y-24361D01*
X60070Y-22281D01*
X60070Y-21930D01*
X60070Y-21870D01*
X60070Y-21519D01*
X60019Y-21468D01*
X59982Y-21468D01*
X59955Y-21468D01*
X59946Y-21469D01*
X59946Y-20956D01*
X59946Y-19956D01*
X59929Y-19870D01*
X59896Y-19789D01*
X59847Y-19717D01*
X59785Y-19655D01*
X59782Y-19652D01*
X59782Y-19325D01*
X59500Y-19042D01*
X59458Y-19084D01*
X59218Y-19325D01*
X59242Y-19407D01*
X59325Y-19449D01*
X59416Y-19474D01*
X59509Y-19482D01*
X59603Y-19470D01*
X59692Y-19441D01*
X59758Y-19407D01*
X59782Y-19325D01*
X59782Y-19652D01*
X59713Y-19606D01*
X59632Y-19572D01*
X59547Y-19554D01*
X59459Y-19554D01*
X59373Y-19570D01*
X59292Y-19603D01*
X59219Y-19651D01*
X59157Y-19712D01*
X59107Y-19784D01*
X59073Y-19865D01*
X59055Y-19950D01*
X59053Y-20038D01*
X59069Y-20124D01*
X59102Y-20205D01*
X59149Y-20279D01*
X59210Y-20341D01*
X59282Y-20391D01*
X59362Y-20426D01*
X59447Y-20445D01*
X59535Y-20447D01*
X59621Y-20432D01*
X59702Y-20400D01*
X59776Y-20353D01*
X59839Y-20293D01*
X59890Y-20221D01*
X59925Y-20141D01*
X59945Y-20056D01*
X59946Y-19956D01*
X59946Y-20956D01*
X59929Y-20870D01*
X59896Y-20789D01*
X59847Y-20717D01*
X59785Y-20655D01*
X59713Y-20606D01*
X59632Y-20572D01*
X59547Y-20554D01*
X59459Y-20554D01*
X59373Y-20570D01*
X59292Y-20603D01*
X59219Y-20651D01*
X59157Y-20712D01*
X59107Y-20784D01*
X59073Y-20865D01*
X59055Y-20950D01*
X59053Y-21038D01*
X59069Y-21124D01*
X59102Y-21205D01*
X59149Y-21279D01*
X59210Y-21341D01*
X59282Y-21391D01*
X59362Y-21426D01*
X59447Y-21445D01*
X59535Y-21447D01*
X59621Y-21432D01*
X59702Y-21400D01*
X59776Y-21353D01*
X59839Y-21293D01*
X59890Y-21221D01*
X59925Y-21141D01*
X59945Y-21056D01*
X59946Y-20956D01*
X59946Y-21469D01*
X59915Y-21476D01*
X59878Y-21491D01*
X59844Y-21514D01*
X59815Y-21542D01*
X59792Y-21576D01*
X59776Y-21613D01*
X59768Y-21653D01*
X59768Y-21694D01*
X59768Y-21819D01*
X59819Y-21870D01*
X60070Y-21870D01*
X60070Y-21930D01*
X59819Y-21930D01*
X59768Y-21981D01*
X59768Y-22106D01*
X59768Y-22147D01*
X59776Y-22187D01*
X59792Y-22224D01*
X59815Y-22258D01*
X59844Y-22286D01*
X59878Y-22309D01*
X59915Y-22324D01*
X59955Y-22332D01*
X60019Y-22332D01*
X60070Y-22281D01*
X60070Y-24361D01*
X58982Y-24361D01*
X58946Y-24361D01*
X58946Y-20956D01*
X58946Y-19956D01*
X58929Y-19870D01*
X58896Y-19789D01*
X58847Y-19717D01*
X58785Y-19655D01*
X58782Y-19652D01*
X58782Y-19325D01*
X58500Y-19042D01*
X58458Y-19084D01*
X58218Y-19325D01*
X58242Y-19407D01*
X58325Y-19449D01*
X58416Y-19474D01*
X58509Y-19482D01*
X58603Y-19470D01*
X58692Y-19441D01*
X58758Y-19407D01*
X58782Y-19325D01*
X58782Y-19652D01*
X58713Y-19606D01*
X58632Y-19572D01*
X58547Y-19554D01*
X58459Y-19554D01*
X58373Y-19570D01*
X58292Y-19603D01*
X58219Y-19651D01*
X58157Y-19712D01*
X58107Y-19784D01*
X58073Y-19865D01*
X58055Y-19950D01*
X58053Y-20038D01*
X58069Y-20124D01*
X58102Y-20205D01*
X58149Y-20279D01*
X58210Y-20341D01*
X58282Y-20391D01*
X58362Y-20426D01*
X58447Y-20445D01*
X58535Y-20447D01*
X58621Y-20432D01*
X58702Y-20400D01*
X58776Y-20353D01*
X58839Y-20293D01*
X58890Y-20221D01*
X58925Y-20141D01*
X58945Y-20056D01*
X58946Y-19956D01*
X58946Y-20956D01*
X58929Y-20870D01*
X58896Y-20789D01*
X58847Y-20717D01*
X58785Y-20655D01*
X58713Y-20606D01*
X58632Y-20572D01*
X58547Y-20554D01*
X58459Y-20554D01*
X58373Y-20570D01*
X58292Y-20603D01*
X58219Y-20651D01*
X58157Y-20712D01*
X58107Y-20784D01*
X58073Y-20865D01*
X58055Y-20950D01*
X58053Y-21038D01*
X58069Y-21124D01*
X58102Y-21205D01*
X58149Y-21279D01*
X58210Y-21341D01*
X58282Y-21391D01*
X58362Y-21426D01*
X58447Y-21445D01*
X58535Y-21447D01*
X58621Y-21432D01*
X58702Y-21400D01*
X58776Y-21353D01*
X58839Y-21293D01*
X58890Y-21221D01*
X58925Y-21141D01*
X58945Y-21056D01*
X58946Y-20956D01*
X58946Y-24361D01*
X57982Y-24361D01*
X57946Y-24361D01*
X57946Y-20956D01*
X57946Y-19956D01*
X57929Y-19870D01*
X57896Y-19789D01*
X57847Y-19717D01*
X57785Y-19655D01*
X57782Y-19652D01*
X57782Y-19325D01*
X57500Y-19042D01*
X57458Y-19084D01*
X57218Y-19325D01*
X57242Y-19407D01*
X57325Y-19449D01*
X57416Y-19474D01*
X57509Y-19482D01*
X57603Y-19470D01*
X57692Y-19441D01*
X57758Y-19407D01*
X57782Y-19325D01*
X57782Y-19652D01*
X57713Y-19606D01*
X57632Y-19572D01*
X57547Y-19554D01*
X57459Y-19554D01*
X57373Y-19570D01*
X57292Y-19603D01*
X57219Y-19651D01*
X57157Y-19712D01*
X57107Y-19784D01*
X57073Y-19865D01*
X57055Y-19950D01*
X57053Y-20038D01*
X57069Y-20124D01*
X57102Y-20205D01*
X57149Y-20279D01*
X57210Y-20341D01*
X57282Y-20391D01*
X57362Y-20426D01*
X57447Y-20445D01*
X57535Y-20447D01*
X57621Y-20432D01*
X57702Y-20400D01*
X57776Y-20353D01*
X57839Y-20293D01*
X57890Y-20221D01*
X57925Y-20141D01*
X57945Y-20056D01*
X57946Y-19956D01*
X57946Y-20956D01*
X57929Y-20870D01*
X57896Y-20789D01*
X57847Y-20717D01*
X57785Y-20655D01*
X57713Y-20606D01*
X57632Y-20572D01*
X57547Y-20554D01*
X57459Y-20554D01*
X57373Y-20570D01*
X57292Y-20603D01*
X57219Y-20651D01*
X57157Y-20712D01*
X57107Y-20784D01*
X57073Y-20865D01*
X57055Y-20950D01*
X57053Y-21038D01*
X57069Y-21124D01*
X57102Y-21205D01*
X57149Y-21279D01*
X57210Y-21341D01*
X57282Y-21391D01*
X57362Y-21426D01*
X57447Y-21445D01*
X57535Y-21447D01*
X57621Y-21432D01*
X57702Y-21400D01*
X57776Y-21353D01*
X57839Y-21293D01*
X57890Y-21221D01*
X57925Y-21141D01*
X57945Y-21056D01*
X57946Y-20956D01*
X57946Y-24361D01*
X57570Y-24361D01*
X57570Y-24333D01*
X57570Y-23668D01*
X57570Y-23634D01*
X57570Y-23033D01*
X57563Y-23000D01*
X57551Y-22970D01*
X57532Y-22942D01*
X57509Y-22918D01*
X57481Y-22900D01*
X57450Y-22887D01*
X57418Y-22880D01*
X57384Y-22880D01*
X56982Y-22880D01*
X56982Y-19297D01*
X56982Y-19256D01*
X56982Y-19081D01*
X56931Y-19030D01*
X56530Y-19030D01*
X56530Y-19431D01*
X56581Y-19482D01*
X56795Y-19482D01*
X56835Y-19474D01*
X56872Y-19459D01*
X56906Y-19436D01*
X56935Y-19408D01*
X56958Y-19374D01*
X56974Y-19337D01*
X56982Y-19297D01*
X56982Y-22880D01*
X56945Y-22880D01*
X56945Y-21293D01*
X56945Y-21259D01*
X56945Y-20708D01*
X56945Y-20293D01*
X56945Y-20259D01*
X56945Y-19708D01*
X56938Y-19675D01*
X56926Y-19645D01*
X56907Y-19617D01*
X56884Y-19593D01*
X56856Y-19575D01*
X56825Y-19562D01*
X56793Y-19555D01*
X56759Y-19555D01*
X56470Y-19555D01*
X56470Y-19431D01*
X56470Y-19030D01*
X56069Y-19030D01*
X56018Y-19081D01*
X56018Y-19256D01*
X56018Y-19297D01*
X56026Y-19337D01*
X56042Y-19374D01*
X56065Y-19408D01*
X56094Y-19436D01*
X56128Y-19459D01*
X56165Y-19474D01*
X56205Y-19482D01*
X56419Y-19482D01*
X56470Y-19431D01*
X56470Y-19555D01*
X56208Y-19555D01*
X56175Y-19562D01*
X56145Y-19574D01*
X56117Y-19593D01*
X56093Y-19616D01*
X56075Y-19644D01*
X56062Y-19675D01*
X56055Y-19707D01*
X56055Y-19741D01*
X56055Y-20292D01*
X56062Y-20325D01*
X56074Y-20355D01*
X56093Y-20383D01*
X56116Y-20407D01*
X56144Y-20425D01*
X56175Y-20438D01*
X56207Y-20445D01*
X56241Y-20445D01*
X56792Y-20445D01*
X56825Y-20438D01*
X56855Y-20426D01*
X56883Y-20407D01*
X56907Y-20384D01*
X56925Y-20356D01*
X56938Y-20325D01*
X56945Y-20293D01*
X56945Y-20708D01*
X56938Y-20675D01*
X56926Y-20645D01*
X56907Y-20617D01*
X56884Y-20593D01*
X56856Y-20575D01*
X56825Y-20562D01*
X56793Y-20555D01*
X56759Y-20555D01*
X56208Y-20555D01*
X56175Y-20562D01*
X56145Y-20574D01*
X56117Y-20593D01*
X56093Y-20616D01*
X56075Y-20644D01*
X56062Y-20675D01*
X56055Y-20707D01*
X56055Y-20741D01*
X56055Y-21292D01*
X56062Y-21325D01*
X56074Y-21355D01*
X56093Y-21383D01*
X56116Y-21407D01*
X56144Y-21425D01*
X56175Y-21438D01*
X56207Y-21445D01*
X56241Y-21445D01*
X56792Y-21445D01*
X56825Y-21438D01*
X56855Y-21426D01*
X56883Y-21407D01*
X56907Y-21384D01*
X56925Y-21356D01*
X56938Y-21325D01*
X56945Y-21293D01*
X56945Y-22880D01*
X56583Y-22880D01*
X56550Y-22887D01*
X56520Y-22899D01*
X56492Y-22918D01*
X56468Y-22941D01*
X56450Y-22969D01*
X56437Y-23000D01*
X56430Y-23032D01*
X56430Y-23066D01*
X56430Y-23580D01*
X56323Y-23686D01*
X56306Y-23675D01*
X56275Y-23662D01*
X56243Y-23655D01*
X56209Y-23655D01*
X55758Y-23655D01*
X55725Y-23662D01*
X55695Y-23674D01*
X55667Y-23693D01*
X55643Y-23716D01*
X55625Y-23744D01*
X55618Y-23760D01*
X55603Y-23760D01*
X55603Y-23683D01*
X55596Y-23650D01*
X55584Y-23620D01*
X55565Y-23592D01*
X55542Y-23568D01*
X55514Y-23550D01*
X55483Y-23537D01*
X55451Y-23530D01*
X55417Y-23530D01*
X54550Y-23530D01*
X54517Y-23537D01*
X54487Y-23549D01*
X54459Y-23568D01*
X54435Y-23591D01*
X54417Y-23619D01*
X54404Y-23650D01*
X54397Y-23682D01*
X54397Y-23716D01*
X54397Y-24317D01*
X54404Y-24350D01*
X54416Y-24380D01*
X54435Y-24408D01*
X54458Y-24432D01*
X54486Y-24450D01*
X54517Y-24463D01*
X54549Y-24470D01*
X54583Y-24470D01*
X55450Y-24470D01*
X55483Y-24463D01*
X55513Y-24451D01*
X55541Y-24432D01*
X55565Y-24409D01*
X55583Y-24381D01*
X55596Y-24350D01*
X55603Y-24318D01*
X55603Y-24284D01*
X55603Y-24240D01*
X55734Y-24240D01*
X55757Y-24245D01*
X55791Y-24245D01*
X56242Y-24245D01*
X56275Y-24238D01*
X56305Y-24226D01*
X56333Y-24207D01*
X56350Y-24190D01*
X56398Y-24190D01*
X56400Y-24190D01*
X56408Y-24189D01*
X56444Y-24186D01*
X56447Y-24185D01*
X56489Y-24173D01*
X56491Y-24172D01*
X56531Y-24152D01*
X56533Y-24150D01*
X56568Y-24122D01*
X56569Y-24120D01*
X56570Y-24120D01*
X56869Y-23820D01*
X57417Y-23820D01*
X57450Y-23813D01*
X57480Y-23801D01*
X57508Y-23782D01*
X57532Y-23759D01*
X57550Y-23731D01*
X57563Y-23700D01*
X57570Y-23668D01*
X57570Y-24333D01*
X57563Y-24300D01*
X57551Y-24270D01*
X57532Y-24242D01*
X57509Y-24218D01*
X57481Y-24200D01*
X57450Y-24187D01*
X57418Y-24180D01*
X57384Y-24180D01*
X56583Y-24180D01*
X56550Y-24187D01*
X56520Y-24199D01*
X56492Y-24218D01*
X56468Y-24241D01*
X56455Y-24261D01*
X56270Y-24261D01*
X56243Y-24255D01*
X56209Y-24255D01*
X55758Y-24255D01*
X55725Y-24262D01*
X55695Y-24274D01*
X55667Y-24293D01*
X55643Y-24316D01*
X55625Y-24344D01*
X55612Y-24375D01*
X55605Y-24407D01*
X55605Y-24441D01*
X55605Y-24536D01*
X55469Y-24671D01*
X55438Y-24639D01*
X55362Y-24587D01*
X55277Y-24551D01*
X55188Y-24532D01*
X55096Y-24530D01*
X54819Y-24531D01*
X54729Y-24549D01*
X54644Y-24584D01*
X54567Y-24635D01*
X54502Y-24700D01*
X54450Y-24776D01*
X54415Y-24861D01*
X54396Y-24951D01*
X54396Y-25043D01*
X54413Y-25133D01*
X54447Y-25218D01*
X54498Y-25295D01*
X54562Y-25361D01*
X54638Y-25413D01*
X54723Y-25449D01*
X54812Y-25468D01*
X54904Y-25470D01*
X55181Y-25469D01*
X55271Y-25451D01*
X55356Y-25416D01*
X55433Y-25365D01*
X55498Y-25300D01*
X55505Y-25289D01*
X55550Y-25289D01*
X55584Y-25285D01*
X55603Y-25284D01*
X55606Y-25283D01*
X55657Y-25269D01*
X55660Y-25267D01*
X55708Y-25243D01*
X55710Y-25241D01*
X55752Y-25207D01*
X55752Y-25206D01*
X55754Y-25205D01*
X55754Y-25204D01*
X55759Y-25198D01*
X56113Y-24845D01*
X56242Y-24845D01*
X56270Y-24839D01*
X56430Y-24839D01*
X56430Y-24967D01*
X56437Y-25000D01*
X56449Y-25030D01*
X56468Y-25058D01*
X56491Y-25082D01*
X56519Y-25100D01*
X56550Y-25113D01*
X56582Y-25120D01*
X56616Y-25120D01*
X57417Y-25120D01*
X57450Y-25113D01*
X57480Y-25101D01*
X57504Y-25084D01*
X56842Y-25745D01*
X56838Y-25725D01*
X56826Y-25695D01*
X56807Y-25667D01*
X56784Y-25643D01*
X56756Y-25625D01*
X56725Y-25612D01*
X56693Y-25605D01*
X56659Y-25605D01*
X56408Y-25605D01*
X56375Y-25612D01*
X56345Y-25624D01*
X56317Y-25643D01*
X56293Y-25666D01*
X56275Y-25694D01*
X56262Y-25725D01*
X56255Y-25757D01*
X56255Y-25791D01*
X56255Y-26242D01*
X56262Y-26275D01*
X56274Y-26305D01*
X56293Y-26333D01*
X56316Y-26357D01*
X56344Y-26375D01*
X56375Y-26388D01*
X56407Y-26395D01*
X56441Y-26395D01*
X56692Y-26395D01*
X56725Y-26388D01*
X56755Y-26376D01*
X56783Y-26357D01*
X56807Y-26334D01*
X56825Y-26306D01*
X56838Y-26275D01*
X56845Y-26243D01*
X56845Y-26220D01*
X56898Y-26220D01*
X56900Y-26220D01*
X56941Y-26216D01*
X56943Y-26216D01*
X56978Y-26204D01*
X56981Y-26204D01*
X56981Y-26203D01*
X56984Y-26203D01*
X56995Y-26196D01*
X57020Y-26185D01*
X57022Y-26183D01*
X57053Y-26158D01*
X57055Y-26156D01*
X57056Y-26156D01*
X57791Y-25420D01*
X63408Y-25420D01*
X64043Y-26054D01*
X64044Y-26055D01*
X64049Y-26059D01*
X64076Y-26082D01*
X64077Y-26082D01*
X64113Y-26102D01*
X64115Y-26102D01*
X64154Y-26115D01*
X64156Y-26115D01*
X64197Y-26120D01*
X64200Y-26120D01*
X65397Y-26120D01*
X65400Y-26120D01*
X65732Y-26120D01*
X65775Y-26164D01*
X65831Y-26203D01*
X65893Y-26230D01*
X65959Y-26244D01*
X66027Y-26246D01*
X66093Y-26234D01*
X66156Y-26209D01*
X66214Y-26173D01*
X66263Y-26126D01*
X66302Y-26071D01*
X66329Y-26009D01*
X66344Y-25943D01*
X66345Y-25866D01*
X66332Y-25800D01*
X66306Y-25737D01*
X66269Y-25681D01*
X66221Y-25633D01*
X66165Y-25595D01*
X66102Y-25569D01*
X66036Y-25555D01*
X65968Y-25555D01*
X65902Y-25567D01*
X65839Y-25593D01*
X65783Y-25630D01*
X65734Y-25677D01*
X65731Y-25680D01*
X65403Y-25680D01*
X65400Y-25680D01*
X64291Y-25680D01*
X63657Y-25046D01*
X63656Y-25044D01*
X63634Y-25027D01*
X63624Y-25018D01*
X63622Y-25017D01*
X63587Y-24998D01*
X63584Y-24997D01*
X63546Y-24985D01*
X63543Y-24984D01*
X63512Y-24981D01*
X63503Y-24980D01*
X63501Y-24980D01*
X63500Y-24980D01*
X57702Y-24980D01*
X57700Y-24980D01*
X57657Y-24984D01*
X57633Y-24991D01*
X57618Y-24996D01*
X57616Y-24996D01*
X57616Y-24997D01*
X57578Y-25017D01*
X57553Y-25037D01*
X57546Y-25043D01*
X57545Y-25044D01*
X57544Y-25045D01*
X57535Y-25053D01*
X57550Y-25031D01*
X57563Y-25000D01*
X57570Y-24968D01*
X57570Y-24939D01*
X64180Y-24939D01*
X64180Y-25217D01*
X64187Y-25250D01*
X64199Y-25280D01*
X64218Y-25308D01*
X64241Y-25332D01*
X64269Y-25350D01*
X64300Y-25363D01*
X64332Y-25370D01*
X64366Y-25370D01*
X65167Y-25370D01*
X65200Y-25363D01*
X65230Y-25351D01*
X65258Y-25332D01*
X65282Y-25309D01*
X65300Y-25281D01*
X65313Y-25250D01*
X65320Y-25218D01*
X65320Y-25189D01*
X65400Y-25189D01*
X65434Y-25185D01*
X65453Y-25184D01*
X65456Y-25183D01*
X65507Y-25169D01*
X65510Y-25167D01*
X65558Y-25143D01*
X65560Y-25141D01*
X65602Y-25107D01*
X65602Y-25106D01*
X65604Y-25105D01*
X65604Y-25104D01*
X65609Y-25098D01*
X65863Y-24845D01*
X65992Y-24845D01*
X66020Y-24839D01*
X66424Y-24839D01*
X66415Y-24861D01*
X66396Y-24951D01*
X66396Y-25043D01*
X66413Y-25133D01*
X66447Y-25218D01*
X66498Y-25295D01*
X66562Y-25361D01*
X66638Y-25413D01*
X66723Y-25449D01*
X66812Y-25468D01*
X66904Y-25470D01*
X67181Y-25469D01*
X67271Y-25451D01*
X67356Y-25416D01*
X67433Y-25365D01*
X67498Y-25300D01*
X67550Y-25224D01*
X67585Y-25139D01*
X67604Y-25049D01*
X67604Y-26605D01*
X67603Y-26605D01*
X67603Y-26318D01*
X67603Y-26284D01*
X67603Y-25683D01*
X67596Y-25650D01*
X67584Y-25620D01*
X67565Y-25592D01*
X67542Y-25568D01*
X67514Y-25550D01*
X67483Y-25537D01*
X67451Y-25530D01*
X67417Y-25530D01*
X66550Y-25530D01*
X66517Y-25537D01*
X66487Y-25549D01*
X66459Y-25568D01*
X66435Y-25591D01*
X66417Y-25619D01*
X66404Y-25650D01*
X66397Y-25682D01*
X66397Y-25716D01*
X66397Y-26317D01*
X66404Y-26350D01*
X66416Y-26380D01*
X66435Y-26408D01*
X66458Y-26432D01*
X66486Y-26450D01*
X66517Y-26463D01*
X66549Y-26470D01*
X66583Y-26470D01*
X66780Y-26470D01*
X66780Y-26634D01*
X66767Y-26643D01*
X66743Y-26666D01*
X66725Y-26694D01*
X66712Y-26725D01*
X66705Y-26757D01*
X66705Y-26791D01*
X66705Y-27242D01*
X66712Y-27275D01*
X66724Y-27305D01*
X66743Y-27333D01*
X66766Y-27357D01*
X66794Y-27375D01*
X66825Y-27388D01*
X66857Y-27395D01*
X66891Y-27395D01*
X67142Y-27395D01*
X67175Y-27388D01*
X67205Y-27376D01*
X67233Y-27357D01*
X67257Y-27334D01*
X67275Y-27306D01*
X67288Y-27275D01*
X67295Y-27243D01*
X67295Y-27209D01*
X67295Y-26758D01*
X67288Y-26725D01*
X67276Y-26695D01*
X67257Y-26667D01*
X67234Y-26643D01*
X67220Y-26634D01*
X67220Y-26470D01*
X67450Y-26470D01*
X67483Y-26463D01*
X67513Y-26451D01*
X67541Y-26432D01*
X67565Y-26409D01*
X67583Y-26381D01*
X67596Y-26350D01*
X67603Y-26318D01*
X67603Y-26605D01*
X67458Y-26605D01*
X67425Y-26612D01*
X67395Y-26624D01*
X67367Y-26643D01*
X67343Y-26666D01*
X67325Y-26694D01*
X67312Y-26725D01*
X67305Y-26757D01*
X67305Y-26791D01*
X67305Y-27242D01*
X67312Y-27275D01*
X67324Y-27305D01*
X67343Y-27333D01*
X67366Y-27357D01*
X67394Y-27375D01*
X67425Y-27388D01*
X67457Y-27395D01*
X67491Y-27395D01*
X67742Y-27395D01*
X67775Y-27388D01*
X67805Y-27376D01*
X67833Y-27357D01*
X67857Y-27334D01*
X67875Y-27306D01*
X67888Y-27275D01*
X67895Y-27243D01*
X67895Y-27220D01*
X67932Y-27220D01*
X67975Y-27264D01*
X68031Y-27303D01*
X68093Y-27330D01*
X68159Y-27344D01*
X68227Y-27346D01*
X68293Y-27334D01*
X68356Y-27309D01*
X68414Y-27273D01*
X68463Y-27226D01*
X68502Y-27171D01*
X68529Y-27109D01*
X68544Y-27043D01*
X68545Y-26966D01*
X68545Y-27243D01*
X66208Y-29580D01*
X65362Y-29580D01*
X65385Y-29558D01*
X65408Y-29524D01*
X65424Y-29487D01*
X65432Y-29447D01*
X65432Y-29406D01*
X65432Y-29281D01*
X65381Y-29230D01*
X65180Y-29230D01*
X65130Y-29230D01*
X65070Y-29230D01*
X65070Y-29170D01*
X65130Y-29170D01*
X65180Y-29170D01*
X65381Y-29170D01*
X65432Y-29119D01*
X65432Y-28994D01*
X65432Y-28953D01*
X65424Y-28913D01*
X65408Y-28876D01*
X65385Y-28842D01*
X65364Y-28822D01*
X65375Y-28806D01*
X65388Y-28775D01*
X65395Y-28743D01*
X65395Y-28709D01*
X65395Y-28258D01*
X65388Y-28225D01*
X65376Y-28195D01*
X65357Y-28167D01*
X65334Y-28143D01*
X65306Y-28125D01*
X65275Y-28112D01*
X65243Y-28105D01*
X65209Y-28105D01*
X64958Y-28105D01*
X64925Y-28112D01*
X64895Y-28124D01*
X64867Y-28143D01*
X64843Y-28166D01*
X64825Y-28194D01*
X64812Y-28225D01*
X64805Y-28257D01*
X64805Y-28291D01*
X64805Y-28583D01*
X64795Y-28593D01*
X64795Y-28258D01*
X64788Y-28225D01*
X64776Y-28195D01*
X64757Y-28167D01*
X64734Y-28143D01*
X64706Y-28125D01*
X64675Y-28112D01*
X64643Y-28105D01*
X64609Y-28105D01*
X64358Y-28105D01*
X64325Y-28112D01*
X64295Y-28124D01*
X64267Y-28143D01*
X64243Y-28166D01*
X64225Y-28194D01*
X64212Y-28225D01*
X64205Y-28257D01*
X64205Y-28291D01*
X64205Y-28583D01*
X64174Y-28613D01*
X64186Y-28587D01*
X64193Y-28555D01*
X64193Y-28521D01*
X64193Y-28246D01*
X64186Y-28213D01*
X64174Y-28183D01*
X64155Y-28155D01*
X64132Y-28131D01*
X64120Y-28123D01*
X64120Y-27668D01*
X64155Y-27655D01*
X64248Y-27596D01*
X64328Y-27520D01*
X64392Y-27430D01*
X64437Y-27329D01*
X64461Y-27221D01*
X64463Y-27095D01*
X64442Y-26987D01*
X64400Y-26885D01*
X64338Y-26793D01*
X64261Y-26714D01*
X64169Y-26652D01*
X64067Y-26610D01*
X63959Y-26587D01*
X63849Y-26587D01*
X63740Y-26607D01*
X63638Y-26649D01*
X63546Y-26709D01*
X63467Y-26786D01*
X63404Y-26877D01*
X63361Y-26979D01*
X63338Y-27087D01*
X63336Y-27197D01*
X63356Y-27306D01*
X63397Y-27408D01*
X63457Y-27501D01*
X63533Y-27581D01*
X63624Y-27644D01*
X63680Y-27668D01*
X63680Y-28095D01*
X63659Y-28100D01*
X63649Y-28103D01*
X63641Y-28100D01*
X63609Y-28093D01*
X63575Y-28093D01*
X63260Y-28093D01*
X63227Y-28100D01*
X63197Y-28112D01*
X63169Y-28131D01*
X63145Y-28154D01*
X63143Y-28155D01*
X63121Y-28133D01*
X63065Y-28095D01*
X63002Y-28069D01*
X62936Y-28055D01*
X62868Y-28055D01*
X62802Y-28067D01*
X62739Y-28093D01*
X62683Y-28130D01*
X62655Y-28155D01*
X62632Y-28131D01*
X62604Y-28113D01*
X62573Y-28100D01*
X62541Y-28093D01*
X62507Y-28093D01*
X62192Y-28093D01*
X62159Y-28100D01*
X62149Y-28103D01*
X62141Y-28100D01*
X62120Y-28095D01*
X62120Y-27668D01*
X62155Y-27655D01*
X62248Y-27596D01*
X62328Y-27520D01*
X62392Y-27430D01*
X62437Y-27329D01*
X62461Y-27221D01*
X62463Y-27095D01*
X62442Y-26987D01*
X62400Y-26885D01*
X62338Y-26793D01*
X62261Y-26714D01*
X62169Y-26652D01*
X62067Y-26610D01*
X61959Y-26587D01*
X61849Y-26587D01*
X61740Y-26607D01*
X61638Y-26649D01*
X61546Y-26709D01*
X61467Y-26786D01*
X61404Y-26877D01*
X61361Y-26979D01*
X61338Y-27087D01*
X61336Y-27197D01*
X61356Y-27306D01*
X61397Y-27408D01*
X61457Y-27501D01*
X61533Y-27581D01*
X61624Y-27644D01*
X61680Y-27668D01*
X61680Y-28123D01*
X61669Y-28131D01*
X61645Y-28154D01*
X61627Y-28182D01*
X61614Y-28213D01*
X61607Y-28245D01*
X61607Y-28279D01*
X61607Y-28554D01*
X61614Y-28587D01*
X61626Y-28617D01*
X61645Y-28645D01*
X61668Y-28669D01*
X61696Y-28687D01*
X61725Y-28699D01*
X61729Y-28712D01*
X61730Y-28715D01*
X61731Y-28718D01*
X61737Y-28729D01*
X61749Y-28754D01*
X61751Y-28756D01*
X61776Y-28787D01*
X61778Y-28790D01*
X62043Y-29054D01*
X62044Y-29055D01*
X62050Y-29060D01*
X62076Y-29082D01*
X62078Y-29083D01*
X62113Y-29102D01*
X62115Y-29102D01*
X62116Y-29103D01*
X62154Y-29115D01*
X62157Y-29116D01*
X62187Y-29118D01*
X62197Y-29120D01*
X62199Y-29120D01*
X62200Y-29120D01*
X62744Y-29120D01*
X62689Y-29143D01*
X62633Y-29180D01*
X62584Y-29227D01*
X62546Y-29283D01*
X62520Y-29345D01*
X62505Y-29412D01*
X62505Y-29479D01*
X62515Y-29539D01*
X61939Y-29539D01*
X61932Y-29500D01*
X61906Y-29437D01*
X61869Y-29381D01*
X61821Y-29333D01*
X61765Y-29295D01*
X61702Y-29269D01*
X61636Y-29255D01*
X61568Y-29255D01*
X61502Y-29267D01*
X61439Y-29293D01*
X61383Y-29330D01*
X61334Y-29377D01*
X61318Y-29400D01*
X61308Y-29376D01*
X61285Y-29342D01*
X61256Y-29314D01*
X61222Y-29291D01*
X61199Y-29282D01*
X61231Y-29261D01*
X61260Y-29233D01*
X61283Y-29199D01*
X61299Y-29162D01*
X61307Y-29122D01*
X61307Y-29081D01*
X61307Y-28781D01*
X61307Y-28619D01*
X61307Y-28319D01*
X61307Y-28278D01*
X61299Y-28238D01*
X61283Y-28201D01*
X61260Y-28167D01*
X61231Y-28139D01*
X61197Y-28116D01*
X61160Y-28101D01*
X61120Y-28093D01*
X60881Y-28093D01*
X60830Y-28144D01*
X60830Y-28670D01*
X61256Y-28670D01*
X61307Y-28619D01*
X61307Y-28781D01*
X61256Y-28730D01*
X60880Y-28730D01*
X60830Y-28730D01*
X60770Y-28730D01*
X60770Y-28670D01*
X60770Y-28144D01*
X60719Y-28093D01*
X60480Y-28093D01*
X60440Y-28101D01*
X60403Y-28116D01*
X60369Y-28139D01*
X60340Y-28167D01*
X60317Y-28201D01*
X60301Y-28238D01*
X60293Y-28278D01*
X60293Y-28319D01*
X60293Y-28619D01*
X60344Y-28670D01*
X60770Y-28670D01*
X60770Y-28730D01*
X60720Y-28730D01*
X60344Y-28730D01*
X60293Y-28781D01*
X60293Y-29081D01*
X60293Y-29122D01*
X60301Y-29162D01*
X60317Y-29199D01*
X60340Y-29233D01*
X60369Y-29261D01*
X60403Y-29284D01*
X60440Y-29299D01*
X60470Y-29305D01*
X60259Y-29305D01*
X60259Y-29203D01*
X60259Y-29200D01*
X60254Y-29152D01*
X60254Y-29150D01*
X60241Y-29109D01*
X60240Y-29104D01*
X60239Y-29103D01*
X60239Y-29101D01*
X60217Y-29059D01*
X60216Y-29057D01*
X60186Y-29020D01*
X60184Y-29017D01*
X60178Y-29012D01*
X59970Y-28804D01*
X59970Y-28283D01*
X59963Y-28250D01*
X59951Y-28220D01*
X59932Y-28192D01*
X59909Y-28168D01*
X59881Y-28150D01*
X59850Y-28137D01*
X59818Y-28130D01*
X59809Y-28130D01*
X59809Y-28054D01*
X59829Y-28009D01*
X59844Y-27943D01*
X59845Y-27866D01*
X59832Y-27800D01*
X59806Y-27737D01*
X59769Y-27681D01*
X59721Y-27633D01*
X59665Y-27595D01*
X59602Y-27569D01*
X59536Y-27555D01*
X59468Y-27555D01*
X59402Y-27567D01*
X59339Y-27593D01*
X59283Y-27630D01*
X59234Y-27677D01*
X59196Y-27733D01*
X59170Y-27795D01*
X59155Y-27862D01*
X59155Y-27929D01*
X59167Y-27996D01*
X59191Y-28056D01*
X59191Y-28130D01*
X59183Y-28130D01*
X59150Y-28137D01*
X59120Y-28149D01*
X59092Y-28168D01*
X59068Y-28191D01*
X59050Y-28219D01*
X59037Y-28250D01*
X59030Y-28282D01*
X59030Y-28316D01*
X59030Y-29117D01*
X59037Y-29150D01*
X59049Y-29180D01*
X59068Y-29208D01*
X59091Y-29232D01*
X59119Y-29250D01*
X59150Y-29263D01*
X59182Y-29270D01*
X59216Y-29270D01*
X59704Y-29270D01*
X59741Y-29307D01*
X59741Y-29497D01*
X59741Y-29500D01*
X59742Y-29510D01*
X59745Y-29548D01*
X59760Y-29596D01*
X59761Y-29599D01*
X59783Y-29641D01*
X59784Y-29643D01*
X59814Y-29680D01*
X59816Y-29683D01*
X59817Y-29683D01*
X59821Y-29687D01*
X59965Y-29831D01*
X59967Y-29833D01*
X59979Y-29842D01*
X60004Y-29864D01*
X60006Y-29865D01*
X60048Y-29888D01*
X60050Y-29888D01*
X60051Y-29889D01*
X60096Y-29903D01*
X60098Y-29904D01*
X60105Y-29904D01*
X60105Y-29942D01*
X60112Y-29975D01*
X60124Y-30005D01*
X60143Y-30033D01*
X60166Y-30057D01*
X60194Y-30075D01*
X60205Y-30080D01*
X59791Y-30080D01*
X59257Y-29546D01*
X59256Y-29544D01*
X59234Y-29527D01*
X59224Y-29518D01*
X59222Y-29517D01*
X59187Y-29498D01*
X59184Y-29497D01*
X59146Y-29485D01*
X59143Y-29484D01*
X59112Y-29481D01*
X59103Y-29480D01*
X59101Y-29480D01*
X59100Y-29480D01*
X56803Y-29480D01*
X56800Y-29480D01*
X56245Y-29480D01*
X56245Y-26243D01*
X56245Y-26209D01*
X56245Y-25758D01*
X56238Y-25725D01*
X56226Y-25695D01*
X56207Y-25667D01*
X56184Y-25643D01*
X56156Y-25625D01*
X56125Y-25612D01*
X56093Y-25605D01*
X56059Y-25605D01*
X55808Y-25605D01*
X55775Y-25612D01*
X55745Y-25624D01*
X55717Y-25643D01*
X55693Y-25666D01*
X55675Y-25694D01*
X55662Y-25725D01*
X55658Y-25741D01*
X55525Y-25741D01*
X55502Y-25705D01*
X55438Y-25639D01*
X55362Y-25587D01*
X55277Y-25551D01*
X55188Y-25532D01*
X55096Y-25530D01*
X54819Y-25531D01*
X54729Y-25549D01*
X54644Y-25584D01*
X54567Y-25635D01*
X54502Y-25700D01*
X54450Y-25776D01*
X54415Y-25861D01*
X54396Y-25951D01*
X54396Y-26043D01*
X54413Y-26133D01*
X54447Y-26218D01*
X54498Y-26295D01*
X54562Y-26361D01*
X54638Y-26413D01*
X54723Y-26449D01*
X54812Y-26468D01*
X54904Y-26470D01*
X55181Y-26469D01*
X55271Y-26451D01*
X55356Y-26416D01*
X55433Y-26365D01*
X55498Y-26300D01*
X55526Y-26259D01*
X55658Y-26259D01*
X55662Y-26275D01*
X55674Y-26305D01*
X55693Y-26333D01*
X55716Y-26357D01*
X55744Y-26375D01*
X55775Y-26388D01*
X55807Y-26395D01*
X55841Y-26395D01*
X56092Y-26395D01*
X56125Y-26388D01*
X56155Y-26376D01*
X56183Y-26357D01*
X56207Y-26334D01*
X56225Y-26306D01*
X56238Y-26275D01*
X56245Y-26243D01*
X56245Y-29480D01*
X55702Y-29480D01*
X55700Y-29480D01*
X55657Y-29484D01*
X55633Y-29491D01*
X55618Y-29496D01*
X55616Y-29496D01*
X55616Y-29497D01*
X55578Y-29517D01*
X55553Y-29537D01*
X55546Y-29543D01*
X55545Y-29543D01*
X55545Y-29544D01*
X55540Y-29549D01*
X55518Y-29576D01*
X55498Y-29613D01*
X55497Y-29613D01*
X55497Y-29615D01*
X55484Y-29656D01*
X55480Y-29692D01*
X55480Y-29697D01*
X55480Y-29698D01*
X55480Y-29700D01*
X55480Y-29989D01*
X55459Y-29968D01*
X55431Y-29950D01*
X55407Y-29939D01*
X55407Y-29040D01*
X55407Y-28381D01*
X55407Y-28219D01*
X55407Y-27560D01*
X55399Y-27520D01*
X55384Y-27483D01*
X55361Y-27449D01*
X55333Y-27420D01*
X55299Y-27397D01*
X55262Y-27381D01*
X55222Y-27373D01*
X55181Y-27373D01*
X54881Y-27373D01*
X54830Y-27424D01*
X54830Y-28270D01*
X55356Y-28270D01*
X55407Y-28219D01*
X55407Y-28381D01*
X55356Y-28330D01*
X54830Y-28330D01*
X54830Y-29176D01*
X54881Y-29227D01*
X55181Y-29227D01*
X55222Y-29227D01*
X55262Y-29219D01*
X55299Y-29203D01*
X55333Y-29180D01*
X55361Y-29151D01*
X55384Y-29117D01*
X55399Y-29080D01*
X55407Y-29040D01*
X55407Y-29939D01*
X55400Y-29937D01*
X55368Y-29930D01*
X55334Y-29930D01*
X54733Y-29930D01*
X54700Y-29937D01*
X54670Y-29949D01*
X54642Y-29968D01*
X54618Y-29991D01*
X54600Y-30018D01*
X54582Y-29992D01*
X54559Y-29968D01*
X54531Y-29950D01*
X54500Y-29937D01*
X54468Y-29930D01*
X54434Y-29930D01*
X54309Y-29930D01*
X54309Y-29206D01*
X54338Y-29219D01*
X54378Y-29227D01*
X54419Y-29227D01*
X54719Y-29227D01*
X54770Y-29176D01*
X54770Y-28380D01*
X54770Y-28330D01*
X54770Y-28270D01*
X54770Y-28220D01*
X54770Y-27424D01*
X54719Y-27373D01*
X54419Y-27373D01*
X54378Y-27373D01*
X54338Y-27381D01*
X54301Y-27397D01*
X54292Y-27402D01*
X54287Y-27385D01*
X54286Y-27384D01*
X54286Y-27382D01*
X54275Y-27362D01*
X54259Y-27331D01*
X54257Y-27329D01*
X54221Y-27284D01*
X54219Y-27282D01*
X54218Y-27281D01*
X54124Y-27188D01*
X54121Y-27184D01*
X54118Y-27182D01*
X54075Y-27145D01*
X54073Y-27144D01*
X54072Y-27143D01*
X54022Y-27116D01*
X54019Y-27114D01*
X53964Y-27098D01*
X53961Y-27097D01*
X53922Y-27093D01*
X53904Y-27091D01*
X53901Y-27091D01*
X53900Y-27091D01*
X52731Y-27091D01*
X52709Y-27068D01*
X52681Y-27050D01*
X52650Y-27037D01*
X52618Y-27030D01*
X52606Y-27030D01*
X52606Y-20067D01*
X52606Y-20033D01*
X52606Y-19560D01*
X52599Y-19527D01*
X52587Y-19497D01*
X52568Y-19469D01*
X52545Y-19445D01*
X52517Y-19427D01*
X52486Y-19414D01*
X52454Y-19407D01*
X52420Y-19407D01*
X51947Y-19407D01*
X51914Y-19414D01*
X51884Y-19426D01*
X51856Y-19445D01*
X51832Y-19468D01*
X51814Y-19496D01*
X51801Y-19527D01*
X51794Y-19559D01*
X51794Y-19593D01*
X51794Y-20066D01*
X51801Y-20099D01*
X51813Y-20129D01*
X51832Y-20157D01*
X51855Y-20181D01*
X51883Y-20199D01*
X51914Y-20212D01*
X51941Y-20217D01*
X51941Y-20408D01*
X51925Y-20412D01*
X51895Y-20424D01*
X51867Y-20443D01*
X51843Y-20466D01*
X51825Y-20494D01*
X51812Y-20525D01*
X51805Y-20557D01*
X51805Y-20591D01*
X51805Y-20842D01*
X51812Y-20875D01*
X51824Y-20905D01*
X51843Y-20933D01*
X51866Y-20957D01*
X51894Y-20975D01*
X51925Y-20988D01*
X51957Y-20995D01*
X51991Y-20995D01*
X52154Y-20995D01*
X52142Y-20996D01*
X52113Y-21005D01*
X51958Y-21005D01*
X51925Y-21012D01*
X51895Y-21024D01*
X51867Y-21043D01*
X51843Y-21066D01*
X51825Y-21094D01*
X51812Y-21125D01*
X51805Y-21157D01*
X51805Y-21191D01*
X51805Y-21442D01*
X51812Y-21475D01*
X51824Y-21505D01*
X51843Y-21533D01*
X51866Y-21557D01*
X51891Y-21573D01*
X51891Y-21744D01*
X51870Y-21795D01*
X51855Y-21862D01*
X51855Y-21929D01*
X51867Y-21996D01*
X51892Y-22059D01*
X51928Y-22115D01*
X51975Y-22164D01*
X52031Y-22203D01*
X52093Y-22230D01*
X52159Y-22244D01*
X52227Y-22246D01*
X52293Y-22234D01*
X52356Y-22209D01*
X52414Y-22173D01*
X52463Y-22126D01*
X52502Y-22071D01*
X52529Y-22009D01*
X52544Y-21943D01*
X52545Y-21866D01*
X52532Y-21800D01*
X52509Y-21744D01*
X52509Y-21573D01*
X52533Y-21557D01*
X52557Y-21534D01*
X52575Y-21506D01*
X52588Y-21475D01*
X52595Y-21443D01*
X52595Y-21409D01*
X52595Y-21158D01*
X52588Y-21125D01*
X52576Y-21095D01*
X52557Y-21067D01*
X52534Y-21043D01*
X52506Y-21025D01*
X52475Y-21012D01*
X52443Y-21005D01*
X52409Y-21005D01*
X52287Y-21005D01*
X52262Y-20997D01*
X52242Y-20995D01*
X52442Y-20995D01*
X52475Y-20988D01*
X52505Y-20976D01*
X52533Y-20957D01*
X52557Y-20934D01*
X52575Y-20906D01*
X52588Y-20875D01*
X52595Y-20843D01*
X52595Y-20809D01*
X52595Y-20558D01*
X52588Y-20525D01*
X52576Y-20495D01*
X52557Y-20467D01*
X52534Y-20443D01*
X52506Y-20425D01*
X52475Y-20412D01*
X52459Y-20408D01*
X52459Y-20217D01*
X52486Y-20212D01*
X52516Y-20200D01*
X52544Y-20181D01*
X52568Y-20158D01*
X52586Y-20130D01*
X52599Y-20099D01*
X52606Y-20067D01*
X52606Y-27030D01*
X52584Y-27030D01*
X51783Y-27030D01*
X51750Y-27037D01*
X51720Y-27049D01*
X51692Y-27068D01*
X51668Y-27091D01*
X51650Y-27119D01*
X51637Y-27150D01*
X51630Y-27182D01*
X51630Y-27216D01*
X51630Y-27617D01*
X51637Y-27650D01*
X51649Y-27680D01*
X51668Y-27708D01*
X51691Y-27732D01*
X51719Y-27750D01*
X51750Y-27763D01*
X51782Y-27770D01*
X51816Y-27770D01*
X52617Y-27770D01*
X52650Y-27763D01*
X52680Y-27751D01*
X52708Y-27732D01*
X52732Y-27709D01*
X53691Y-27709D01*
X53691Y-28844D01*
X53670Y-28895D01*
X53655Y-28962D01*
X53655Y-29029D01*
X53667Y-29096D01*
X53691Y-29156D01*
X53691Y-30040D01*
X53687Y-30050D01*
X53680Y-30082D01*
X53680Y-30116D01*
X53680Y-30433D01*
X53320Y-30793D01*
X53320Y-30083D01*
X53313Y-30050D01*
X53301Y-30020D01*
X53282Y-29992D01*
X53259Y-29968D01*
X53231Y-29950D01*
X53200Y-29937D01*
X53168Y-29930D01*
X53159Y-29930D01*
X53159Y-29853D01*
X53159Y-29850D01*
X53159Y-29577D01*
X53409Y-29327D01*
X53456Y-29309D01*
X53514Y-29273D01*
X53563Y-29226D01*
X53602Y-29171D01*
X53629Y-29109D01*
X53644Y-29043D01*
X53645Y-28966D01*
X53632Y-28900D01*
X53606Y-28837D01*
X53569Y-28781D01*
X53521Y-28733D01*
X53465Y-28695D01*
X53402Y-28669D01*
X53336Y-28655D01*
X53268Y-28655D01*
X53202Y-28667D01*
X53139Y-28693D01*
X53083Y-28730D01*
X53034Y-28777D01*
X52996Y-28833D01*
X52971Y-28891D01*
X52807Y-29055D01*
X52807Y-28520D01*
X52807Y-28381D01*
X52807Y-28219D01*
X52807Y-28080D01*
X52799Y-28040D01*
X52784Y-28003D01*
X52761Y-27969D01*
X52733Y-27940D01*
X52699Y-27917D01*
X52662Y-27901D01*
X52622Y-27893D01*
X52581Y-27893D01*
X52281Y-27893D01*
X52230Y-27944D01*
X52230Y-28270D01*
X52756Y-28270D01*
X52807Y-28219D01*
X52807Y-28381D01*
X52756Y-28330D01*
X52230Y-28330D01*
X52230Y-28656D01*
X52281Y-28707D01*
X52581Y-28707D01*
X52622Y-28707D01*
X52662Y-28699D01*
X52699Y-28683D01*
X52733Y-28660D01*
X52761Y-28631D01*
X52784Y-28597D01*
X52799Y-28560D01*
X52807Y-28520D01*
X52807Y-29055D01*
X52770Y-29093D01*
X52770Y-28983D01*
X52763Y-28950D01*
X52751Y-28920D01*
X52732Y-28892D01*
X52709Y-28868D01*
X52681Y-28850D01*
X52650Y-28837D01*
X52618Y-28830D01*
X52584Y-28830D01*
X52170Y-28830D01*
X52170Y-28656D01*
X52170Y-28330D01*
X52170Y-28270D01*
X52170Y-27944D01*
X52119Y-27893D01*
X51819Y-27893D01*
X51778Y-27893D01*
X51738Y-27901D01*
X51701Y-27917D01*
X51667Y-27940D01*
X51639Y-27969D01*
X51616Y-28003D01*
X51601Y-28040D01*
X51593Y-28080D01*
X51593Y-28219D01*
X51644Y-28270D01*
X52170Y-28270D01*
X52170Y-28330D01*
X51644Y-28330D01*
X51593Y-28381D01*
X51593Y-28520D01*
X51601Y-28560D01*
X51616Y-28597D01*
X51639Y-28631D01*
X51667Y-28660D01*
X51701Y-28683D01*
X51738Y-28699D01*
X51778Y-28707D01*
X51819Y-28707D01*
X52119Y-28707D01*
X52170Y-28656D01*
X52170Y-28830D01*
X51783Y-28830D01*
X51750Y-28837D01*
X51720Y-28849D01*
X51692Y-28868D01*
X51668Y-28891D01*
X51650Y-28919D01*
X51637Y-28950D01*
X51630Y-28982D01*
X51630Y-29016D01*
X51630Y-29417D01*
X51637Y-29450D01*
X51649Y-29480D01*
X51668Y-29508D01*
X51691Y-29532D01*
X51719Y-29550D01*
X51750Y-29563D01*
X51782Y-29570D01*
X51816Y-29570D01*
X51891Y-29570D01*
X51891Y-29772D01*
X51589Y-30074D01*
X51584Y-30079D01*
X51545Y-30125D01*
X51544Y-30126D01*
X51543Y-30128D01*
X51514Y-30181D01*
X51497Y-30239D01*
X51493Y-30278D01*
X51491Y-30296D01*
X51491Y-30299D01*
X51491Y-30300D01*
X51491Y-34598D01*
X51491Y-34600D01*
X51492Y-34610D01*
X51496Y-34658D01*
X51503Y-34682D01*
X51514Y-34718D01*
X51528Y-34745D01*
X51541Y-34769D01*
X51543Y-34771D01*
X51579Y-34816D01*
X51580Y-34817D01*
X51581Y-34818D01*
X51595Y-34829D01*
X51625Y-34855D01*
X51627Y-34856D01*
X51678Y-34884D01*
X51680Y-34885D01*
X51736Y-34902D01*
X51738Y-34903D01*
X51784Y-34907D01*
X51796Y-34909D01*
X51798Y-34909D01*
X51800Y-34909D01*
X52072Y-34909D01*
X52071Y-34914D01*
X52071Y-34948D01*
X52071Y-35707D01*
X51869Y-35707D01*
X51836Y-35714D01*
X51806Y-35726D01*
X51778Y-35745D01*
X51754Y-35768D01*
X51736Y-35796D01*
X51723Y-35827D01*
X51716Y-35859D01*
X51716Y-35893D01*
X51716Y-36640D01*
X51723Y-36673D01*
X51735Y-36703D01*
X51754Y-36731D01*
X51777Y-36755D01*
X51805Y-36773D01*
X51836Y-36786D01*
X51868Y-36793D01*
X51902Y-36793D01*
X52837Y-36793D01*
X52870Y-36786D01*
X52879Y-36782D01*
X52889Y-36786D01*
X52921Y-36793D01*
X52955Y-36793D01*
X53418Y-36793D01*
X53451Y-36786D01*
X53481Y-36774D01*
X53499Y-36761D01*
X53518Y-36773D01*
X53549Y-36786D01*
X53581Y-36793D01*
X53615Y-36793D01*
X54078Y-36793D01*
X54111Y-36786D01*
X54120Y-36782D01*
X54130Y-36786D01*
X54162Y-36793D01*
X54196Y-36793D01*
X55131Y-36793D01*
X55164Y-36786D01*
X55194Y-36774D01*
X55222Y-36755D01*
X55246Y-36732D01*
X55264Y-36704D01*
X55277Y-36673D01*
X55284Y-36641D01*
X55284Y-36607D01*
X55284Y-35860D01*
X55277Y-35827D01*
X55265Y-35797D01*
X55246Y-35769D01*
X55223Y-35745D01*
X55195Y-35727D01*
X55164Y-35714D01*
X55132Y-35707D01*
X55098Y-35707D01*
X54929Y-35707D01*
X54929Y-34915D01*
X54922Y-34882D01*
X54910Y-34852D01*
X54891Y-34824D01*
X54868Y-34800D01*
X54840Y-34782D01*
X54809Y-34769D01*
X54777Y-34762D01*
X54743Y-34762D01*
X54162Y-34762D01*
X54139Y-34766D01*
X54118Y-34762D01*
X54084Y-34762D01*
X54015Y-34762D01*
X54015Y-34713D01*
X54183Y-34544D01*
X54227Y-34546D01*
X54293Y-34534D01*
X54356Y-34509D01*
X54414Y-34473D01*
X54463Y-34426D01*
X54502Y-34371D01*
X54529Y-34309D01*
X54544Y-34243D01*
X54545Y-34166D01*
X54532Y-34100D01*
X54509Y-34044D01*
X54509Y-33981D01*
X54525Y-33988D01*
X54557Y-33995D01*
X54591Y-33995D01*
X55042Y-33995D01*
X55075Y-33988D01*
X55105Y-33976D01*
X55133Y-33957D01*
X55157Y-33934D01*
X55175Y-33906D01*
X55188Y-33875D01*
X55190Y-33865D01*
X55194Y-33870D01*
X55222Y-33888D01*
X55253Y-33901D01*
X55285Y-33908D01*
X55319Y-33908D01*
X55714Y-33908D01*
X55747Y-33901D01*
X55777Y-33889D01*
X55805Y-33870D01*
X55829Y-33847D01*
X55847Y-33819D01*
X55860Y-33788D01*
X55867Y-33756D01*
X55867Y-33722D01*
X55867Y-33445D01*
X55860Y-33412D01*
X55848Y-33382D01*
X55829Y-33354D01*
X55806Y-33330D01*
X55778Y-33312D01*
X55747Y-33299D01*
X55715Y-33292D01*
X55681Y-33292D01*
X55286Y-33292D01*
X55253Y-33299D01*
X55223Y-33311D01*
X55195Y-33330D01*
X55171Y-33353D01*
X55160Y-33370D01*
X55113Y-33370D01*
X55133Y-33357D01*
X55157Y-33334D01*
X55175Y-33306D01*
X55188Y-33275D01*
X55195Y-33243D01*
X55195Y-33209D01*
X55195Y-32958D01*
X55188Y-32925D01*
X55176Y-32895D01*
X55157Y-32867D01*
X55134Y-32843D01*
X55106Y-32825D01*
X55075Y-32812D01*
X55043Y-32805D01*
X55009Y-32805D01*
X54558Y-32805D01*
X54525Y-32812D01*
X54495Y-32824D01*
X54467Y-32843D01*
X54443Y-32866D01*
X54430Y-32885D01*
X54418Y-32877D01*
X54387Y-32864D01*
X54355Y-32857D01*
X54321Y-32857D01*
X54046Y-32857D01*
X54013Y-32864D01*
X53998Y-32870D01*
X53959Y-32870D01*
X53957Y-32867D01*
X53934Y-32843D01*
X53906Y-32825D01*
X53875Y-32812D01*
X53843Y-32805D01*
X53820Y-32805D01*
X53820Y-32515D01*
X56765Y-32515D01*
X56755Y-32562D01*
X56755Y-32629D01*
X56767Y-32696D01*
X56792Y-32759D01*
X56828Y-32815D01*
X56875Y-32864D01*
X56931Y-32903D01*
X56993Y-32930D01*
X57059Y-32944D01*
X57127Y-32946D01*
X57193Y-32934D01*
X57256Y-32909D01*
X57314Y-32873D01*
X57363Y-32826D01*
X57402Y-32771D01*
X57429Y-32709D01*
X57444Y-32643D01*
X57445Y-32566D01*
X57434Y-32515D01*
X57778Y-32515D01*
X57764Y-32526D01*
X57757Y-32532D01*
X57756Y-32533D01*
X57755Y-32534D01*
X57644Y-32644D01*
X57627Y-32665D01*
X57618Y-32676D01*
X57598Y-32713D01*
X57597Y-32715D01*
X57597Y-32716D01*
X57584Y-32757D01*
X57581Y-32787D01*
X57580Y-32797D01*
X57580Y-32799D01*
X57580Y-32800D01*
X57580Y-33634D01*
X57567Y-33643D01*
X57543Y-33666D01*
X57525Y-33694D01*
X57512Y-33725D01*
X57505Y-33757D01*
X57505Y-33791D01*
X57505Y-34242D01*
X57512Y-34275D01*
X57524Y-34305D01*
X57543Y-34333D01*
X57566Y-34357D01*
X57594Y-34375D01*
X57625Y-34388D01*
X57657Y-34395D01*
X57691Y-34395D01*
X57942Y-34395D01*
X57975Y-34388D01*
X58005Y-34376D01*
X58033Y-34357D01*
X58057Y-34334D01*
X58075Y-34306D01*
X58088Y-34275D01*
X58095Y-34243D01*
X58095Y-34209D01*
X58095Y-33758D01*
X58088Y-33725D01*
X58076Y-33695D01*
X58057Y-33667D01*
X58034Y-33643D01*
X58020Y-33634D01*
X58020Y-32909D01*
X61460Y-32909D01*
X61460Y-32962D01*
X61464Y-32984D01*
X61460Y-33006D01*
X61460Y-33040D01*
X61460Y-33159D01*
X61467Y-33192D01*
X61479Y-33222D01*
X61498Y-33250D01*
X61521Y-33274D01*
X61549Y-33292D01*
X61580Y-33305D01*
X61612Y-33312D01*
X61646Y-33312D01*
X62159Y-33312D01*
X62192Y-33305D01*
X62197Y-33302D01*
X62195Y-33308D01*
X62188Y-33340D01*
X62188Y-33374D01*
X62188Y-33887D01*
X62195Y-33920D01*
X62207Y-33950D01*
X62226Y-33978D01*
X62249Y-34002D01*
X62277Y-34020D01*
X62308Y-34033D01*
X62340Y-34040D01*
X62374Y-34040D01*
X62394Y-34040D01*
X62394Y-34194D01*
X62308Y-34280D01*
X60444Y-34280D01*
X60445Y-34266D01*
X60432Y-34200D01*
X60406Y-34137D01*
X60369Y-34081D01*
X60321Y-34033D01*
X60265Y-33995D01*
X60202Y-33969D01*
X60136Y-33955D01*
X60068Y-33955D01*
X60002Y-33967D01*
X59939Y-33993D01*
X59883Y-34030D01*
X59834Y-34077D01*
X59796Y-34133D01*
X59770Y-34195D01*
X59755Y-34262D01*
X59755Y-34329D01*
X59767Y-34396D01*
X59792Y-34459D01*
X59828Y-34515D01*
X59875Y-34564D01*
X59931Y-34603D01*
X59993Y-34630D01*
X60059Y-34644D01*
X60127Y-34646D01*
X60133Y-34644D01*
X60143Y-34654D01*
X60144Y-34655D01*
X60176Y-34682D01*
X60177Y-34683D01*
X60188Y-34688D01*
X60213Y-34702D01*
X60215Y-34702D01*
X60254Y-34715D01*
X60256Y-34715D01*
X60297Y-34720D01*
X60300Y-34720D01*
X60589Y-34720D01*
X60465Y-34844D01*
X60448Y-34865D01*
X60446Y-34867D01*
X57616Y-34867D01*
X57613Y-34867D01*
X57495Y-34867D01*
X57495Y-34243D01*
X57495Y-34209D01*
X57495Y-33758D01*
X57488Y-33725D01*
X57476Y-33695D01*
X57457Y-33667D01*
X57434Y-33643D01*
X57406Y-33625D01*
X57375Y-33612D01*
X57343Y-33605D01*
X57309Y-33605D01*
X57058Y-33605D01*
X57025Y-33612D01*
X56995Y-33624D01*
X56967Y-33643D01*
X56943Y-33666D01*
X56925Y-33694D01*
X56912Y-33725D01*
X56905Y-33757D01*
X56905Y-33780D01*
X56904Y-33780D01*
X56904Y-33383D01*
X56904Y-33306D01*
X56904Y-33144D01*
X56904Y-33067D01*
X56896Y-33027D01*
X56881Y-32990D01*
X56858Y-32956D01*
X56830Y-32927D01*
X56796Y-32904D01*
X56759Y-32888D01*
X56719Y-32880D01*
X56678Y-32880D01*
X56581Y-32880D01*
X56530Y-32931D01*
X56530Y-33195D01*
X56853Y-33195D01*
X56904Y-33144D01*
X56904Y-33306D01*
X56853Y-33255D01*
X56530Y-33255D01*
X56530Y-33519D01*
X56581Y-33570D01*
X56678Y-33570D01*
X56719Y-33570D01*
X56759Y-33562D01*
X56796Y-33546D01*
X56830Y-33523D01*
X56858Y-33494D01*
X56881Y-33460D01*
X56896Y-33423D01*
X56904Y-33383D01*
X56904Y-33780D01*
X56857Y-33780D01*
X56848Y-33757D01*
X56829Y-33729D01*
X56806Y-33705D01*
X56778Y-33687D01*
X56747Y-33674D01*
X56715Y-33667D01*
X56681Y-33667D01*
X56470Y-33667D01*
X56470Y-33519D01*
X56470Y-33255D01*
X56470Y-33195D01*
X56470Y-32931D01*
X56419Y-32880D01*
X56322Y-32880D01*
X56281Y-32880D01*
X56241Y-32888D01*
X56204Y-32904D01*
X56170Y-32927D01*
X56142Y-32956D01*
X56119Y-32990D01*
X56104Y-33027D01*
X56096Y-33067D01*
X56096Y-33144D01*
X56147Y-33195D01*
X56470Y-33195D01*
X56470Y-33255D01*
X56147Y-33255D01*
X56096Y-33306D01*
X56096Y-33383D01*
X56104Y-33423D01*
X56119Y-33460D01*
X56142Y-33494D01*
X56170Y-33523D01*
X56204Y-33546D01*
X56241Y-33562D01*
X56281Y-33570D01*
X56322Y-33570D01*
X56419Y-33570D01*
X56470Y-33519D01*
X56470Y-33667D01*
X56286Y-33667D01*
X56253Y-33674D01*
X56223Y-33686D01*
X56195Y-33705D01*
X56171Y-33728D01*
X56153Y-33756D01*
X56140Y-33787D01*
X56133Y-33819D01*
X56133Y-33853D01*
X56133Y-34130D01*
X56140Y-34163D01*
X56152Y-34193D01*
X56171Y-34221D01*
X56194Y-34245D01*
X56222Y-34263D01*
X56253Y-34276D01*
X56285Y-34283D01*
X56319Y-34283D01*
X56714Y-34283D01*
X56747Y-34276D01*
X56777Y-34264D01*
X56805Y-34245D01*
X56829Y-34222D01*
X56830Y-34220D01*
X56905Y-34220D01*
X56905Y-34242D01*
X56912Y-34275D01*
X56924Y-34305D01*
X56943Y-34333D01*
X56966Y-34357D01*
X56994Y-34375D01*
X57025Y-34388D01*
X57057Y-34395D01*
X57091Y-34395D01*
X57342Y-34395D01*
X57375Y-34388D01*
X57405Y-34376D01*
X57433Y-34357D01*
X57457Y-34334D01*
X57475Y-34306D01*
X57488Y-34275D01*
X57495Y-34243D01*
X57495Y-34867D01*
X56406Y-34867D01*
X56406Y-34834D01*
X56399Y-34801D01*
X56387Y-34771D01*
X56368Y-34743D01*
X56345Y-34719D01*
X56317Y-34701D01*
X56286Y-34688D01*
X56254Y-34681D01*
X56220Y-34681D01*
X55747Y-34681D01*
X55714Y-34688D01*
X55684Y-34700D01*
X55656Y-34719D01*
X55632Y-34742D01*
X55614Y-34770D01*
X55601Y-34801D01*
X55594Y-34833D01*
X55594Y-34867D01*
X55594Y-35340D01*
X55601Y-35373D01*
X55613Y-35403D01*
X55632Y-35431D01*
X55655Y-35455D01*
X55683Y-35473D01*
X55714Y-35486D01*
X55746Y-35493D01*
X55780Y-35493D01*
X56172Y-35493D01*
X56155Y-35498D01*
X56134Y-35504D01*
X56128Y-35507D01*
X55747Y-35507D01*
X55714Y-35514D01*
X55684Y-35526D01*
X55656Y-35545D01*
X55632Y-35568D01*
X55614Y-35596D01*
X55601Y-35627D01*
X55594Y-35659D01*
X55594Y-35693D01*
X55594Y-36166D01*
X55601Y-36199D01*
X55613Y-36229D01*
X55632Y-36257D01*
X55655Y-36281D01*
X55683Y-36299D01*
X55714Y-36312D01*
X55746Y-36319D01*
X55780Y-36319D01*
X56253Y-36319D01*
X56286Y-36312D01*
X56316Y-36300D01*
X56344Y-36281D01*
X56368Y-36258D01*
X56386Y-36230D01*
X56399Y-36199D01*
X56406Y-36167D01*
X56406Y-36133D01*
X56406Y-35911D01*
X56828Y-35911D01*
X56843Y-35933D01*
X56866Y-35957D01*
X56894Y-35975D01*
X56925Y-35988D01*
X56957Y-35995D01*
X56991Y-35995D01*
X57442Y-35995D01*
X57475Y-35988D01*
X57505Y-35976D01*
X57533Y-35957D01*
X57557Y-35934D01*
X57575Y-35906D01*
X57588Y-35875D01*
X57595Y-35843D01*
X57595Y-35809D01*
X57595Y-35558D01*
X57588Y-35525D01*
X57576Y-35495D01*
X57557Y-35467D01*
X57534Y-35443D01*
X57506Y-35425D01*
X57475Y-35412D01*
X57443Y-35405D01*
X57409Y-35405D01*
X56958Y-35405D01*
X56925Y-35412D01*
X56895Y-35424D01*
X56867Y-35443D01*
X56843Y-35466D01*
X56828Y-35489D01*
X56271Y-35489D01*
X56286Y-35486D01*
X56316Y-35474D01*
X56344Y-35455D01*
X56368Y-35432D01*
X56386Y-35404D01*
X56399Y-35373D01*
X56406Y-35341D01*
X56406Y-35307D01*
X57610Y-35307D01*
X57613Y-35307D01*
X58099Y-35307D01*
X58094Y-35333D01*
X58094Y-35367D01*
X58094Y-35840D01*
X58101Y-35873D01*
X58113Y-35903D01*
X58132Y-35931D01*
X58155Y-35955D01*
X58183Y-35973D01*
X58214Y-35986D01*
X58246Y-35993D01*
X58280Y-35993D01*
X58621Y-35993D01*
X58607Y-36007D01*
X58247Y-36007D01*
X58214Y-36014D01*
X58184Y-36026D01*
X58156Y-36045D01*
X58132Y-36068D01*
X58114Y-36096D01*
X58101Y-36127D01*
X58094Y-36159D01*
X58094Y-36193D01*
X58094Y-36666D01*
X58101Y-36699D01*
X58113Y-36729D01*
X58132Y-36757D01*
X58144Y-36770D01*
X57995Y-36770D01*
X57595Y-36369D01*
X57595Y-36158D01*
X57588Y-36125D01*
X57576Y-36095D01*
X57557Y-36067D01*
X57534Y-36043D01*
X57506Y-36025D01*
X57475Y-36012D01*
X57443Y-36005D01*
X57409Y-36005D01*
X56958Y-36005D01*
X56925Y-36012D01*
X56895Y-36024D01*
X56867Y-36043D01*
X56843Y-36066D01*
X56825Y-36094D01*
X56812Y-36125D01*
X56805Y-36157D01*
X56805Y-36191D01*
X56805Y-36442D01*
X56812Y-36475D01*
X56824Y-36505D01*
X56843Y-36533D01*
X56866Y-36557D01*
X56894Y-36575D01*
X56925Y-36588D01*
X56957Y-36595D01*
X56991Y-36595D01*
X57169Y-36595D01*
X57736Y-37161D01*
X57737Y-37162D01*
X57770Y-37190D01*
X57771Y-37191D01*
X57805Y-37209D01*
X57809Y-37211D01*
X57811Y-37212D01*
X57832Y-37218D01*
X57852Y-37225D01*
X57853Y-37225D01*
X57897Y-37230D01*
X57900Y-37230D01*
X58998Y-37230D01*
X59000Y-37230D01*
X59042Y-37226D01*
X59045Y-37226D01*
X59081Y-37215D01*
X59085Y-37214D01*
X59085Y-37213D01*
X59088Y-37213D01*
X59125Y-37193D01*
X59127Y-37192D01*
X59137Y-37182D01*
X59161Y-37165D01*
X59162Y-37163D01*
X59163Y-37163D01*
X59335Y-36990D01*
X59357Y-36995D01*
X59391Y-36995D01*
X59842Y-36995D01*
X59875Y-36988D01*
X59905Y-36976D01*
X59933Y-36957D01*
X59957Y-36934D01*
X59975Y-36906D01*
X59975Y-36905D01*
X59978Y-36904D01*
X59981Y-36904D01*
X59981Y-36903D01*
X59984Y-36903D01*
X59995Y-36896D01*
X60020Y-36885D01*
X60022Y-36883D01*
X60053Y-36858D01*
X60055Y-36856D01*
X60056Y-36856D01*
X60267Y-36644D01*
X60327Y-36646D01*
X60393Y-36634D01*
X60456Y-36609D01*
X60514Y-36573D01*
X60563Y-36526D01*
X60594Y-36482D01*
X60594Y-36916D01*
X60601Y-36949D01*
X60613Y-36979D01*
X60632Y-37007D01*
X60655Y-37031D01*
X60683Y-37049D01*
X60714Y-37062D01*
X60746Y-37069D01*
X60780Y-37069D01*
X61253Y-37069D01*
X61286Y-37062D01*
X61316Y-37050D01*
X61344Y-37031D01*
X61368Y-37008D01*
X61386Y-36980D01*
X61399Y-36949D01*
X61406Y-36917D01*
X61406Y-36883D01*
X61406Y-36555D01*
X61650Y-36311D01*
X61828Y-36311D01*
X61843Y-36333D01*
X61866Y-36357D01*
X61894Y-36375D01*
X61925Y-36388D01*
X61957Y-36395D01*
X61991Y-36395D01*
X62442Y-36395D01*
X62475Y-36388D01*
X62505Y-36376D01*
X62533Y-36357D01*
X62557Y-36334D01*
X62575Y-36306D01*
X62588Y-36275D01*
X62595Y-36243D01*
X62595Y-36209D01*
X62595Y-35958D01*
X62588Y-35925D01*
X62576Y-35895D01*
X62557Y-35867D01*
X62534Y-35843D01*
X62506Y-35825D01*
X62475Y-35812D01*
X62443Y-35805D01*
X62409Y-35805D01*
X61958Y-35805D01*
X61925Y-35812D01*
X61895Y-35824D01*
X61867Y-35843D01*
X61843Y-35866D01*
X61828Y-35889D01*
X61565Y-35889D01*
X61563Y-35889D01*
X61522Y-35893D01*
X61505Y-35898D01*
X61484Y-35904D01*
X61449Y-35922D01*
X61446Y-35924D01*
X61414Y-35950D01*
X61409Y-35955D01*
X61406Y-35959D01*
X61406Y-35584D01*
X61399Y-35551D01*
X61387Y-35521D01*
X61368Y-35493D01*
X61345Y-35469D01*
X61317Y-35451D01*
X61286Y-35438D01*
X61254Y-35431D01*
X61220Y-35431D01*
X61220Y-35320D01*
X62698Y-35320D01*
X62700Y-35320D01*
X62741Y-35316D01*
X62743Y-35316D01*
X62778Y-35304D01*
X62781Y-35304D01*
X62781Y-35303D01*
X62784Y-35303D01*
X62795Y-35296D01*
X62820Y-35285D01*
X62822Y-35283D01*
X62853Y-35258D01*
X62855Y-35256D01*
X62856Y-35256D01*
X63182Y-34929D01*
X63182Y-35201D01*
X63156Y-35219D01*
X63132Y-35242D01*
X63114Y-35270D01*
X63101Y-35301D01*
X63094Y-35333D01*
X63094Y-35367D01*
X63094Y-35840D01*
X63101Y-35873D01*
X63113Y-35903D01*
X63132Y-35931D01*
X63155Y-35955D01*
X63183Y-35973D01*
X63214Y-35986D01*
X63246Y-35993D01*
X63280Y-35993D01*
X63753Y-35993D01*
X63786Y-35986D01*
X63816Y-35974D01*
X63844Y-35955D01*
X63868Y-35932D01*
X63886Y-35904D01*
X63899Y-35873D01*
X63906Y-35841D01*
X63906Y-35807D01*
X63906Y-35334D01*
X63900Y-35307D01*
X65594Y-35307D01*
X65594Y-35340D01*
X65601Y-35373D01*
X65613Y-35403D01*
X65632Y-35431D01*
X65655Y-35455D01*
X65683Y-35473D01*
X65714Y-35486D01*
X65746Y-35493D01*
X65780Y-35493D01*
X66121Y-35493D01*
X66107Y-35507D01*
X65747Y-35507D01*
X65714Y-35514D01*
X65684Y-35526D01*
X65656Y-35545D01*
X65632Y-35568D01*
X65614Y-35596D01*
X65601Y-35627D01*
X65594Y-35659D01*
X65594Y-35693D01*
X65594Y-36166D01*
X65601Y-36199D01*
X65613Y-36229D01*
X65632Y-36257D01*
X65655Y-36281D01*
X65683Y-36299D01*
X65714Y-36312D01*
X65746Y-36319D01*
X65780Y-36319D01*
X66253Y-36319D01*
X66286Y-36312D01*
X66316Y-36300D01*
X66344Y-36281D01*
X66368Y-36258D01*
X66386Y-36230D01*
X66399Y-36199D01*
X66406Y-36167D01*
X66406Y-36133D01*
X66406Y-35805D01*
X66660Y-35551D01*
X66666Y-35557D01*
X66694Y-35575D01*
X66725Y-35588D01*
X66757Y-35595D01*
X66791Y-35595D01*
X67242Y-35595D01*
X67275Y-35588D01*
X67305Y-35576D01*
X67333Y-35557D01*
X67357Y-35534D01*
X67375Y-35506D01*
X67388Y-35475D01*
X67395Y-35443D01*
X67395Y-35409D01*
X67395Y-35158D01*
X67388Y-35125D01*
X67376Y-35095D01*
X67357Y-35067D01*
X67334Y-35043D01*
X67306Y-35025D01*
X67275Y-35012D01*
X67243Y-35005D01*
X67209Y-35005D01*
X66758Y-35005D01*
X66725Y-35012D01*
X66695Y-35024D01*
X66667Y-35043D01*
X66643Y-35066D01*
X66628Y-35089D01*
X66614Y-35089D01*
X66613Y-35089D01*
X66572Y-35093D01*
X66533Y-35105D01*
X66496Y-35124D01*
X66468Y-35146D01*
X66465Y-35149D01*
X66464Y-35150D01*
X66463Y-35151D01*
X66406Y-35208D01*
X66406Y-34834D01*
X66399Y-34801D01*
X66387Y-34771D01*
X66368Y-34743D01*
X66345Y-34719D01*
X66317Y-34701D01*
X66286Y-34688D01*
X66254Y-34681D01*
X66220Y-34681D01*
X65747Y-34681D01*
X65714Y-34688D01*
X65684Y-34700D01*
X65656Y-34719D01*
X65632Y-34742D01*
X65614Y-34770D01*
X65601Y-34801D01*
X65594Y-34833D01*
X65594Y-34867D01*
X65503Y-34867D01*
X65529Y-34809D01*
X65544Y-34743D01*
X65544Y-34666D01*
X65545Y-34666D01*
X65954Y-34257D01*
X65955Y-34256D01*
X65982Y-34224D01*
X65983Y-34223D01*
X66000Y-34190D01*
X66002Y-34187D01*
X66002Y-34186D01*
X66003Y-34185D01*
X66007Y-34170D01*
X66015Y-34146D01*
X66015Y-34144D01*
X66020Y-34103D01*
X66020Y-34101D01*
X66020Y-34100D01*
X66020Y-32900D01*
X66016Y-32858D01*
X66016Y-32857D01*
X66010Y-32839D01*
X66004Y-32818D01*
X66003Y-32816D01*
X65984Y-32780D01*
X65983Y-32778D01*
X65963Y-32753D01*
X65957Y-32746D01*
X65956Y-32745D01*
X65955Y-32744D01*
X65943Y-32732D01*
X65942Y-32730D01*
X65920Y-32713D01*
X65910Y-32704D01*
X65908Y-32703D01*
X65873Y-32684D01*
X65870Y-32683D01*
X65832Y-32671D01*
X65829Y-32670D01*
X65798Y-32667D01*
X65789Y-32666D01*
X65787Y-32666D01*
X65786Y-32666D01*
X65540Y-32666D01*
X65540Y-32613D01*
X65535Y-32590D01*
X65540Y-32569D01*
X65540Y-32535D01*
X65540Y-32515D01*
X67030Y-32515D01*
X67043Y-32533D01*
X67066Y-32557D01*
X67094Y-32575D01*
X67125Y-32588D01*
X67157Y-32595D01*
X67191Y-32595D01*
X67642Y-32595D01*
X67670Y-32589D01*
X68001Y-32589D01*
X68019Y-32600D01*
X68050Y-32613D01*
X68082Y-32620D01*
X68116Y-32620D01*
X68917Y-32620D01*
X68950Y-32613D01*
X68980Y-32601D01*
X69008Y-32582D01*
X69032Y-32559D01*
X69050Y-32531D01*
X69063Y-32500D01*
X69070Y-32468D01*
X69070Y-32434D01*
X69070Y-31833D01*
X69063Y-31800D01*
X69051Y-31770D01*
X69032Y-31742D01*
X69009Y-31718D01*
X68981Y-31700D01*
X68950Y-31687D01*
X68918Y-31680D01*
X68884Y-31680D01*
X68795Y-31680D01*
X68802Y-31671D01*
X68829Y-31609D01*
X68844Y-31543D01*
X68845Y-31466D01*
X68832Y-31400D01*
X68814Y-31357D01*
X68881Y-31357D01*
X68922Y-31357D01*
X68962Y-31349D01*
X68999Y-31333D01*
X69033Y-31310D01*
X69061Y-31281D01*
X69084Y-31247D01*
X69099Y-31210D01*
X69107Y-31170D01*
X69107Y-30931D01*
X69107Y-30769D01*
X69107Y-30530D01*
X69099Y-30490D01*
X69084Y-30453D01*
X69061Y-30419D01*
X69033Y-30390D01*
X68999Y-30367D01*
X68962Y-30351D01*
X68922Y-30343D01*
X68881Y-30343D01*
X68581Y-30343D01*
X68530Y-30394D01*
X68530Y-30820D01*
X69056Y-30820D01*
X69107Y-30769D01*
X69107Y-30931D01*
X69056Y-30880D01*
X68580Y-30880D01*
X68530Y-30880D01*
X68470Y-30880D01*
X68470Y-30820D01*
X68470Y-30394D01*
X68419Y-30343D01*
X68119Y-30343D01*
X68078Y-30343D01*
X68038Y-30351D01*
X68001Y-30367D01*
X67967Y-30390D01*
X67939Y-30419D01*
X67916Y-30453D01*
X67901Y-30490D01*
X67893Y-30530D01*
X67893Y-30769D01*
X67944Y-30820D01*
X68470Y-30820D01*
X68470Y-30880D01*
X68420Y-30880D01*
X67944Y-30880D01*
X67893Y-30931D01*
X67893Y-31170D01*
X67901Y-31210D01*
X67916Y-31247D01*
X67939Y-31281D01*
X67967Y-31310D01*
X68001Y-31333D01*
X68038Y-31349D01*
X68078Y-31357D01*
X68119Y-31357D01*
X68185Y-31357D01*
X68170Y-31395D01*
X68155Y-31462D01*
X68155Y-31529D01*
X68167Y-31596D01*
X68192Y-31659D01*
X68205Y-31680D01*
X68083Y-31680D01*
X68050Y-31687D01*
X68020Y-31699D01*
X67992Y-31718D01*
X67968Y-31741D01*
X67950Y-31769D01*
X67937Y-31800D01*
X67930Y-31832D01*
X67930Y-31866D01*
X67930Y-32011D01*
X67717Y-32011D01*
X67724Y-32008D01*
X67758Y-31985D01*
X67786Y-31956D01*
X67809Y-31922D01*
X67824Y-31885D01*
X67832Y-31845D01*
X67832Y-31781D01*
X67832Y-31619D01*
X67832Y-31555D01*
X67824Y-31515D01*
X67809Y-31478D01*
X67786Y-31444D01*
X67758Y-31415D01*
X67724Y-31392D01*
X67687Y-31376D01*
X67647Y-31368D01*
X67606Y-31368D01*
X67481Y-31368D01*
X67430Y-31419D01*
X67430Y-31670D01*
X67781Y-31670D01*
X67832Y-31619D01*
X67832Y-31781D01*
X67781Y-31730D01*
X67480Y-31730D01*
X67430Y-31730D01*
X67370Y-31730D01*
X67370Y-31670D01*
X67370Y-31419D01*
X67319Y-31368D01*
X67194Y-31368D01*
X67153Y-31368D01*
X67113Y-31376D01*
X67076Y-31392D01*
X67042Y-31415D01*
X67014Y-31444D01*
X66991Y-31478D01*
X66976Y-31515D01*
X66968Y-31555D01*
X66968Y-31619D01*
X67019Y-31670D01*
X67370Y-31670D01*
X67370Y-31730D01*
X67320Y-31730D01*
X67019Y-31730D01*
X66968Y-31781D01*
X66968Y-31845D01*
X66976Y-31885D01*
X66991Y-31922D01*
X67014Y-31956D01*
X67042Y-31985D01*
X67076Y-32008D01*
X67104Y-32020D01*
X67095Y-32024D01*
X67067Y-32043D01*
X67043Y-32066D01*
X67037Y-32075D01*
X65540Y-32075D01*
X65540Y-32022D01*
X65535Y-32000D01*
X65540Y-31979D01*
X65540Y-31945D01*
X65540Y-31882D01*
X65553Y-31863D01*
X65569Y-31826D01*
X65577Y-31786D01*
X65577Y-31785D01*
X65526Y-31734D01*
X65501Y-31734D01*
X65479Y-31711D01*
X65469Y-31704D01*
X65478Y-31699D01*
X65502Y-31676D01*
X65526Y-31676D01*
X65577Y-31625D01*
X65577Y-31624D01*
X65569Y-31584D01*
X65553Y-31547D01*
X65542Y-31531D01*
X66187Y-31531D01*
X66189Y-31531D01*
X66230Y-31527D01*
X66232Y-31527D01*
X66267Y-31515D01*
X66270Y-31515D01*
X66270Y-31514D01*
X66273Y-31514D01*
X66284Y-31507D01*
X66309Y-31496D01*
X66311Y-31494D01*
X66342Y-31469D01*
X66344Y-31467D01*
X66345Y-31467D01*
X68432Y-29378D01*
X68396Y-29433D01*
X68370Y-29495D01*
X68355Y-29562D01*
X68355Y-29629D01*
X68367Y-29696D01*
X68392Y-29759D01*
X68428Y-29815D01*
X68475Y-29864D01*
X68531Y-29903D01*
X68593Y-29930D01*
X68659Y-29944D01*
X68727Y-29946D01*
X68793Y-29934D01*
X68856Y-29909D01*
X68914Y-29873D01*
X68963Y-29826D01*
X68967Y-29820D01*
X69408Y-29820D01*
X69480Y-29891D01*
X69480Y-33908D01*
X69383Y-34005D01*
X69158Y-34005D01*
X69125Y-34012D01*
X69095Y-34024D01*
X69067Y-34043D01*
X69043Y-34066D01*
X69025Y-34094D01*
X69020Y-34104D01*
X69008Y-34076D01*
X68985Y-34042D01*
X68956Y-34014D01*
X68922Y-33991D01*
X68885Y-33976D01*
X68845Y-33968D01*
X68781Y-33968D01*
X68730Y-34019D01*
X68730Y-34320D01*
X68730Y-34370D01*
X68730Y-34430D01*
X68730Y-34480D01*
X68730Y-34781D01*
X68781Y-34832D01*
X68845Y-34832D01*
X68885Y-34824D01*
X68922Y-34809D01*
X68956Y-34786D01*
X68985Y-34758D01*
X69008Y-34724D01*
X69020Y-34695D01*
X69024Y-34705D01*
X69043Y-34733D01*
X69066Y-34757D01*
X69070Y-34759D01*
X69070Y-35004D01*
X69032Y-35042D01*
X68670Y-35042D01*
X68670Y-34781D01*
X68670Y-34430D01*
X68670Y-34370D01*
X68670Y-34019D01*
X68619Y-33968D01*
X68555Y-33968D01*
X68515Y-33976D01*
X68478Y-33991D01*
X68444Y-34014D01*
X68415Y-34042D01*
X68392Y-34076D01*
X68376Y-34113D01*
X68368Y-34153D01*
X68368Y-34194D01*
X68368Y-34319D01*
X68419Y-34370D01*
X68670Y-34370D01*
X68670Y-34430D01*
X68419Y-34430D01*
X68368Y-34481D01*
X68368Y-34606D01*
X68368Y-34647D01*
X68376Y-34687D01*
X68392Y-34724D01*
X68415Y-34758D01*
X68444Y-34786D01*
X68478Y-34809D01*
X68515Y-34824D01*
X68555Y-34832D01*
X68619Y-34832D01*
X68670Y-34781D01*
X68670Y-35042D01*
X68182Y-35042D01*
X68179Y-35025D01*
X68167Y-34995D01*
X68148Y-34967D01*
X68125Y-34943D01*
X68097Y-34925D01*
X68066Y-34912D01*
X68034Y-34905D01*
X68000Y-34905D01*
X67605Y-34905D01*
X67572Y-34912D01*
X67542Y-34924D01*
X67514Y-34943D01*
X67490Y-34966D01*
X67472Y-34994D01*
X67459Y-35025D01*
X67452Y-35057D01*
X67452Y-35091D01*
X67452Y-35486D01*
X67459Y-35519D01*
X67471Y-35549D01*
X67490Y-35577D01*
X67513Y-35601D01*
X67541Y-35619D01*
X67572Y-35632D01*
X67604Y-35639D01*
X67638Y-35639D01*
X68033Y-35639D01*
X68066Y-35632D01*
X68096Y-35620D01*
X68124Y-35601D01*
X68148Y-35578D01*
X68166Y-35550D01*
X68179Y-35519D01*
X68182Y-35502D01*
X69126Y-35502D01*
X69128Y-35502D01*
X69170Y-35498D01*
X69173Y-35498D01*
X69209Y-35487D01*
X69213Y-35486D01*
X69213Y-35485D01*
X69216Y-35485D01*
X69253Y-35465D01*
X69255Y-35464D01*
X69265Y-35454D01*
X69289Y-35437D01*
X69290Y-35435D01*
X69291Y-35435D01*
X69461Y-35264D01*
X69462Y-35263D01*
X69467Y-35256D01*
X69490Y-35230D01*
X69491Y-35228D01*
X69492Y-35225D01*
X69511Y-35191D01*
X69513Y-35189D01*
X69521Y-35160D01*
X69525Y-35148D01*
X69525Y-35146D01*
X69530Y-35103D01*
X69530Y-35101D01*
X69530Y-35100D01*
X69530Y-34759D01*
X69533Y-34757D01*
X69557Y-34734D01*
X69575Y-34706D01*
X69588Y-34675D01*
X69595Y-34643D01*
X69595Y-34609D01*
X69595Y-34416D01*
X69854Y-34157D01*
X69855Y-34156D01*
X69882Y-34124D01*
X69883Y-34123D01*
X69888Y-34111D01*
X69902Y-34087D01*
X69902Y-34085D01*
X69915Y-34046D01*
X69915Y-34044D01*
X69920Y-34003D01*
X69920Y-34000D01*
X69920Y-29800D01*
X69916Y-29758D01*
X69916Y-29757D01*
X69910Y-29739D01*
X69904Y-29718D01*
X69903Y-29716D01*
X69884Y-29680D01*
X69883Y-29678D01*
X69863Y-29653D01*
X69857Y-29646D01*
X69856Y-29645D01*
X69855Y-29644D01*
X69657Y-29446D01*
X69656Y-29444D01*
X69634Y-29427D01*
X69624Y-29418D01*
X69622Y-29417D01*
X69587Y-29398D01*
X69584Y-29397D01*
X69546Y-29385D01*
X69543Y-29384D01*
X69512Y-29381D01*
X69503Y-29380D01*
X69501Y-29380D01*
X69500Y-29380D01*
X68968Y-29380D01*
X68921Y-29333D01*
X68865Y-29295D01*
X68802Y-29269D01*
X68736Y-29255D01*
X68668Y-29255D01*
X68602Y-29267D01*
X68539Y-29293D01*
X68483Y-29330D01*
X68445Y-29365D01*
X70354Y-27457D01*
X70355Y-27456D01*
X70382Y-27424D01*
X70383Y-27423D01*
X70391Y-27406D01*
X70402Y-27387D01*
X70402Y-27384D01*
X70403Y-27384D01*
X70403Y-27382D01*
X70415Y-27346D01*
X70415Y-27343D01*
X70420Y-27303D01*
X70420Y-27301D01*
X70420Y-27300D01*
X70420Y-27129D01*
X70429Y-27109D01*
X70444Y-27043D01*
X70445Y-26966D01*
X70445Y-34919D01*
X70428Y-34912D01*
X70396Y-34905D01*
X70362Y-34905D01*
X69967Y-34905D01*
X69934Y-34912D01*
X69904Y-34924D01*
X69876Y-34943D01*
X69852Y-34966D01*
X69834Y-34994D01*
X69821Y-35025D01*
X69814Y-35057D01*
X69814Y-35091D01*
X69814Y-35486D01*
X69821Y-35519D01*
X69833Y-35549D01*
X69852Y-35577D01*
X69875Y-35601D01*
X69903Y-35619D01*
X69934Y-35632D01*
X69966Y-35639D01*
X70000Y-35639D01*
X70395Y-35639D01*
X70428Y-35632D01*
X70458Y-35620D01*
X70486Y-35601D01*
X70510Y-35578D01*
X70528Y-35550D01*
X70541Y-35519D01*
X70548Y-35487D01*
X70548Y-36514D01*
X70541Y-36481D01*
X70529Y-36451D01*
X70510Y-36423D01*
X70487Y-36399D01*
X70459Y-36381D01*
X70428Y-36368D01*
X70411Y-36364D01*
X70411Y-36121D01*
X70411Y-36119D01*
X70407Y-36076D01*
X70407Y-36074D01*
X70394Y-36034D01*
X70394Y-36031D01*
X70374Y-35994D01*
X70373Y-35992D01*
X70363Y-35981D01*
X70346Y-35958D01*
X70344Y-35957D01*
X70343Y-35956D01*
X70226Y-35839D01*
X70225Y-35837D01*
X70192Y-35810D01*
X70190Y-35808D01*
X70153Y-35789D01*
X70150Y-35787D01*
X70108Y-35774D01*
X70073Y-35770D01*
X70065Y-35770D01*
X70063Y-35770D01*
X70062Y-35770D01*
X69358Y-35770D01*
X69321Y-35733D01*
X69265Y-35695D01*
X69202Y-35669D01*
X69136Y-35655D01*
X69068Y-35655D01*
X69002Y-35667D01*
X68939Y-35693D01*
X68883Y-35730D01*
X68841Y-35770D01*
X67395Y-35770D01*
X67395Y-35758D01*
X67388Y-35725D01*
X67376Y-35695D01*
X67357Y-35667D01*
X67334Y-35643D01*
X67306Y-35625D01*
X67275Y-35612D01*
X67243Y-35605D01*
X67209Y-35605D01*
X66758Y-35605D01*
X66725Y-35612D01*
X66695Y-35624D01*
X66667Y-35643D01*
X66643Y-35666D01*
X66625Y-35694D01*
X66612Y-35725D01*
X66605Y-35757D01*
X66605Y-35791D01*
X66605Y-36042D01*
X66612Y-36075D01*
X66624Y-36105D01*
X66643Y-36133D01*
X66666Y-36157D01*
X66694Y-36175D01*
X66697Y-36176D01*
X66504Y-36370D01*
X65195Y-36370D01*
X65195Y-36369D01*
X65195Y-36158D01*
X65188Y-36125D01*
X65176Y-36095D01*
X65157Y-36067D01*
X65134Y-36043D01*
X65106Y-36025D01*
X65075Y-36012D01*
X65043Y-36005D01*
X65009Y-36005D01*
X64620Y-36005D01*
X64630Y-35995D01*
X65042Y-35995D01*
X65075Y-35988D01*
X65105Y-35976D01*
X65133Y-35957D01*
X65157Y-35934D01*
X65175Y-35906D01*
X65188Y-35875D01*
X65195Y-35843D01*
X65195Y-35809D01*
X65195Y-35558D01*
X65188Y-35525D01*
X65176Y-35495D01*
X65157Y-35467D01*
X65134Y-35443D01*
X65106Y-35425D01*
X65075Y-35412D01*
X65043Y-35405D01*
X65009Y-35405D01*
X64558Y-35405D01*
X64525Y-35412D01*
X64495Y-35424D01*
X64467Y-35443D01*
X64443Y-35466D01*
X64425Y-35494D01*
X64412Y-35525D01*
X64405Y-35557D01*
X64405Y-35569D01*
X63883Y-36091D01*
X63868Y-36069D01*
X63845Y-36045D01*
X63817Y-36027D01*
X63786Y-36014D01*
X63754Y-36007D01*
X63720Y-36007D01*
X63247Y-36007D01*
X63214Y-36014D01*
X63184Y-36026D01*
X63156Y-36045D01*
X63132Y-36068D01*
X63114Y-36096D01*
X63101Y-36127D01*
X63094Y-36159D01*
X63094Y-36193D01*
X63094Y-36666D01*
X63101Y-36699D01*
X63113Y-36729D01*
X63132Y-36757D01*
X63144Y-36770D01*
X62595Y-36770D01*
X62595Y-36769D01*
X62595Y-36558D01*
X62588Y-36525D01*
X62576Y-36495D01*
X62557Y-36467D01*
X62534Y-36443D01*
X62506Y-36425D01*
X62475Y-36412D01*
X62443Y-36405D01*
X62409Y-36405D01*
X61958Y-36405D01*
X61925Y-36412D01*
X61895Y-36424D01*
X61867Y-36443D01*
X61843Y-36466D01*
X61825Y-36494D01*
X61812Y-36525D01*
X61805Y-36557D01*
X61805Y-36591D01*
X61805Y-36842D01*
X61812Y-36875D01*
X61824Y-36905D01*
X61843Y-36933D01*
X61866Y-36957D01*
X61894Y-36975D01*
X61925Y-36988D01*
X61957Y-36995D01*
X61991Y-36995D01*
X62118Y-36995D01*
X62158Y-37007D01*
X62184Y-37009D01*
X62336Y-37161D01*
X62337Y-37162D01*
X62343Y-37167D01*
X62370Y-37190D01*
X62372Y-37191D01*
X62375Y-37192D01*
X62409Y-37211D01*
X62411Y-37213D01*
X62440Y-37221D01*
X62452Y-37225D01*
X62454Y-37225D01*
X62497Y-37230D01*
X62499Y-37230D01*
X62500Y-37230D01*
X64398Y-37230D01*
X64400Y-37230D01*
X64442Y-37226D01*
X64445Y-37226D01*
X64481Y-37215D01*
X64485Y-37214D01*
X64485Y-37213D01*
X64488Y-37213D01*
X64525Y-37193D01*
X64527Y-37192D01*
X64537Y-37182D01*
X64561Y-37165D01*
X64562Y-37163D01*
X64563Y-37163D01*
X64951Y-36773D01*
X64970Y-36790D01*
X64972Y-36791D01*
X64975Y-36792D01*
X65009Y-36811D01*
X65011Y-36813D01*
X65040Y-36821D01*
X65052Y-36825D01*
X65054Y-36825D01*
X65097Y-36830D01*
X65099Y-36830D01*
X65100Y-36830D01*
X66598Y-36830D01*
X66600Y-36830D01*
X66642Y-36826D01*
X66645Y-36826D01*
X66681Y-36815D01*
X66685Y-36814D01*
X66685Y-36813D01*
X66688Y-36813D01*
X66725Y-36793D01*
X66727Y-36792D01*
X66737Y-36782D01*
X66761Y-36765D01*
X66762Y-36763D01*
X66763Y-36763D01*
X67161Y-36364D01*
X67162Y-36363D01*
X67167Y-36356D01*
X67190Y-36330D01*
X67191Y-36328D01*
X67211Y-36291D01*
X67211Y-36290D01*
X67212Y-36289D01*
X67216Y-36274D01*
X67225Y-36248D01*
X67225Y-36246D01*
X67226Y-36230D01*
X67227Y-36230D01*
X68842Y-36230D01*
X68875Y-36264D01*
X68931Y-36303D01*
X68993Y-36330D01*
X69059Y-36344D01*
X69127Y-36346D01*
X69193Y-36334D01*
X69256Y-36309D01*
X69314Y-36273D01*
X69358Y-36230D01*
X69951Y-36230D01*
X69951Y-36364D01*
X69934Y-36368D01*
X69904Y-36380D01*
X69876Y-36399D01*
X69852Y-36422D01*
X69834Y-36450D01*
X69821Y-36481D01*
X69814Y-36513D01*
X69814Y-36547D01*
X69814Y-36942D01*
X69821Y-36975D01*
X69833Y-37005D01*
X69852Y-37033D01*
X69875Y-37057D01*
X69903Y-37075D01*
X69934Y-37088D01*
X69966Y-37095D01*
X70000Y-37095D01*
X70395Y-37095D01*
X70428Y-37088D01*
X70458Y-37076D01*
X70486Y-37057D01*
X70510Y-37034D01*
X70528Y-37006D01*
X70541Y-36975D01*
X70548Y-36943D01*
X70548Y-37354D01*
X68186Y-37354D01*
X68186Y-36943D01*
X68186Y-36909D01*
X68186Y-36514D01*
X68179Y-36481D01*
X68167Y-36451D01*
X68148Y-36423D01*
X68125Y-36399D01*
X68097Y-36381D01*
X68066Y-36368D01*
X68034Y-36361D01*
X68000Y-36361D01*
X67605Y-36361D01*
X67572Y-36368D01*
X67542Y-36380D01*
X67514Y-36399D01*
X67490Y-36422D01*
X67472Y-36450D01*
X67459Y-36481D01*
X67452Y-36513D01*
X67452Y-36547D01*
X67452Y-36942D01*
X67459Y-36975D01*
X67471Y-37005D01*
X67490Y-37033D01*
X67513Y-37057D01*
X67541Y-37075D01*
X67572Y-37088D01*
X67604Y-37095D01*
X67638Y-37095D01*
X68033Y-37095D01*
X68066Y-37088D01*
X68096Y-37076D01*
X68124Y-37057D01*
X68148Y-37034D01*
X68166Y-37006D01*
X68179Y-36975D01*
X68186Y-36943D01*
X68186Y-37354D01*
X51446Y-37354D01*
X51446Y-18246D01*
X70554Y-18246D01*
X70554Y-37354D01*
M02*
