G04 (created by PCBNEW-RS274X (2012-01-19 BZR 3256)-stable) date 3/29/2013 10:33:37 PM*
G01*
G70*
G90*
%MOIN*%
G04 Gerber Fmt 3.4, Leading zero omitted, Abs format*
%FSLAX34Y34*%
G04 APERTURE LIST*
%ADD10C,0.006000*%
%ADD11C,0.015000*%
%ADD12R,0.066200X0.094700*%
%ADD13R,0.113500X0.094700*%
%ADD14R,0.078000X0.102700*%
%ADD15R,0.037700X0.074300*%
%ADD16R,0.106600X0.080000*%
%ADD17O,0.106600X0.080000*%
%ADD18R,0.059400X0.059400*%
%ADD19R,0.100000X0.164000*%
%ADD20R,0.100000X0.060000*%
%ADD21R,0.031800X0.071200*%
%ADD22R,0.071200X0.031800*%
%ADD23R,0.080000X0.100000*%
%ADD24R,0.100000X0.080000*%
%ADD25R,0.075000X0.075000*%
%ADD26C,0.075000*%
%ADD27R,0.079000X0.079000*%
%ADD28R,0.236500X0.098700*%
%ADD29R,0.080000X0.106600*%
%ADD30O,0.080000X0.106600*%
%ADD31R,0.126200X0.090700*%
%ADD32R,0.075000X0.055000*%
%ADD33R,0.071200X0.079000*%
%ADD34R,0.079000X0.071200*%
%ADD35R,0.055000X0.075000*%
G04 APERTURE END LIST*
G54D10*
G54D11*
X39600Y-49600D02*
X39600Y-30000D01*
X59200Y-49600D02*
X39600Y-49600D01*
X59200Y-30000D02*
X59200Y-49600D01*
X39600Y-30000D02*
X59200Y-30000D01*
G54D12*
X41570Y-49000D03*
X42230Y-49000D03*
G54D13*
X43047Y-49000D03*
X40753Y-49000D03*
G54D14*
X42869Y-48095D03*
X40931Y-48095D03*
G54D15*
X41388Y-47953D03*
X41644Y-47953D03*
X41900Y-47953D03*
X42156Y-47953D03*
X42412Y-47953D03*
G54D16*
X55400Y-38000D03*
G54D17*
X55400Y-37000D03*
X55400Y-36000D03*
G54D16*
X43400Y-36000D03*
G54D17*
X43400Y-37000D03*
X43400Y-38000D03*
G54D18*
X58581Y-48728D03*
X56219Y-47272D03*
X58581Y-47272D03*
X56219Y-48728D03*
G54D19*
X43200Y-40300D03*
G54D20*
X40600Y-40300D03*
X40600Y-41200D03*
X40600Y-39400D03*
G54D21*
X52392Y-42386D03*
X52195Y-42386D03*
X51998Y-42386D03*
X51802Y-42386D03*
X51605Y-42386D03*
X52983Y-42386D03*
X52786Y-42386D03*
X52589Y-42386D03*
G54D22*
X50286Y-42917D03*
X50286Y-43114D03*
X50286Y-43311D03*
X50286Y-43508D03*
X50286Y-43705D03*
X50286Y-43902D03*
X50286Y-44098D03*
X50286Y-44295D03*
G54D21*
X50817Y-45614D03*
X51014Y-45614D03*
X51211Y-45614D03*
X51408Y-45614D03*
X51605Y-45614D03*
X51802Y-45614D03*
X51998Y-45614D03*
X52195Y-45614D03*
G54D22*
X53514Y-45083D03*
X53514Y-44886D03*
X53514Y-44689D03*
X53514Y-44492D03*
X53514Y-44295D03*
X53514Y-44098D03*
X53514Y-43902D03*
X53514Y-43705D03*
G54D21*
X51408Y-42386D03*
X51211Y-42386D03*
X51014Y-42386D03*
X50817Y-42386D03*
G54D22*
X50286Y-44492D03*
X50286Y-44689D03*
X50286Y-44886D03*
X50286Y-45083D03*
G54D21*
X52392Y-45614D03*
X52589Y-45614D03*
X52786Y-45614D03*
X52983Y-45614D03*
G54D22*
X53514Y-43508D03*
X53514Y-43311D03*
X53514Y-43114D03*
X53514Y-42917D03*
G54D23*
X41250Y-42500D03*
X42550Y-42500D03*
X45050Y-42000D03*
X43750Y-42000D03*
G54D24*
X53400Y-35850D03*
X53400Y-37150D03*
G54D25*
X44900Y-32000D03*
G54D26*
X45900Y-32000D03*
X46900Y-32000D03*
X47900Y-32000D03*
X48900Y-32000D03*
X49900Y-32000D03*
X50900Y-32000D03*
X51900Y-32000D03*
X52900Y-32000D03*
X53900Y-32000D03*
G54D25*
X44900Y-31000D03*
G54D26*
X45900Y-31000D03*
X46900Y-31000D03*
X47900Y-31000D03*
X48900Y-31000D03*
X49900Y-31000D03*
X50900Y-31000D03*
X51900Y-31000D03*
X52900Y-31000D03*
X53900Y-31000D03*
G54D25*
X44900Y-33000D03*
G54D26*
X45900Y-33000D03*
X46900Y-33000D03*
X47900Y-33000D03*
X48900Y-33000D03*
X49900Y-33000D03*
X50900Y-33000D03*
X51900Y-33000D03*
X52900Y-33000D03*
X53900Y-33000D03*
G54D27*
X56588Y-33550D03*
X55212Y-33550D03*
G54D25*
X54900Y-31000D03*
G54D26*
X55900Y-31000D03*
X56900Y-31000D03*
G54D28*
X47530Y-39750D03*
X51270Y-39750D03*
G54D16*
X58100Y-45300D03*
G54D17*
X58100Y-44300D03*
X58100Y-43300D03*
X58100Y-42300D03*
X58100Y-41300D03*
G54D29*
X40400Y-46500D03*
G54D30*
X41400Y-46500D03*
X42400Y-46500D03*
X43400Y-46500D03*
G54D31*
X40600Y-30810D03*
X40600Y-31990D03*
X58400Y-30810D03*
X58400Y-31990D03*
X44400Y-46910D03*
X44400Y-48090D03*
X46900Y-47410D03*
X46900Y-48590D03*
X49400Y-47660D03*
X49400Y-48840D03*
X51900Y-47410D03*
X51900Y-48590D03*
X54400Y-46910D03*
X54400Y-48090D03*
G54D32*
X44400Y-40125D03*
X44400Y-40875D03*
G54D33*
X40775Y-43500D03*
X41525Y-43500D03*
G54D34*
X56900Y-42125D03*
X56900Y-41375D03*
X45400Y-36125D03*
X45400Y-36875D03*
X54900Y-43375D03*
X54900Y-44125D03*
G54D33*
X49975Y-41100D03*
X49225Y-41100D03*
X48025Y-38250D03*
X48775Y-38250D03*
X50775Y-38250D03*
X50025Y-38250D03*
G54D34*
X43400Y-44875D03*
X43400Y-45625D03*
G54D33*
X42525Y-43500D03*
X43275Y-43500D03*
G54D32*
X40650Y-33125D03*
X40650Y-33875D03*
G54D35*
X56025Y-43000D03*
X56775Y-43000D03*
X54275Y-38000D03*
X53525Y-38000D03*
G54D32*
X41400Y-44875D03*
X41400Y-45625D03*
X42400Y-45625D03*
X42400Y-44875D03*
G54D35*
X48775Y-34000D03*
X48025Y-34000D03*
X50025Y-34000D03*
X50775Y-34000D03*
X45275Y-38000D03*
X44525Y-38000D03*
G54D32*
X58400Y-33125D03*
X58400Y-33875D03*
X56850Y-31875D03*
X56850Y-32625D03*
X45600Y-47625D03*
X45600Y-48375D03*
X48000Y-48025D03*
X48000Y-48775D03*
X50600Y-48025D03*
X50600Y-48775D03*
X53150Y-48125D03*
X53150Y-48875D03*
X55400Y-48125D03*
X55400Y-48875D03*
G54D35*
X57025Y-46250D03*
X57775Y-46250D03*
G54D32*
X45400Y-44875D03*
X45400Y-45625D03*
G54D35*
X45025Y-43500D03*
X44275Y-43500D03*
G54D32*
X44400Y-45625D03*
X44400Y-44875D03*
G54D35*
X55525Y-34500D03*
X56275Y-34500D03*
G54D32*
X54900Y-32625D03*
X54900Y-31875D03*
G54D34*
X55900Y-32625D03*
X55900Y-31875D03*
M02*
