G04 (created by PCBNEW-RS274X (2012-01-19 BZR 3256)-stable) date 3/28/2013 11:41:19 PM*
G01*
G70*
G90*
%MOIN*%
G04 Gerber Fmt 3.4, Leading zero omitted, Abs format*
%FSLAX34Y34*%
G04 APERTURE LIST*
%ADD10C,0.006000*%
%ADD11C,0.015000*%
%ADD12R,0.086600X0.060000*%
%ADD13O,0.086600X0.060000*%
%ADD14R,0.055000X0.055000*%
%ADD15C,0.055000*%
%ADD16C,0.035000*%
%ADD17C,0.027600*%
%ADD18C,0.009800*%
%ADD19C,0.011800*%
%ADD20C,0.010000*%
G04 APERTURE END LIST*
G54D10*
G54D11*
X51200Y-37600D02*
X51200Y-18000D01*
X70800Y-37600D02*
X51200Y-37600D01*
X70800Y-18000D02*
X70800Y-37600D01*
X51200Y-18000D02*
X70800Y-18000D01*
G54D12*
X67000Y-26000D03*
G54D13*
X67000Y-25000D03*
X67000Y-24000D03*
G54D12*
X55000Y-24000D03*
G54D13*
X55000Y-25000D03*
X55000Y-26000D03*
G54D14*
X56500Y-20000D03*
G54D15*
X57500Y-20000D03*
X58500Y-20000D03*
X59500Y-20000D03*
X60500Y-20000D03*
X61500Y-20000D03*
X62500Y-20000D03*
X63500Y-20000D03*
X64500Y-20000D03*
X65500Y-20000D03*
G54D14*
X56500Y-19000D03*
G54D15*
X57500Y-19000D03*
X58500Y-19000D03*
X59500Y-19000D03*
X60500Y-19000D03*
X61500Y-19000D03*
X62500Y-19000D03*
X63500Y-19000D03*
X64500Y-19000D03*
X65500Y-19000D03*
G54D14*
X56500Y-21000D03*
G54D15*
X57500Y-21000D03*
X58500Y-21000D03*
X59500Y-21000D03*
X60500Y-21000D03*
X61500Y-21000D03*
X62500Y-21000D03*
X63500Y-21000D03*
X64500Y-21000D03*
X65500Y-21000D03*
G54D14*
X66500Y-19000D03*
G54D15*
X67500Y-19000D03*
X68500Y-19000D03*
G54D12*
X69700Y-33300D03*
G54D13*
X69700Y-32300D03*
X69700Y-31300D03*
X69700Y-30300D03*
X69700Y-29300D03*
G54D16*
X53300Y-29000D03*
X63800Y-32900D03*
X63800Y-32400D03*
X61750Y-30100D03*
X61525Y-29675D03*
X63900Y-31050D03*
X65650Y-22000D03*
X64400Y-32400D03*
X66600Y-22550D03*
X64100Y-29600D03*
X66700Y-33900D03*
X60100Y-34300D03*
X65200Y-34700D03*
X65300Y-29200D03*
X59200Y-31400D03*
X62600Y-31300D03*
X60300Y-31500D03*
X68200Y-27000D03*
X70100Y-27000D03*
X69200Y-27700D03*
X67400Y-27700D03*
X59900Y-31700D03*
X62900Y-32900D03*
X67200Y-33900D03*
X69100Y-36000D03*
X54800Y-34200D03*
X54200Y-34200D03*
X60300Y-36300D03*
X61850Y-28600D03*
X66500Y-32250D03*
X64000Y-29100D03*
X52500Y-34200D03*
X62450Y-27050D03*
X61000Y-24250D03*
X52200Y-21900D03*
X70000Y-21900D03*
X54000Y-29000D03*
X57600Y-31700D03*
X57300Y-32700D03*
G54D17*
X54250Y-24000D02*
X55000Y-24000D01*
X53200Y-28900D02*
X53200Y-25700D01*
X53200Y-25050D02*
X54250Y-24000D01*
X53300Y-29000D02*
X53200Y-28900D01*
X53200Y-25700D02*
X53200Y-25050D01*
G54D18*
X58600Y-23600D02*
X58600Y-27900D01*
X62750Y-30950D02*
X63000Y-31200D01*
X63000Y-21900D02*
X62700Y-21900D01*
X62200Y-22400D02*
X60900Y-22400D01*
X59600Y-28900D02*
X60550Y-29850D01*
X61650Y-29300D02*
X62100Y-29750D01*
X63800Y-21600D02*
X63300Y-21600D01*
X62100Y-29750D02*
X62100Y-30600D01*
X61125Y-29850D02*
X61200Y-29775D01*
X62100Y-30600D02*
X62450Y-30950D01*
X60550Y-29850D02*
X61125Y-29850D01*
X63400Y-32900D02*
X63800Y-32900D01*
X63000Y-31200D02*
X63000Y-32500D01*
X61200Y-29775D02*
X61200Y-29500D01*
X61200Y-29500D02*
X61400Y-29300D01*
X58600Y-27900D02*
X59600Y-28900D01*
X59000Y-23200D02*
X58600Y-23600D01*
X63300Y-21600D02*
X63000Y-21900D01*
X60900Y-22400D02*
X60100Y-23200D01*
X62450Y-30950D02*
X62750Y-30950D01*
X64400Y-21000D02*
X63800Y-21600D01*
X60100Y-23200D02*
X59000Y-23200D01*
X61400Y-29300D02*
X61650Y-29300D01*
X63300Y-32800D02*
X63400Y-32900D01*
X63000Y-32500D02*
X63300Y-32800D01*
X62700Y-21900D02*
X62200Y-22400D01*
X64500Y-21000D02*
X64400Y-21000D01*
X62279Y-29654D02*
X62279Y-30525D01*
X63179Y-31125D02*
X63179Y-32329D01*
X62504Y-30750D02*
X62804Y-30750D01*
X62279Y-30525D02*
X62504Y-30750D01*
X61325Y-29100D02*
X61725Y-29100D01*
X64200Y-21600D02*
X63900Y-21900D01*
X60700Y-29600D02*
X60825Y-29600D01*
X58900Y-27750D02*
X59713Y-28563D01*
X60150Y-23450D02*
X59150Y-23450D01*
X59150Y-23450D02*
X58900Y-23700D01*
X59713Y-28563D02*
X59713Y-28613D01*
X58900Y-23700D02*
X58900Y-27750D01*
X63900Y-21900D02*
X63400Y-21900D01*
X61725Y-29100D02*
X62279Y-29654D01*
X62804Y-30750D02*
X63179Y-31125D01*
X62800Y-22200D02*
X62400Y-22600D01*
X59713Y-28563D02*
X59750Y-28600D01*
X63179Y-32329D02*
X63250Y-32400D01*
X65350Y-21000D02*
X64750Y-21600D01*
X61000Y-22600D02*
X60150Y-23450D01*
X60825Y-29600D02*
X61325Y-29100D01*
X63250Y-32400D02*
X63800Y-32400D01*
X65500Y-21000D02*
X65350Y-21000D01*
X62400Y-22600D02*
X61000Y-22600D01*
X59713Y-28613D02*
X60700Y-29600D01*
X63400Y-21900D02*
X63100Y-22200D01*
X64750Y-21600D02*
X64200Y-21600D01*
X63100Y-22200D02*
X62800Y-22200D01*
X59500Y-29600D02*
X58000Y-28100D01*
X58000Y-23400D02*
X58800Y-22600D01*
X58000Y-28100D02*
X58000Y-23400D01*
X61700Y-21800D02*
X62500Y-21000D01*
X61500Y-30350D02*
X60250Y-30350D01*
X58800Y-22600D02*
X59800Y-22600D01*
X59800Y-22600D02*
X60600Y-21800D01*
X60600Y-21800D02*
X61700Y-21800D01*
X61750Y-30100D02*
X61500Y-30350D01*
X60250Y-30350D02*
X59500Y-29600D01*
X61346Y-30125D02*
X60425Y-30125D01*
X60000Y-22900D02*
X60800Y-22100D01*
X58900Y-22900D02*
X60000Y-22900D01*
X58300Y-23500D02*
X58900Y-22900D01*
X62900Y-21600D02*
X63500Y-21000D01*
X59500Y-29200D02*
X58300Y-28000D01*
X61525Y-29675D02*
X61425Y-29775D01*
X62600Y-21600D02*
X62900Y-21600D01*
X61425Y-29775D02*
X61425Y-30046D01*
X58300Y-28000D02*
X58300Y-23500D01*
X62100Y-22100D02*
X62600Y-21600D01*
X60425Y-30125D02*
X59500Y-29200D01*
X60800Y-22100D02*
X62100Y-22100D01*
X61425Y-30046D02*
X61346Y-30125D01*
X63150Y-29900D02*
X63400Y-30150D01*
X63650Y-25475D02*
X64425Y-26250D01*
X65525Y-22825D02*
X65650Y-22700D01*
X65650Y-22700D02*
X65650Y-22000D01*
X63400Y-30150D02*
X63900Y-30650D01*
X64425Y-26525D02*
X64775Y-26875D01*
X63900Y-30650D02*
X63900Y-31050D01*
X64775Y-27350D02*
X63400Y-28725D01*
X64425Y-26250D02*
X64425Y-26525D01*
X63400Y-28725D02*
X63150Y-28975D01*
X64775Y-26875D02*
X64775Y-27350D01*
X63650Y-23200D02*
X64025Y-22825D01*
X63650Y-23200D02*
X63650Y-25475D01*
X63150Y-28975D02*
X63150Y-29900D01*
X64025Y-22825D02*
X65525Y-22825D01*
X64125Y-23025D02*
X66125Y-23025D01*
X64954Y-26679D02*
X64954Y-27450D01*
X66125Y-23025D02*
X66600Y-22550D01*
X64604Y-26154D02*
X64604Y-26329D01*
X63579Y-30050D02*
X63579Y-30054D01*
X63329Y-29075D02*
X63329Y-29800D01*
X64954Y-27450D02*
X63579Y-28825D01*
X63579Y-30054D02*
X64275Y-30750D01*
X64604Y-26329D02*
X64954Y-26679D01*
X64275Y-32275D02*
X64400Y-32400D01*
X64275Y-30750D02*
X64275Y-32275D01*
X63579Y-28825D02*
X63329Y-29075D01*
X63329Y-29800D02*
X63579Y-30050D01*
X63829Y-23321D02*
X64125Y-23025D01*
X63829Y-23325D02*
X63829Y-25379D01*
X63829Y-25379D02*
X64604Y-26154D01*
X63829Y-23325D02*
X63829Y-23321D01*
X63829Y-23321D02*
X63829Y-23325D01*
X64500Y-30000D02*
X64500Y-32000D01*
X64500Y-32000D02*
X64800Y-32300D01*
X64100Y-29600D02*
X64500Y-30000D01*
X64800Y-33900D02*
X66700Y-33900D01*
X64800Y-32300D02*
X64800Y-33900D01*
G54D19*
X58700Y-31700D02*
X58700Y-34300D01*
X56500Y-29500D02*
X58700Y-31700D01*
X56500Y-21000D02*
X56500Y-29500D01*
X58700Y-34300D02*
X60100Y-34300D01*
X60200Y-33900D02*
X61000Y-34700D01*
X56699Y-29399D02*
X58900Y-31600D01*
X61000Y-34700D02*
X65200Y-34700D01*
X58900Y-31600D02*
X58900Y-33700D01*
X58900Y-33700D02*
X59100Y-33900D01*
X57500Y-21000D02*
X57499Y-21000D01*
X57499Y-21000D02*
X56699Y-21800D01*
X59100Y-33900D02*
X60200Y-33900D01*
X56699Y-21800D02*
X56699Y-29399D01*
G54D18*
X66400Y-29200D02*
X67500Y-30300D01*
X65300Y-29200D02*
X66400Y-29200D01*
X67500Y-30300D02*
X69700Y-30300D01*
G54D19*
X56898Y-22402D02*
X58300Y-21000D01*
G54D18*
X56900Y-29100D02*
X56888Y-29100D01*
G54D19*
X58300Y-21000D02*
X58500Y-21000D01*
X59200Y-31400D02*
X56900Y-29100D01*
G54D18*
X56888Y-29100D02*
X56898Y-29100D01*
G54D19*
X56898Y-29100D02*
X56898Y-22402D01*
G54D18*
X59600Y-22300D02*
X60300Y-21600D01*
X57700Y-28300D02*
X57700Y-23200D01*
X60900Y-21600D02*
X61500Y-21000D01*
X60700Y-31300D02*
X57700Y-28300D01*
X58600Y-22300D02*
X59600Y-22300D01*
X61500Y-21000D02*
X61500Y-21100D01*
X62600Y-31300D02*
X60700Y-31300D01*
X60300Y-21600D02*
X60900Y-21600D01*
X57700Y-23200D02*
X58600Y-22300D01*
X60500Y-21100D02*
X60500Y-21000D01*
G54D19*
X57400Y-23000D02*
X57400Y-28600D01*
X58500Y-21900D02*
X57400Y-23000D01*
X60400Y-21000D02*
X59500Y-21900D01*
X60400Y-21000D02*
X60500Y-21000D01*
X60300Y-31500D02*
X57400Y-28600D01*
X59500Y-21900D02*
X58500Y-21900D01*
G54D18*
X70100Y-27000D02*
X68200Y-27000D01*
X67400Y-27700D02*
X69200Y-27700D01*
G54D19*
X57100Y-28800D02*
X57100Y-22700D01*
X57100Y-22700D02*
X58200Y-21600D01*
X58200Y-21600D02*
X58900Y-21600D01*
X59700Y-31400D02*
X57100Y-28800D01*
X58900Y-21600D02*
X59500Y-21000D01*
G54D18*
X59500Y-21000D02*
X59500Y-21100D01*
G54D19*
X59700Y-31500D02*
X59700Y-31400D01*
X59900Y-31700D02*
X59700Y-31500D01*
G54D18*
X63300Y-33300D02*
X64400Y-33300D01*
X62900Y-32900D02*
X63300Y-33300D01*
X64600Y-33500D02*
X64600Y-34100D01*
X66600Y-34300D02*
X66800Y-34300D01*
X66800Y-34300D02*
X67200Y-33900D01*
X64600Y-34100D02*
X66400Y-34100D01*
X64400Y-33300D02*
X64600Y-33500D01*
X66400Y-34100D02*
X66600Y-34300D01*
X57300Y-32000D02*
X57300Y-32700D01*
X57600Y-31700D02*
X57300Y-32000D01*
G54D10*
G36*
X70554Y-37354D02*
X70445Y-37354D01*
X70445Y-27069D01*
X70445Y-26932D01*
X70393Y-26805D01*
X70296Y-26708D01*
X70169Y-26655D01*
X70032Y-26655D01*
X69905Y-26707D01*
X69832Y-26780D01*
X68945Y-26780D01*
X68945Y-19089D01*
X68945Y-18912D01*
X68877Y-18748D01*
X68752Y-18623D01*
X68589Y-18555D01*
X68412Y-18555D01*
X68248Y-18623D01*
X68123Y-18748D01*
X68055Y-18911D01*
X68055Y-19088D01*
X68123Y-19252D01*
X68248Y-19377D01*
X68411Y-19445D01*
X68588Y-19445D01*
X68752Y-19377D01*
X68877Y-19252D01*
X68945Y-19089D01*
X68945Y-26780D01*
X68468Y-26780D01*
X68396Y-26708D01*
X68269Y-26655D01*
X68132Y-26655D01*
X68005Y-26707D01*
X67974Y-26738D01*
X67974Y-19083D01*
X67970Y-18895D01*
X67907Y-18742D01*
X67825Y-18718D01*
X67782Y-18760D01*
X67782Y-18675D01*
X67758Y-18593D01*
X67583Y-18526D01*
X67395Y-18530D01*
X67242Y-18593D01*
X67218Y-18675D01*
X67500Y-18958D01*
X67782Y-18675D01*
X67782Y-18760D01*
X67542Y-19000D01*
X67825Y-19282D01*
X67907Y-19258D01*
X67974Y-19083D01*
X67974Y-26738D01*
X67908Y-26804D01*
X67855Y-26931D01*
X67855Y-27068D01*
X67907Y-27195D01*
X68004Y-27292D01*
X68131Y-27345D01*
X68268Y-27345D01*
X68395Y-27293D01*
X68468Y-27220D01*
X69832Y-27220D01*
X69904Y-27292D01*
X70031Y-27345D01*
X70168Y-27345D01*
X70295Y-27293D01*
X70392Y-27196D01*
X70445Y-27069D01*
X70445Y-37354D01*
X70328Y-37354D01*
X70328Y-29409D01*
X70328Y-29191D01*
X70315Y-29139D01*
X70217Y-28967D01*
X70060Y-28845D01*
X69869Y-28793D01*
X69730Y-28793D01*
X69730Y-29270D01*
X70288Y-29270D01*
X70328Y-29191D01*
X70328Y-29409D01*
X70288Y-29330D01*
X69730Y-29330D01*
X69730Y-29807D01*
X69869Y-29807D01*
X70060Y-29755D01*
X70217Y-29633D01*
X70315Y-29461D01*
X70328Y-29409D01*
X70328Y-37354D01*
X70306Y-37354D01*
X70306Y-32393D01*
X70306Y-32209D01*
X70306Y-31393D01*
X70306Y-31209D01*
X70306Y-30393D01*
X70306Y-30209D01*
X70236Y-30039D01*
X70106Y-29909D01*
X69937Y-29838D01*
X69753Y-29838D01*
X69670Y-29838D01*
X69670Y-29807D01*
X69670Y-29330D01*
X69670Y-29270D01*
X69670Y-28793D01*
X69545Y-28793D01*
X69545Y-27769D01*
X69545Y-27632D01*
X69493Y-27505D01*
X69396Y-27408D01*
X69269Y-27355D01*
X69132Y-27355D01*
X69005Y-27407D01*
X68932Y-27480D01*
X67782Y-27480D01*
X67782Y-19325D01*
X67500Y-19042D01*
X67458Y-19084D01*
X67458Y-19000D01*
X67175Y-18718D01*
X67093Y-18742D01*
X67026Y-18917D01*
X67030Y-19105D01*
X67093Y-19258D01*
X67175Y-19282D01*
X67458Y-19000D01*
X67458Y-19084D01*
X67218Y-19325D01*
X67242Y-19407D01*
X67417Y-19474D01*
X67605Y-19470D01*
X67758Y-19407D01*
X67782Y-19325D01*
X67782Y-27480D01*
X67668Y-27480D01*
X67628Y-27440D01*
X67628Y-25109D01*
X67628Y-24891D01*
X67615Y-24839D01*
X67606Y-24823D01*
X67606Y-24093D01*
X67606Y-23909D01*
X67536Y-23739D01*
X67406Y-23609D01*
X67237Y-23538D01*
X67053Y-23538D01*
X66946Y-23538D01*
X66946Y-19309D01*
X66946Y-19241D01*
X66946Y-18691D01*
X66920Y-18628D01*
X66872Y-18580D01*
X66809Y-18554D01*
X66741Y-18554D01*
X66191Y-18554D01*
X66128Y-18580D01*
X66080Y-18628D01*
X66054Y-18691D01*
X66054Y-18759D01*
X66054Y-19309D01*
X66080Y-19372D01*
X66128Y-19420D01*
X66191Y-19446D01*
X66259Y-19446D01*
X66809Y-19446D01*
X66872Y-19420D01*
X66920Y-19372D01*
X66946Y-19309D01*
X66946Y-23538D01*
X66765Y-23538D01*
X66595Y-23608D01*
X66465Y-23738D01*
X66394Y-23907D01*
X66394Y-24091D01*
X66464Y-24261D01*
X66594Y-24391D01*
X66763Y-24462D01*
X66947Y-24462D01*
X67235Y-24462D01*
X67405Y-24392D01*
X67535Y-24262D01*
X67606Y-24093D01*
X67606Y-24823D01*
X67517Y-24667D01*
X67360Y-24545D01*
X67169Y-24493D01*
X67030Y-24493D01*
X67030Y-24970D01*
X67588Y-24970D01*
X67628Y-24891D01*
X67628Y-25109D01*
X67588Y-25030D01*
X67030Y-25030D01*
X67030Y-25507D01*
X67169Y-25507D01*
X67360Y-25455D01*
X67517Y-25333D01*
X67615Y-25161D01*
X67628Y-25109D01*
X67628Y-27440D01*
X67604Y-27416D01*
X67604Y-26334D01*
X67604Y-26266D01*
X67604Y-25666D01*
X67578Y-25603D01*
X67530Y-25555D01*
X67467Y-25529D01*
X67399Y-25529D01*
X66970Y-25529D01*
X66970Y-25507D01*
X66970Y-25030D01*
X66970Y-24970D01*
X66970Y-24493D01*
X66831Y-24493D01*
X66640Y-24545D01*
X66483Y-24667D01*
X66385Y-24839D01*
X66372Y-24891D01*
X66412Y-24970D01*
X66970Y-24970D01*
X66970Y-25030D01*
X66412Y-25030D01*
X66372Y-25109D01*
X66385Y-25161D01*
X66483Y-25333D01*
X66640Y-25455D01*
X66831Y-25507D01*
X66970Y-25507D01*
X66970Y-25529D01*
X66533Y-25529D01*
X66470Y-25555D01*
X66422Y-25603D01*
X66396Y-25666D01*
X66396Y-25734D01*
X66396Y-26334D01*
X66422Y-26397D01*
X66470Y-26445D01*
X66533Y-26471D01*
X66601Y-26471D01*
X67467Y-26471D01*
X67530Y-26445D01*
X67578Y-26397D01*
X67604Y-26334D01*
X67604Y-27416D01*
X67596Y-27408D01*
X67469Y-27355D01*
X67332Y-27355D01*
X67205Y-27407D01*
X67108Y-27504D01*
X67055Y-27631D01*
X67055Y-27768D01*
X67107Y-27895D01*
X67204Y-27992D01*
X67331Y-28045D01*
X67468Y-28045D01*
X67595Y-27993D01*
X67668Y-27920D01*
X68932Y-27920D01*
X69004Y-27992D01*
X69131Y-28045D01*
X69268Y-28045D01*
X69395Y-27993D01*
X69492Y-27896D01*
X69545Y-27769D01*
X69545Y-28793D01*
X69531Y-28793D01*
X69340Y-28845D01*
X69183Y-28967D01*
X69085Y-29139D01*
X69072Y-29191D01*
X69112Y-29270D01*
X69670Y-29270D01*
X69670Y-29330D01*
X69112Y-29330D01*
X69072Y-29409D01*
X69085Y-29461D01*
X69183Y-29633D01*
X69340Y-29755D01*
X69531Y-29807D01*
X69670Y-29807D01*
X69670Y-29838D01*
X69465Y-29838D01*
X69295Y-29908D01*
X69165Y-30038D01*
X69147Y-30080D01*
X67591Y-30080D01*
X66556Y-29044D01*
X66484Y-28997D01*
X66400Y-28979D01*
X66395Y-28980D01*
X65568Y-28980D01*
X65496Y-28908D01*
X65369Y-28855D01*
X65232Y-28855D01*
X65105Y-28907D01*
X65008Y-29004D01*
X64955Y-29131D01*
X64955Y-29268D01*
X65007Y-29395D01*
X65104Y-29492D01*
X65231Y-29545D01*
X65368Y-29545D01*
X65495Y-29493D01*
X65568Y-29420D01*
X66308Y-29420D01*
X67342Y-30453D01*
X67344Y-30456D01*
X67415Y-30502D01*
X67416Y-30503D01*
X67500Y-30520D01*
X69147Y-30520D01*
X69164Y-30561D01*
X69294Y-30691D01*
X69463Y-30762D01*
X69647Y-30762D01*
X69935Y-30762D01*
X70105Y-30692D01*
X70235Y-30562D01*
X70306Y-30393D01*
X70306Y-31209D01*
X70236Y-31039D01*
X70106Y-30909D01*
X69937Y-30838D01*
X69753Y-30838D01*
X69465Y-30838D01*
X69295Y-30908D01*
X69165Y-31038D01*
X69094Y-31207D01*
X69094Y-31391D01*
X69164Y-31561D01*
X69294Y-31691D01*
X69463Y-31762D01*
X69647Y-31762D01*
X69935Y-31762D01*
X70105Y-31692D01*
X70235Y-31562D01*
X70306Y-31393D01*
X70306Y-32209D01*
X70236Y-32039D01*
X70106Y-31909D01*
X69937Y-31838D01*
X69753Y-31838D01*
X69465Y-31838D01*
X69295Y-31908D01*
X69165Y-32038D01*
X69094Y-32207D01*
X69094Y-32391D01*
X69164Y-32561D01*
X69294Y-32691D01*
X69463Y-32762D01*
X69647Y-32762D01*
X69935Y-32762D01*
X70105Y-32692D01*
X70235Y-32562D01*
X70306Y-32393D01*
X70306Y-37354D01*
X70304Y-37354D01*
X70304Y-33634D01*
X70304Y-33566D01*
X70304Y-32966D01*
X70278Y-32903D01*
X70230Y-32855D01*
X70167Y-32829D01*
X70099Y-32829D01*
X69233Y-32829D01*
X69170Y-32855D01*
X69122Y-32903D01*
X69096Y-32966D01*
X69096Y-33034D01*
X69096Y-33634D01*
X69122Y-33697D01*
X69170Y-33745D01*
X69233Y-33771D01*
X69301Y-33771D01*
X70167Y-33771D01*
X70230Y-33745D01*
X70278Y-33697D01*
X70304Y-33634D01*
X70304Y-37354D01*
X67545Y-37354D01*
X67545Y-33969D01*
X67545Y-33832D01*
X67493Y-33705D01*
X67396Y-33608D01*
X67269Y-33555D01*
X67132Y-33555D01*
X67005Y-33607D01*
X66950Y-33662D01*
X66896Y-33608D01*
X66769Y-33555D01*
X66632Y-33555D01*
X66505Y-33607D01*
X66432Y-33680D01*
X65020Y-33680D01*
X65020Y-32300D01*
X65003Y-32216D01*
X64956Y-32144D01*
X64953Y-32142D01*
X64720Y-31908D01*
X64720Y-30000D01*
X64703Y-29916D01*
X64702Y-29915D01*
X64656Y-29844D01*
X64653Y-29842D01*
X64445Y-29633D01*
X64445Y-29532D01*
X64393Y-29405D01*
X64296Y-29308D01*
X64169Y-29255D01*
X64032Y-29255D01*
X63905Y-29307D01*
X63808Y-29404D01*
X63755Y-29531D01*
X63755Y-29668D01*
X63807Y-29795D01*
X63904Y-29892D01*
X64031Y-29945D01*
X64133Y-29945D01*
X64280Y-30091D01*
X64280Y-30443D01*
X63742Y-29905D01*
X63740Y-29903D01*
X63735Y-29894D01*
X63732Y-29892D01*
X63549Y-29708D01*
X63549Y-29166D01*
X63732Y-28982D01*
X63734Y-28981D01*
X63735Y-28981D01*
X65107Y-27607D01*
X65109Y-27606D01*
X65110Y-27606D01*
X65138Y-27563D01*
X65157Y-27535D01*
X65157Y-27534D01*
X65174Y-27450D01*
X65174Y-26679D01*
X65173Y-26678D01*
X65174Y-26678D01*
X65170Y-26661D01*
X65157Y-26595D01*
X65156Y-26594D01*
X65110Y-26523D01*
X65107Y-26521D01*
X64824Y-26237D01*
X64824Y-26158D01*
X64824Y-26154D01*
X64825Y-26154D01*
X64807Y-26070D01*
X64760Y-25998D01*
X64049Y-25287D01*
X64049Y-23412D01*
X64216Y-23245D01*
X66120Y-23245D01*
X66125Y-23246D01*
X66125Y-23245D01*
X66209Y-23228D01*
X66281Y-23181D01*
X66566Y-22895D01*
X66668Y-22895D01*
X66795Y-22843D01*
X66892Y-22746D01*
X66945Y-22619D01*
X66945Y-22482D01*
X66893Y-22355D01*
X66796Y-22258D01*
X66669Y-22205D01*
X66532Y-22205D01*
X66405Y-22257D01*
X66308Y-22354D01*
X66255Y-22481D01*
X66255Y-22583D01*
X66033Y-22805D01*
X65839Y-22805D01*
X65852Y-22785D01*
X65853Y-22784D01*
X65866Y-22718D01*
X65870Y-22701D01*
X65869Y-22700D01*
X65870Y-22700D01*
X65870Y-22268D01*
X65942Y-22196D01*
X65995Y-22069D01*
X65995Y-21932D01*
X65974Y-21880D01*
X65974Y-20083D01*
X65970Y-19895D01*
X65945Y-19834D01*
X65945Y-19089D01*
X65945Y-18912D01*
X65877Y-18748D01*
X65752Y-18623D01*
X65589Y-18555D01*
X65412Y-18555D01*
X65248Y-18623D01*
X65123Y-18748D01*
X65055Y-18911D01*
X65055Y-19088D01*
X65123Y-19252D01*
X65248Y-19377D01*
X65411Y-19445D01*
X65588Y-19445D01*
X65752Y-19377D01*
X65877Y-19252D01*
X65945Y-19089D01*
X65945Y-19834D01*
X65907Y-19742D01*
X65825Y-19718D01*
X65782Y-19760D01*
X65782Y-19675D01*
X65758Y-19593D01*
X65583Y-19526D01*
X65395Y-19530D01*
X65242Y-19593D01*
X65218Y-19675D01*
X65500Y-19958D01*
X65782Y-19675D01*
X65782Y-19760D01*
X65542Y-20000D01*
X65825Y-20282D01*
X65907Y-20258D01*
X65974Y-20083D01*
X65974Y-21880D01*
X65943Y-21805D01*
X65846Y-21708D01*
X65719Y-21655D01*
X65582Y-21655D01*
X65455Y-21707D01*
X65358Y-21804D01*
X65305Y-21931D01*
X65305Y-22068D01*
X65357Y-22195D01*
X65430Y-22268D01*
X65430Y-22605D01*
X64025Y-22605D01*
X63941Y-22622D01*
X63869Y-22669D01*
X63867Y-22671D01*
X63494Y-23044D01*
X63447Y-23116D01*
X63429Y-23200D01*
X63430Y-23204D01*
X63430Y-25470D01*
X63429Y-25475D01*
X63447Y-25559D01*
X63494Y-25631D01*
X64205Y-26342D01*
X64205Y-26520D01*
X64204Y-26525D01*
X64222Y-26609D01*
X64269Y-26681D01*
X64555Y-26966D01*
X64555Y-27258D01*
X63244Y-28569D01*
X63242Y-28571D01*
X62994Y-28819D01*
X62947Y-28891D01*
X62929Y-28975D01*
X62930Y-28979D01*
X62930Y-29895D01*
X62929Y-29900D01*
X62947Y-29984D01*
X62994Y-30056D01*
X63242Y-30303D01*
X63244Y-30306D01*
X63680Y-30741D01*
X63680Y-30782D01*
X63608Y-30854D01*
X63555Y-30981D01*
X63555Y-31118D01*
X63607Y-31245D01*
X63704Y-31342D01*
X63831Y-31395D01*
X63968Y-31395D01*
X64055Y-31359D01*
X64055Y-32167D01*
X63996Y-32108D01*
X63869Y-32055D01*
X63732Y-32055D01*
X63605Y-32107D01*
X63532Y-32180D01*
X63399Y-32180D01*
X63399Y-31125D01*
X63382Y-31041D01*
X63335Y-30969D01*
X63332Y-30967D01*
X62960Y-30594D01*
X62888Y-30547D01*
X62804Y-30529D01*
X62799Y-30530D01*
X62595Y-30530D01*
X62499Y-30433D01*
X62499Y-29654D01*
X62482Y-29570D01*
X62435Y-29498D01*
X62432Y-29496D01*
X61881Y-28944D01*
X61809Y-28897D01*
X61725Y-28879D01*
X61720Y-28880D01*
X61329Y-28880D01*
X61325Y-28879D01*
X61241Y-28897D01*
X61169Y-28944D01*
X61167Y-28946D01*
X60762Y-29351D01*
X59959Y-28547D01*
X59953Y-28516D01*
X59905Y-28444D01*
X59869Y-28407D01*
X59866Y-28405D01*
X59120Y-27658D01*
X59120Y-23791D01*
X59241Y-23670D01*
X60145Y-23670D01*
X60150Y-23671D01*
X60150Y-23670D01*
X60234Y-23653D01*
X60306Y-23606D01*
X61092Y-22820D01*
X62395Y-22820D01*
X62400Y-22821D01*
X62400Y-22820D01*
X62484Y-22803D01*
X62556Y-22756D01*
X62891Y-22420D01*
X63095Y-22420D01*
X63100Y-22421D01*
X63100Y-22420D01*
X63184Y-22403D01*
X63256Y-22356D01*
X63491Y-22120D01*
X63895Y-22120D01*
X63900Y-22121D01*
X63900Y-22120D01*
X63984Y-22103D01*
X64056Y-22056D01*
X64291Y-21820D01*
X64745Y-21820D01*
X64750Y-21821D01*
X64750Y-21820D01*
X64834Y-21803D01*
X64906Y-21756D01*
X65273Y-21387D01*
X65411Y-21445D01*
X65588Y-21445D01*
X65752Y-21377D01*
X65877Y-21252D01*
X65945Y-21089D01*
X65945Y-20912D01*
X65877Y-20748D01*
X65782Y-20653D01*
X65782Y-20325D01*
X65500Y-20042D01*
X65458Y-20084D01*
X65458Y-20000D01*
X65175Y-19718D01*
X65093Y-19742D01*
X65026Y-19917D01*
X65030Y-20105D01*
X65093Y-20258D01*
X65175Y-20282D01*
X65458Y-20000D01*
X65458Y-20084D01*
X65218Y-20325D01*
X65242Y-20407D01*
X65417Y-20474D01*
X65605Y-20470D01*
X65758Y-20407D01*
X65782Y-20325D01*
X65782Y-20653D01*
X65752Y-20623D01*
X65589Y-20555D01*
X65412Y-20555D01*
X65248Y-20623D01*
X65123Y-20748D01*
X65055Y-20911D01*
X65055Y-20983D01*
X64974Y-21063D01*
X64974Y-20083D01*
X64970Y-19895D01*
X64945Y-19834D01*
X64945Y-19089D01*
X64945Y-18912D01*
X64877Y-18748D01*
X64752Y-18623D01*
X64589Y-18555D01*
X64412Y-18555D01*
X64248Y-18623D01*
X64123Y-18748D01*
X64055Y-18911D01*
X64055Y-19088D01*
X64123Y-19252D01*
X64248Y-19377D01*
X64411Y-19445D01*
X64588Y-19445D01*
X64752Y-19377D01*
X64877Y-19252D01*
X64945Y-19089D01*
X64945Y-19834D01*
X64907Y-19742D01*
X64825Y-19718D01*
X64782Y-19760D01*
X64782Y-19675D01*
X64758Y-19593D01*
X64583Y-19526D01*
X64395Y-19530D01*
X64242Y-19593D01*
X64218Y-19675D01*
X64500Y-19958D01*
X64782Y-19675D01*
X64782Y-19760D01*
X64542Y-20000D01*
X64825Y-20282D01*
X64907Y-20258D01*
X64974Y-20083D01*
X64974Y-21063D01*
X64941Y-21096D01*
X64945Y-21089D01*
X64945Y-20912D01*
X64877Y-20748D01*
X64782Y-20653D01*
X64782Y-20325D01*
X64500Y-20042D01*
X64458Y-20084D01*
X64458Y-20000D01*
X64175Y-19718D01*
X64093Y-19742D01*
X64026Y-19917D01*
X64030Y-20105D01*
X64093Y-20258D01*
X64175Y-20282D01*
X64458Y-20000D01*
X64458Y-20084D01*
X64218Y-20325D01*
X64242Y-20407D01*
X64417Y-20474D01*
X64605Y-20470D01*
X64758Y-20407D01*
X64782Y-20325D01*
X64782Y-20653D01*
X64752Y-20623D01*
X64589Y-20555D01*
X64412Y-20555D01*
X64248Y-20623D01*
X64123Y-20748D01*
X64055Y-20911D01*
X64055Y-21033D01*
X63974Y-21114D01*
X63974Y-20083D01*
X63970Y-19895D01*
X63945Y-19834D01*
X63945Y-19089D01*
X63945Y-18912D01*
X63877Y-18748D01*
X63752Y-18623D01*
X63589Y-18555D01*
X63412Y-18555D01*
X63248Y-18623D01*
X63123Y-18748D01*
X63055Y-18911D01*
X63055Y-19088D01*
X63123Y-19252D01*
X63248Y-19377D01*
X63411Y-19445D01*
X63588Y-19445D01*
X63752Y-19377D01*
X63877Y-19252D01*
X63945Y-19089D01*
X63945Y-19834D01*
X63907Y-19742D01*
X63825Y-19718D01*
X63782Y-19760D01*
X63782Y-19675D01*
X63758Y-19593D01*
X63583Y-19526D01*
X63395Y-19530D01*
X63242Y-19593D01*
X63218Y-19675D01*
X63500Y-19958D01*
X63782Y-19675D01*
X63782Y-19760D01*
X63542Y-20000D01*
X63825Y-20282D01*
X63907Y-20258D01*
X63974Y-20083D01*
X63974Y-21114D01*
X63906Y-21182D01*
X63945Y-21089D01*
X63945Y-20912D01*
X63877Y-20748D01*
X63782Y-20653D01*
X63782Y-20325D01*
X63500Y-20042D01*
X63458Y-20084D01*
X63458Y-20000D01*
X63175Y-19718D01*
X63093Y-19742D01*
X63026Y-19917D01*
X63030Y-20105D01*
X63093Y-20258D01*
X63175Y-20282D01*
X63458Y-20000D01*
X63458Y-20084D01*
X63218Y-20325D01*
X63242Y-20407D01*
X63417Y-20474D01*
X63605Y-20470D01*
X63758Y-20407D01*
X63782Y-20325D01*
X63782Y-20653D01*
X63752Y-20623D01*
X63589Y-20555D01*
X63412Y-20555D01*
X63248Y-20623D01*
X63123Y-20748D01*
X63055Y-20911D01*
X63055Y-21088D01*
X63068Y-21120D01*
X62974Y-21214D01*
X62974Y-20083D01*
X62970Y-19895D01*
X62945Y-19834D01*
X62945Y-19089D01*
X62945Y-18912D01*
X62877Y-18748D01*
X62752Y-18623D01*
X62589Y-18555D01*
X62412Y-18555D01*
X62248Y-18623D01*
X62123Y-18748D01*
X62055Y-18911D01*
X62055Y-19088D01*
X62123Y-19252D01*
X62248Y-19377D01*
X62411Y-19445D01*
X62588Y-19445D01*
X62752Y-19377D01*
X62877Y-19252D01*
X62945Y-19089D01*
X62945Y-19834D01*
X62907Y-19742D01*
X62825Y-19718D01*
X62782Y-19760D01*
X62782Y-19675D01*
X62758Y-19593D01*
X62583Y-19526D01*
X62395Y-19530D01*
X62242Y-19593D01*
X62218Y-19675D01*
X62500Y-19958D01*
X62782Y-19675D01*
X62782Y-19760D01*
X62542Y-20000D01*
X62825Y-20282D01*
X62907Y-20258D01*
X62974Y-20083D01*
X62974Y-21214D01*
X62808Y-21380D01*
X62744Y-21380D01*
X62752Y-21377D01*
X62877Y-21252D01*
X62945Y-21089D01*
X62945Y-20912D01*
X62877Y-20748D01*
X62782Y-20653D01*
X62782Y-20325D01*
X62500Y-20042D01*
X62458Y-20084D01*
X62458Y-20000D01*
X62175Y-19718D01*
X62093Y-19742D01*
X62026Y-19917D01*
X62030Y-20105D01*
X62093Y-20258D01*
X62175Y-20282D01*
X62458Y-20000D01*
X62458Y-20084D01*
X62218Y-20325D01*
X62242Y-20407D01*
X62417Y-20474D01*
X62605Y-20470D01*
X62758Y-20407D01*
X62782Y-20325D01*
X62782Y-20653D01*
X62752Y-20623D01*
X62589Y-20555D01*
X62412Y-20555D01*
X62248Y-20623D01*
X62123Y-20748D01*
X62055Y-20911D01*
X62055Y-21088D01*
X62068Y-21120D01*
X61974Y-21214D01*
X61974Y-20083D01*
X61970Y-19895D01*
X61945Y-19834D01*
X61945Y-19089D01*
X61945Y-18912D01*
X61877Y-18748D01*
X61752Y-18623D01*
X61589Y-18555D01*
X61412Y-18555D01*
X61248Y-18623D01*
X61123Y-18748D01*
X61055Y-18911D01*
X61055Y-19088D01*
X61123Y-19252D01*
X61248Y-19377D01*
X61411Y-19445D01*
X61588Y-19445D01*
X61752Y-19377D01*
X61877Y-19252D01*
X61945Y-19089D01*
X61945Y-19834D01*
X61907Y-19742D01*
X61825Y-19718D01*
X61782Y-19760D01*
X61782Y-19675D01*
X61758Y-19593D01*
X61583Y-19526D01*
X61395Y-19530D01*
X61242Y-19593D01*
X61218Y-19675D01*
X61500Y-19958D01*
X61782Y-19675D01*
X61782Y-19760D01*
X61542Y-20000D01*
X61825Y-20282D01*
X61907Y-20258D01*
X61974Y-20083D01*
X61974Y-21214D01*
X61608Y-21580D01*
X61231Y-21580D01*
X61379Y-21431D01*
X61411Y-21445D01*
X61588Y-21445D01*
X61752Y-21377D01*
X61877Y-21252D01*
X61945Y-21089D01*
X61945Y-20912D01*
X61877Y-20748D01*
X61782Y-20653D01*
X61782Y-20325D01*
X61500Y-20042D01*
X61458Y-20084D01*
X61458Y-20000D01*
X61175Y-19718D01*
X61093Y-19742D01*
X61026Y-19917D01*
X61030Y-20105D01*
X61093Y-20258D01*
X61175Y-20282D01*
X61458Y-20000D01*
X61458Y-20084D01*
X61218Y-20325D01*
X61242Y-20407D01*
X61417Y-20474D01*
X61605Y-20470D01*
X61758Y-20407D01*
X61782Y-20325D01*
X61782Y-20653D01*
X61752Y-20623D01*
X61589Y-20555D01*
X61412Y-20555D01*
X61248Y-20623D01*
X61123Y-20748D01*
X61055Y-20911D01*
X61055Y-21088D01*
X61068Y-21120D01*
X60974Y-21214D01*
X60974Y-20083D01*
X60970Y-19895D01*
X60945Y-19834D01*
X60945Y-19089D01*
X60945Y-18912D01*
X60877Y-18748D01*
X60752Y-18623D01*
X60589Y-18555D01*
X60412Y-18555D01*
X60248Y-18623D01*
X60123Y-18748D01*
X60055Y-18911D01*
X60055Y-19088D01*
X60123Y-19252D01*
X60248Y-19377D01*
X60411Y-19445D01*
X60588Y-19445D01*
X60752Y-19377D01*
X60877Y-19252D01*
X60945Y-19089D01*
X60945Y-19834D01*
X60907Y-19742D01*
X60825Y-19718D01*
X60782Y-19760D01*
X60782Y-19675D01*
X60758Y-19593D01*
X60583Y-19526D01*
X60395Y-19530D01*
X60242Y-19593D01*
X60218Y-19675D01*
X60500Y-19958D01*
X60782Y-19675D01*
X60782Y-19760D01*
X60542Y-20000D01*
X60825Y-20282D01*
X60907Y-20258D01*
X60974Y-20083D01*
X60974Y-21214D01*
X60808Y-21380D01*
X60744Y-21380D01*
X60752Y-21377D01*
X60877Y-21252D01*
X60945Y-21089D01*
X60945Y-20912D01*
X60877Y-20748D01*
X60782Y-20653D01*
X60782Y-20325D01*
X60500Y-20042D01*
X60458Y-20084D01*
X60458Y-20000D01*
X60175Y-19718D01*
X60093Y-19742D01*
X60026Y-19917D01*
X60030Y-20105D01*
X60093Y-20258D01*
X60175Y-20282D01*
X60458Y-20000D01*
X60458Y-20084D01*
X60218Y-20325D01*
X60242Y-20407D01*
X60417Y-20474D01*
X60605Y-20470D01*
X60758Y-20407D01*
X60782Y-20325D01*
X60782Y-20653D01*
X60752Y-20623D01*
X60589Y-20555D01*
X60412Y-20555D01*
X60248Y-20623D01*
X60123Y-20748D01*
X60055Y-20911D01*
X60055Y-21019D01*
X59974Y-21099D01*
X59974Y-20083D01*
X59970Y-19895D01*
X59945Y-19834D01*
X59945Y-19089D01*
X59945Y-18912D01*
X59877Y-18748D01*
X59752Y-18623D01*
X59589Y-18555D01*
X59412Y-18555D01*
X59248Y-18623D01*
X59123Y-18748D01*
X59055Y-18911D01*
X59055Y-19088D01*
X59123Y-19252D01*
X59248Y-19377D01*
X59411Y-19445D01*
X59588Y-19445D01*
X59752Y-19377D01*
X59877Y-19252D01*
X59945Y-19089D01*
X59945Y-19834D01*
X59907Y-19742D01*
X59825Y-19718D01*
X59782Y-19760D01*
X59782Y-19675D01*
X59758Y-19593D01*
X59583Y-19526D01*
X59395Y-19530D01*
X59242Y-19593D01*
X59218Y-19675D01*
X59500Y-19958D01*
X59782Y-19675D01*
X59782Y-19760D01*
X59542Y-20000D01*
X59825Y-20282D01*
X59907Y-20258D01*
X59974Y-20083D01*
X59974Y-21099D01*
X59915Y-21158D01*
X59945Y-21089D01*
X59945Y-20912D01*
X59877Y-20748D01*
X59782Y-20653D01*
X59782Y-20325D01*
X59500Y-20042D01*
X59458Y-20084D01*
X59458Y-20000D01*
X59175Y-19718D01*
X59093Y-19742D01*
X59026Y-19917D01*
X59030Y-20105D01*
X59093Y-20258D01*
X59175Y-20282D01*
X59458Y-20000D01*
X59458Y-20084D01*
X59218Y-20325D01*
X59242Y-20407D01*
X59417Y-20474D01*
X59605Y-20470D01*
X59758Y-20407D01*
X59782Y-20325D01*
X59782Y-20653D01*
X59752Y-20623D01*
X59589Y-20555D01*
X59412Y-20555D01*
X59248Y-20623D01*
X59123Y-20748D01*
X59055Y-20911D01*
X59055Y-21088D01*
X59064Y-21110D01*
X58974Y-21200D01*
X58974Y-20083D01*
X58970Y-19895D01*
X58945Y-19834D01*
X58945Y-19089D01*
X58945Y-18912D01*
X58877Y-18748D01*
X58752Y-18623D01*
X58589Y-18555D01*
X58412Y-18555D01*
X58248Y-18623D01*
X58123Y-18748D01*
X58055Y-18911D01*
X58055Y-19088D01*
X58123Y-19252D01*
X58248Y-19377D01*
X58411Y-19445D01*
X58588Y-19445D01*
X58752Y-19377D01*
X58877Y-19252D01*
X58945Y-19089D01*
X58945Y-19834D01*
X58907Y-19742D01*
X58825Y-19718D01*
X58782Y-19760D01*
X58782Y-19675D01*
X58758Y-19593D01*
X58583Y-19526D01*
X58395Y-19530D01*
X58242Y-19593D01*
X58218Y-19675D01*
X58500Y-19958D01*
X58782Y-19675D01*
X58782Y-19760D01*
X58542Y-20000D01*
X58825Y-20282D01*
X58907Y-20258D01*
X58974Y-20083D01*
X58974Y-21200D01*
X58804Y-21370D01*
X58759Y-21370D01*
X58877Y-21252D01*
X58945Y-21089D01*
X58945Y-20912D01*
X58877Y-20748D01*
X58782Y-20653D01*
X58782Y-20325D01*
X58500Y-20042D01*
X58458Y-20084D01*
X58458Y-20000D01*
X58175Y-19718D01*
X58093Y-19742D01*
X58026Y-19917D01*
X58030Y-20105D01*
X58093Y-20258D01*
X58175Y-20282D01*
X58458Y-20000D01*
X58458Y-20084D01*
X58218Y-20325D01*
X58242Y-20407D01*
X58417Y-20474D01*
X58605Y-20470D01*
X58758Y-20407D01*
X58782Y-20325D01*
X58782Y-20653D01*
X58752Y-20623D01*
X58589Y-20555D01*
X58412Y-20555D01*
X58248Y-20623D01*
X58123Y-20748D01*
X58055Y-20911D01*
X58055Y-20919D01*
X57974Y-21000D01*
X57974Y-20083D01*
X57970Y-19895D01*
X57945Y-19834D01*
X57945Y-19089D01*
X57945Y-18912D01*
X57877Y-18748D01*
X57752Y-18623D01*
X57589Y-18555D01*
X57412Y-18555D01*
X57248Y-18623D01*
X57123Y-18748D01*
X57055Y-18911D01*
X57055Y-19088D01*
X57123Y-19252D01*
X57248Y-19377D01*
X57411Y-19445D01*
X57588Y-19445D01*
X57752Y-19377D01*
X57877Y-19252D01*
X57945Y-19089D01*
X57945Y-19834D01*
X57907Y-19742D01*
X57825Y-19718D01*
X57782Y-19760D01*
X57782Y-19675D01*
X57758Y-19593D01*
X57583Y-19526D01*
X57395Y-19530D01*
X57242Y-19593D01*
X57218Y-19675D01*
X57500Y-19958D01*
X57782Y-19675D01*
X57782Y-19760D01*
X57542Y-20000D01*
X57825Y-20282D01*
X57907Y-20258D01*
X57974Y-20083D01*
X57974Y-21000D01*
X57945Y-21029D01*
X57945Y-20912D01*
X57877Y-20748D01*
X57782Y-20653D01*
X57782Y-20325D01*
X57500Y-20042D01*
X57458Y-20084D01*
X57458Y-20000D01*
X57175Y-19718D01*
X57093Y-19742D01*
X57026Y-19917D01*
X57030Y-20105D01*
X57093Y-20258D01*
X57175Y-20282D01*
X57458Y-20000D01*
X57458Y-20084D01*
X57218Y-20325D01*
X57242Y-20407D01*
X57417Y-20474D01*
X57605Y-20470D01*
X57758Y-20407D01*
X57782Y-20325D01*
X57782Y-20653D01*
X57752Y-20623D01*
X57589Y-20555D01*
X57412Y-20555D01*
X57248Y-20623D01*
X57123Y-20748D01*
X57055Y-20911D01*
X57055Y-21088D01*
X57063Y-21109D01*
X56982Y-21190D01*
X56982Y-20316D01*
X56982Y-20234D01*
X56982Y-20081D01*
X56982Y-19919D01*
X56982Y-19766D01*
X56982Y-19684D01*
X56950Y-19608D01*
X56946Y-19603D01*
X56946Y-19309D01*
X56946Y-19241D01*
X56946Y-18691D01*
X56920Y-18628D01*
X56872Y-18580D01*
X56809Y-18554D01*
X56741Y-18554D01*
X56191Y-18554D01*
X56128Y-18580D01*
X56080Y-18628D01*
X56054Y-18691D01*
X56054Y-18759D01*
X56054Y-19309D01*
X56080Y-19372D01*
X56128Y-19420D01*
X56191Y-19446D01*
X56259Y-19446D01*
X56809Y-19446D01*
X56872Y-19420D01*
X56920Y-19372D01*
X56946Y-19309D01*
X56946Y-19603D01*
X56892Y-19549D01*
X56816Y-19518D01*
X56581Y-19518D01*
X56530Y-19569D01*
X56530Y-19970D01*
X56931Y-19970D01*
X56982Y-19919D01*
X56982Y-20081D01*
X56931Y-20030D01*
X56530Y-20030D01*
X56530Y-20431D01*
X56581Y-20482D01*
X56816Y-20482D01*
X56892Y-20451D01*
X56950Y-20392D01*
X56982Y-20316D01*
X56982Y-21190D01*
X56946Y-21227D01*
X56946Y-20691D01*
X56920Y-20628D01*
X56872Y-20580D01*
X56809Y-20554D01*
X56741Y-20554D01*
X56470Y-20554D01*
X56470Y-20431D01*
X56470Y-20030D01*
X56470Y-19970D01*
X56470Y-19569D01*
X56419Y-19518D01*
X56184Y-19518D01*
X56108Y-19549D01*
X56050Y-19608D01*
X56018Y-19684D01*
X56018Y-19766D01*
X56018Y-19919D01*
X56069Y-19970D01*
X56470Y-19970D01*
X56470Y-20030D01*
X56069Y-20030D01*
X56018Y-20081D01*
X56018Y-20234D01*
X56018Y-20316D01*
X56050Y-20392D01*
X56108Y-20451D01*
X56184Y-20482D01*
X56419Y-20482D01*
X56470Y-20431D01*
X56470Y-20554D01*
X56191Y-20554D01*
X56128Y-20580D01*
X56080Y-20628D01*
X56054Y-20691D01*
X56054Y-20759D01*
X56054Y-21309D01*
X56080Y-21372D01*
X56128Y-21420D01*
X56191Y-21446D01*
X56259Y-21446D01*
X56270Y-21446D01*
X56270Y-29495D01*
X56269Y-29500D01*
X56288Y-29588D01*
X56337Y-29663D01*
X58470Y-31795D01*
X58470Y-34300D01*
X58488Y-34388D01*
X58537Y-34463D01*
X58612Y-34512D01*
X58700Y-34530D01*
X59842Y-34530D01*
X59904Y-34592D01*
X60031Y-34645D01*
X60168Y-34645D01*
X60295Y-34593D01*
X60392Y-34496D01*
X60415Y-34440D01*
X60835Y-34860D01*
X60837Y-34863D01*
X60912Y-34912D01*
X61000Y-34930D01*
X64942Y-34930D01*
X65004Y-34992D01*
X65131Y-35045D01*
X65268Y-35045D01*
X65395Y-34993D01*
X65492Y-34896D01*
X65545Y-34769D01*
X65545Y-34632D01*
X65493Y-34505D01*
X65396Y-34408D01*
X65269Y-34355D01*
X65132Y-34355D01*
X65005Y-34407D01*
X64942Y-34470D01*
X61095Y-34470D01*
X60363Y-33737D01*
X60288Y-33688D01*
X60200Y-33669D01*
X60195Y-33670D01*
X59195Y-33670D01*
X59130Y-33604D01*
X59130Y-31744D01*
X59131Y-31745D01*
X59268Y-31745D01*
X59395Y-31693D01*
X59492Y-31596D01*
X59492Y-31594D01*
X59537Y-31663D01*
X59555Y-31680D01*
X59555Y-31768D01*
X59607Y-31895D01*
X59704Y-31992D01*
X59831Y-32045D01*
X59968Y-32045D01*
X60095Y-31993D01*
X60192Y-31896D01*
X60215Y-31838D01*
X60231Y-31845D01*
X60368Y-31845D01*
X60495Y-31793D01*
X60592Y-31696D01*
X60645Y-31569D01*
X60645Y-31508D01*
X60700Y-31520D01*
X62332Y-31520D01*
X62404Y-31592D01*
X62531Y-31645D01*
X62668Y-31645D01*
X62780Y-31599D01*
X62780Y-32495D01*
X62779Y-32500D01*
X62794Y-32570D01*
X62705Y-32607D01*
X62608Y-32704D01*
X62555Y-32831D01*
X62555Y-32968D01*
X62607Y-33095D01*
X62704Y-33192D01*
X62831Y-33245D01*
X62933Y-33245D01*
X63142Y-33453D01*
X63144Y-33456D01*
X63215Y-33502D01*
X63216Y-33503D01*
X63300Y-33520D01*
X64308Y-33520D01*
X64380Y-33591D01*
X64380Y-34100D01*
X64397Y-34184D01*
X64444Y-34256D01*
X64516Y-34303D01*
X64600Y-34320D01*
X66308Y-34320D01*
X66442Y-34453D01*
X66444Y-34456D01*
X66515Y-34502D01*
X66516Y-34503D01*
X66582Y-34516D01*
X66599Y-34520D01*
X66599Y-34519D01*
X66600Y-34520D01*
X66795Y-34520D01*
X66800Y-34521D01*
X66800Y-34520D01*
X66884Y-34503D01*
X66956Y-34456D01*
X67166Y-34245D01*
X67268Y-34245D01*
X67395Y-34193D01*
X67492Y-34096D01*
X67545Y-33969D01*
X67545Y-37354D01*
X57945Y-37354D01*
X57945Y-31769D01*
X57945Y-31632D01*
X57893Y-31505D01*
X57796Y-31408D01*
X57669Y-31355D01*
X57532Y-31355D01*
X57405Y-31407D01*
X57308Y-31504D01*
X57255Y-31631D01*
X57255Y-31733D01*
X57144Y-31844D01*
X57097Y-31916D01*
X57079Y-32000D01*
X57080Y-32004D01*
X57080Y-32432D01*
X57008Y-32504D01*
X56955Y-32631D01*
X56955Y-32768D01*
X57007Y-32895D01*
X57104Y-32992D01*
X57231Y-33045D01*
X57368Y-33045D01*
X57495Y-32993D01*
X57592Y-32896D01*
X57645Y-32769D01*
X57645Y-32632D01*
X57593Y-32505D01*
X57520Y-32432D01*
X57520Y-32091D01*
X57566Y-32045D01*
X57668Y-32045D01*
X57795Y-31993D01*
X57892Y-31896D01*
X57945Y-31769D01*
X57945Y-37354D01*
X55628Y-37354D01*
X55628Y-25109D01*
X55628Y-24891D01*
X55615Y-24839D01*
X55604Y-24819D01*
X55604Y-24334D01*
X55604Y-24266D01*
X55604Y-23666D01*
X55578Y-23603D01*
X55530Y-23555D01*
X55467Y-23529D01*
X55399Y-23529D01*
X54533Y-23529D01*
X54470Y-23555D01*
X54422Y-23603D01*
X54396Y-23666D01*
X54396Y-23691D01*
X54250Y-23691D01*
X54132Y-23715D01*
X54098Y-23737D01*
X54031Y-23782D01*
X52982Y-24832D01*
X52915Y-24932D01*
X52891Y-25050D01*
X52891Y-25700D01*
X52891Y-28900D01*
X52915Y-29018D01*
X52965Y-29092D01*
X53007Y-29195D01*
X53104Y-29292D01*
X53231Y-29345D01*
X53368Y-29345D01*
X53495Y-29293D01*
X53592Y-29196D01*
X53645Y-29069D01*
X53645Y-28932D01*
X53593Y-28805D01*
X53509Y-28721D01*
X53509Y-25700D01*
X53509Y-25177D01*
X54377Y-24309D01*
X54396Y-24309D01*
X54396Y-24334D01*
X54422Y-24397D01*
X54470Y-24445D01*
X54533Y-24471D01*
X54601Y-24471D01*
X55467Y-24471D01*
X55530Y-24445D01*
X55578Y-24397D01*
X55604Y-24334D01*
X55604Y-24819D01*
X55517Y-24667D01*
X55360Y-24545D01*
X55169Y-24493D01*
X55030Y-24493D01*
X55030Y-24970D01*
X55588Y-24970D01*
X55628Y-24891D01*
X55628Y-25109D01*
X55588Y-25030D01*
X55030Y-25030D01*
X55030Y-25507D01*
X55169Y-25507D01*
X55360Y-25455D01*
X55517Y-25333D01*
X55615Y-25161D01*
X55628Y-25109D01*
X55628Y-37354D01*
X55606Y-37354D01*
X55606Y-26093D01*
X55606Y-25909D01*
X55536Y-25739D01*
X55406Y-25609D01*
X55237Y-25538D01*
X55053Y-25538D01*
X54970Y-25538D01*
X54970Y-25507D01*
X54970Y-25030D01*
X54970Y-24970D01*
X54970Y-24493D01*
X54831Y-24493D01*
X54640Y-24545D01*
X54483Y-24667D01*
X54385Y-24839D01*
X54372Y-24891D01*
X54412Y-24970D01*
X54970Y-24970D01*
X54970Y-25030D01*
X54412Y-25030D01*
X54372Y-25109D01*
X54385Y-25161D01*
X54483Y-25333D01*
X54640Y-25455D01*
X54831Y-25507D01*
X54970Y-25507D01*
X54970Y-25538D01*
X54765Y-25538D01*
X54595Y-25608D01*
X54465Y-25738D01*
X54394Y-25907D01*
X54394Y-26091D01*
X54464Y-26261D01*
X54594Y-26391D01*
X54763Y-26462D01*
X54947Y-26462D01*
X55235Y-26462D01*
X55405Y-26392D01*
X55535Y-26262D01*
X55606Y-26093D01*
X55606Y-37354D01*
X51446Y-37354D01*
X51446Y-18246D01*
X70554Y-18246D01*
X70554Y-37354D01*
X70554Y-37354D01*
G37*
G54D20*
X70554Y-37354D02*
X70445Y-37354D01*
X70445Y-27069D01*
X70445Y-26932D01*
X70393Y-26805D01*
X70296Y-26708D01*
X70169Y-26655D01*
X70032Y-26655D01*
X69905Y-26707D01*
X69832Y-26780D01*
X68945Y-26780D01*
X68945Y-19089D01*
X68945Y-18912D01*
X68877Y-18748D01*
X68752Y-18623D01*
X68589Y-18555D01*
X68412Y-18555D01*
X68248Y-18623D01*
X68123Y-18748D01*
X68055Y-18911D01*
X68055Y-19088D01*
X68123Y-19252D01*
X68248Y-19377D01*
X68411Y-19445D01*
X68588Y-19445D01*
X68752Y-19377D01*
X68877Y-19252D01*
X68945Y-19089D01*
X68945Y-26780D01*
X68468Y-26780D01*
X68396Y-26708D01*
X68269Y-26655D01*
X68132Y-26655D01*
X68005Y-26707D01*
X67974Y-26738D01*
X67974Y-19083D01*
X67970Y-18895D01*
X67907Y-18742D01*
X67825Y-18718D01*
X67782Y-18760D01*
X67782Y-18675D01*
X67758Y-18593D01*
X67583Y-18526D01*
X67395Y-18530D01*
X67242Y-18593D01*
X67218Y-18675D01*
X67500Y-18958D01*
X67782Y-18675D01*
X67782Y-18760D01*
X67542Y-19000D01*
X67825Y-19282D01*
X67907Y-19258D01*
X67974Y-19083D01*
X67974Y-26738D01*
X67908Y-26804D01*
X67855Y-26931D01*
X67855Y-27068D01*
X67907Y-27195D01*
X68004Y-27292D01*
X68131Y-27345D01*
X68268Y-27345D01*
X68395Y-27293D01*
X68468Y-27220D01*
X69832Y-27220D01*
X69904Y-27292D01*
X70031Y-27345D01*
X70168Y-27345D01*
X70295Y-27293D01*
X70392Y-27196D01*
X70445Y-27069D01*
X70445Y-37354D01*
X70328Y-37354D01*
X70328Y-29409D01*
X70328Y-29191D01*
X70315Y-29139D01*
X70217Y-28967D01*
X70060Y-28845D01*
X69869Y-28793D01*
X69730Y-28793D01*
X69730Y-29270D01*
X70288Y-29270D01*
X70328Y-29191D01*
X70328Y-29409D01*
X70288Y-29330D01*
X69730Y-29330D01*
X69730Y-29807D01*
X69869Y-29807D01*
X70060Y-29755D01*
X70217Y-29633D01*
X70315Y-29461D01*
X70328Y-29409D01*
X70328Y-37354D01*
X70306Y-37354D01*
X70306Y-32393D01*
X70306Y-32209D01*
X70306Y-31393D01*
X70306Y-31209D01*
X70306Y-30393D01*
X70306Y-30209D01*
X70236Y-30039D01*
X70106Y-29909D01*
X69937Y-29838D01*
X69753Y-29838D01*
X69670Y-29838D01*
X69670Y-29807D01*
X69670Y-29330D01*
X69670Y-29270D01*
X69670Y-28793D01*
X69545Y-28793D01*
X69545Y-27769D01*
X69545Y-27632D01*
X69493Y-27505D01*
X69396Y-27408D01*
X69269Y-27355D01*
X69132Y-27355D01*
X69005Y-27407D01*
X68932Y-27480D01*
X67782Y-27480D01*
X67782Y-19325D01*
X67500Y-19042D01*
X67458Y-19084D01*
X67458Y-19000D01*
X67175Y-18718D01*
X67093Y-18742D01*
X67026Y-18917D01*
X67030Y-19105D01*
X67093Y-19258D01*
X67175Y-19282D01*
X67458Y-19000D01*
X67458Y-19084D01*
X67218Y-19325D01*
X67242Y-19407D01*
X67417Y-19474D01*
X67605Y-19470D01*
X67758Y-19407D01*
X67782Y-19325D01*
X67782Y-27480D01*
X67668Y-27480D01*
X67628Y-27440D01*
X67628Y-25109D01*
X67628Y-24891D01*
X67615Y-24839D01*
X67606Y-24823D01*
X67606Y-24093D01*
X67606Y-23909D01*
X67536Y-23739D01*
X67406Y-23609D01*
X67237Y-23538D01*
X67053Y-23538D01*
X66946Y-23538D01*
X66946Y-19309D01*
X66946Y-19241D01*
X66946Y-18691D01*
X66920Y-18628D01*
X66872Y-18580D01*
X66809Y-18554D01*
X66741Y-18554D01*
X66191Y-18554D01*
X66128Y-18580D01*
X66080Y-18628D01*
X66054Y-18691D01*
X66054Y-18759D01*
X66054Y-19309D01*
X66080Y-19372D01*
X66128Y-19420D01*
X66191Y-19446D01*
X66259Y-19446D01*
X66809Y-19446D01*
X66872Y-19420D01*
X66920Y-19372D01*
X66946Y-19309D01*
X66946Y-23538D01*
X66765Y-23538D01*
X66595Y-23608D01*
X66465Y-23738D01*
X66394Y-23907D01*
X66394Y-24091D01*
X66464Y-24261D01*
X66594Y-24391D01*
X66763Y-24462D01*
X66947Y-24462D01*
X67235Y-24462D01*
X67405Y-24392D01*
X67535Y-24262D01*
X67606Y-24093D01*
X67606Y-24823D01*
X67517Y-24667D01*
X67360Y-24545D01*
X67169Y-24493D01*
X67030Y-24493D01*
X67030Y-24970D01*
X67588Y-24970D01*
X67628Y-24891D01*
X67628Y-25109D01*
X67588Y-25030D01*
X67030Y-25030D01*
X67030Y-25507D01*
X67169Y-25507D01*
X67360Y-25455D01*
X67517Y-25333D01*
X67615Y-25161D01*
X67628Y-25109D01*
X67628Y-27440D01*
X67604Y-27416D01*
X67604Y-26334D01*
X67604Y-26266D01*
X67604Y-25666D01*
X67578Y-25603D01*
X67530Y-25555D01*
X67467Y-25529D01*
X67399Y-25529D01*
X66970Y-25529D01*
X66970Y-25507D01*
X66970Y-25030D01*
X66970Y-24970D01*
X66970Y-24493D01*
X66831Y-24493D01*
X66640Y-24545D01*
X66483Y-24667D01*
X66385Y-24839D01*
X66372Y-24891D01*
X66412Y-24970D01*
X66970Y-24970D01*
X66970Y-25030D01*
X66412Y-25030D01*
X66372Y-25109D01*
X66385Y-25161D01*
X66483Y-25333D01*
X66640Y-25455D01*
X66831Y-25507D01*
X66970Y-25507D01*
X66970Y-25529D01*
X66533Y-25529D01*
X66470Y-25555D01*
X66422Y-25603D01*
X66396Y-25666D01*
X66396Y-25734D01*
X66396Y-26334D01*
X66422Y-26397D01*
X66470Y-26445D01*
X66533Y-26471D01*
X66601Y-26471D01*
X67467Y-26471D01*
X67530Y-26445D01*
X67578Y-26397D01*
X67604Y-26334D01*
X67604Y-27416D01*
X67596Y-27408D01*
X67469Y-27355D01*
X67332Y-27355D01*
X67205Y-27407D01*
X67108Y-27504D01*
X67055Y-27631D01*
X67055Y-27768D01*
X67107Y-27895D01*
X67204Y-27992D01*
X67331Y-28045D01*
X67468Y-28045D01*
X67595Y-27993D01*
X67668Y-27920D01*
X68932Y-27920D01*
X69004Y-27992D01*
X69131Y-28045D01*
X69268Y-28045D01*
X69395Y-27993D01*
X69492Y-27896D01*
X69545Y-27769D01*
X69545Y-28793D01*
X69531Y-28793D01*
X69340Y-28845D01*
X69183Y-28967D01*
X69085Y-29139D01*
X69072Y-29191D01*
X69112Y-29270D01*
X69670Y-29270D01*
X69670Y-29330D01*
X69112Y-29330D01*
X69072Y-29409D01*
X69085Y-29461D01*
X69183Y-29633D01*
X69340Y-29755D01*
X69531Y-29807D01*
X69670Y-29807D01*
X69670Y-29838D01*
X69465Y-29838D01*
X69295Y-29908D01*
X69165Y-30038D01*
X69147Y-30080D01*
X67591Y-30080D01*
X66556Y-29044D01*
X66484Y-28997D01*
X66400Y-28979D01*
X66395Y-28980D01*
X65568Y-28980D01*
X65496Y-28908D01*
X65369Y-28855D01*
X65232Y-28855D01*
X65105Y-28907D01*
X65008Y-29004D01*
X64955Y-29131D01*
X64955Y-29268D01*
X65007Y-29395D01*
X65104Y-29492D01*
X65231Y-29545D01*
X65368Y-29545D01*
X65495Y-29493D01*
X65568Y-29420D01*
X66308Y-29420D01*
X67342Y-30453D01*
X67344Y-30456D01*
X67415Y-30502D01*
X67416Y-30503D01*
X67500Y-30520D01*
X69147Y-30520D01*
X69164Y-30561D01*
X69294Y-30691D01*
X69463Y-30762D01*
X69647Y-30762D01*
X69935Y-30762D01*
X70105Y-30692D01*
X70235Y-30562D01*
X70306Y-30393D01*
X70306Y-31209D01*
X70236Y-31039D01*
X70106Y-30909D01*
X69937Y-30838D01*
X69753Y-30838D01*
X69465Y-30838D01*
X69295Y-30908D01*
X69165Y-31038D01*
X69094Y-31207D01*
X69094Y-31391D01*
X69164Y-31561D01*
X69294Y-31691D01*
X69463Y-31762D01*
X69647Y-31762D01*
X69935Y-31762D01*
X70105Y-31692D01*
X70235Y-31562D01*
X70306Y-31393D01*
X70306Y-32209D01*
X70236Y-32039D01*
X70106Y-31909D01*
X69937Y-31838D01*
X69753Y-31838D01*
X69465Y-31838D01*
X69295Y-31908D01*
X69165Y-32038D01*
X69094Y-32207D01*
X69094Y-32391D01*
X69164Y-32561D01*
X69294Y-32691D01*
X69463Y-32762D01*
X69647Y-32762D01*
X69935Y-32762D01*
X70105Y-32692D01*
X70235Y-32562D01*
X70306Y-32393D01*
X70306Y-37354D01*
X70304Y-37354D01*
X70304Y-33634D01*
X70304Y-33566D01*
X70304Y-32966D01*
X70278Y-32903D01*
X70230Y-32855D01*
X70167Y-32829D01*
X70099Y-32829D01*
X69233Y-32829D01*
X69170Y-32855D01*
X69122Y-32903D01*
X69096Y-32966D01*
X69096Y-33034D01*
X69096Y-33634D01*
X69122Y-33697D01*
X69170Y-33745D01*
X69233Y-33771D01*
X69301Y-33771D01*
X70167Y-33771D01*
X70230Y-33745D01*
X70278Y-33697D01*
X70304Y-33634D01*
X70304Y-37354D01*
X67545Y-37354D01*
X67545Y-33969D01*
X67545Y-33832D01*
X67493Y-33705D01*
X67396Y-33608D01*
X67269Y-33555D01*
X67132Y-33555D01*
X67005Y-33607D01*
X66950Y-33662D01*
X66896Y-33608D01*
X66769Y-33555D01*
X66632Y-33555D01*
X66505Y-33607D01*
X66432Y-33680D01*
X65020Y-33680D01*
X65020Y-32300D01*
X65003Y-32216D01*
X64956Y-32144D01*
X64953Y-32142D01*
X64720Y-31908D01*
X64720Y-30000D01*
X64703Y-29916D01*
X64702Y-29915D01*
X64656Y-29844D01*
X64653Y-29842D01*
X64445Y-29633D01*
X64445Y-29532D01*
X64393Y-29405D01*
X64296Y-29308D01*
X64169Y-29255D01*
X64032Y-29255D01*
X63905Y-29307D01*
X63808Y-29404D01*
X63755Y-29531D01*
X63755Y-29668D01*
X63807Y-29795D01*
X63904Y-29892D01*
X64031Y-29945D01*
X64133Y-29945D01*
X64280Y-30091D01*
X64280Y-30443D01*
X63742Y-29905D01*
X63740Y-29903D01*
X63735Y-29894D01*
X63732Y-29892D01*
X63549Y-29708D01*
X63549Y-29166D01*
X63732Y-28982D01*
X63734Y-28981D01*
X63735Y-28981D01*
X65107Y-27607D01*
X65109Y-27606D01*
X65110Y-27606D01*
X65138Y-27563D01*
X65157Y-27535D01*
X65157Y-27534D01*
X65174Y-27450D01*
X65174Y-26679D01*
X65173Y-26678D01*
X65174Y-26678D01*
X65170Y-26661D01*
X65157Y-26595D01*
X65156Y-26594D01*
X65110Y-26523D01*
X65107Y-26521D01*
X64824Y-26237D01*
X64824Y-26158D01*
X64824Y-26154D01*
X64825Y-26154D01*
X64807Y-26070D01*
X64760Y-25998D01*
X64049Y-25287D01*
X64049Y-23412D01*
X64216Y-23245D01*
X66120Y-23245D01*
X66125Y-23246D01*
X66125Y-23245D01*
X66209Y-23228D01*
X66281Y-23181D01*
X66566Y-22895D01*
X66668Y-22895D01*
X66795Y-22843D01*
X66892Y-22746D01*
X66945Y-22619D01*
X66945Y-22482D01*
X66893Y-22355D01*
X66796Y-22258D01*
X66669Y-22205D01*
X66532Y-22205D01*
X66405Y-22257D01*
X66308Y-22354D01*
X66255Y-22481D01*
X66255Y-22583D01*
X66033Y-22805D01*
X65839Y-22805D01*
X65852Y-22785D01*
X65853Y-22784D01*
X65866Y-22718D01*
X65870Y-22701D01*
X65869Y-22700D01*
X65870Y-22700D01*
X65870Y-22268D01*
X65942Y-22196D01*
X65995Y-22069D01*
X65995Y-21932D01*
X65974Y-21880D01*
X65974Y-20083D01*
X65970Y-19895D01*
X65945Y-19834D01*
X65945Y-19089D01*
X65945Y-18912D01*
X65877Y-18748D01*
X65752Y-18623D01*
X65589Y-18555D01*
X65412Y-18555D01*
X65248Y-18623D01*
X65123Y-18748D01*
X65055Y-18911D01*
X65055Y-19088D01*
X65123Y-19252D01*
X65248Y-19377D01*
X65411Y-19445D01*
X65588Y-19445D01*
X65752Y-19377D01*
X65877Y-19252D01*
X65945Y-19089D01*
X65945Y-19834D01*
X65907Y-19742D01*
X65825Y-19718D01*
X65782Y-19760D01*
X65782Y-19675D01*
X65758Y-19593D01*
X65583Y-19526D01*
X65395Y-19530D01*
X65242Y-19593D01*
X65218Y-19675D01*
X65500Y-19958D01*
X65782Y-19675D01*
X65782Y-19760D01*
X65542Y-20000D01*
X65825Y-20282D01*
X65907Y-20258D01*
X65974Y-20083D01*
X65974Y-21880D01*
X65943Y-21805D01*
X65846Y-21708D01*
X65719Y-21655D01*
X65582Y-21655D01*
X65455Y-21707D01*
X65358Y-21804D01*
X65305Y-21931D01*
X65305Y-22068D01*
X65357Y-22195D01*
X65430Y-22268D01*
X65430Y-22605D01*
X64025Y-22605D01*
X63941Y-22622D01*
X63869Y-22669D01*
X63867Y-22671D01*
X63494Y-23044D01*
X63447Y-23116D01*
X63429Y-23200D01*
X63430Y-23204D01*
X63430Y-25470D01*
X63429Y-25475D01*
X63447Y-25559D01*
X63494Y-25631D01*
X64205Y-26342D01*
X64205Y-26520D01*
X64204Y-26525D01*
X64222Y-26609D01*
X64269Y-26681D01*
X64555Y-26966D01*
X64555Y-27258D01*
X63244Y-28569D01*
X63242Y-28571D01*
X62994Y-28819D01*
X62947Y-28891D01*
X62929Y-28975D01*
X62930Y-28979D01*
X62930Y-29895D01*
X62929Y-29900D01*
X62947Y-29984D01*
X62994Y-30056D01*
X63242Y-30303D01*
X63244Y-30306D01*
X63680Y-30741D01*
X63680Y-30782D01*
X63608Y-30854D01*
X63555Y-30981D01*
X63555Y-31118D01*
X63607Y-31245D01*
X63704Y-31342D01*
X63831Y-31395D01*
X63968Y-31395D01*
X64055Y-31359D01*
X64055Y-32167D01*
X63996Y-32108D01*
X63869Y-32055D01*
X63732Y-32055D01*
X63605Y-32107D01*
X63532Y-32180D01*
X63399Y-32180D01*
X63399Y-31125D01*
X63382Y-31041D01*
X63335Y-30969D01*
X63332Y-30967D01*
X62960Y-30594D01*
X62888Y-30547D01*
X62804Y-30529D01*
X62799Y-30530D01*
X62595Y-30530D01*
X62499Y-30433D01*
X62499Y-29654D01*
X62482Y-29570D01*
X62435Y-29498D01*
X62432Y-29496D01*
X61881Y-28944D01*
X61809Y-28897D01*
X61725Y-28879D01*
X61720Y-28880D01*
X61329Y-28880D01*
X61325Y-28879D01*
X61241Y-28897D01*
X61169Y-28944D01*
X61167Y-28946D01*
X60762Y-29351D01*
X59959Y-28547D01*
X59953Y-28516D01*
X59905Y-28444D01*
X59869Y-28407D01*
X59866Y-28405D01*
X59120Y-27658D01*
X59120Y-23791D01*
X59241Y-23670D01*
X60145Y-23670D01*
X60150Y-23671D01*
X60150Y-23670D01*
X60234Y-23653D01*
X60306Y-23606D01*
X61092Y-22820D01*
X62395Y-22820D01*
X62400Y-22821D01*
X62400Y-22820D01*
X62484Y-22803D01*
X62556Y-22756D01*
X62891Y-22420D01*
X63095Y-22420D01*
X63100Y-22421D01*
X63100Y-22420D01*
X63184Y-22403D01*
X63256Y-22356D01*
X63491Y-22120D01*
X63895Y-22120D01*
X63900Y-22121D01*
X63900Y-22120D01*
X63984Y-22103D01*
X64056Y-22056D01*
X64291Y-21820D01*
X64745Y-21820D01*
X64750Y-21821D01*
X64750Y-21820D01*
X64834Y-21803D01*
X64906Y-21756D01*
X65273Y-21387D01*
X65411Y-21445D01*
X65588Y-21445D01*
X65752Y-21377D01*
X65877Y-21252D01*
X65945Y-21089D01*
X65945Y-20912D01*
X65877Y-20748D01*
X65782Y-20653D01*
X65782Y-20325D01*
X65500Y-20042D01*
X65458Y-20084D01*
X65458Y-20000D01*
X65175Y-19718D01*
X65093Y-19742D01*
X65026Y-19917D01*
X65030Y-20105D01*
X65093Y-20258D01*
X65175Y-20282D01*
X65458Y-20000D01*
X65458Y-20084D01*
X65218Y-20325D01*
X65242Y-20407D01*
X65417Y-20474D01*
X65605Y-20470D01*
X65758Y-20407D01*
X65782Y-20325D01*
X65782Y-20653D01*
X65752Y-20623D01*
X65589Y-20555D01*
X65412Y-20555D01*
X65248Y-20623D01*
X65123Y-20748D01*
X65055Y-20911D01*
X65055Y-20983D01*
X64974Y-21063D01*
X64974Y-20083D01*
X64970Y-19895D01*
X64945Y-19834D01*
X64945Y-19089D01*
X64945Y-18912D01*
X64877Y-18748D01*
X64752Y-18623D01*
X64589Y-18555D01*
X64412Y-18555D01*
X64248Y-18623D01*
X64123Y-18748D01*
X64055Y-18911D01*
X64055Y-19088D01*
X64123Y-19252D01*
X64248Y-19377D01*
X64411Y-19445D01*
X64588Y-19445D01*
X64752Y-19377D01*
X64877Y-19252D01*
X64945Y-19089D01*
X64945Y-19834D01*
X64907Y-19742D01*
X64825Y-19718D01*
X64782Y-19760D01*
X64782Y-19675D01*
X64758Y-19593D01*
X64583Y-19526D01*
X64395Y-19530D01*
X64242Y-19593D01*
X64218Y-19675D01*
X64500Y-19958D01*
X64782Y-19675D01*
X64782Y-19760D01*
X64542Y-20000D01*
X64825Y-20282D01*
X64907Y-20258D01*
X64974Y-20083D01*
X64974Y-21063D01*
X64941Y-21096D01*
X64945Y-21089D01*
X64945Y-20912D01*
X64877Y-20748D01*
X64782Y-20653D01*
X64782Y-20325D01*
X64500Y-20042D01*
X64458Y-20084D01*
X64458Y-20000D01*
X64175Y-19718D01*
X64093Y-19742D01*
X64026Y-19917D01*
X64030Y-20105D01*
X64093Y-20258D01*
X64175Y-20282D01*
X64458Y-20000D01*
X64458Y-20084D01*
X64218Y-20325D01*
X64242Y-20407D01*
X64417Y-20474D01*
X64605Y-20470D01*
X64758Y-20407D01*
X64782Y-20325D01*
X64782Y-20653D01*
X64752Y-20623D01*
X64589Y-20555D01*
X64412Y-20555D01*
X64248Y-20623D01*
X64123Y-20748D01*
X64055Y-20911D01*
X64055Y-21033D01*
X63974Y-21114D01*
X63974Y-20083D01*
X63970Y-19895D01*
X63945Y-19834D01*
X63945Y-19089D01*
X63945Y-18912D01*
X63877Y-18748D01*
X63752Y-18623D01*
X63589Y-18555D01*
X63412Y-18555D01*
X63248Y-18623D01*
X63123Y-18748D01*
X63055Y-18911D01*
X63055Y-19088D01*
X63123Y-19252D01*
X63248Y-19377D01*
X63411Y-19445D01*
X63588Y-19445D01*
X63752Y-19377D01*
X63877Y-19252D01*
X63945Y-19089D01*
X63945Y-19834D01*
X63907Y-19742D01*
X63825Y-19718D01*
X63782Y-19760D01*
X63782Y-19675D01*
X63758Y-19593D01*
X63583Y-19526D01*
X63395Y-19530D01*
X63242Y-19593D01*
X63218Y-19675D01*
X63500Y-19958D01*
X63782Y-19675D01*
X63782Y-19760D01*
X63542Y-20000D01*
X63825Y-20282D01*
X63907Y-20258D01*
X63974Y-20083D01*
X63974Y-21114D01*
X63906Y-21182D01*
X63945Y-21089D01*
X63945Y-20912D01*
X63877Y-20748D01*
X63782Y-20653D01*
X63782Y-20325D01*
X63500Y-20042D01*
X63458Y-20084D01*
X63458Y-20000D01*
X63175Y-19718D01*
X63093Y-19742D01*
X63026Y-19917D01*
X63030Y-20105D01*
X63093Y-20258D01*
X63175Y-20282D01*
X63458Y-20000D01*
X63458Y-20084D01*
X63218Y-20325D01*
X63242Y-20407D01*
X63417Y-20474D01*
X63605Y-20470D01*
X63758Y-20407D01*
X63782Y-20325D01*
X63782Y-20653D01*
X63752Y-20623D01*
X63589Y-20555D01*
X63412Y-20555D01*
X63248Y-20623D01*
X63123Y-20748D01*
X63055Y-20911D01*
X63055Y-21088D01*
X63068Y-21120D01*
X62974Y-21214D01*
X62974Y-20083D01*
X62970Y-19895D01*
X62945Y-19834D01*
X62945Y-19089D01*
X62945Y-18912D01*
X62877Y-18748D01*
X62752Y-18623D01*
X62589Y-18555D01*
X62412Y-18555D01*
X62248Y-18623D01*
X62123Y-18748D01*
X62055Y-18911D01*
X62055Y-19088D01*
X62123Y-19252D01*
X62248Y-19377D01*
X62411Y-19445D01*
X62588Y-19445D01*
X62752Y-19377D01*
X62877Y-19252D01*
X62945Y-19089D01*
X62945Y-19834D01*
X62907Y-19742D01*
X62825Y-19718D01*
X62782Y-19760D01*
X62782Y-19675D01*
X62758Y-19593D01*
X62583Y-19526D01*
X62395Y-19530D01*
X62242Y-19593D01*
X62218Y-19675D01*
X62500Y-19958D01*
X62782Y-19675D01*
X62782Y-19760D01*
X62542Y-20000D01*
X62825Y-20282D01*
X62907Y-20258D01*
X62974Y-20083D01*
X62974Y-21214D01*
X62808Y-21380D01*
X62744Y-21380D01*
X62752Y-21377D01*
X62877Y-21252D01*
X62945Y-21089D01*
X62945Y-20912D01*
X62877Y-20748D01*
X62782Y-20653D01*
X62782Y-20325D01*
X62500Y-20042D01*
X62458Y-20084D01*
X62458Y-20000D01*
X62175Y-19718D01*
X62093Y-19742D01*
X62026Y-19917D01*
X62030Y-20105D01*
X62093Y-20258D01*
X62175Y-20282D01*
X62458Y-20000D01*
X62458Y-20084D01*
X62218Y-20325D01*
X62242Y-20407D01*
X62417Y-20474D01*
X62605Y-20470D01*
X62758Y-20407D01*
X62782Y-20325D01*
X62782Y-20653D01*
X62752Y-20623D01*
X62589Y-20555D01*
X62412Y-20555D01*
X62248Y-20623D01*
X62123Y-20748D01*
X62055Y-20911D01*
X62055Y-21088D01*
X62068Y-21120D01*
X61974Y-21214D01*
X61974Y-20083D01*
X61970Y-19895D01*
X61945Y-19834D01*
X61945Y-19089D01*
X61945Y-18912D01*
X61877Y-18748D01*
X61752Y-18623D01*
X61589Y-18555D01*
X61412Y-18555D01*
X61248Y-18623D01*
X61123Y-18748D01*
X61055Y-18911D01*
X61055Y-19088D01*
X61123Y-19252D01*
X61248Y-19377D01*
X61411Y-19445D01*
X61588Y-19445D01*
X61752Y-19377D01*
X61877Y-19252D01*
X61945Y-19089D01*
X61945Y-19834D01*
X61907Y-19742D01*
X61825Y-19718D01*
X61782Y-19760D01*
X61782Y-19675D01*
X61758Y-19593D01*
X61583Y-19526D01*
X61395Y-19530D01*
X61242Y-19593D01*
X61218Y-19675D01*
X61500Y-19958D01*
X61782Y-19675D01*
X61782Y-19760D01*
X61542Y-20000D01*
X61825Y-20282D01*
X61907Y-20258D01*
X61974Y-20083D01*
X61974Y-21214D01*
X61608Y-21580D01*
X61231Y-21580D01*
X61379Y-21431D01*
X61411Y-21445D01*
X61588Y-21445D01*
X61752Y-21377D01*
X61877Y-21252D01*
X61945Y-21089D01*
X61945Y-20912D01*
X61877Y-20748D01*
X61782Y-20653D01*
X61782Y-20325D01*
X61500Y-20042D01*
X61458Y-20084D01*
X61458Y-20000D01*
X61175Y-19718D01*
X61093Y-19742D01*
X61026Y-19917D01*
X61030Y-20105D01*
X61093Y-20258D01*
X61175Y-20282D01*
X61458Y-20000D01*
X61458Y-20084D01*
X61218Y-20325D01*
X61242Y-20407D01*
X61417Y-20474D01*
X61605Y-20470D01*
X61758Y-20407D01*
X61782Y-20325D01*
X61782Y-20653D01*
X61752Y-20623D01*
X61589Y-20555D01*
X61412Y-20555D01*
X61248Y-20623D01*
X61123Y-20748D01*
X61055Y-20911D01*
X61055Y-21088D01*
X61068Y-21120D01*
X60974Y-21214D01*
X60974Y-20083D01*
X60970Y-19895D01*
X60945Y-19834D01*
X60945Y-19089D01*
X60945Y-18912D01*
X60877Y-18748D01*
X60752Y-18623D01*
X60589Y-18555D01*
X60412Y-18555D01*
X60248Y-18623D01*
X60123Y-18748D01*
X60055Y-18911D01*
X60055Y-19088D01*
X60123Y-19252D01*
X60248Y-19377D01*
X60411Y-19445D01*
X60588Y-19445D01*
X60752Y-19377D01*
X60877Y-19252D01*
X60945Y-19089D01*
X60945Y-19834D01*
X60907Y-19742D01*
X60825Y-19718D01*
X60782Y-19760D01*
X60782Y-19675D01*
X60758Y-19593D01*
X60583Y-19526D01*
X60395Y-19530D01*
X60242Y-19593D01*
X60218Y-19675D01*
X60500Y-19958D01*
X60782Y-19675D01*
X60782Y-19760D01*
X60542Y-20000D01*
X60825Y-20282D01*
X60907Y-20258D01*
X60974Y-20083D01*
X60974Y-21214D01*
X60808Y-21380D01*
X60744Y-21380D01*
X60752Y-21377D01*
X60877Y-21252D01*
X60945Y-21089D01*
X60945Y-20912D01*
X60877Y-20748D01*
X60782Y-20653D01*
X60782Y-20325D01*
X60500Y-20042D01*
X60458Y-20084D01*
X60458Y-20000D01*
X60175Y-19718D01*
X60093Y-19742D01*
X60026Y-19917D01*
X60030Y-20105D01*
X60093Y-20258D01*
X60175Y-20282D01*
X60458Y-20000D01*
X60458Y-20084D01*
X60218Y-20325D01*
X60242Y-20407D01*
X60417Y-20474D01*
X60605Y-20470D01*
X60758Y-20407D01*
X60782Y-20325D01*
X60782Y-20653D01*
X60752Y-20623D01*
X60589Y-20555D01*
X60412Y-20555D01*
X60248Y-20623D01*
X60123Y-20748D01*
X60055Y-20911D01*
X60055Y-21019D01*
X59974Y-21099D01*
X59974Y-20083D01*
X59970Y-19895D01*
X59945Y-19834D01*
X59945Y-19089D01*
X59945Y-18912D01*
X59877Y-18748D01*
X59752Y-18623D01*
X59589Y-18555D01*
X59412Y-18555D01*
X59248Y-18623D01*
X59123Y-18748D01*
X59055Y-18911D01*
X59055Y-19088D01*
X59123Y-19252D01*
X59248Y-19377D01*
X59411Y-19445D01*
X59588Y-19445D01*
X59752Y-19377D01*
X59877Y-19252D01*
X59945Y-19089D01*
X59945Y-19834D01*
X59907Y-19742D01*
X59825Y-19718D01*
X59782Y-19760D01*
X59782Y-19675D01*
X59758Y-19593D01*
X59583Y-19526D01*
X59395Y-19530D01*
X59242Y-19593D01*
X59218Y-19675D01*
X59500Y-19958D01*
X59782Y-19675D01*
X59782Y-19760D01*
X59542Y-20000D01*
X59825Y-20282D01*
X59907Y-20258D01*
X59974Y-20083D01*
X59974Y-21099D01*
X59915Y-21158D01*
X59945Y-21089D01*
X59945Y-20912D01*
X59877Y-20748D01*
X59782Y-20653D01*
X59782Y-20325D01*
X59500Y-20042D01*
X59458Y-20084D01*
X59458Y-20000D01*
X59175Y-19718D01*
X59093Y-19742D01*
X59026Y-19917D01*
X59030Y-20105D01*
X59093Y-20258D01*
X59175Y-20282D01*
X59458Y-20000D01*
X59458Y-20084D01*
X59218Y-20325D01*
X59242Y-20407D01*
X59417Y-20474D01*
X59605Y-20470D01*
X59758Y-20407D01*
X59782Y-20325D01*
X59782Y-20653D01*
X59752Y-20623D01*
X59589Y-20555D01*
X59412Y-20555D01*
X59248Y-20623D01*
X59123Y-20748D01*
X59055Y-20911D01*
X59055Y-21088D01*
X59064Y-21110D01*
X58974Y-21200D01*
X58974Y-20083D01*
X58970Y-19895D01*
X58945Y-19834D01*
X58945Y-19089D01*
X58945Y-18912D01*
X58877Y-18748D01*
X58752Y-18623D01*
X58589Y-18555D01*
X58412Y-18555D01*
X58248Y-18623D01*
X58123Y-18748D01*
X58055Y-18911D01*
X58055Y-19088D01*
X58123Y-19252D01*
X58248Y-19377D01*
X58411Y-19445D01*
X58588Y-19445D01*
X58752Y-19377D01*
X58877Y-19252D01*
X58945Y-19089D01*
X58945Y-19834D01*
X58907Y-19742D01*
X58825Y-19718D01*
X58782Y-19760D01*
X58782Y-19675D01*
X58758Y-19593D01*
X58583Y-19526D01*
X58395Y-19530D01*
X58242Y-19593D01*
X58218Y-19675D01*
X58500Y-19958D01*
X58782Y-19675D01*
X58782Y-19760D01*
X58542Y-20000D01*
X58825Y-20282D01*
X58907Y-20258D01*
X58974Y-20083D01*
X58974Y-21200D01*
X58804Y-21370D01*
X58759Y-21370D01*
X58877Y-21252D01*
X58945Y-21089D01*
X58945Y-20912D01*
X58877Y-20748D01*
X58782Y-20653D01*
X58782Y-20325D01*
X58500Y-20042D01*
X58458Y-20084D01*
X58458Y-20000D01*
X58175Y-19718D01*
X58093Y-19742D01*
X58026Y-19917D01*
X58030Y-20105D01*
X58093Y-20258D01*
X58175Y-20282D01*
X58458Y-20000D01*
X58458Y-20084D01*
X58218Y-20325D01*
X58242Y-20407D01*
X58417Y-20474D01*
X58605Y-20470D01*
X58758Y-20407D01*
X58782Y-20325D01*
X58782Y-20653D01*
X58752Y-20623D01*
X58589Y-20555D01*
X58412Y-20555D01*
X58248Y-20623D01*
X58123Y-20748D01*
X58055Y-20911D01*
X58055Y-20919D01*
X57974Y-21000D01*
X57974Y-20083D01*
X57970Y-19895D01*
X57945Y-19834D01*
X57945Y-19089D01*
X57945Y-18912D01*
X57877Y-18748D01*
X57752Y-18623D01*
X57589Y-18555D01*
X57412Y-18555D01*
X57248Y-18623D01*
X57123Y-18748D01*
X57055Y-18911D01*
X57055Y-19088D01*
X57123Y-19252D01*
X57248Y-19377D01*
X57411Y-19445D01*
X57588Y-19445D01*
X57752Y-19377D01*
X57877Y-19252D01*
X57945Y-19089D01*
X57945Y-19834D01*
X57907Y-19742D01*
X57825Y-19718D01*
X57782Y-19760D01*
X57782Y-19675D01*
X57758Y-19593D01*
X57583Y-19526D01*
X57395Y-19530D01*
X57242Y-19593D01*
X57218Y-19675D01*
X57500Y-19958D01*
X57782Y-19675D01*
X57782Y-19760D01*
X57542Y-20000D01*
X57825Y-20282D01*
X57907Y-20258D01*
X57974Y-20083D01*
X57974Y-21000D01*
X57945Y-21029D01*
X57945Y-20912D01*
X57877Y-20748D01*
X57782Y-20653D01*
X57782Y-20325D01*
X57500Y-20042D01*
X57458Y-20084D01*
X57458Y-20000D01*
X57175Y-19718D01*
X57093Y-19742D01*
X57026Y-19917D01*
X57030Y-20105D01*
X57093Y-20258D01*
X57175Y-20282D01*
X57458Y-20000D01*
X57458Y-20084D01*
X57218Y-20325D01*
X57242Y-20407D01*
X57417Y-20474D01*
X57605Y-20470D01*
X57758Y-20407D01*
X57782Y-20325D01*
X57782Y-20653D01*
X57752Y-20623D01*
X57589Y-20555D01*
X57412Y-20555D01*
X57248Y-20623D01*
X57123Y-20748D01*
X57055Y-20911D01*
X57055Y-21088D01*
X57063Y-21109D01*
X56982Y-21190D01*
X56982Y-20316D01*
X56982Y-20234D01*
X56982Y-20081D01*
X56982Y-19919D01*
X56982Y-19766D01*
X56982Y-19684D01*
X56950Y-19608D01*
X56946Y-19603D01*
X56946Y-19309D01*
X56946Y-19241D01*
X56946Y-18691D01*
X56920Y-18628D01*
X56872Y-18580D01*
X56809Y-18554D01*
X56741Y-18554D01*
X56191Y-18554D01*
X56128Y-18580D01*
X56080Y-18628D01*
X56054Y-18691D01*
X56054Y-18759D01*
X56054Y-19309D01*
X56080Y-19372D01*
X56128Y-19420D01*
X56191Y-19446D01*
X56259Y-19446D01*
X56809Y-19446D01*
X56872Y-19420D01*
X56920Y-19372D01*
X56946Y-19309D01*
X56946Y-19603D01*
X56892Y-19549D01*
X56816Y-19518D01*
X56581Y-19518D01*
X56530Y-19569D01*
X56530Y-19970D01*
X56931Y-19970D01*
X56982Y-19919D01*
X56982Y-20081D01*
X56931Y-20030D01*
X56530Y-20030D01*
X56530Y-20431D01*
X56581Y-20482D01*
X56816Y-20482D01*
X56892Y-20451D01*
X56950Y-20392D01*
X56982Y-20316D01*
X56982Y-21190D01*
X56946Y-21227D01*
X56946Y-20691D01*
X56920Y-20628D01*
X56872Y-20580D01*
X56809Y-20554D01*
X56741Y-20554D01*
X56470Y-20554D01*
X56470Y-20431D01*
X56470Y-20030D01*
X56470Y-19970D01*
X56470Y-19569D01*
X56419Y-19518D01*
X56184Y-19518D01*
X56108Y-19549D01*
X56050Y-19608D01*
X56018Y-19684D01*
X56018Y-19766D01*
X56018Y-19919D01*
X56069Y-19970D01*
X56470Y-19970D01*
X56470Y-20030D01*
X56069Y-20030D01*
X56018Y-20081D01*
X56018Y-20234D01*
X56018Y-20316D01*
X56050Y-20392D01*
X56108Y-20451D01*
X56184Y-20482D01*
X56419Y-20482D01*
X56470Y-20431D01*
X56470Y-20554D01*
X56191Y-20554D01*
X56128Y-20580D01*
X56080Y-20628D01*
X56054Y-20691D01*
X56054Y-20759D01*
X56054Y-21309D01*
X56080Y-21372D01*
X56128Y-21420D01*
X56191Y-21446D01*
X56259Y-21446D01*
X56270Y-21446D01*
X56270Y-29495D01*
X56269Y-29500D01*
X56288Y-29588D01*
X56337Y-29663D01*
X58470Y-31795D01*
X58470Y-34300D01*
X58488Y-34388D01*
X58537Y-34463D01*
X58612Y-34512D01*
X58700Y-34530D01*
X59842Y-34530D01*
X59904Y-34592D01*
X60031Y-34645D01*
X60168Y-34645D01*
X60295Y-34593D01*
X60392Y-34496D01*
X60415Y-34440D01*
X60835Y-34860D01*
X60837Y-34863D01*
X60912Y-34912D01*
X61000Y-34930D01*
X64942Y-34930D01*
X65004Y-34992D01*
X65131Y-35045D01*
X65268Y-35045D01*
X65395Y-34993D01*
X65492Y-34896D01*
X65545Y-34769D01*
X65545Y-34632D01*
X65493Y-34505D01*
X65396Y-34408D01*
X65269Y-34355D01*
X65132Y-34355D01*
X65005Y-34407D01*
X64942Y-34470D01*
X61095Y-34470D01*
X60363Y-33737D01*
X60288Y-33688D01*
X60200Y-33669D01*
X60195Y-33670D01*
X59195Y-33670D01*
X59130Y-33604D01*
X59130Y-31744D01*
X59131Y-31745D01*
X59268Y-31745D01*
X59395Y-31693D01*
X59492Y-31596D01*
X59492Y-31594D01*
X59537Y-31663D01*
X59555Y-31680D01*
X59555Y-31768D01*
X59607Y-31895D01*
X59704Y-31992D01*
X59831Y-32045D01*
X59968Y-32045D01*
X60095Y-31993D01*
X60192Y-31896D01*
X60215Y-31838D01*
X60231Y-31845D01*
X60368Y-31845D01*
X60495Y-31793D01*
X60592Y-31696D01*
X60645Y-31569D01*
X60645Y-31508D01*
X60700Y-31520D01*
X62332Y-31520D01*
X62404Y-31592D01*
X62531Y-31645D01*
X62668Y-31645D01*
X62780Y-31599D01*
X62780Y-32495D01*
X62779Y-32500D01*
X62794Y-32570D01*
X62705Y-32607D01*
X62608Y-32704D01*
X62555Y-32831D01*
X62555Y-32968D01*
X62607Y-33095D01*
X62704Y-33192D01*
X62831Y-33245D01*
X62933Y-33245D01*
X63142Y-33453D01*
X63144Y-33456D01*
X63215Y-33502D01*
X63216Y-33503D01*
X63300Y-33520D01*
X64308Y-33520D01*
X64380Y-33591D01*
X64380Y-34100D01*
X64397Y-34184D01*
X64444Y-34256D01*
X64516Y-34303D01*
X64600Y-34320D01*
X66308Y-34320D01*
X66442Y-34453D01*
X66444Y-34456D01*
X66515Y-34502D01*
X66516Y-34503D01*
X66582Y-34516D01*
X66599Y-34520D01*
X66599Y-34519D01*
X66600Y-34520D01*
X66795Y-34520D01*
X66800Y-34521D01*
X66800Y-34520D01*
X66884Y-34503D01*
X66956Y-34456D01*
X67166Y-34245D01*
X67268Y-34245D01*
X67395Y-34193D01*
X67492Y-34096D01*
X67545Y-33969D01*
X67545Y-37354D01*
X57945Y-37354D01*
X57945Y-31769D01*
X57945Y-31632D01*
X57893Y-31505D01*
X57796Y-31408D01*
X57669Y-31355D01*
X57532Y-31355D01*
X57405Y-31407D01*
X57308Y-31504D01*
X57255Y-31631D01*
X57255Y-31733D01*
X57144Y-31844D01*
X57097Y-31916D01*
X57079Y-32000D01*
X57080Y-32004D01*
X57080Y-32432D01*
X57008Y-32504D01*
X56955Y-32631D01*
X56955Y-32768D01*
X57007Y-32895D01*
X57104Y-32992D01*
X57231Y-33045D01*
X57368Y-33045D01*
X57495Y-32993D01*
X57592Y-32896D01*
X57645Y-32769D01*
X57645Y-32632D01*
X57593Y-32505D01*
X57520Y-32432D01*
X57520Y-32091D01*
X57566Y-32045D01*
X57668Y-32045D01*
X57795Y-31993D01*
X57892Y-31896D01*
X57945Y-31769D01*
X57945Y-37354D01*
X55628Y-37354D01*
X55628Y-25109D01*
X55628Y-24891D01*
X55615Y-24839D01*
X55604Y-24819D01*
X55604Y-24334D01*
X55604Y-24266D01*
X55604Y-23666D01*
X55578Y-23603D01*
X55530Y-23555D01*
X55467Y-23529D01*
X55399Y-23529D01*
X54533Y-23529D01*
X54470Y-23555D01*
X54422Y-23603D01*
X54396Y-23666D01*
X54396Y-23691D01*
X54250Y-23691D01*
X54132Y-23715D01*
X54098Y-23737D01*
X54031Y-23782D01*
X52982Y-24832D01*
X52915Y-24932D01*
X52891Y-25050D01*
X52891Y-25700D01*
X52891Y-28900D01*
X52915Y-29018D01*
X52965Y-29092D01*
X53007Y-29195D01*
X53104Y-29292D01*
X53231Y-29345D01*
X53368Y-29345D01*
X53495Y-29293D01*
X53592Y-29196D01*
X53645Y-29069D01*
X53645Y-28932D01*
X53593Y-28805D01*
X53509Y-28721D01*
X53509Y-25700D01*
X53509Y-25177D01*
X54377Y-24309D01*
X54396Y-24309D01*
X54396Y-24334D01*
X54422Y-24397D01*
X54470Y-24445D01*
X54533Y-24471D01*
X54601Y-24471D01*
X55467Y-24471D01*
X55530Y-24445D01*
X55578Y-24397D01*
X55604Y-24334D01*
X55604Y-24819D01*
X55517Y-24667D01*
X55360Y-24545D01*
X55169Y-24493D01*
X55030Y-24493D01*
X55030Y-24970D01*
X55588Y-24970D01*
X55628Y-24891D01*
X55628Y-25109D01*
X55588Y-25030D01*
X55030Y-25030D01*
X55030Y-25507D01*
X55169Y-25507D01*
X55360Y-25455D01*
X55517Y-25333D01*
X55615Y-25161D01*
X55628Y-25109D01*
X55628Y-37354D01*
X55606Y-37354D01*
X55606Y-26093D01*
X55606Y-25909D01*
X55536Y-25739D01*
X55406Y-25609D01*
X55237Y-25538D01*
X55053Y-25538D01*
X54970Y-25538D01*
X54970Y-25507D01*
X54970Y-25030D01*
X54970Y-24970D01*
X54970Y-24493D01*
X54831Y-24493D01*
X54640Y-24545D01*
X54483Y-24667D01*
X54385Y-24839D01*
X54372Y-24891D01*
X54412Y-24970D01*
X54970Y-24970D01*
X54970Y-25030D01*
X54412Y-25030D01*
X54372Y-25109D01*
X54385Y-25161D01*
X54483Y-25333D01*
X54640Y-25455D01*
X54831Y-25507D01*
X54970Y-25507D01*
X54970Y-25538D01*
X54765Y-25538D01*
X54595Y-25608D01*
X54465Y-25738D01*
X54394Y-25907D01*
X54394Y-26091D01*
X54464Y-26261D01*
X54594Y-26391D01*
X54763Y-26462D01*
X54947Y-26462D01*
X55235Y-26462D01*
X55405Y-26392D01*
X55535Y-26262D01*
X55606Y-26093D01*
X55606Y-37354D01*
X51446Y-37354D01*
X51446Y-18246D01*
X70554Y-18246D01*
X70554Y-37354D01*
M02*
