M48
;DRILL file {Pcbnew (2012-01-19 BZR 3256)-stable} date 4/1/2013 12:05:49 AM
;FORMAT={-:-/ absolute / inch / decimal}
FMAT,2
INCH,TZ
T1C0.017
T2C0.032
T3C0.039
T4C0.138
%
G90
G05
M72
T1
X2.875Y-3.375
X2.980Y-4.000
X3.050Y-4.000
X3.250Y-4.050
X3.300Y-4.520
X3.320Y-4.180
X3.350Y-4.525
X3.365Y-4.275
X3.375Y-4.800
X3.465Y-4.275
X3.500Y-4.545
X3.565Y-4.120
X3.570Y-4.240
X3.600Y-4.095
X3.640Y-4.010
X3.640Y-4.270
X3.680Y-4.250
X3.750Y-3.775
X3.755Y-3.495
X3.910Y-4.230
X3.940Y-4.390
X3.990Y-4.340
X4.000Y-4.390
X4.040Y-4.205
X4.050Y-4.010
X4.060Y-4.060
X4.090Y-4.340
X4.140Y-4.570
X4.180Y-4.020
X4.215Y-3.300
X4.280Y-4.350
X4.320Y-3.960
X4.390Y-3.870
X4.390Y-4.500
X4.400Y-3.275
X4.430Y-4.210
X4.470Y-3.800
X4.490Y-4.500
X4.500Y-3.325
X4.530Y-4.760
X4.540Y-3.970
X4.570Y-3.870
X4.630Y-3.375
X4.660Y-3.800
T2
X2.820Y-4.560
X2.920Y-4.560
X3.020Y-4.560
X3.100Y-3.000
X3.100Y-3.100
X3.100Y-3.200
X3.120Y-4.560
X3.200Y-3.000
X3.200Y-3.100
X3.200Y-3.200
X3.300Y-3.000
X3.300Y-3.100
X3.300Y-3.200
X3.400Y-3.000
X3.400Y-3.100
X3.400Y-3.200
X3.500Y-3.000
X3.500Y-3.100
X3.500Y-3.200
X3.600Y-3.000
X3.600Y-3.100
X3.600Y-3.200
X3.900Y-3.000
X3.900Y-3.100
X3.900Y-3.200
X4.000Y-3.000
X4.000Y-3.100
X4.000Y-3.200
X4.100Y-3.000
X4.100Y-3.100
X4.100Y-3.200
X4.200Y-3.000
X4.200Y-3.100
X4.200Y-3.200
X4.300Y-3.000
X4.400Y-3.000
X4.500Y-3.000
X4.620Y-4.030
X4.620Y-4.130
X4.620Y-4.230
X4.620Y-4.330
X4.620Y-4.430
T3
X3.200Y-3.500
X3.200Y-3.600
X3.200Y-3.700
X4.300Y-3.500
X4.300Y-3.600
X4.300Y-3.700
T4
X3.750Y-3.050
T0
M30
