G04 (created by PCBNEW-RS274X (2012-01-19 BZR 3256)-stable) date 3/3/2013 12:27:56 AM*
G01*
G70*
G90*
%MOIN*%
G04 Gerber Fmt 3.4, Leading zero omitted, Abs format*
%FSLAX34Y34*%
G04 APERTURE LIST*
%ADD10C,0.006000*%
%ADD11C,0.015000*%
%ADD12R,0.086600X0.060000*%
%ADD13O,0.086600X0.060000*%
%ADD14C,0.078700*%
%ADD15R,0.055000X0.055000*%
%ADD16C,0.055000*%
%ADD17C,0.035000*%
%ADD18C,0.017700*%
%ADD19C,0.027600*%
%ADD20C,0.009800*%
%ADD21C,0.011800*%
%ADD22C,0.010000*%
G04 APERTURE END LIST*
G54D10*
G54D11*
X51200Y-37600D02*
X51200Y-18000D01*
X70800Y-37600D02*
X51200Y-37600D01*
X70800Y-18000D02*
X70800Y-37600D01*
X51200Y-18000D02*
X70800Y-18000D01*
G54D12*
X67000Y-26000D03*
G54D13*
X67000Y-25000D03*
X67000Y-24000D03*
G54D12*
X55000Y-24000D03*
G54D13*
X55000Y-25000D03*
X55000Y-26000D03*
G54D14*
X61900Y-27150D03*
X63900Y-27150D03*
G54D15*
X56500Y-20000D03*
G54D16*
X57500Y-20000D03*
X58500Y-20000D03*
X59500Y-20000D03*
X60500Y-20000D03*
X61500Y-20000D03*
X62500Y-20000D03*
X63500Y-20000D03*
X64500Y-20000D03*
X65500Y-20000D03*
G54D15*
X56500Y-19000D03*
G54D16*
X57500Y-19000D03*
X58500Y-19000D03*
X59500Y-19000D03*
X60500Y-19000D03*
X61500Y-19000D03*
X62500Y-19000D03*
X63500Y-19000D03*
X64500Y-19000D03*
X65500Y-19000D03*
G54D15*
X56500Y-21000D03*
G54D16*
X57500Y-21000D03*
X58500Y-21000D03*
X59500Y-21000D03*
X60500Y-21000D03*
X61500Y-21000D03*
X62500Y-21000D03*
X63500Y-21000D03*
X64500Y-21000D03*
X65500Y-21000D03*
G54D17*
X56500Y-32700D03*
X56500Y-31200D03*
X53300Y-29000D03*
X63800Y-32900D03*
X64300Y-32900D03*
X61600Y-29600D03*
X62850Y-29450D03*
X68700Y-29600D03*
X64100Y-29600D03*
X60100Y-34300D03*
X65200Y-34700D03*
X59200Y-31400D03*
X62600Y-31300D03*
X60300Y-31500D03*
X70100Y-27000D03*
X68200Y-27000D03*
X69200Y-27700D03*
X66000Y-25900D03*
X59900Y-31700D03*
X68500Y-31500D03*
X54200Y-34200D03*
X59500Y-27900D03*
X70000Y-21900D03*
X69100Y-36000D03*
X60300Y-36300D03*
X62900Y-28400D03*
X64000Y-29100D03*
X52400Y-34200D03*
X54000Y-29000D03*
X52200Y-21900D03*
X57700Y-31700D03*
X57100Y-32600D03*
G54D18*
X56500Y-32700D02*
X56500Y-31200D01*
G54D19*
X53200Y-28900D02*
X53200Y-25700D01*
X53300Y-29000D02*
X53200Y-28900D01*
X53900Y-25000D02*
X55000Y-25000D01*
X53200Y-25700D02*
X53900Y-25000D01*
G54D20*
X60100Y-23200D02*
X59000Y-23200D01*
X63300Y-32800D02*
X63400Y-32900D01*
X63400Y-32900D02*
X63800Y-32900D01*
X63000Y-21900D02*
X62700Y-21900D01*
X61900Y-28900D02*
X62100Y-29100D01*
X62100Y-29100D02*
X63000Y-29100D01*
X59600Y-28900D02*
X61900Y-28900D01*
X64500Y-21000D02*
X64400Y-21000D01*
X58600Y-27900D02*
X59600Y-28900D01*
X62200Y-22400D02*
X60900Y-22400D01*
X60900Y-22400D02*
X60100Y-23200D01*
X59000Y-23200D02*
X58600Y-23600D01*
X58600Y-23600D02*
X58600Y-27900D01*
X62700Y-21900D02*
X62200Y-22400D01*
X64400Y-21000D02*
X63800Y-21600D01*
X63800Y-21600D02*
X63300Y-21600D01*
X63000Y-29100D02*
X63300Y-29400D01*
X63300Y-21600D02*
X63000Y-21900D01*
X63300Y-29400D02*
X63300Y-32800D01*
X65500Y-26750D02*
X65500Y-21000D01*
X64300Y-32900D02*
X63600Y-32200D01*
X63650Y-28600D02*
X65500Y-26750D01*
X63600Y-32200D02*
X63600Y-28600D01*
X63600Y-28600D02*
X63650Y-28600D01*
X61700Y-21800D02*
X62500Y-21000D01*
X61600Y-29600D02*
X59500Y-29600D01*
X59500Y-29600D02*
X58000Y-28100D01*
X58000Y-23400D02*
X58800Y-22600D01*
X60600Y-21800D02*
X61700Y-21800D01*
X59800Y-22600D02*
X60600Y-21800D01*
X58800Y-22600D02*
X59800Y-22600D01*
X58000Y-28100D02*
X58000Y-23400D01*
X58900Y-22900D02*
X60000Y-22900D01*
X58300Y-23500D02*
X58900Y-22900D01*
X62600Y-21600D02*
X62900Y-21600D01*
X59500Y-29200D02*
X58300Y-28000D01*
X61950Y-29450D02*
X61700Y-29200D01*
X62850Y-29450D02*
X62800Y-29400D01*
X61700Y-29200D02*
X59500Y-29200D01*
X62850Y-29450D02*
X61950Y-29450D01*
X60000Y-22900D02*
X60800Y-22100D01*
X62100Y-22100D02*
X62600Y-21600D01*
X60800Y-22100D02*
X62100Y-22100D01*
X62900Y-21600D02*
X63500Y-21000D01*
X58300Y-28000D02*
X58300Y-23500D01*
X64100Y-29600D02*
X68700Y-29600D01*
G54D21*
X56500Y-29500D02*
X58700Y-31700D01*
X56500Y-21000D02*
X56500Y-29500D01*
X58700Y-31700D02*
X58700Y-34300D01*
X58700Y-34300D02*
X60100Y-34300D01*
X58900Y-31600D02*
X58900Y-33700D01*
X59100Y-33900D02*
X60200Y-33900D01*
X56699Y-21800D02*
X56699Y-29399D01*
X60200Y-33900D02*
X61000Y-34700D01*
X57500Y-21000D02*
X57499Y-21000D01*
X56699Y-29399D02*
X58900Y-31600D01*
X57499Y-21000D02*
X56699Y-21800D01*
X58900Y-33700D02*
X59100Y-33900D01*
X61000Y-34700D02*
X65200Y-34700D01*
X58300Y-21000D02*
X58500Y-21000D01*
X59200Y-31400D02*
X56900Y-29100D01*
X56898Y-29100D02*
X56898Y-22402D01*
G54D20*
X56888Y-29100D02*
X56898Y-29100D01*
X56900Y-29100D02*
X56888Y-29100D01*
G54D21*
X56898Y-22402D02*
X58300Y-21000D01*
G54D20*
X60900Y-21600D02*
X61500Y-21000D01*
X62600Y-31300D02*
X60700Y-31300D01*
X59600Y-22300D02*
X60300Y-21600D01*
X60300Y-21600D02*
X60900Y-21600D01*
X60700Y-31300D02*
X57700Y-28300D01*
X57700Y-28300D02*
X57700Y-23200D01*
X61500Y-21000D02*
X61500Y-21100D01*
X58600Y-22300D02*
X59600Y-22300D01*
X57700Y-23200D02*
X58600Y-22300D01*
G54D21*
X60400Y-21000D02*
X60500Y-21000D01*
G54D20*
X60500Y-21100D02*
X60500Y-21000D01*
G54D21*
X57400Y-23000D02*
X57400Y-28600D01*
X58500Y-21900D02*
X57400Y-23000D01*
X60400Y-21000D02*
X59500Y-21900D01*
X59500Y-21900D02*
X58500Y-21900D01*
X60300Y-31500D02*
X57400Y-28600D01*
G54D20*
X70100Y-27000D02*
X68200Y-27000D01*
X66000Y-27100D02*
X66000Y-25900D01*
X66600Y-27700D02*
X66000Y-27100D01*
X69200Y-27700D02*
X66600Y-27700D01*
G54D21*
X58200Y-21600D02*
X58900Y-21600D01*
X59700Y-31400D02*
X57100Y-28800D01*
X59900Y-31700D02*
X59700Y-31500D01*
G54D20*
X59500Y-21000D02*
X59500Y-21100D01*
G54D21*
X58900Y-21600D02*
X59500Y-21000D01*
X57100Y-28800D02*
X57100Y-22700D01*
X57100Y-22700D02*
X58200Y-21600D01*
X59700Y-31500D02*
X59700Y-31400D01*
G54D20*
X57100Y-32300D02*
X57100Y-32600D01*
X57700Y-31700D02*
X57100Y-32300D01*
G54D10*
G36*
X70554Y-37354D02*
X70445Y-37354D01*
X70445Y-27069D01*
X70445Y-26932D01*
X70393Y-26805D01*
X70296Y-26708D01*
X70169Y-26655D01*
X70032Y-26655D01*
X69905Y-26707D01*
X69832Y-26780D01*
X68468Y-26780D01*
X68396Y-26708D01*
X68269Y-26655D01*
X68132Y-26655D01*
X68005Y-26707D01*
X67908Y-26804D01*
X67855Y-26931D01*
X67855Y-27068D01*
X67907Y-27195D01*
X68004Y-27292D01*
X68131Y-27345D01*
X68268Y-27345D01*
X68395Y-27293D01*
X68468Y-27220D01*
X69832Y-27220D01*
X69904Y-27292D01*
X70031Y-27345D01*
X70168Y-27345D01*
X70295Y-27293D01*
X70392Y-27196D01*
X70445Y-27069D01*
X70445Y-37354D01*
X69545Y-37354D01*
X69545Y-27769D01*
X69545Y-27632D01*
X69493Y-27505D01*
X69396Y-27408D01*
X69269Y-27355D01*
X69132Y-27355D01*
X69005Y-27407D01*
X68932Y-27480D01*
X67628Y-27480D01*
X67628Y-24109D01*
X67628Y-23891D01*
X67615Y-23839D01*
X67517Y-23667D01*
X67360Y-23545D01*
X67169Y-23493D01*
X67030Y-23493D01*
X67030Y-23970D01*
X67588Y-23970D01*
X67628Y-23891D01*
X67628Y-24109D01*
X67588Y-24030D01*
X67030Y-24030D01*
X67030Y-24507D01*
X67169Y-24507D01*
X67360Y-24455D01*
X67517Y-24333D01*
X67615Y-24161D01*
X67628Y-24109D01*
X67628Y-27480D01*
X67606Y-27480D01*
X67606Y-25093D01*
X67606Y-24909D01*
X67536Y-24739D01*
X67406Y-24609D01*
X67237Y-24538D01*
X67053Y-24538D01*
X66970Y-24538D01*
X66970Y-24507D01*
X66970Y-24030D01*
X66970Y-23970D01*
X66970Y-23493D01*
X66831Y-23493D01*
X66640Y-23545D01*
X66483Y-23667D01*
X66385Y-23839D01*
X66372Y-23891D01*
X66412Y-23970D01*
X66970Y-23970D01*
X66970Y-24030D01*
X66412Y-24030D01*
X66372Y-24109D01*
X66385Y-24161D01*
X66483Y-24333D01*
X66640Y-24455D01*
X66831Y-24507D01*
X66970Y-24507D01*
X66970Y-24538D01*
X66765Y-24538D01*
X66595Y-24608D01*
X66465Y-24738D01*
X66394Y-24907D01*
X66394Y-25091D01*
X66464Y-25261D01*
X66594Y-25391D01*
X66763Y-25462D01*
X66947Y-25462D01*
X67235Y-25462D01*
X67405Y-25392D01*
X67535Y-25262D01*
X67606Y-25093D01*
X67606Y-27480D01*
X67604Y-27480D01*
X67604Y-26334D01*
X67604Y-26266D01*
X67604Y-25666D01*
X67578Y-25603D01*
X67530Y-25555D01*
X67467Y-25529D01*
X67399Y-25529D01*
X66533Y-25529D01*
X66470Y-25555D01*
X66422Y-25603D01*
X66396Y-25666D01*
X66396Y-25734D01*
X66396Y-26334D01*
X66422Y-26397D01*
X66470Y-26445D01*
X66533Y-26471D01*
X66601Y-26471D01*
X67467Y-26471D01*
X67530Y-26445D01*
X67578Y-26397D01*
X67604Y-26334D01*
X67604Y-27480D01*
X66691Y-27480D01*
X66220Y-27008D01*
X66220Y-26168D01*
X66292Y-26096D01*
X66345Y-25969D01*
X66345Y-25832D01*
X66293Y-25705D01*
X66196Y-25608D01*
X66069Y-25555D01*
X65974Y-25555D01*
X65974Y-20083D01*
X65970Y-19895D01*
X65945Y-19834D01*
X65945Y-19089D01*
X65945Y-18912D01*
X65877Y-18748D01*
X65752Y-18623D01*
X65589Y-18555D01*
X65412Y-18555D01*
X65248Y-18623D01*
X65123Y-18748D01*
X65055Y-18911D01*
X65055Y-19088D01*
X65123Y-19252D01*
X65248Y-19377D01*
X65411Y-19445D01*
X65588Y-19445D01*
X65752Y-19377D01*
X65877Y-19252D01*
X65945Y-19089D01*
X65945Y-19834D01*
X65907Y-19742D01*
X65825Y-19718D01*
X65782Y-19760D01*
X65782Y-19675D01*
X65758Y-19593D01*
X65583Y-19526D01*
X65395Y-19530D01*
X65242Y-19593D01*
X65218Y-19675D01*
X65500Y-19958D01*
X65782Y-19675D01*
X65782Y-19760D01*
X65542Y-20000D01*
X65825Y-20282D01*
X65907Y-20258D01*
X65974Y-20083D01*
X65974Y-25555D01*
X65932Y-25555D01*
X65805Y-25607D01*
X65720Y-25692D01*
X65720Y-21390D01*
X65752Y-21377D01*
X65877Y-21252D01*
X65945Y-21089D01*
X65945Y-20912D01*
X65877Y-20748D01*
X65782Y-20653D01*
X65782Y-20325D01*
X65500Y-20042D01*
X65458Y-20084D01*
X65458Y-20000D01*
X65175Y-19718D01*
X65093Y-19742D01*
X65026Y-19917D01*
X65030Y-20105D01*
X65093Y-20258D01*
X65175Y-20282D01*
X65458Y-20000D01*
X65458Y-20084D01*
X65218Y-20325D01*
X65242Y-20407D01*
X65417Y-20474D01*
X65605Y-20470D01*
X65758Y-20407D01*
X65782Y-20325D01*
X65782Y-20653D01*
X65752Y-20623D01*
X65589Y-20555D01*
X65412Y-20555D01*
X65248Y-20623D01*
X65123Y-20748D01*
X65055Y-20911D01*
X65055Y-21088D01*
X65123Y-21252D01*
X65248Y-21377D01*
X65280Y-21390D01*
X65280Y-26658D01*
X64974Y-26963D01*
X64974Y-20083D01*
X64970Y-19895D01*
X64945Y-19834D01*
X64945Y-19089D01*
X64945Y-18912D01*
X64877Y-18748D01*
X64752Y-18623D01*
X64589Y-18555D01*
X64412Y-18555D01*
X64248Y-18623D01*
X64123Y-18748D01*
X64055Y-18911D01*
X64055Y-19088D01*
X64123Y-19252D01*
X64248Y-19377D01*
X64411Y-19445D01*
X64588Y-19445D01*
X64752Y-19377D01*
X64877Y-19252D01*
X64945Y-19089D01*
X64945Y-19834D01*
X64907Y-19742D01*
X64825Y-19718D01*
X64782Y-19760D01*
X64782Y-19675D01*
X64758Y-19593D01*
X64583Y-19526D01*
X64395Y-19530D01*
X64242Y-19593D01*
X64218Y-19675D01*
X64500Y-19958D01*
X64782Y-19675D01*
X64782Y-19760D01*
X64542Y-20000D01*
X64825Y-20282D01*
X64907Y-20258D01*
X64974Y-20083D01*
X64974Y-26963D01*
X64464Y-27473D01*
X64464Y-27262D01*
X64464Y-27038D01*
X64378Y-26831D01*
X64220Y-26672D01*
X64012Y-26586D01*
X63788Y-26586D01*
X63581Y-26672D01*
X63422Y-26830D01*
X63336Y-27038D01*
X63336Y-27262D01*
X63422Y-27469D01*
X63580Y-27628D01*
X63788Y-27714D01*
X64012Y-27714D01*
X64219Y-27628D01*
X64378Y-27470D01*
X64464Y-27262D01*
X64464Y-27473D01*
X63547Y-28390D01*
X63516Y-28397D01*
X63444Y-28444D01*
X63397Y-28516D01*
X63380Y-28600D01*
X63380Y-29168D01*
X63156Y-28944D01*
X63084Y-28897D01*
X63000Y-28879D01*
X62995Y-28880D01*
X62464Y-28880D01*
X62464Y-27262D01*
X62464Y-27038D01*
X62378Y-26831D01*
X62220Y-26672D01*
X62012Y-26586D01*
X61788Y-26586D01*
X61581Y-26672D01*
X61422Y-26830D01*
X61336Y-27038D01*
X61336Y-27262D01*
X61422Y-27469D01*
X61580Y-27628D01*
X61788Y-27714D01*
X62012Y-27714D01*
X62219Y-27628D01*
X62378Y-27470D01*
X62464Y-27262D01*
X62464Y-28880D01*
X62191Y-28880D01*
X62056Y-28744D01*
X61984Y-28697D01*
X61900Y-28679D01*
X61895Y-28680D01*
X59691Y-28680D01*
X58820Y-27808D01*
X58820Y-23691D01*
X59091Y-23420D01*
X60095Y-23420D01*
X60100Y-23421D01*
X60100Y-23420D01*
X60184Y-23403D01*
X60256Y-23356D01*
X60991Y-22620D01*
X62195Y-22620D01*
X62200Y-22621D01*
X62200Y-22620D01*
X62284Y-22603D01*
X62356Y-22556D01*
X62791Y-22120D01*
X62995Y-22120D01*
X63000Y-22121D01*
X63000Y-22120D01*
X63084Y-22103D01*
X63156Y-22056D01*
X63391Y-21820D01*
X63795Y-21820D01*
X63800Y-21821D01*
X63800Y-21820D01*
X63884Y-21803D01*
X63956Y-21756D01*
X64308Y-21402D01*
X64411Y-21445D01*
X64588Y-21445D01*
X64752Y-21377D01*
X64877Y-21252D01*
X64945Y-21089D01*
X64945Y-20912D01*
X64877Y-20748D01*
X64782Y-20653D01*
X64782Y-20325D01*
X64500Y-20042D01*
X64458Y-20084D01*
X64458Y-20000D01*
X64175Y-19718D01*
X64093Y-19742D01*
X64026Y-19917D01*
X64030Y-20105D01*
X64093Y-20258D01*
X64175Y-20282D01*
X64458Y-20000D01*
X64458Y-20084D01*
X64218Y-20325D01*
X64242Y-20407D01*
X64417Y-20474D01*
X64605Y-20470D01*
X64758Y-20407D01*
X64782Y-20325D01*
X64782Y-20653D01*
X64752Y-20623D01*
X64589Y-20555D01*
X64412Y-20555D01*
X64248Y-20623D01*
X64123Y-20748D01*
X64055Y-20911D01*
X64055Y-21033D01*
X63974Y-21114D01*
X63974Y-20083D01*
X63970Y-19895D01*
X63945Y-19834D01*
X63945Y-19089D01*
X63945Y-18912D01*
X63877Y-18748D01*
X63752Y-18623D01*
X63589Y-18555D01*
X63412Y-18555D01*
X63248Y-18623D01*
X63123Y-18748D01*
X63055Y-18911D01*
X63055Y-19088D01*
X63123Y-19252D01*
X63248Y-19377D01*
X63411Y-19445D01*
X63588Y-19445D01*
X63752Y-19377D01*
X63877Y-19252D01*
X63945Y-19089D01*
X63945Y-19834D01*
X63907Y-19742D01*
X63825Y-19718D01*
X63782Y-19760D01*
X63782Y-19675D01*
X63758Y-19593D01*
X63583Y-19526D01*
X63395Y-19530D01*
X63242Y-19593D01*
X63218Y-19675D01*
X63500Y-19958D01*
X63782Y-19675D01*
X63782Y-19760D01*
X63542Y-20000D01*
X63825Y-20282D01*
X63907Y-20258D01*
X63974Y-20083D01*
X63974Y-21114D01*
X63906Y-21182D01*
X63945Y-21089D01*
X63945Y-20912D01*
X63877Y-20748D01*
X63782Y-20653D01*
X63782Y-20325D01*
X63500Y-20042D01*
X63458Y-20084D01*
X63458Y-20000D01*
X63175Y-19718D01*
X63093Y-19742D01*
X63026Y-19917D01*
X63030Y-20105D01*
X63093Y-20258D01*
X63175Y-20282D01*
X63458Y-20000D01*
X63458Y-20084D01*
X63218Y-20325D01*
X63242Y-20407D01*
X63417Y-20474D01*
X63605Y-20470D01*
X63758Y-20407D01*
X63782Y-20325D01*
X63782Y-20653D01*
X63752Y-20623D01*
X63589Y-20555D01*
X63412Y-20555D01*
X63248Y-20623D01*
X63123Y-20748D01*
X63055Y-20911D01*
X63055Y-21088D01*
X63068Y-21120D01*
X62974Y-21214D01*
X62974Y-20083D01*
X62970Y-19895D01*
X62945Y-19834D01*
X62945Y-19089D01*
X62945Y-18912D01*
X62877Y-18748D01*
X62752Y-18623D01*
X62589Y-18555D01*
X62412Y-18555D01*
X62248Y-18623D01*
X62123Y-18748D01*
X62055Y-18911D01*
X62055Y-19088D01*
X62123Y-19252D01*
X62248Y-19377D01*
X62411Y-19445D01*
X62588Y-19445D01*
X62752Y-19377D01*
X62877Y-19252D01*
X62945Y-19089D01*
X62945Y-19834D01*
X62907Y-19742D01*
X62825Y-19718D01*
X62782Y-19760D01*
X62782Y-19675D01*
X62758Y-19593D01*
X62583Y-19526D01*
X62395Y-19530D01*
X62242Y-19593D01*
X62218Y-19675D01*
X62500Y-19958D01*
X62782Y-19675D01*
X62782Y-19760D01*
X62542Y-20000D01*
X62825Y-20282D01*
X62907Y-20258D01*
X62974Y-20083D01*
X62974Y-21214D01*
X62808Y-21380D01*
X62744Y-21380D01*
X62752Y-21377D01*
X62877Y-21252D01*
X62945Y-21089D01*
X62945Y-20912D01*
X62877Y-20748D01*
X62782Y-20653D01*
X62782Y-20325D01*
X62500Y-20042D01*
X62458Y-20084D01*
X62458Y-20000D01*
X62175Y-19718D01*
X62093Y-19742D01*
X62026Y-19917D01*
X62030Y-20105D01*
X62093Y-20258D01*
X62175Y-20282D01*
X62458Y-20000D01*
X62458Y-20084D01*
X62218Y-20325D01*
X62242Y-20407D01*
X62417Y-20474D01*
X62605Y-20470D01*
X62758Y-20407D01*
X62782Y-20325D01*
X62782Y-20653D01*
X62752Y-20623D01*
X62589Y-20555D01*
X62412Y-20555D01*
X62248Y-20623D01*
X62123Y-20748D01*
X62055Y-20911D01*
X62055Y-21088D01*
X62068Y-21120D01*
X61974Y-21214D01*
X61974Y-20083D01*
X61970Y-19895D01*
X61945Y-19834D01*
X61945Y-19089D01*
X61945Y-18912D01*
X61877Y-18748D01*
X61752Y-18623D01*
X61589Y-18555D01*
X61412Y-18555D01*
X61248Y-18623D01*
X61123Y-18748D01*
X61055Y-18911D01*
X61055Y-19088D01*
X61123Y-19252D01*
X61248Y-19377D01*
X61411Y-19445D01*
X61588Y-19445D01*
X61752Y-19377D01*
X61877Y-19252D01*
X61945Y-19089D01*
X61945Y-19834D01*
X61907Y-19742D01*
X61825Y-19718D01*
X61782Y-19760D01*
X61782Y-19675D01*
X61758Y-19593D01*
X61583Y-19526D01*
X61395Y-19530D01*
X61242Y-19593D01*
X61218Y-19675D01*
X61500Y-19958D01*
X61782Y-19675D01*
X61782Y-19760D01*
X61542Y-20000D01*
X61825Y-20282D01*
X61907Y-20258D01*
X61974Y-20083D01*
X61974Y-21214D01*
X61608Y-21580D01*
X61231Y-21580D01*
X61379Y-21431D01*
X61411Y-21445D01*
X61588Y-21445D01*
X61752Y-21377D01*
X61877Y-21252D01*
X61945Y-21089D01*
X61945Y-20912D01*
X61877Y-20748D01*
X61782Y-20653D01*
X61782Y-20325D01*
X61500Y-20042D01*
X61458Y-20084D01*
X61458Y-20000D01*
X61175Y-19718D01*
X61093Y-19742D01*
X61026Y-19917D01*
X61030Y-20105D01*
X61093Y-20258D01*
X61175Y-20282D01*
X61458Y-20000D01*
X61458Y-20084D01*
X61218Y-20325D01*
X61242Y-20407D01*
X61417Y-20474D01*
X61605Y-20470D01*
X61758Y-20407D01*
X61782Y-20325D01*
X61782Y-20653D01*
X61752Y-20623D01*
X61589Y-20555D01*
X61412Y-20555D01*
X61248Y-20623D01*
X61123Y-20748D01*
X61055Y-20911D01*
X61055Y-21088D01*
X61068Y-21120D01*
X60974Y-21214D01*
X60974Y-20083D01*
X60970Y-19895D01*
X60945Y-19834D01*
X60945Y-19089D01*
X60945Y-18912D01*
X60877Y-18748D01*
X60752Y-18623D01*
X60589Y-18555D01*
X60412Y-18555D01*
X60248Y-18623D01*
X60123Y-18748D01*
X60055Y-18911D01*
X60055Y-19088D01*
X60123Y-19252D01*
X60248Y-19377D01*
X60411Y-19445D01*
X60588Y-19445D01*
X60752Y-19377D01*
X60877Y-19252D01*
X60945Y-19089D01*
X60945Y-19834D01*
X60907Y-19742D01*
X60825Y-19718D01*
X60782Y-19760D01*
X60782Y-19675D01*
X60758Y-19593D01*
X60583Y-19526D01*
X60395Y-19530D01*
X60242Y-19593D01*
X60218Y-19675D01*
X60500Y-19958D01*
X60782Y-19675D01*
X60782Y-19760D01*
X60542Y-20000D01*
X60825Y-20282D01*
X60907Y-20258D01*
X60974Y-20083D01*
X60974Y-21214D01*
X60808Y-21380D01*
X60744Y-21380D01*
X60752Y-21377D01*
X60877Y-21252D01*
X60945Y-21089D01*
X60945Y-20912D01*
X60877Y-20748D01*
X60782Y-20653D01*
X60782Y-20325D01*
X60500Y-20042D01*
X60458Y-20084D01*
X60458Y-20000D01*
X60175Y-19718D01*
X60093Y-19742D01*
X60026Y-19917D01*
X60030Y-20105D01*
X60093Y-20258D01*
X60175Y-20282D01*
X60458Y-20000D01*
X60458Y-20084D01*
X60218Y-20325D01*
X60242Y-20407D01*
X60417Y-20474D01*
X60605Y-20470D01*
X60758Y-20407D01*
X60782Y-20325D01*
X60782Y-20653D01*
X60752Y-20623D01*
X60589Y-20555D01*
X60412Y-20555D01*
X60248Y-20623D01*
X60123Y-20748D01*
X60055Y-20911D01*
X60055Y-21019D01*
X59974Y-21099D01*
X59974Y-20083D01*
X59970Y-19895D01*
X59945Y-19834D01*
X59945Y-19089D01*
X59945Y-18912D01*
X59877Y-18748D01*
X59752Y-18623D01*
X59589Y-18555D01*
X59412Y-18555D01*
X59248Y-18623D01*
X59123Y-18748D01*
X59055Y-18911D01*
X59055Y-19088D01*
X59123Y-19252D01*
X59248Y-19377D01*
X59411Y-19445D01*
X59588Y-19445D01*
X59752Y-19377D01*
X59877Y-19252D01*
X59945Y-19089D01*
X59945Y-19834D01*
X59907Y-19742D01*
X59825Y-19718D01*
X59782Y-19760D01*
X59782Y-19675D01*
X59758Y-19593D01*
X59583Y-19526D01*
X59395Y-19530D01*
X59242Y-19593D01*
X59218Y-19675D01*
X59500Y-19958D01*
X59782Y-19675D01*
X59782Y-19760D01*
X59542Y-20000D01*
X59825Y-20282D01*
X59907Y-20258D01*
X59974Y-20083D01*
X59974Y-21099D01*
X59915Y-21158D01*
X59945Y-21089D01*
X59945Y-20912D01*
X59877Y-20748D01*
X59782Y-20653D01*
X59782Y-20325D01*
X59500Y-20042D01*
X59458Y-20084D01*
X59458Y-20000D01*
X59175Y-19718D01*
X59093Y-19742D01*
X59026Y-19917D01*
X59030Y-20105D01*
X59093Y-20258D01*
X59175Y-20282D01*
X59458Y-20000D01*
X59458Y-20084D01*
X59218Y-20325D01*
X59242Y-20407D01*
X59417Y-20474D01*
X59605Y-20470D01*
X59758Y-20407D01*
X59782Y-20325D01*
X59782Y-20653D01*
X59752Y-20623D01*
X59589Y-20555D01*
X59412Y-20555D01*
X59248Y-20623D01*
X59123Y-20748D01*
X59055Y-20911D01*
X59055Y-21088D01*
X59064Y-21110D01*
X58974Y-21200D01*
X58974Y-20083D01*
X58970Y-19895D01*
X58945Y-19834D01*
X58945Y-19089D01*
X58945Y-18912D01*
X58877Y-18748D01*
X58752Y-18623D01*
X58589Y-18555D01*
X58412Y-18555D01*
X58248Y-18623D01*
X58123Y-18748D01*
X58055Y-18911D01*
X58055Y-19088D01*
X58123Y-19252D01*
X58248Y-19377D01*
X58411Y-19445D01*
X58588Y-19445D01*
X58752Y-19377D01*
X58877Y-19252D01*
X58945Y-19089D01*
X58945Y-19834D01*
X58907Y-19742D01*
X58825Y-19718D01*
X58782Y-19760D01*
X58782Y-19675D01*
X58758Y-19593D01*
X58583Y-19526D01*
X58395Y-19530D01*
X58242Y-19593D01*
X58218Y-19675D01*
X58500Y-19958D01*
X58782Y-19675D01*
X58782Y-19760D01*
X58542Y-20000D01*
X58825Y-20282D01*
X58907Y-20258D01*
X58974Y-20083D01*
X58974Y-21200D01*
X58804Y-21370D01*
X58759Y-21370D01*
X58877Y-21252D01*
X58945Y-21089D01*
X58945Y-20912D01*
X58877Y-20748D01*
X58782Y-20653D01*
X58782Y-20325D01*
X58500Y-20042D01*
X58458Y-20084D01*
X58458Y-20000D01*
X58175Y-19718D01*
X58093Y-19742D01*
X58026Y-19917D01*
X58030Y-20105D01*
X58093Y-20258D01*
X58175Y-20282D01*
X58458Y-20000D01*
X58458Y-20084D01*
X58218Y-20325D01*
X58242Y-20407D01*
X58417Y-20474D01*
X58605Y-20470D01*
X58758Y-20407D01*
X58782Y-20325D01*
X58782Y-20653D01*
X58752Y-20623D01*
X58589Y-20555D01*
X58412Y-20555D01*
X58248Y-20623D01*
X58123Y-20748D01*
X58055Y-20911D01*
X58055Y-20919D01*
X57974Y-21000D01*
X57974Y-20083D01*
X57970Y-19895D01*
X57945Y-19834D01*
X57945Y-19089D01*
X57945Y-18912D01*
X57877Y-18748D01*
X57752Y-18623D01*
X57589Y-18555D01*
X57412Y-18555D01*
X57248Y-18623D01*
X57123Y-18748D01*
X57055Y-18911D01*
X57055Y-19088D01*
X57123Y-19252D01*
X57248Y-19377D01*
X57411Y-19445D01*
X57588Y-19445D01*
X57752Y-19377D01*
X57877Y-19252D01*
X57945Y-19089D01*
X57945Y-19834D01*
X57907Y-19742D01*
X57825Y-19718D01*
X57782Y-19760D01*
X57782Y-19675D01*
X57758Y-19593D01*
X57583Y-19526D01*
X57395Y-19530D01*
X57242Y-19593D01*
X57218Y-19675D01*
X57500Y-19958D01*
X57782Y-19675D01*
X57782Y-19760D01*
X57542Y-20000D01*
X57825Y-20282D01*
X57907Y-20258D01*
X57974Y-20083D01*
X57974Y-21000D01*
X57945Y-21029D01*
X57945Y-20912D01*
X57877Y-20748D01*
X57782Y-20653D01*
X57782Y-20325D01*
X57500Y-20042D01*
X57458Y-20084D01*
X57458Y-20000D01*
X57175Y-19718D01*
X57093Y-19742D01*
X57026Y-19917D01*
X57030Y-20105D01*
X57093Y-20258D01*
X57175Y-20282D01*
X57458Y-20000D01*
X57458Y-20084D01*
X57218Y-20325D01*
X57242Y-20407D01*
X57417Y-20474D01*
X57605Y-20470D01*
X57758Y-20407D01*
X57782Y-20325D01*
X57782Y-20653D01*
X57752Y-20623D01*
X57589Y-20555D01*
X57412Y-20555D01*
X57248Y-20623D01*
X57123Y-20748D01*
X57055Y-20911D01*
X57055Y-21088D01*
X57063Y-21109D01*
X56982Y-21190D01*
X56982Y-20316D01*
X56982Y-20234D01*
X56982Y-20081D01*
X56982Y-19919D01*
X56982Y-19766D01*
X56982Y-19684D01*
X56950Y-19608D01*
X56946Y-19603D01*
X56946Y-19309D01*
X56946Y-19241D01*
X56946Y-18691D01*
X56920Y-18628D01*
X56872Y-18580D01*
X56809Y-18554D01*
X56741Y-18554D01*
X56191Y-18554D01*
X56128Y-18580D01*
X56080Y-18628D01*
X56054Y-18691D01*
X56054Y-18759D01*
X56054Y-19309D01*
X56080Y-19372D01*
X56128Y-19420D01*
X56191Y-19446D01*
X56259Y-19446D01*
X56809Y-19446D01*
X56872Y-19420D01*
X56920Y-19372D01*
X56946Y-19309D01*
X56946Y-19603D01*
X56892Y-19549D01*
X56816Y-19518D01*
X56581Y-19518D01*
X56530Y-19569D01*
X56530Y-19970D01*
X56931Y-19970D01*
X56982Y-19919D01*
X56982Y-20081D01*
X56931Y-20030D01*
X56530Y-20030D01*
X56530Y-20431D01*
X56581Y-20482D01*
X56816Y-20482D01*
X56892Y-20451D01*
X56950Y-20392D01*
X56982Y-20316D01*
X56982Y-21190D01*
X56946Y-21227D01*
X56946Y-20691D01*
X56920Y-20628D01*
X56872Y-20580D01*
X56809Y-20554D01*
X56741Y-20554D01*
X56470Y-20554D01*
X56470Y-20431D01*
X56470Y-20030D01*
X56470Y-19970D01*
X56470Y-19569D01*
X56419Y-19518D01*
X56184Y-19518D01*
X56108Y-19549D01*
X56050Y-19608D01*
X56018Y-19684D01*
X56018Y-19766D01*
X56018Y-19919D01*
X56069Y-19970D01*
X56470Y-19970D01*
X56470Y-20030D01*
X56069Y-20030D01*
X56018Y-20081D01*
X56018Y-20234D01*
X56018Y-20316D01*
X56050Y-20392D01*
X56108Y-20451D01*
X56184Y-20482D01*
X56419Y-20482D01*
X56470Y-20431D01*
X56470Y-20554D01*
X56191Y-20554D01*
X56128Y-20580D01*
X56080Y-20628D01*
X56054Y-20691D01*
X56054Y-20759D01*
X56054Y-21309D01*
X56080Y-21372D01*
X56128Y-21420D01*
X56191Y-21446D01*
X56259Y-21446D01*
X56270Y-21446D01*
X56270Y-29495D01*
X56269Y-29500D01*
X56288Y-29588D01*
X56337Y-29663D01*
X58470Y-31795D01*
X58470Y-34300D01*
X58488Y-34388D01*
X58537Y-34463D01*
X58612Y-34512D01*
X58700Y-34530D01*
X59842Y-34530D01*
X59904Y-34592D01*
X60031Y-34645D01*
X60168Y-34645D01*
X60295Y-34593D01*
X60392Y-34496D01*
X60415Y-34440D01*
X60835Y-34860D01*
X60837Y-34863D01*
X60912Y-34912D01*
X61000Y-34930D01*
X64942Y-34930D01*
X65004Y-34992D01*
X65131Y-35045D01*
X65268Y-35045D01*
X65395Y-34993D01*
X65492Y-34896D01*
X65545Y-34769D01*
X65545Y-34632D01*
X65493Y-34505D01*
X65396Y-34408D01*
X65269Y-34355D01*
X65132Y-34355D01*
X65005Y-34407D01*
X64942Y-34470D01*
X61095Y-34470D01*
X60363Y-33737D01*
X60288Y-33688D01*
X60200Y-33669D01*
X60195Y-33670D01*
X59195Y-33670D01*
X59130Y-33604D01*
X59130Y-31744D01*
X59131Y-31745D01*
X59268Y-31745D01*
X59395Y-31693D01*
X59492Y-31596D01*
X59492Y-31594D01*
X59537Y-31663D01*
X59555Y-31680D01*
X59555Y-31768D01*
X59607Y-31895D01*
X59704Y-31992D01*
X59831Y-32045D01*
X59968Y-32045D01*
X60095Y-31993D01*
X60192Y-31896D01*
X60215Y-31838D01*
X60231Y-31845D01*
X60368Y-31845D01*
X60495Y-31793D01*
X60592Y-31696D01*
X60645Y-31569D01*
X60645Y-31508D01*
X60700Y-31520D01*
X62332Y-31520D01*
X62404Y-31592D01*
X62531Y-31645D01*
X62668Y-31645D01*
X62795Y-31593D01*
X62892Y-31496D01*
X62945Y-31369D01*
X62945Y-31232D01*
X62893Y-31105D01*
X62796Y-31008D01*
X62669Y-30955D01*
X62532Y-30955D01*
X62405Y-31007D01*
X62332Y-31080D01*
X60791Y-31080D01*
X59531Y-29820D01*
X61332Y-29820D01*
X61404Y-29892D01*
X61531Y-29945D01*
X61668Y-29945D01*
X61795Y-29893D01*
X61892Y-29796D01*
X61945Y-29669D01*
X61950Y-29670D01*
X62582Y-29670D01*
X62654Y-29742D01*
X62781Y-29795D01*
X62918Y-29795D01*
X63045Y-29743D01*
X63080Y-29708D01*
X63080Y-32795D01*
X63079Y-32800D01*
X63097Y-32884D01*
X63144Y-32956D01*
X63242Y-33053D01*
X63244Y-33056D01*
X63316Y-33103D01*
X63400Y-33120D01*
X63532Y-33120D01*
X63604Y-33192D01*
X63731Y-33245D01*
X63868Y-33245D01*
X63995Y-33193D01*
X64050Y-33138D01*
X64104Y-33192D01*
X64231Y-33245D01*
X64368Y-33245D01*
X64495Y-33193D01*
X64592Y-33096D01*
X64645Y-32969D01*
X64645Y-32832D01*
X64593Y-32705D01*
X64496Y-32608D01*
X64369Y-32555D01*
X64266Y-32555D01*
X63820Y-32108D01*
X63820Y-29808D01*
X63904Y-29892D01*
X64031Y-29945D01*
X64168Y-29945D01*
X64295Y-29893D01*
X64368Y-29820D01*
X68432Y-29820D01*
X68504Y-29892D01*
X68631Y-29945D01*
X68768Y-29945D01*
X68895Y-29893D01*
X68992Y-29796D01*
X69045Y-29669D01*
X69045Y-29532D01*
X68993Y-29405D01*
X68896Y-29308D01*
X68769Y-29255D01*
X68632Y-29255D01*
X68505Y-29307D01*
X68432Y-29380D01*
X64368Y-29380D01*
X64296Y-29308D01*
X64169Y-29255D01*
X64032Y-29255D01*
X63905Y-29307D01*
X63820Y-29392D01*
X63820Y-28741D01*
X65653Y-26907D01*
X65655Y-26906D01*
X65656Y-26906D01*
X65703Y-26834D01*
X65720Y-26750D01*
X65720Y-26108D01*
X65780Y-26168D01*
X65780Y-27095D01*
X65779Y-27100D01*
X65797Y-27184D01*
X65844Y-27256D01*
X66442Y-27853D01*
X66444Y-27856D01*
X66486Y-27884D01*
X66515Y-27903D01*
X66516Y-27903D01*
X66600Y-27920D01*
X68932Y-27920D01*
X69004Y-27992D01*
X69131Y-28045D01*
X69268Y-28045D01*
X69395Y-27993D01*
X69492Y-27896D01*
X69545Y-27769D01*
X69545Y-37354D01*
X58045Y-37354D01*
X58045Y-31769D01*
X58045Y-31632D01*
X57993Y-31505D01*
X57896Y-31408D01*
X57769Y-31355D01*
X57632Y-31355D01*
X57505Y-31407D01*
X57408Y-31504D01*
X57355Y-31631D01*
X57355Y-31733D01*
X56944Y-32144D01*
X56897Y-32216D01*
X56879Y-32300D01*
X56880Y-32304D01*
X56880Y-32332D01*
X56808Y-32404D01*
X56773Y-32485D01*
X56759Y-32471D01*
X56759Y-31429D01*
X56792Y-31396D01*
X56845Y-31269D01*
X56845Y-31132D01*
X56793Y-31005D01*
X56696Y-30908D01*
X56569Y-30855D01*
X56432Y-30855D01*
X56305Y-30907D01*
X56208Y-31004D01*
X56155Y-31131D01*
X56155Y-31268D01*
X56207Y-31395D01*
X56241Y-31429D01*
X56241Y-32471D01*
X56208Y-32504D01*
X56155Y-32631D01*
X56155Y-32768D01*
X56207Y-32895D01*
X56304Y-32992D01*
X56431Y-33045D01*
X56568Y-33045D01*
X56695Y-32993D01*
X56792Y-32896D01*
X56826Y-32814D01*
X56904Y-32892D01*
X57031Y-32945D01*
X57168Y-32945D01*
X57295Y-32893D01*
X57392Y-32796D01*
X57445Y-32669D01*
X57445Y-32532D01*
X57393Y-32405D01*
X57349Y-32361D01*
X57666Y-32045D01*
X57768Y-32045D01*
X57895Y-31993D01*
X57992Y-31896D01*
X58045Y-31769D01*
X58045Y-37354D01*
X55640Y-37354D01*
X55640Y-24341D01*
X55640Y-24081D01*
X55640Y-23919D01*
X55640Y-23659D01*
X55609Y-23583D01*
X55550Y-23525D01*
X55474Y-23493D01*
X55392Y-23493D01*
X55081Y-23493D01*
X55030Y-23544D01*
X55030Y-23970D01*
X55589Y-23970D01*
X55640Y-23919D01*
X55640Y-24081D01*
X55589Y-24030D01*
X55030Y-24030D01*
X55030Y-24456D01*
X55081Y-24507D01*
X55392Y-24507D01*
X55474Y-24507D01*
X55550Y-24475D01*
X55609Y-24417D01*
X55640Y-24341D01*
X55640Y-37354D01*
X55606Y-37354D01*
X55606Y-26093D01*
X55606Y-25909D01*
X55606Y-25093D01*
X55606Y-24909D01*
X55536Y-24739D01*
X55406Y-24609D01*
X55237Y-24538D01*
X55053Y-24538D01*
X54970Y-24538D01*
X54970Y-24456D01*
X54970Y-24030D01*
X54970Y-23970D01*
X54970Y-23544D01*
X54919Y-23493D01*
X54608Y-23493D01*
X54526Y-23493D01*
X54450Y-23525D01*
X54391Y-23583D01*
X54360Y-23659D01*
X54360Y-23919D01*
X54411Y-23970D01*
X54970Y-23970D01*
X54970Y-24030D01*
X54411Y-24030D01*
X54360Y-24081D01*
X54360Y-24341D01*
X54391Y-24417D01*
X54450Y-24475D01*
X54526Y-24507D01*
X54608Y-24507D01*
X54919Y-24507D01*
X54970Y-24456D01*
X54970Y-24538D01*
X54765Y-24538D01*
X54595Y-24608D01*
X54512Y-24691D01*
X53900Y-24691D01*
X53782Y-24715D01*
X53748Y-24737D01*
X53681Y-24782D01*
X52982Y-25482D01*
X52915Y-25582D01*
X52891Y-25700D01*
X52891Y-28900D01*
X52915Y-29018D01*
X52965Y-29092D01*
X53007Y-29195D01*
X53104Y-29292D01*
X53231Y-29345D01*
X53368Y-29345D01*
X53495Y-29293D01*
X53592Y-29196D01*
X53645Y-29069D01*
X53645Y-28932D01*
X53593Y-28805D01*
X53509Y-28721D01*
X53509Y-25827D01*
X54027Y-25309D01*
X54512Y-25309D01*
X54594Y-25391D01*
X54763Y-25462D01*
X54947Y-25462D01*
X55235Y-25462D01*
X55405Y-25392D01*
X55535Y-25262D01*
X55606Y-25093D01*
X55606Y-25909D01*
X55536Y-25739D01*
X55406Y-25609D01*
X55237Y-25538D01*
X55053Y-25538D01*
X54765Y-25538D01*
X54595Y-25608D01*
X54465Y-25738D01*
X54394Y-25907D01*
X54394Y-26091D01*
X54464Y-26261D01*
X54594Y-26391D01*
X54763Y-26462D01*
X54947Y-26462D01*
X55235Y-26462D01*
X55405Y-26392D01*
X55535Y-26262D01*
X55606Y-26093D01*
X55606Y-37354D01*
X51446Y-37354D01*
X51446Y-18246D01*
X70554Y-18246D01*
X70554Y-37354D01*
X70554Y-37354D01*
G37*
G54D22*
X70554Y-37354D02*
X70445Y-37354D01*
X70445Y-27069D01*
X70445Y-26932D01*
X70393Y-26805D01*
X70296Y-26708D01*
X70169Y-26655D01*
X70032Y-26655D01*
X69905Y-26707D01*
X69832Y-26780D01*
X68468Y-26780D01*
X68396Y-26708D01*
X68269Y-26655D01*
X68132Y-26655D01*
X68005Y-26707D01*
X67908Y-26804D01*
X67855Y-26931D01*
X67855Y-27068D01*
X67907Y-27195D01*
X68004Y-27292D01*
X68131Y-27345D01*
X68268Y-27345D01*
X68395Y-27293D01*
X68468Y-27220D01*
X69832Y-27220D01*
X69904Y-27292D01*
X70031Y-27345D01*
X70168Y-27345D01*
X70295Y-27293D01*
X70392Y-27196D01*
X70445Y-27069D01*
X70445Y-37354D01*
X69545Y-37354D01*
X69545Y-27769D01*
X69545Y-27632D01*
X69493Y-27505D01*
X69396Y-27408D01*
X69269Y-27355D01*
X69132Y-27355D01*
X69005Y-27407D01*
X68932Y-27480D01*
X67628Y-27480D01*
X67628Y-24109D01*
X67628Y-23891D01*
X67615Y-23839D01*
X67517Y-23667D01*
X67360Y-23545D01*
X67169Y-23493D01*
X67030Y-23493D01*
X67030Y-23970D01*
X67588Y-23970D01*
X67628Y-23891D01*
X67628Y-24109D01*
X67588Y-24030D01*
X67030Y-24030D01*
X67030Y-24507D01*
X67169Y-24507D01*
X67360Y-24455D01*
X67517Y-24333D01*
X67615Y-24161D01*
X67628Y-24109D01*
X67628Y-27480D01*
X67606Y-27480D01*
X67606Y-25093D01*
X67606Y-24909D01*
X67536Y-24739D01*
X67406Y-24609D01*
X67237Y-24538D01*
X67053Y-24538D01*
X66970Y-24538D01*
X66970Y-24507D01*
X66970Y-24030D01*
X66970Y-23970D01*
X66970Y-23493D01*
X66831Y-23493D01*
X66640Y-23545D01*
X66483Y-23667D01*
X66385Y-23839D01*
X66372Y-23891D01*
X66412Y-23970D01*
X66970Y-23970D01*
X66970Y-24030D01*
X66412Y-24030D01*
X66372Y-24109D01*
X66385Y-24161D01*
X66483Y-24333D01*
X66640Y-24455D01*
X66831Y-24507D01*
X66970Y-24507D01*
X66970Y-24538D01*
X66765Y-24538D01*
X66595Y-24608D01*
X66465Y-24738D01*
X66394Y-24907D01*
X66394Y-25091D01*
X66464Y-25261D01*
X66594Y-25391D01*
X66763Y-25462D01*
X66947Y-25462D01*
X67235Y-25462D01*
X67405Y-25392D01*
X67535Y-25262D01*
X67606Y-25093D01*
X67606Y-27480D01*
X67604Y-27480D01*
X67604Y-26334D01*
X67604Y-26266D01*
X67604Y-25666D01*
X67578Y-25603D01*
X67530Y-25555D01*
X67467Y-25529D01*
X67399Y-25529D01*
X66533Y-25529D01*
X66470Y-25555D01*
X66422Y-25603D01*
X66396Y-25666D01*
X66396Y-25734D01*
X66396Y-26334D01*
X66422Y-26397D01*
X66470Y-26445D01*
X66533Y-26471D01*
X66601Y-26471D01*
X67467Y-26471D01*
X67530Y-26445D01*
X67578Y-26397D01*
X67604Y-26334D01*
X67604Y-27480D01*
X66691Y-27480D01*
X66220Y-27008D01*
X66220Y-26168D01*
X66292Y-26096D01*
X66345Y-25969D01*
X66345Y-25832D01*
X66293Y-25705D01*
X66196Y-25608D01*
X66069Y-25555D01*
X65974Y-25555D01*
X65974Y-20083D01*
X65970Y-19895D01*
X65945Y-19834D01*
X65945Y-19089D01*
X65945Y-18912D01*
X65877Y-18748D01*
X65752Y-18623D01*
X65589Y-18555D01*
X65412Y-18555D01*
X65248Y-18623D01*
X65123Y-18748D01*
X65055Y-18911D01*
X65055Y-19088D01*
X65123Y-19252D01*
X65248Y-19377D01*
X65411Y-19445D01*
X65588Y-19445D01*
X65752Y-19377D01*
X65877Y-19252D01*
X65945Y-19089D01*
X65945Y-19834D01*
X65907Y-19742D01*
X65825Y-19718D01*
X65782Y-19760D01*
X65782Y-19675D01*
X65758Y-19593D01*
X65583Y-19526D01*
X65395Y-19530D01*
X65242Y-19593D01*
X65218Y-19675D01*
X65500Y-19958D01*
X65782Y-19675D01*
X65782Y-19760D01*
X65542Y-20000D01*
X65825Y-20282D01*
X65907Y-20258D01*
X65974Y-20083D01*
X65974Y-25555D01*
X65932Y-25555D01*
X65805Y-25607D01*
X65720Y-25692D01*
X65720Y-21390D01*
X65752Y-21377D01*
X65877Y-21252D01*
X65945Y-21089D01*
X65945Y-20912D01*
X65877Y-20748D01*
X65782Y-20653D01*
X65782Y-20325D01*
X65500Y-20042D01*
X65458Y-20084D01*
X65458Y-20000D01*
X65175Y-19718D01*
X65093Y-19742D01*
X65026Y-19917D01*
X65030Y-20105D01*
X65093Y-20258D01*
X65175Y-20282D01*
X65458Y-20000D01*
X65458Y-20084D01*
X65218Y-20325D01*
X65242Y-20407D01*
X65417Y-20474D01*
X65605Y-20470D01*
X65758Y-20407D01*
X65782Y-20325D01*
X65782Y-20653D01*
X65752Y-20623D01*
X65589Y-20555D01*
X65412Y-20555D01*
X65248Y-20623D01*
X65123Y-20748D01*
X65055Y-20911D01*
X65055Y-21088D01*
X65123Y-21252D01*
X65248Y-21377D01*
X65280Y-21390D01*
X65280Y-26658D01*
X64974Y-26963D01*
X64974Y-20083D01*
X64970Y-19895D01*
X64945Y-19834D01*
X64945Y-19089D01*
X64945Y-18912D01*
X64877Y-18748D01*
X64752Y-18623D01*
X64589Y-18555D01*
X64412Y-18555D01*
X64248Y-18623D01*
X64123Y-18748D01*
X64055Y-18911D01*
X64055Y-19088D01*
X64123Y-19252D01*
X64248Y-19377D01*
X64411Y-19445D01*
X64588Y-19445D01*
X64752Y-19377D01*
X64877Y-19252D01*
X64945Y-19089D01*
X64945Y-19834D01*
X64907Y-19742D01*
X64825Y-19718D01*
X64782Y-19760D01*
X64782Y-19675D01*
X64758Y-19593D01*
X64583Y-19526D01*
X64395Y-19530D01*
X64242Y-19593D01*
X64218Y-19675D01*
X64500Y-19958D01*
X64782Y-19675D01*
X64782Y-19760D01*
X64542Y-20000D01*
X64825Y-20282D01*
X64907Y-20258D01*
X64974Y-20083D01*
X64974Y-26963D01*
X64464Y-27473D01*
X64464Y-27262D01*
X64464Y-27038D01*
X64378Y-26831D01*
X64220Y-26672D01*
X64012Y-26586D01*
X63788Y-26586D01*
X63581Y-26672D01*
X63422Y-26830D01*
X63336Y-27038D01*
X63336Y-27262D01*
X63422Y-27469D01*
X63580Y-27628D01*
X63788Y-27714D01*
X64012Y-27714D01*
X64219Y-27628D01*
X64378Y-27470D01*
X64464Y-27262D01*
X64464Y-27473D01*
X63547Y-28390D01*
X63516Y-28397D01*
X63444Y-28444D01*
X63397Y-28516D01*
X63380Y-28600D01*
X63380Y-29168D01*
X63156Y-28944D01*
X63084Y-28897D01*
X63000Y-28879D01*
X62995Y-28880D01*
X62464Y-28880D01*
X62464Y-27262D01*
X62464Y-27038D01*
X62378Y-26831D01*
X62220Y-26672D01*
X62012Y-26586D01*
X61788Y-26586D01*
X61581Y-26672D01*
X61422Y-26830D01*
X61336Y-27038D01*
X61336Y-27262D01*
X61422Y-27469D01*
X61580Y-27628D01*
X61788Y-27714D01*
X62012Y-27714D01*
X62219Y-27628D01*
X62378Y-27470D01*
X62464Y-27262D01*
X62464Y-28880D01*
X62191Y-28880D01*
X62056Y-28744D01*
X61984Y-28697D01*
X61900Y-28679D01*
X61895Y-28680D01*
X59691Y-28680D01*
X58820Y-27808D01*
X58820Y-23691D01*
X59091Y-23420D01*
X60095Y-23420D01*
X60100Y-23421D01*
X60100Y-23420D01*
X60184Y-23403D01*
X60256Y-23356D01*
X60991Y-22620D01*
X62195Y-22620D01*
X62200Y-22621D01*
X62200Y-22620D01*
X62284Y-22603D01*
X62356Y-22556D01*
X62791Y-22120D01*
X62995Y-22120D01*
X63000Y-22121D01*
X63000Y-22120D01*
X63084Y-22103D01*
X63156Y-22056D01*
X63391Y-21820D01*
X63795Y-21820D01*
X63800Y-21821D01*
X63800Y-21820D01*
X63884Y-21803D01*
X63956Y-21756D01*
X64308Y-21402D01*
X64411Y-21445D01*
X64588Y-21445D01*
X64752Y-21377D01*
X64877Y-21252D01*
X64945Y-21089D01*
X64945Y-20912D01*
X64877Y-20748D01*
X64782Y-20653D01*
X64782Y-20325D01*
X64500Y-20042D01*
X64458Y-20084D01*
X64458Y-20000D01*
X64175Y-19718D01*
X64093Y-19742D01*
X64026Y-19917D01*
X64030Y-20105D01*
X64093Y-20258D01*
X64175Y-20282D01*
X64458Y-20000D01*
X64458Y-20084D01*
X64218Y-20325D01*
X64242Y-20407D01*
X64417Y-20474D01*
X64605Y-20470D01*
X64758Y-20407D01*
X64782Y-20325D01*
X64782Y-20653D01*
X64752Y-20623D01*
X64589Y-20555D01*
X64412Y-20555D01*
X64248Y-20623D01*
X64123Y-20748D01*
X64055Y-20911D01*
X64055Y-21033D01*
X63974Y-21114D01*
X63974Y-20083D01*
X63970Y-19895D01*
X63945Y-19834D01*
X63945Y-19089D01*
X63945Y-18912D01*
X63877Y-18748D01*
X63752Y-18623D01*
X63589Y-18555D01*
X63412Y-18555D01*
X63248Y-18623D01*
X63123Y-18748D01*
X63055Y-18911D01*
X63055Y-19088D01*
X63123Y-19252D01*
X63248Y-19377D01*
X63411Y-19445D01*
X63588Y-19445D01*
X63752Y-19377D01*
X63877Y-19252D01*
X63945Y-19089D01*
X63945Y-19834D01*
X63907Y-19742D01*
X63825Y-19718D01*
X63782Y-19760D01*
X63782Y-19675D01*
X63758Y-19593D01*
X63583Y-19526D01*
X63395Y-19530D01*
X63242Y-19593D01*
X63218Y-19675D01*
X63500Y-19958D01*
X63782Y-19675D01*
X63782Y-19760D01*
X63542Y-20000D01*
X63825Y-20282D01*
X63907Y-20258D01*
X63974Y-20083D01*
X63974Y-21114D01*
X63906Y-21182D01*
X63945Y-21089D01*
X63945Y-20912D01*
X63877Y-20748D01*
X63782Y-20653D01*
X63782Y-20325D01*
X63500Y-20042D01*
X63458Y-20084D01*
X63458Y-20000D01*
X63175Y-19718D01*
X63093Y-19742D01*
X63026Y-19917D01*
X63030Y-20105D01*
X63093Y-20258D01*
X63175Y-20282D01*
X63458Y-20000D01*
X63458Y-20084D01*
X63218Y-20325D01*
X63242Y-20407D01*
X63417Y-20474D01*
X63605Y-20470D01*
X63758Y-20407D01*
X63782Y-20325D01*
X63782Y-20653D01*
X63752Y-20623D01*
X63589Y-20555D01*
X63412Y-20555D01*
X63248Y-20623D01*
X63123Y-20748D01*
X63055Y-20911D01*
X63055Y-21088D01*
X63068Y-21120D01*
X62974Y-21214D01*
X62974Y-20083D01*
X62970Y-19895D01*
X62945Y-19834D01*
X62945Y-19089D01*
X62945Y-18912D01*
X62877Y-18748D01*
X62752Y-18623D01*
X62589Y-18555D01*
X62412Y-18555D01*
X62248Y-18623D01*
X62123Y-18748D01*
X62055Y-18911D01*
X62055Y-19088D01*
X62123Y-19252D01*
X62248Y-19377D01*
X62411Y-19445D01*
X62588Y-19445D01*
X62752Y-19377D01*
X62877Y-19252D01*
X62945Y-19089D01*
X62945Y-19834D01*
X62907Y-19742D01*
X62825Y-19718D01*
X62782Y-19760D01*
X62782Y-19675D01*
X62758Y-19593D01*
X62583Y-19526D01*
X62395Y-19530D01*
X62242Y-19593D01*
X62218Y-19675D01*
X62500Y-19958D01*
X62782Y-19675D01*
X62782Y-19760D01*
X62542Y-20000D01*
X62825Y-20282D01*
X62907Y-20258D01*
X62974Y-20083D01*
X62974Y-21214D01*
X62808Y-21380D01*
X62744Y-21380D01*
X62752Y-21377D01*
X62877Y-21252D01*
X62945Y-21089D01*
X62945Y-20912D01*
X62877Y-20748D01*
X62782Y-20653D01*
X62782Y-20325D01*
X62500Y-20042D01*
X62458Y-20084D01*
X62458Y-20000D01*
X62175Y-19718D01*
X62093Y-19742D01*
X62026Y-19917D01*
X62030Y-20105D01*
X62093Y-20258D01*
X62175Y-20282D01*
X62458Y-20000D01*
X62458Y-20084D01*
X62218Y-20325D01*
X62242Y-20407D01*
X62417Y-20474D01*
X62605Y-20470D01*
X62758Y-20407D01*
X62782Y-20325D01*
X62782Y-20653D01*
X62752Y-20623D01*
X62589Y-20555D01*
X62412Y-20555D01*
X62248Y-20623D01*
X62123Y-20748D01*
X62055Y-20911D01*
X62055Y-21088D01*
X62068Y-21120D01*
X61974Y-21214D01*
X61974Y-20083D01*
X61970Y-19895D01*
X61945Y-19834D01*
X61945Y-19089D01*
X61945Y-18912D01*
X61877Y-18748D01*
X61752Y-18623D01*
X61589Y-18555D01*
X61412Y-18555D01*
X61248Y-18623D01*
X61123Y-18748D01*
X61055Y-18911D01*
X61055Y-19088D01*
X61123Y-19252D01*
X61248Y-19377D01*
X61411Y-19445D01*
X61588Y-19445D01*
X61752Y-19377D01*
X61877Y-19252D01*
X61945Y-19089D01*
X61945Y-19834D01*
X61907Y-19742D01*
X61825Y-19718D01*
X61782Y-19760D01*
X61782Y-19675D01*
X61758Y-19593D01*
X61583Y-19526D01*
X61395Y-19530D01*
X61242Y-19593D01*
X61218Y-19675D01*
X61500Y-19958D01*
X61782Y-19675D01*
X61782Y-19760D01*
X61542Y-20000D01*
X61825Y-20282D01*
X61907Y-20258D01*
X61974Y-20083D01*
X61974Y-21214D01*
X61608Y-21580D01*
X61231Y-21580D01*
X61379Y-21431D01*
X61411Y-21445D01*
X61588Y-21445D01*
X61752Y-21377D01*
X61877Y-21252D01*
X61945Y-21089D01*
X61945Y-20912D01*
X61877Y-20748D01*
X61782Y-20653D01*
X61782Y-20325D01*
X61500Y-20042D01*
X61458Y-20084D01*
X61458Y-20000D01*
X61175Y-19718D01*
X61093Y-19742D01*
X61026Y-19917D01*
X61030Y-20105D01*
X61093Y-20258D01*
X61175Y-20282D01*
X61458Y-20000D01*
X61458Y-20084D01*
X61218Y-20325D01*
X61242Y-20407D01*
X61417Y-20474D01*
X61605Y-20470D01*
X61758Y-20407D01*
X61782Y-20325D01*
X61782Y-20653D01*
X61752Y-20623D01*
X61589Y-20555D01*
X61412Y-20555D01*
X61248Y-20623D01*
X61123Y-20748D01*
X61055Y-20911D01*
X61055Y-21088D01*
X61068Y-21120D01*
X60974Y-21214D01*
X60974Y-20083D01*
X60970Y-19895D01*
X60945Y-19834D01*
X60945Y-19089D01*
X60945Y-18912D01*
X60877Y-18748D01*
X60752Y-18623D01*
X60589Y-18555D01*
X60412Y-18555D01*
X60248Y-18623D01*
X60123Y-18748D01*
X60055Y-18911D01*
X60055Y-19088D01*
X60123Y-19252D01*
X60248Y-19377D01*
X60411Y-19445D01*
X60588Y-19445D01*
X60752Y-19377D01*
X60877Y-19252D01*
X60945Y-19089D01*
X60945Y-19834D01*
X60907Y-19742D01*
X60825Y-19718D01*
X60782Y-19760D01*
X60782Y-19675D01*
X60758Y-19593D01*
X60583Y-19526D01*
X60395Y-19530D01*
X60242Y-19593D01*
X60218Y-19675D01*
X60500Y-19958D01*
X60782Y-19675D01*
X60782Y-19760D01*
X60542Y-20000D01*
X60825Y-20282D01*
X60907Y-20258D01*
X60974Y-20083D01*
X60974Y-21214D01*
X60808Y-21380D01*
X60744Y-21380D01*
X60752Y-21377D01*
X60877Y-21252D01*
X60945Y-21089D01*
X60945Y-20912D01*
X60877Y-20748D01*
X60782Y-20653D01*
X60782Y-20325D01*
X60500Y-20042D01*
X60458Y-20084D01*
X60458Y-20000D01*
X60175Y-19718D01*
X60093Y-19742D01*
X60026Y-19917D01*
X60030Y-20105D01*
X60093Y-20258D01*
X60175Y-20282D01*
X60458Y-20000D01*
X60458Y-20084D01*
X60218Y-20325D01*
X60242Y-20407D01*
X60417Y-20474D01*
X60605Y-20470D01*
X60758Y-20407D01*
X60782Y-20325D01*
X60782Y-20653D01*
X60752Y-20623D01*
X60589Y-20555D01*
X60412Y-20555D01*
X60248Y-20623D01*
X60123Y-20748D01*
X60055Y-20911D01*
X60055Y-21019D01*
X59974Y-21099D01*
X59974Y-20083D01*
X59970Y-19895D01*
X59945Y-19834D01*
X59945Y-19089D01*
X59945Y-18912D01*
X59877Y-18748D01*
X59752Y-18623D01*
X59589Y-18555D01*
X59412Y-18555D01*
X59248Y-18623D01*
X59123Y-18748D01*
X59055Y-18911D01*
X59055Y-19088D01*
X59123Y-19252D01*
X59248Y-19377D01*
X59411Y-19445D01*
X59588Y-19445D01*
X59752Y-19377D01*
X59877Y-19252D01*
X59945Y-19089D01*
X59945Y-19834D01*
X59907Y-19742D01*
X59825Y-19718D01*
X59782Y-19760D01*
X59782Y-19675D01*
X59758Y-19593D01*
X59583Y-19526D01*
X59395Y-19530D01*
X59242Y-19593D01*
X59218Y-19675D01*
X59500Y-19958D01*
X59782Y-19675D01*
X59782Y-19760D01*
X59542Y-20000D01*
X59825Y-20282D01*
X59907Y-20258D01*
X59974Y-20083D01*
X59974Y-21099D01*
X59915Y-21158D01*
X59945Y-21089D01*
X59945Y-20912D01*
X59877Y-20748D01*
X59782Y-20653D01*
X59782Y-20325D01*
X59500Y-20042D01*
X59458Y-20084D01*
X59458Y-20000D01*
X59175Y-19718D01*
X59093Y-19742D01*
X59026Y-19917D01*
X59030Y-20105D01*
X59093Y-20258D01*
X59175Y-20282D01*
X59458Y-20000D01*
X59458Y-20084D01*
X59218Y-20325D01*
X59242Y-20407D01*
X59417Y-20474D01*
X59605Y-20470D01*
X59758Y-20407D01*
X59782Y-20325D01*
X59782Y-20653D01*
X59752Y-20623D01*
X59589Y-20555D01*
X59412Y-20555D01*
X59248Y-20623D01*
X59123Y-20748D01*
X59055Y-20911D01*
X59055Y-21088D01*
X59064Y-21110D01*
X58974Y-21200D01*
X58974Y-20083D01*
X58970Y-19895D01*
X58945Y-19834D01*
X58945Y-19089D01*
X58945Y-18912D01*
X58877Y-18748D01*
X58752Y-18623D01*
X58589Y-18555D01*
X58412Y-18555D01*
X58248Y-18623D01*
X58123Y-18748D01*
X58055Y-18911D01*
X58055Y-19088D01*
X58123Y-19252D01*
X58248Y-19377D01*
X58411Y-19445D01*
X58588Y-19445D01*
X58752Y-19377D01*
X58877Y-19252D01*
X58945Y-19089D01*
X58945Y-19834D01*
X58907Y-19742D01*
X58825Y-19718D01*
X58782Y-19760D01*
X58782Y-19675D01*
X58758Y-19593D01*
X58583Y-19526D01*
X58395Y-19530D01*
X58242Y-19593D01*
X58218Y-19675D01*
X58500Y-19958D01*
X58782Y-19675D01*
X58782Y-19760D01*
X58542Y-20000D01*
X58825Y-20282D01*
X58907Y-20258D01*
X58974Y-20083D01*
X58974Y-21200D01*
X58804Y-21370D01*
X58759Y-21370D01*
X58877Y-21252D01*
X58945Y-21089D01*
X58945Y-20912D01*
X58877Y-20748D01*
X58782Y-20653D01*
X58782Y-20325D01*
X58500Y-20042D01*
X58458Y-20084D01*
X58458Y-20000D01*
X58175Y-19718D01*
X58093Y-19742D01*
X58026Y-19917D01*
X58030Y-20105D01*
X58093Y-20258D01*
X58175Y-20282D01*
X58458Y-20000D01*
X58458Y-20084D01*
X58218Y-20325D01*
X58242Y-20407D01*
X58417Y-20474D01*
X58605Y-20470D01*
X58758Y-20407D01*
X58782Y-20325D01*
X58782Y-20653D01*
X58752Y-20623D01*
X58589Y-20555D01*
X58412Y-20555D01*
X58248Y-20623D01*
X58123Y-20748D01*
X58055Y-20911D01*
X58055Y-20919D01*
X57974Y-21000D01*
X57974Y-20083D01*
X57970Y-19895D01*
X57945Y-19834D01*
X57945Y-19089D01*
X57945Y-18912D01*
X57877Y-18748D01*
X57752Y-18623D01*
X57589Y-18555D01*
X57412Y-18555D01*
X57248Y-18623D01*
X57123Y-18748D01*
X57055Y-18911D01*
X57055Y-19088D01*
X57123Y-19252D01*
X57248Y-19377D01*
X57411Y-19445D01*
X57588Y-19445D01*
X57752Y-19377D01*
X57877Y-19252D01*
X57945Y-19089D01*
X57945Y-19834D01*
X57907Y-19742D01*
X57825Y-19718D01*
X57782Y-19760D01*
X57782Y-19675D01*
X57758Y-19593D01*
X57583Y-19526D01*
X57395Y-19530D01*
X57242Y-19593D01*
X57218Y-19675D01*
X57500Y-19958D01*
X57782Y-19675D01*
X57782Y-19760D01*
X57542Y-20000D01*
X57825Y-20282D01*
X57907Y-20258D01*
X57974Y-20083D01*
X57974Y-21000D01*
X57945Y-21029D01*
X57945Y-20912D01*
X57877Y-20748D01*
X57782Y-20653D01*
X57782Y-20325D01*
X57500Y-20042D01*
X57458Y-20084D01*
X57458Y-20000D01*
X57175Y-19718D01*
X57093Y-19742D01*
X57026Y-19917D01*
X57030Y-20105D01*
X57093Y-20258D01*
X57175Y-20282D01*
X57458Y-20000D01*
X57458Y-20084D01*
X57218Y-20325D01*
X57242Y-20407D01*
X57417Y-20474D01*
X57605Y-20470D01*
X57758Y-20407D01*
X57782Y-20325D01*
X57782Y-20653D01*
X57752Y-20623D01*
X57589Y-20555D01*
X57412Y-20555D01*
X57248Y-20623D01*
X57123Y-20748D01*
X57055Y-20911D01*
X57055Y-21088D01*
X57063Y-21109D01*
X56982Y-21190D01*
X56982Y-20316D01*
X56982Y-20234D01*
X56982Y-20081D01*
X56982Y-19919D01*
X56982Y-19766D01*
X56982Y-19684D01*
X56950Y-19608D01*
X56946Y-19603D01*
X56946Y-19309D01*
X56946Y-19241D01*
X56946Y-18691D01*
X56920Y-18628D01*
X56872Y-18580D01*
X56809Y-18554D01*
X56741Y-18554D01*
X56191Y-18554D01*
X56128Y-18580D01*
X56080Y-18628D01*
X56054Y-18691D01*
X56054Y-18759D01*
X56054Y-19309D01*
X56080Y-19372D01*
X56128Y-19420D01*
X56191Y-19446D01*
X56259Y-19446D01*
X56809Y-19446D01*
X56872Y-19420D01*
X56920Y-19372D01*
X56946Y-19309D01*
X56946Y-19603D01*
X56892Y-19549D01*
X56816Y-19518D01*
X56581Y-19518D01*
X56530Y-19569D01*
X56530Y-19970D01*
X56931Y-19970D01*
X56982Y-19919D01*
X56982Y-20081D01*
X56931Y-20030D01*
X56530Y-20030D01*
X56530Y-20431D01*
X56581Y-20482D01*
X56816Y-20482D01*
X56892Y-20451D01*
X56950Y-20392D01*
X56982Y-20316D01*
X56982Y-21190D01*
X56946Y-21227D01*
X56946Y-20691D01*
X56920Y-20628D01*
X56872Y-20580D01*
X56809Y-20554D01*
X56741Y-20554D01*
X56470Y-20554D01*
X56470Y-20431D01*
X56470Y-20030D01*
X56470Y-19970D01*
X56470Y-19569D01*
X56419Y-19518D01*
X56184Y-19518D01*
X56108Y-19549D01*
X56050Y-19608D01*
X56018Y-19684D01*
X56018Y-19766D01*
X56018Y-19919D01*
X56069Y-19970D01*
X56470Y-19970D01*
X56470Y-20030D01*
X56069Y-20030D01*
X56018Y-20081D01*
X56018Y-20234D01*
X56018Y-20316D01*
X56050Y-20392D01*
X56108Y-20451D01*
X56184Y-20482D01*
X56419Y-20482D01*
X56470Y-20431D01*
X56470Y-20554D01*
X56191Y-20554D01*
X56128Y-20580D01*
X56080Y-20628D01*
X56054Y-20691D01*
X56054Y-20759D01*
X56054Y-21309D01*
X56080Y-21372D01*
X56128Y-21420D01*
X56191Y-21446D01*
X56259Y-21446D01*
X56270Y-21446D01*
X56270Y-29495D01*
X56269Y-29500D01*
X56288Y-29588D01*
X56337Y-29663D01*
X58470Y-31795D01*
X58470Y-34300D01*
X58488Y-34388D01*
X58537Y-34463D01*
X58612Y-34512D01*
X58700Y-34530D01*
X59842Y-34530D01*
X59904Y-34592D01*
X60031Y-34645D01*
X60168Y-34645D01*
X60295Y-34593D01*
X60392Y-34496D01*
X60415Y-34440D01*
X60835Y-34860D01*
X60837Y-34863D01*
X60912Y-34912D01*
X61000Y-34930D01*
X64942Y-34930D01*
X65004Y-34992D01*
X65131Y-35045D01*
X65268Y-35045D01*
X65395Y-34993D01*
X65492Y-34896D01*
X65545Y-34769D01*
X65545Y-34632D01*
X65493Y-34505D01*
X65396Y-34408D01*
X65269Y-34355D01*
X65132Y-34355D01*
X65005Y-34407D01*
X64942Y-34470D01*
X61095Y-34470D01*
X60363Y-33737D01*
X60288Y-33688D01*
X60200Y-33669D01*
X60195Y-33670D01*
X59195Y-33670D01*
X59130Y-33604D01*
X59130Y-31744D01*
X59131Y-31745D01*
X59268Y-31745D01*
X59395Y-31693D01*
X59492Y-31596D01*
X59492Y-31594D01*
X59537Y-31663D01*
X59555Y-31680D01*
X59555Y-31768D01*
X59607Y-31895D01*
X59704Y-31992D01*
X59831Y-32045D01*
X59968Y-32045D01*
X60095Y-31993D01*
X60192Y-31896D01*
X60215Y-31838D01*
X60231Y-31845D01*
X60368Y-31845D01*
X60495Y-31793D01*
X60592Y-31696D01*
X60645Y-31569D01*
X60645Y-31508D01*
X60700Y-31520D01*
X62332Y-31520D01*
X62404Y-31592D01*
X62531Y-31645D01*
X62668Y-31645D01*
X62795Y-31593D01*
X62892Y-31496D01*
X62945Y-31369D01*
X62945Y-31232D01*
X62893Y-31105D01*
X62796Y-31008D01*
X62669Y-30955D01*
X62532Y-30955D01*
X62405Y-31007D01*
X62332Y-31080D01*
X60791Y-31080D01*
X59531Y-29820D01*
X61332Y-29820D01*
X61404Y-29892D01*
X61531Y-29945D01*
X61668Y-29945D01*
X61795Y-29893D01*
X61892Y-29796D01*
X61945Y-29669D01*
X61950Y-29670D01*
X62582Y-29670D01*
X62654Y-29742D01*
X62781Y-29795D01*
X62918Y-29795D01*
X63045Y-29743D01*
X63080Y-29708D01*
X63080Y-32795D01*
X63079Y-32800D01*
X63097Y-32884D01*
X63144Y-32956D01*
X63242Y-33053D01*
X63244Y-33056D01*
X63316Y-33103D01*
X63400Y-33120D01*
X63532Y-33120D01*
X63604Y-33192D01*
X63731Y-33245D01*
X63868Y-33245D01*
X63995Y-33193D01*
X64050Y-33138D01*
X64104Y-33192D01*
X64231Y-33245D01*
X64368Y-33245D01*
X64495Y-33193D01*
X64592Y-33096D01*
X64645Y-32969D01*
X64645Y-32832D01*
X64593Y-32705D01*
X64496Y-32608D01*
X64369Y-32555D01*
X64266Y-32555D01*
X63820Y-32108D01*
X63820Y-29808D01*
X63904Y-29892D01*
X64031Y-29945D01*
X64168Y-29945D01*
X64295Y-29893D01*
X64368Y-29820D01*
X68432Y-29820D01*
X68504Y-29892D01*
X68631Y-29945D01*
X68768Y-29945D01*
X68895Y-29893D01*
X68992Y-29796D01*
X69045Y-29669D01*
X69045Y-29532D01*
X68993Y-29405D01*
X68896Y-29308D01*
X68769Y-29255D01*
X68632Y-29255D01*
X68505Y-29307D01*
X68432Y-29380D01*
X64368Y-29380D01*
X64296Y-29308D01*
X64169Y-29255D01*
X64032Y-29255D01*
X63905Y-29307D01*
X63820Y-29392D01*
X63820Y-28741D01*
X65653Y-26907D01*
X65655Y-26906D01*
X65656Y-26906D01*
X65703Y-26834D01*
X65720Y-26750D01*
X65720Y-26108D01*
X65780Y-26168D01*
X65780Y-27095D01*
X65779Y-27100D01*
X65797Y-27184D01*
X65844Y-27256D01*
X66442Y-27853D01*
X66444Y-27856D01*
X66486Y-27884D01*
X66515Y-27903D01*
X66516Y-27903D01*
X66600Y-27920D01*
X68932Y-27920D01*
X69004Y-27992D01*
X69131Y-28045D01*
X69268Y-28045D01*
X69395Y-27993D01*
X69492Y-27896D01*
X69545Y-27769D01*
X69545Y-37354D01*
X58045Y-37354D01*
X58045Y-31769D01*
X58045Y-31632D01*
X57993Y-31505D01*
X57896Y-31408D01*
X57769Y-31355D01*
X57632Y-31355D01*
X57505Y-31407D01*
X57408Y-31504D01*
X57355Y-31631D01*
X57355Y-31733D01*
X56944Y-32144D01*
X56897Y-32216D01*
X56879Y-32300D01*
X56880Y-32304D01*
X56880Y-32332D01*
X56808Y-32404D01*
X56773Y-32485D01*
X56759Y-32471D01*
X56759Y-31429D01*
X56792Y-31396D01*
X56845Y-31269D01*
X56845Y-31132D01*
X56793Y-31005D01*
X56696Y-30908D01*
X56569Y-30855D01*
X56432Y-30855D01*
X56305Y-30907D01*
X56208Y-31004D01*
X56155Y-31131D01*
X56155Y-31268D01*
X56207Y-31395D01*
X56241Y-31429D01*
X56241Y-32471D01*
X56208Y-32504D01*
X56155Y-32631D01*
X56155Y-32768D01*
X56207Y-32895D01*
X56304Y-32992D01*
X56431Y-33045D01*
X56568Y-33045D01*
X56695Y-32993D01*
X56792Y-32896D01*
X56826Y-32814D01*
X56904Y-32892D01*
X57031Y-32945D01*
X57168Y-32945D01*
X57295Y-32893D01*
X57392Y-32796D01*
X57445Y-32669D01*
X57445Y-32532D01*
X57393Y-32405D01*
X57349Y-32361D01*
X57666Y-32045D01*
X57768Y-32045D01*
X57895Y-31993D01*
X57992Y-31896D01*
X58045Y-31769D01*
X58045Y-37354D01*
X55640Y-37354D01*
X55640Y-24341D01*
X55640Y-24081D01*
X55640Y-23919D01*
X55640Y-23659D01*
X55609Y-23583D01*
X55550Y-23525D01*
X55474Y-23493D01*
X55392Y-23493D01*
X55081Y-23493D01*
X55030Y-23544D01*
X55030Y-23970D01*
X55589Y-23970D01*
X55640Y-23919D01*
X55640Y-24081D01*
X55589Y-24030D01*
X55030Y-24030D01*
X55030Y-24456D01*
X55081Y-24507D01*
X55392Y-24507D01*
X55474Y-24507D01*
X55550Y-24475D01*
X55609Y-24417D01*
X55640Y-24341D01*
X55640Y-37354D01*
X55606Y-37354D01*
X55606Y-26093D01*
X55606Y-25909D01*
X55606Y-25093D01*
X55606Y-24909D01*
X55536Y-24739D01*
X55406Y-24609D01*
X55237Y-24538D01*
X55053Y-24538D01*
X54970Y-24538D01*
X54970Y-24456D01*
X54970Y-24030D01*
X54970Y-23970D01*
X54970Y-23544D01*
X54919Y-23493D01*
X54608Y-23493D01*
X54526Y-23493D01*
X54450Y-23525D01*
X54391Y-23583D01*
X54360Y-23659D01*
X54360Y-23919D01*
X54411Y-23970D01*
X54970Y-23970D01*
X54970Y-24030D01*
X54411Y-24030D01*
X54360Y-24081D01*
X54360Y-24341D01*
X54391Y-24417D01*
X54450Y-24475D01*
X54526Y-24507D01*
X54608Y-24507D01*
X54919Y-24507D01*
X54970Y-24456D01*
X54970Y-24538D01*
X54765Y-24538D01*
X54595Y-24608D01*
X54512Y-24691D01*
X53900Y-24691D01*
X53782Y-24715D01*
X53748Y-24737D01*
X53681Y-24782D01*
X52982Y-25482D01*
X52915Y-25582D01*
X52891Y-25700D01*
X52891Y-28900D01*
X52915Y-29018D01*
X52965Y-29092D01*
X53007Y-29195D01*
X53104Y-29292D01*
X53231Y-29345D01*
X53368Y-29345D01*
X53495Y-29293D01*
X53592Y-29196D01*
X53645Y-29069D01*
X53645Y-28932D01*
X53593Y-28805D01*
X53509Y-28721D01*
X53509Y-25827D01*
X54027Y-25309D01*
X54512Y-25309D01*
X54594Y-25391D01*
X54763Y-25462D01*
X54947Y-25462D01*
X55235Y-25462D01*
X55405Y-25392D01*
X55535Y-25262D01*
X55606Y-25093D01*
X55606Y-25909D01*
X55536Y-25739D01*
X55406Y-25609D01*
X55237Y-25538D01*
X55053Y-25538D01*
X54765Y-25538D01*
X54595Y-25608D01*
X54465Y-25738D01*
X54394Y-25907D01*
X54394Y-26091D01*
X54464Y-26261D01*
X54594Y-26391D01*
X54763Y-26462D01*
X54947Y-26462D01*
X55235Y-26462D01*
X55405Y-26392D01*
X55535Y-26262D01*
X55606Y-26093D01*
X55606Y-37354D01*
X51446Y-37354D01*
X51446Y-18246D01*
X70554Y-18246D01*
X70554Y-37354D01*
M02*
