G04 (created by PCBNEW-RS274X (2012-01-19 BZR 3256)-stable) date 3/31/2013 8:51:33 PM*
G01*
G70*
G90*
%MOIN*%
G04 Gerber Fmt 3.4, Leading zero omitted, Abs format*
%FSLAX34Y34*%
G04 APERTURE LIST*
%ADD10C,0.006000*%
%ADD11C,0.015000*%
%ADD12R,0.046200X0.074700*%
%ADD13R,0.093500X0.074700*%
%ADD14R,0.058000X0.082700*%
%ADD15R,0.017700X0.054300*%
%ADD16R,0.080000X0.144000*%
%ADD17R,0.080000X0.040000*%
%ADD18R,0.011800X0.051200*%
%ADD19R,0.051200X0.011800*%
%ADD20R,0.059000X0.059000*%
%ADD21R,0.216500X0.078700*%
%ADD22R,0.106200X0.070700*%
%ADD23R,0.055000X0.035000*%
%ADD24R,0.051200X0.059000*%
%ADD25R,0.059000X0.051200*%
%ADD26R,0.035000X0.055000*%
%ADD27R,0.145700X0.066900*%
%ADD28C,0.059100*%
G04 APERTURE END LIST*
G54D10*
G54D11*
X27700Y-48600D02*
X27700Y-29000D01*
X47300Y-48600D02*
X27700Y-48600D01*
X47300Y-29000D02*
X47300Y-48600D01*
X27700Y-29000D02*
X47300Y-29000D01*
G54D12*
X29670Y-48000D03*
X30330Y-48000D03*
G54D13*
X31147Y-48000D03*
X28853Y-48000D03*
G54D14*
X30969Y-47095D03*
X29031Y-47095D03*
G54D15*
X29488Y-46953D03*
X29744Y-46953D03*
X30000Y-46953D03*
X30256Y-46953D03*
X30512Y-46953D03*
G54D16*
X31300Y-39300D03*
G54D17*
X28700Y-39300D03*
X28700Y-40200D03*
X28700Y-38400D03*
G54D18*
X40492Y-41386D03*
X40295Y-41386D03*
X40098Y-41386D03*
X39902Y-41386D03*
X39705Y-41386D03*
X41083Y-41386D03*
X40886Y-41386D03*
X40689Y-41386D03*
G54D19*
X38386Y-41917D03*
X38386Y-42114D03*
X38386Y-42311D03*
X38386Y-42508D03*
X38386Y-42705D03*
X38386Y-42902D03*
X38386Y-43098D03*
X38386Y-43295D03*
G54D18*
X38917Y-44614D03*
X39114Y-44614D03*
X39311Y-44614D03*
X39508Y-44614D03*
X39705Y-44614D03*
X39902Y-44614D03*
X40098Y-44614D03*
X40295Y-44614D03*
G54D19*
X41614Y-44083D03*
X41614Y-43886D03*
X41614Y-43689D03*
X41614Y-43492D03*
X41614Y-43295D03*
X41614Y-43098D03*
X41614Y-42902D03*
X41614Y-42705D03*
G54D18*
X39508Y-41386D03*
X39311Y-41386D03*
X39114Y-41386D03*
X38917Y-41386D03*
G54D19*
X38386Y-43492D03*
X38386Y-43689D03*
X38386Y-43886D03*
X38386Y-44083D03*
G54D18*
X40492Y-44614D03*
X40689Y-44614D03*
X40886Y-44614D03*
X41083Y-44614D03*
G54D19*
X41614Y-42508D03*
X41614Y-42311D03*
X41614Y-42114D03*
X41614Y-41917D03*
G54D20*
X44688Y-32550D03*
X43312Y-32550D03*
G54D21*
X35630Y-38750D03*
X39370Y-38750D03*
G54D22*
X28700Y-29810D03*
X28700Y-30990D03*
X46300Y-29810D03*
X46300Y-30990D03*
X32500Y-45910D03*
X32500Y-47090D03*
X35000Y-46410D03*
X35000Y-47590D03*
X37500Y-46660D03*
X37500Y-47840D03*
X40000Y-46410D03*
X40000Y-47590D03*
X42500Y-45910D03*
X42500Y-47090D03*
G54D23*
X32500Y-39125D03*
X32500Y-39875D03*
G54D24*
X28525Y-41350D03*
X29275Y-41350D03*
G54D25*
X45000Y-41125D03*
X45000Y-40375D03*
X33500Y-35125D03*
X33500Y-35875D03*
G54D24*
X42925Y-42100D03*
X43675Y-42100D03*
X37575Y-40400D03*
X36825Y-40400D03*
X36125Y-37250D03*
X36875Y-37250D03*
X38875Y-37250D03*
X38125Y-37250D03*
G54D25*
X31500Y-43875D03*
X31500Y-44625D03*
X30100Y-42225D03*
X30100Y-41475D03*
G54D23*
X28750Y-32125D03*
X28750Y-32875D03*
X45000Y-42775D03*
X45000Y-42025D03*
G54D26*
X41875Y-37000D03*
X41125Y-37000D03*
G54D23*
X29500Y-43875D03*
X29500Y-44625D03*
X30500Y-44625D03*
X30500Y-43875D03*
G54D26*
X37125Y-32900D03*
X37875Y-32900D03*
X37125Y-32100D03*
X37875Y-32100D03*
X33875Y-37000D03*
X33125Y-37000D03*
G54D23*
X46300Y-32125D03*
X46300Y-32875D03*
X44950Y-30875D03*
X44950Y-31625D03*
X33700Y-46625D03*
X33700Y-47375D03*
X36100Y-47025D03*
X36100Y-47775D03*
X38700Y-47025D03*
X38700Y-47775D03*
X41250Y-47125D03*
X41250Y-47875D03*
X43500Y-47125D03*
X43500Y-47875D03*
X44700Y-46325D03*
X44700Y-47075D03*
X33500Y-43875D03*
X33500Y-44625D03*
G54D26*
X33125Y-42500D03*
X32375Y-42500D03*
G54D23*
X32500Y-44625D03*
X32500Y-43875D03*
G54D26*
X43625Y-33500D03*
X44375Y-33500D03*
G54D23*
X43000Y-31625D03*
X43000Y-30875D03*
G54D25*
X44000Y-31625D03*
X44000Y-30875D03*
G54D27*
X46500Y-48061D03*
X46500Y-45739D03*
G54D24*
X28525Y-42250D03*
X29275Y-42250D03*
X31875Y-41000D03*
X31125Y-41000D03*
G54D25*
X41500Y-35125D03*
X41500Y-35875D03*
G54D28*
X41700Y-44700D03*
X34500Y-44000D03*
X35500Y-45000D03*
X40200Y-45500D03*
X37500Y-45000D03*
X35500Y-44000D03*
X34500Y-45000D03*
X43500Y-44000D03*
X44100Y-41200D03*
X36500Y-45000D03*
X44500Y-43500D03*
X43500Y-43000D03*
M02*
