G04 (created by PCBNEW-RS274X (2012-01-19 BZR 3256)-stable) date 3/3/2013 11:18:49 PM*
G01*
G70*
G90*
%MOIN*%
G04 Gerber Fmt 3.4, Leading zero omitted, Abs format*
%FSLAX34Y34*%
G04 APERTURE LIST*
%ADD10C,0.006000*%
%ADD11C,0.012000*%
%ADD12C,0.015000*%
%ADD13C,0.009900*%
%ADD14C,0.005000*%
%ADD15C,0.007900*%
%ADD16C,0.010000*%
%ADD17C,0.008000*%
%ADD18C,0.005900*%
%ADD19C,0.004500*%
%ADD20C,0.003900*%
%ADD21C,0.003000*%
%ADD22C,0.001200*%
%ADD23C,0.010600*%
G04 APERTURE END LIST*
G54D10*
G54D11*
X58729Y-23824D02*
X58729Y-23024D01*
X59072Y-23824D02*
X58815Y-23367D01*
X59072Y-23024D02*
X58729Y-23481D01*
X59557Y-23786D02*
X59500Y-23824D01*
X59386Y-23824D01*
X59329Y-23786D01*
X59300Y-23710D01*
X59300Y-23405D01*
X59329Y-23329D01*
X59386Y-23290D01*
X59500Y-23290D01*
X59557Y-23329D01*
X59586Y-23405D01*
X59586Y-23481D01*
X59300Y-23557D01*
X59843Y-23824D02*
X59843Y-23024D01*
X59900Y-23519D02*
X60071Y-23824D01*
X60071Y-23290D02*
X59843Y-23595D01*
X60529Y-23405D02*
X60615Y-23443D01*
X60643Y-23481D01*
X60672Y-23557D01*
X60672Y-23671D01*
X60643Y-23748D01*
X60615Y-23786D01*
X60557Y-23824D01*
X60329Y-23824D01*
X60329Y-23024D01*
X60529Y-23024D01*
X60586Y-23062D01*
X60615Y-23100D01*
X60643Y-23176D01*
X60643Y-23252D01*
X60615Y-23329D01*
X60586Y-23367D01*
X60529Y-23405D01*
X60329Y-23405D01*
X61015Y-23824D02*
X60957Y-23786D01*
X60929Y-23748D01*
X60900Y-23671D01*
X60900Y-23443D01*
X60929Y-23367D01*
X60957Y-23329D01*
X61015Y-23290D01*
X61100Y-23290D01*
X61157Y-23329D01*
X61186Y-23367D01*
X61215Y-23443D01*
X61215Y-23671D01*
X61186Y-23748D01*
X61157Y-23786D01*
X61100Y-23824D01*
X61015Y-23824D01*
X61386Y-23290D02*
X61615Y-23290D01*
X61472Y-23024D02*
X61472Y-23710D01*
X61500Y-23786D01*
X61558Y-23824D01*
X61615Y-23824D01*
X61815Y-23748D02*
X61843Y-23786D01*
X61815Y-23824D01*
X61786Y-23786D01*
X61815Y-23748D01*
X61815Y-23824D01*
X62187Y-23824D02*
X62129Y-23786D01*
X62101Y-23748D01*
X62072Y-23671D01*
X62072Y-23443D01*
X62101Y-23367D01*
X62129Y-23329D01*
X62187Y-23290D01*
X62272Y-23290D01*
X62329Y-23329D01*
X62358Y-23367D01*
X62387Y-23443D01*
X62387Y-23671D01*
X62358Y-23748D01*
X62329Y-23786D01*
X62272Y-23824D01*
X62187Y-23824D01*
X62644Y-23824D02*
X62644Y-23290D01*
X62644Y-23443D02*
X62672Y-23367D01*
X62701Y-23329D01*
X62758Y-23290D01*
X62815Y-23290D01*
X63272Y-23290D02*
X63272Y-23938D01*
X63243Y-24014D01*
X63215Y-24052D01*
X63158Y-24090D01*
X63072Y-24090D01*
X63015Y-24052D01*
X63272Y-23786D02*
X63215Y-23824D01*
X63101Y-23824D01*
X63043Y-23786D01*
X63015Y-23748D01*
X62986Y-23671D01*
X62986Y-23443D01*
X63015Y-23367D01*
X63043Y-23329D01*
X63101Y-23290D01*
X63215Y-23290D01*
X63272Y-23329D01*
G54D12*
X66000Y-22200D02*
X66000Y-21500D01*
X69000Y-22200D02*
X66000Y-22200D01*
X69000Y-20600D02*
X69000Y-22200D01*
X70450Y-32950D02*
X70450Y-33000D01*
X66350Y-32950D02*
X70450Y-32950D01*
X66350Y-33950D02*
X66350Y-32950D01*
X66450Y-33950D02*
X66350Y-33950D01*
X70450Y-33950D02*
X70400Y-33950D01*
X70450Y-37200D02*
X70450Y-33950D01*
X67300Y-37200D02*
X70450Y-37200D01*
X67300Y-33950D02*
X67300Y-37200D01*
X70450Y-33950D02*
X70450Y-34200D01*
X66500Y-33950D02*
X70450Y-33950D01*
X69050Y-20550D02*
X70650Y-20550D01*
X69050Y-18150D02*
X69050Y-20550D01*
X70650Y-18150D02*
X69050Y-18150D01*
X70650Y-20450D02*
X70700Y-20450D01*
X70650Y-18150D02*
X70650Y-20450D01*
X69750Y-18950D02*
X69750Y-18900D01*
X70150Y-18950D02*
X69750Y-18950D01*
X70250Y-18850D02*
X70150Y-18950D01*
X70200Y-18800D02*
X70250Y-18850D01*
X69750Y-18800D02*
X70200Y-18800D01*
X69700Y-19850D02*
X70150Y-19850D01*
X69650Y-18700D02*
X69650Y-19900D01*
X70250Y-18700D02*
X69650Y-18700D01*
X70250Y-20000D02*
X70250Y-18700D01*
X69650Y-20000D02*
X70250Y-20000D01*
X51950Y-18800D02*
X52000Y-18800D01*
X51950Y-20000D02*
X51950Y-18800D01*
X52500Y-20000D02*
X51950Y-20000D01*
X52500Y-18800D02*
X52500Y-20000D01*
X51950Y-18800D02*
X52500Y-18800D01*
X51850Y-18750D02*
X51800Y-18750D01*
X51850Y-20100D02*
X51850Y-18750D01*
X52600Y-20100D02*
X51850Y-20100D01*
X52600Y-18700D02*
X52600Y-20100D01*
X51800Y-18700D02*
X52600Y-18700D01*
G54D11*
X51886Y-26286D02*
X51972Y-26324D01*
X52115Y-26324D01*
X52172Y-26286D01*
X52201Y-26248D01*
X52229Y-26171D01*
X52229Y-26095D01*
X52201Y-26019D01*
X52172Y-25981D01*
X52115Y-25943D01*
X52001Y-25905D01*
X51943Y-25867D01*
X51915Y-25829D01*
X51886Y-25752D01*
X51886Y-25676D01*
X51915Y-25600D01*
X51943Y-25562D01*
X52001Y-25524D01*
X52143Y-25524D01*
X52229Y-25562D01*
X52486Y-26324D02*
X52486Y-25524D01*
X53086Y-25562D02*
X53029Y-25524D01*
X52943Y-25524D01*
X52858Y-25562D01*
X52800Y-25638D01*
X52772Y-25714D01*
X52743Y-25867D01*
X52743Y-25981D01*
X52772Y-26133D01*
X52800Y-26210D01*
X52858Y-26286D01*
X52943Y-26324D01*
X53000Y-26324D01*
X53086Y-26286D01*
X53115Y-26248D01*
X53115Y-25981D01*
X53000Y-25981D01*
X52043Y-24562D02*
X51986Y-24524D01*
X51900Y-24524D01*
X51815Y-24562D01*
X51757Y-24638D01*
X51729Y-24714D01*
X51700Y-24867D01*
X51700Y-24981D01*
X51729Y-25133D01*
X51757Y-25210D01*
X51815Y-25286D01*
X51900Y-25324D01*
X51957Y-25324D01*
X52043Y-25286D01*
X52072Y-25248D01*
X52072Y-24981D01*
X51957Y-24981D01*
X52329Y-25324D02*
X52329Y-24524D01*
X52672Y-25324D01*
X52672Y-24524D01*
X52958Y-25324D02*
X52958Y-24524D01*
X53101Y-24524D01*
X53186Y-24562D01*
X53244Y-24638D01*
X53272Y-24714D01*
X53301Y-24867D01*
X53301Y-24981D01*
X53272Y-25133D01*
X53244Y-25210D01*
X53186Y-25286D01*
X53101Y-25324D01*
X52958Y-25324D01*
X51643Y-24019D02*
X52100Y-24019D01*
X51871Y-24324D02*
X51871Y-23714D01*
X52672Y-23524D02*
X52386Y-23524D01*
X52357Y-23905D01*
X52386Y-23867D01*
X52443Y-23829D01*
X52586Y-23829D01*
X52643Y-23867D01*
X52672Y-23905D01*
X52700Y-23981D01*
X52700Y-24171D01*
X52672Y-24248D01*
X52643Y-24286D01*
X52586Y-24324D01*
X52443Y-24324D01*
X52386Y-24286D01*
X52357Y-24248D01*
X52871Y-23524D02*
X53071Y-24324D01*
X53271Y-23524D01*
X68815Y-24019D02*
X69272Y-24019D01*
X69043Y-24324D02*
X69043Y-23714D01*
X69844Y-23524D02*
X69558Y-23524D01*
X69529Y-23905D01*
X69558Y-23867D01*
X69615Y-23829D01*
X69758Y-23829D01*
X69815Y-23867D01*
X69844Y-23905D01*
X69872Y-23981D01*
X69872Y-24171D01*
X69844Y-24248D01*
X69815Y-24286D01*
X69758Y-24324D01*
X69615Y-24324D01*
X69558Y-24286D01*
X69529Y-24248D01*
X70043Y-23524D02*
X70243Y-24324D01*
X70443Y-23524D01*
X69128Y-24562D02*
X69071Y-24524D01*
X68985Y-24524D01*
X68900Y-24562D01*
X68842Y-24638D01*
X68814Y-24714D01*
X68785Y-24867D01*
X68785Y-24981D01*
X68814Y-25133D01*
X68842Y-25210D01*
X68900Y-25286D01*
X68985Y-25324D01*
X69042Y-25324D01*
X69128Y-25286D01*
X69157Y-25248D01*
X69157Y-24981D01*
X69042Y-24981D01*
X69414Y-25324D02*
X69414Y-24524D01*
X69757Y-25324D01*
X69757Y-24524D01*
X70043Y-25324D02*
X70043Y-24524D01*
X70186Y-24524D01*
X70271Y-24562D01*
X70329Y-24638D01*
X70357Y-24714D01*
X70386Y-24867D01*
X70386Y-24981D01*
X70357Y-25133D01*
X70329Y-25210D01*
X70271Y-25286D01*
X70186Y-25324D01*
X70043Y-25324D01*
X69157Y-26286D02*
X69243Y-26324D01*
X69386Y-26324D01*
X69443Y-26286D01*
X69472Y-26248D01*
X69500Y-26171D01*
X69500Y-26095D01*
X69472Y-26019D01*
X69443Y-25981D01*
X69386Y-25943D01*
X69272Y-25905D01*
X69214Y-25867D01*
X69186Y-25829D01*
X69157Y-25752D01*
X69157Y-25676D01*
X69186Y-25600D01*
X69214Y-25562D01*
X69272Y-25524D01*
X69414Y-25524D01*
X69500Y-25562D01*
X69757Y-26324D02*
X69757Y-25524D01*
X70357Y-25562D02*
X70300Y-25524D01*
X70214Y-25524D01*
X70129Y-25562D01*
X70071Y-25638D01*
X70043Y-25714D01*
X70014Y-25867D01*
X70014Y-25981D01*
X70043Y-26133D01*
X70071Y-26210D01*
X70129Y-26286D01*
X70214Y-26324D01*
X70271Y-26324D01*
X70357Y-26286D01*
X70386Y-26248D01*
X70386Y-25981D01*
X70271Y-25981D01*
X66559Y-33739D02*
X66559Y-33148D01*
X66784Y-33148D01*
X66840Y-33176D01*
X66868Y-33204D01*
X66896Y-33260D01*
X66896Y-33345D01*
X66868Y-33401D01*
X66840Y-33429D01*
X66784Y-33457D01*
X66559Y-33457D01*
X67487Y-33739D02*
X67290Y-33457D01*
X67150Y-33739D02*
X67150Y-33148D01*
X67375Y-33148D01*
X67431Y-33176D01*
X67459Y-33204D01*
X67487Y-33260D01*
X67487Y-33345D01*
X67459Y-33401D01*
X67431Y-33429D01*
X67375Y-33457D01*
X67150Y-33457D01*
X67853Y-33148D02*
X67966Y-33148D01*
X68022Y-33176D01*
X68078Y-33232D01*
X68107Y-33345D01*
X68107Y-33542D01*
X68078Y-33654D01*
X68022Y-33711D01*
X67966Y-33739D01*
X67853Y-33739D01*
X67797Y-33711D01*
X67741Y-33654D01*
X67713Y-33542D01*
X67713Y-33345D01*
X67741Y-33232D01*
X67797Y-33176D01*
X67853Y-33148D01*
X68669Y-33176D02*
X68613Y-33148D01*
X68529Y-33148D01*
X68444Y-33176D01*
X68388Y-33232D01*
X68360Y-33288D01*
X68332Y-33401D01*
X68332Y-33485D01*
X68360Y-33598D01*
X68388Y-33654D01*
X68444Y-33711D01*
X68529Y-33739D01*
X68585Y-33739D01*
X68669Y-33711D01*
X68697Y-33682D01*
X68697Y-33485D01*
X68585Y-33485D01*
X69288Y-33739D02*
X69091Y-33457D01*
X68951Y-33739D02*
X68951Y-33148D01*
X69176Y-33148D01*
X69232Y-33176D01*
X69260Y-33204D01*
X69288Y-33260D01*
X69288Y-33345D01*
X69260Y-33401D01*
X69232Y-33429D01*
X69176Y-33457D01*
X68951Y-33457D01*
X69514Y-33570D02*
X69795Y-33570D01*
X69457Y-33739D02*
X69654Y-33148D01*
X69851Y-33739D01*
X70049Y-33739D02*
X70049Y-33148D01*
X70246Y-33570D01*
X70443Y-33148D01*
X70443Y-33739D01*
G54D12*
X63150Y-36700D02*
X63250Y-36700D01*
X63150Y-35200D02*
X63150Y-36700D01*
X56550Y-36450D02*
X56550Y-36500D01*
X55450Y-36450D02*
X56550Y-36450D01*
X57050Y-35050D02*
X57000Y-35050D01*
X57050Y-34650D02*
X57050Y-35050D01*
X57150Y-34700D02*
X57150Y-35100D01*
X57150Y-35100D02*
X57150Y-34700D01*
X56950Y-35100D02*
X57150Y-35100D01*
X56950Y-34700D02*
X56950Y-35100D01*
X57000Y-35350D02*
X57000Y-35300D01*
X57400Y-35350D02*
X57000Y-35350D01*
X57400Y-35500D02*
X57400Y-35350D01*
X57000Y-35500D02*
X57400Y-35500D01*
X56900Y-35400D02*
X57000Y-35500D01*
X56900Y-35200D02*
X56900Y-35400D01*
X57500Y-35200D02*
X56900Y-35200D01*
X57500Y-36450D02*
X57500Y-35200D01*
X56850Y-36450D02*
X57500Y-36450D01*
X56850Y-34700D02*
X56850Y-36450D01*
X55650Y-36000D02*
X55650Y-36050D01*
X56300Y-36000D02*
X55650Y-36000D01*
X56300Y-34750D02*
X56300Y-36000D01*
X55550Y-34750D02*
X56300Y-34750D01*
X55550Y-36100D02*
X55550Y-34750D01*
X56350Y-36100D02*
X55550Y-36100D01*
X56350Y-34700D02*
X56350Y-36100D01*
X55450Y-34700D02*
X56350Y-34700D01*
X55450Y-36200D02*
X55450Y-34700D01*
X56400Y-36200D02*
X55450Y-36200D01*
X56400Y-36350D02*
X56400Y-36200D01*
X55450Y-36350D02*
X56400Y-36350D01*
X55450Y-36550D02*
X55450Y-36350D01*
X57750Y-36550D02*
X55450Y-36550D01*
X57700Y-36600D02*
X57750Y-36550D01*
X55500Y-36600D02*
X57700Y-36600D01*
X55400Y-36700D02*
X55500Y-36600D01*
X58100Y-36700D02*
X55400Y-36700D01*
X58150Y-36750D02*
X58150Y-36650D01*
X58900Y-36750D02*
X58150Y-36750D01*
X58800Y-36800D02*
X58800Y-36950D01*
X58100Y-36800D02*
X58800Y-36800D01*
X58100Y-35300D02*
X58100Y-36800D01*
X58000Y-35250D02*
X58000Y-35200D01*
X59000Y-35250D02*
X58000Y-35250D01*
X59550Y-35400D02*
X59550Y-35300D01*
X59200Y-35400D02*
X59550Y-35400D01*
X59200Y-35250D02*
X59200Y-35400D01*
X59500Y-35250D02*
X59200Y-35250D01*
X59800Y-37050D02*
X59300Y-37050D01*
X59950Y-37150D02*
X59950Y-37200D01*
X59250Y-37150D02*
X59950Y-37150D01*
X59250Y-36950D02*
X59250Y-37150D01*
X59850Y-36950D02*
X59250Y-36950D01*
X59850Y-35750D02*
X59850Y-36950D01*
X59350Y-35750D02*
X59850Y-35750D01*
X59250Y-35650D02*
X59350Y-35750D01*
X59800Y-35650D02*
X59250Y-35650D01*
X59950Y-35800D02*
X59800Y-35650D01*
X59950Y-35550D02*
X59950Y-35800D01*
X59300Y-35550D02*
X59950Y-35550D01*
X59300Y-35450D02*
X59300Y-35550D01*
X59950Y-35450D02*
X59300Y-35450D01*
X60600Y-35450D02*
X60600Y-35500D01*
X61350Y-35450D02*
X60600Y-35450D01*
X61350Y-35600D02*
X61350Y-35450D01*
X60650Y-35600D02*
X61350Y-35600D01*
X60650Y-35750D02*
X60650Y-35600D01*
X61300Y-35750D02*
X60650Y-35750D01*
X61300Y-36750D02*
X61300Y-36800D01*
X60550Y-36750D02*
X61300Y-36750D01*
X60650Y-36850D02*
X60550Y-36750D01*
X61350Y-36850D02*
X60650Y-36850D01*
X61350Y-37050D02*
X61350Y-36850D01*
X61350Y-37000D02*
X61350Y-37050D01*
X60600Y-37000D02*
X61350Y-37000D01*
X60650Y-37150D02*
X60650Y-37100D01*
X61350Y-37150D02*
X60650Y-37150D01*
X61850Y-37200D02*
X61850Y-37150D01*
X62450Y-37200D02*
X61850Y-37200D01*
X62450Y-37100D02*
X62450Y-37200D01*
X61850Y-37100D02*
X62450Y-37100D01*
X61850Y-37050D02*
X61850Y-37000D01*
X62500Y-37050D02*
X61850Y-37050D01*
X62500Y-36900D02*
X62500Y-36950D01*
X61800Y-36900D02*
X62500Y-36900D01*
X62050Y-35400D02*
X62050Y-35450D01*
X62350Y-35400D02*
X62050Y-35400D01*
X61850Y-35850D02*
X62500Y-35850D01*
X61850Y-35750D02*
X61850Y-35700D01*
X62500Y-35750D02*
X61850Y-35750D01*
X62450Y-35650D02*
X62450Y-35700D01*
X62000Y-35650D02*
X62450Y-35650D01*
X62550Y-35550D02*
X61950Y-35550D01*
X62500Y-35400D02*
X62300Y-35400D01*
X62300Y-35250D02*
X62300Y-35150D01*
X63850Y-35250D02*
X62300Y-35250D01*
X63700Y-36850D02*
X63700Y-36900D01*
X63150Y-36850D02*
X63700Y-36850D01*
X63800Y-36750D02*
X63100Y-36750D01*
X64450Y-36900D02*
X64450Y-36850D01*
X64800Y-36900D02*
X64450Y-36900D01*
X64950Y-36750D02*
X64800Y-36900D01*
X64450Y-36750D02*
X64950Y-36750D01*
X64450Y-36600D02*
X64450Y-36650D01*
X65050Y-36600D02*
X64450Y-36600D01*
X65000Y-36500D02*
X65000Y-36550D01*
X64400Y-36500D02*
X65000Y-36500D01*
X64850Y-35200D02*
X64450Y-35200D01*
X64450Y-35300D02*
X64850Y-35300D01*
X64850Y-35450D02*
X64450Y-35450D01*
X64950Y-35450D02*
X64900Y-35450D01*
X64950Y-34600D02*
X64950Y-35450D01*
X66350Y-34700D02*
X65600Y-34700D01*
X66400Y-36300D02*
X65600Y-36300D01*
X66400Y-34650D02*
X66400Y-36350D01*
X65550Y-36350D02*
X65500Y-36350D01*
X65550Y-34650D02*
X65550Y-36350D01*
X65400Y-36400D02*
X65300Y-36400D01*
X65400Y-34650D02*
X65400Y-36400D01*
X65250Y-36550D02*
X65150Y-36550D01*
X65250Y-34600D02*
X65250Y-36550D01*
X65100Y-36650D02*
X65050Y-36650D01*
X65100Y-34600D02*
X65100Y-36650D01*
X64400Y-35100D02*
X64400Y-36950D01*
X64300Y-35100D02*
X64300Y-36950D01*
X64100Y-35150D02*
X64100Y-36950D01*
X63950Y-36950D02*
X63900Y-36950D01*
X63950Y-35100D02*
X63950Y-36950D01*
X63850Y-36900D02*
X63750Y-36900D01*
X63850Y-35100D02*
X63850Y-36900D01*
X63050Y-36950D02*
X62900Y-36950D01*
X63050Y-35200D02*
X63050Y-36950D01*
X62800Y-35150D02*
X62800Y-36900D01*
X62650Y-36950D02*
X62750Y-36950D01*
X62650Y-35200D02*
X62650Y-36950D01*
X62550Y-37050D02*
X62650Y-37050D01*
X62550Y-35200D02*
X62550Y-37050D01*
X61850Y-37250D02*
X61750Y-37250D01*
X61850Y-35400D02*
X61850Y-37250D01*
X61700Y-35350D02*
X61700Y-37200D01*
X61500Y-35400D02*
X61500Y-37300D01*
X61400Y-37250D02*
X61450Y-37250D01*
X61400Y-35400D02*
X61400Y-37250D01*
X60550Y-37250D02*
X60500Y-37300D01*
X60550Y-35400D02*
X60550Y-37250D01*
X60400Y-37300D02*
X60250Y-37300D01*
X60400Y-35400D02*
X60400Y-37300D01*
X60150Y-37200D02*
X60100Y-37200D01*
X60150Y-35350D02*
X60150Y-37200D01*
X60000Y-37250D02*
X59950Y-37250D01*
X60000Y-35400D02*
X60000Y-37250D01*
X59200Y-37200D02*
X59100Y-37200D01*
X59200Y-35150D02*
X59200Y-37200D01*
X58900Y-35150D02*
X58900Y-37050D01*
X57900Y-36800D02*
X57800Y-36800D01*
X57900Y-35100D02*
X57900Y-36800D01*
X58000Y-36800D02*
X57900Y-36800D01*
X58000Y-35150D02*
X58000Y-36800D01*
X57650Y-36800D02*
X57700Y-36800D01*
X57650Y-35150D02*
X57650Y-36800D01*
X56750Y-36700D02*
X56700Y-36700D01*
X56750Y-34650D02*
X56750Y-36700D01*
X56450Y-36750D02*
X56550Y-36750D01*
X56450Y-34650D02*
X56450Y-36750D01*
X55350Y-35100D02*
X55350Y-35000D01*
X57150Y-34800D02*
X57150Y-35100D01*
X56600Y-34600D02*
X56600Y-36700D01*
X57800Y-36850D02*
X57650Y-36850D01*
X57800Y-35100D02*
X57800Y-36850D01*
X59050Y-35100D02*
X59050Y-37200D01*
X60250Y-35350D02*
X60250Y-37300D01*
X61600Y-37300D02*
X61750Y-37300D01*
X61600Y-35350D02*
X61600Y-37300D01*
X62900Y-36950D02*
X62800Y-36950D01*
X62900Y-35150D02*
X62900Y-36950D01*
X64200Y-36950D02*
X64250Y-36950D01*
X64200Y-35150D02*
X64200Y-36950D01*
X69150Y-20500D02*
X70650Y-20500D01*
X69150Y-18200D02*
X69150Y-20500D01*
X70550Y-18200D02*
X69150Y-18200D01*
X69300Y-18350D02*
X69350Y-18350D01*
X69300Y-20350D02*
X69300Y-18350D01*
X70600Y-20350D02*
X69300Y-20350D01*
X70600Y-18350D02*
X70600Y-20350D01*
X69400Y-18350D02*
X70600Y-18350D01*
X69450Y-18450D02*
X69400Y-18450D01*
X69450Y-20250D02*
X69450Y-18450D01*
X70500Y-20250D02*
X69450Y-20250D01*
X70500Y-18450D02*
X70500Y-20250D01*
X69500Y-18450D02*
X70500Y-18450D01*
X69550Y-18550D02*
X69500Y-18550D01*
X69550Y-20150D02*
X69550Y-18550D01*
X70400Y-20150D02*
X69550Y-20150D01*
X70400Y-18550D02*
X70400Y-20150D01*
X69600Y-18550D02*
X70400Y-18550D01*
X51450Y-18350D02*
X52950Y-18350D01*
X51450Y-20500D02*
X51450Y-18350D01*
X53000Y-20500D02*
X51450Y-20500D01*
X53000Y-18300D02*
X53000Y-20500D01*
X51400Y-20600D02*
X51400Y-20500D01*
X53100Y-20600D02*
X51400Y-20600D01*
X53100Y-18250D02*
X53100Y-20600D01*
X51400Y-18250D02*
X53100Y-18250D01*
X51400Y-20600D02*
X51400Y-18250D01*
X51550Y-20400D02*
X51550Y-18400D01*
X52900Y-20400D02*
X51550Y-20400D01*
X52900Y-18400D02*
X52900Y-20400D01*
X51550Y-18400D02*
X52900Y-18400D01*
X51700Y-20250D02*
X51700Y-18550D01*
X52750Y-20250D02*
X51700Y-20250D01*
X52750Y-18550D02*
X52750Y-20250D01*
X51700Y-18550D02*
X52750Y-18550D01*
X55400Y-36750D02*
X55400Y-34700D01*
X57600Y-36750D02*
X55400Y-36750D01*
X57700Y-36850D02*
X57600Y-36750D01*
X58600Y-36850D02*
X57700Y-36850D01*
X59050Y-37300D02*
X58600Y-36850D01*
X62450Y-37300D02*
X59050Y-37300D01*
X62800Y-36950D02*
X62450Y-37300D01*
X64850Y-36950D02*
X62800Y-36950D01*
X65400Y-36400D02*
X64850Y-36950D01*
X66550Y-36400D02*
X65400Y-36400D01*
X66550Y-34600D02*
X66550Y-36400D01*
X64800Y-34600D02*
X66550Y-34600D01*
X64800Y-35100D02*
X64800Y-34600D01*
X62200Y-35100D02*
X64800Y-35100D01*
X62200Y-35350D02*
X62200Y-35100D01*
X59550Y-35350D02*
X62200Y-35350D01*
X59550Y-35100D02*
X59550Y-35350D01*
X57200Y-35100D02*
X59550Y-35100D01*
X57200Y-34600D02*
X57200Y-35100D01*
X56650Y-34600D02*
X57200Y-34600D01*
X55400Y-34600D02*
X56650Y-34600D01*
G54D11*
X68338Y-23478D02*
X67663Y-23478D01*
X68000Y-23478D02*
X68000Y-22297D01*
X67888Y-22465D01*
X67775Y-22578D01*
X67663Y-22634D01*
X53663Y-22409D02*
X53719Y-22353D01*
X53832Y-22297D01*
X54113Y-22297D01*
X54225Y-22353D01*
X54282Y-22409D01*
X54338Y-22521D01*
X54338Y-22634D01*
X54282Y-22803D01*
X53607Y-23478D01*
X54338Y-23478D01*
G54D13*
X61622Y-22622D02*
X61603Y-22641D01*
X61547Y-22659D01*
X61509Y-22659D01*
X61453Y-22641D01*
X61416Y-22603D01*
X61397Y-22566D01*
X61378Y-22491D01*
X61378Y-22434D01*
X61397Y-22359D01*
X61416Y-22322D01*
X61453Y-22284D01*
X61509Y-22265D01*
X61547Y-22265D01*
X61603Y-22284D01*
X61622Y-22303D01*
X60397Y-22659D02*
X60397Y-22265D01*
X60491Y-22265D01*
X60547Y-22284D01*
X60584Y-22322D01*
X60603Y-22359D01*
X60622Y-22434D01*
X60622Y-22491D01*
X60603Y-22566D01*
X60584Y-22603D01*
X60547Y-22641D01*
X60491Y-22659D01*
X60397Y-22659D01*
X58354Y-24622D02*
X58335Y-24641D01*
X58279Y-24659D01*
X58241Y-24659D01*
X58185Y-24641D01*
X58148Y-24603D01*
X58129Y-24566D01*
X58110Y-24491D01*
X58110Y-24434D01*
X58129Y-24359D01*
X58148Y-24322D01*
X58185Y-24284D01*
X58241Y-24265D01*
X58279Y-24265D01*
X58335Y-24284D01*
X58354Y-24303D01*
X58748Y-24622D02*
X58729Y-24641D01*
X58673Y-24659D01*
X58635Y-24659D01*
X58579Y-24641D01*
X58542Y-24603D01*
X58523Y-24566D01*
X58504Y-24491D01*
X58504Y-24434D01*
X58523Y-24359D01*
X58542Y-24322D01*
X58579Y-24284D01*
X58635Y-24265D01*
X58673Y-24265D01*
X58729Y-24284D01*
X58748Y-24303D01*
X58917Y-24509D02*
X59217Y-24509D01*
X59536Y-24453D02*
X59592Y-24472D01*
X59611Y-24491D01*
X59630Y-24528D01*
X59630Y-24584D01*
X59611Y-24622D01*
X59592Y-24641D01*
X59555Y-24659D01*
X59405Y-24659D01*
X59405Y-24265D01*
X59536Y-24265D01*
X59574Y-24284D01*
X59592Y-24303D01*
X59611Y-24341D01*
X59611Y-24378D01*
X59592Y-24416D01*
X59574Y-24434D01*
X59536Y-24453D01*
X59405Y-24453D01*
X59874Y-24472D02*
X59874Y-24659D01*
X59743Y-24265D02*
X59874Y-24472D01*
X60005Y-24265D01*
X60137Y-24509D02*
X60437Y-24509D01*
X60606Y-24641D02*
X60662Y-24659D01*
X60756Y-24659D01*
X60794Y-24641D01*
X60812Y-24622D01*
X60831Y-24584D01*
X60831Y-24547D01*
X60812Y-24509D01*
X60794Y-24491D01*
X60756Y-24472D01*
X60681Y-24453D01*
X60644Y-24434D01*
X60625Y-24416D01*
X60606Y-24378D01*
X60606Y-24341D01*
X60625Y-24303D01*
X60644Y-24284D01*
X60681Y-24265D01*
X60775Y-24265D01*
X60831Y-24284D01*
X60981Y-24547D02*
X61169Y-24547D01*
X60944Y-24659D02*
X61075Y-24265D01*
X61206Y-24659D01*
X61338Y-24509D02*
X61638Y-24509D01*
X61826Y-24659D02*
X61826Y-24265D01*
X62051Y-24659D01*
X62051Y-24265D01*
X62464Y-24622D02*
X62445Y-24641D01*
X62389Y-24659D01*
X62351Y-24659D01*
X62295Y-24641D01*
X62258Y-24603D01*
X62239Y-24566D01*
X62220Y-24491D01*
X62220Y-24434D01*
X62239Y-24359D01*
X62258Y-24322D01*
X62295Y-24284D01*
X62351Y-24265D01*
X62389Y-24265D01*
X62445Y-24284D01*
X62464Y-24303D01*
X62633Y-24509D02*
X62933Y-24509D01*
X63083Y-24265D02*
X63327Y-24265D01*
X63196Y-24416D01*
X63252Y-24416D01*
X63290Y-24434D01*
X63308Y-24453D01*
X63327Y-24491D01*
X63327Y-24584D01*
X63308Y-24622D01*
X63290Y-24641D01*
X63252Y-24659D01*
X63140Y-24659D01*
X63102Y-24641D01*
X63083Y-24622D01*
X63496Y-24622D02*
X63515Y-24641D01*
X63496Y-24659D01*
X63477Y-24641D01*
X63496Y-24622D01*
X63496Y-24659D01*
X63759Y-24265D02*
X63796Y-24265D01*
X63834Y-24284D01*
X63853Y-24303D01*
X63871Y-24341D01*
X63890Y-24416D01*
X63890Y-24509D01*
X63871Y-24584D01*
X63853Y-24622D01*
X63834Y-24641D01*
X63796Y-24659D01*
X63759Y-24659D01*
X63721Y-24641D01*
X63703Y-24622D01*
X63684Y-24584D01*
X63665Y-24509D01*
X63665Y-24416D01*
X63684Y-24341D01*
X63703Y-24303D01*
X63721Y-24284D01*
X63759Y-24265D01*
G54D11*
X65386Y-22324D02*
X65043Y-22324D01*
X65215Y-22324D02*
X65215Y-21524D01*
X65158Y-21638D01*
X65100Y-21714D01*
X65043Y-21752D01*
X65757Y-21524D02*
X65814Y-21524D01*
X65871Y-21562D01*
X65900Y-21600D01*
X65929Y-21676D01*
X65957Y-21829D01*
X65957Y-22019D01*
X65929Y-22171D01*
X65900Y-22248D01*
X65871Y-22286D01*
X65814Y-22324D01*
X65757Y-22324D01*
X65700Y-22286D01*
X65671Y-22248D01*
X65643Y-22171D01*
X65614Y-22019D01*
X65614Y-21829D01*
X65643Y-21676D01*
X65671Y-21600D01*
X65700Y-21562D01*
X65757Y-21524D01*
X64386Y-22324D02*
X64501Y-22324D01*
X64558Y-22286D01*
X64586Y-22248D01*
X64644Y-22133D01*
X64672Y-21981D01*
X64672Y-21676D01*
X64644Y-21600D01*
X64615Y-21562D01*
X64558Y-21524D01*
X64444Y-21524D01*
X64386Y-21562D01*
X64358Y-21600D01*
X64329Y-21676D01*
X64329Y-21867D01*
X64358Y-21943D01*
X64386Y-21981D01*
X64444Y-22019D01*
X64558Y-22019D01*
X64615Y-21981D01*
X64644Y-21943D01*
X64672Y-21867D01*
X63444Y-21867D02*
X63386Y-21829D01*
X63358Y-21790D01*
X63329Y-21714D01*
X63329Y-21676D01*
X63358Y-21600D01*
X63386Y-21562D01*
X63444Y-21524D01*
X63558Y-21524D01*
X63615Y-21562D01*
X63644Y-21600D01*
X63672Y-21676D01*
X63672Y-21714D01*
X63644Y-21790D01*
X63615Y-21829D01*
X63558Y-21867D01*
X63444Y-21867D01*
X63386Y-21905D01*
X63358Y-21943D01*
X63329Y-22019D01*
X63329Y-22171D01*
X63358Y-22248D01*
X63386Y-22286D01*
X63444Y-22324D01*
X63558Y-22324D01*
X63615Y-22286D01*
X63644Y-22248D01*
X63672Y-22171D01*
X63672Y-22019D01*
X63644Y-21943D01*
X63615Y-21905D01*
X63558Y-21867D01*
X62301Y-21524D02*
X62701Y-21524D01*
X62444Y-22324D01*
X59615Y-21790D02*
X59615Y-22324D01*
X59472Y-21486D02*
X59329Y-22057D01*
X59701Y-22057D01*
X58301Y-21524D02*
X58672Y-21524D01*
X58472Y-21829D01*
X58558Y-21829D01*
X58615Y-21867D01*
X58644Y-21905D01*
X58672Y-21981D01*
X58672Y-22171D01*
X58644Y-22248D01*
X58615Y-22286D01*
X58558Y-22324D01*
X58386Y-22324D01*
X58329Y-22286D01*
X58301Y-22248D01*
X57329Y-21600D02*
X57358Y-21562D01*
X57415Y-21524D01*
X57558Y-21524D01*
X57615Y-21562D01*
X57644Y-21600D01*
X57672Y-21676D01*
X57672Y-21752D01*
X57644Y-21867D01*
X57301Y-22324D01*
X57672Y-22324D01*
X56672Y-22324D02*
X56329Y-22324D01*
X56501Y-22324D02*
X56501Y-21524D01*
X56444Y-21638D01*
X56386Y-21714D01*
X56329Y-21752D01*
X54536Y-21311D02*
X54622Y-21339D01*
X54765Y-21339D01*
X54822Y-21311D01*
X54851Y-21282D01*
X54879Y-21226D01*
X54879Y-21170D01*
X54851Y-21114D01*
X54822Y-21085D01*
X54765Y-21057D01*
X54651Y-21029D01*
X54593Y-21001D01*
X54565Y-20973D01*
X54536Y-20917D01*
X54536Y-20860D01*
X54565Y-20804D01*
X54593Y-20776D01*
X54651Y-20748D01*
X54793Y-20748D01*
X54879Y-20776D01*
X55136Y-21339D02*
X55136Y-20748D01*
X55736Y-20776D02*
X55679Y-20748D01*
X55593Y-20748D01*
X55508Y-20776D01*
X55450Y-20832D01*
X55422Y-20888D01*
X55393Y-21001D01*
X55393Y-21085D01*
X55422Y-21198D01*
X55450Y-21254D01*
X55508Y-21311D01*
X55593Y-21339D01*
X55650Y-21339D01*
X55736Y-21311D01*
X55765Y-21282D01*
X55765Y-21085D01*
X55650Y-21085D01*
X54550Y-19726D02*
X54494Y-19698D01*
X54410Y-19698D01*
X54325Y-19726D01*
X54269Y-19782D01*
X54241Y-19838D01*
X54213Y-19951D01*
X54213Y-20035D01*
X54241Y-20148D01*
X54269Y-20204D01*
X54325Y-20261D01*
X54410Y-20289D01*
X54466Y-20289D01*
X54550Y-20261D01*
X54578Y-20232D01*
X54578Y-20035D01*
X54466Y-20035D01*
X54832Y-20289D02*
X54832Y-19698D01*
X55169Y-20289D01*
X55169Y-19698D01*
X55451Y-20289D02*
X55451Y-19698D01*
X55591Y-19698D01*
X55676Y-19726D01*
X55732Y-19782D01*
X55760Y-19838D01*
X55788Y-19951D01*
X55788Y-20035D01*
X55760Y-20148D01*
X55732Y-20204D01*
X55676Y-20261D01*
X55591Y-20289D01*
X55451Y-20289D01*
X53659Y-19064D02*
X54109Y-19064D01*
X53884Y-19289D02*
X53884Y-18838D01*
X54334Y-18698D02*
X54700Y-18698D01*
X54503Y-18923D01*
X54588Y-18923D01*
X54644Y-18951D01*
X54672Y-18979D01*
X54700Y-19035D01*
X54700Y-19176D01*
X54672Y-19232D01*
X54644Y-19261D01*
X54588Y-19289D01*
X54419Y-19289D01*
X54363Y-19261D01*
X54334Y-19232D01*
X54869Y-18698D02*
X55066Y-19289D01*
X55263Y-18698D01*
X55404Y-18698D02*
X55770Y-18698D01*
X55573Y-18923D01*
X55658Y-18923D01*
X55714Y-18951D01*
X55742Y-18979D01*
X55770Y-19035D01*
X55770Y-19176D01*
X55742Y-19232D01*
X55714Y-19261D01*
X55658Y-19289D01*
X55489Y-19289D01*
X55433Y-19261D01*
X55404Y-19232D01*
G54D12*
X51200Y-37600D02*
X51200Y-18000D01*
X70800Y-37600D02*
X51200Y-37600D01*
X70800Y-18000D02*
X70800Y-37600D01*
X51200Y-18000D02*
X70800Y-18000D01*
G54D14*
X53350Y-33850D02*
X53350Y-32950D01*
X53350Y-32950D02*
X53850Y-32950D01*
X53850Y-32950D02*
X53850Y-33850D01*
X53850Y-33850D02*
X53350Y-33850D01*
X53250Y-32950D02*
X53250Y-33850D01*
X53250Y-33850D02*
X52750Y-33850D01*
X52750Y-33850D02*
X52750Y-32950D01*
X52750Y-32950D02*
X53250Y-32950D01*
X66850Y-26750D02*
X67750Y-26750D01*
X67750Y-26750D02*
X67750Y-27250D01*
X67750Y-27250D02*
X66850Y-27250D01*
X66850Y-27250D02*
X66850Y-26750D01*
X65250Y-29450D02*
X64350Y-29450D01*
X64350Y-29450D02*
X64350Y-28950D01*
X64350Y-28950D02*
X65250Y-28950D01*
X65250Y-28950D02*
X65250Y-29450D01*
X52450Y-20550D02*
X52450Y-21450D01*
X52450Y-21450D02*
X51950Y-21450D01*
X51950Y-21450D02*
X51950Y-20550D01*
X51950Y-20550D02*
X52450Y-20550D01*
G54D15*
X51846Y-37037D02*
X55154Y-37037D01*
X51846Y-37077D02*
X55154Y-37077D01*
X55154Y-37077D02*
X55154Y-36998D01*
X55154Y-36998D02*
X51846Y-36998D01*
X51846Y-36998D02*
X51846Y-37077D01*
X51965Y-37077D02*
X51965Y-35108D01*
X51965Y-35108D02*
X55035Y-35108D01*
X55035Y-35108D02*
X55035Y-37077D01*
G54D14*
X52200Y-19479D02*
X52318Y-19361D01*
X52318Y-19361D02*
X52082Y-19361D01*
X52082Y-19361D02*
X52200Y-19479D01*
X52161Y-19439D02*
X52239Y-19439D01*
X52279Y-19400D02*
X52121Y-19400D01*
X51885Y-19518D02*
X52515Y-19518D01*
X52515Y-19282D02*
X51885Y-19282D01*
X52515Y-19006D02*
X52515Y-19794D01*
X52515Y-19794D02*
X51885Y-19794D01*
X51885Y-19794D02*
X51885Y-19006D01*
X51885Y-19006D02*
X52515Y-19006D01*
X70000Y-19479D02*
X70118Y-19361D01*
X70118Y-19361D02*
X69882Y-19361D01*
X69882Y-19361D02*
X70000Y-19479D01*
X69961Y-19439D02*
X70039Y-19439D01*
X70079Y-19400D02*
X69921Y-19400D01*
X69685Y-19518D02*
X70315Y-19518D01*
X70315Y-19282D02*
X69685Y-19282D01*
X70315Y-19006D02*
X70315Y-19794D01*
X70315Y-19794D02*
X69685Y-19794D01*
X69685Y-19794D02*
X69685Y-19006D01*
X69685Y-19006D02*
X70315Y-19006D01*
X56000Y-35579D02*
X56118Y-35461D01*
X56118Y-35461D02*
X55882Y-35461D01*
X55882Y-35461D02*
X56000Y-35579D01*
X55961Y-35539D02*
X56039Y-35539D01*
X56079Y-35500D02*
X55921Y-35500D01*
X55685Y-35618D02*
X56315Y-35618D01*
X56315Y-35382D02*
X55685Y-35382D01*
X56315Y-35106D02*
X56315Y-35894D01*
X56315Y-35894D02*
X55685Y-35894D01*
X55685Y-35894D02*
X55685Y-35106D01*
X55685Y-35106D02*
X56315Y-35106D01*
X58500Y-36079D02*
X58618Y-35961D01*
X58618Y-35961D02*
X58382Y-35961D01*
X58382Y-35961D02*
X58500Y-36079D01*
X58461Y-36039D02*
X58539Y-36039D01*
X58579Y-36000D02*
X58421Y-36000D01*
X58185Y-36118D02*
X58815Y-36118D01*
X58815Y-35882D02*
X58185Y-35882D01*
X58815Y-35606D02*
X58815Y-36394D01*
X58815Y-36394D02*
X58185Y-36394D01*
X58185Y-36394D02*
X58185Y-35606D01*
X58185Y-35606D02*
X58815Y-35606D01*
X61000Y-36329D02*
X61118Y-36211D01*
X61118Y-36211D02*
X60882Y-36211D01*
X60882Y-36211D02*
X61000Y-36329D01*
X60961Y-36289D02*
X61039Y-36289D01*
X61079Y-36250D02*
X60921Y-36250D01*
X60685Y-36368D02*
X61315Y-36368D01*
X61315Y-36132D02*
X60685Y-36132D01*
X61315Y-35856D02*
X61315Y-36644D01*
X61315Y-36644D02*
X60685Y-36644D01*
X60685Y-36644D02*
X60685Y-35856D01*
X60685Y-35856D02*
X61315Y-35856D01*
G54D11*
X67500Y-26500D02*
X68500Y-25500D01*
X67500Y-25500D02*
X68500Y-26500D01*
X67500Y-26500D02*
X67500Y-23500D01*
X67500Y-23500D02*
X68500Y-23500D01*
X68500Y-23500D02*
X68500Y-26500D01*
X67500Y-25500D02*
X68500Y-25500D01*
X67000Y-26000D02*
X71000Y-26000D01*
X71000Y-24000D02*
X67000Y-24000D01*
X67000Y-25000D02*
X71000Y-25000D01*
X68500Y-26500D02*
X67500Y-26500D01*
G54D14*
X68550Y-34150D02*
X69450Y-34150D01*
X69450Y-34150D02*
X69450Y-34650D01*
X69450Y-34650D02*
X68550Y-34650D01*
X68550Y-34650D02*
X68550Y-34150D01*
X56700Y-26250D02*
X55800Y-26250D01*
X55800Y-26250D02*
X55800Y-25750D01*
X55800Y-25750D02*
X56700Y-25750D01*
X56700Y-25750D02*
X56700Y-26250D01*
X70250Y-20300D02*
X70250Y-21200D01*
X70250Y-21200D02*
X69750Y-21200D01*
X69750Y-21200D02*
X69750Y-20300D01*
X69750Y-20300D02*
X70250Y-20300D01*
X57450Y-35550D02*
X57450Y-36450D01*
X57450Y-36450D02*
X56950Y-36450D01*
X56950Y-36450D02*
X56950Y-35550D01*
X56950Y-35550D02*
X57450Y-35550D01*
X59850Y-35950D02*
X59850Y-36850D01*
X59850Y-36850D02*
X59350Y-36850D01*
X59350Y-36850D02*
X59350Y-35950D01*
X59350Y-35950D02*
X59850Y-35950D01*
X62450Y-35950D02*
X62450Y-36850D01*
X62450Y-36850D02*
X61950Y-36850D01*
X61950Y-36850D02*
X61950Y-35950D01*
X61950Y-35950D02*
X62450Y-35950D01*
X65050Y-35550D02*
X65050Y-36450D01*
X65050Y-36450D02*
X64550Y-36450D01*
X64550Y-36450D02*
X64550Y-35550D01*
X64550Y-35550D02*
X65050Y-35550D01*
X67250Y-35150D02*
X67250Y-36050D01*
X67250Y-36050D02*
X66750Y-36050D01*
X66750Y-36050D02*
X66750Y-35150D01*
X66750Y-35150D02*
X67250Y-35150D01*
X58250Y-31850D02*
X58250Y-30950D01*
X58250Y-30950D02*
X58750Y-30950D01*
X58750Y-30950D02*
X58750Y-31850D01*
X58750Y-31850D02*
X58250Y-31850D01*
X54750Y-31750D02*
X53850Y-31750D01*
X53850Y-31750D02*
X53850Y-31250D01*
X53850Y-31250D02*
X54750Y-31250D01*
X54750Y-31250D02*
X54750Y-31750D01*
X55050Y-32950D02*
X55050Y-33850D01*
X55050Y-33850D02*
X54550Y-33850D01*
X54550Y-33850D02*
X54550Y-32950D01*
X54550Y-32950D02*
X55050Y-32950D01*
X60950Y-33450D02*
X61850Y-33450D01*
X61850Y-33450D02*
X61850Y-33950D01*
X61850Y-33950D02*
X60950Y-33950D01*
X60950Y-33950D02*
X60950Y-33450D01*
X57950Y-34250D02*
X57050Y-34250D01*
X57050Y-34250D02*
X57050Y-33750D01*
X57050Y-33750D02*
X57950Y-33750D01*
X57950Y-33750D02*
X57950Y-34250D01*
G54D11*
X54500Y-23500D02*
X53500Y-24500D01*
X54500Y-24500D02*
X53500Y-23500D01*
X54500Y-23500D02*
X54500Y-26500D01*
X54500Y-26500D02*
X53500Y-26500D01*
X53500Y-26500D02*
X53500Y-23500D01*
X54500Y-24500D02*
X53500Y-24500D01*
X55000Y-24000D02*
X51000Y-24000D01*
X51000Y-26000D02*
X55000Y-26000D01*
X55000Y-25000D02*
X51000Y-25000D01*
X53500Y-23500D02*
X54500Y-23500D01*
G54D14*
X63500Y-36079D02*
X63618Y-35961D01*
X63618Y-35961D02*
X63382Y-35961D01*
X63382Y-35961D02*
X63500Y-36079D01*
X63461Y-36039D02*
X63539Y-36039D01*
X63579Y-36000D02*
X63421Y-36000D01*
X63185Y-36118D02*
X63815Y-36118D01*
X63815Y-35882D02*
X63185Y-35882D01*
X63815Y-35606D02*
X63815Y-36394D01*
X63815Y-36394D02*
X63185Y-36394D01*
X63185Y-36394D02*
X63185Y-35606D01*
X63185Y-35606D02*
X63815Y-35606D01*
X66000Y-35579D02*
X66118Y-35461D01*
X66118Y-35461D02*
X65882Y-35461D01*
X65882Y-35461D02*
X66000Y-35579D01*
X65961Y-35539D02*
X66039Y-35539D01*
X66079Y-35500D02*
X65921Y-35500D01*
X65685Y-35618D02*
X66315Y-35618D01*
X66315Y-35382D02*
X65685Y-35382D01*
X66315Y-35106D02*
X66315Y-35894D01*
X66315Y-35894D02*
X65685Y-35894D01*
X65685Y-35894D02*
X65685Y-35106D01*
X65685Y-35106D02*
X66315Y-35106D01*
X56300Y-33800D02*
X56100Y-34100D01*
X56300Y-33100D02*
X56300Y-34125D01*
X56300Y-34125D02*
X55700Y-34125D01*
X55700Y-34125D02*
X55700Y-33100D01*
X55700Y-33100D02*
X56300Y-33100D01*
G54D16*
X68055Y-36591D02*
X67701Y-36591D01*
X67701Y-36591D02*
X67701Y-36866D01*
X67701Y-36866D02*
X68331Y-36866D01*
X68331Y-35134D02*
X67701Y-35134D01*
X67701Y-35134D02*
X67701Y-35409D01*
X67701Y-35409D02*
X68055Y-35409D01*
X70299Y-35409D02*
X70299Y-35134D01*
X70299Y-35134D02*
X69669Y-35134D01*
X70299Y-35409D02*
X69945Y-35409D01*
X69669Y-36866D02*
X70299Y-36866D01*
X70299Y-36866D02*
X70299Y-36591D01*
X70299Y-36591D02*
X69945Y-36591D01*
X69787Y-35606D02*
X69394Y-35213D01*
X69394Y-35213D02*
X68606Y-35213D01*
X68606Y-35213D02*
X68213Y-35606D01*
X68213Y-35606D02*
X68213Y-36394D01*
X68213Y-36394D02*
X68606Y-36787D01*
X68606Y-36787D02*
X69394Y-36787D01*
X69394Y-36787D02*
X69787Y-36394D01*
X69787Y-36394D02*
X69787Y-35606D01*
X69512Y-34976D02*
X68488Y-34976D01*
X70024Y-36512D02*
X70024Y-35488D01*
X68488Y-34976D02*
X67976Y-35488D01*
X67976Y-35488D02*
X67976Y-36512D01*
X67976Y-36512D02*
X68488Y-37024D01*
X68488Y-37024D02*
X69512Y-37024D01*
X70024Y-35488D02*
X69512Y-34976D01*
X69512Y-37024D02*
X70024Y-36512D01*
X69394Y-36000D02*
X69386Y-36076D01*
X69364Y-36150D01*
X69328Y-36218D01*
X69279Y-36277D01*
X69220Y-36326D01*
X69152Y-36363D01*
X69079Y-36385D01*
X69002Y-36393D01*
X68927Y-36387D01*
X68853Y-36365D01*
X68785Y-36329D01*
X68725Y-36281D01*
X68675Y-36222D01*
X68638Y-36155D01*
X68615Y-36081D01*
X68607Y-36005D01*
X68613Y-35929D01*
X68634Y-35855D01*
X68669Y-35787D01*
X68717Y-35727D01*
X68776Y-35677D01*
X68843Y-35639D01*
X68916Y-35616D01*
X68992Y-35607D01*
X69068Y-35612D01*
X69142Y-35633D01*
X69211Y-35668D01*
X69271Y-35715D01*
X69321Y-35773D01*
X69359Y-35840D01*
X69384Y-35913D01*
X69393Y-35989D01*
X69394Y-36000D01*
G54D17*
X52900Y-26900D02*
X51700Y-26900D01*
X51700Y-26900D02*
X51700Y-29700D01*
X51700Y-29700D02*
X52900Y-29700D01*
X54100Y-26900D02*
X54400Y-26900D01*
X54400Y-26900D02*
X55300Y-27500D01*
X55300Y-27500D02*
X55300Y-29100D01*
X55300Y-29100D02*
X54400Y-29700D01*
X54400Y-29700D02*
X54100Y-29700D01*
G54D18*
X65114Y-30465D02*
X65035Y-30386D01*
X64957Y-30386D02*
X65114Y-30543D01*
X65114Y-30622D02*
X64878Y-30386D01*
X64799Y-30386D02*
X65114Y-30701D01*
X64720Y-30386D02*
X65114Y-30386D01*
X65114Y-30386D02*
X65114Y-30780D01*
X65114Y-30780D02*
X64720Y-30386D01*
X61886Y-30780D02*
X61886Y-30386D01*
X61886Y-30386D02*
X62280Y-30386D01*
X62280Y-33614D02*
X61886Y-33614D01*
X61886Y-33614D02*
X61886Y-33220D01*
X65114Y-33220D02*
X65114Y-33614D01*
X65114Y-33614D02*
X64720Y-33614D01*
G54D14*
X64561Y-31050D02*
X64558Y-31071D01*
X64552Y-31092D01*
X64542Y-31111D01*
X64528Y-31128D01*
X64512Y-31142D01*
X64493Y-31152D01*
X64472Y-31158D01*
X64450Y-31160D01*
X64430Y-31159D01*
X64409Y-31152D01*
X64390Y-31142D01*
X64373Y-31129D01*
X64359Y-31112D01*
X64348Y-31093D01*
X64342Y-31073D01*
X64340Y-31051D01*
X64341Y-31030D01*
X64347Y-31010D01*
X64357Y-30990D01*
X64371Y-30973D01*
X64387Y-30959D01*
X64406Y-30949D01*
X64427Y-30942D01*
X64448Y-30940D01*
X64469Y-30941D01*
X64490Y-30947D01*
X64509Y-30957D01*
X64526Y-30970D01*
X64540Y-30987D01*
X64551Y-31005D01*
X64558Y-31026D01*
X64560Y-31047D01*
X64561Y-31050D01*
X62100Y-30750D02*
X62250Y-30600D01*
X62250Y-30600D02*
X64750Y-30600D01*
X64750Y-30600D02*
X64900Y-30750D01*
X64900Y-30750D02*
X64900Y-33250D01*
X64900Y-33250D02*
X64750Y-33400D01*
X64750Y-33400D02*
X62250Y-33400D01*
X62250Y-33400D02*
X62100Y-33250D01*
X62100Y-33250D02*
X62100Y-30750D01*
X62020Y-28510D02*
X62020Y-28290D01*
X62280Y-28510D02*
X62280Y-28290D01*
X62360Y-28510D02*
X62360Y-28290D01*
X62360Y-28290D02*
X61940Y-28290D01*
X61940Y-28290D02*
X61940Y-28510D01*
X61940Y-28510D02*
X62360Y-28510D01*
X63780Y-28290D02*
X63780Y-28510D01*
X63520Y-28290D02*
X63520Y-28510D01*
X63440Y-28290D02*
X63440Y-28510D01*
X63440Y-28510D02*
X63860Y-28510D01*
X63860Y-28510D02*
X63860Y-28290D01*
X63860Y-28290D02*
X63440Y-28290D01*
X52290Y-33270D02*
X52510Y-33270D01*
X52290Y-33530D02*
X52510Y-33530D01*
X52290Y-33610D02*
X52510Y-33610D01*
X52510Y-33610D02*
X52510Y-33190D01*
X52510Y-33190D02*
X52290Y-33190D01*
X52290Y-33190D02*
X52290Y-33610D01*
X54090Y-33270D02*
X54310Y-33270D01*
X54090Y-33530D02*
X54310Y-33530D01*
X54090Y-33610D02*
X54310Y-33610D01*
X54310Y-33610D02*
X54310Y-33190D01*
X54310Y-33190D02*
X54090Y-33190D01*
X54090Y-33190D02*
X54090Y-33610D01*
X52500Y-30050D02*
X52400Y-30050D01*
X52400Y-30050D02*
X52400Y-30950D01*
X52400Y-30950D02*
X52500Y-30950D01*
X52500Y-30050D02*
X52500Y-30950D01*
X52500Y-30950D02*
X53150Y-30950D01*
X53850Y-30050D02*
X54500Y-30050D01*
X54500Y-30050D02*
X54500Y-30950D01*
X54500Y-30950D02*
X53850Y-30950D01*
X53150Y-30050D02*
X52500Y-30050D01*
X52300Y-31250D02*
X53200Y-31250D01*
X53200Y-31250D02*
X53200Y-31750D01*
X53200Y-31750D02*
X52300Y-31750D01*
X52300Y-31750D02*
X52300Y-31250D01*
X65250Y-28750D02*
X64350Y-28750D01*
X64350Y-28750D02*
X64350Y-28250D01*
X64350Y-28250D02*
X65250Y-28250D01*
X65250Y-28250D02*
X65250Y-28750D01*
X56250Y-23800D02*
X56250Y-24700D01*
X56250Y-24700D02*
X55750Y-24700D01*
X55750Y-24700D02*
X55750Y-23800D01*
X55750Y-23800D02*
X56250Y-23800D01*
X68950Y-30500D02*
X68950Y-30400D01*
X68950Y-30400D02*
X68050Y-30400D01*
X68050Y-30400D02*
X68050Y-30500D01*
X68950Y-30500D02*
X68050Y-30500D01*
X68050Y-30500D02*
X68050Y-31150D01*
X68950Y-31850D02*
X68950Y-32500D01*
X68950Y-32500D02*
X68050Y-32500D01*
X68050Y-32500D02*
X68050Y-31850D01*
X68950Y-31150D02*
X68950Y-30500D01*
X56700Y-30950D02*
X56800Y-30950D01*
X56800Y-30950D02*
X56800Y-30050D01*
X56800Y-30050D02*
X56700Y-30050D01*
X56700Y-30950D02*
X56700Y-30050D01*
X56700Y-30050D02*
X56050Y-30050D01*
X55350Y-30950D02*
X54700Y-30950D01*
X54700Y-30950D02*
X54700Y-30050D01*
X54700Y-30050D02*
X55350Y-30050D01*
X56050Y-30950D02*
X56700Y-30950D01*
X67650Y-31550D02*
X67650Y-32450D01*
X67650Y-32450D02*
X67150Y-32450D01*
X67150Y-32450D02*
X67150Y-31550D01*
X67150Y-31550D02*
X67650Y-31550D01*
X61150Y-29150D02*
X61250Y-29150D01*
X61250Y-29150D02*
X61250Y-28250D01*
X61250Y-28250D02*
X61150Y-28250D01*
X61150Y-29150D02*
X61150Y-28250D01*
X61150Y-28250D02*
X60500Y-28250D01*
X59800Y-29150D02*
X59150Y-29150D01*
X59150Y-29150D02*
X59150Y-28250D01*
X59150Y-28250D02*
X59800Y-28250D01*
X60500Y-29150D02*
X61150Y-29150D01*
X61150Y-29950D02*
X60250Y-29950D01*
X60250Y-29950D02*
X60250Y-29450D01*
X60250Y-29450D02*
X61150Y-29450D01*
X61150Y-29450D02*
X61150Y-29950D01*
X65200Y-23250D02*
X65200Y-23150D01*
X65200Y-23150D02*
X64300Y-23150D01*
X64300Y-23150D02*
X64300Y-23250D01*
X65200Y-23250D02*
X64300Y-23250D01*
X64300Y-23250D02*
X64300Y-23900D01*
X65200Y-24600D02*
X65200Y-25250D01*
X65200Y-25250D02*
X64300Y-25250D01*
X64300Y-25250D02*
X64300Y-24600D01*
X65200Y-23900D02*
X65200Y-23250D01*
G54D16*
X65100Y-27150D02*
X65096Y-27072D01*
X65086Y-26994D01*
X65069Y-26918D01*
X65045Y-26843D01*
X65015Y-26770D01*
X64979Y-26701D01*
X64937Y-26634D01*
X64889Y-26572D01*
X64836Y-26514D01*
X64778Y-26461D01*
X64716Y-26413D01*
X64650Y-26371D01*
X64580Y-26335D01*
X64507Y-26305D01*
X64432Y-26281D01*
X64356Y-26264D01*
X64278Y-26254D01*
X64200Y-26250D01*
X61600Y-27850D02*
X64200Y-27850D01*
X64200Y-26450D02*
X61600Y-26450D01*
X64200Y-27850D02*
X64261Y-27847D01*
X64321Y-27839D01*
X64381Y-27826D01*
X64439Y-27807D01*
X64495Y-27784D01*
X64550Y-27756D01*
X64601Y-27723D01*
X64649Y-27686D01*
X64694Y-27644D01*
X64736Y-27599D01*
X64773Y-27551D01*
X64806Y-27499D01*
X64834Y-27445D01*
X64857Y-27389D01*
X64876Y-27331D01*
X64889Y-27271D01*
X64897Y-27211D01*
X64900Y-27150D01*
X64900Y-27150D02*
X64897Y-27089D01*
X64889Y-27029D01*
X64876Y-26969D01*
X64857Y-26911D01*
X64834Y-26855D01*
X64806Y-26801D01*
X64773Y-26749D01*
X64736Y-26701D01*
X64694Y-26656D01*
X64649Y-26614D01*
X64601Y-26577D01*
X64550Y-26544D01*
X64495Y-26516D01*
X64439Y-26493D01*
X64381Y-26474D01*
X64321Y-26461D01*
X64261Y-26453D01*
X64200Y-26450D01*
X60900Y-27150D02*
X60903Y-27211D01*
X60911Y-27271D01*
X60924Y-27331D01*
X60943Y-27389D01*
X60966Y-27445D01*
X60994Y-27499D01*
X61027Y-27551D01*
X61064Y-27599D01*
X61106Y-27644D01*
X61151Y-27686D01*
X61199Y-27723D01*
X61251Y-27756D01*
X61305Y-27784D01*
X61361Y-27807D01*
X61419Y-27826D01*
X61479Y-27839D01*
X61539Y-27847D01*
X61600Y-27850D01*
X61600Y-26450D02*
X61539Y-26453D01*
X61479Y-26461D01*
X61419Y-26474D01*
X61361Y-26493D01*
X61305Y-26516D01*
X61251Y-26544D01*
X61199Y-26577D01*
X61151Y-26614D01*
X61106Y-26656D01*
X61064Y-26701D01*
X61027Y-26749D01*
X60994Y-26801D01*
X60966Y-26855D01*
X60943Y-26911D01*
X60924Y-26969D01*
X60911Y-27029D01*
X60903Y-27089D01*
X60900Y-27150D01*
X64200Y-28050D02*
X64278Y-28046D01*
X64356Y-28036D01*
X64432Y-28019D01*
X64507Y-27995D01*
X64580Y-27965D01*
X64650Y-27929D01*
X64716Y-27887D01*
X64778Y-27839D01*
X64836Y-27786D01*
X64889Y-27728D01*
X64937Y-27666D01*
X64979Y-27599D01*
X65015Y-27530D01*
X65045Y-27457D01*
X65069Y-27382D01*
X65086Y-27306D01*
X65096Y-27228D01*
X65100Y-27150D01*
X64200Y-28050D02*
X61600Y-28050D01*
X61600Y-26250D02*
X64200Y-26250D01*
X60700Y-27150D02*
X60704Y-27228D01*
X60714Y-27306D01*
X60731Y-27382D01*
X60755Y-27457D01*
X60785Y-27530D01*
X60821Y-27599D01*
X60863Y-27666D01*
X60911Y-27728D01*
X60964Y-27786D01*
X61022Y-27839D01*
X61084Y-27887D01*
X61151Y-27929D01*
X61220Y-27965D01*
X61293Y-27995D01*
X61368Y-28019D01*
X61444Y-28036D01*
X61522Y-28046D01*
X61600Y-28050D01*
X61600Y-26250D02*
X61522Y-26254D01*
X61444Y-26264D01*
X61368Y-26281D01*
X61293Y-26305D01*
X61220Y-26335D01*
X61151Y-26371D01*
X61084Y-26413D01*
X61022Y-26461D01*
X60964Y-26514D01*
X60911Y-26572D01*
X60863Y-26634D01*
X60821Y-26701D01*
X60785Y-26770D01*
X60755Y-26843D01*
X60731Y-26918D01*
X60714Y-26994D01*
X60704Y-27072D01*
X60700Y-27150D01*
G54D14*
X57450Y-23000D02*
X57450Y-22900D01*
X57450Y-22900D02*
X56550Y-22900D01*
X56550Y-22900D02*
X56550Y-23000D01*
X57450Y-23000D02*
X56550Y-23000D01*
X56550Y-23000D02*
X56550Y-23650D01*
X57450Y-24350D02*
X57450Y-25000D01*
X57450Y-25000D02*
X56550Y-25000D01*
X56550Y-25000D02*
X56550Y-24350D01*
X57450Y-23650D02*
X57450Y-23000D01*
X66000Y-23800D02*
X66000Y-24700D01*
X66000Y-24700D02*
X65500Y-24700D01*
X65500Y-24700D02*
X65500Y-23800D01*
X65500Y-23800D02*
X66000Y-23800D01*
X60850Y-22150D02*
X59950Y-22150D01*
X59950Y-22150D02*
X59950Y-21650D01*
X59950Y-21650D02*
X60850Y-21650D01*
X60850Y-21650D02*
X60850Y-22150D01*
X61150Y-21650D02*
X62050Y-21650D01*
X62050Y-21650D02*
X62050Y-22150D01*
X62050Y-22150D02*
X61150Y-22150D01*
X61150Y-22150D02*
X61150Y-21650D01*
G54D11*
X56000Y-20500D02*
X56000Y-19500D01*
X56000Y-19500D02*
X66000Y-19500D01*
X66000Y-19500D02*
X66000Y-20500D01*
X66000Y-20500D02*
X56000Y-20500D01*
X57000Y-20500D02*
X57000Y-19500D01*
X56000Y-19500D02*
X56000Y-18500D01*
X56000Y-18500D02*
X66000Y-18500D01*
X66000Y-18500D02*
X66000Y-19500D01*
X66000Y-19500D02*
X56000Y-19500D01*
X57000Y-19500D02*
X57000Y-18500D01*
X56000Y-21500D02*
X56000Y-20500D01*
X56000Y-20500D02*
X66000Y-20500D01*
X66000Y-20500D02*
X66000Y-21500D01*
X66000Y-21500D02*
X56000Y-21500D01*
X57000Y-21500D02*
X57000Y-20500D01*
G54D14*
X67550Y-20700D02*
X67550Y-19800D01*
X67550Y-19800D02*
X68050Y-19800D01*
X68050Y-19800D02*
X68050Y-20700D01*
X68050Y-20700D02*
X67550Y-20700D01*
X68700Y-19800D02*
X68700Y-20700D01*
X68700Y-20700D02*
X68200Y-20700D01*
X68200Y-20700D02*
X68200Y-19800D01*
X68200Y-19800D02*
X68700Y-19800D01*
X66900Y-20700D02*
X66900Y-19800D01*
X66900Y-19800D02*
X67400Y-19800D01*
X67400Y-19800D02*
X67400Y-20700D01*
X67400Y-20700D02*
X66900Y-20700D01*
X66250Y-20700D02*
X66250Y-19800D01*
X66250Y-19800D02*
X66750Y-19800D01*
X66750Y-19800D02*
X66750Y-20700D01*
X66750Y-20700D02*
X66250Y-20700D01*
G54D16*
X67500Y-21629D02*
X67500Y-21511D01*
X67539Y-21432D02*
X67539Y-21668D01*
X67618Y-21786D02*
X67618Y-21314D01*
X67618Y-21314D02*
X67382Y-21550D01*
X67382Y-21550D02*
X67618Y-21786D01*
X67185Y-21196D02*
X67185Y-21904D01*
X67815Y-21904D02*
X67815Y-21196D01*
X68130Y-21904D02*
X66870Y-21904D01*
X66870Y-21904D02*
X66870Y-21196D01*
X66870Y-21196D02*
X68130Y-21196D01*
X68130Y-21196D02*
X68130Y-21904D01*
G54D11*
X66000Y-19500D02*
X66000Y-18500D01*
X66000Y-18500D02*
X69000Y-18500D01*
X69000Y-18500D02*
X69000Y-19500D01*
X69000Y-19500D02*
X66000Y-19500D01*
X67000Y-18500D02*
X67000Y-19500D01*
G54D19*
X53681Y-33429D02*
X53586Y-33489D01*
X53681Y-33532D02*
X53481Y-33532D01*
X53481Y-33464D01*
X53490Y-33446D01*
X53500Y-33438D01*
X53519Y-33429D01*
X53548Y-33429D01*
X53567Y-33438D01*
X53576Y-33446D01*
X53586Y-33464D01*
X53586Y-33532D01*
X53481Y-33266D02*
X53481Y-33352D01*
X53576Y-33361D01*
X53567Y-33352D01*
X53557Y-33335D01*
X53557Y-33292D01*
X53567Y-33275D01*
X53576Y-33266D01*
X53595Y-33258D01*
X53643Y-33258D01*
X53662Y-33266D01*
X53671Y-33275D01*
X53681Y-33292D01*
X53681Y-33335D01*
X53671Y-33352D01*
X53662Y-33361D01*
X53081Y-33429D02*
X52986Y-33489D01*
X53081Y-33532D02*
X52881Y-33532D01*
X52881Y-33464D01*
X52890Y-33446D01*
X52900Y-33438D01*
X52919Y-33429D01*
X52948Y-33429D01*
X52967Y-33438D01*
X52976Y-33446D01*
X52986Y-33464D01*
X52986Y-33532D01*
X52948Y-33275D02*
X53081Y-33275D01*
X52871Y-33318D02*
X53014Y-33361D01*
X53014Y-33249D01*
X67271Y-27081D02*
X67211Y-26986D01*
X67168Y-27081D02*
X67168Y-26881D01*
X67236Y-26881D01*
X67254Y-26890D01*
X67262Y-26900D01*
X67271Y-26919D01*
X67271Y-26948D01*
X67262Y-26967D01*
X67254Y-26976D01*
X67236Y-26986D01*
X67168Y-26986D01*
X67331Y-26881D02*
X67442Y-26881D01*
X67382Y-26957D01*
X67408Y-26957D01*
X67425Y-26967D01*
X67434Y-26976D01*
X67442Y-26995D01*
X67442Y-27043D01*
X67434Y-27062D01*
X67425Y-27071D01*
X67408Y-27081D01*
X67356Y-27081D01*
X67339Y-27071D01*
X67331Y-27062D01*
X64771Y-29281D02*
X64711Y-29186D01*
X64668Y-29281D02*
X64668Y-29081D01*
X64736Y-29081D01*
X64754Y-29090D01*
X64762Y-29100D01*
X64771Y-29119D01*
X64771Y-29148D01*
X64762Y-29167D01*
X64754Y-29176D01*
X64736Y-29186D01*
X64668Y-29186D01*
X64839Y-29100D02*
X64848Y-29090D01*
X64865Y-29081D01*
X64908Y-29081D01*
X64925Y-29090D01*
X64934Y-29100D01*
X64942Y-29119D01*
X64942Y-29138D01*
X64934Y-29167D01*
X64831Y-29281D01*
X64942Y-29281D01*
X52281Y-21029D02*
X52186Y-21089D01*
X52281Y-21132D02*
X52081Y-21132D01*
X52081Y-21064D01*
X52090Y-21046D01*
X52100Y-21038D01*
X52119Y-21029D01*
X52148Y-21029D01*
X52167Y-21038D01*
X52176Y-21046D01*
X52186Y-21064D01*
X52186Y-21132D01*
X52281Y-20858D02*
X52281Y-20961D01*
X52281Y-20909D02*
X52081Y-20909D01*
X52110Y-20926D01*
X52129Y-20944D01*
X52138Y-20961D01*
G54D20*
X53336Y-37156D02*
X53336Y-37297D01*
X53327Y-37325D01*
X53308Y-37344D01*
X53280Y-37353D01*
X53261Y-37353D01*
X53430Y-37353D02*
X53430Y-37156D01*
X53505Y-37156D01*
X53524Y-37166D01*
X53533Y-37175D01*
X53542Y-37194D01*
X53542Y-37222D01*
X53533Y-37241D01*
X53524Y-37250D01*
X53505Y-37259D01*
X53430Y-37259D01*
X53730Y-37353D02*
X53618Y-37353D01*
X53674Y-37353D02*
X53674Y-37156D01*
X53655Y-37184D01*
X53636Y-37203D01*
X53618Y-37213D01*
X53031Y-34557D02*
X53031Y-34717D01*
X53040Y-34735D01*
X53050Y-34745D01*
X53068Y-34754D01*
X53106Y-34754D01*
X53125Y-34745D01*
X53134Y-34735D01*
X53143Y-34717D01*
X53143Y-34557D01*
X53228Y-34745D02*
X53256Y-34754D01*
X53303Y-34754D01*
X53321Y-34745D01*
X53331Y-34735D01*
X53340Y-34717D01*
X53340Y-34698D01*
X53331Y-34679D01*
X53321Y-34670D01*
X53303Y-34660D01*
X53265Y-34651D01*
X53246Y-34642D01*
X53237Y-34632D01*
X53228Y-34614D01*
X53228Y-34595D01*
X53237Y-34576D01*
X53246Y-34567D01*
X53265Y-34557D01*
X53312Y-34557D01*
X53340Y-34567D01*
X53491Y-34651D02*
X53519Y-34660D01*
X53528Y-34670D01*
X53537Y-34689D01*
X53537Y-34717D01*
X53528Y-34735D01*
X53519Y-34745D01*
X53500Y-34754D01*
X53425Y-34754D01*
X53425Y-34557D01*
X53491Y-34557D01*
X53509Y-34567D01*
X53519Y-34576D01*
X53528Y-34595D01*
X53528Y-34614D01*
X53519Y-34632D01*
X53509Y-34642D01*
X53491Y-34651D01*
X53425Y-34651D01*
X53622Y-34679D02*
X53772Y-34679D01*
X53932Y-34651D02*
X53960Y-34660D01*
X53969Y-34670D01*
X53978Y-34689D01*
X53978Y-34717D01*
X53969Y-34735D01*
X53960Y-34745D01*
X53941Y-34754D01*
X53866Y-34754D01*
X53866Y-34557D01*
X53932Y-34557D01*
X53950Y-34567D01*
X53960Y-34576D01*
X53969Y-34595D01*
X53969Y-34614D01*
X53960Y-34632D01*
X53950Y-34642D01*
X53932Y-34651D01*
X53866Y-34651D01*
G54D18*
X52977Y-19632D02*
X52662Y-19632D01*
X52662Y-19557D01*
X52677Y-19512D01*
X52707Y-19482D01*
X52737Y-19467D01*
X52797Y-19452D01*
X52842Y-19452D01*
X52902Y-19467D01*
X52932Y-19482D01*
X52962Y-19512D01*
X52977Y-19557D01*
X52977Y-19632D01*
X52977Y-19152D02*
X52977Y-19332D01*
X52977Y-19242D02*
X52662Y-19242D01*
X52707Y-19272D01*
X52737Y-19302D01*
X52752Y-19332D01*
X51618Y-19602D02*
X51468Y-19707D01*
X51618Y-19782D02*
X51303Y-19782D01*
X51303Y-19662D01*
X51318Y-19632D01*
X51333Y-19617D01*
X51363Y-19602D01*
X51408Y-19602D01*
X51438Y-19617D01*
X51453Y-19632D01*
X51468Y-19662D01*
X51468Y-19782D01*
X51453Y-19467D02*
X51453Y-19362D01*
X51618Y-19317D02*
X51618Y-19467D01*
X51303Y-19467D01*
X51303Y-19317D01*
X51618Y-19182D02*
X51303Y-19182D01*
X51303Y-19107D01*
X51318Y-19062D01*
X51348Y-19032D01*
X51378Y-19017D01*
X51438Y-19002D01*
X51483Y-19002D01*
X51543Y-19017D01*
X51573Y-19032D01*
X51603Y-19062D01*
X51618Y-19107D01*
X51618Y-19182D01*
X70777Y-19632D02*
X70462Y-19632D01*
X70462Y-19557D01*
X70477Y-19512D01*
X70507Y-19482D01*
X70537Y-19467D01*
X70597Y-19452D01*
X70642Y-19452D01*
X70702Y-19467D01*
X70732Y-19482D01*
X70762Y-19512D01*
X70777Y-19557D01*
X70777Y-19632D01*
X70492Y-19332D02*
X70477Y-19317D01*
X70462Y-19287D01*
X70462Y-19212D01*
X70477Y-19182D01*
X70492Y-19167D01*
X70522Y-19152D01*
X70552Y-19152D01*
X70597Y-19167D01*
X70777Y-19347D01*
X70777Y-19152D01*
X69418Y-19602D02*
X69268Y-19707D01*
X69418Y-19782D02*
X69103Y-19782D01*
X69103Y-19662D01*
X69118Y-19632D01*
X69133Y-19617D01*
X69163Y-19602D01*
X69208Y-19602D01*
X69238Y-19617D01*
X69253Y-19632D01*
X69268Y-19662D01*
X69268Y-19782D01*
X69253Y-19467D02*
X69253Y-19362D01*
X69418Y-19317D02*
X69418Y-19467D01*
X69103Y-19467D01*
X69103Y-19317D01*
X69418Y-19182D02*
X69103Y-19182D01*
X69103Y-19107D01*
X69118Y-19062D01*
X69148Y-19032D01*
X69178Y-19017D01*
X69238Y-19002D01*
X69283Y-19002D01*
X69343Y-19017D01*
X69373Y-19032D01*
X69403Y-19062D01*
X69418Y-19107D01*
X69418Y-19182D01*
X56777Y-35732D02*
X56462Y-35732D01*
X56462Y-35657D01*
X56477Y-35612D01*
X56507Y-35582D01*
X56537Y-35567D01*
X56597Y-35552D01*
X56642Y-35552D01*
X56702Y-35567D01*
X56732Y-35582D01*
X56762Y-35612D01*
X56777Y-35657D01*
X56777Y-35732D01*
X56567Y-35282D02*
X56777Y-35282D01*
X56447Y-35357D02*
X56672Y-35432D01*
X56672Y-35237D01*
X55418Y-35702D02*
X55268Y-35807D01*
X55418Y-35882D02*
X55103Y-35882D01*
X55103Y-35762D01*
X55118Y-35732D01*
X55133Y-35717D01*
X55163Y-35702D01*
X55208Y-35702D01*
X55238Y-35717D01*
X55253Y-35732D01*
X55268Y-35762D01*
X55268Y-35882D01*
X55253Y-35567D02*
X55253Y-35462D01*
X55418Y-35417D02*
X55418Y-35567D01*
X55103Y-35567D01*
X55103Y-35417D01*
X55418Y-35282D02*
X55103Y-35282D01*
X55103Y-35207D01*
X55118Y-35162D01*
X55148Y-35132D01*
X55178Y-35117D01*
X55238Y-35102D01*
X55283Y-35102D01*
X55343Y-35117D01*
X55373Y-35132D01*
X55403Y-35162D01*
X55418Y-35207D01*
X55418Y-35282D01*
X59277Y-36232D02*
X58962Y-36232D01*
X58962Y-36157D01*
X58977Y-36112D01*
X59007Y-36082D01*
X59037Y-36067D01*
X59097Y-36052D01*
X59142Y-36052D01*
X59202Y-36067D01*
X59232Y-36082D01*
X59262Y-36112D01*
X59277Y-36157D01*
X59277Y-36232D01*
X58962Y-35767D02*
X58962Y-35917D01*
X59112Y-35932D01*
X59097Y-35917D01*
X59082Y-35887D01*
X59082Y-35812D01*
X59097Y-35782D01*
X59112Y-35767D01*
X59142Y-35752D01*
X59217Y-35752D01*
X59247Y-35767D01*
X59262Y-35782D01*
X59277Y-35812D01*
X59277Y-35887D01*
X59262Y-35917D01*
X59247Y-35932D01*
X57918Y-36202D02*
X57768Y-36307D01*
X57918Y-36382D02*
X57603Y-36382D01*
X57603Y-36262D01*
X57618Y-36232D01*
X57633Y-36217D01*
X57663Y-36202D01*
X57708Y-36202D01*
X57738Y-36217D01*
X57753Y-36232D01*
X57768Y-36262D01*
X57768Y-36382D01*
X57753Y-36067D02*
X57753Y-35962D01*
X57918Y-35917D02*
X57918Y-36067D01*
X57603Y-36067D01*
X57603Y-35917D01*
X57918Y-35782D02*
X57603Y-35782D01*
X57603Y-35707D01*
X57618Y-35662D01*
X57648Y-35632D01*
X57678Y-35617D01*
X57738Y-35602D01*
X57783Y-35602D01*
X57843Y-35617D01*
X57873Y-35632D01*
X57903Y-35662D01*
X57918Y-35707D01*
X57918Y-35782D01*
X61777Y-36482D02*
X61462Y-36482D01*
X61462Y-36407D01*
X61477Y-36362D01*
X61507Y-36332D01*
X61537Y-36317D01*
X61597Y-36302D01*
X61642Y-36302D01*
X61702Y-36317D01*
X61732Y-36332D01*
X61762Y-36362D01*
X61777Y-36407D01*
X61777Y-36482D01*
X61462Y-36032D02*
X61462Y-36092D01*
X61477Y-36122D01*
X61492Y-36137D01*
X61537Y-36167D01*
X61597Y-36182D01*
X61717Y-36182D01*
X61747Y-36167D01*
X61762Y-36152D01*
X61777Y-36122D01*
X61777Y-36062D01*
X61762Y-36032D01*
X61747Y-36017D01*
X61717Y-36002D01*
X61642Y-36002D01*
X61612Y-36017D01*
X61597Y-36032D01*
X61582Y-36062D01*
X61582Y-36122D01*
X61597Y-36152D01*
X61612Y-36167D01*
X61642Y-36182D01*
X60418Y-36452D02*
X60268Y-36557D01*
X60418Y-36632D02*
X60103Y-36632D01*
X60103Y-36512D01*
X60118Y-36482D01*
X60133Y-36467D01*
X60163Y-36452D01*
X60208Y-36452D01*
X60238Y-36467D01*
X60253Y-36482D01*
X60268Y-36512D01*
X60268Y-36632D01*
X60253Y-36317D02*
X60253Y-36212D01*
X60418Y-36167D02*
X60418Y-36317D01*
X60103Y-36317D01*
X60103Y-36167D01*
X60418Y-36032D02*
X60103Y-36032D01*
X60103Y-35957D01*
X60118Y-35912D01*
X60148Y-35882D01*
X60178Y-35867D01*
X60238Y-35852D01*
X60283Y-35852D01*
X60343Y-35867D01*
X60373Y-35882D01*
X60403Y-35912D01*
X60418Y-35957D01*
X60418Y-36032D01*
G54D17*
X66312Y-25295D02*
X65912Y-25295D01*
X66312Y-25066D02*
X66083Y-25238D01*
X65912Y-25066D02*
X66140Y-25295D01*
X66312Y-24685D02*
X66312Y-24914D01*
X66312Y-24800D02*
X65912Y-24800D01*
X65969Y-24838D01*
X66007Y-24876D01*
X66026Y-24914D01*
G54D19*
X68885Y-34481D02*
X68825Y-34386D01*
X68782Y-34481D02*
X68782Y-34281D01*
X68850Y-34281D01*
X68868Y-34290D01*
X68876Y-34300D01*
X68885Y-34319D01*
X68885Y-34348D01*
X68876Y-34367D01*
X68868Y-34376D01*
X68850Y-34386D01*
X68782Y-34386D01*
X69056Y-34481D02*
X68953Y-34481D01*
X69005Y-34481D02*
X69005Y-34281D01*
X68988Y-34310D01*
X68970Y-34329D01*
X68953Y-34338D01*
X69210Y-34281D02*
X69176Y-34281D01*
X69159Y-34290D01*
X69150Y-34300D01*
X69133Y-34329D01*
X69124Y-34367D01*
X69124Y-34443D01*
X69133Y-34462D01*
X69141Y-34471D01*
X69159Y-34481D01*
X69193Y-34481D01*
X69210Y-34471D01*
X69219Y-34462D01*
X69227Y-34443D01*
X69227Y-34395D01*
X69219Y-34376D01*
X69210Y-34367D01*
X69193Y-34357D01*
X69159Y-34357D01*
X69141Y-34367D01*
X69133Y-34376D01*
X69124Y-34395D01*
X56221Y-26081D02*
X56161Y-25986D01*
X56118Y-26081D02*
X56118Y-25881D01*
X56186Y-25881D01*
X56204Y-25890D01*
X56212Y-25900D01*
X56221Y-25919D01*
X56221Y-25948D01*
X56212Y-25967D01*
X56204Y-25976D01*
X56186Y-25986D01*
X56118Y-25986D01*
X56324Y-25967D02*
X56306Y-25957D01*
X56298Y-25948D01*
X56289Y-25929D01*
X56289Y-25919D01*
X56298Y-25900D01*
X56306Y-25890D01*
X56324Y-25881D01*
X56358Y-25881D01*
X56375Y-25890D01*
X56384Y-25900D01*
X56392Y-25919D01*
X56392Y-25929D01*
X56384Y-25948D01*
X56375Y-25957D01*
X56358Y-25967D01*
X56324Y-25967D01*
X56306Y-25976D01*
X56298Y-25986D01*
X56289Y-26005D01*
X56289Y-26043D01*
X56298Y-26062D01*
X56306Y-26071D01*
X56324Y-26081D01*
X56358Y-26081D01*
X56375Y-26071D01*
X56384Y-26062D01*
X56392Y-26043D01*
X56392Y-26005D01*
X56384Y-25986D01*
X56375Y-25976D01*
X56358Y-25967D01*
X70081Y-20779D02*
X69986Y-20839D01*
X70081Y-20882D02*
X69881Y-20882D01*
X69881Y-20814D01*
X69890Y-20796D01*
X69900Y-20788D01*
X69919Y-20779D01*
X69948Y-20779D01*
X69967Y-20788D01*
X69976Y-20796D01*
X69986Y-20814D01*
X69986Y-20882D01*
X70081Y-20694D02*
X70081Y-20659D01*
X70071Y-20642D01*
X70062Y-20634D01*
X70033Y-20616D01*
X69995Y-20608D01*
X69919Y-20608D01*
X69900Y-20616D01*
X69890Y-20625D01*
X69881Y-20642D01*
X69881Y-20676D01*
X69890Y-20694D01*
X69900Y-20702D01*
X69919Y-20711D01*
X69967Y-20711D01*
X69986Y-20702D01*
X69995Y-20694D01*
X70005Y-20676D01*
X70005Y-20642D01*
X69995Y-20625D01*
X69986Y-20616D01*
X69967Y-20608D01*
X57281Y-36115D02*
X57186Y-36175D01*
X57281Y-36218D02*
X57081Y-36218D01*
X57081Y-36150D01*
X57090Y-36132D01*
X57100Y-36124D01*
X57119Y-36115D01*
X57148Y-36115D01*
X57167Y-36124D01*
X57176Y-36132D01*
X57186Y-36150D01*
X57186Y-36218D01*
X57281Y-35944D02*
X57281Y-36047D01*
X57281Y-35995D02*
X57081Y-35995D01*
X57110Y-36012D01*
X57129Y-36030D01*
X57138Y-36047D01*
X57281Y-35773D02*
X57281Y-35876D01*
X57281Y-35824D02*
X57081Y-35824D01*
X57110Y-35841D01*
X57129Y-35859D01*
X57138Y-35876D01*
X59681Y-36515D02*
X59586Y-36575D01*
X59681Y-36618D02*
X59481Y-36618D01*
X59481Y-36550D01*
X59490Y-36532D01*
X59500Y-36524D01*
X59519Y-36515D01*
X59548Y-36515D01*
X59567Y-36524D01*
X59576Y-36532D01*
X59586Y-36550D01*
X59586Y-36618D01*
X59681Y-36344D02*
X59681Y-36447D01*
X59681Y-36395D02*
X59481Y-36395D01*
X59510Y-36412D01*
X59529Y-36430D01*
X59538Y-36447D01*
X59500Y-36276D02*
X59490Y-36267D01*
X59481Y-36250D01*
X59481Y-36207D01*
X59490Y-36190D01*
X59500Y-36181D01*
X59519Y-36173D01*
X59538Y-36173D01*
X59567Y-36181D01*
X59681Y-36284D01*
X59681Y-36173D01*
X62281Y-36515D02*
X62186Y-36575D01*
X62281Y-36618D02*
X62081Y-36618D01*
X62081Y-36550D01*
X62090Y-36532D01*
X62100Y-36524D01*
X62119Y-36515D01*
X62148Y-36515D01*
X62167Y-36524D01*
X62176Y-36532D01*
X62186Y-36550D01*
X62186Y-36618D01*
X62281Y-36344D02*
X62281Y-36447D01*
X62281Y-36395D02*
X62081Y-36395D01*
X62110Y-36412D01*
X62129Y-36430D01*
X62138Y-36447D01*
X62081Y-36284D02*
X62081Y-36173D01*
X62157Y-36233D01*
X62157Y-36207D01*
X62167Y-36190D01*
X62176Y-36181D01*
X62195Y-36173D01*
X62243Y-36173D01*
X62262Y-36181D01*
X62271Y-36190D01*
X62281Y-36207D01*
X62281Y-36259D01*
X62271Y-36276D01*
X62262Y-36284D01*
X64881Y-36115D02*
X64786Y-36175D01*
X64881Y-36218D02*
X64681Y-36218D01*
X64681Y-36150D01*
X64690Y-36132D01*
X64700Y-36124D01*
X64719Y-36115D01*
X64748Y-36115D01*
X64767Y-36124D01*
X64776Y-36132D01*
X64786Y-36150D01*
X64786Y-36218D01*
X64881Y-35944D02*
X64881Y-36047D01*
X64881Y-35995D02*
X64681Y-35995D01*
X64710Y-36012D01*
X64729Y-36030D01*
X64738Y-36047D01*
X64748Y-35790D02*
X64881Y-35790D01*
X64671Y-35833D02*
X64814Y-35876D01*
X64814Y-35764D01*
X67081Y-35715D02*
X66986Y-35775D01*
X67081Y-35818D02*
X66881Y-35818D01*
X66881Y-35750D01*
X66890Y-35732D01*
X66900Y-35724D01*
X66919Y-35715D01*
X66948Y-35715D01*
X66967Y-35724D01*
X66976Y-35732D01*
X66986Y-35750D01*
X66986Y-35818D01*
X67081Y-35544D02*
X67081Y-35647D01*
X67081Y-35595D02*
X66881Y-35595D01*
X66910Y-35612D01*
X66929Y-35630D01*
X66938Y-35647D01*
X66881Y-35381D02*
X66881Y-35467D01*
X66976Y-35476D01*
X66967Y-35467D01*
X66957Y-35450D01*
X66957Y-35407D01*
X66967Y-35390D01*
X66976Y-35381D01*
X66995Y-35373D01*
X67043Y-35373D01*
X67062Y-35381D01*
X67071Y-35390D01*
X67081Y-35407D01*
X67081Y-35450D01*
X67071Y-35467D01*
X67062Y-35476D01*
X58581Y-31515D02*
X58486Y-31575D01*
X58581Y-31618D02*
X58381Y-31618D01*
X58381Y-31550D01*
X58390Y-31532D01*
X58400Y-31524D01*
X58419Y-31515D01*
X58448Y-31515D01*
X58467Y-31524D01*
X58476Y-31532D01*
X58486Y-31550D01*
X58486Y-31618D01*
X58581Y-31344D02*
X58581Y-31447D01*
X58581Y-31395D02*
X58381Y-31395D01*
X58410Y-31412D01*
X58429Y-31430D01*
X58438Y-31447D01*
X58381Y-31284D02*
X58381Y-31164D01*
X58581Y-31241D01*
X54185Y-31581D02*
X54125Y-31486D01*
X54082Y-31581D02*
X54082Y-31381D01*
X54150Y-31381D01*
X54168Y-31390D01*
X54176Y-31400D01*
X54185Y-31419D01*
X54185Y-31448D01*
X54176Y-31467D01*
X54168Y-31476D01*
X54150Y-31486D01*
X54082Y-31486D01*
X54356Y-31581D02*
X54253Y-31581D01*
X54305Y-31581D02*
X54305Y-31381D01*
X54288Y-31410D01*
X54270Y-31429D01*
X54253Y-31438D01*
X54459Y-31467D02*
X54441Y-31457D01*
X54433Y-31448D01*
X54424Y-31429D01*
X54424Y-31419D01*
X54433Y-31400D01*
X54441Y-31390D01*
X54459Y-31381D01*
X54493Y-31381D01*
X54510Y-31390D01*
X54519Y-31400D01*
X54527Y-31419D01*
X54527Y-31429D01*
X54519Y-31448D01*
X54510Y-31457D01*
X54493Y-31467D01*
X54459Y-31467D01*
X54441Y-31476D01*
X54433Y-31486D01*
X54424Y-31505D01*
X54424Y-31543D01*
X54433Y-31562D01*
X54441Y-31571D01*
X54459Y-31581D01*
X54493Y-31581D01*
X54510Y-31571D01*
X54519Y-31562D01*
X54527Y-31543D01*
X54527Y-31505D01*
X54519Y-31486D01*
X54510Y-31476D01*
X54493Y-31467D01*
X54881Y-33515D02*
X54786Y-33575D01*
X54881Y-33618D02*
X54681Y-33618D01*
X54681Y-33550D01*
X54690Y-33532D01*
X54700Y-33524D01*
X54719Y-33515D01*
X54748Y-33515D01*
X54767Y-33524D01*
X54776Y-33532D01*
X54786Y-33550D01*
X54786Y-33618D01*
X54881Y-33344D02*
X54881Y-33447D01*
X54881Y-33395D02*
X54681Y-33395D01*
X54710Y-33412D01*
X54729Y-33430D01*
X54738Y-33447D01*
X54881Y-33259D02*
X54881Y-33224D01*
X54871Y-33207D01*
X54862Y-33199D01*
X54833Y-33181D01*
X54795Y-33173D01*
X54719Y-33173D01*
X54700Y-33181D01*
X54690Y-33190D01*
X54681Y-33207D01*
X54681Y-33241D01*
X54690Y-33259D01*
X54700Y-33267D01*
X54719Y-33276D01*
X54767Y-33276D01*
X54786Y-33267D01*
X54795Y-33259D01*
X54805Y-33241D01*
X54805Y-33207D01*
X54795Y-33190D01*
X54786Y-33181D01*
X54767Y-33173D01*
X61285Y-33781D02*
X61225Y-33686D01*
X61182Y-33781D02*
X61182Y-33581D01*
X61250Y-33581D01*
X61268Y-33590D01*
X61276Y-33600D01*
X61285Y-33619D01*
X61285Y-33648D01*
X61276Y-33667D01*
X61268Y-33676D01*
X61250Y-33686D01*
X61182Y-33686D01*
X61353Y-33600D02*
X61362Y-33590D01*
X61379Y-33581D01*
X61422Y-33581D01*
X61439Y-33590D01*
X61448Y-33600D01*
X61456Y-33619D01*
X61456Y-33638D01*
X61448Y-33667D01*
X61345Y-33781D01*
X61456Y-33781D01*
X61567Y-33581D02*
X61584Y-33581D01*
X61601Y-33590D01*
X61610Y-33600D01*
X61619Y-33619D01*
X61627Y-33657D01*
X61627Y-33705D01*
X61619Y-33743D01*
X61610Y-33762D01*
X61601Y-33771D01*
X61584Y-33781D01*
X61567Y-33781D01*
X61550Y-33771D01*
X61541Y-33762D01*
X61533Y-33743D01*
X61524Y-33705D01*
X61524Y-33657D01*
X61533Y-33619D01*
X61541Y-33600D01*
X61550Y-33590D01*
X61567Y-33581D01*
X57385Y-34081D02*
X57325Y-33986D01*
X57282Y-34081D02*
X57282Y-33881D01*
X57350Y-33881D01*
X57368Y-33890D01*
X57376Y-33900D01*
X57385Y-33919D01*
X57385Y-33948D01*
X57376Y-33967D01*
X57368Y-33976D01*
X57350Y-33986D01*
X57282Y-33986D01*
X57453Y-33900D02*
X57462Y-33890D01*
X57479Y-33881D01*
X57522Y-33881D01*
X57539Y-33890D01*
X57548Y-33900D01*
X57556Y-33919D01*
X57556Y-33938D01*
X57548Y-33967D01*
X57445Y-34081D01*
X57556Y-34081D01*
X57624Y-33900D02*
X57633Y-33890D01*
X57650Y-33881D01*
X57693Y-33881D01*
X57710Y-33890D01*
X57719Y-33900D01*
X57727Y-33919D01*
X57727Y-33938D01*
X57719Y-33967D01*
X57616Y-34081D01*
X57727Y-34081D01*
G54D17*
X56012Y-25295D02*
X55612Y-25295D01*
X56012Y-25066D02*
X55783Y-25238D01*
X55612Y-25066D02*
X55840Y-25295D01*
X55650Y-24914D02*
X55631Y-24895D01*
X55612Y-24857D01*
X55612Y-24761D01*
X55631Y-24723D01*
X55650Y-24704D01*
X55688Y-24685D01*
X55726Y-24685D01*
X55783Y-24704D01*
X56012Y-24933D01*
X56012Y-24685D01*
G54D18*
X64277Y-36232D02*
X63962Y-36232D01*
X63962Y-36157D01*
X63977Y-36112D01*
X64007Y-36082D01*
X64037Y-36067D01*
X64097Y-36052D01*
X64142Y-36052D01*
X64202Y-36067D01*
X64232Y-36082D01*
X64262Y-36112D01*
X64277Y-36157D01*
X64277Y-36232D01*
X63962Y-35947D02*
X63962Y-35737D01*
X64277Y-35872D01*
X62918Y-36202D02*
X62768Y-36307D01*
X62918Y-36382D02*
X62603Y-36382D01*
X62603Y-36262D01*
X62618Y-36232D01*
X62633Y-36217D01*
X62663Y-36202D01*
X62708Y-36202D01*
X62738Y-36217D01*
X62753Y-36232D01*
X62768Y-36262D01*
X62768Y-36382D01*
X62753Y-36067D02*
X62753Y-35962D01*
X62918Y-35917D02*
X62918Y-36067D01*
X62603Y-36067D01*
X62603Y-35917D01*
X62918Y-35782D02*
X62603Y-35782D01*
X62603Y-35707D01*
X62618Y-35662D01*
X62648Y-35632D01*
X62678Y-35617D01*
X62738Y-35602D01*
X62783Y-35602D01*
X62843Y-35617D01*
X62873Y-35632D01*
X62903Y-35662D01*
X62918Y-35707D01*
X62918Y-35782D01*
X66777Y-35732D02*
X66462Y-35732D01*
X66462Y-35657D01*
X66477Y-35612D01*
X66507Y-35582D01*
X66537Y-35567D01*
X66597Y-35552D01*
X66642Y-35552D01*
X66702Y-35567D01*
X66732Y-35582D01*
X66762Y-35612D01*
X66777Y-35657D01*
X66777Y-35732D01*
X66597Y-35372D02*
X66582Y-35402D01*
X66567Y-35417D01*
X66537Y-35432D01*
X66522Y-35432D01*
X66492Y-35417D01*
X66477Y-35402D01*
X66462Y-35372D01*
X66462Y-35312D01*
X66477Y-35282D01*
X66492Y-35267D01*
X66522Y-35252D01*
X66537Y-35252D01*
X66567Y-35267D01*
X66582Y-35282D01*
X66597Y-35312D01*
X66597Y-35372D01*
X66612Y-35402D01*
X66627Y-35417D01*
X66657Y-35432D01*
X66717Y-35432D01*
X66747Y-35417D01*
X66762Y-35402D01*
X66777Y-35372D01*
X66777Y-35312D01*
X66762Y-35282D01*
X66747Y-35267D01*
X66717Y-35252D01*
X66657Y-35252D01*
X66627Y-35267D01*
X66612Y-35282D01*
X66597Y-35312D01*
X65418Y-35702D02*
X65268Y-35807D01*
X65418Y-35882D02*
X65103Y-35882D01*
X65103Y-35762D01*
X65118Y-35732D01*
X65133Y-35717D01*
X65163Y-35702D01*
X65208Y-35702D01*
X65238Y-35717D01*
X65253Y-35732D01*
X65268Y-35762D01*
X65268Y-35882D01*
X65253Y-35567D02*
X65253Y-35462D01*
X65418Y-35417D02*
X65418Y-35567D01*
X65103Y-35567D01*
X65103Y-35417D01*
X65418Y-35282D02*
X65103Y-35282D01*
X65103Y-35207D01*
X65118Y-35162D01*
X65148Y-35132D01*
X65178Y-35117D01*
X65238Y-35102D01*
X65283Y-35102D01*
X65343Y-35117D01*
X65373Y-35132D01*
X65403Y-35162D01*
X65418Y-35207D01*
X65418Y-35282D01*
G54D21*
X55932Y-32963D02*
X55904Y-32949D01*
X55875Y-32920D01*
X55832Y-32877D01*
X55804Y-32863D01*
X55775Y-32863D01*
X55790Y-32934D02*
X55761Y-32920D01*
X55732Y-32892D01*
X55718Y-32834D01*
X55718Y-32734D01*
X55732Y-32677D01*
X55761Y-32649D01*
X55790Y-32634D01*
X55847Y-32634D01*
X55875Y-32649D01*
X55904Y-32677D01*
X55918Y-32734D01*
X55918Y-32834D01*
X55904Y-32892D01*
X55875Y-32920D01*
X55847Y-32934D01*
X55790Y-32934D01*
X56204Y-32934D02*
X56032Y-32934D01*
X56118Y-32934D02*
X56118Y-32634D01*
X56089Y-32677D01*
X56061Y-32706D01*
X56032Y-32720D01*
X55976Y-33936D02*
X55985Y-33908D01*
X55995Y-33899D01*
X56014Y-33890D01*
X56042Y-33890D01*
X56060Y-33899D01*
X56070Y-33908D01*
X56079Y-33927D01*
X56079Y-34002D01*
X55882Y-34002D01*
X55882Y-33936D01*
X55892Y-33918D01*
X55901Y-33908D01*
X55920Y-33899D01*
X55939Y-33899D01*
X55957Y-33908D01*
X55967Y-33918D01*
X55976Y-33936D01*
X55976Y-34002D01*
X56070Y-33814D02*
X56079Y-33786D01*
X56079Y-33739D01*
X56070Y-33721D01*
X56060Y-33711D01*
X56042Y-33702D01*
X56023Y-33702D01*
X56004Y-33711D01*
X55995Y-33721D01*
X55985Y-33739D01*
X55976Y-33777D01*
X55967Y-33796D01*
X55957Y-33805D01*
X55939Y-33814D01*
X55920Y-33814D01*
X55901Y-33805D01*
X55892Y-33796D01*
X55882Y-33777D01*
X55882Y-33730D01*
X55892Y-33702D01*
X56070Y-33626D02*
X56079Y-33598D01*
X56079Y-33551D01*
X56070Y-33533D01*
X56060Y-33523D01*
X56042Y-33514D01*
X56023Y-33514D01*
X56004Y-33523D01*
X55995Y-33533D01*
X55985Y-33551D01*
X55976Y-33589D01*
X55967Y-33608D01*
X55957Y-33617D01*
X55939Y-33626D01*
X55920Y-33626D01*
X55901Y-33617D01*
X55892Y-33608D01*
X55882Y-33589D01*
X55882Y-33542D01*
X55892Y-33514D01*
X55967Y-33401D02*
X55957Y-33420D01*
X55948Y-33429D01*
X55929Y-33438D01*
X55920Y-33438D01*
X55901Y-33429D01*
X55892Y-33420D01*
X55882Y-33401D01*
X55882Y-33363D01*
X55892Y-33345D01*
X55901Y-33335D01*
X55920Y-33326D01*
X55929Y-33326D01*
X55948Y-33335D01*
X55957Y-33345D01*
X55967Y-33363D01*
X55967Y-33401D01*
X55976Y-33420D01*
X55985Y-33429D01*
X56004Y-33438D01*
X56042Y-33438D01*
X56060Y-33429D01*
X56070Y-33420D01*
X56079Y-33401D01*
X56079Y-33363D01*
X56070Y-33345D01*
X56060Y-33335D01*
X56042Y-33326D01*
X56004Y-33326D01*
X55985Y-33335D01*
X55976Y-33345D01*
X55967Y-33363D01*
X55948Y-33157D02*
X56079Y-33157D01*
X55873Y-33204D02*
X56014Y-33250D01*
X56014Y-33129D01*
G54D17*
X53562Y-28605D02*
X53886Y-28605D01*
X53924Y-28586D01*
X53943Y-28567D01*
X53962Y-28529D01*
X53962Y-28452D01*
X53943Y-28414D01*
X53924Y-28395D01*
X53886Y-28376D01*
X53562Y-28376D01*
X53962Y-27976D02*
X53962Y-28205D01*
X53962Y-28091D02*
X53562Y-28091D01*
X53619Y-28129D01*
X53657Y-28167D01*
X53676Y-28205D01*
X53362Y-29567D02*
X52962Y-29567D01*
X53362Y-29338D01*
X52962Y-29338D01*
X52962Y-29186D02*
X53362Y-28919D01*
X52962Y-28919D02*
X53362Y-29186D01*
X53362Y-28557D02*
X53362Y-28786D01*
X53362Y-28672D02*
X52962Y-28672D01*
X53019Y-28710D01*
X53057Y-28748D01*
X53076Y-28786D01*
X53362Y-28176D02*
X53362Y-28405D01*
X53362Y-28291D02*
X52962Y-28291D01*
X53019Y-28329D01*
X53057Y-28367D01*
X53076Y-28405D01*
X53362Y-27795D02*
X53362Y-28024D01*
X53362Y-27910D02*
X52962Y-27910D01*
X53019Y-27948D01*
X53057Y-27986D01*
X53076Y-28024D01*
X52962Y-27662D02*
X52962Y-27395D01*
X53362Y-27567D01*
X53324Y-27014D02*
X53343Y-27033D01*
X53362Y-27090D01*
X53362Y-27128D01*
X53343Y-27186D01*
X53305Y-27224D01*
X53267Y-27243D01*
X53190Y-27262D01*
X53133Y-27262D01*
X53057Y-27243D01*
X53019Y-27224D01*
X52981Y-27186D01*
X52962Y-27128D01*
X52962Y-27090D01*
X52981Y-27033D01*
X53000Y-27014D01*
G54D18*
X63275Y-31374D02*
X63275Y-31613D01*
X63289Y-31641D01*
X63303Y-31655D01*
X63331Y-31669D01*
X63388Y-31669D01*
X63416Y-31655D01*
X63430Y-31641D01*
X63444Y-31613D01*
X63444Y-31374D01*
X63570Y-31402D02*
X63584Y-31388D01*
X63612Y-31374D01*
X63683Y-31374D01*
X63711Y-31388D01*
X63725Y-31402D01*
X63739Y-31430D01*
X63739Y-31458D01*
X63725Y-31500D01*
X63556Y-31669D01*
X63739Y-31669D01*
X61302Y-32569D02*
X61161Y-32569D01*
X61161Y-32274D01*
X61400Y-32569D02*
X61400Y-32274D01*
X61513Y-32274D01*
X61541Y-32288D01*
X61555Y-32302D01*
X61569Y-32330D01*
X61569Y-32372D01*
X61555Y-32400D01*
X61541Y-32414D01*
X61513Y-32428D01*
X61400Y-32428D01*
X61864Y-32541D02*
X61850Y-32555D01*
X61808Y-32569D01*
X61780Y-32569D01*
X61737Y-32555D01*
X61709Y-32527D01*
X61695Y-32499D01*
X61681Y-32442D01*
X61681Y-32400D01*
X61695Y-32344D01*
X61709Y-32316D01*
X61737Y-32288D01*
X61780Y-32274D01*
X61808Y-32274D01*
X61850Y-32288D01*
X61864Y-32302D01*
X62145Y-32569D02*
X61976Y-32569D01*
X62060Y-32569D02*
X62060Y-32274D01*
X62032Y-32316D01*
X62004Y-32344D01*
X61976Y-32358D01*
X62426Y-32569D02*
X62257Y-32569D01*
X62341Y-32569D02*
X62341Y-32274D01*
X62313Y-32316D01*
X62285Y-32344D01*
X62257Y-32358D01*
X62552Y-32274D02*
X62552Y-32513D01*
X62566Y-32541D01*
X62580Y-32555D01*
X62608Y-32569D01*
X62665Y-32569D01*
X62693Y-32555D01*
X62707Y-32541D01*
X62721Y-32513D01*
X62721Y-32274D01*
X62847Y-32302D02*
X62861Y-32288D01*
X62889Y-32274D01*
X62960Y-32274D01*
X62988Y-32288D01*
X63002Y-32302D01*
X63016Y-32330D01*
X63016Y-32358D01*
X63002Y-32400D01*
X62833Y-32569D01*
X63016Y-32569D01*
X63269Y-32372D02*
X63269Y-32569D01*
X63198Y-32260D02*
X63128Y-32471D01*
X63311Y-32471D01*
X63522Y-32414D02*
X63423Y-32414D01*
X63423Y-32569D02*
X63423Y-32274D01*
X63564Y-32274D01*
X63775Y-32414D02*
X63817Y-32428D01*
X63831Y-32442D01*
X63845Y-32471D01*
X63845Y-32513D01*
X63831Y-32541D01*
X63817Y-32555D01*
X63789Y-32569D01*
X63676Y-32569D01*
X63676Y-32274D01*
X63775Y-32274D01*
X63803Y-32288D01*
X63817Y-32302D01*
X63831Y-32330D01*
X63831Y-32358D01*
X63817Y-32386D01*
X63803Y-32400D01*
X63775Y-32414D01*
X63676Y-32414D01*
X63971Y-32569D02*
X63971Y-32274D01*
X64041Y-32274D01*
X64084Y-32288D01*
X64112Y-32316D01*
X64126Y-32344D01*
X64140Y-32400D01*
X64140Y-32442D01*
X64126Y-32499D01*
X64112Y-32527D01*
X64084Y-32555D01*
X64041Y-32569D01*
X63971Y-32569D01*
X64393Y-32372D02*
X64393Y-32569D01*
X64322Y-32260D02*
X64252Y-32471D01*
X64435Y-32471D01*
X64589Y-32400D02*
X64561Y-32386D01*
X64547Y-32372D01*
X64533Y-32344D01*
X64533Y-32330D01*
X64547Y-32302D01*
X64561Y-32288D01*
X64589Y-32274D01*
X64646Y-32274D01*
X64674Y-32288D01*
X64688Y-32302D01*
X64702Y-32330D01*
X64702Y-32344D01*
X64688Y-32372D01*
X64674Y-32386D01*
X64646Y-32400D01*
X64589Y-32400D01*
X64561Y-32414D01*
X64547Y-32428D01*
X64533Y-32457D01*
X64533Y-32513D01*
X64547Y-32541D01*
X64561Y-32555D01*
X64589Y-32569D01*
X64646Y-32569D01*
X64674Y-32555D01*
X64688Y-32541D01*
X64702Y-32513D01*
X64702Y-32457D01*
X64688Y-32428D01*
X64674Y-32414D01*
X64646Y-32400D01*
X65039Y-32260D02*
X64786Y-32639D01*
X65109Y-32274D02*
X65292Y-32274D01*
X65193Y-32386D01*
X65236Y-32386D01*
X65264Y-32400D01*
X65278Y-32414D01*
X65292Y-32442D01*
X65292Y-32513D01*
X65278Y-32541D01*
X65264Y-32555D01*
X65236Y-32569D01*
X65151Y-32569D01*
X65123Y-32555D01*
X65109Y-32541D01*
X65474Y-32274D02*
X65503Y-32274D01*
X65531Y-32288D01*
X65545Y-32302D01*
X65559Y-32330D01*
X65573Y-32386D01*
X65573Y-32457D01*
X65559Y-32513D01*
X65545Y-32541D01*
X65531Y-32555D01*
X65503Y-32569D01*
X65474Y-32569D01*
X65446Y-32555D01*
X65432Y-32541D01*
X65418Y-32513D01*
X65404Y-32457D01*
X65404Y-32386D01*
X65418Y-32330D01*
X65432Y-32302D01*
X65446Y-32288D01*
X65474Y-32274D01*
X65854Y-32569D02*
X65685Y-32569D01*
X65769Y-32569D02*
X65769Y-32274D01*
X65741Y-32316D01*
X65713Y-32344D01*
X65685Y-32358D01*
G54D22*
X62112Y-28609D02*
X62109Y-28611D01*
X62100Y-28614D01*
X62094Y-28614D01*
X62086Y-28611D01*
X62080Y-28606D01*
X62077Y-28600D01*
X62074Y-28589D01*
X62074Y-28580D01*
X62077Y-28569D01*
X62080Y-28563D01*
X62086Y-28557D01*
X62094Y-28554D01*
X62100Y-28554D01*
X62109Y-28557D01*
X62112Y-28560D01*
X62169Y-28614D02*
X62134Y-28614D01*
X62152Y-28614D02*
X62152Y-28554D01*
X62146Y-28563D01*
X62140Y-28569D01*
X62134Y-28571D01*
X62226Y-28614D02*
X62191Y-28614D01*
X62209Y-28614D02*
X62209Y-28554D01*
X62203Y-28563D01*
X62197Y-28569D01*
X62191Y-28571D01*
X63612Y-28229D02*
X63609Y-28231D01*
X63600Y-28234D01*
X63594Y-28234D01*
X63586Y-28231D01*
X63580Y-28226D01*
X63577Y-28220D01*
X63574Y-28209D01*
X63574Y-28200D01*
X63577Y-28189D01*
X63580Y-28183D01*
X63586Y-28177D01*
X63594Y-28174D01*
X63600Y-28174D01*
X63609Y-28177D01*
X63612Y-28180D01*
X63669Y-28234D02*
X63634Y-28234D01*
X63652Y-28234D02*
X63652Y-28174D01*
X63646Y-28183D01*
X63640Y-28189D01*
X63634Y-28191D01*
X63691Y-28180D02*
X63694Y-28177D01*
X63700Y-28174D01*
X63714Y-28174D01*
X63720Y-28177D01*
X63723Y-28180D01*
X63726Y-28186D01*
X63726Y-28191D01*
X63723Y-28200D01*
X63689Y-28234D01*
X63726Y-28234D01*
X52229Y-33438D02*
X52231Y-33441D01*
X52234Y-33450D01*
X52234Y-33456D01*
X52231Y-33464D01*
X52226Y-33470D01*
X52220Y-33473D01*
X52209Y-33476D01*
X52200Y-33476D01*
X52189Y-33473D01*
X52183Y-33470D01*
X52177Y-33464D01*
X52174Y-33456D01*
X52174Y-33450D01*
X52177Y-33441D01*
X52180Y-33438D01*
X52234Y-33381D02*
X52234Y-33416D01*
X52234Y-33398D02*
X52174Y-33398D01*
X52183Y-33404D01*
X52189Y-33410D01*
X52191Y-33416D01*
X52174Y-33361D02*
X52174Y-33324D01*
X52197Y-33344D01*
X52197Y-33336D01*
X52200Y-33330D01*
X52203Y-33327D01*
X52209Y-33324D01*
X52223Y-33324D01*
X52229Y-33327D01*
X52231Y-33330D01*
X52234Y-33336D01*
X52234Y-33353D01*
X52231Y-33359D01*
X52229Y-33361D01*
X54029Y-33438D02*
X54031Y-33441D01*
X54034Y-33450D01*
X54034Y-33456D01*
X54031Y-33464D01*
X54026Y-33470D01*
X54020Y-33473D01*
X54009Y-33476D01*
X54000Y-33476D01*
X53989Y-33473D01*
X53983Y-33470D01*
X53977Y-33464D01*
X53974Y-33456D01*
X53974Y-33450D01*
X53977Y-33441D01*
X53980Y-33438D01*
X54034Y-33381D02*
X54034Y-33416D01*
X54034Y-33398D02*
X53974Y-33398D01*
X53983Y-33404D01*
X53989Y-33410D01*
X53991Y-33416D01*
X53994Y-33330D02*
X54034Y-33330D01*
X53971Y-33344D02*
X54014Y-33359D01*
X54014Y-33321D01*
G54D14*
X53450Y-30593D02*
X53436Y-30607D01*
X53393Y-30621D01*
X53364Y-30621D01*
X53321Y-30607D01*
X53293Y-30579D01*
X53278Y-30550D01*
X53264Y-30493D01*
X53264Y-30450D01*
X53278Y-30393D01*
X53293Y-30364D01*
X53321Y-30336D01*
X53364Y-30321D01*
X53393Y-30321D01*
X53436Y-30336D01*
X53450Y-30350D01*
X53736Y-30621D02*
X53564Y-30621D01*
X53650Y-30621D02*
X53650Y-30321D01*
X53621Y-30364D01*
X53593Y-30393D01*
X53564Y-30407D01*
G54D19*
X52721Y-31562D02*
X52712Y-31571D01*
X52686Y-31581D01*
X52669Y-31581D01*
X52644Y-31571D01*
X52626Y-31552D01*
X52618Y-31533D01*
X52609Y-31495D01*
X52609Y-31467D01*
X52618Y-31429D01*
X52626Y-31410D01*
X52644Y-31390D01*
X52669Y-31381D01*
X52686Y-31381D01*
X52712Y-31390D01*
X52721Y-31400D01*
X52789Y-31400D02*
X52798Y-31390D01*
X52815Y-31381D01*
X52858Y-31381D01*
X52875Y-31390D01*
X52884Y-31400D01*
X52892Y-31419D01*
X52892Y-31438D01*
X52884Y-31467D01*
X52781Y-31581D01*
X52892Y-31581D01*
X64771Y-28562D02*
X64762Y-28571D01*
X64736Y-28581D01*
X64719Y-28581D01*
X64694Y-28571D01*
X64676Y-28552D01*
X64668Y-28533D01*
X64659Y-28495D01*
X64659Y-28467D01*
X64668Y-28429D01*
X64676Y-28410D01*
X64694Y-28390D01*
X64719Y-28381D01*
X64736Y-28381D01*
X64762Y-28390D01*
X64771Y-28400D01*
X64831Y-28381D02*
X64942Y-28381D01*
X64882Y-28457D01*
X64908Y-28457D01*
X64925Y-28467D01*
X64934Y-28476D01*
X64942Y-28495D01*
X64942Y-28543D01*
X64934Y-28562D01*
X64925Y-28571D01*
X64908Y-28581D01*
X64856Y-28581D01*
X64839Y-28571D01*
X64831Y-28562D01*
X56062Y-24279D02*
X56071Y-24288D01*
X56081Y-24314D01*
X56081Y-24331D01*
X56071Y-24356D01*
X56052Y-24374D01*
X56033Y-24382D01*
X55995Y-24391D01*
X55967Y-24391D01*
X55929Y-24382D01*
X55910Y-24374D01*
X55890Y-24356D01*
X55881Y-24331D01*
X55881Y-24314D01*
X55890Y-24288D01*
X55900Y-24279D01*
X55948Y-24125D02*
X56081Y-24125D01*
X55871Y-24168D02*
X56014Y-24211D01*
X56014Y-24099D01*
G54D14*
X68593Y-31550D02*
X68607Y-31564D01*
X68621Y-31607D01*
X68621Y-31636D01*
X68607Y-31679D01*
X68579Y-31707D01*
X68550Y-31722D01*
X68493Y-31736D01*
X68450Y-31736D01*
X68393Y-31722D01*
X68364Y-31707D01*
X68336Y-31679D01*
X68321Y-31636D01*
X68321Y-31607D01*
X68336Y-31564D01*
X68350Y-31550D01*
X68321Y-31279D02*
X68321Y-31422D01*
X68464Y-31436D01*
X68450Y-31422D01*
X68436Y-31393D01*
X68436Y-31322D01*
X68450Y-31293D01*
X68464Y-31279D01*
X68493Y-31264D01*
X68564Y-31264D01*
X68593Y-31279D01*
X68607Y-31293D01*
X68621Y-31322D01*
X68621Y-31393D01*
X68607Y-31422D01*
X68593Y-31436D01*
X55650Y-30593D02*
X55636Y-30607D01*
X55593Y-30621D01*
X55564Y-30621D01*
X55521Y-30607D01*
X55493Y-30579D01*
X55478Y-30550D01*
X55464Y-30493D01*
X55464Y-30450D01*
X55478Y-30393D01*
X55493Y-30364D01*
X55521Y-30336D01*
X55564Y-30321D01*
X55593Y-30321D01*
X55636Y-30336D01*
X55650Y-30350D01*
X55907Y-30321D02*
X55850Y-30321D01*
X55821Y-30336D01*
X55807Y-30350D01*
X55778Y-30393D01*
X55764Y-30450D01*
X55764Y-30564D01*
X55778Y-30593D01*
X55793Y-30607D01*
X55821Y-30621D01*
X55878Y-30621D01*
X55907Y-30607D01*
X55921Y-30593D01*
X55936Y-30564D01*
X55936Y-30493D01*
X55921Y-30464D01*
X55907Y-30450D01*
X55878Y-30436D01*
X55821Y-30436D01*
X55793Y-30450D01*
X55778Y-30464D01*
X55764Y-30493D01*
G54D19*
X67462Y-32029D02*
X67471Y-32038D01*
X67481Y-32064D01*
X67481Y-32081D01*
X67471Y-32106D01*
X67452Y-32124D01*
X67433Y-32132D01*
X67395Y-32141D01*
X67367Y-32141D01*
X67329Y-32132D01*
X67310Y-32124D01*
X67290Y-32106D01*
X67281Y-32081D01*
X67281Y-32064D01*
X67290Y-32038D01*
X67300Y-32029D01*
X67281Y-31969D02*
X67281Y-31849D01*
X67481Y-31926D01*
G54D14*
X60100Y-28793D02*
X60086Y-28807D01*
X60043Y-28821D01*
X60014Y-28821D01*
X59971Y-28807D01*
X59943Y-28779D01*
X59928Y-28750D01*
X59914Y-28693D01*
X59914Y-28650D01*
X59928Y-28593D01*
X59943Y-28564D01*
X59971Y-28536D01*
X60014Y-28521D01*
X60043Y-28521D01*
X60086Y-28536D01*
X60100Y-28550D01*
X60243Y-28821D02*
X60300Y-28821D01*
X60328Y-28807D01*
X60343Y-28793D01*
X60371Y-28750D01*
X60386Y-28693D01*
X60386Y-28579D01*
X60371Y-28550D01*
X60357Y-28536D01*
X60328Y-28521D01*
X60271Y-28521D01*
X60243Y-28536D01*
X60228Y-28550D01*
X60214Y-28579D01*
X60214Y-28650D01*
X60228Y-28679D01*
X60243Y-28693D01*
X60271Y-28707D01*
X60328Y-28707D01*
X60357Y-28693D01*
X60371Y-28679D01*
X60386Y-28650D01*
G54D19*
X60585Y-29762D02*
X60576Y-29771D01*
X60550Y-29781D01*
X60533Y-29781D01*
X60508Y-29771D01*
X60490Y-29752D01*
X60482Y-29733D01*
X60473Y-29695D01*
X60473Y-29667D01*
X60482Y-29629D01*
X60490Y-29610D01*
X60508Y-29590D01*
X60533Y-29581D01*
X60550Y-29581D01*
X60576Y-29590D01*
X60585Y-29600D01*
X60756Y-29781D02*
X60653Y-29781D01*
X60705Y-29781D02*
X60705Y-29581D01*
X60688Y-29610D01*
X60670Y-29629D01*
X60653Y-29638D01*
X60867Y-29581D02*
X60884Y-29581D01*
X60901Y-29590D01*
X60910Y-29600D01*
X60919Y-29619D01*
X60927Y-29657D01*
X60927Y-29705D01*
X60919Y-29743D01*
X60910Y-29762D01*
X60901Y-29771D01*
X60884Y-29781D01*
X60867Y-29781D01*
X60850Y-29771D01*
X60841Y-29762D01*
X60833Y-29743D01*
X60824Y-29705D01*
X60824Y-29657D01*
X60833Y-29619D01*
X60841Y-29600D01*
X60850Y-29590D01*
X60867Y-29581D01*
G54D14*
X64843Y-24300D02*
X64857Y-24314D01*
X64871Y-24357D01*
X64871Y-24386D01*
X64857Y-24429D01*
X64829Y-24457D01*
X64800Y-24472D01*
X64743Y-24486D01*
X64700Y-24486D01*
X64643Y-24472D01*
X64614Y-24457D01*
X64586Y-24429D01*
X64571Y-24386D01*
X64571Y-24357D01*
X64586Y-24314D01*
X64600Y-24300D01*
X64700Y-24129D02*
X64686Y-24157D01*
X64671Y-24172D01*
X64643Y-24186D01*
X64629Y-24186D01*
X64600Y-24172D01*
X64586Y-24157D01*
X64571Y-24129D01*
X64571Y-24072D01*
X64586Y-24043D01*
X64600Y-24029D01*
X64629Y-24014D01*
X64643Y-24014D01*
X64671Y-24029D01*
X64686Y-24043D01*
X64700Y-24072D01*
X64700Y-24129D01*
X64714Y-24157D01*
X64729Y-24172D01*
X64757Y-24186D01*
X64814Y-24186D01*
X64843Y-24172D01*
X64857Y-24157D01*
X64871Y-24129D01*
X64871Y-24072D01*
X64857Y-24043D01*
X64843Y-24029D01*
X64814Y-24014D01*
X64757Y-24014D01*
X64729Y-24029D01*
X64714Y-24043D01*
X64700Y-24072D01*
G54D10*
X62545Y-26882D02*
X62879Y-27332D01*
X62879Y-26882D02*
X62545Y-27332D01*
X63331Y-27332D02*
X63045Y-27332D01*
X63188Y-27332D02*
X63188Y-26882D01*
X63140Y-26946D01*
X63093Y-26989D01*
X63045Y-27011D01*
X62055Y-26132D02*
X61769Y-26132D01*
X61912Y-26132D02*
X61912Y-25682D01*
X61864Y-25746D01*
X61817Y-25789D01*
X61769Y-25811D01*
X62245Y-25725D02*
X62269Y-25704D01*
X62317Y-25682D01*
X62436Y-25682D01*
X62483Y-25704D01*
X62507Y-25725D01*
X62531Y-25768D01*
X62531Y-25811D01*
X62507Y-25875D01*
X62221Y-26132D01*
X62531Y-26132D01*
X62745Y-26132D02*
X62745Y-25682D01*
X62912Y-26004D01*
X63078Y-25682D01*
X63078Y-26132D01*
X63316Y-26132D02*
X63316Y-25682D01*
X63316Y-25896D02*
X63602Y-25896D01*
X63602Y-26132D02*
X63602Y-25682D01*
X63792Y-25832D02*
X64054Y-25832D01*
X63792Y-26132D01*
X64054Y-26132D01*
G54D14*
X57093Y-24193D02*
X57107Y-24207D01*
X57121Y-24250D01*
X57121Y-24279D01*
X57107Y-24322D01*
X57079Y-24350D01*
X57050Y-24365D01*
X56993Y-24379D01*
X56950Y-24379D01*
X56893Y-24365D01*
X56864Y-24350D01*
X56836Y-24322D01*
X56821Y-24279D01*
X56821Y-24250D01*
X56836Y-24207D01*
X56850Y-24193D01*
X57121Y-23907D02*
X57121Y-24079D01*
X57121Y-23993D02*
X56821Y-23993D01*
X56864Y-24022D01*
X56893Y-24050D01*
X56907Y-24079D01*
X56821Y-23636D02*
X56821Y-23779D01*
X56964Y-23793D01*
X56950Y-23779D01*
X56936Y-23750D01*
X56936Y-23679D01*
X56950Y-23650D01*
X56964Y-23636D01*
X56993Y-23621D01*
X57064Y-23621D01*
X57093Y-23636D01*
X57107Y-23650D01*
X57121Y-23679D01*
X57121Y-23750D01*
X57107Y-23779D01*
X57093Y-23793D01*
G54D19*
X65812Y-24365D02*
X65821Y-24374D01*
X65831Y-24400D01*
X65831Y-24417D01*
X65821Y-24442D01*
X65802Y-24460D01*
X65783Y-24468D01*
X65745Y-24477D01*
X65717Y-24477D01*
X65679Y-24468D01*
X65660Y-24460D01*
X65640Y-24442D01*
X65631Y-24417D01*
X65631Y-24400D01*
X65640Y-24374D01*
X65650Y-24365D01*
X65831Y-24194D02*
X65831Y-24297D01*
X65831Y-24245D02*
X65631Y-24245D01*
X65660Y-24262D01*
X65679Y-24280D01*
X65688Y-24297D01*
X65631Y-24040D02*
X65631Y-24074D01*
X65640Y-24091D01*
X65650Y-24100D01*
X65679Y-24117D01*
X65717Y-24126D01*
X65793Y-24126D01*
X65812Y-24117D01*
X65821Y-24109D01*
X65831Y-24091D01*
X65831Y-24057D01*
X65821Y-24040D01*
X65812Y-24031D01*
X65793Y-24023D01*
X65745Y-24023D01*
X65726Y-24031D01*
X65717Y-24040D01*
X65707Y-24057D01*
X65707Y-24091D01*
X65717Y-24109D01*
X65726Y-24117D01*
X65745Y-24126D01*
X60371Y-21981D02*
X60311Y-21886D01*
X60268Y-21981D02*
X60268Y-21781D01*
X60336Y-21781D01*
X60354Y-21790D01*
X60362Y-21800D01*
X60371Y-21819D01*
X60371Y-21848D01*
X60362Y-21867D01*
X60354Y-21876D01*
X60336Y-21886D01*
X60268Y-21886D01*
X60525Y-21781D02*
X60491Y-21781D01*
X60474Y-21790D01*
X60465Y-21800D01*
X60448Y-21829D01*
X60439Y-21867D01*
X60439Y-21943D01*
X60448Y-21962D01*
X60456Y-21971D01*
X60474Y-21981D01*
X60508Y-21981D01*
X60525Y-21971D01*
X60534Y-21962D01*
X60542Y-21943D01*
X60542Y-21895D01*
X60534Y-21876D01*
X60525Y-21867D01*
X60508Y-21857D01*
X60474Y-21857D01*
X60456Y-21867D01*
X60448Y-21876D01*
X60439Y-21895D01*
X61571Y-21981D02*
X61511Y-21886D01*
X61468Y-21981D02*
X61468Y-21781D01*
X61536Y-21781D01*
X61554Y-21790D01*
X61562Y-21800D01*
X61571Y-21819D01*
X61571Y-21848D01*
X61562Y-21867D01*
X61554Y-21876D01*
X61536Y-21886D01*
X61468Y-21886D01*
X61631Y-21781D02*
X61751Y-21781D01*
X61674Y-21981D01*
X67862Y-20365D02*
X67871Y-20374D01*
X67881Y-20400D01*
X67881Y-20417D01*
X67871Y-20442D01*
X67852Y-20460D01*
X67833Y-20468D01*
X67795Y-20477D01*
X67767Y-20477D01*
X67729Y-20468D01*
X67710Y-20460D01*
X67690Y-20442D01*
X67681Y-20417D01*
X67681Y-20400D01*
X67690Y-20374D01*
X67700Y-20365D01*
X67881Y-20194D02*
X67881Y-20297D01*
X67881Y-20245D02*
X67681Y-20245D01*
X67710Y-20262D01*
X67729Y-20280D01*
X67738Y-20297D01*
X67681Y-20134D02*
X67681Y-20014D01*
X67881Y-20091D01*
X68531Y-20365D02*
X68436Y-20425D01*
X68531Y-20468D02*
X68331Y-20468D01*
X68331Y-20400D01*
X68340Y-20382D01*
X68350Y-20374D01*
X68369Y-20365D01*
X68398Y-20365D01*
X68417Y-20374D01*
X68426Y-20382D01*
X68436Y-20400D01*
X68436Y-20468D01*
X68531Y-20194D02*
X68531Y-20297D01*
X68531Y-20245D02*
X68331Y-20245D01*
X68360Y-20262D01*
X68379Y-20280D01*
X68388Y-20297D01*
X68331Y-20083D02*
X68331Y-20066D01*
X68340Y-20049D01*
X68350Y-20040D01*
X68369Y-20031D01*
X68407Y-20023D01*
X68455Y-20023D01*
X68493Y-20031D01*
X68512Y-20040D01*
X68521Y-20049D01*
X68531Y-20066D01*
X68531Y-20083D01*
X68521Y-20100D01*
X68512Y-20109D01*
X68493Y-20117D01*
X68455Y-20126D01*
X68407Y-20126D01*
X68369Y-20117D01*
X68350Y-20109D01*
X68340Y-20100D01*
X68331Y-20083D01*
X67231Y-20365D02*
X67136Y-20425D01*
X67231Y-20468D02*
X67031Y-20468D01*
X67031Y-20400D01*
X67040Y-20382D01*
X67050Y-20374D01*
X67069Y-20365D01*
X67098Y-20365D01*
X67117Y-20374D01*
X67126Y-20382D01*
X67136Y-20400D01*
X67136Y-20468D01*
X67050Y-20297D02*
X67040Y-20288D01*
X67031Y-20271D01*
X67031Y-20228D01*
X67040Y-20211D01*
X67050Y-20202D01*
X67069Y-20194D01*
X67088Y-20194D01*
X67117Y-20202D01*
X67231Y-20305D01*
X67231Y-20194D01*
X67231Y-20023D02*
X67231Y-20126D01*
X67231Y-20074D02*
X67031Y-20074D01*
X67060Y-20091D01*
X67079Y-20109D01*
X67088Y-20126D01*
X66581Y-20365D02*
X66486Y-20425D01*
X66581Y-20468D02*
X66381Y-20468D01*
X66381Y-20400D01*
X66390Y-20382D01*
X66400Y-20374D01*
X66419Y-20365D01*
X66448Y-20365D01*
X66467Y-20374D01*
X66476Y-20382D01*
X66486Y-20400D01*
X66486Y-20468D01*
X66400Y-20297D02*
X66390Y-20288D01*
X66381Y-20271D01*
X66381Y-20228D01*
X66390Y-20211D01*
X66400Y-20202D01*
X66419Y-20194D01*
X66438Y-20194D01*
X66467Y-20202D01*
X66581Y-20305D01*
X66581Y-20194D01*
X66381Y-20134D02*
X66381Y-20023D01*
X66457Y-20083D01*
X66457Y-20057D01*
X66467Y-20040D01*
X66476Y-20031D01*
X66495Y-20023D01*
X66543Y-20023D01*
X66562Y-20031D01*
X66571Y-20040D01*
X66581Y-20057D01*
X66581Y-20109D01*
X66571Y-20126D01*
X66562Y-20134D01*
G54D18*
X67268Y-22327D02*
X67268Y-22012D01*
X67343Y-22012D01*
X67388Y-22027D01*
X67418Y-22057D01*
X67433Y-22087D01*
X67448Y-22147D01*
X67448Y-22192D01*
X67433Y-22252D01*
X67418Y-22282D01*
X67388Y-22312D01*
X67343Y-22327D01*
X67268Y-22327D01*
X67553Y-22012D02*
X67748Y-22012D01*
X67643Y-22132D01*
X67688Y-22132D01*
X67718Y-22147D01*
X67733Y-22162D01*
X67748Y-22192D01*
X67748Y-22267D01*
X67733Y-22297D01*
X67718Y-22312D01*
X67688Y-22327D01*
X67598Y-22327D01*
X67568Y-22312D01*
X67553Y-22297D01*
X66795Y-20968D02*
X66795Y-20653D01*
X67125Y-20968D02*
X67020Y-20818D01*
X66945Y-20968D02*
X66945Y-20653D01*
X67065Y-20653D01*
X67095Y-20668D01*
X67110Y-20683D01*
X67125Y-20713D01*
X67125Y-20758D01*
X67110Y-20788D01*
X67095Y-20803D01*
X67065Y-20818D01*
X66945Y-20818D01*
X67185Y-20998D02*
X67425Y-20998D01*
X67650Y-20968D02*
X67500Y-20968D01*
X67500Y-20653D01*
X67755Y-20803D02*
X67860Y-20803D01*
X67905Y-20968D02*
X67755Y-20968D01*
X67755Y-20653D01*
X67905Y-20653D01*
X68040Y-20968D02*
X68040Y-20653D01*
X68115Y-20653D01*
X68160Y-20668D01*
X68190Y-20698D01*
X68205Y-20728D01*
X68220Y-20788D01*
X68220Y-20833D01*
X68205Y-20893D01*
X68190Y-20923D01*
X68160Y-20953D01*
X68115Y-20968D01*
X68040Y-20968D01*
G54D23*
X67177Y-17580D02*
X67177Y-18151D01*
X67197Y-18218D01*
X67217Y-18251D01*
X67258Y-18285D01*
X67338Y-18285D01*
X67379Y-18251D01*
X67399Y-18218D01*
X67419Y-18151D01*
X67419Y-17580D01*
X67581Y-17580D02*
X67843Y-17580D01*
X67702Y-17848D01*
X67762Y-17848D01*
X67803Y-17882D01*
X67823Y-17916D01*
X67843Y-17983D01*
X67843Y-18151D01*
X67823Y-18218D01*
X67803Y-18251D01*
X67762Y-18285D01*
X67641Y-18285D01*
X67601Y-18251D01*
X67581Y-18218D01*
M02*
