M48
;DRILL file {Pcbnew (2012-01-19 BZR 3256)-stable} date 3/3/2013 12:28:01 AM
;FORMAT={-:-/ absolute / inch / decimal}
FMAT,2
INCH,TZ
T1C0.025
T2C0.032
T3C0.032
T4C0.039
%
G90
G05
M72
T1
X5.220Y-2.190
X5.240Y-3.420
X5.330Y-2.900
X5.400Y-2.900
X5.420Y-3.420
X5.650Y-3.120
X5.650Y-3.270
X5.710Y-3.260
X5.770Y-3.170
X5.920Y-3.140
X5.950Y-2.790
X5.990Y-3.170
X6.010Y-3.430
X6.030Y-3.150
X6.030Y-3.630
X6.160Y-2.960
X6.260Y-3.130
X6.285Y-2.945
X6.290Y-2.840
X6.380Y-3.290
X6.400Y-2.910
X6.410Y-2.960
X6.430Y-3.290
X6.520Y-3.470
X6.600Y-2.590
X6.820Y-2.700
X6.850Y-3.150
X6.870Y-2.960
X6.910Y-3.600
X6.920Y-2.770
X7.000Y-2.190
X7.010Y-2.700
T2
X6.190Y-2.715
X6.390Y-2.715
T3
X5.650Y-1.900
X5.650Y-2.000
X5.650Y-2.100
X5.750Y-1.900
X5.750Y-2.000
X5.750Y-2.100
X5.850Y-1.900
X5.850Y-2.000
X5.850Y-2.100
X5.950Y-1.900
X5.950Y-2.000
X5.950Y-2.100
X6.050Y-1.900
X6.050Y-2.000
X6.050Y-2.100
X6.150Y-1.900
X6.150Y-2.000
X6.150Y-2.100
X6.250Y-1.900
X6.250Y-2.000
X6.250Y-2.100
X6.350Y-1.900
X6.350Y-2.000
X6.350Y-2.100
X6.450Y-1.900
X6.450Y-2.000
X6.450Y-2.100
X6.550Y-1.900
X6.550Y-2.000
X6.550Y-2.100
T4
X5.500Y-2.400
X5.500Y-2.500
X5.500Y-2.600
X6.700Y-2.400
X6.700Y-2.500
X6.700Y-2.600
T0
M30
