M48
;DRILL file {Pcbnew (2012-01-19 BZR 3256)-stable} date 3/28/2013 11:41:25 PM
;FORMAT={-:-/ absolute / inch / decimal}
FMAT,2
INCH,TZ
T1C0.025
T2C0.032
T3C0.039
%
G90
G05
M72
T1
X5.220Y-2.190
X5.250Y-3.420
X5.330Y-2.900
X5.400Y-2.900
X5.420Y-3.420
X5.480Y-3.420
X5.730Y-3.270
X5.760Y-3.170
X5.920Y-3.140
X5.990Y-3.170
X6.010Y-3.430
X6.030Y-3.150
X6.030Y-3.630
X6.100Y-2.425
X6.152Y-2.968
X6.175Y-3.010
X6.185Y-2.860
X6.245Y-2.705
X6.260Y-3.130
X6.290Y-3.290
X6.380Y-3.240
X6.380Y-3.290
X6.390Y-3.105
X6.400Y-2.910
X6.410Y-2.960
X6.440Y-3.240
X6.520Y-3.470
X6.530Y-2.920
X6.565Y-2.200
X6.650Y-3.225
X6.660Y-2.255
X6.670Y-3.390
X6.720Y-3.390
X6.740Y-2.770
X6.820Y-2.700
X6.910Y-3.600
X6.920Y-2.770
X7.000Y-2.190
X7.010Y-2.700
T2
X5.650Y-1.900
X5.650Y-2.000
X5.650Y-2.100
X5.750Y-1.900
X5.750Y-2.000
X5.750Y-2.100
X5.850Y-1.900
X5.850Y-2.000
X5.850Y-2.100
X5.950Y-1.900
X5.950Y-2.000
X5.950Y-2.100
X6.050Y-1.900
X6.050Y-2.000
X6.050Y-2.100
X6.150Y-1.900
X6.150Y-2.000
X6.150Y-2.100
X6.250Y-1.900
X6.250Y-2.000
X6.250Y-2.100
X6.350Y-1.900
X6.350Y-2.000
X6.350Y-2.100
X6.450Y-1.900
X6.450Y-2.000
X6.450Y-2.100
X6.550Y-1.900
X6.550Y-2.000
X6.550Y-2.100
X6.650Y-1.900
X6.750Y-1.900
X6.850Y-1.900
T3
X5.500Y-2.400
X5.500Y-2.500
X5.500Y-2.600
X6.700Y-2.400
X6.700Y-2.500
X6.700Y-2.600
X6.970Y-2.930
X6.970Y-3.030
X6.970Y-3.130
X6.970Y-3.230
X6.970Y-3.330
T0
M30
