solid OpenSCAD_Model
  facet normal -1 0 0
    outer loop
      vertex 0 0 40
      vertex 0 210 40
      vertex 0 0 0
    endloop
  endfacet
  facet normal -1 -0 0
    outer loop
      vertex 0 0 0
      vertex 0 210 40
      vertex 0 210 0
    endloop
  endfacet
  facet normal 0 0 1
    outer loop
      vertex 0 0 40
      vertex 210 0 40
      vertex 210 210 40
    endloop
  endfacet
  facet normal 0 -0 1
    outer loop
      vertex 0 210 40
      vertex 0 0 40
      vertex 210 210 40
    endloop
  endfacet
  facet normal -0 -1 0
    outer loop
      vertex 0 0 0
      vertex 210 0 0
      vertex 210 0 40
    endloop
  endfacet
  facet normal 0 -1 0
    outer loop
      vertex 0 0 40
      vertex 0 0 0
      vertex 210 0 40
    endloop
  endfacet
  facet normal 0 0 -1
    outer loop
      vertex 0 210 0
      vertex 210 210 0
      vertex 0 0 0
    endloop
  endfacet
  facet normal -0 0 -1
    outer loop
      vertex 0 0 0
      vertex 210 210 0
      vertex 210 0 0
    endloop
  endfacet
  facet normal 0 1 -0
    outer loop
      vertex 0 210 40
      vertex 210 210 40
      vertex 0 210 0
    endloop
  endfacet
  facet normal 0 1 0
    outer loop
      vertex 0 210 0
      vertex 210 210 40
      vertex 210 210 0
    endloop
  endfacet
  facet normal 1 0 0
    outer loop
      vertex 210 0 0
      vertex 210 210 0
      vertex 210 210 40
    endloop
  endfacet
  facet normal 1 0 -0
    outer loop
      vertex 210 0 40
      vertex 210 0 0
      vertex 210 210 40
    endloop
  endfacet
endsolid OpenSCAD_Model
