%FSTAX44Y44*%
%MOIN*%
%SFA1B1*%

%IPPOS*%
%ADD31C,0.008000*%
%ADD62C,0.007000*%
%LNrpcb6996130008r02-1*%
%LPD*%
G54D31*
X00022349Y00040249D02*
X000222D01*
X00022274*
Y00039875*
X000222Y000398*
X00022125*
X0002205Y00039875*
X00022499Y000398D02*
X00022649D01*
X00022574*
Y00040249*
X00022499Y00040174*
X000215Y00041124D02*
X00021575Y00041199D01*
X00021724*
X00021799Y00041124*
Y00041049*
X00021724Y00040974*
X00021649*
X00021724*
X00021799Y00040899*
Y00040825*
X00021724Y0004075*
X00021575*
X000215Y00040825*
X00021949Y00041199D02*
Y00040899D01*
X00022099Y0004075*
X00022249Y00040899*
Y00041199*
X00022399Y00041124D02*
X00022474Y00041199D01*
X00022624*
X00022699Y00041124*
Y00041049*
X00022624Y00040974*
X00022549*
X00022624*
X00022699Y00040899*
Y00040825*
X00022624Y0004075*
X00022474*
X00022399Y00040825*
X00021799Y00042124D02*
X00021724Y00042199D01*
X00021575*
X000215Y00042124*
Y00041825*
X00021575Y0004175*
X00021724*
X00021799Y00041825*
Y00041974*
X00021649*
X00021949Y0004175D02*
Y00042199D01*
X00022249Y0004175*
Y00042199*
X00022399D02*
Y0004175D01*
X00022624*
X00022699Y00041825*
Y00042124*
X00022624Y00042199*
X00022399*
X0003535Y00039D02*
X00035499D01*
X00035425*
Y00039449*
X0003535Y00039374*
X00035724D02*
X00035799Y00039449D01*
X00035949*
X00036024Y00039374*
Y00039075*
X00035949Y00039*
X00035799*
X00035724Y00039075*
Y00039374*
X0003335D02*
X00033425Y00039449D01*
X00033574*
X00033649Y00039374*
Y00039299*
X00033574Y00039224*
X00033649Y00039149*
Y00039075*
X00033574Y00039*
X00033425*
X0003335Y00039075*
Y00039149*
X00033425Y00039224*
X0003335Y00039299*
Y00039374*
X00033425Y00039224D02*
X00033574D01*
X0003435Y00039075D02*
X00034425Y00039D01*
X00034574*
X00034649Y00039075*
Y00039374*
X00034574Y00039449*
X00034425*
X0003435Y00039374*
Y00039299*
X00034425Y00039224*
X00034649*
X0003235Y00039449D02*
X00032649D01*
Y00039374*
X0003235Y00039075*
Y00039*
X00031649Y00039449D02*
X000315Y00039374D01*
X0003135Y00039224*
Y00039075*
X00031425Y00039*
X00031574*
X00031649Y00039075*
Y00039149*
X00031574Y00039224*
X0003135*
X00027649Y00039449D02*
X0002735D01*
Y00039224*
X00027499Y00039299*
X00027574*
X00027649Y00039224*
Y00039075*
X00027574Y00039*
X00027425*
X0002735Y00039075*
X0002535Y00039374D02*
X00025425Y00039449D01*
X00025574*
X00025649Y00039374*
Y00039299*
X00025574Y00039224*
X00025499*
X00025574*
X00025649Y00039149*
Y00039075*
X00025574Y00039*
X00025425*
X0002535Y00039075*
X00024649Y00039D02*
X0002435D01*
X00024649Y00039299*
Y00039374*
X00024574Y00039449*
X00024425*
X0002435Y00039374*
X0002335Y00039D02*
X00023499D01*
X00023425*
Y00039449*
X0002335Y00039374*
X00026574Y00039D02*
Y00039449D01*
X0002635Y00039224*
X00026649*
G54D62*
X0003765Y00033849D02*
X0003771Y00033909D01*
X00037829*
X00037889Y00033849*
Y00033789*
X00037829Y00033729*
X0003777*
X00037829*
X00037889Y0003367*
Y0003361*
X00037829Y0003355*
X0003771*
X0003765Y0003361*
X00038009Y00033909D02*
Y0003367D01*
X00038129Y0003355*
X00038249Y0003367*
Y00033909*
X00038369Y00033849D02*
X00038429Y00033909D01*
X00038549*
X00038609Y00033849*
Y00033789*
X00038549Y00033729*
X00038489*
X00038549*
X00038609Y0003367*
Y0003361*
X00038549Y0003355*
X00038429*
X00038369Y0003361*
X00037889Y00034849D02*
X00037829Y00034909D01*
X0003771*
X0003765Y00034849*
Y00034789*
X0003771Y00034729*
X00037829*
X00037889Y0003467*
Y0003461*
X00037829Y0003455*
X0003771*
X0003765Y0003461*
X00038009Y00034909D02*
Y0003455D01*
X00038129Y0003467*
X00038249Y0003455*
Y00034909*
X00038609Y00034849D02*
X00038549Y00034909D01*
X00038429*
X00038369Y00034849*
Y0003461*
X00038429Y0003455*
X00038549*
X00038609Y0003461*
X00038729Y00034909D02*
Y0003455D01*
X00038969*
X00039089Y00034909D02*
Y0003455D01*
Y0003467*
X00039329Y00034909*
X00039149Y00034729*
X00039329Y0003455*
X00037889Y00035849D02*
X00037829Y00035909D01*
X0003771*
X0003765Y00035849*
Y00035789*
X0003771Y00035729*
X00037829*
X00037889Y0003567*
Y0003561*
X00037829Y0003555*
X0003771*
X0003765Y0003561*
X00038009Y00035909D02*
Y0003555D01*
X00038129Y0003567*
X00038249Y0003555*
Y00035909*
X00038369D02*
Y0003555D01*
X00038549*
X00038609Y0003561*
Y00035849*
X00038549Y00035909*
X00038369*
X00038729D02*
X00038849D01*
X00038789*
Y0003555*
X00038729*
X00038849*
X00039209Y00035909D02*
X00039089D01*
X00039029Y00035849*
Y0003561*
X00039089Y0003555*
X00039209*
X00039269Y0003561*
Y00035849*
X00039209Y00035909*
X0003765Y0003655D02*
Y00036909D01*
X00037829*
X00037889Y00036849*
Y00036729*
X00037829Y0003667*
X0003765*
X0003777D02*
X00037889Y0003655D01*
X00038249Y00036849D02*
X00038189Y00036909D01*
X00038069*
X00038009Y00036849*
Y00036789*
X00038069Y00036729*
X00038189*
X00038249Y0003667*
Y0003661*
X00038189Y0003655*
X00038069*
X00038009Y0003661*
X00038369Y00036909D02*
X00038609D01*
X00038489*
Y0003655*
X00037889Y00037849D02*
X00037829Y00037909D01*
X0003771*
X0003765Y00037849*
Y0003761*
X0003771Y0003755*
X00037829*
X00037889Y0003761*
Y00037729*
X0003777*
X00038009Y0003755D02*
Y00037909D01*
X00038249Y0003755*
Y00037909*
X00038369D02*
Y0003755D01*
X00038549*
X00038609Y0003761*
Y00037849*
X00038549Y00037909*
X00038369*
X0002535Y00045059D02*
Y000447D01*
X00025529*
X00025589Y0004476*
Y00044999*
X00025529Y00045059*
X0002535*
X00025709Y00044999D02*
X00025769Y00045059D01*
X00025889*
X00025949Y00044999*
Y00044939*
X00025889Y00044879*
X00025829*
X00025889*
X00025949Y0004482*
Y0004476*
X00025889Y000447*
X00025769*
X00025709Y0004476*
X00023Y00043D02*
X0002264D01*
Y00043179*
X000227Y00043239*
X0002282*
X0002288Y00043179*
Y00043*
Y0004312D02*
X00023Y00043239D01*
Y00043599D02*
Y00043359D01*
X0002276Y00043599*
X000227*
X0002264Y00043539*
Y00043419*
X000227Y00043359*
X00023Y00043719D02*
Y00043839D01*
Y00043779*
X0002264*
X000227Y00043719*
X0002306Y00044019D02*
Y00044259D01*
X00023Y00044619D02*
Y00044379D01*
X0002276Y00044619*
X000227*
X0002264Y00044559*
Y00044439*
X000227Y00044379*
X000274Y000431D02*
X0002704D01*
Y00043279*
X000271Y00043339*
X0002722*
X0002728Y00043279*
Y000431*
Y0004322D02*
X000274Y00043339D01*
Y00043699D02*
Y00043459D01*
X0002716Y00043699*
X000271*
X0002704Y00043639*
Y00043519*
X000271Y00043459*
X000274Y00043819D02*
Y00043939D01*
Y00043879*
X0002704*
X000271Y00043819*
X0002746Y00044119D02*
Y00044359D01*
X000274Y00044479D02*
Y00044599D01*
Y00044539*
X0002704*
X000271Y00044479*
X0003565Y00045009D02*
Y0004471D01*
X0003571Y0004465*
X00035829*
X00035889Y0004471*
Y00045009*
X00036009Y00044949D02*
X00036069Y00045009D01*
X00036189*
X00036249Y00044949*
Y00044889*
X00036189Y00044829*
X00036129*
X00036189*
X00036249Y0004477*
Y0004471*
X00036189Y0004465*
X00036069*
X00036009Y0004471*
X00036539Y00040209D02*
X0003642D01*
X00036479*
Y0003991*
X0003642Y0003985*
X0003636*
X000363Y0003991*
X00036899Y0003985D02*
X00036659D01*
X00036899Y00040089*
Y00040149*
X00036839Y00040209*
X00036719*
X00036659Y00040149*
X0003657Y00042D02*
X0003621D01*
Y00042179*
X0003627Y00042239*
X0003639*
X0003645Y00042179*
Y00042*
Y0004212D02*
X0003657Y00042239D01*
Y00042599D02*
Y00042359D01*
X0003633Y00042599*
X0003627*
X0003621Y00042539*
Y00042419*
X0003627Y00042359*
X0003663Y00042719D02*
Y00042959D01*
X0003657Y00043079D02*
Y00043199D01*
Y00043139*
X0003621*
X0003627Y00043079*
X0002655Y000342D02*
X0002619D01*
Y00034379*
X0002625Y00034439*
X0002637*
X0002643Y00034379*
Y000342*
Y0003432D02*
X0002655Y00034439D01*
Y00034559D02*
Y00034679D01*
Y00034619*
X0002619*
X0002625Y00034559*
X0002619Y00034859D02*
Y00035099D01*
X0002625*
X0002649Y00034859*
X0002655*
X0002661Y00035219D02*
Y00035459D01*
X0002655Y00035579D02*
Y00035699D01*
Y00035639*
X0002619*
X0002625Y00035579*
X000252Y0002925D02*
X0002484D01*
Y00029429*
X000249Y00029489*
X0002502*
X0002508Y00029429*
Y0002925*
Y0002937D02*
X000252Y00029489D01*
Y00029609D02*
Y00029729D01*
Y00029669*
X0002484*
X000249Y00029609*
X0002514Y00029909D02*
X000252Y00029969D01*
Y00030089*
X0002514Y00030149*
X000249*
X0002484Y00030089*
Y00029969*
X000249Y00029909*
X0002496*
X0002502Y00029969*
Y00030149*
X0002695Y00030239D02*
X0002689Y00030179D01*
Y0003006*
X0002695Y0003*
X0002719*
X0002725Y0003006*
Y00030179*
X0002719Y00030239*
X0002725Y00030359D02*
Y00030479D01*
Y00030419*
X0002689*
X0002695Y00030359*
X0002725Y00030839D02*
X0002689D01*
X0002707Y00030659*
Y00030899*
X0003545Y00026159D02*
Y000258D01*
Y0002592*
X00035689Y00026159*
X0003551Y00025979*
X00035689Y000258*
X00035809D02*
X00035929D01*
X00035869*
Y00026159*
X00035809Y00026099*
X0003855Y00033159D02*
Y000328D01*
Y0003292*
X00038789Y00033159*
X0003861Y00032979*
X00038789Y000328*
X00039149D02*
X00038909D01*
X00039149Y00033039*
Y00033099*
X00039089Y00033159*
X00038969*
X00038909Y00033099*
X00030089Y00037199D02*
X00030029Y00037259D01*
X0002991*
X0002985Y00037199*
Y00037139*
X0002991Y00037079*
X00030029*
X00030089Y0003702*
Y0003696*
X00030029Y000369*
X0002991*
X0002985Y0003696*
X00030209Y00037259D02*
Y000369D01*
X00030329Y0003702*
X00030449Y000369*
Y00037259*
X00030569Y000369D02*
X00030689D01*
X00030629*
Y00037259*
X00030569Y00037199*
X0002695Y00031789D02*
X0002689Y00031729D01*
Y0003161*
X0002695Y0003155*
X0002719*
X0002725Y0003161*
Y00031729*
X0002719Y00031789*
X0002725Y00031909D02*
Y00032029D01*
Y00031969*
X0002689*
X0002695Y00031909*
Y00032209D02*
X0002689Y00032269D01*
Y00032389*
X0002695Y00032449*
X0002701*
X0002707Y00032389*
Y00032329*
Y00032389*
X0002713Y00032449*
X0002719*
X0002725Y00032389*
Y00032269*
X0002719Y00032209*
X0002382Y0003056D02*
Y00030919D01*
X00023999*
X00024059Y00030859*
Y00030739*
X00023999Y0003068*
X0002382*
X0002394D02*
X00024059Y0003056D01*
X00024359D02*
Y00030919D01*
X00024179Y00030739*
X00024419*
X000238Y000315D02*
Y00031859D01*
X00023979*
X00024039Y00031799*
Y00031679*
X00023979Y0003162*
X000238*
X0002392D02*
X00024039Y000315D01*
X00024399Y00031859D02*
X00024159D01*
Y00031679*
X00024279Y00031739*
X00024339*
X00024399Y00031679*
Y0003156*
X00024339Y000315*
X00024219*
X00024159Y0003156*
X000202Y00028609D02*
Y0002831D01*
X0002026Y0002825*
X00020379*
X00020439Y0002831*
Y00028609*
X00020799Y00028549D02*
X00020739Y00028609D01*
X00020619*
X00020559Y00028549*
Y00028489*
X00020619Y00028429*
X00020739*
X00020799Y0002837*
Y0002831*
X00020739Y0002825*
X00020619*
X00020559Y0002831*
X00020919Y00028609D02*
Y0002825D01*
X00021099*
X00021159Y0002831*
Y0002837*
X00021099Y00028429*
X00020919*
X00021099*
X00021159Y00028489*
Y00028549*
X00021099Y00028609*
X00020919*
X00021519Y00028549D02*
X00021459Y00028609D01*
X00021339*
X00021279Y00028549*
Y0002831*
X00021339Y0002825*
X00021459*
X00021519Y0002831*
Y00028429*
X00021399*
X0002535Y0002605D02*
Y00026409D01*
X00025529*
X00025589Y00026349*
Y00026229*
X00025529Y0002617*
X0002535*
X0002547D02*
X00025589Y0002605D01*
X00025709D02*
X00025829D01*
X00025769*
Y00026409*
X00025709Y00026349*
X00026009Y0002605D02*
X00026129D01*
X00026069*
Y00026409*
X00026009Y00026349*
X0002795Y0002605D02*
Y00026409D01*
X00028129*
X00028189Y00026349*
Y00026229*
X00028129Y0002617*
X0002795*
X0002807D02*
X00028189Y0002605D01*
X00028309D02*
X00028429D01*
X00028369*
Y00026409*
X00028309Y00026349*
X00028849Y0002605D02*
X00028609D01*
X00028849Y00026289*
Y00026349*
X00028789Y00026409*
X00028669*
X00028609Y00026349*
X0003025Y00026D02*
Y00026359D01*
X00030429*
X00030489Y00026299*
Y00026179*
X00030429Y0002612*
X0003025*
X0003037D02*
X00030489Y00026D01*
X00030609D02*
X00030729D01*
X00030669*
Y00026359*
X00030609Y00026299*
X00030909D02*
X00030969Y00026359D01*
X00031089*
X00031149Y00026299*
Y00026239*
X00031089Y00026179*
X00031029*
X00031089*
X00031149Y0002612*
Y0002606*
X00031089Y00026*
X00030969*
X00030909Y0002606*
X000335Y000279D02*
X0003314D01*
Y00028079*
X000332Y00028139*
X0003332*
X0003338Y00028079*
Y000279*
Y0002802D02*
X000335Y00028139D01*
Y00028259D02*
Y00028379D01*
Y00028319*
X0003314*
X000332Y00028259*
X000335Y00028739D02*
X0003314D01*
X0003332Y00028559*
Y00028799*
X0003518Y0002664D02*
X0003482D01*
Y00026819*
X0003488Y00026879*
X00035*
X0003506Y00026819*
Y0002664*
Y0002676D02*
X0003518Y00026879D01*
Y00026999D02*
Y00027119D01*
Y00027059*
X0003482*
X0003488Y00026999*
X0003482Y00027539D02*
Y00027299D01*
X00035*
X0003494Y00027419*
Y00027479*
X00035Y00027539*
X0003512*
X0003518Y00027479*
Y00027359*
X0003512Y00027299*
X000339Y00036059D02*
X00034139Y000357D01*
Y00036059D02*
X000339Y000357D01*
X00034259D02*
X00034379D01*
X00034319*
Y00036059*
X00034259Y00035999*
X000318Y00030239D02*
X0003174Y00030179D01*
Y0003006*
X000318Y0003*
X0003204*
X000321Y0003006*
Y00030179*
X0003204Y00030239*
X000321Y00030359D02*
Y00030479D01*
Y00030419*
X0003174*
X000318Y00030359*
Y00030659D02*
X0003174Y00030719D01*
Y00030839*
X000318Y00030899*
X0003204*
X000321Y00030839*
Y00030719*
X0003204Y00030659*
X000318*
Y00031839D02*
X0003174Y00031779D01*
Y0003166*
X000318Y000316*
X0003204*
X000321Y0003166*
Y00031779*
X0003204Y00031839*
X000321Y00031959D02*
Y00032079D01*
Y00032019*
X0003174*
X000318Y00031959*
X000321Y00032259D02*
Y00032379D01*
Y00032319*
X0003174*
X000318Y00032259*
Y00033239D02*
X0003174Y00033179D01*
Y0003306*
X000318Y00033*
X0003204*
X000321Y0003306*
Y00033179*
X0003204Y00033239*
X000321Y00033359D02*
Y00033479D01*
Y00033419*
X0003174*
X000318Y00033359*
X000321Y00033899D02*
Y00033659D01*
X0003186Y00033899*
X000318*
X0003174Y00033839*
Y00033719*
X000318Y00033659*
X0002955Y00033239D02*
X0002949Y00033179D01*
Y0003306*
X0002955Y00033*
X0002979*
X0002985Y0003306*
Y00033179*
X0002979Y00033239*
X0002949Y00033359D02*
Y00033599D01*
X0002955*
X0002979Y00033359*
X0002985*
X0002115Y00037709D02*
Y0003741D01*
X0002121Y0003735*
X00021329*
X00021389Y0003741*
Y00037709*
X00021509Y0003735D02*
X00021629D01*
X00021569*
Y00037709*
X00021509Y00037649*
X0002296Y00034989D02*
X000229Y00034929D01*
Y0003481*
X0002296Y0003475*
X000232*
X0002326Y0003481*
Y00034929*
X000232Y00034989*
X0002326Y00035109D02*
Y00035229D01*
Y00035169*
X000229*
X0002296Y00035109*
X0002295Y00036539D02*
X0002289Y00036479D01*
Y0003636*
X0002295Y000363*
X0002319*
X0002325Y0003636*
Y00036479*
X0002319Y00036539*
X0002289Y00036899D02*
X0002295Y00036779D01*
X0002307Y00036659*
X0002319*
X0002325Y00036719*
Y00036839*
X0002319Y00036899*
X0002313*
X0002307Y00036839*
Y00036659*
X0002534Y00034979D02*
X0002528Y00034919D01*
Y000348*
X0002534Y0003474*
X0002558*
X0002564Y000348*
Y00034919*
X0002558Y00034979*
X0002564Y00035339D02*
Y00035099D01*
X000254Y00035339*
X0002534*
X0002528Y00035279*
Y00035159*
X0002534Y00035099*
X000252Y0003225D02*
X0002484D01*
Y00032429*
X000249Y00032489*
X0002502*
X0002508Y00032429*
Y0003225*
Y0003237D02*
X000252Y00032489D01*
Y00032609D02*
Y00032729D01*
Y00032669*
X0002484*
X000249Y00032609*
Y00032909D02*
X0002484Y00032969D01*
Y00033089*
X000249Y00033149*
X0002496*
X0002502Y00033089*
X0002508Y00033149*
X0002514*
X000252Y00033089*
Y00032969*
X0002514Y00032909*
X0002508*
X0002502Y00032969*
X0002496Y00032909*
X000249*
X0002502Y00032969D02*
Y00033089D01*
X000276Y000324D02*
Y00032759D01*
X00027779*
X00027839Y00032699*
Y00032579*
X00027779Y0003252*
X000276*
X0002772D02*
X00027839Y000324D01*
X00028199D02*
X00027959D01*
X00028199Y00032639*
Y00032699*
X00028139Y00032759*
X00028019*
X00027959Y00032699*
X00028319D02*
X00028379Y00032759D01*
X00028499*
X00028559Y00032699*
Y0003246*
X00028499Y000324*
X00028379*
X00028319Y0003246*
Y00032699*
X0002775Y000357D02*
X0002739D01*
Y00035879*
X0002745Y00035939*
X0002757*
X0002763Y00035879*
Y000357*
Y0003582D02*
X0002775Y00035939D01*
Y00036059D02*
Y00036179D01*
Y00036119*
X0002739*
X0002745Y00036059*
X0002739Y00036599D02*
X0002745Y00036479D01*
X0002757Y00036359*
X0002769*
X0002775Y00036419*
Y00036539*
X0002769Y00036599*
X0002763*
X0002757Y00036539*
Y00036359*
X0003615Y00031889D02*
X0003609Y00031829D01*
Y0003171*
X0003615Y0003165*
X0003639*
X0003645Y0003171*
Y00031829*
X0003639Y00031889*
X0003645Y00032189D02*
X0003609D01*
X0003627Y00032009*
Y00032249*
X0003555Y00034589D02*
X0003549Y00034529D01*
Y0003441*
X0003555Y0003435*
X0003579*
X0003585Y0003441*
Y00034529*
X0003579Y00034589*
X0003555Y00034709D02*
X0003549Y00034769D01*
Y00034889*
X0003555Y00034949*
X0003561*
X0003567Y00034889*
X0003573Y00034949*
X0003579*
X0003585Y00034889*
Y00034769*
X0003579Y00034709*
X0003573*
X0003567Y00034769*
X0003561Y00034709*
X0003555*
X0003567Y00034769D02*
Y00034889D01*
X00031Y00039D02*
X0003064D01*
Y00039179*
X000307Y00039239*
X0003082*
X0003088Y00039179*
Y00039*
Y0003912D02*
X00031Y00039239D01*
X0003064Y00039359D02*
Y00039599D01*
X000307*
X0003094Y00039359*
X00031*
X000286Y00039D02*
X0002824D01*
Y00039179*
X000283Y00039239*
X0002842*
X0002848Y00039179*
Y00039*
Y0003912D02*
X000286Y00039239D01*
X0002824Y00039599D02*
X000283Y00039479D01*
X0002842Y00039359*
X0002854*
X000286Y00039419*
Y00039539*
X0002854Y00039599*
X0002848*
X0002842Y00039539*
Y00039359*
X0002955Y000404D02*
X0002919D01*
Y00040579*
X0002925Y00040639*
X0002937*
X0002943Y00040579*
Y000404*
Y0004052D02*
X0002955Y00040639D01*
Y00040759D02*
Y00040879D01*
Y00040819*
X0002919*
X0002925Y00040759*
Y00041059D02*
X0002919Y00041119D01*
Y00041239*
X0002925Y00041299*
X0002949*
X0002955Y00041239*
Y00041119*
X0002949Y00041059*
X0002925*
X0002855Y00042D02*
X0002819D01*
Y00042179*
X0002825Y00042239*
X0002837*
X0002843Y00042179*
Y00042*
Y0004212D02*
X0002855Y00042239D01*
Y00042599D02*
Y00042359D01*
X0002831Y00042599*
X0002825*
X0002819Y00042539*
Y00042419*
X0002825Y00042359*
Y00042719D02*
X0002819Y00042779D01*
Y00042899*
X0002825Y00042959*
X0002831*
X0002837Y00042899*
Y00042839*
Y00042899*
X0002843Y00042959*
X0002849*
X0002855Y00042899*
Y00042779*
X0002849Y00042719*
X000307Y00042239D02*
X0003064Y00042179D01*
Y0004206*
X000307Y00042*
X0003094*
X00031Y0004206*
Y00042179*
X0003094Y00042239*
X00031Y00042359D02*
Y00042479D01*
Y00042419*
X0003064*
X000307Y00042359*
X0003064Y00042659D02*
Y00042899D01*
X000307*
X0003094Y00042659*
X00031*
X000324Y00036039D02*
X0003234Y00035979D01*
Y0003586*
X000324Y000358*
X0003264*
X000327Y0003586*
Y00035979*
X0003264Y00036039*
X000324Y00036159D02*
X0003234Y00036219D01*
Y00036339*
X000324Y00036399*
X0003246*
X0003252Y00036339*
Y00036279*
Y00036339*
X0003258Y00036399*
X0003264*
X000327Y00036339*
Y00036219*
X0003264Y00036159*
X000317Y000358D02*
X0003134D01*
Y00035979*
X000314Y00036039*
X0003152*
X0003158Y00035979*
Y000358*
Y0003592D02*
X000317Y00036039D01*
Y00036399D02*
Y00036159D01*
X0003146Y00036399*
X000314*
X0003134Y00036339*
Y00036219*
X000314Y00036159*
X0002053Y0004195D02*
X0002017D01*
Y00042129*
X0002023Y00042189*
X0002035*
X0002041Y00042129*
Y0004195*
Y0004207D02*
X0002053Y00042189D01*
Y00042309D02*
Y00042429D01*
Y00042369*
X0002017*
X0002023Y00042309*
X0002059Y00042609D02*
Y00042849D01*
X0002053Y00042969D02*
Y00043089D01*
Y00043029*
X0002017*
X0002023Y00042969*
X00025739Y0002856D02*
Y00028799D01*
X00025679Y00028859*
X0002556*
X000255Y00028799*
Y0002856*
X0002556Y000285*
X00025679*
X0002562Y0002862D02*
X00025739Y000285D01*
X00025679D02*
X00025739Y0002856D01*
X00025859Y000285D02*
X00025979D01*
X00025919*
Y00028859*
X00025859Y00028799*
X0003531Y0002849D02*
X0003495D01*
Y00028669*
X0003501Y00028729*
X0003513*
X0003519Y00028669*
Y0002849*
Y0002861D02*
X0003531Y00028729D01*
X0003501Y00028849D02*
X0003495Y00028909D01*
Y00029029*
X0003501Y00029089*
X0003507*
X0003513Y00029029*
Y00028969*
Y00029029*
X0003519Y00029089*
X0003525*
X0003531Y00029029*
Y00028909*
X0003525Y00028849*
X0003647Y0003016D02*
X0003611D01*
Y00030339*
X0003617Y00030399*
X0003629*
X0003635Y00030339*
Y0003016*
Y0003028D02*
X0003647Y00030399D01*
X0003617Y00030519D02*
X0003611Y00030579D01*
Y00030699*
X0003617Y00030759*
X0003623*
X0003629Y00030699*
X0003635Y00030759*
X0003641*
X0003647Y00030699*
Y00030579*
X0003641Y00030519*
X0003635*
X0003629Y00030579*
X0003623Y00030519*
X0003617*
X0003629Y00030579D02*
Y00030699D01*
X0003555Y0003757D02*
Y00037929D01*
X00035729*
X00035789Y00037869*
Y00037749*
X00035729Y0003769*
X0003555*
X00036089Y0003757D02*
Y00037929D01*
X00035909Y00037749*
X00036149*
X0003089Y00028709D02*
Y0002841D01*
X0003095Y0002835*
X00031069*
X00031129Y0002841*
Y00028709*
X00031489Y0002835D02*
X00031249D01*
X00031489Y00028589*
Y00028649*
X00031429Y00028709*
X00031309*
X00031249Y00028649*
X00037889Y00032039D02*
X00037829Y00032099D01*
X0003771*
X0003765Y00032039*
Y000318*
X0003771Y0003174*
X00037829*
X00037889Y000318*
Y00031919*
X0003777*
X00038009Y0003174D02*
Y00032099D01*
X00038249Y0003174*
Y00032099*
X00038369D02*
Y0003174D01*
X00038549*
X00038609Y000318*
Y00032039*
X00038549Y00032099*
X00038369*
X00037889Y00031099D02*
X0003765D01*
Y00030919*
X0003777Y00030979*
X00037829*
X00037889Y00030919*
Y000308*
X00037829Y0003074*
X0003771*
X0003765Y000308*
X00038009Y00031099D02*
Y0003086D01*
X00038129Y0003074*
X00038249Y0003086*
Y00031099*
X00037889Y00030039D02*
X00037829Y00030099D01*
X0003771*
X0003765Y00030039*
Y00029979*
X0003771Y00029919*
X00037829*
X00037889Y0002986*
Y000298*
X00037829Y0002974*
X0003771*
X0003765Y000298*
X00038009Y00030099D02*
X00038129D01*
X00038069*
Y0002974*
X00038009*
X00038129*
X00038549Y00030039D02*
X00038489Y00030099D01*
X00038369*
X00038309Y00030039*
Y000298*
X00038369Y0002974*
X00038489*
X00038549Y000298*
Y00029919*
X00038429*
X00038909Y0002974D02*
X00038669D01*
X00038909Y00029979*
Y00030039*
X00038849Y00030099*
X00038729*
X00038669Y00030039*
X00038999Y0002707D02*
X00039059Y0002713D01*
Y0002725*
X00038999Y0002731*
X00038939*
X00038879Y0002725*
Y0002713*
X0003882Y0002707*
X0003876*
X000387Y0002713*
Y0002725*
X0003876Y0002731*
X00039059Y0002695D02*
Y0002683D01*
Y0002689*
X000387*
Y0002695*
Y0002683*
X00038999Y0002641D02*
X00039059Y0002647D01*
Y0002659*
X00038999Y0002665*
X0003876*
X000387Y0002659*
Y0002647*
X0003876Y0002641*
X00038879*
Y0002653*
X000387Y0002629D02*
Y0002617D01*
Y0002623*
X00039059*
X00038999Y0002629*
X00038059Y0002707D02*
Y0002731D01*
X00037879*
X00037939Y0002719*
Y0002713*
X00037879Y0002707*
X0003776*
X000377Y0002713*
Y0002725*
X0003776Y0002731*
X00038059Y0002695D02*
X0003782D01*
X000377Y0002683*
X0003782Y0002671*
X00038059*
X00036999Y0002707D02*
X00037059Y0002713D01*
Y0002725*
X00036999Y0002731*
X0003676*
X000367Y0002725*
Y0002713*
X0003676Y0002707*
X00036879*
Y0002719*
X000367Y0002695D02*
X00037059D01*
X000367Y0002671*
X00037059*
Y0002659D02*
X000367D01*
Y0002641*
X0003676Y0002635*
X00036999*
X00037059Y0002641*
Y0002659*
X0002522Y00043159D02*
X00025459D01*
X0002534Y00043279D02*
Y0004304D01*
X0002626Y00043159D02*
X00026499D01*
X00032059Y00043279D02*
X00031999Y00043339D01*
X0003188*
X0003182Y00043279*
Y00043219*
X0003188Y00043159*
X00031999*
X00032059Y000431*
Y0004304*
X00031999Y0004298*
X0003188*
X0003182Y0004304*
X0003382Y00043159D02*
X00034059D01*
X0003394Y00043279D02*
Y0004304D01*
X00034739Y00043279D02*
X00034679Y00043339D01*
X0003456*
X000345Y00043279*
Y0004304*
X0003456Y0004298*
X00034679*
X00034739Y0004304*
Y00043159*
X0003462*
X00034859Y0004298D02*
Y00043339D01*
X00035099Y0004298*
Y00043339*
X00035219D02*
Y0004298D01*
X00035399*
X00035459Y0004304*
Y00043279*
X00035399Y00043339*
X00035219*
M02*