%FSTAX44Y44*%
%MOIN*%
%SFA1B1*%

%IPPOS*%
%LNrpcb6996130008r02-1*%
%LPD*%
G36*
X00031482Y00029659D02*
X00030903D01*
Y00029762*
X00031482*
Y00029659*
G37*
G36*
X00034436Y00029872D02*
X00034396Y00029833D01*
X00034003*
X00033963Y00029872*
Y00030502*
X00034436*
Y00029872*
G37*
G36*
X00028096Y00029659D02*
X00027517D01*
Y00029762*
X00028096*
Y00029659*
G37*
G36*
Y00029463D02*
X00027517D01*
Y00029565*
X00028096*
Y00029463*
G37*
G36*
X00031482D02*
X00030903D01*
Y00029565*
X00031482*
Y00029463*
G37*
G36*
X00032788Y00029916D02*
X00032311D01*
Y00030235*
X00032788*
Y00029916*
G37*
G36*
X00025862Y00029949D02*
X00025437D01*
Y00030198*
X00025862*
Y00029949*
G37*
G36*
X00026638Y00029916D02*
X00026161D01*
Y00030235*
X00026638*
Y00029916*
G37*
G36*
X00028096Y00029856D02*
X00027517D01*
Y00029959*
X00028096*
Y00029856*
G37*
G36*
X00031482D02*
X00030903D01*
Y00029959*
X00031482*
Y00029856*
G37*
G36*
X00030437Y00028417D02*
X00030334D01*
Y00028996*
X00030437*
Y00028417*
G37*
G36*
X00030633D02*
X00030531D01*
Y00028996*
X00030633*
Y00028417*
G37*
G36*
X0003024D02*
X00030137D01*
Y00028996*
X0003024*
Y00028417*
G37*
G36*
X00029846D02*
X00029744D01*
Y00028996*
X00029846*
Y00028417*
G37*
G36*
X00030043D02*
X00029941D01*
Y00028996*
X00030043*
Y00028417*
G37*
G36*
X00028096Y00029266D02*
X00027517D01*
Y00029368*
X00028096*
Y00029266*
G37*
G36*
X00031482D02*
X00030903D01*
Y00029368*
X00031482*
Y00029266*
G37*
G36*
X00026822Y00029246D02*
X00026578D01*
Y00029604*
X00026822*
Y00029246*
G37*
G36*
X00035912Y00029049D02*
X00035487D01*
Y00029298*
X00035912*
Y00029049*
G37*
G36*
X00025862Y00029201D02*
X00025437D01*
Y0002945*
X00025862*
Y00029201*
G37*
G36*
X00035912Y00029951D02*
X00035487D01*
Y000302*
X00035912*
Y00029951*
G37*
G36*
X00028096Y00030841D02*
X00027517D01*
Y00030943*
X00028096*
Y00030841*
G37*
G36*
X00031482D02*
X00030903D01*
Y00030943*
X00031482*
Y00030841*
G37*
G36*
X00035912Y00030699D02*
X00035487D01*
Y00030948*
X00035912*
Y00030699*
G37*
G36*
X00026638Y00030664D02*
X00026161D01*
Y00030983*
X00026638*
Y00030664*
G37*
G36*
X00032788D02*
X00032311D01*
Y00030983*
X00032788*
Y00030664*
G37*
G36*
X00028096Y00031234D02*
X00027517D01*
Y00031337*
X00028096*
Y00031234*
G37*
G36*
X00031482D02*
X00030903D01*
Y00031337*
X00031482*
Y00031234*
G37*
G36*
Y00031037D02*
X00030903D01*
Y0003114*
X00031482*
Y00031037*
G37*
G36*
X00034436Y00031526D02*
Y00030896D01*
X00033963*
Y00031526*
X00034003Y00031565*
X00034396*
X00034436Y00031526*
G37*
G36*
X00028096Y00031037D02*
X00027517D01*
Y0003114*
X00028096*
Y00031037*
G37*
G36*
X00031482Y0003025D02*
X00030903D01*
Y00030352*
X00031482*
Y0003025*
G37*
G36*
X00028096Y00030447D02*
X00027517D01*
Y00030549*
X00028096*
Y00030447*
G37*
G36*
Y0003025D02*
X00027517D01*
Y00030352*
X00028096*
Y0003025*
G37*
G36*
Y00030053D02*
X00027517D01*
Y00030155*
X00028096*
Y00030053*
G37*
G36*
X00031482D02*
X00030903D01*
Y00030155*
X00031482*
Y00030053*
G37*
G36*
X00028096Y00030644D02*
X00027517D01*
Y00030746*
X00028096*
Y00030644*
G37*
G36*
X00031482D02*
X00030903D01*
Y00030746*
X00031482*
Y00030644*
G37*
G36*
X00025698Y00030547D02*
X00025449D01*
Y00030972*
X00025698*
Y00030547*
G37*
G36*
X00031482Y00030447D02*
X00030903D01*
Y00030549*
X00031482*
Y00030447*
G37*
G36*
X0002495Y00030547D02*
X00024701D01*
Y00030972*
X0002495*
Y00030547*
G37*
G36*
X00029649Y00028417D02*
X00029547D01*
Y00028996*
X00029649*
Y00028417*
G37*
G36*
X00021275Y00026939D02*
X00021116D01*
Y00027462*
X00021275*
Y00026939*
G37*
G36*
X00021531D02*
X00021372D01*
Y00027462*
X00021531*
Y00026939*
G37*
G36*
X00021019D02*
X0002086D01*
Y00027462*
X00021019*
Y00026939*
G37*
G36*
X00020745Y00026675D02*
X00020233D01*
Y00027442*
X00020745*
Y00026675*
G37*
G36*
X0002267D02*
X00022158D01*
Y00027442*
X0002267*
Y00026675*
G37*
G36*
X00030079Y0002697D02*
X00029724D01*
Y00027395*
X00030079*
Y0002697*
G37*
G36*
X00026831Y0002722D02*
X00026476D01*
Y00027645*
X00026831*
Y0002722*
G37*
G36*
X00029331Y0002697D02*
X00028976D01*
Y00027395*
X00029331*
Y0002697*
G37*
G36*
X00021787Y00026939D02*
X00021628D01*
Y00027462*
X00021787*
Y00026939*
G37*
G36*
X00022043D02*
X00021883D01*
Y00027462*
X00022043*
Y00026939*
G37*
G36*
X00023028Y00025816D02*
X0002217D01*
Y0002649*
X00023028*
Y00025816*
G37*
G36*
X00038648Y00026712D02*
X00038721Y00026682D01*
X00038784Y00026634*
X00038832Y00026571*
X00038862Y00026498*
X00038872Y0002642*
X00038862Y00026341*
X00038832Y00026268*
X00038784Y00026206*
X00038721Y00026157*
X00038648Y00026127*
X0003857Y00026117*
X00038491Y00026127*
X00038418Y00026157*
X00038356Y00026206*
X00038308Y00026268*
X00038277Y00026341*
X00038267Y0002642*
X00038277Y00026498*
X00038308Y00026571*
X00038356Y00026634*
X00038418Y00026682*
X00038491Y00026712*
X0003857Y00026722*
X00038648Y00026712*
G37*
G36*
X00020737Y00025816D02*
X00019879D01*
Y0002649*
X00020737*
Y00025816*
G37*
G36*
X00021329Y00025803D02*
X00020924D01*
Y00026503*
X00021329*
Y00025803*
G37*
G36*
X00021979D02*
X00021574D01*
Y00026503*
X00021979*
Y00025803*
G37*
G36*
X00033512Y00026651D02*
X00033087D01*
Y000269*
X00033512*
Y00026651*
G37*
G36*
X00035862D02*
X00035437D01*
Y000269*
X00035862*
Y00026651*
G37*
G36*
X00030962D02*
X00030537D01*
Y000269*
X00030962*
Y00026651*
G37*
G36*
X00025862D02*
X00025437D01*
Y000269*
X00025862*
Y00026651*
G37*
G36*
X00028412D02*
X00027987D01*
Y000269*
X00028412*
Y00026651*
G37*
G36*
X00027579Y0002722D02*
X00027224D01*
Y00027645*
X00027579*
Y0002722*
G37*
G36*
X00027196Y00028395D02*
X00026952D01*
Y00028753*
X00027196*
Y00028395*
G37*
G36*
X00028468Y00028417D02*
X00028366D01*
Y00028996*
X00028468*
Y00028417*
G37*
G36*
X00026448Y00028395D02*
X00026204D01*
Y00028753*
X00026448*
Y00028395*
G37*
G36*
X00035079Y0002772D02*
X00034724D01*
Y00028145*
X00035079*
Y0002772*
G37*
G36*
X00035912Y00028301D02*
X00035487D01*
Y0002855*
X00035912*
Y00028301*
G37*
G36*
X00029255Y00028417D02*
X00029153D01*
Y00028996*
X00029255*
Y00028417*
G37*
G36*
X00029452D02*
X0002935D01*
Y00028996*
X00029452*
Y00028417*
G37*
G36*
X00029059D02*
X00028956D01*
Y00028996*
X00029059*
Y00028417*
G37*
G36*
X00028665D02*
X00028563D01*
Y00028996*
X00028665*
Y00028417*
G37*
G36*
X00028862D02*
X00028759D01*
Y00028996*
X00028862*
Y00028417*
G37*
G36*
X00028412Y00027399D02*
X00027987D01*
Y00027648*
X00028412*
Y00027399*
G37*
G36*
X00030962D02*
X00030537D01*
Y00027648*
X00030962*
Y00027399*
G37*
G36*
X00025862D02*
X00025437D01*
Y00027648*
X00025862*
Y00027399*
G37*
G36*
X00031831Y0002722D02*
X00031476D01*
Y00027645*
X00031831*
Y0002722*
G37*
G36*
X00032579D02*
X00032224D01*
Y00027645*
X00032579*
Y0002722*
G37*
G36*
X00025079Y0002772D02*
X00024724D01*
Y00028145*
X00025079*
Y0002772*
G37*
G36*
X00034331D02*
X00033976D01*
Y00028145*
X00034331*
Y0002772*
G37*
G36*
X00024331D02*
X00023976D01*
Y00028145*
X00024331*
Y0002772*
G37*
G36*
X00033512Y00027399D02*
X00033087D01*
Y00027648*
X00033512*
Y00027399*
G37*
G36*
X00035862D02*
X00035437D01*
Y00027648*
X00035862*
Y00027399*
G37*
G36*
X00023938Y00036016D02*
X00023461D01*
Y00036335*
X00023938*
Y00036016*
G37*
G36*
X000214Y000363D02*
X0002085D01*
Y0003705*
X000214*
Y000363*
G37*
G36*
X0003096Y00035984D02*
X00029779D01*
Y00036535*
X0003096*
Y00035984*
G37*
G36*
X00027812Y00035299D02*
X00027387D01*
Y00035548*
X00027812*
Y00035299*
G37*
G36*
X00029185Y00035984D02*
X00028004D01*
Y00036535*
X00029185*
Y00035984*
G37*
G36*
X00030362Y00038801D02*
X00029937D01*
Y0003905*
X00030362*
Y00038801*
G37*
G36*
X00029312Y00039549D02*
X00028887D01*
Y00039798*
X00029312*
Y00039549*
G37*
G36*
Y00038801D02*
X00028887D01*
Y0003905*
X00029312*
Y00038801*
G37*
G36*
X0002205Y000363D02*
X000215D01*
Y0003705*
X0002205*
Y000363*
G37*
G36*
X00023938Y00036764D02*
X00023461D01*
Y00037083*
X00023938*
Y00036764*
G37*
G36*
X00024988Y00034516D02*
X00024511D01*
Y00034835*
X00024988*
Y00034516*
G37*
G36*
X00027812Y00034551D02*
X00027387D01*
Y000348*
X00027812*
Y00034551*
G37*
G36*
X00023938Y00034516D02*
X00023461D01*
Y00034835*
X00023938*
Y00034516*
G37*
G36*
X00032788Y00034416D02*
X00032311D01*
Y00034735*
X00032788*
Y00034416*
G37*
G36*
X00031712Y00034451D02*
X00031287D01*
Y000347*
X00031712*
Y00034451*
G37*
G36*
X00023938Y00035264D02*
X00023461D01*
Y00035583*
X00023938*
Y00035264*
G37*
G36*
X00024988D02*
X00024511D01*
Y00035583*
X00024988*
Y00035264*
G37*
G36*
X00031712Y00035199D02*
X00031287D01*
Y00035448*
X00031712*
Y00035199*
G37*
G36*
X00034436Y00035227D02*
Y00034597D01*
X00033963*
Y00035227*
X00034003Y00035266*
X00034396*
X00034436Y00035227*
G37*
G36*
X00032788Y00035164D02*
X00032311D01*
Y00035483*
X00032788*
Y00035164*
G37*
G36*
X00030362Y00039549D02*
X00029937D01*
Y00039798*
X00030362*
Y00039549*
G37*
G36*
X00028262Y00043451D02*
X00027837D01*
Y000437*
X00028262*
Y00043451*
G37*
G36*
X00021331Y0004372D02*
X00020976D01*
Y00044145*
X00021331*
Y0004372*
G37*
G36*
X00023912Y00043451D02*
X00023487D01*
Y000437*
X00023912*
Y00043451*
G37*
G36*
X00021212Y00042849D02*
X00020787D01*
Y00043098*
X00021212*
Y00042849*
G37*
G36*
X00037382D02*
X00036957D01*
Y00043098*
X00037382*
Y00042849*
G37*
G36*
X00023912Y00044199D02*
X00023487D01*
Y00044448*
X00023912*
Y00044199*
G37*
G36*
X00028262D02*
X00027837D01*
Y00044448*
X00028262*
Y00044199*
G37*
G36*
X00038079Y0004372D02*
X00037724D01*
Y00044145*
X00038079*
Y0004372*
G37*
G36*
X00022079D02*
X00021724D01*
Y00044145*
X00022079*
Y0004372*
G37*
G36*
X00037331D02*
X00036976D01*
Y00044145*
X00037331*
Y0004372*
G37*
G36*
X00030362Y00041049D02*
X00029937D01*
Y00041298*
X00030362*
Y00041049*
G37*
G36*
X00030388Y00041766D02*
X00029911D01*
Y00042085*
X00030388*
Y00041766*
G37*
G36*
X00030362Y00040301D02*
X00029937D01*
Y0004055*
X00030362*
Y00040301*
G37*
G36*
X00020538Y00040582D02*
X00020611Y00040552D01*
X00020674Y00040504*
X00020722Y00040441*
X00020752Y00040368*
X00020762Y0004029*
X00020752Y00040211*
X00020722Y00040138*
X00020674Y00040076*
X00020611Y00040028*
X00020538Y00039997*
X0002046Y00039987*
X00020381Y00039997*
X00020308Y00040028*
X00020246Y00040076*
X00020197Y00040138*
X00020167Y00040211*
X00020157Y0004029*
X00020167Y00040368*
X00020197Y00040441*
X00020246Y00040504*
X00020308Y00040552*
X00020381Y00040582*
X0002046Y00040592*
X00020538Y00040582*
G37*
G36*
X00038648D02*
X00038721Y00040552D01*
X00038784Y00040504*
X00038832Y00040441*
X00038862Y00040368*
X00038872Y0004029*
X00038862Y00040211*
X00038832Y00040138*
X00038784Y00040076*
X00038721Y00040028*
X00038648Y00039997*
X0003857Y00039987*
X00038491Y00039997*
X00038418Y00040028*
X00038356Y00040076*
X00038308Y00040138*
X00038277Y00040211*
X00038267Y0004029*
X00038277Y00040368*
X00038308Y00040441*
X00038356Y00040504*
X00038418Y00040552*
X00038491Y00040582*
X0003857Y00040592*
X00038648Y00040582*
G37*
G36*
X00030388Y00042514D02*
X00029911D01*
Y00042833*
X00030388*
Y00042514*
G37*
G36*
X00029312Y00042549D02*
X00028887D01*
Y00042798*
X00029312*
Y00042549*
G37*
G36*
X00037382Y00042101D02*
X00036957D01*
Y0004235*
X00037382*
Y00042101*
G37*
G36*
X00029312Y00041801D02*
X00028887D01*
Y0004205*
X00029312*
Y00041801*
G37*
G36*
X00021212Y00042101D02*
X00020787D01*
Y0004235*
X00021212*
Y00042101*
G37*
G36*
X0003096Y00034414D02*
X00029779D01*
Y00034965*
X0003096*
Y00034414*
G37*
G36*
X00029649Y00031803D02*
X00029547D01*
Y00032382*
X00029649*
Y00031803*
G37*
G36*
X00029846D02*
X00029744D01*
Y00032382*
X00029846*
Y00031803*
G37*
G36*
X00029452D02*
X0002935D01*
Y00032382*
X00029452*
Y00031803*
G37*
G36*
X00029059D02*
X00028956D01*
Y00032382*
X00029059*
Y00031803*
G37*
G36*
X00029255D02*
X00029153D01*
Y00032382*
X00029255*
Y00031803*
G37*
G36*
X00030633D02*
X00030531D01*
Y00032382*
X00030633*
Y00031803*
G37*
G36*
X00026638Y00032164D02*
X00026161D01*
Y00032483*
X00026638*
Y00032164*
G37*
G36*
X00030437Y00031803D02*
X00030334D01*
Y00032382*
X00030437*
Y00031803*
G37*
G36*
X00030043D02*
X00029941D01*
Y00032382*
X00030043*
Y00031803*
G37*
G36*
X0003024D02*
X00030137D01*
Y00032382*
X0003024*
Y00031803*
G37*
G36*
X00028096Y00031431D02*
X00027517D01*
Y00031533*
X00028096*
Y00031431*
G37*
G36*
X00031482D02*
X00030903D01*
Y00031533*
X00031482*
Y00031431*
G37*
G36*
X00035938Y00031416D02*
X00035461D01*
Y00031735*
X00035938*
Y00031416*
G37*
G36*
X00026638D02*
X00026161D01*
Y00031735*
X00026638*
Y00031416*
G37*
G36*
X00032788D02*
X00032311D01*
Y00031735*
X00032788*
Y00031416*
G37*
G36*
X00028665Y00031803D02*
X00028563D01*
Y00032382*
X00028665*
Y00031803*
G37*
G36*
X00028862D02*
X00028759D01*
Y00032382*
X00028862*
Y00031803*
G37*
G36*
X00028468D02*
X00028366D01*
Y00032382*
X00028468*
Y00031803*
G37*
G36*
X0002495Y00031437D02*
X00024701D01*
Y00031862*
X0002495*
Y00031437*
G37*
G36*
X00025698D02*
X00025449D01*
Y00031862*
X00025698*
Y00031437*
G37*
G36*
X00032788Y00032164D02*
X00032311D01*
Y00032483*
X00032788*
Y00032164*
G37*
G36*
X00035938Y00033664D02*
X00035461D01*
Y00033983*
X00035938*
Y00033664*
G37*
G36*
X00026612Y00033749D02*
X00026187D01*
Y00033998*
X00026612*
Y00033749*
G37*
G36*
X00032788Y00033664D02*
X00032311D01*
Y00033983*
X00032788*
Y00033664*
G37*
G36*
X00028362Y00033659D02*
X00027937D01*
Y00033908*
X00028362*
Y00033659*
G37*
G36*
X00029328Y00033664D02*
X00028851D01*
Y00033983*
X00029328*
Y00033664*
G37*
G36*
X000226Y00033805D02*
X00022103D01*
Y0003466*
X000226*
Y00033805*
G37*
G36*
X00029185Y00034414D02*
X00028004D01*
Y00034965*
X00029185*
Y00034414*
G37*
G36*
X00021694Y00033805D02*
X00021198D01*
Y0003466*
X00021694*
Y00033805*
G37*
G36*
X00027512Y00033749D02*
X00027087D01*
Y00033998*
X00027512*
Y00033749*
G37*
G36*
X00020789Y00033805D02*
X00020292D01*
Y0003466*
X00020789*
Y00033805*
G37*
G36*
X00029328Y00032916D02*
X00028851D01*
Y00033235*
X00029328*
Y00032916*
G37*
G36*
X00032788D02*
X00032311D01*
Y00033235*
X00032788*
Y00032916*
G37*
G36*
X00028362Y00032911D02*
X00027937D01*
Y0003316*
X00028362*
Y00032911*
G37*
G36*
X00035938Y00032164D02*
X00035461D01*
Y00032483*
X00035938*
Y00032164*
G37*
G36*
X00025862Y00032201D02*
X00025437D01*
Y0003245*
X00025862*
Y00032201*
G37*
G36*
X00027512Y00033001D02*
X00027087D01*
Y0003325*
X00027512*
Y00033001*
G37*
G36*
X00034436Y00033573D02*
X00034396Y00033534D01*
X00034003*
X00033963Y00033573*
Y00034203*
X00034436*
Y00033573*
G37*
G36*
X00026612Y00033001D02*
X00026187D01*
Y0003325*
X00026612*
Y00033001*
G37*
G36*
X00035938Y00032916D02*
X00035461D01*
Y00033235*
X00035938*
Y00032916*
G37*
G36*
X00025862Y00032949D02*
X00025437D01*
Y00033198*
X00025862*
Y00032949*
G37*
M02*