%FSTAX44Y44*%
%MOIN*%
%SFA1B1*%

%IPPOS*%
%ADD56C,0.061120*%
%ADD57R,0.061120X0.061120*%
%ADD58C,0.076000*%
%ADD59R,0.076000X0.076000*%
%ADD60R,0.076000X0.076000*%
%ADD61C,0.147730*%
%LNrpcb6996130008r02-1*%
%LPD*%
G54D56*
X00033965Y00044142D03*
X0003195D03*
G54D57*
X0003495Y00044142D03*
G54D58*
X000369Y000367D03*
Y000377D03*
Y000347D03*
Y000357D03*
X00034527Y0004105D03*
X00035527D03*
X00032527D03*
X00033527D03*
X00026527D03*
X00027527D03*
X00024527D03*
X00025527D03*
X00034527Y0004205D03*
X00035527D03*
X00032527D03*
X00033527D03*
X00026527D03*
X00027527D03*
X00024527D03*
X00025527D03*
X00034527Y0004005D03*
X00035527D03*
X00032527D03*
X00033527D03*
X00026527D03*
X00027527D03*
X00024527D03*
X00025527D03*
X0002535Y0004405D03*
X000369Y0002989D03*
Y0003089D03*
X0003785Y0002806D03*
X0003685D03*
G54D59*
X000369Y000337D03*
Y0003189D03*
G54D60*
X00031527Y0004105D03*
X00023527D03*
X00031527Y0004205D03*
X00023527D03*
X00031527Y0004005D03*
X00023527D03*
X0002635Y0004405D03*
X0003885Y0002806D03*
G54D61*
X00029527Y00043933D03*
M02*